solid untitled
facet normal -0.0 -0.0 1.0
outer loop
vertex 0.0 0.0 22.0
vertex 1.0 1.0 22.0
vertex 0.0 19.0 22.0
endloop
endfacet
facet normal -0.0 -0.0 1.0
outer loop
vertex 1.0 1.0 22.0
vertex 0.0 0.0 22.0
vertex 19.0 0.0 22.0
endloop
endfacet
facet normal -0.0 -0.0 1.0
outer loop
vertex 1.0 1.0 22.0
vertex 19.0 0.0 22.0
vertex 18.0 1.0 22.0
endloop
endfacet
facet normal -0.0 -0.0 1.0
outer loop
vertex 18.0 1.0 22.0
vertex 19.0 0.0 22.0
vertex 18.0 18.0 22.0
endloop
endfacet
facet normal -0.0 -0.0 1.0
outer loop
vertex 0.0 19.0 22.0
vertex 1.0 18.0 22.0
vertex 19.0 19.0 22.0
endloop
endfacet
facet normal -0.0 -0.0 1.0
outer loop
vertex 1.0 18.0 22.0
vertex 0.0 19.0 22.0
vertex 1.0 1.0 22.0
endloop
endfacet
facet normal -0.0 -0.0 1.0
outer loop
vertex 19.0 19.0 22.0
vertex 1.0 18.0 22.0
vertex 18.0 18.0 22.0
endloop
endfacet
facet normal -0.0 -0.0 1.0
outer loop
vertex 19.0 19.0 22.0
vertex 18.0 18.0 22.0
vertex 19.0 0.0 22.0
endloop
endfacet
facet normal -0.0 -1.0 -0.0
outer loop
vertex 19.0 0.0 22.0
vertex 0.0 0.0 0.0
vertex 19.0 0.0 0.0
endloop
endfacet
facet normal -0.0 -1.0 -0.0
outer loop
vertex 0.0 0.0 0.0
vertex 19.0 0.0 22.0
vertex 0.0 0.0 22.0
endloop
endfacet
facet normal -1.0 0.0 0.0
outer loop
vertex 18.0 18.0 22.0
vertex 18.0 1.0 0.0
vertex 18.0 1.0 22.0
endloop
endfacet
facet normal -1.0 0.0 0.0
outer loop
vertex 18.0 1.0 0.0
vertex 18.0 18.0 22.0
vertex 18.0 18.0 0.0
endloop
endfacet
facet normal 1.0 0.0 0.0
outer loop
vertex 19.0 19.0 0.0
vertex 19.0 0.0 22.0
vertex 19.0 0.0 0.0
endloop
endfacet
facet normal 1.0 0.0 0.0
outer loop
vertex 19.0 0.0 22.0
vertex 19.0 19.0 0.0
vertex 19.0 19.0 22.0
endloop
endfacet
facet normal -0.0 1.0 0.0
outer loop
vertex 1.0 1.0 22.0
vertex 18.0 1.0 0.0
vertex 1.0 1.0 0.0
endloop
endfacet
facet normal -0.0 1.0 0.0
outer loop
vertex 18.0 1.0 0.0
vertex 1.0 1.0 22.0
vertex 18.0 1.0 22.0
endloop
endfacet
facet normal -1.0 0.0 0.0
outer loop
vertex 0.0 19.0 22.0
vertex 0.0 0.0 0.0
vertex 0.0 0.0 22.0
endloop
endfacet
facet normal -1.0 0.0 0.0
outer loop
vertex 0.0 0.0 0.0
vertex 0.0 19.0 22.0
vertex 0.0 19.0 0.0
endloop
endfacet
facet normal -0.0 1.0 0.0
outer loop
vertex 0.0 19.0 22.0
vertex 19.0 19.0 0.0
vertex 0.0 19.0 0.0
endloop
endfacet
facet normal -0.0 1.0 0.0
outer loop
vertex 19.0 19.0 0.0
vertex 0.0 19.0 22.0
vertex 19.0 19.0 22.0
endloop
endfacet
facet normal 1.0 0.0 0.0
outer loop
vertex 1.0 18.0 0.0
vertex 1.0 1.0 22.0
vertex 1.0 1.0 0.0
endloop
endfacet
facet normal 1.0 0.0 0.0
outer loop
vertex 1.0 1.0 22.0
vertex 1.0 18.0 0.0
vertex 1.0 18.0 22.0
endloop
endfacet
facet normal -0.0 -1.0 -0.0
outer loop
vertex 18.0 18.0 22.0
vertex 1.0 18.0 0.0
vertex 18.0 18.0 0.0
endloop
endfacet
facet normal -0.0 -1.0 -0.0
outer loop
vertex 1.0 18.0 0.0
vertex 18.0 18.0 22.0
vertex 1.0 18.0 22.0
endloop
endfacet
facet normal 0.0 0.0 -1.0
outer loop
vertex 0.0 19.0 0.0
vertex 1.0 18.0 0.0
vertex 0.0 0.0 0.0
endloop
endfacet
facet normal 0.0 0.0 -1.0
outer loop
vertex 1.0 18.0 0.0
vertex 0.0 19.0 0.0
vertex 19.0 19.0 0.0
endloop
endfacet
facet normal 0.0 0.0 -1.0
outer loop
vertex 1.0 18.0 0.0
vertex 19.0 19.0 0.0
vertex 18.0 18.0 0.0
endloop
endfacet
facet normal 0.0 0.0 -1.0
outer loop
vertex 18.0 18.0 0.0
vertex 19.0 19.0 0.0
vertex 18.0 1.0 0.0
endloop
endfacet
facet normal 0.0 0.0 -1.0
outer loop
vertex 0.0 0.0 0.0
vertex 1.0 1.0 0.0
vertex 19.0 0.0 0.0
endloop
endfacet
facet normal 0.0 0.0 -1.0
outer loop
vertex 1.0 1.0 0.0
vertex 0.0 0.0 0.0
vertex 1.0 18.0 0.0
endloop
endfacet
facet normal 0.0 0.0 -1.0
outer loop
vertex 19.0 0.0 0.0
vertex 1.0 1.0 0.0
vertex 18.0 1.0 0.0
endloop
endfacet
facet normal 0.0 0.0 -1.0
outer loop
vertex 19.0 0.0 0.0
vertex 18.0 1.0 0.0
vertex 19.0 19.0 0.0
endloop
endfacet
endsolid untitled
