solid kitchissippi-02
facet normal -0.499999999999991 0.866025403784444 0.0
outer loop
vertex -234.821646469441 -106.068929361855 3.00000000000001
vertex -234.098103604748 -105.769228094341 1.12798659301916e-14
vertex -234.821646469441 -106.068929361855 1.12798659301916e-14
endloop
endfacet
facet normal -0.258819045102518 0.965925826289069 0.0
outer loop
vertex -234.098103604748 -105.769228094341 1.12798659301916e-14
vertex -234.821646469441 -106.068929361855 3.00000000000001
vertex -234.098103604748 -105.769228094341 3.00000000000001
endloop
endfacet
facet normal 0.965925826289067 0.258819045102526 0.0
outer loop
vertex -230.423868990574 -107.890548437901 1.12798659301916e-14
vertex -230.321646469441 -108.667005573208 3.00000000000001
vertex -230.321646469441 -108.667005573208 1.12798659301916e-14
endloop
endfacet
facet normal 1.0 0.0 0.0
outer loop
vertex -230.321646469441 -108.667005573208 3.00000000000001
vertex -230.423868990574 -107.890548437901 1.12798659301916e-14
vertex -230.423868990574 -107.890548437901 3.00000000000001
endloop
endfacet
facet normal 0.499999999999997 -0.866025403784441 0.0
outer loop
vertex -234.321646469441 -106.93495476564 3.00000000000001
vertex -234.735860031814 -107.252792010835 1.12798659301916e-14
vertex -234.321646469441 -106.93495476564 1.12798659301916e-14
endloop
endfacet
facet normal 0.707106781186548 -0.707106781186548 0.0
outer loop
vertex -234.735860031814 -107.252792010835 1.12798659301916e-14
vertex -234.321646469441 -106.93495476564 3.00000000000001
vertex -234.735860031814 -107.252792010835 3.00000000000001
endloop
endfacet
facet normal -0.866025403784441 -0.499999999999996 0.0
outer loop
vertex -235.919722680794 -110.167005573208 3.00000000000001
vertex -235.442966813001 -110.788325916768 1.12798659301916e-14
vertex -235.442966813001 -110.788325916768 3.00000000000001
endloop
endfacet
facet normal -0.707106781186554 -0.707106781186541 0.0
outer loop
vertex -235.442966813001 -110.788325916768 1.12798659301916e-14
vertex -235.919722680794 -110.167005573208 3.00000000000001
vertex -235.919722680794 -110.167005573208 1.12798659301916e-14
endloop
endfacet
facet normal 0.499999999999993 -0.866025403784443 0.0
outer loop
vertex -231.821646469441 -111.265081784562 3.00000000000001
vertex -232.545189334133 -111.564783052076 1.12798659301916e-14
vertex -231.821646469441 -111.265081784562 1.12798659301916e-14
endloop
endfacet
facet normal 0.258819045102531 -0.965925826289065 0.0
outer loop
vertex -232.545189334133 -111.564783052076 1.12798659301916e-14
vertex -231.821646469441 -111.265081784562 3.00000000000001
vertex -232.545189334133 -111.564783052076 3.00000000000001
endloop
endfacet
facet normal 0.707106781186554 0.707106781186541 0.0
outer loop
vertex -231.200326125881 -106.545685229649 1.12798659301916e-14
vertex -230.723570258088 -107.167005573208 3.00000000000001
vertex -230.723570258088 -107.167005573208 1.12798659301916e-14
endloop
endfacet
facet normal 0.866025403784441 0.499999999999996 0.0
outer loop
vertex -230.723570258088 -107.167005573208 3.00000000000001
vertex -231.200326125881 -106.545685229649 1.12798659301916e-14
vertex -231.200326125881 -106.545685229649 3.00000000000001
endloop
endfacet
facet normal -0.258819045102521 -0.965925826289068 0.0
outer loop
vertex -234.098103604748 -111.564783052076 3.00000000000001
vertex -234.821646469441 -111.265081784562 1.12798659301916e-14
vertex -234.098103604748 -111.564783052076 1.12798659301916e-14
endloop
endfacet
facet normal -0.499999999999999 -0.86602540378444 0.0
outer loop
vertex -234.821646469441 -111.265081784562 1.12798659301916e-14
vertex -234.098103604748 -111.564783052076 3.00000000000001
vertex -234.821646469441 -111.265081784562 3.00000000000001
endloop
endfacet
facet normal -0.499999999999999 -0.86602540378444 0.0
outer loop
vertex -234.821646469441 -111.265081784562 3.00000000000001
vertex -235.442966813001 -110.788325916768 1.12798659301916e-14
vertex -234.821646469441 -111.265081784562 1.12798659301916e-14
endloop
endfacet
facet normal -0.707106781186554 -0.707106781186541 0.0
outer loop
vertex -235.442966813001 -110.788325916768 1.12798659301916e-14
vertex -234.821646469441 -111.265081784562 3.00000000000001
vertex -235.442966813001 -110.788325916768 3.00000000000001
endloop
endfacet
facet normal 0.258819045102522 -0.965925826289068 0.0
outer loop
vertex -233.839284559646 -106.73515392063 3.00000000000001
vertex -234.321646469441 -106.93495476564 1.12798659301916e-14
vertex -233.839284559646 -106.73515392063 1.12798659301916e-14
endloop
endfacet
facet normal 0.499999999999997 -0.866025403784441 0.0
outer loop
vertex -234.321646469441 -106.93495476564 1.12798659301916e-14
vertex -233.839284559646 -106.73515392063 3.00000000000001
vertex -234.321646469441 -106.93495476564 3.00000000000001
endloop
endfacet
facet normal 1.0 0.0 0.0
outer loop
vertex -230.321646469441 -108.667005573208 1.12798659301916e-14
vertex -230.423868990574 -109.443462708516 3.00000000000001
vertex -230.423868990574 -109.443462708516 1.12798659301916e-14
endloop
endfacet
facet normal 0.965925826289067 -0.258819045102526 0.0
outer loop
vertex -230.423868990574 -109.443462708516 3.00000000000001
vertex -230.321646469441 -108.667005573208 1.12798659301916e-14
vertex -230.321646469441 -108.667005573208 3.00000000000001
endloop
endfacet
facet normal -2.14133970792395e-14 -1.0 0.0
outer loop
vertex -233.321646469441 -106.667005573208 3.00000000000001
vertex -233.839284559646 -106.73515392063 1.12798659301916e-14
vertex -233.321646469441 -106.667005573208 1.12798659301916e-14
endloop
endfacet
facet normal 0.258819045102522 -0.965925826289068 0.0
outer loop
vertex -233.839284559646 -106.73515392063 1.12798659301916e-14
vertex -233.321646469441 -106.667005573208 3.00000000000001
vertex -233.839284559646 -106.73515392063 3.00000000000001
endloop
endfacet
facet normal -0.707106781186549 0.707106781186546 0.0
outer loop
vertex -235.442966813001 -106.545685229649 3.00000000000001
vertex -234.821646469441 -106.068929361855 1.12798659301916e-14
vertex -235.442966813001 -106.545685229649 1.12798659301916e-14
endloop
endfacet
facet normal -0.499999999999991 0.866025403784444 0.0
outer loop
vertex -234.821646469441 -106.068929361855 1.12798659301916e-14
vertex -235.442966813001 -106.545685229649 3.00000000000001
vertex -234.821646469441 -106.068929361855 3.00000000000001
endloop
endfacet
facet normal 0.707106781186541 -0.707106781186554 0.0
outer loop
vertex -231.200326125881 -110.788325916768 3.00000000000001
vertex -231.821646469441 -111.265081784562 1.12798659301916e-14
vertex -231.200326125881 -110.788325916768 1.12798659301916e-14
endloop
endfacet
facet normal 0.499999999999993 -0.866025403784443 0.0
outer loop
vertex -231.821646469441 -111.265081784562 1.12798659301916e-14
vertex -231.200326125881 -110.788325916768 3.00000000000001
vertex -231.821646469441 -111.265081784562 3.00000000000001
endloop
endfacet
facet normal -0.965925826289067 -0.258819045102526 0.0
outer loop
vertex -236.219423948308 -109.443462708516 3.00000000000001
vertex -235.919722680794 -110.167005573208 1.12798659301916e-14
vertex -235.919722680794 -110.167005573208 3.00000000000001
endloop
endfacet
facet normal -0.866025403784441 -0.499999999999996 0.0
outer loop
vertex -235.919722680794 -110.167005573208 1.12798659301916e-14
vertex -236.219423948308 -109.443462708516 3.00000000000001
vertex -236.219423948308 -109.443462708516 1.12798659301916e-14
endloop
endfacet
facet normal 0.0 1.0 0.0
outer loop
vertex -233.321646469441 -105.667005573208 3.00000000000001
vertex -232.545189334133 -105.769228094341 1.12798659301916e-14
vertex -233.321646469441 -105.667005573208 1.12798659301916e-14
endloop
endfacet
facet normal 0.258819045102521 0.965925826289068 0.0
outer loop
vertex -232.545189334133 -105.769228094341 1.12798659301916e-14
vertex -233.321646469441 -105.667005573208 3.00000000000001
vertex -232.545189334133 -105.769228094341 3.00000000000001
endloop
endfacet
facet normal 0.258819045102521 0.965925826289068 0.0
outer loop
vertex -232.545189334133 -105.769228094341 3.00000000000001
vertex -231.821646469441 -106.068929361855 1.12798659301916e-14
vertex -232.545189334133 -105.769228094341 1.12798659301916e-14
endloop
endfacet
facet normal 0.499999999999999 0.86602540378444 0.0
outer loop
vertex -231.821646469441 -106.068929361855 1.12798659301916e-14
vertex -232.545189334133 -105.769228094341 3.00000000000001
vertex -231.821646469441 -106.068929361855 3.00000000000001
endloop
endfacet
facet normal 0.0 -1.0 0.0
outer loop
vertex -233.321646469441 -111.667005573208 3.00000000000001
vertex -234.098103604748 -111.564783052076 1.12798659301916e-14
vertex -233.321646469441 -111.667005573208 1.12798659301916e-14
endloop
endfacet
facet normal -0.258819045102521 -0.965925826289068 0.0
outer loop
vertex -234.098103604748 -111.564783052076 1.12798659301916e-14
vertex -233.321646469441 -111.667005573208 3.00000000000001
vertex -234.098103604748 -111.564783052076 3.00000000000001
endloop
endfacet
facet normal 0.866025403784446 -0.499999999999986 0.0
outer loop
vertex -235.05369727701 -107.667005573208 1.12798659301916e-14
vertex -235.253498122019 -108.149367483003 3.00000000000001
vertex -235.253498122019 -108.149367483003 1.12798659301916e-14
endloop
endfacet
facet normal 0.965925826289066 -0.258819045102529 0.0
outer loop
vertex -235.253498122019 -108.149367483003 3.00000000000001
vertex -235.05369727701 -107.667005573208 1.12798659301916e-14
vertex -235.05369727701 -107.667005573208 3.00000000000001
endloop
endfacet
facet normal 0.258819045102531 -0.965925826289065 0.0
outer loop
vertex -232.545189334133 -111.564783052076 3.00000000000001
vertex -233.321646469441 -111.667005573208 1.12798659301916e-14
vertex -232.545189334133 -111.564783052076 1.12798659301916e-14
endloop
endfacet
facet normal 0.0 -1.0 0.0
outer loop
vertex -233.321646469441 -111.667005573208 1.12798659301916e-14
vertex -232.545189334133 -111.564783052076 3.00000000000001
vertex -233.321646469441 -111.667005573208 3.00000000000001
endloop
endfacet
facet normal -0.258819045102518 0.965925826289069 0.0
outer loop
vertex -234.098103604748 -105.769228094341 3.00000000000001
vertex -233.321646469441 -105.667005573208 1.12798659301916e-14
vertex -234.098103604748 -105.769228094341 1.12798659301916e-14
endloop
endfacet
facet normal 0.0 1.0 0.0
outer loop
vertex -233.321646469441 -105.667005573208 1.12798659301916e-14
vertex -234.098103604748 -105.769228094341 3.00000000000001
vertex -233.321646469441 -105.667005573208 3.00000000000001
endloop
endfacet
facet normal -0.707106781186549 0.707106781186546 0.0
outer loop
vertex -235.442966813001 -106.545685229649 3.00000000000001
vertex -235.919722680794 -107.167005573208 1.12798659301916e-14
vertex -235.919722680794 -107.167005573208 3.00000000000001
endloop
endfacet
facet normal -0.866025403784441 0.499999999999996 0.0
outer loop
vertex -235.919722680794 -107.167005573208 1.12798659301916e-14
vertex -235.442966813001 -106.545685229649 3.00000000000001
vertex -235.442966813001 -106.545685229649 1.12798659301916e-14
endloop
endfacet
facet normal 0.707106781186548 -0.707106781186548 0.0
outer loop
vertex -234.735860031814 -107.252792010835 1.12798659301916e-14
vertex -235.05369727701 -107.667005573208 3.00000000000001
vertex -235.05369727701 -107.667005573208 1.12798659301916e-14
endloop
endfacet
facet normal 0.866025403784446 -0.499999999999986 0.0
outer loop
vertex -235.05369727701 -107.667005573208 3.00000000000001
vertex -234.735860031814 -107.252792010835 1.12798659301916e-14
vertex -234.735860031814 -107.252792010835 3.00000000000001
endloop
endfacet
facet normal 2.14133970792395e-14 1.0 0.0
outer loop
vertex -233.321646469441 -110.667005573208 3.00000000000001
vertex -232.804008379236 -110.598857225787 1.12798659301916e-14
vertex -233.321646469441 -110.667005573208 1.12798659301916e-14
endloop
endfacet
facet normal -0.258819045102522 0.965925826289068 0.0
outer loop
vertex -232.804008379236 -110.598857225787 1.12798659301916e-14
vertex -233.321646469441 -110.667005573208 3.00000000000001
vertex -232.804008379236 -110.598857225787 3.00000000000001
endloop
endfacet
facet normal -0.258819045102522 0.965925826289068 0.0
outer loop
vertex -232.804008379236 -110.598857225787 3.00000000000001
vertex -232.321646469441 -110.399056380777 1.12798659301916e-14
vertex -232.804008379236 -110.598857225787 1.12798659301916e-14
endloop
endfacet
facet normal -0.499999999999997 0.866025403784441 0.0
outer loop
vertex -232.321646469441 -110.399056380777 1.12798659301916e-14
vertex -232.804008379236 -110.598857225787 3.00000000000001
vertex -232.321646469441 -110.399056380777 3.00000000000001
endloop
endfacet
facet normal 0.499999999999999 0.86602540378444 0.0
outer loop
vertex -231.821646469441 -106.068929361855 3.00000000000001
vertex -231.200326125881 -106.545685229649 1.12798659301916e-14
vertex -231.821646469441 -106.068929361855 1.12798659301916e-14
endloop
endfacet
facet normal 0.707106781186554 0.707106781186541 0.0
outer loop
vertex -231.200326125881 -106.545685229649 1.12798659301916e-14
vertex -231.821646469441 -106.068929361855 3.00000000000001
vertex -231.200326125881 -106.545685229649 3.00000000000001
endloop
endfacet
facet normal 0.866025403784441 -0.499999999999996 0.0
outer loop
vertex -230.723570258088 -110.167005573208 1.12798659301916e-14
vertex -231.200326125881 -110.788325916768 3.00000000000001
vertex -231.200326125881 -110.788325916768 1.12798659301916e-14
endloop
endfacet
facet normal 0.707106781186541 -0.707106781186554 0.0
outer loop
vertex -231.200326125881 -110.788325916768 3.00000000000001
vertex -230.723570258088 -110.167005573208 1.12798659301916e-14
vertex -230.723570258088 -110.167005573208 3.00000000000001
endloop
endfacet
facet normal 1.0 0.0 0.0
outer loop
vertex -235.321646469441 -108.667005573208 1.12798659301916e-14
vertex -235.253498122019 -109.184643663413 3.00000000000001
vertex -235.253498122019 -109.184643663413 1.12798659301916e-14
endloop
endfacet
facet normal 0.965925826289066 0.258819045102529 0.0
outer loop
vertex -235.253498122019 -109.184643663413 3.00000000000001
vertex -235.321646469441 -108.667005573208 1.12798659301916e-14
vertex -235.321646469441 -108.667005573208 3.00000000000001
endloop
endfacet
facet normal 0.866025403784441 0.499999999999996 0.0
outer loop
vertex -230.723570258088 -107.167005573208 1.12798659301916e-14
vertex -230.423868990574 -107.890548437901 3.00000000000001
vertex -230.423868990574 -107.890548437901 1.12798659301916e-14
endloop
endfacet
facet normal 0.965925826289067 0.258819045102526 0.0
outer loop
vertex -230.423868990574 -107.890548437901 3.00000000000001
vertex -230.723570258088 -107.167005573208 1.12798659301916e-14
vertex -230.723570258088 -107.167005573208 3.00000000000001
endloop
endfacet
facet normal 0.965925826289066 0.258819045102529 0.0
outer loop
vertex -235.253498122019 -109.184643663413 1.12798659301916e-14
vertex -235.05369727701 -109.667005573208 3.00000000000001
vertex -235.05369727701 -109.667005573208 1.12798659301916e-14
endloop
endfacet
facet normal 0.866025403784446 0.499999999999986 0.0
outer loop
vertex -235.05369727701 -109.667005573208 3.00000000000001
vertex -235.253498122019 -109.184643663413 1.12798659301916e-14
vertex -235.253498122019 -109.184643663413 3.00000000000001
endloop
endfacet
facet normal 0.0 0.0 1.0
outer loop
vertex -236.219423948308 -109.443462708516 3.00000000000001
vertex -236.219423948308 -107.890548437901 3.00000000000001
vertex -236.321646469441 -108.667005573208 3.00000000000001
endloop
endfacet
facet normal 0.0 0.0 1.0
outer loop
vertex -236.219423948308 -107.890548437901 3.00000000000001
vertex -236.219423948308 -109.443462708516 3.00000000000001
vertex -235.919722680794 -110.167005573208 3.00000000000001
endloop
endfacet
facet normal 0.0 0.0 1.0
outer loop
vertex -236.219423948308 -107.890548437901 3.00000000000001
vertex -235.919722680794 -110.167005573208 3.00000000000001
vertex -235.919722680794 -107.167005573208 3.00000000000001
endloop
endfacet
facet normal 0.0 0.0 1.0
outer loop
vertex -235.919722680794 -107.167005573208 3.00000000000001
vertex -235.919722680794 -110.167005573208 3.00000000000001
vertex -235.442966813001 -110.788325916768 3.00000000000001
endloop
endfacet
facet normal 0.0 0.0 1.0
outer loop
vertex -235.919722680794 -107.167005573208 3.00000000000001
vertex -235.442966813001 -110.788325916768 3.00000000000001
vertex -235.442966813001 -106.545685229649 3.00000000000001
endloop
endfacet
facet normal 0.0 0.0 1.0
outer loop
vertex -235.442966813001 -106.545685229649 3.00000000000001
vertex -235.442966813001 -110.788325916768 3.00000000000001
vertex -235.321646469441 -108.667005573208 3.00000000000001
endloop
endfacet
facet normal 0.0 0.0 1.0
outer loop
vertex -235.321646469441 -108.667005573208 3.00000000000001
vertex -235.442966813001 -110.788325916768 3.00000000000001
vertex -235.253498122019 -109.184643663413 3.00000000000001
endloop
endfacet
facet normal 0.0 0.0 1.0
outer loop
vertex -235.253498122019 -109.184643663413 3.00000000000001
vertex -235.442966813001 -110.788325916768 3.00000000000001
vertex -234.821646469441 -111.265081784562 3.00000000000001
endloop
endfacet
facet normal 0.0 0.0 1.0
outer loop
vertex -235.253498122019 -109.184643663413 3.00000000000001
vertex -234.821646469441 -111.265081784562 3.00000000000001
vertex -235.05369727701 -109.667005573208 3.00000000000001
endloop
endfacet
facet normal 0.0 0.0 1.0
outer loop
vertex -235.05369727701 -109.667005573208 3.00000000000001
vertex -234.821646469441 -111.265081784562 3.00000000000001
vertex -234.735860031814 -110.081219135582 3.00000000000001
endloop
endfacet
facet normal 0.0 0.0 1.0
outer loop
vertex -234.735860031814 -110.081219135582 3.00000000000001
vertex -234.821646469441 -111.265081784562 3.00000000000001
vertex -234.098103604748 -111.564783052076 3.00000000000001
endloop
endfacet
facet normal 0.0 0.0 1.0
outer loop
vertex -234.735860031814 -110.081219135582 3.00000000000001
vertex -234.098103604748 -111.564783052076 3.00000000000001
vertex -234.321646469441 -110.399056380777 3.00000000000001
endloop
endfacet
facet normal 0.0 0.0 1.0
outer loop
vertex -234.321646469441 -110.399056380777 3.00000000000001
vertex -234.098103604748 -111.564783052076 3.00000000000001
vertex -233.839284559646 -110.598857225787 3.00000000000001
endloop
endfacet
facet normal 0.0 0.0 1.0
outer loop
vertex -233.839284559646 -110.598857225787 3.00000000000001
vertex -234.098103604748 -111.564783052076 3.00000000000001
vertex -233.321646469441 -111.667005573208 3.00000000000001
endloop
endfacet
facet normal 0.0 0.0 1.0
outer loop
vertex -233.839284559646 -110.598857225787 3.00000000000001
vertex -233.321646469441 -111.667005573208 3.00000000000001
vertex -233.321646469441 -110.667005573208 3.00000000000001
endloop
endfacet
facet normal 0.0 0.0 1.0
outer loop
vertex -233.321646469441 -110.667005573208 3.00000000000001
vertex -233.321646469441 -111.667005573208 3.00000000000001
vertex -232.545189334133 -111.564783052076 3.00000000000001
endloop
endfacet
facet normal 0.0 0.0 1.0
outer loop
vertex -233.321646469441 -110.667005573208 3.00000000000001
vertex -232.545189334133 -111.564783052076 3.00000000000001
vertex -232.804008379236 -110.598857225787 3.00000000000001
endloop
endfacet
facet normal 0.0 0.0 1.0
outer loop
vertex -232.804008379236 -110.598857225787 3.00000000000001
vertex -232.545189334133 -111.564783052076 3.00000000000001
vertex -232.321646469441 -110.399056380777 3.00000000000001
endloop
endfacet
facet normal 0.0 0.0 1.0
outer loop
vertex -232.321646469441 -110.399056380777 3.00000000000001
vertex -232.545189334133 -111.564783052076 3.00000000000001
vertex -231.821646469441 -111.265081784562 3.00000000000001
endloop
endfacet
facet normal 0.0 0.0 1.0
outer loop
vertex -232.321646469441 -110.399056380777 3.00000000000001
vertex -231.821646469441 -111.265081784562 3.00000000000001
vertex -231.907432907068 -110.081219135582 3.00000000000001
endloop
endfacet
facet normal 0.0 0.0 1.0
outer loop
vertex -231.907432907068 -110.081219135582 3.00000000000001
vertex -231.821646469441 -111.265081784562 3.00000000000001
vertex -231.589595661872 -109.667005573208 3.00000000000001
endloop
endfacet
facet normal 0.0 0.0 1.0
outer loop
vertex -231.589595661872 -109.667005573208 3.00000000000001
vertex -231.821646469441 -111.265081784562 3.00000000000001
vertex -231.200326125881 -110.788325916768 3.00000000000001
endloop
endfacet
facet normal 0.0 0.0 1.0
outer loop
vertex -231.589595661872 -109.667005573208 3.00000000000001
vertex -231.200326125881 -110.788325916768 3.00000000000001
vertex -231.389794816863 -109.184643663413 3.00000000000001
endloop
endfacet
facet normal 0.0 0.0 1.0
outer loop
vertex -231.389794816863 -109.184643663413 3.00000000000001
vertex -231.200326125881 -110.788325916768 3.00000000000001
vertex -231.321646469441 -108.667005573208 3.00000000000001
endloop
endfacet
facet normal 0.0 0.0 1.0
outer loop
vertex -235.442966813001 -106.545685229649 3.00000000000001
vertex -235.253498122019 -108.149367483003 3.00000000000001
vertex -234.821646469441 -106.068929361855 3.00000000000001
endloop
endfacet
facet normal 0.0 0.0 1.0
outer loop
vertex -235.253498122019 -108.149367483003 3.00000000000001
vertex -235.442966813001 -106.545685229649 3.00000000000001
vertex -235.321646469441 -108.667005573208 3.00000000000001
endloop
endfacet
facet normal 0.0 0.0 1.0
outer loop
vertex -234.821646469441 -106.068929361855 3.00000000000001
vertex -235.253498122019 -108.149367483003 3.00000000000001
vertex -235.05369727701 -107.667005573208 3.00000000000001
endloop
endfacet
facet normal 0.0 0.0 1.0
outer loop
vertex -234.821646469441 -106.068929361855 3.00000000000001
vertex -235.05369727701 -107.667005573208 3.00000000000001
vertex -234.735860031814 -107.252792010835 3.00000000000001
endloop
endfacet
facet normal 0.0 0.0 1.0
outer loop
vertex -234.821646469441 -106.068929361855 3.00000000000001
vertex -234.735860031814 -107.252792010835 3.00000000000001
vertex -234.098103604748 -105.769228094341 3.00000000000001
endloop
endfacet
facet normal 0.0 0.0 1.0
outer loop
vertex -234.098103604748 -105.769228094341 3.00000000000001
vertex -234.735860031814 -107.252792010835 3.00000000000001
vertex -234.321646469441 -106.93495476564 3.00000000000001
endloop
endfacet
facet normal 0.0 0.0 1.0
outer loop
vertex -234.098103604748 -105.769228094341 3.00000000000001
vertex -234.321646469441 -106.93495476564 3.00000000000001
vertex -233.839284559646 -106.73515392063 3.00000000000001
endloop
endfacet
facet normal 0.0 0.0 1.0
outer loop
vertex -234.098103604748 -105.769228094341 3.00000000000001
vertex -233.839284559646 -106.73515392063 3.00000000000001
vertex -233.321646469441 -105.667005573208 3.00000000000001
endloop
endfacet
facet normal 0.0 0.0 1.0
outer loop
vertex -233.321646469441 -105.667005573208 3.00000000000001
vertex -233.839284559646 -106.73515392063 3.00000000000001
vertex -233.321646469441 -106.667005573208 3.00000000000001
endloop
endfacet
facet normal 0.0 0.0 1.0
outer loop
vertex -233.321646469441 -105.667005573208 3.00000000000001
vertex -233.321646469441 -106.667005573208 3.00000000000001
vertex -232.804008379236 -106.73515392063 3.00000000000001
endloop
endfacet
facet normal 0.0 0.0 1.0
outer loop
vertex -233.321646469441 -105.667005573208 3.00000000000001
vertex -232.804008379236 -106.73515392063 3.00000000000001
vertex -232.545189334133 -105.769228094341 3.00000000000001
endloop
endfacet
facet normal 0.0 0.0 1.0
outer loop
vertex -232.545189334133 -105.769228094341 3.00000000000001
vertex -232.804008379236 -106.73515392063 3.00000000000001
vertex -232.321646469441 -106.93495476564 3.00000000000001
endloop
endfacet
facet normal 0.0 0.0 1.0
outer loop
vertex -232.545189334133 -105.769228094341 3.00000000000001
vertex -232.321646469441 -106.93495476564 3.00000000000001
vertex -231.821646469441 -106.068929361855 3.00000000000001
endloop
endfacet
facet normal 0.0 0.0 1.0
outer loop
vertex -231.821646469441 -106.068929361855 3.00000000000001
vertex -232.321646469441 -106.93495476564 3.00000000000001
vertex -231.907432907068 -107.252792010835 3.00000000000001
endloop
endfacet
facet normal 0.0 0.0 1.0
outer loop
vertex -231.821646469441 -106.068929361855 3.00000000000001
vertex -231.907432907068 -107.252792010835 3.00000000000001
vertex -231.589595661872 -107.667005573208 3.00000000000001
endloop
endfacet
facet normal 0.0 0.0 1.0
outer loop
vertex -231.821646469441 -106.068929361855 3.00000000000001
vertex -231.589595661872 -107.667005573208 3.00000000000001
vertex -231.200326125881 -106.545685229649 3.00000000000001
endloop
endfacet
facet normal 0.0 0.0 1.0
outer loop
vertex -231.200326125881 -106.545685229649 3.00000000000001
vertex -231.589595661872 -107.667005573208 3.00000000000001
vertex -231.389794816863 -108.149367483003 3.00000000000001
endloop
endfacet
facet normal 0.0 0.0 1.0
outer loop
vertex -231.200326125881 -106.545685229649 3.00000000000001
vertex -231.389794816863 -108.149367483003 3.00000000000001
vertex -231.321646469441 -108.667005573208 3.00000000000001
endloop
endfacet
facet normal 0.0 0.0 1.0
outer loop
vertex -231.200326125881 -106.545685229649 3.00000000000001
vertex -231.321646469441 -108.667005573208 3.00000000000001
vertex -231.200326125881 -110.788325916768 3.00000000000001
endloop
endfacet
facet normal 0.0 0.0 1.0
outer loop
vertex -231.200326125881 -106.545685229649 3.00000000000001
vertex -231.200326125881 -110.788325916768 3.00000000000001
vertex -230.723570258088 -110.167005573208 3.00000000000001
endloop
endfacet
facet normal 0.0 0.0 1.0
outer loop
vertex -231.200326125881 -106.545685229649 3.00000000000001
vertex -230.723570258088 -110.167005573208 3.00000000000001
vertex -230.723570258088 -107.167005573208 3.00000000000001
endloop
endfacet
facet normal 0.0 0.0 1.0
outer loop
vertex -230.723570258088 -107.167005573208 3.00000000000001
vertex -230.723570258088 -110.167005573208 3.00000000000001
vertex -230.423868990574 -109.443462708516 3.00000000000001
endloop
endfacet
facet normal 0.0 0.0 1.0
outer loop
vertex -230.723570258088 -107.167005573208 3.00000000000001
vertex -230.423868990574 -109.443462708516 3.00000000000001
vertex -230.423868990574 -107.890548437901 3.00000000000001
endloop
endfacet
facet normal 0.0 0.0 1.0
outer loop
vertex -230.423868990574 -107.890548437901 3.00000000000001
vertex -230.423868990574 -109.443462708516 3.00000000000001
vertex -230.321646469441 -108.667005573208 3.00000000000001
endloop
endfacet
facet normal -0.499999999999997 0.866025403784441 0.0
outer loop
vertex -232.321646469441 -110.399056380777 3.00000000000001
vertex -231.907432907068 -110.081219135582 1.12798659301916e-14
vertex -232.321646469441 -110.399056380777 1.12798659301916e-14
endloop
endfacet
facet normal -0.707106781186548 0.707106781186548 0.0
outer loop
vertex -231.907432907068 -110.081219135582 1.12798659301916e-14
vertex -232.321646469441 -110.399056380777 3.00000000000001
vertex -231.907432907068 -110.081219135582 3.00000000000001
endloop
endfacet
facet normal 0.965925826289067 -0.258819045102526 0.0
outer loop
vertex -230.423868990574 -109.443462708516 1.12798659301916e-14
vertex -230.723570258088 -110.167005573208 3.00000000000001
vertex -230.723570258088 -110.167005573208 1.12798659301916e-14
endloop
endfacet
facet normal 0.866025403784441 -0.499999999999996 0.0
outer loop
vertex -230.723570258088 -110.167005573208 3.00000000000001
vertex -230.423868990574 -109.443462708516 1.12798659301916e-14
vertex -230.423868990574 -109.443462708516 3.00000000000001
endloop
endfacet
facet normal 0.965925826289066 -0.258819045102529 0.0
outer loop
vertex -235.253498122019 -108.149367483003 1.12798659301916e-14
vertex -235.321646469441 -108.667005573208 3.00000000000001
vertex -235.321646469441 -108.667005573208 1.12798659301916e-14
endloop
endfacet
facet normal 1.0 0.0 0.0
outer loop
vertex -235.321646469441 -108.667005573208 3.00000000000001
vertex -235.253498122019 -108.149367483003 1.12798659301916e-14
vertex -235.253498122019 -108.149367483003 3.00000000000001
endloop
endfacet
facet normal -1.0 0.0 0.0
outer loop
vertex -236.321646469441 -108.667005573208 3.00000000000001
vertex -236.219423948308 -109.443462708516 1.12798659301916e-14
vertex -236.219423948308 -109.443462708516 3.00000000000001
endloop
endfacet
facet normal -0.965925826289067 -0.258819045102526 0.0
outer loop
vertex -236.219423948308 -109.443462708516 1.12798659301916e-14
vertex -236.321646469441 -108.667005573208 3.00000000000001
vertex -236.321646469441 -108.667005573208 1.12798659301916e-14
endloop
endfacet
facet normal -0.866025403784441 0.499999999999996 0.0
outer loop
vertex -235.919722680794 -107.167005573208 3.00000000000001
vertex -236.219423948308 -107.890548437901 1.12798659301916e-14
vertex -236.219423948308 -107.890548437901 3.00000000000001
endloop
endfacet
facet normal -0.965925826289067 0.258819045102526 0.0
outer loop
vertex -236.219423948308 -107.890548437901 1.12798659301916e-14
vertex -235.919722680794 -107.167005573208 3.00000000000001
vertex -235.919722680794 -107.167005573208 1.12798659301916e-14
endloop
endfacet
facet normal -0.866025403784446 0.499999999999986 0.0
outer loop
vertex -231.589595661872 -109.667005573208 3.00000000000001
vertex -231.907432907068 -110.081219135582 1.12798659301916e-14
vertex -231.907432907068 -110.081219135582 3.00000000000001
endloop
endfacet
facet normal -0.707106781186548 0.707106781186548 0.0
outer loop
vertex -231.907432907068 -110.081219135582 1.12798659301916e-14
vertex -231.589595661872 -109.667005573208 3.00000000000001
vertex -231.589595661872 -109.667005573208 1.12798659301916e-14
endloop
endfacet
facet normal -0.965925826289066 0.258819045102529 0.0
outer loop
vertex -231.389794816863 -109.184643663413 3.00000000000001
vertex -231.589595661872 -109.667005573208 1.12798659301916e-14
vertex -231.589595661872 -109.667005573208 3.00000000000001
endloop
endfacet
facet normal -0.866025403784446 0.499999999999986 0.0
outer loop
vertex -231.589595661872 -109.667005573208 1.12798659301916e-14
vertex -231.389794816863 -109.184643663413 3.00000000000001
vertex -231.389794816863 -109.184643663413 1.12798659301916e-14
endloop
endfacet
facet normal -1.0 0.0 0.0
outer loop
vertex -231.321646469441 -108.667005573208 3.00000000000001
vertex -231.389794816863 -109.184643663413 1.12798659301916e-14
vertex -231.389794816863 -109.184643663413 3.00000000000001
endloop
endfacet
facet normal -0.965925826289066 0.258819045102529 0.0
outer loop
vertex -231.389794816863 -109.184643663413 1.12798659301916e-14
vertex -231.321646469441 -108.667005573208 3.00000000000001
vertex -231.321646469441 -108.667005573208 1.12798659301916e-14
endloop
endfacet
facet normal -0.965925826289066 -0.258819045102529 0.0
outer loop
vertex -231.389794816863 -108.149367483003 3.00000000000001
vertex -231.321646469441 -108.667005573208 1.12798659301916e-14
vertex -231.321646469441 -108.667005573208 3.00000000000001
endloop
endfacet
facet normal -1.0 0.0 0.0
outer loop
vertex -231.321646469441 -108.667005573208 1.12798659301916e-14
vertex -231.389794816863 -108.149367483003 3.00000000000001
vertex -231.389794816863 -108.149367483003 1.12798659301916e-14
endloop
endfacet
facet normal -0.707106781186548 -0.707106781186548 0.0
outer loop
vertex -231.907432907068 -107.252792010835 3.00000000000001
vertex -231.589595661872 -107.667005573208 1.12798659301916e-14
vertex -231.589595661872 -107.667005573208 3.00000000000001
endloop
endfacet
facet normal -0.866025403784446 -0.499999999999986 0.0
outer loop
vertex -231.589595661872 -107.667005573208 1.12798659301916e-14
vertex -231.907432907068 -107.252792010835 3.00000000000001
vertex -231.907432907068 -107.252792010835 1.12798659301916e-14
endloop
endfacet
facet normal -0.707106781186548 -0.707106781186548 0.0
outer loop
vertex -231.907432907068 -107.252792010835 3.00000000000001
vertex -232.321646469441 -106.93495476564 1.12798659301916e-14
vertex -231.907432907068 -107.252792010835 1.12798659301916e-14
endloop
endfacet
facet normal -0.499999999999979 -0.866025403784451 0.0
outer loop
vertex -232.321646469441 -106.93495476564 1.12798659301916e-14
vertex -231.907432907068 -107.252792010835 3.00000000000001
vertex -232.321646469441 -106.93495476564 3.00000000000001
endloop
endfacet
facet normal -0.499999999999979 -0.866025403784451 0.0
outer loop
vertex -232.321646469441 -106.93495476564 3.00000000000001
vertex -232.804008379236 -106.73515392063 1.12798659301916e-14
vertex -232.321646469441 -106.93495476564 1.12798659301916e-14
endloop
endfacet
facet normal -0.258819045102523 -0.965925826289067 0.0
outer loop
vertex -232.804008379236 -106.73515392063 1.12798659301916e-14
vertex -232.321646469441 -106.93495476564 3.00000000000001
vertex -232.804008379236 -106.73515392063 3.00000000000001
endloop
endfacet
facet normal -0.258819045102523 -0.965925826289067 0.0
outer loop
vertex -232.804008379236 -106.73515392063 3.00000000000001
vertex -233.321646469441 -106.667005573208 1.12798659301916e-14
vertex -232.804008379236 -106.73515392063 1.12798659301916e-14
endloop
endfacet
facet normal -2.14133970792395e-14 -1.0 0.0
outer loop
vertex -233.321646469441 -106.667005573208 1.12798659301916e-14
vertex -232.804008379236 -106.73515392063 3.00000000000001
vertex -233.321646469441 -106.667005573208 3.00000000000001
endloop
endfacet
facet normal 0.866025403784446 0.499999999999986 0.0
outer loop
vertex -235.05369727701 -109.667005573208 1.12798659301916e-14
vertex -234.735860031814 -110.081219135582 3.00000000000001
vertex -234.735860031814 -110.081219135582 1.12798659301916e-14
endloop
endfacet
facet normal 0.707106781186548 0.707106781186548 0.0
outer loop
vertex -234.735860031814 -110.081219135582 3.00000000000001
vertex -235.05369727701 -109.667005573208 1.12798659301916e-14
vertex -235.05369727701 -109.667005573208 3.00000000000001
endloop
endfacet
facet normal 0.707106781186548 0.707106781186548 0.0
outer loop
vertex -234.735860031814 -110.081219135582 3.00000000000001
vertex -234.321646469441 -110.399056380777 1.12798659301916e-14
vertex -234.735860031814 -110.081219135582 1.12798659301916e-14
endloop
endfacet
facet normal 0.499999999999979 0.866025403784451 0.0
outer loop
vertex -234.321646469441 -110.399056380777 1.12798659301916e-14
vertex -234.735860031814 -110.081219135582 3.00000000000001
vertex -234.321646469441 -110.399056380777 3.00000000000001
endloop
endfacet
facet normal 0.499999999999979 0.866025403784451 0.0
outer loop
vertex -234.321646469441 -110.399056380777 3.00000000000001
vertex -233.839284559646 -110.598857225787 1.12798659301916e-14
vertex -234.321646469441 -110.399056380777 1.12798659301916e-14
endloop
endfacet
facet normal 0.258819045102523 0.965925826289067 0.0
outer loop
vertex -233.839284559646 -110.598857225787 1.12798659301916e-14
vertex -234.321646469441 -110.399056380777 3.00000000000001
vertex -233.839284559646 -110.598857225787 3.00000000000001
endloop
endfacet
facet normal 0.258819045102523 0.965925826289067 0.0
outer loop
vertex -233.839284559646 -110.598857225787 3.00000000000001
vertex -233.321646469441 -110.667005573208 1.12798659301916e-14
vertex -233.839284559646 -110.598857225787 1.12798659301916e-14
endloop
endfacet
facet normal 2.14133970792395e-14 1.0 0.0
outer loop
vertex -233.321646469441 -110.667005573208 1.12798659301916e-14
vertex -233.839284559646 -110.598857225787 3.00000000000001
vertex -233.321646469441 -110.667005573208 3.00000000000001
endloop
endfacet
facet normal -0.866025403784446 -0.499999999999986 0.0
outer loop
vertex -231.589595661872 -107.667005573208 3.00000000000001
vertex -231.389794816863 -108.149367483003 1.12798659301916e-14
vertex -231.389794816863 -108.149367483003 3.00000000000001
endloop
endfacet
facet normal -0.965925826289066 -0.258819045102529 0.0
outer loop
vertex -231.389794816863 -108.149367483003 1.12798659301916e-14
vertex -231.589595661872 -107.667005573208 3.00000000000001
vertex -231.589595661872 -107.667005573208 1.12798659301916e-14
endloop
endfacet
facet normal 0.0 0.0 -1.0
outer loop
vertex -236.219423948308 -107.890548437901 1.12798659301916e-14
vertex -236.219423948308 -109.443462708516 1.12798659301916e-14
vertex -236.321646469441 -108.667005573208 1.12798659301916e-14
endloop
endfacet
facet normal 0.0 0.0 -1.0
outer loop
vertex -236.219423948308 -109.443462708516 1.12798659301916e-14
vertex -236.219423948308 -107.890548437901 1.12798659301916e-14
vertex -235.919722680794 -107.167005573208 1.12798659301916e-14
endloop
endfacet
facet normal 0.0 0.0 -1.0
outer loop
vertex -236.219423948308 -109.443462708516 1.12798659301916e-14
vertex -235.919722680794 -107.167005573208 1.12798659301916e-14
vertex -235.919722680794 -110.167005573208 1.12798659301916e-14
endloop
endfacet
facet normal 0.0 0.0 -1.0
outer loop
vertex -235.919722680794 -110.167005573208 1.12798659301916e-14
vertex -235.919722680794 -107.167005573208 1.12798659301916e-14
vertex -235.442966813001 -106.545685229649 1.12798659301916e-14
endloop
endfacet
facet normal 0.0 0.0 -1.0
outer loop
vertex -235.919722680794 -110.167005573208 1.12798659301916e-14
vertex -235.442966813001 -106.545685229649 1.12798659301916e-14
vertex -235.442966813001 -110.788325916768 1.12798659301916e-14
endloop
endfacet
facet normal 0.0 0.0 -1.0
outer loop
vertex -235.442966813001 -110.788325916768 1.12798659301916e-14
vertex -235.442966813001 -106.545685229649 1.12798659301916e-14
vertex -235.321646469441 -108.667005573208 1.12798659301916e-14
endloop
endfacet
facet normal 0.0 0.0 -1.0
outer loop
vertex -235.321646469441 -108.667005573208 1.12798659301916e-14
vertex -235.442966813001 -106.545685229649 1.12798659301916e-14
vertex -235.253498122019 -108.149367483003 1.12798659301916e-14
endloop
endfacet
facet normal 0.0 0.0 -1.0
outer loop
vertex -235.253498122019 -108.149367483003 1.12798659301916e-14
vertex -235.442966813001 -106.545685229649 1.12798659301916e-14
vertex -234.821646469441 -106.068929361855 1.12798659301916e-14
endloop
endfacet
facet normal 0.0 0.0 -1.0
outer loop
vertex -235.253498122019 -108.149367483003 1.12798659301916e-14
vertex -234.821646469441 -106.068929361855 1.12798659301916e-14
vertex -235.05369727701 -107.667005573208 1.12798659301916e-14
endloop
endfacet
facet normal 0.0 0.0 -1.0
outer loop
vertex -235.05369727701 -107.667005573208 1.12798659301916e-14
vertex -234.821646469441 -106.068929361855 1.12798659301916e-14
vertex -234.735860031814 -107.252792010835 1.12798659301916e-14
endloop
endfacet
facet normal 0.0 0.0 -1.0
outer loop
vertex -234.735860031814 -107.252792010835 1.12798659301916e-14
vertex -234.821646469441 -106.068929361855 1.12798659301916e-14
vertex -234.098103604748 -105.769228094341 1.12798659301916e-14
endloop
endfacet
facet normal 0.0 0.0 -1.0
outer loop
vertex -234.735860031814 -107.252792010835 1.12798659301916e-14
vertex -234.098103604748 -105.769228094341 1.12798659301916e-14
vertex -234.321646469441 -106.93495476564 1.12798659301916e-14
endloop
endfacet
facet normal 0.0 0.0 -1.0
outer loop
vertex -234.321646469441 -106.93495476564 1.12798659301916e-14
vertex -234.098103604748 -105.769228094341 1.12798659301916e-14
vertex -233.839284559646 -106.73515392063 1.12798659301916e-14
endloop
endfacet
facet normal 0.0 0.0 -1.0
outer loop
vertex -233.839284559646 -106.73515392063 1.12798659301916e-14
vertex -234.098103604748 -105.769228094341 1.12798659301916e-14
vertex -233.321646469441 -105.667005573208 1.12798659301916e-14
endloop
endfacet
facet normal 0.0 0.0 -1.0
outer loop
vertex -233.839284559646 -106.73515392063 1.12798659301916e-14
vertex -233.321646469441 -105.667005573208 1.12798659301916e-14
vertex -233.321646469441 -106.667005573208 1.12798659301916e-14
endloop
endfacet
facet normal 0.0 0.0 -1.0
outer loop
vertex -233.321646469441 -106.667005573208 1.12798659301916e-14
vertex -233.321646469441 -105.667005573208 1.12798659301916e-14
vertex -232.545189334133 -105.769228094341 1.12798659301916e-14
endloop
endfacet
facet normal 0.0 0.0 -1.0
outer loop
vertex -233.321646469441 -106.667005573208 1.12798659301916e-14
vertex -232.545189334133 -105.769228094341 1.12798659301916e-14
vertex -232.804008379236 -106.73515392063 1.12798659301916e-14
endloop
endfacet
facet normal 0.0 0.0 -1.0
outer loop
vertex -232.804008379236 -106.73515392063 1.12798659301916e-14
vertex -232.545189334133 -105.769228094341 1.12798659301916e-14
vertex -232.321646469441 -106.93495476564 1.12798659301916e-14
endloop
endfacet
facet normal 0.0 0.0 -1.0
outer loop
vertex -232.321646469441 -106.93495476564 1.12798659301916e-14
vertex -232.545189334133 -105.769228094341 1.12798659301916e-14
vertex -231.821646469441 -106.068929361855 1.12798659301916e-14
endloop
endfacet
facet normal 0.0 0.0 -1.0
outer loop
vertex -232.321646469441 -106.93495476564 1.12798659301916e-14
vertex -231.821646469441 -106.068929361855 1.12798659301916e-14
vertex -231.907432907068 -107.252792010835 1.12798659301916e-14
endloop
endfacet
facet normal 0.0 0.0 -1.0
outer loop
vertex -231.907432907068 -107.252792010835 1.12798659301916e-14
vertex -231.821646469441 -106.068929361855 1.12798659301916e-14
vertex -231.589595661872 -107.667005573208 1.12798659301916e-14
endloop
endfacet
facet normal 0.0 0.0 -1.0
outer loop
vertex -231.589595661872 -107.667005573208 1.12798659301916e-14
vertex -231.821646469441 -106.068929361855 1.12798659301916e-14
vertex -231.200326125881 -106.545685229649 1.12798659301916e-14
endloop
endfacet
facet normal 0.0 0.0 -1.0
outer loop
vertex -231.589595661872 -107.667005573208 1.12798659301916e-14
vertex -231.200326125881 -106.545685229649 1.12798659301916e-14
vertex -231.389794816863 -108.149367483003 1.12798659301916e-14
endloop
endfacet
facet normal 0.0 0.0 -1.0
outer loop
vertex -231.389794816863 -108.149367483003 1.12798659301916e-14
vertex -231.200326125881 -106.545685229649 1.12798659301916e-14
vertex -231.321646469441 -108.667005573208 1.12798659301916e-14
endloop
endfacet
facet normal 0.0 0.0 -1.0
outer loop
vertex -235.442966813001 -110.788325916768 1.12798659301916e-14
vertex -235.253498122019 -109.184643663413 1.12798659301916e-14
vertex -234.821646469441 -111.265081784562 1.12798659301916e-14
endloop
endfacet
facet normal 0.0 0.0 -1.0
outer loop
vertex -235.253498122019 -109.184643663413 1.12798659301916e-14
vertex -235.442966813001 -110.788325916768 1.12798659301916e-14
vertex -235.321646469441 -108.667005573208 1.12798659301916e-14
endloop
endfacet
facet normal 0.0 0.0 -1.0
outer loop
vertex -234.821646469441 -111.265081784562 1.12798659301916e-14
vertex -235.253498122019 -109.184643663413 1.12798659301916e-14
vertex -235.05369727701 -109.667005573208 1.12798659301916e-14
endloop
endfacet
facet normal 0.0 0.0 -1.0
outer loop
vertex -234.821646469441 -111.265081784562 1.12798659301916e-14
vertex -235.05369727701 -109.667005573208 1.12798659301916e-14
vertex -234.735860031814 -110.081219135582 1.12798659301916e-14
endloop
endfacet
facet normal 0.0 0.0 -1.0
outer loop
vertex -234.821646469441 -111.265081784562 1.12798659301916e-14
vertex -234.735860031814 -110.081219135582 1.12798659301916e-14
vertex -234.098103604748 -111.564783052076 1.12798659301916e-14
endloop
endfacet
facet normal 0.0 0.0 -1.0
outer loop
vertex -234.098103604748 -111.564783052076 1.12798659301916e-14
vertex -234.735860031814 -110.081219135582 1.12798659301916e-14
vertex -234.321646469441 -110.399056380777 1.12798659301916e-14
endloop
endfacet
facet normal 0.0 0.0 -1.0
outer loop
vertex -234.098103604748 -111.564783052076 1.12798659301916e-14
vertex -234.321646469441 -110.399056380777 1.12798659301916e-14
vertex -233.839284559646 -110.598857225787 1.12798659301916e-14
endloop
endfacet
facet normal 0.0 0.0 -1.0
outer loop
vertex -234.098103604748 -111.564783052076 1.12798659301916e-14
vertex -233.839284559646 -110.598857225787 1.12798659301916e-14
vertex -233.321646469441 -111.667005573208 1.12798659301916e-14
endloop
endfacet
facet normal 0.0 0.0 -1.0
outer loop
vertex -233.321646469441 -111.667005573208 1.12798659301916e-14
vertex -233.839284559646 -110.598857225787 1.12798659301916e-14
vertex -233.321646469441 -110.667005573208 1.12798659301916e-14
endloop
endfacet
facet normal 0.0 0.0 -1.0
outer loop
vertex -233.321646469441 -111.667005573208 1.12798659301916e-14
vertex -233.321646469441 -110.667005573208 1.12798659301916e-14
vertex -232.804008379236 -110.598857225787 1.12798659301916e-14
endloop
endfacet
facet normal 0.0 0.0 -1.0
outer loop
vertex -233.321646469441 -111.667005573208 1.12798659301916e-14
vertex -232.804008379236 -110.598857225787 1.12798659301916e-14
vertex -232.545189334133 -111.564783052076 1.12798659301916e-14
endloop
endfacet
facet normal 0.0 0.0 -1.0
outer loop
vertex -232.545189334133 -111.564783052076 1.12798659301916e-14
vertex -232.804008379236 -110.598857225787 1.12798659301916e-14
vertex -232.321646469441 -110.399056380777 1.12798659301916e-14
endloop
endfacet
facet normal 0.0 0.0 -1.0
outer loop
vertex -232.545189334133 -111.564783052076 1.12798659301916e-14
vertex -232.321646469441 -110.399056380777 1.12798659301916e-14
vertex -231.821646469441 -111.265081784562 1.12798659301916e-14
endloop
endfacet
facet normal 0.0 0.0 -1.0
outer loop
vertex -231.821646469441 -111.265081784562 1.12798659301916e-14
vertex -232.321646469441 -110.399056380777 1.12798659301916e-14
vertex -231.907432907068 -110.081219135582 1.12798659301916e-14
endloop
endfacet
facet normal 0.0 0.0 -1.0
outer loop
vertex -231.821646469441 -111.265081784562 1.12798659301916e-14
vertex -231.907432907068 -110.081219135582 1.12798659301916e-14
vertex -231.589595661872 -109.667005573208 1.12798659301916e-14
endloop
endfacet
facet normal 0.0 0.0 -1.0
outer loop
vertex -231.821646469441 -111.265081784562 1.12798659301916e-14
vertex -231.589595661872 -109.667005573208 1.12798659301916e-14
vertex -231.200326125881 -110.788325916768 1.12798659301916e-14
endloop
endfacet
facet normal 0.0 0.0 -1.0
outer loop
vertex -231.200326125881 -110.788325916768 1.12798659301916e-14
vertex -231.589595661872 -109.667005573208 1.12798659301916e-14
vertex -231.389794816863 -109.184643663413 1.12798659301916e-14
endloop
endfacet
facet normal 0.0 0.0 -1.0
outer loop
vertex -231.200326125881 -110.788325916768 1.12798659301916e-14
vertex -231.389794816863 -109.184643663413 1.12798659301916e-14
vertex -231.321646469441 -108.667005573208 1.12798659301916e-14
endloop
endfacet
facet normal 0.0 0.0 -1.0
outer loop
vertex -231.200326125881 -110.788325916768 1.12798659301916e-14
vertex -231.321646469441 -108.667005573208 1.12798659301916e-14
vertex -231.200326125881 -106.545685229649 1.12798659301916e-14
endloop
endfacet
facet normal 0.0 0.0 -1.0
outer loop
vertex -231.200326125881 -110.788325916768 1.12798659301916e-14
vertex -231.200326125881 -106.545685229649 1.12798659301916e-14
vertex -230.723570258088 -107.167005573208 1.12798659301916e-14
endloop
endfacet
facet normal 0.0 0.0 -1.0
outer loop
vertex -231.200326125881 -110.788325916768 1.12798659301916e-14
vertex -230.723570258088 -107.167005573208 1.12798659301916e-14
vertex -230.723570258088 -110.167005573208 1.12798659301916e-14
endloop
endfacet
facet normal 0.0 0.0 -1.0
outer loop
vertex -230.723570258088 -110.167005573208 1.12798659301916e-14
vertex -230.723570258088 -107.167005573208 1.12798659301916e-14
vertex -230.423868990574 -107.890548437901 1.12798659301916e-14
endloop
endfacet
facet normal 0.0 0.0 -1.0
outer loop
vertex -230.723570258088 -110.167005573208 1.12798659301916e-14
vertex -230.423868990574 -107.890548437901 1.12798659301916e-14
vertex -230.423868990574 -109.443462708516 1.12798659301916e-14
endloop
endfacet
facet normal 0.0 0.0 -1.0
outer loop
vertex -230.423868990574 -109.443462708516 1.12798659301916e-14
vertex -230.423868990574 -107.890548437901 1.12798659301916e-14
vertex -230.321646469441 -108.667005573208 1.12798659301916e-14
endloop
endfacet
facet normal -0.965925826289067 0.258819045102526 0.0
outer loop
vertex -236.219423948308 -107.890548437901 3.00000000000001
vertex -236.321646469441 -108.667005573208 1.12798659301916e-14
vertex -236.321646469441 -108.667005573208 3.00000000000001
endloop
endfacet
facet normal -1.0 0.0 0.0
outer loop
vertex -236.321646469441 -108.667005573208 1.12798659301916e-14
vertex -236.219423948308 -107.890548437901 3.00000000000001
vertex -236.219423948308 -107.890548437901 1.12798659301916e-14
endloop
endfacet
endsolid kitchissippi-02
