solid kitchissippi-02
facet normal -1.0 0.0 0.0
outer loop
vertex 148.42834863286 -404.318874201375 2.0
vertex 148.42834863286 -407.785861499482 -0.5
vertex 148.42834863286 -407.785861499482 2.0
endloop
endfacet
facet normal -1.0 0.0 0.0
outer loop
vertex 148.42834863286 -408.651886903267 2.0
vertex 148.42834863286 -412.118874201375 -1.3
vertex 148.42834863286 -412.118874201375 2.0
endloop
endfacet
facet normal -1.0 0.0 0.0
outer loop
vertex 148.42834863286 -412.118874201375 -1.3
vertex 148.42834863286 -408.651886903267 2.0
vertex 148.42834863286 -408.651886903267 -0.5
endloop
endfacet
facet normal -1.0 0.0 0.0
outer loop
vertex 148.42834863286 -412.118874201375 -1.3
vertex 148.42834863286 -408.651886903267 -0.5
vertex 148.42834863286 -404.318874201375 -1.3
endloop
endfacet
facet normal -1.0 0.0 0.0
outer loop
vertex 148.42834863286 -404.318874201375 -1.3
vertex 148.42834863286 -408.651886903267 -0.5
vertex 148.42834863286 -407.785861499482 -0.5
endloop
endfacet
facet normal -1.0 0.0 0.0
outer loop
vertex 148.42834863286 -404.318874201375 -1.3
vertex 148.42834863286 -407.785861499482 -0.5
vertex 148.42834863286 -404.318874201375 2.0
endloop
endfacet
facet normal 0.0 0.0 1.0
outer loop
vertex 150.27834863286 -411.856180897269 -0.5
vertex 150.349904397653 -408.76239419609 -0.5
vertex 150.27834863286 -408.218874201375 -0.5
endloop
endfacet
facet normal 0.0 0.0 1.0
outer loop
vertex 150.349904397653 -408.76239419609 -0.5
vertex 150.27834863286 -411.856180897269 -0.5
vertex 150.559695284913 -409.268874201375 -0.5
endloop
endfacet
facet normal 0.0 0.0 1.0
outer loop
vertex 150.559695284913 -409.268874201375 -0.5
vertex 150.27834863286 -411.856180897269 -0.5
vertex 150.893424392368 -409.703798441866 -0.5
endloop
endfacet
facet normal 0.0 0.0 1.0
outer loop
vertex 150.893424392368 -409.703798441866 -0.5
vertex 150.27834863286 -411.856180897269 -0.5
vertex 151.32834863286 -410.037527549322 -0.5
endloop
endfacet
facet normal 0.0 0.0 1.0
outer loop
vertex 151.32834863286 -410.037527549322 -0.5
vertex 150.27834863286 -411.856180897269 -0.5
vertex 154.47834863286 -411.856180897269 -0.5
endloop
endfacet
facet normal 0.0 0.0 1.0
outer loop
vertex 151.32834863286 -410.037527549322 -0.5
vertex 154.47834863286 -411.856180897269 -0.5
vertex 151.834828638145 -410.247318436582 -0.5
endloop
endfacet
facet normal 0.0 0.0 1.0
outer loop
vertex 151.834828638145 -410.247318436582 -0.5
vertex 154.47834863286 -411.856180897269 -0.5
vertex 152.37834863286 -410.318874201375 -0.5
endloop
endfacet
facet normal 0.0 0.0 1.0
outer loop
vertex 152.37834863286 -410.318874201375 -0.5
vertex 154.47834863286 -411.856180897269 -0.5
vertex 152.921868627575 -410.247318436582 -0.5
endloop
endfacet
facet normal 0.0 0.0 1.0
outer loop
vertex 152.921868627575 -410.247318436582 -0.5
vertex 154.47834863286 -411.856180897269 -0.5
vertex 153.42834863286 -410.037527549322 -0.5
endloop
endfacet
facet normal 0.0 0.0 1.0
outer loop
vertex 153.42834863286 -410.037527549322 -0.5
vertex 154.47834863286 -411.856180897269 -0.5
vertex 153.863272873352 -409.703798441866 -0.5
endloop
endfacet
facet normal 0.0 0.0 1.0
outer loop
vertex 153.863272873352 -409.703798441866 -0.5
vertex 154.47834863286 -411.856180897269 -0.5
vertex 154.197001980808 -409.268874201375 -0.5
endloop
endfacet
facet normal 0.0 0.0 1.0
outer loop
vertex 154.197001980808 -409.268874201375 -0.5
vertex 154.47834863286 -411.856180897269 -0.5
vertex 154.406792868067 -408.76239419609 -0.5
endloop
endfacet
facet normal 0.0 0.0 1.0
outer loop
vertex 154.406792868067 -408.76239419609 -0.5
vertex 154.47834863286 -411.856180897269 -0.5
vertex 154.47834863286 -408.218874201375 -0.5
endloop
endfacet
facet normal 0.0 0.0 1.0
outer loop
vertex 154.47834863286 -408.218874201375 -0.5
vertex 154.47834863286 -411.856180897269 -0.5
vertex 156.32834863286 -408.651886903267 -0.5
endloop
endfacet
facet normal 0.0 0.0 1.0
outer loop
vertex 154.47834863286 -408.218874201375 -0.5
vertex 156.32834863286 -408.651886903267 -0.5
vertex 154.47834863286 -404.58156750548 -0.5
endloop
endfacet
facet normal 0.0 0.0 1.0
outer loop
vertex 154.47834863286 -404.58156750548 -0.5
vertex 156.32834863286 -408.651886903267 -0.5
vertex 156.32834863286 -407.785861499482 -0.5
endloop
endfacet
facet normal 0.0 0.0 1.0
outer loop
vertex 150.27834863286 -411.856180897269 -0.5
vertex 148.42834863286 -407.785861499482 -0.5
vertex 148.42834863286 -408.651886903267 -0.5
endloop
endfacet
facet normal 0.0 0.0 1.0
outer loop
vertex 148.42834863286 -407.785861499482 -0.5
vertex 150.27834863286 -411.856180897269 -0.5
vertex 150.27834863286 -404.58156750548 -0.5
endloop
endfacet
facet normal 0.0 0.0 1.0
outer loop
vertex 150.27834863286 -404.58156750548 -0.5
vertex 150.27834863286 -411.856180897269 -0.5
vertex 150.27834863286 -408.218874201375 -0.5
endloop
endfacet
facet normal 0.0 0.0 1.0
outer loop
vertex 150.27834863286 -404.58156750548 -0.5
vertex 150.27834863286 -408.218874201375 -0.5
vertex 150.349904397653 -407.675354206659 -0.5
endloop
endfacet
facet normal 0.0 0.0 1.0
outer loop
vertex 150.27834863286 -404.58156750548 -0.5
vertex 150.349904397653 -407.675354206659 -0.5
vertex 150.559695284913 -407.168874201374 -0.5
endloop
endfacet
facet normal 0.0 0.0 1.0
outer loop
vertex 150.27834863286 -404.58156750548 -0.5
vertex 150.559695284913 -407.168874201374 -0.5
vertex 150.893424392368 -406.733949960883 -0.5
endloop
endfacet
facet normal 0.0 0.0 1.0
outer loop
vertex 150.27834863286 -404.58156750548 -0.5
vertex 150.893424392368 -406.733949960883 -0.5
vertex 151.32834863286 -406.400220853427 -0.5
endloop
endfacet
facet normal 0.0 0.0 1.0
outer loop
vertex 150.27834863286 -404.58156750548 -0.5
vertex 151.32834863286 -406.400220853427 -0.5
vertex 154.47834863286 -404.58156750548 -0.5
endloop
endfacet
facet normal 0.0 0.0 1.0
outer loop
vertex 154.47834863286 -404.58156750548 -0.5
vertex 151.32834863286 -406.400220853427 -0.5
vertex 151.834828638145 -406.190429966167 -0.5
endloop
endfacet
facet normal 0.0 0.0 1.0
outer loop
vertex 154.47834863286 -404.58156750548 -0.5
vertex 151.834828638145 -406.190429966167 -0.5
vertex 152.37834863286 -406.118874201375 -0.5
endloop
endfacet
facet normal 0.0 0.0 1.0
outer loop
vertex 154.47834863286 -404.58156750548 -0.5
vertex 152.37834863286 -406.118874201375 -0.5
vertex 152.921868627575 -406.190429966167 -0.5
endloop
endfacet
facet normal 0.0 0.0 1.0
outer loop
vertex 154.47834863286 -404.58156750548 -0.5
vertex 152.921868627575 -406.190429966167 -0.5
vertex 153.42834863286 -406.400220853427 -0.5
endloop
endfacet
facet normal 0.0 0.0 1.0
outer loop
vertex 154.47834863286 -404.58156750548 -0.5
vertex 153.42834863286 -406.400220853427 -0.5
vertex 153.863272873352 -406.733949960883 -0.5
endloop
endfacet
facet normal 0.0 0.0 1.0
outer loop
vertex 154.47834863286 -404.58156750548 -0.5
vertex 153.863272873352 -406.733949960883 -0.5
vertex 154.197001980808 -407.168874201374 -0.5
endloop
endfacet
facet normal 0.0 0.0 1.0
outer loop
vertex 154.47834863286 -404.58156750548 -0.5
vertex 154.197001980808 -407.168874201374 -0.5
vertex 154.406792868067 -407.675354206659 -0.5
endloop
endfacet
facet normal 0.0 0.0 1.0
outer loop
vertex 154.47834863286 -404.58156750548 -0.5
vertex 154.406792868067 -407.675354206659 -0.5
vertex 154.47834863286 -408.218874201375 -0.5
endloop
endfacet
facet normal 0.0 0.0 1.0
outer loop
vertex 148.42834863286 -412.118874201375 2.0
vertex 150.27834863286 -411.856180897269 2.0
vertex 148.42834863286 -408.651886903267 2.0
endloop
endfacet
facet normal 0.0 0.0 1.0
outer loop
vertex 150.27834863286 -411.856180897269 2.0
vertex 148.42834863286 -412.118874201375 2.0
vertex 156.32834863286 -412.118874201375 2.0
endloop
endfacet
facet normal 0.0 0.0 1.0
outer loop
vertex 150.27834863286 -411.856180897269 2.0
vertex 156.32834863286 -412.118874201375 2.0
vertex 154.47834863286 -411.856180897269 2.0
endloop
endfacet
facet normal 0.0 0.0 1.0
outer loop
vertex 154.47834863286 -411.856180897269 2.0
vertex 156.32834863286 -412.118874201375 2.0
vertex 156.32834863286 -408.651886903267 2.0
endloop
endfacet
facet normal 0.0 0.0 1.0
outer loop
vertex 150.27834863286 -404.58156750548 2.0
vertex 148.42834863286 -404.318874201375 2.0
vertex 148.42834863286 -407.785861499482 2.0
endloop
endfacet
facet normal 0.0 0.0 1.0
outer loop
vertex 148.42834863286 -404.318874201375 2.0
vertex 150.27834863286 -404.58156750548 2.0
vertex 156.32834863286 -404.318874201375 2.0
endloop
endfacet
facet normal 0.0 0.0 1.0
outer loop
vertex 156.32834863286 -404.318874201375 2.0
vertex 150.27834863286 -404.58156750548 2.0
vertex 154.47834863286 -404.58156750548 2.0
endloop
endfacet
facet normal 0.0 0.0 1.0
outer loop
vertex 156.32834863286 -404.318874201375 2.0
vertex 154.47834863286 -404.58156750548 2.0
vertex 156.32834863286 -407.785861499482 2.0
endloop
endfacet
facet normal 0.86602540378444 0.499999999999998 0.0
outer loop
vertex 148.42834863286 -408.651886903267 -0.5
vertex 150.27834863286 -411.856180897269 2.0
vertex 150.27834863286 -411.856180897269 -0.5
endloop
endfacet
facet normal 0.86602540378444 0.499999999999998 0.0
outer loop
vertex 150.27834863286 -411.856180897269 2.0
vertex 148.42834863286 -408.651886903267 -0.5
vertex 148.42834863286 -408.651886903267 2.0
endloop
endfacet
facet normal 0.0 -1.0 0.0
outer loop
vertex 156.32834863286 -412.118874201375 2.0
vertex 148.42834863286 -412.118874201375 -1.3
vertex 156.32834863286 -412.118874201375 -1.3
endloop
endfacet
facet normal 0.0 -1.0 0.0
outer loop
vertex 148.42834863286 -412.118874201375 -1.3
vertex 156.32834863286 -412.118874201375 2.0
vertex 148.42834863286 -412.118874201375 2.0
endloop
endfacet
facet normal -3.60634694368574e-18 3.60343042707895e-18 -1.0
outer loop
vertex 148.42834863286 -404.318874201375 -1.3
vertex 150.559695284913 -407.168874201374 -1.3
vertex 148.42834863286 -412.118874201375 -1.3
endloop
endfacet
facet normal -3.60634694368574e-18 3.60343042707895e-18 -1.0
outer loop
vertex 150.559695284913 -407.168874201374 -1.3
vertex 148.42834863286 -404.318874201375 -1.3
vertex 150.893424392368 -406.733949960883 -1.3
endloop
endfacet
facet normal -3.60634694368574e-18 3.60343042707895e-18 -1.0
outer loop
vertex 150.893424392368 -406.733949960883 -1.3
vertex 148.42834863286 -404.318874201375 -1.3
vertex 151.32834863286 -406.400220853427 -1.3
endloop
endfacet
facet normal -3.60634694368574e-18 3.60343042707895e-18 -1.0
outer loop
vertex 151.32834863286 -406.400220853427 -1.3
vertex 148.42834863286 -404.318874201375 -1.3
vertex 156.32834863286 -404.318874201375 -1.3
endloop
endfacet
facet normal -3.60634694368574e-18 3.60343042707895e-18 -1.0
outer loop
vertex 148.42834863286 -412.118874201375 -1.3
vertex 150.559695284913 -407.168874201374 -1.3
vertex 150.349904397653 -407.675354206659 -1.3
endloop
endfacet
facet normal -3.60634694368574e-18 3.60343042707895e-18 -1.0
outer loop
vertex 148.42834863286 -412.118874201375 -1.3
vertex 150.349904397653 -407.675354206659 -1.3
vertex 150.27834863286 -408.218874201375 -1.3
endloop
endfacet
facet normal -3.60634694368574e-18 3.60343042707895e-18 -1.0
outer loop
vertex 151.32834863286 -406.400220853427 -1.3
vertex 156.32834863286 -404.318874201375 -1.3
vertex 151.834828638145 -406.190429966167 -1.3
endloop
endfacet
facet normal -3.60634694368574e-18 3.60343042707895e-18 -1.0
outer loop
vertex 151.834828638145 -406.190429966167 -1.3
vertex 156.32834863286 -404.318874201375 -1.3
vertex 152.37834863286 -406.118874201375 -1.3
endloop
endfacet
facet normal -3.60634694368574e-18 3.60343042707895e-18 -1.0
outer loop
vertex 152.37834863286 -406.118874201375 -1.3
vertex 156.32834863286 -404.318874201375 -1.3
vertex 152.921868627575 -406.190429966167 -1.3
endloop
endfacet
facet normal -3.60634694368574e-18 3.60343042707895e-18 -1.0
outer loop
vertex 152.921868627575 -406.190429966167 -1.3
vertex 156.32834863286 -404.318874201375 -1.3
vertex 153.42834863286 -406.400220853427 -1.3
endloop
endfacet
facet normal -3.60634694368574e-18 3.60343042707895e-18 -1.0
outer loop
vertex 153.42834863286 -406.400220853427 -1.3
vertex 156.32834863286 -404.318874201375 -1.3
vertex 153.863272873352 -406.733949960883 -1.3
endloop
endfacet
facet normal -3.60634694368574e-18 3.60343042707895e-18 -1.0
outer loop
vertex 153.863272873352 -406.733949960883 -1.3
vertex 156.32834863286 -404.318874201375 -1.3
vertex 154.197001980808 -407.168874201374 -1.3
endloop
endfacet
facet normal -3.60634694368574e-18 3.60343042707895e-18 -1.0
outer loop
vertex 154.197001980808 -407.168874201374 -1.3
vertex 156.32834863286 -404.318874201375 -1.3
vertex 154.406792868067 -407.675354206659 -1.3
endloop
endfacet
facet normal -3.60634694368574e-18 3.60343042707895e-18 -1.0
outer loop
vertex 154.406792868067 -407.675354206659 -1.3
vertex 156.32834863286 -404.318874201375 -1.3
vertex 154.47834863286 -408.218874201375 -1.3
endloop
endfacet
facet normal -3.60634694368574e-18 3.60343042707895e-18 -1.0
outer loop
vertex 148.42834863286 -412.118874201375 -1.3
vertex 151.32834863286 -410.037527549322 -1.3
vertex 156.32834863286 -412.118874201375 -1.3
endloop
endfacet
facet normal -3.60634694368574e-18 3.60343042707895e-18 -1.0
outer loop
vertex 151.32834863286 -410.037527549322 -1.3
vertex 148.42834863286 -412.118874201375 -1.3
vertex 150.893424392368 -409.703798441866 -1.3
endloop
endfacet
facet normal -3.60634694368574e-18 3.60343042707895e-18 -1.0
outer loop
vertex 150.893424392368 -409.703798441866 -1.3
vertex 148.42834863286 -412.118874201375 -1.3
vertex 150.559695284913 -409.268874201375 -1.3
endloop
endfacet
facet normal -3.60634694368574e-18 3.60343042707895e-18 -1.0
outer loop
vertex 150.559695284913 -409.268874201375 -1.3
vertex 148.42834863286 -412.118874201375 -1.3
vertex 150.349904397653 -408.76239419609 -1.3
endloop
endfacet
facet normal -3.60634694368574e-18 3.60343042707895e-18 -1.0
outer loop
vertex 150.349904397653 -408.76239419609 -1.3
vertex 148.42834863286 -412.118874201375 -1.3
vertex 150.27834863286 -408.218874201375 -1.3
endloop
endfacet
facet normal -3.60634694368574e-18 3.60343042707895e-18 -1.0
outer loop
vertex 156.32834863286 -412.118874201375 -1.3
vertex 151.32834863286 -410.037527549322 -1.3
vertex 151.834828638145 -410.247318436582 -1.3
endloop
endfacet
facet normal -3.60634694368574e-18 3.60343042707895e-18 -1.0
outer loop
vertex 156.32834863286 -412.118874201375 -1.3
vertex 151.834828638145 -410.247318436582 -1.3
vertex 152.37834863286 -410.318874201375 -1.3
endloop
endfacet
facet normal -3.60634694368574e-18 3.60343042707895e-18 -1.0
outer loop
vertex 156.32834863286 -412.118874201375 -1.3
vertex 152.37834863286 -410.318874201375 -1.3
vertex 152.921868627575 -410.247318436582 -1.3
endloop
endfacet
facet normal -3.60634694368574e-18 3.60343042707895e-18 -1.0
outer loop
vertex 156.32834863286 -412.118874201375 -1.3
vertex 152.921868627575 -410.247318436582 -1.3
vertex 153.42834863286 -410.037527549322 -1.3
endloop
endfacet
facet normal -3.60634694368574e-18 3.60343042707895e-18 -1.0
outer loop
vertex 156.32834863286 -412.118874201375 -1.3
vertex 153.42834863286 -410.037527549322 -1.3
vertex 153.863272873352 -409.703798441866 -1.3
endloop
endfacet
facet normal -3.60634694368574e-18 3.60343042707895e-18 -1.0
outer loop
vertex 156.32834863286 -412.118874201375 -1.3
vertex 153.863272873352 -409.703798441866 -1.3
vertex 154.197001980808 -409.268874201375 -1.3
endloop
endfacet
facet normal -3.60634694368574e-18 3.60343042707895e-18 -1.0
outer loop
vertex 156.32834863286 -412.118874201375 -1.3
vertex 154.197001980808 -409.268874201375 -1.3
vertex 154.406792868067 -408.76239419609 -1.3
endloop
endfacet
facet normal -3.60634694368574e-18 3.60343042707895e-18 -1.0
outer loop
vertex 156.32834863286 -412.118874201375 -1.3
vertex 154.406792868067 -408.76239419609 -1.3
vertex 154.47834863286 -408.218874201375 -1.3
endloop
endfacet
facet normal -3.60634694368574e-18 3.60343042707895e-18 -1.0
outer loop
vertex 156.32834863286 -412.118874201375 -1.3
vertex 154.47834863286 -408.218874201375 -1.3
vertex 156.32834863286 -404.318874201375 -1.3
endloop
endfacet
facet normal -0.965925826289071 -0.258819045102511 0.0
outer loop
vertex 154.406792868067 -407.675354206659 -0.5
vertex 154.47834863286 -408.218874201375 -1.3
vertex 154.47834863286 -408.218874201375 -0.5
endloop
endfacet
facet normal -1.0 0.0 0.0
outer loop
vertex 154.47834863286 -408.218874201375 -1.3
vertex 154.406792868067 -407.675354206659 -0.5
vertex 154.406792868067 -407.675354206659 -1.3
endloop
endfacet
facet normal 0.500000000000019 0.866025403784428 0.0
outer loop
vertex 151.32834863286 -410.037527549322 -0.5
vertex 151.834828638145 -410.247318436582 -1.3
vertex 151.32834863286 -410.037527549322 -1.3
endloop
endfacet
facet normal 0.258819045102501 0.965925826289074 0.0
outer loop
vertex 151.834828638145 -410.247318436582 -1.3
vertex 151.32834863286 -410.037527549322 -0.5
vertex 151.834828638145 -410.247318436582 -0.5
endloop
endfacet
facet normal -0.258819045102501 -0.965925826289074 0.0
outer loop
vertex 152.921868627575 -406.190429966167 -0.5
vertex 152.37834863286 -406.118874201375 -1.3
vertex 152.921868627575 -406.190429966167 -1.3
endloop
endfacet
facet normal 0.0 -1.0 0.0
outer loop
vertex 152.37834863286 -406.118874201375 -1.3
vertex 152.921868627575 -406.190429966167 -0.5
vertex 152.37834863286 -406.118874201375 -0.5
endloop
endfacet
facet normal -0.500000000000023 0.866025403784425 0.0
outer loop
vertex 153.42834863286 -410.037527549322 -0.5
vertex 153.863272873352 -409.703798441866 -1.3
vertex 153.42834863286 -410.037527549322 -1.3
endloop
endfacet
facet normal -0.707106781186541 0.707106781186554 0.0
outer loop
vertex 153.863272873352 -409.703798441866 -1.3
vertex 153.42834863286 -410.037527549322 -0.5
vertex 153.863272873352 -409.703798441866 -0.5
endloop
endfacet
facet normal 0.0 1.0 0.0
outer loop
vertex 148.42834863286 -404.318874201375 2.0
vertex 156.32834863286 -404.318874201375 -1.3
vertex 148.42834863286 -404.318874201375 -1.3
endloop
endfacet
facet normal 0.0 1.0 0.0
outer loop
vertex 156.32834863286 -404.318874201375 -1.3
vertex 148.42834863286 -404.318874201375 2.0
vertex 156.32834863286 -404.318874201375 2.0
endloop
endfacet
facet normal -0.86602540378444 -0.499999999999998 -0.0
outer loop
vertex 154.47834863286 -404.58156750548 2.0
vertex 156.32834863286 -407.785861499482 -0.5
vertex 156.32834863286 -407.785861499482 2.0
endloop
endfacet
facet normal -0.86602540378444 -0.499999999999998 -0.0
outer loop
vertex 156.32834863286 -407.785861499482 -0.5
vertex 154.47834863286 -404.58156750548 2.0
vertex 154.47834863286 -404.58156750548 -0.5
endloop
endfacet
facet normal 1.0 0.0 0.0
outer loop
vertex 156.32834863286 -412.118874201375 -1.3
vertex 156.32834863286 -408.651886903267 -0.5
vertex 156.32834863286 -412.118874201375 2.0
endloop
endfacet
facet normal 1.0 0.0 0.0
outer loop
vertex 156.32834863286 -408.651886903267 -0.5
vertex 156.32834863286 -412.118874201375 -1.3
vertex 156.32834863286 -404.318874201375 -1.3
endloop
endfacet
facet normal 1.0 0.0 0.0
outer loop
vertex 156.32834863286 -408.651886903267 -0.5
vertex 156.32834863286 -404.318874201375 -1.3
vertex 156.32834863286 -407.785861499482 -0.5
endloop
endfacet
facet normal 1.0 0.0 0.0
outer loop
vertex 156.32834863286 -407.785861499482 -0.5
vertex 156.32834863286 -404.318874201375 -1.3
vertex 156.32834863286 -407.785861499482 2.0
endloop
endfacet
facet normal 1.0 0.0 0.0
outer loop
vertex 156.32834863286 -407.785861499482 2.0
vertex 156.32834863286 -404.318874201375 -1.3
vertex 156.32834863286 -404.318874201375 2.0
endloop
endfacet
facet normal 1.0 0.0 0.0
outer loop
vertex 156.32834863286 -408.651886903267 2.0
vertex 156.32834863286 -412.118874201375 2.0
vertex 156.32834863286 -408.651886903267 -0.5
endloop
endfacet
facet normal -0.86602540378444 0.499999999999998 0.0
outer loop
vertex 156.32834863286 -408.651886903267 2.0
vertex 154.47834863286 -411.856180897269 -0.5
vertex 154.47834863286 -411.856180897269 2.0
endloop
endfacet
facet normal -0.86602540378444 0.499999999999998 0.0
outer loop
vertex 154.47834863286 -411.856180897269 -0.5
vertex 156.32834863286 -408.651886903267 2.0
vertex 156.32834863286 -408.651886903267 -0.5
endloop
endfacet
facet normal -0.707106781186532 -0.707106781186563 0.0
outer loop
vertex 153.863272873352 -406.733949960883 -0.5
vertex 153.42834863286 -406.400220853427 -1.3
vertex 153.863272873352 -406.733949960883 -1.3
endloop
endfacet
facet normal -0.500000000000019 -0.866025403784428 0.0
outer loop
vertex 153.42834863286 -406.400220853427 -1.3
vertex 153.863272873352 -406.733949960883 -0.5
vertex 153.42834863286 -406.400220853427 -0.5
endloop
endfacet
facet normal 0.707106781186532 0.707106781186563 0.0
outer loop
vertex 150.893424392368 -409.703798441866 -0.5
vertex 151.32834863286 -410.037527549322 -1.3
vertex 150.893424392368 -409.703798441866 -1.3
endloop
endfacet
facet normal 0.500000000000019 0.866025403784428 0.0
outer loop
vertex 151.32834863286 -410.037527549322 -1.3
vertex 150.893424392368 -409.703798441866 -0.5
vertex 151.32834863286 -410.037527549322 -0.5
endloop
endfacet
facet normal 0.965925826289071 -0.258819045102511 0.0
outer loop
vertex 150.349904397653 -407.675354206659 -1.3
vertex 150.27834863286 -408.218874201375 -0.5
vertex 150.27834863286 -408.218874201375 -1.3
endloop
endfacet
facet normal 1.0 0.0 0.0
outer loop
vertex 150.27834863286 -408.218874201375 -0.5
vertex 150.349904397653 -407.675354206659 -1.3
vertex 150.349904397653 -407.675354206659 -0.5
endloop
endfacet
facet normal 0.86602540378444 -0.499999999999998 0.0
outer loop
vertex 150.27834863286 -404.58156750548 -0.5
vertex 148.42834863286 -407.785861499482 2.0
vertex 148.42834863286 -407.785861499482 -0.5
endloop
endfacet
facet normal 0.86602540378444 -0.499999999999998 0.0
outer loop
vertex 148.42834863286 -407.785861499482 2.0
vertex 150.27834863286 -404.58156750548 -0.5
vertex 150.27834863286 -404.58156750548 2.0
endloop
endfacet
facet normal -0.500000000000019 -0.866025403784428 0.0
outer loop
vertex 153.42834863286 -406.400220853427 -0.5
vertex 152.921868627575 -406.190429966167 -1.3
vertex 153.42834863286 -406.400220853427 -1.3
endloop
endfacet
facet normal -0.258819045102501 -0.965925826289074 0.0
outer loop
vertex 152.921868627575 -406.190429966167 -1.3
vertex 153.42834863286 -406.400220853427 -0.5
vertex 152.921868627575 -406.190429966167 -0.5
endloop
endfacet
facet normal -0.965925826289071 0.258819045102511 0.0
outer loop
vertex 154.406792868067 -408.76239419609 -0.5
vertex 154.197001980808 -409.268874201375 -1.3
vertex 154.197001980808 -409.268874201375 -0.5
endloop
endfacet
facet normal -0.866025403784421 0.500000000000031 0.0
outer loop
vertex 154.197001980808 -409.268874201375 -1.3
vertex 154.406792868067 -408.76239419609 -0.5
vertex 154.406792868067 -408.76239419609 -1.3
endloop
endfacet
facet normal 0.258819045102501 0.965925826289074 0.0
outer loop
vertex 151.834828638145 -410.247318436582 -0.5
vertex 152.37834863286 -410.318874201375 -1.3
vertex 151.834828638145 -410.247318436582 -1.3
endloop
endfacet
facet normal 0.0 1.0 0.0
outer loop
vertex 152.37834863286 -410.318874201375 -1.3
vertex 151.834828638145 -410.247318436582 -0.5
vertex 152.37834863286 -410.318874201375 -0.5
endloop
endfacet
facet normal 1.0 0.0 0.0
outer loop
vertex 150.27834863286 -408.218874201375 -1.3
vertex 150.349904397653 -408.76239419609 -0.5
vertex 150.349904397653 -408.76239419609 -1.3
endloop
endfacet
facet normal 0.965925826289071 0.258819045102511 0.0
outer loop
vertex 150.349904397653 -408.76239419609 -0.5
vertex 150.27834863286 -408.218874201375 -1.3
vertex 150.27834863286 -408.218874201375 -0.5
endloop
endfacet
facet normal -0.258819045102493 0.965925826289076 0.0
outer loop
vertex 152.921868627575 -410.247318436582 -0.5
vertex 153.42834863286 -410.037527549322 -1.3
vertex 152.921868627575 -410.247318436582 -1.3
endloop
endfacet
facet normal -0.500000000000023 0.866025403784425 0.0
outer loop
vertex 153.42834863286 -410.037527549322 -1.3
vertex 152.921868627575 -410.247318436582 -0.5
vertex 153.42834863286 -410.037527549322 -0.5
endloop
endfacet
facet normal 0.965925826289071 0.258819045102511 0.0
outer loop
vertex 150.349904397653 -408.76239419609 -1.3
vertex 150.559695284913 -409.268874201375 -0.5
vertex 150.559695284913 -409.268874201375 -1.3
endloop
endfacet
facet normal 0.866025403784421 0.500000000000031 0.0
outer loop
vertex 150.559695284913 -409.268874201375 -0.5
vertex 150.349904397653 -408.76239419609 -1.3
vertex 150.349904397653 -408.76239419609 -0.5
endloop
endfacet
facet normal -0.707106781186532 -0.707106781186563 0.0
outer loop
vertex 153.863272873352 -406.733949960883 -0.5
vertex 154.197001980808 -407.168874201374 -1.3
vertex 154.197001980808 -407.168874201374 -0.5
endloop
endfacet
facet normal -0.866025403784421 -0.500000000000031 0.0
outer loop
vertex 154.197001980808 -407.168874201374 -1.3
vertex 153.863272873352 -406.733949960883 -0.5
vertex 153.863272873352 -406.733949960883 -1.3
endloop
endfacet
facet normal 0.866025403784421 -0.500000000000031 0.0
outer loop
vertex 150.559695284913 -407.168874201374 -1.3
vertex 150.349904397653 -407.675354206659 -0.5
vertex 150.349904397653 -407.675354206659 -1.3
endloop
endfacet
facet normal 0.965925826289071 -0.258819045102511 0.0
outer loop
vertex 150.349904397653 -407.675354206659 -0.5
vertex 150.559695284913 -407.168874201374 -1.3
vertex 150.559695284913 -407.168874201374 -0.5
endloop
endfacet
facet normal 0.866025403784421 0.500000000000031 0.0
outer loop
vertex 150.559695284913 -409.268874201375 -1.3
vertex 150.893424392368 -409.703798441866 -0.5
vertex 150.893424392368 -409.703798441866 -1.3
endloop
endfacet
facet normal 0.707106781186532 0.707106781186563 0.0
outer loop
vertex 150.893424392368 -409.703798441866 -0.5
vertex 150.559695284913 -409.268874201375 -1.3
vertex 150.559695284913 -409.268874201375 -0.5
endloop
endfacet
facet normal 0.258819045102493 -0.965925826289076 0.0
outer loop
vertex 151.834828638145 -406.190429966167 -0.5
vertex 151.32834863286 -406.400220853427 -1.3
vertex 151.834828638145 -406.190429966167 -1.3
endloop
endfacet
facet normal 0.500000000000023 -0.866025403784425 0.0
outer loop
vertex 151.32834863286 -406.400220853427 -1.3
vertex 151.834828638145 -406.190429966167 -0.5
vertex 151.32834863286 -406.400220853427 -0.5
endloop
endfacet
facet normal 0.0 1.0 0.0
outer loop
vertex 152.37834863286 -410.318874201375 -0.5
vertex 152.921868627575 -410.247318436582 -1.3
vertex 152.37834863286 -410.318874201375 -1.3
endloop
endfacet
facet normal -0.258819045102493 0.965925826289076 0.0
outer loop
vertex 152.921868627575 -410.247318436582 -1.3
vertex 152.37834863286 -410.318874201375 -0.5
vertex 152.921868627575 -410.247318436582 -0.5
endloop
endfacet
facet normal 0.500000000000023 -0.866025403784425 0.0
outer loop
vertex 151.32834863286 -406.400220853427 -0.5
vertex 150.893424392368 -406.733949960883 -1.3
vertex 151.32834863286 -406.400220853427 -1.3
endloop
endfacet
facet normal 0.707106781186541 -0.707106781186554 0.0
outer loop
vertex 150.893424392368 -406.733949960883 -1.3
vertex 151.32834863286 -406.400220853427 -0.5
vertex 150.893424392368 -406.733949960883 -0.5
endloop
endfacet
facet normal -0.866025403784421 -0.500000000000031 0.0
outer loop
vertex 154.197001980808 -407.168874201374 -0.5
vertex 154.406792868067 -407.675354206659 -1.3
vertex 154.406792868067 -407.675354206659 -0.5
endloop
endfacet
facet normal -0.965925826289071 -0.258819045102511 0.0
outer loop
vertex 154.406792868067 -407.675354206659 -1.3
vertex 154.197001980808 -407.168874201374 -0.5
vertex 154.197001980808 -407.168874201374 -1.3
endloop
endfacet
facet normal 0.0 -1.0 0.0
outer loop
vertex 152.37834863286 -406.118874201375 -0.5
vertex 151.834828638145 -406.190429966167 -1.3
vertex 152.37834863286 -406.118874201375 -1.3
endloop
endfacet
facet normal 0.258819045102493 -0.965925826289076 0.0
outer loop
vertex 151.834828638145 -406.190429966167 -1.3
vertex 152.37834863286 -406.118874201375 -0.5
vertex 151.834828638145 -406.190429966167 -0.5
endloop
endfacet
facet normal 0.707106781186541 -0.707106781186554 0.0
outer loop
vertex 150.893424392368 -406.733949960883 -1.3
vertex 150.559695284913 -407.168874201374 -0.5
vertex 150.559695284913 -407.168874201374 -1.3
endloop
endfacet
facet normal 0.866025403784421 -0.500000000000031 0.0
outer loop
vertex 150.559695284913 -407.168874201374 -0.5
vertex 150.893424392368 -406.733949960883 -1.3
vertex 150.893424392368 -406.733949960883 -0.5
endloop
endfacet
facet normal -1.0 0.0 0.0
outer loop
vertex 154.47834863286 -408.218874201375 -0.5
vertex 154.406792868067 -408.76239419609 -1.3
vertex 154.406792868067 -408.76239419609 -0.5
endloop
endfacet
facet normal -0.965925826289071 0.258819045102511 0.0
outer loop
vertex 154.406792868067 -408.76239419609 -1.3
vertex 154.47834863286 -408.218874201375 -0.5
vertex 154.47834863286 -408.218874201375 -1.3
endloop
endfacet
facet normal -0.866025403784421 0.500000000000031 0.0
outer loop
vertex 154.197001980808 -409.268874201375 -0.5
vertex 153.863272873352 -409.703798441866 -1.3
vertex 153.863272873352 -409.703798441866 -0.5
endloop
endfacet
facet normal -0.707106781186541 0.707106781186554 0.0
outer loop
vertex 153.863272873352 -409.703798441866 -1.3
vertex 154.197001980808 -409.268874201375 -0.5
vertex 154.197001980808 -409.268874201375 -1.3
endloop
endfacet
endsolid kitchissippi-02
