solid kitchissippi-02
facet normal -0.965925826289061 0.258819045102548 3.0890520828368e-31
outer loop
vertex 151.94228095742 -418.756645319035 1.5
vertex 151.742480112411 -419.23900722883 -7.04991620636974e-16
vertex 151.742480112411 -419.23900722883 1.5
endloop
endfacet
facet normal -0.866025403784437 0.500000000000002 9.40400545337615e-19
outer loop
vertex 151.742480112411 -419.23900722883 -7.04991620636974e-16
vertex 151.94228095742 -418.756645319035 1.5
vertex 151.94228095742 -418.756645319035 -7.04991620636974e-16
endloop
endfacet
facet normal 0.0 1.0 0.0
outer loop
vertex 145.010429304842 -414.86150815407 3.8
vertex 148.060429304842 -414.86150815407 1.8
vertex 145.010429304842 -414.86150815407 1.8
endloop
endfacet
facet normal 0.0 1.0 0.0
outer loop
vertex 148.060429304842 -414.86150815407 1.8
vertex 145.010429304842 -414.86150815407 3.8
vertex 148.060429304842 -414.86150815407 3.8
endloop
endfacet
facet normal 0.0 0.0 1.0
outer loop
vertex 155.010429304842 -421.63900722883 3.8
vertex 153.910429304842 -418.23900722883 3.8
vertex 151.960429304842 -421.616506303589 3.8
endloop
endfacet
facet normal 0.0 0.0 1.0
outer loop
vertex 153.910429304842 -418.23900722883 3.8
vertex 155.010429304842 -414.86150815407 3.8
vertex 151.960429304842 -414.86150815407 3.8
endloop
endfacet
facet normal 0.0 0.0 1.0
outer loop
vertex 155.010429304842 -414.86150815407 3.8
vertex 153.910429304842 -418.23900722883 3.8
vertex 155.010429304842 -421.63900722883 3.8
endloop
endfacet
facet normal 1.0 0.0 0.0
outer loop
vertex 155.010429304842 -415.53900722883 0.0
vertex 155.010429304842 -420.93900722883 1.8
vertex 155.010429304842 -420.93900722883 0.0
endloop
endfacet
facet normal 1.0 0.0 0.0
outer loop
vertex 155.010429304842 -420.93900722883 1.8
vertex 155.010429304842 -421.63900722883 3.8
vertex 155.010429304842 -421.63900722883 1.8
endloop
endfacet
facet normal 1.0 0.0 0.0
outer loop
vertex 155.010429304842 -421.63900722883 3.8
vertex 155.010429304842 -420.93900722883 1.8
vertex 155.010429304842 -414.86150815407 3.8
endloop
endfacet
facet normal 1.0 0.0 0.0
outer loop
vertex 155.010429304842 -414.86150815407 3.8
vertex 155.010429304842 -420.93900722883 1.8
vertex 155.010429304842 -415.53900722883 1.8
endloop
endfacet
facet normal 1.0 0.0 0.0
outer loop
vertex 155.010429304842 -415.53900722883 1.8
vertex 155.010429304842 -420.93900722883 1.8
vertex 155.010429304842 -415.53900722883 0.0
endloop
endfacet
facet normal 1.0 0.0 0.0
outer loop
vertex 155.010429304842 -414.86150815407 3.8
vertex 155.010429304842 -415.53900722883 1.8
vertex 155.010429304842 -414.86150815407 1.8
endloop
endfacet
facet normal 0.0 0.0 1.0
outer loop
vertex 145.010429304842 -421.63900722883 3.8
vertex 146.110429304842 -418.23900722883 3.8
vertex 145.010429304842 -414.86150815407 3.8
endloop
endfacet
facet normal 0.0 0.0 1.0
outer loop
vertex 146.110429304842 -418.23900722883 3.8
vertex 145.010429304842 -421.63900722883 3.8
vertex 148.060429304842 -421.616506303589 3.8
endloop
endfacet
facet normal 0.0 0.0 1.0
outer loop
vertex 148.060429304842 -414.86150815407 3.8
vertex 145.010429304842 -414.86150815407 3.8
vertex 146.110429304842 -418.23900722883 3.8
endloop
endfacet
facet normal -0.00737715178872409 -0.999972788445509 6.08740699446507e-20
outer loop
vertex 155.010429304842 -421.63900722883 3.8
vertex 151.960429304842 -421.616506303589 1.8
vertex 155.010429304842 -421.63900722883 1.8
endloop
endfacet
facet normal -0.00737715178872409 -0.999972788445509 6.08740699446507e-20
outer loop
vertex 151.960429304842 -421.616506303589 1.8
vertex 155.010429304842 -421.63900722883 3.8
vertex 151.960429304842 -421.616506303589 3.8
endloop
endfacet
facet normal -1.0 -2.14312192990308e-14 -2.67211389875456e-31
outer loop
vertex 152.010429304842 -418.23900722883 1.5
vertex 151.94228095742 -418.756645319035 -7.04991620636974e-16
vertex 151.94228095742 -418.756645319035 1.5
endloop
endfacet
facet normal -0.965925826289061 0.258819045102548 3.0890520828368e-31
outer loop
vertex 151.94228095742 -418.756645319035 -7.04991620636974e-16
vertex 152.010429304842 -418.23900722883 1.5
vertex 152.010429304842 -418.23900722883 -7.04991620636974e-16
endloop
endfacet
facet normal -0.707106781186529 -0.707106781186566 1.35043809552182e-30
outer loop
vertex 151.424642867215 -416.824793666457 1.5
vertex 151.742480112411 -417.23900722883 -7.04991620636974e-16
vertex 151.742480112411 -417.23900722883 1.5
endloop
endfacet
facet normal -0.866025403784437 -0.500000000000002 -9.40400545335907e-19
outer loop
vertex 151.742480112411 -417.23900722883 -7.04991620636974e-16
vertex 151.424642867215 -416.824793666457 1.5
vertex 151.424642867215 -416.824793666457 -7.04991620636974e-16
endloop
endfacet
facet normal -0.965925826289069 -0.258819045102518 4.12558986701028e-31
outer loop
vertex 151.94228095742 -417.721369138625 1.5
vertex 152.010429304842 -418.23900722883 -7.04991620636974e-16
vertex 152.010429304842 -418.23900722883 1.5
endloop
endfacet
facet normal -1.0 -2.14312192990308e-14 -2.67211389875456e-31
outer loop
vertex 152.010429304842 -418.23900722883 -7.04991620636974e-16
vertex 151.94228095742 -417.721369138625 1.5
vertex 151.94228095742 -417.721369138625 -7.04991620636974e-16
endloop
endfacet
facet normal 0.707106781186566 -0.707106781186529 1.0223508915457e-30
outer loop
vertex 148.596215742469 -416.824793666457 -7.04991620636974e-16
vertex 148.278378497273 -417.23900722883 1.5
vertex 148.278378497273 -417.23900722883 -7.04991620636974e-16
endloop
endfacet
facet normal 0.866025403784437 -0.500000000000002 9.40400545339426e-19
outer loop
vertex 148.278378497273 -417.23900722883 1.5
vertex 148.596215742469 -416.824793666457 -7.04991620636974e-16
vertex 148.596215742469 -416.824793666457 1.5
endloop
endfacet
facet normal -0.866025403784437 0.500000000000002 9.40400545337615e-19
outer loop
vertex 151.742480112411 -419.23900722883 1.5
vertex 151.424642867215 -419.653220791203 -7.04991620636974e-16
vertex 151.424642867215 -419.653220791203 1.5
endloop
endfacet
facet normal -0.707106781186566 0.707106781186529 -6.18332461319521e-31
outer loop
vertex 151.424642867215 -419.653220791203 -7.04991620636974e-16
vertex 151.742480112411 -419.23900722883 1.5
vertex 151.742480112411 -419.23900722883 -7.04991620636974e-16
endloop
endfacet
facet normal -1.26959127348252e-16 -6.01944646586121e-17 -1.0
outer loop
vertex 155.010429304842 -414.86150815407 1.8
vertex 152.35158357803 -415.53900722883 1.8
vertex 151.960429304842 -414.86150815407 1.8
endloop
endfacet
facet normal -1.26959127348252e-16 -6.01944646586121e-17 -1.0
outer loop
vertex 152.35158357803 -415.53900722883 1.8
vertex 155.010429304842 -414.86150815407 1.8
vertex 152.697993739544 -415.53900722883 1.8
endloop
endfacet
facet normal -1.26959127348252e-16 -6.01944646586121e-17 -1.0
outer loop
vertex 152.697993739544 -415.53900722883 1.8
vertex 155.010429304842 -414.86150815407 1.8
vertex 155.010429304842 -415.53900722883 1.8
endloop
endfacet
facet normal 0.00737715178872399 -0.999972788445509 -4.85582835959401e-19
outer loop
vertex 148.060429304842 -421.616506303589 1.8
vertex 145.010429304842 -421.63900722883 3.8
vertex 145.010429304842 -421.63900722883 1.8
endloop
endfacet
facet normal 0.00737715178872399 -0.999972788445509 -4.85582835959401e-19
outer loop
vertex 145.010429304842 -421.63900722883 3.8
vertex 148.060429304842 -421.616506303589 1.8
vertex 148.060429304842 -421.616506303589 3.8
endloop
endfacet
facet normal 0.0 1.0 0.0
outer loop
vertex 151.960429304842 -414.86150815407 1.8
vertex 155.010429304842 -414.86150815407 3.8
vertex 155.010429304842 -414.86150815407 1.8
endloop
endfacet
facet normal 0.0 1.0 0.0
outer loop
vertex 155.010429304842 -414.86150815407 3.8
vertex 151.960429304842 -414.86150815407 1.8
vertex 151.960429304842 -414.86150815407 3.8
endloop
endfacet
facet normal 0.500000000000021 -0.866025403784427 -9.4040054533723e-19
outer loop
vertex 149.010429304842 -416.506956421261 1.5
vertex 148.596215742469 -416.824793666457 -7.04991620636974e-16
vertex 149.010429304842 -416.506956421261 -7.04991620636974e-16
endloop
endfacet
facet normal 0.707106781186566 -0.707106781186529 1.0223508915457e-30
outer loop
vertex 148.596215742469 -416.824793666457 -7.04991620636974e-16
vertex 149.010429304842 -416.506956421261 1.5
vertex 148.596215742469 -416.824793666457 1.5
endloop
endfacet
facet normal 0.258819045102526 -0.965925826289067 1.38318793536168e-31
outer loop
vertex 149.492791214637 -416.307155576251 1.5
vertex 149.010429304842 -416.506956421261 -7.04991620636974e-16
vertex 149.492791214637 -416.307155576251 -7.04991620636974e-16
endloop
endfacet
facet normal 0.500000000000021 -0.866025403784427 -9.4040054533723e-19
outer loop
vertex 149.010429304842 -416.506956421261 -7.04991620636974e-16
vertex 149.492791214637 -416.307155576251 1.5
vertex 149.010429304842 -416.506956421261 1.5
endloop
endfacet
facet normal -0.500000000000021 0.866025403784427 -9.40400545337765e-19
outer loop
vertex 151.010429304842 -419.971058036398 1.5
vertex 151.424642867215 -419.653220791203 -7.04991620636974e-16
vertex 151.010429304842 -419.971058036398 -7.04991620636974e-16
endloop
endfacet
facet normal -0.707106781186566 0.707106781186529 -6.18332461319521e-31
outer loop
vertex 151.424642867215 -419.653220791203 -7.04991620636974e-16
vertex 151.010429304842 -419.971058036398 1.5
vertex 151.424642867215 -419.653220791203 1.5
endloop
endfacet
facet normal 0.866025403784437 -0.500000000000002 9.40400545339426e-19
outer loop
vertex 148.278378497273 -417.23900722883 -7.04991620636974e-16
vertex 148.078577652264 -417.721369138625 1.5
vertex 148.078577652264 -417.721369138625 -7.04991620636974e-16
endloop
endfacet
facet normal 0.965925826289061 -0.258819045102548 1.34133073852087e-30
outer loop
vertex 148.078577652264 -417.721369138625 1.5
vertex 148.278378497273 -417.23900722883 -7.04991620636974e-16
vertex 148.278378497273 -417.23900722883 1.5
endloop
endfacet
facet normal -0.866025403784436 -0.500000000000005 -8.52102773962113e-16
outer loop
vertex 151.960429304842 -414.86150815407 3.8
vertex 153.910429304842 -418.23900722883 1.8
vertex 153.910429304842 -418.23900722883 3.8
endloop
endfacet
facet normal -0.866025403784436 -0.500000000000005 -8.52102773962113e-16
outer loop
vertex 153.910429304842 -418.23900722883 1.8
vertex 151.960429304842 -414.86150815407 3.8
vertex 152.697993739544 -416.13900722883 1.8
endloop
endfacet
facet normal -0.866025403784436 -0.500000000000005 -8.52102773962113e-16
outer loop
vertex 152.697993739544 -416.13900722883 1.8
vertex 151.960429304842 -414.86150815407 3.8
vertex 152.35158357803 -415.53900722883 1.8
endloop
endfacet
facet normal -0.866025403784436 -0.500000000000005 -8.52102773962113e-16
outer loop
vertex 152.35158357803 -415.53900722883 1.8
vertex 151.960429304842 -414.86150815407 3.8
vertex 151.960429304842 -414.86150815407 1.8
endloop
endfacet
facet normal 0.0 -1.0 0.0
outer loop
vertex 155.010429304842 -420.93900722883 1.8
vertex 145.010429304842 -420.93900722883 0.0
vertex 155.010429304842 -420.93900722883 0.0
endloop
endfacet
facet normal 0.0 -1.0 0.0
outer loop
vertex 145.010429304842 -420.93900722883 0.0
vertex 155.010429304842 -420.93900722883 1.8
vertex 145.010429304842 -420.93900722883 1.8
endloop
endfacet
facet normal 0.0 -1.0 0.0
outer loop
vertex 145.010429304842 -420.93900722883 1.8
vertex 155.010429304842 -420.93900722883 1.8
vertex 152.697993739544 -420.93900722883 1.8
endloop
endfacet
facet normal 0.0 -1.0 0.0
outer loop
vertex 145.010429304842 -420.93900722883 1.8
vertex 152.697993739544 -420.93900722883 1.8
vertex 147.32286487014 -420.93900722883 1.8
endloop
endfacet
facet normal 0.0 -1.0 0.0
outer loop
vertex 147.32286487014 -420.93900722883 1.8
vertex 152.697993739544 -420.93900722883 1.8
vertex 152.35158357803 -420.93900722883 1.8
endloop
endfacet
facet normal 0.0 -1.0 0.0
outer loop
vertex 147.32286487014 -420.93900722883 1.8
vertex 152.35158357803 -420.93900722883 1.8
vertex 147.669275031654 -420.93900722883 1.8
endloop
endfacet
facet normal 1.0 2.14044859693438e-14 2.93802030241981e-19
outer loop
vertex 148.010429304842 -418.23900722883 -7.04991620636974e-16
vertex 148.078577652264 -418.756645319035 1.5
vertex 148.078577652264 -418.756645319035 -7.04991620636974e-16
endloop
endfacet
facet normal 0.965925826289069 0.258819045102518 2.93802030242624e-19
outer loop
vertex 148.078577652264 -418.756645319035 1.5
vertex 148.010429304842 -418.23900722883 -7.04991620636974e-16
vertex 148.010429304842 -418.23900722883 1.5
endloop
endfacet
facet normal 0.0 1.0 0.0
outer loop
vertex 145.010429304842 -415.53900722883 1.8
vertex 155.010429304842 -415.53900722883 0.0
vertex 145.010429304842 -415.53900722883 0.0
endloop
endfacet
facet normal 0.0 1.0 0.0
outer loop
vertex 155.010429304842 -415.53900722883 0.0
vertex 145.010429304842 -415.53900722883 1.8
vertex 155.010429304842 -415.53900722883 1.8
endloop
endfacet
facet normal 0.0 1.0 0.0
outer loop
vertex 155.010429304842 -415.53900722883 1.8
vertex 145.010429304842 -415.53900722883 1.8
vertex 147.32286487014 -415.53900722883 1.8
endloop
endfacet
facet normal 0.0 1.0 0.0
outer loop
vertex 155.010429304842 -415.53900722883 1.8
vertex 147.32286487014 -415.53900722883 1.8
vertex 152.697993739544 -415.53900722883 1.8
endloop
endfacet
facet normal 0.0 1.0 0.0
outer loop
vertex 152.697993739544 -415.53900722883 1.8
vertex 147.32286487014 -415.53900722883 1.8
vertex 147.669275031654 -415.53900722883 1.8
endloop
endfacet
facet normal 0.0 1.0 0.0
outer loop
vertex 152.697993739544 -415.53900722883 1.8
vertex 147.669275031654 -415.53900722883 1.8
vertex 152.35158357803 -415.53900722883 1.8
endloop
endfacet
facet normal 0.965925826289069 0.258819045102518 2.93802030242624e-19
outer loop
vertex 148.078577652264 -418.756645319035 -7.04991620636974e-16
vertex 148.278378497273 -419.23900722883 1.5
vertex 148.278378497273 -419.23900722883 -7.04991620636974e-16
endloop
endfacet
facet normal 0.866025403784437 0.500000000000002 -9.40400545336722e-19
outer loop
vertex 148.278378497273 -419.23900722883 1.5
vertex 148.078577652264 -418.756645319035 -7.04991620636974e-16
vertex 148.078577652264 -418.756645319035 1.5
endloop
endfacet
facet normal 0.500000000000021 0.866025403784427 9.40400545337436e-19
outer loop
vertex 149.010429304842 -419.971058036398 1.5
vertex 149.492791214637 -420.170858881408 -7.04991620636974e-16
vertex 149.010429304842 -419.971058036398 -7.04991620636974e-16
endloop
endfacet
facet normal 0.258819045102526 0.965925826289067 1.38318793536168e-31
outer loop
vertex 149.492791214637 -420.170858881408 -7.04991620636974e-16
vertex 149.010429304842 -419.971058036398 1.5
vertex 149.492791214637 -420.170858881408 1.5
endloop
endfacet
facet normal 0.258819045102526 0.965925826289067 1.38318793536168e-31
outer loop
vertex 149.492791214637 -420.170858881408 1.5
vertex 150.010429304842 -420.23900722883 -7.04991620636974e-16
vertex 149.492791214637 -420.170858881408 -7.04991620636974e-16
endloop
endfacet
facet normal 0.0 1.0 0.0
outer loop
vertex 150.010429304842 -420.23900722883 -7.04991620636974e-16
vertex 149.492791214637 -420.170858881408 1.5
vertex 150.010429304842 -420.23900722883 1.5
endloop
endfacet
facet normal 0.707106781186529 0.707106781186566 -2.90245257343381e-31
outer loop
vertex 148.596215742469 -419.653220791203 1.5
vertex 149.010429304842 -419.971058036398 -7.04991620636974e-16
vertex 148.596215742469 -419.653220791203 -7.04991620636974e-16
endloop
endfacet
facet normal 0.500000000000021 0.866025403784427 9.40400545337436e-19
outer loop
vertex 149.010429304842 -419.971058036398 -7.04991620636974e-16
vertex 148.596215742469 -419.653220791203 1.5
vertex 149.010429304842 -419.971058036398 1.5
endloop
endfacet
facet normal 0.0 1.0 0.0
outer loop
vertex 150.010429304842 -420.23900722883 1.5
vertex 150.528067395047 -420.170858881408 -7.04991620636974e-16
vertex 150.010429304842 -420.23900722883 -7.04991620636974e-16
endloop
endfacet
facet normal -0.258819045102526 0.965925826289067 -1.38318793536168e-31
outer loop
vertex 150.528067395047 -420.170858881408 -7.04991620636974e-16
vertex 150.010429304842 -420.23900722883 1.5
vertex 150.528067395047 -420.170858881408 1.5
endloop
endfacet
facet normal 0.866025403784437 0.500000000000002 -9.40400545336722e-19
outer loop
vertex 148.278378497273 -419.23900722883 -7.04991620636974e-16
vertex 148.596215742469 -419.653220791203 1.5
vertex 148.596215742469 -419.653220791203 -7.04991620636974e-16
endloop
endfacet
facet normal 0.707106781186529 0.707106781186566 -2.90245257343381e-31
outer loop
vertex 148.596215742469 -419.653220791203 1.5
vertex 148.278378497273 -419.23900722883 -7.04991620636974e-16
vertex 148.278378497273 -419.23900722883 1.5
endloop
endfacet
facet normal -0.258819045102526 -0.965925826289067 -3.44598286886733e-31
outer loop
vertex 150.528067395047 -416.307155576251 1.5
vertex 150.010429304842 -416.23900722883 -7.04991620636974e-16
vertex 150.528067395047 -416.307155576251 -7.04991620636974e-16
endloop
endfacet
facet normal 0.0 -1.0 0.0
outer loop
vertex 150.010429304842 -416.23900722883 -7.04991620636974e-16
vertex 150.528067395047 -416.307155576251 1.5
vertex 150.010429304842 -416.23900722883 1.5
endloop
endfacet
facet normal -0.258819045102526 0.965925826289067 -1.38318793536168e-31
outer loop
vertex 150.528067395047 -420.170858881408 1.5
vertex 151.010429304842 -419.971058036398 -7.04991620636974e-16
vertex 150.528067395047 -420.170858881408 -7.04991620636974e-16
endloop
endfacet
facet normal -0.500000000000021 0.866025403784427 -9.40400545337765e-19
outer loop
vertex 151.010429304842 -419.971058036398 -7.04991620636974e-16
vertex 150.528067395047 -420.170858881408 1.5
vertex 151.010429304842 -419.971058036398 1.5
endloop
endfacet
facet normal 0.0 -1.0 0.0
outer loop
vertex 150.010429304842 -416.23900722883 1.5
vertex 149.492791214637 -416.307155576251 -7.04991620636974e-16
vertex 150.010429304842 -416.23900722883 -7.04991620636974e-16
endloop
endfacet
facet normal 0.258819045102526 -0.965925826289067 1.38318793536168e-31
outer loop
vertex 149.492791214637 -416.307155576251 -7.04991620636974e-16
vertex 150.010429304842 -416.23900722883 1.5
vertex 149.492791214637 -416.307155576251 1.5
endloop
endfacet
facet normal -0.707106781186529 -0.707106781186566 1.35043809552182e-30
outer loop
vertex 151.424642867215 -416.824793666457 1.5
vertex 151.010429304842 -416.506956421261 -7.04991620636974e-16
vertex 151.424642867215 -416.824793666457 -7.04991620636974e-16
endloop
endfacet
facet normal -0.500000000000021 -0.866025403784427 9.40400545337352e-19
outer loop
vertex 151.010429304842 -416.506956421261 -7.04991620636974e-16
vertex 151.424642867215 -416.824793666457 1.5
vertex 151.010429304842 -416.506956421261 1.5
endloop
endfacet
facet normal -0.866025403784437 -0.500000000000002 -9.40400545335907e-19
outer loop
vertex 151.742480112411 -417.23900722883 1.5
vertex 151.94228095742 -417.721369138625 -7.04991620636974e-16
vertex 151.94228095742 -417.721369138625 1.5
endloop
endfacet
facet normal -0.965925826289069 -0.258819045102518 4.12558986701028e-31
outer loop
vertex 151.94228095742 -417.721369138625 -7.04991620636974e-16
vertex 151.742480112411 -417.23900722883 1.5
vertex 151.742480112411 -417.23900722883 -7.04991620636974e-16
endloop
endfacet
facet normal 0.0 0.0 -1.0
outer loop
vertex 145.010429304842 -415.53900722883 0.0
vertex 148.596215742469 -416.824793666457 -7.04991620636974e-16
vertex 145.010429304842 -420.93900722883 0.0
endloop
endfacet
facet normal 0.0 0.0 -1.0
outer loop
vertex 148.596215742469 -416.824793666457 -7.04991620636974e-16
vertex 145.010429304842 -415.53900722883 0.0
vertex 149.010429304842 -416.506956421261 -7.04991620636974e-16
endloop
endfacet
facet normal 0.0 0.0 -1.0
outer loop
vertex 149.010429304842 -416.506956421261 -7.04991620636974e-16
vertex 145.010429304842 -415.53900722883 0.0
vertex 149.492791214637 -416.307155576251 -7.04991620636974e-16
endloop
endfacet
facet normal 0.0 0.0 -1.0
outer loop
vertex 149.492791214637 -416.307155576251 -7.04991620636974e-16
vertex 145.010429304842 -415.53900722883 0.0
vertex 155.010429304842 -415.53900722883 0.0
endloop
endfacet
facet normal 0.0 0.0 -1.0
outer loop
vertex 145.010429304842 -420.93900722883 0.0
vertex 148.596215742469 -416.824793666457 -7.04991620636974e-16
vertex 148.278378497273 -417.23900722883 -7.04991620636974e-16
endloop
endfacet
facet normal 0.0 0.0 -1.0
outer loop
vertex 145.010429304842 -420.93900722883 0.0
vertex 148.278378497273 -417.23900722883 -7.04991620636974e-16
vertex 148.078577652264 -417.721369138625 -7.04991620636974e-16
endloop
endfacet
facet normal 0.0 0.0 -1.0
outer loop
vertex 145.010429304842 -420.93900722883 0.0
vertex 148.078577652264 -417.721369138625 -7.04991620636974e-16
vertex 148.010429304842 -418.23900722883 -7.04991620636974e-16
endloop
endfacet
facet normal 0.0 0.0 -1.0
outer loop
vertex 149.492791214637 -416.307155576251 -7.04991620636974e-16
vertex 155.010429304842 -415.53900722883 0.0
vertex 150.010429304842 -416.23900722883 -7.04991620636974e-16
endloop
endfacet
facet normal 0.0 0.0 -1.0
outer loop
vertex 150.010429304842 -416.23900722883 -7.04991620636974e-16
vertex 155.010429304842 -415.53900722883 0.0
vertex 150.528067395047 -416.307155576251 -7.04991620636974e-16
endloop
endfacet
facet normal 0.0 0.0 -1.0
outer loop
vertex 150.528067395047 -416.307155576251 -7.04991620636974e-16
vertex 155.010429304842 -415.53900722883 0.0
vertex 151.010429304842 -416.506956421261 -7.04991620636974e-16
endloop
endfacet
facet normal 0.0 0.0 -1.0
outer loop
vertex 151.010429304842 -416.506956421261 -7.04991620636974e-16
vertex 155.010429304842 -415.53900722883 0.0
vertex 151.424642867215 -416.824793666457 -7.04991620636974e-16
endloop
endfacet
facet normal 0.0 0.0 -1.0
outer loop
vertex 151.424642867215 -416.824793666457 -7.04991620636974e-16
vertex 155.010429304842 -415.53900722883 0.0
vertex 151.742480112411 -417.23900722883 -7.04991620636974e-16
endloop
endfacet
facet normal 0.0 0.0 -1.0
outer loop
vertex 151.742480112411 -417.23900722883 -7.04991620636974e-16
vertex 155.010429304842 -415.53900722883 0.0
vertex 151.94228095742 -417.721369138625 -7.04991620636974e-16
endloop
endfacet
facet normal 0.0 0.0 -1.0
outer loop
vertex 151.94228095742 -417.721369138625 -7.04991620636974e-16
vertex 155.010429304842 -415.53900722883 0.0
vertex 152.010429304842 -418.23900722883 -7.04991620636974e-16
endloop
endfacet
facet normal 0.0 0.0 -1.0
outer loop
vertex 145.010429304842 -420.93900722883 0.0
vertex 149.492791214637 -420.170858881408 -7.04991620636974e-16
vertex 155.010429304842 -420.93900722883 0.0
endloop
endfacet
facet normal 0.0 0.0 -1.0
outer loop
vertex 149.492791214637 -420.170858881408 -7.04991620636974e-16
vertex 145.010429304842 -420.93900722883 0.0
vertex 149.010429304842 -419.971058036398 -7.04991620636974e-16
endloop
endfacet
facet normal 0.0 0.0 -1.0
outer loop
vertex 149.010429304842 -419.971058036398 -7.04991620636974e-16
vertex 145.010429304842 -420.93900722883 0.0
vertex 148.596215742469 -419.653220791203 -7.04991620636974e-16
endloop
endfacet
facet normal 0.0 0.0 -1.0
outer loop
vertex 148.596215742469 -419.653220791203 -7.04991620636974e-16
vertex 145.010429304842 -420.93900722883 0.0
vertex 148.278378497273 -419.23900722883 -7.04991620636974e-16
endloop
endfacet
facet normal 0.0 0.0 -1.0
outer loop
vertex 148.278378497273 -419.23900722883 -7.04991620636974e-16
vertex 145.010429304842 -420.93900722883 0.0
vertex 148.078577652264 -418.756645319035 -7.04991620636974e-16
endloop
endfacet
facet normal 0.0 0.0 -1.0
outer loop
vertex 148.078577652264 -418.756645319035 -7.04991620636974e-16
vertex 145.010429304842 -420.93900722883 0.0
vertex 148.010429304842 -418.23900722883 -7.04991620636974e-16
endloop
endfacet
facet normal 0.0 0.0 -1.0
outer loop
vertex 155.010429304842 -420.93900722883 0.0
vertex 149.492791214637 -420.170858881408 -7.04991620636974e-16
vertex 150.010429304842 -420.23900722883 -7.04991620636974e-16
endloop
endfacet
facet normal 0.0 0.0 -1.0
outer loop
vertex 155.010429304842 -420.93900722883 0.0
vertex 150.010429304842 -420.23900722883 -7.04991620636974e-16
vertex 150.528067395047 -420.170858881408 -7.04991620636974e-16
endloop
endfacet
facet normal 0.0 0.0 -1.0
outer loop
vertex 155.010429304842 -420.93900722883 0.0
vertex 150.528067395047 -420.170858881408 -7.04991620636974e-16
vertex 151.010429304842 -419.971058036398 -7.04991620636974e-16
endloop
endfacet
facet normal 0.0 0.0 -1.0
outer loop
vertex 155.010429304842 -420.93900722883 0.0
vertex 151.010429304842 -419.971058036398 -7.04991620636974e-16
vertex 151.424642867215 -419.653220791203 -7.04991620636974e-16
endloop
endfacet
facet normal 0.0 0.0 -1.0
outer loop
vertex 155.010429304842 -420.93900722883 0.0
vertex 151.424642867215 -419.653220791203 -7.04991620636974e-16
vertex 151.742480112411 -419.23900722883 -7.04991620636974e-16
endloop
endfacet
facet normal 0.0 0.0 -1.0
outer loop
vertex 155.010429304842 -420.93900722883 0.0
vertex 151.742480112411 -419.23900722883 -7.04991620636974e-16
vertex 151.94228095742 -418.756645319035 -7.04991620636974e-16
endloop
endfacet
facet normal 0.0 0.0 -1.0
outer loop
vertex 155.010429304842 -420.93900722883 0.0
vertex 151.94228095742 -418.756645319035 -7.04991620636974e-16
vertex 152.010429304842 -418.23900722883 -7.04991620636974e-16
endloop
endfacet
facet normal 0.0 0.0 -1.0
outer loop
vertex 155.010429304842 -420.93900722883 0.0
vertex 152.010429304842 -418.23900722883 -7.04991620636974e-16
vertex 155.010429304842 -415.53900722883 0.0
endloop
endfacet
facet normal 0.965925826289061 -0.258819045102548 1.34133073852087e-30
outer loop
vertex 148.078577652264 -417.721369138625 -7.04991620636974e-16
vertex 148.010429304842 -418.23900722883 1.5
vertex 148.010429304842 -418.23900722883 -7.04991620636974e-16
endloop
endfacet
facet normal 1.0 2.14044859693438e-14 2.93802030241981e-19
outer loop
vertex 148.010429304842 -418.23900722883 1.5
vertex 148.078577652264 -417.721369138625 -7.04991620636974e-16
vertex 148.078577652264 -417.721369138625 1.5
endloop
endfacet
facet normal -0.500000000000021 -0.866025403784427 9.40400545337352e-19
outer loop
vertex 151.010429304842 -416.506956421261 1.5
vertex 150.528067395047 -416.307155576251 -7.04991620636974e-16
vertex 151.010429304842 -416.506956421261 -7.04991620636974e-16
endloop
endfacet
facet normal -0.258819045102526 -0.965925826289067 -3.44598286886733e-31
outer loop
vertex 150.528067395047 -416.307155576251 -7.04991620636974e-16
vertex 151.010429304842 -416.506956421261 1.5
vertex 150.528067395047 -416.307155576251 1.5
endloop
endfacet
facet normal -1.0 0.0 0.0
outer loop
vertex 145.010429304842 -414.86150815407 3.8
vertex 145.010429304842 -421.63900722883 1.8
vertex 145.010429304842 -421.63900722883 3.8
endloop
endfacet
facet normal -1.0 0.0 0.0
outer loop
vertex 145.010429304842 -421.63900722883 1.8
vertex 145.010429304842 -414.86150815407 3.8
vertex 145.010429304842 -420.93900722883 1.8
endloop
endfacet
facet normal -1.0 0.0 0.0
outer loop
vertex 145.010429304842 -420.93900722883 1.8
vertex 145.010429304842 -414.86150815407 3.8
vertex 145.010429304842 -420.93900722883 0.0
endloop
endfacet
facet normal -1.0 0.0 0.0
outer loop
vertex 145.010429304842 -420.93900722883 0.0
vertex 145.010429304842 -414.86150815407 3.8
vertex 145.010429304842 -415.53900722883 1.8
endloop
endfacet
facet normal -1.0 0.0 0.0
outer loop
vertex 145.010429304842 -415.53900722883 1.8
vertex 145.010429304842 -414.86150815407 3.8
vertex 145.010429304842 -414.86150815407 1.8
endloop
endfacet
facet normal -1.0 0.0 0.0
outer loop
vertex 145.010429304842 -415.53900722883 0.0
vertex 145.010429304842 -420.93900722883 0.0
vertex 145.010429304842 -415.53900722883 1.8
endloop
endfacet
facet normal 1.26767937207261e-16 5.93453358431388e-17 -1.0
outer loop
vertex 147.32286487014 -420.93900722883 1.8
vertex 145.010429304842 -421.63900722883 1.8
vertex 145.010429304842 -420.93900722883 1.8
endloop
endfacet
facet normal 1.26767937207261e-16 5.93453358431388e-17 -1.0
outer loop
vertex 145.010429304842 -421.63900722883 1.8
vertex 147.32286487014 -420.93900722883 1.8
vertex 148.060429304842 -421.616506303589 1.8
endloop
endfacet
facet normal 1.26767937207261e-16 5.93453358431388e-17 -1.0
outer loop
vertex 148.060429304842 -421.616506303589 1.8
vertex 147.32286487014 -420.93900722883 1.8
vertex 147.669275031654 -420.93900722883 1.8
endloop
endfacet
facet normal 1.26959127348252e-16 -6.0194464658612e-17 -1.0
outer loop
vertex 148.060429304842 -414.86150815407 1.8
vertex 145.010429304842 -415.53900722883 1.8
vertex 145.010429304842 -414.86150815407 1.8
endloop
endfacet
facet normal 1.26959127348252e-16 -6.0194464658612e-17 -1.0
outer loop
vertex 145.010429304842 -415.53900722883 1.8
vertex 148.060429304842 -414.86150815407 1.8
vertex 147.32286487014 -415.53900722883 1.8
endloop
endfacet
facet normal 1.26959127348252e-16 -6.0194464658612e-17 -1.0
outer loop
vertex 147.32286487014 -415.53900722883 1.8
vertex 148.060429304842 -414.86150815407 1.8
vertex 147.669275031654 -415.53900722883 1.8
endloop
endfacet
facet normal -1.26767937207262e-16 5.93453358431378e-17 -1.0
outer loop
vertex 152.35158357803 -420.93900722883 1.8
vertex 155.010429304842 -421.63900722883 1.8
vertex 151.960429304842 -421.616506303589 1.8
endloop
endfacet
facet normal -1.26767937207262e-16 5.93453358431378e-17 -1.0
outer loop
vertex 155.010429304842 -421.63900722883 1.8
vertex 152.35158357803 -420.93900722883 1.8
vertex 152.697993739544 -420.93900722883 1.8
endloop
endfacet
facet normal -1.26767937207262e-16 5.93453358431378e-17 -1.0
outer loop
vertex 155.010429304842 -421.63900722883 1.8
vertex 152.697993739544 -420.93900722883 1.8
vertex 155.010429304842 -420.93900722883 1.8
endloop
endfacet
facet normal 0.0 0.0 1.0
outer loop
vertex 153.910429304842 -418.23900722883 1.8
vertex 152.697993739544 -416.13900722883 1.8
vertex 152.697993739544 -420.33900722883 1.8
endloop
endfacet
facet normal 0.0 0.0 1.0
outer loop
vertex 147.669275031654 -420.93900722883 1.8
vertex 147.32286487014 -420.33900722883 1.8
vertex 147.32286487014 -420.93900722883 1.8
endloop
endfacet
facet normal 0.0 0.0 1.0
outer loop
vertex 147.32286487014 -420.33900722883 1.8
vertex 147.669275031654 -420.93900722883 1.8
vertex 147.669275031654 -415.53900722883 1.8
endloop
endfacet
facet normal 0.0 0.0 1.0
outer loop
vertex 147.669275031654 -415.53900722883 1.8
vertex 147.669275031654 -420.93900722883 1.8
vertex 152.35158357803 -415.53900722883 1.8
endloop
endfacet
facet normal 0.0 0.0 1.0
outer loop
vertex 152.35158357803 -415.53900722883 1.8
vertex 147.669275031654 -420.93900722883 1.8
vertex 152.35158357803 -420.93900722883 1.8
endloop
endfacet
facet normal 0.0 0.0 1.0
outer loop
vertex 152.35158357803 -415.53900722883 1.8
vertex 152.35158357803 -420.93900722883 1.8
vertex 152.697993739544 -420.33900722883 1.8
endloop
endfacet
facet normal 0.0 0.0 1.0
outer loop
vertex 152.35158357803 -415.53900722883 1.8
vertex 152.697993739544 -420.33900722883 1.8
vertex 152.697993739544 -415.53900722883 1.8
endloop
endfacet
facet normal 0.0 0.0 1.0
outer loop
vertex 152.697993739544 -415.53900722883 1.8
vertex 152.697993739544 -420.33900722883 1.8
vertex 152.697993739544 -416.13900722883 1.8
endloop
endfacet
facet normal 0.0 0.0 1.0
outer loop
vertex 147.32286487014 -420.33900722883 1.8
vertex 147.32286487014 -416.13900722883 1.8
vertex 146.110429304842 -418.23900722883 1.8
endloop
endfacet
facet normal 0.0 0.0 1.0
outer loop
vertex 147.32286487014 -416.13900722883 1.8
vertex 147.32286487014 -420.33900722883 1.8
vertex 147.669275031654 -415.53900722883 1.8
endloop
endfacet
facet normal 0.0 0.0 -1.0
outer loop
vertex 148.078577652264 -417.721369138625 1.5
vertex 148.078577652264 -418.756645319035 1.5
vertex 148.010429304842 -418.23900722883 1.5
endloop
endfacet
facet normal 0.0 0.0 -1.0
outer loop
vertex 148.078577652264 -418.756645319035 1.5
vertex 148.078577652264 -417.721369138625 1.5
vertex 148.278378497273 -417.23900722883 1.5
endloop
endfacet
facet normal 0.0 0.0 -1.0
outer loop
vertex 148.078577652264 -418.756645319035 1.5
vertex 148.278378497273 -417.23900722883 1.5
vertex 148.278378497273 -419.23900722883 1.5
endloop
endfacet
facet normal 0.0 0.0 -1.0
outer loop
vertex 148.278378497273 -419.23900722883 1.5
vertex 148.278378497273 -417.23900722883 1.5
vertex 148.596215742469 -416.824793666457 1.5
endloop
endfacet
facet normal 0.0 0.0 -1.0
outer loop
vertex 148.278378497273 -419.23900722883 1.5
vertex 148.596215742469 -416.824793666457 1.5
vertex 148.596215742469 -419.653220791203 1.5
endloop
endfacet
facet normal 0.0 0.0 -1.0
outer loop
vertex 148.596215742469 -419.653220791203 1.5
vertex 148.596215742469 -416.824793666457 1.5
vertex 149.010429304842 -416.506956421261 1.5
endloop
endfacet
facet normal 0.0 0.0 -1.0
outer loop
vertex 148.596215742469 -419.653220791203 1.5
vertex 149.010429304842 -416.506956421261 1.5
vertex 149.010429304842 -419.971058036398 1.5
endloop
endfacet
facet normal 0.0 0.0 -1.0
outer loop
vertex 149.010429304842 -419.971058036398 1.5
vertex 149.010429304842 -416.506956421261 1.5
vertex 149.492791214637 -416.307155576251 1.5
endloop
endfacet
facet normal 0.0 0.0 -1.0
outer loop
vertex 149.010429304842 -419.971058036398 1.5
vertex 149.492791214637 -416.307155576251 1.5
vertex 149.492791214637 -420.170858881408 1.5
endloop
endfacet
facet normal 0.0 0.0 -1.0
outer loop
vertex 149.492791214637 -420.170858881408 1.5
vertex 149.492791214637 -416.307155576251 1.5
vertex 150.010429304842 -416.23900722883 1.5
endloop
endfacet
facet normal 0.0 0.0 -1.0
outer loop
vertex 149.492791214637 -420.170858881408 1.5
vertex 150.010429304842 -416.23900722883 1.5
vertex 150.010429304842 -420.23900722883 1.5
endloop
endfacet
facet normal 0.0 0.0 -1.0
outer loop
vertex 150.010429304842 -420.23900722883 1.5
vertex 150.010429304842 -416.23900722883 1.5
vertex 150.528067395047 -416.307155576251 1.5
endloop
endfacet
facet normal 0.0 0.0 -1.0
outer loop
vertex 150.010429304842 -420.23900722883 1.5
vertex 150.528067395047 -416.307155576251 1.5
vertex 150.528067395047 -420.170858881408 1.5
endloop
endfacet
facet normal 0.0 0.0 -1.0
outer loop
vertex 150.528067395047 -420.170858881408 1.5
vertex 150.528067395047 -416.307155576251 1.5
vertex 151.010429304842 -416.506956421261 1.5
endloop
endfacet
facet normal 0.0 0.0 -1.0
outer loop
vertex 150.528067395047 -420.170858881408 1.5
vertex 151.010429304842 -416.506956421261 1.5
vertex 151.010429304842 -419.971058036398 1.5
endloop
endfacet
facet normal 0.0 0.0 -1.0
outer loop
vertex 151.010429304842 -419.971058036398 1.5
vertex 151.010429304842 -416.506956421261 1.5
vertex 151.424642867215 -416.824793666457 1.5
endloop
endfacet
facet normal 0.0 0.0 -1.0
outer loop
vertex 151.010429304842 -419.971058036398 1.5
vertex 151.424642867215 -416.824793666457 1.5
vertex 151.424642867215 -419.653220791203 1.5
endloop
endfacet
facet normal 0.0 0.0 -1.0
outer loop
vertex 151.424642867215 -419.653220791203 1.5
vertex 151.424642867215 -416.824793666457 1.5
vertex 151.742480112411 -417.23900722883 1.5
endloop
endfacet
facet normal 0.0 0.0 -1.0
outer loop
vertex 151.424642867215 -419.653220791203 1.5
vertex 151.742480112411 -417.23900722883 1.5
vertex 151.742480112411 -419.23900722883 1.5
endloop
endfacet
facet normal 0.0 0.0 -1.0
outer loop
vertex 151.742480112411 -419.23900722883 1.5
vertex 151.742480112411 -417.23900722883 1.5
vertex 151.94228095742 -417.721369138625 1.5
endloop
endfacet
facet normal 0.0 0.0 -1.0
outer loop
vertex 151.742480112411 -419.23900722883 1.5
vertex 151.94228095742 -417.721369138625 1.5
vertex 151.94228095742 -418.756645319035 1.5
endloop
endfacet
facet normal 0.0 0.0 -1.0
outer loop
vertex 151.94228095742 -418.756645319035 1.5
vertex 151.94228095742 -417.721369138625 1.5
vertex 152.010429304842 -418.23900722883 1.5
endloop
endfacet
facet normal 0.866025403784436 0.500000000000005 -7.19553453567992e-16
outer loop
vertex 147.669275031654 -420.93900722883 1.8
vertex 148.060429304842 -421.616506303589 3.8
vertex 148.060429304842 -421.616506303589 1.8
endloop
endfacet
facet normal 0.866025403784436 0.500000000000005 -7.19553453567992e-16
outer loop
vertex 148.060429304842 -421.616506303589 3.8
vertex 147.669275031654 -420.93900722883 1.8
vertex 146.110429304842 -418.23900722883 3.8
endloop
endfacet
facet normal 0.866025403784436 0.500000000000005 -7.19553453567992e-16
outer loop
vertex 146.110429304842 -418.23900722883 3.8
vertex 147.669275031654 -420.93900722883 1.8
vertex 147.32286487014 -420.33900722883 1.8
endloop
endfacet
facet normal 0.866025403784436 0.500000000000005 -7.19553453567992e-16
outer loop
vertex 146.110429304842 -418.23900722883 3.8
vertex 147.32286487014 -420.33900722883 1.8
vertex 146.110429304842 -418.23900722883 1.8
endloop
endfacet
facet normal -0.866025403784438 0.500000000000001 2.84034257987366e-16
outer loop
vertex 153.910429304842 -418.23900722883 3.8
vertex 151.960429304842 -421.616506303589 1.8
vertex 151.960429304842 -421.616506303589 3.8
endloop
endfacet
facet normal -0.866025403784438 0.500000000000001 2.84034257987366e-16
outer loop
vertex 151.960429304842 -421.616506303589 1.8
vertex 153.910429304842 -418.23900722883 3.8
vertex 152.35158357803 -420.93900722883 1.8
endloop
endfacet
facet normal -0.866025403784438 0.500000000000001 2.84034257987366e-16
outer loop
vertex 152.35158357803 -420.93900722883 1.8
vertex 153.910429304842 -418.23900722883 3.8
vertex 152.697993739544 -420.33900722883 1.8
endloop
endfacet
facet normal -0.866025403784438 0.500000000000001 2.84034257987366e-16
outer loop
vertex 152.697993739544 -420.33900722883 1.8
vertex 153.910429304842 -418.23900722883 3.8
vertex 153.910429304842 -418.23900722883 1.8
endloop
endfacet
facet normal 0.866025403784438 -0.5 -2.25333844669982e-15
outer loop
vertex 147.32286487014 -416.13900722883 1.8
vertex 146.110429304842 -418.23900722883 3.8
vertex 146.110429304842 -418.23900722883 1.8
endloop
endfacet
facet normal 0.866025403784438 -0.5 -2.25333844669982e-15
outer loop
vertex 146.110429304842 -418.23900722883 3.8
vertex 147.32286487014 -416.13900722883 1.8
vertex 148.060429304842 -414.86150815407 3.8
endloop
endfacet
facet normal 0.866025403784438 -0.5 -2.25333844669982e-15
outer loop
vertex 148.060429304842 -414.86150815407 3.8
vertex 147.32286487014 -416.13900722883 1.8
vertex 147.669275031654 -415.53900722883 1.8
endloop
endfacet
facet normal 0.866025403784438 -0.5 -2.25333844669982e-15
outer loop
vertex 148.060429304842 -414.86150815407 3.8
vertex 147.669275031654 -415.53900722883 1.8
vertex 148.060429304842 -414.86150815407 1.8
endloop
endfacet
endsolid kitchissippi-02
