solid 608zz to 8-32 Bearing Adaptor
facet normal -0.100624916136511 0.764322120586525 0.636935100488769
outer loop
vertex -1.55291427061512 27.8633958543931 0.0
vertex 2.9026570871968e-15 29.0678408966587 -1.2
vertex -1.81173331571764 28.8293216806822 -1.2
endloop
endfacet
facet normal -0.100624916136511 0.764322120586525 0.636935100488769
outer loop
vertex 2.9026570871968e-15 29.0678408966587 -1.2
vertex -1.55291427061512 27.8633958543931 0.0
vertex 2.92719343511148e-15 28.0678408966587 0.0
endloop
endfacet
facet normal 0.295017326665365 -0.712234831170579 0.636935100488769
outer loop
vertex 3.0 16.8716884739521 0.0
vertex 1.81173331571765 15.3063601126353 -1.2
vertex 3.5 16.0056630701677 -1.2
endloop
endfacet
facet normal 0.295017326665365 -0.712234831170579 0.636935100488769
outer loop
vertex 1.81173331571765 15.3063601126353 -1.2
vertex 3.0 16.8716884739521 0.0
vertex 1.55291427061513 16.2722859389243 0.0
endloop
endfacet
facet normal -0.764322120586525 -0.10062491613651 0.636935100488769
outer loop
vertex -5.79555495773441 20.5149266260436 0.0
vertex -7.0 22.0678408966587 -1.2
vertex -6.76148078402348 20.2561075809411 -1.2
endloop
endfacet
facet normal -0.764322120586525 -0.10062491613651 0.636935100488769
outer loop
vertex -7.0 22.0678408966587 -1.2
vertex -5.79555495773441 20.5149266260436 0.0
vertex -6.0 22.0678408966587 0.0
endloop
endfacet
facet normal -0.499999999999998 -0.86602540378444 0.0
outer loop
vertex 1.2 24.1463018657414 7.0
vertex 0.621165708246051 24.3860628797525 -1.20000000000001
vertex 1.2 24.1463018657414 -1.20000000000001
endloop
endfacet
facet normal -0.258819045102521 -0.965925826289068 -9.6886387480277e-20
outer loop
vertex 0.621165708246051 24.3860628797525 -1.20000000000001
vertex 1.2 24.1463018657414 7.0
vertex 0.621165708246051 24.3860628797525 7.0
endloop
endfacet
facet normal -0.707106781186548 0.707106781186547 0.0
outer loop
vertex -2.75771644662753 24.8255573432863 7.0
vertex -1.95 25.445339971418 4.22994972382185e-15
vertex -2.75771644662753 24.8255573432863 4.22994972382185e-15
endloop
endfacet
facet normal -0.500000000000001 0.866025403784438 0.0
outer loop
vertex -1.95 25.445339971418 4.22994972382185e-15
vertex -2.75771644662753 24.8255573432863 7.0
vertex -1.95 25.445339971418 7.0
endloop
endfacet
facet normal -1.0 2.67333296869407e-17 0.0
outer loop
vertex 2.4 22.0678408966587 7.0
vertex 2.31822198309377 21.4466751884127 -1.20000000000001
vertex 2.31822198309377 21.4466751884127 7.0
endloop
endfacet
facet normal -0.965925826289068 0.258819045102521 0.0
outer loop
vertex 2.31822198309377 21.4466751884127 -1.20000000000001
vertex 2.4 22.0678408966587 7.0
vertex 2.4 22.0678408966587 -1.20000000000001
endloop
endfacet
facet normal 0.258819045102521 -0.965925826289068 0.0
outer loop
vertex 1.00939427589983 18.3007301741314 7.0
vertex 2.71895722201607e-15 18.1678408966587 4.22994972382185e-15
vertex 1.00939427589983 18.3007301741314 4.22994972382185e-15
endloop
endfacet
facet normal 1.2921109348688e-15 -1.0 0.0
outer loop
vertex 2.71895722201607e-15 18.1678408966587 4.22994972382185e-15
vertex 1.00939427589983 18.3007301741314 7.0
vertex 2.71895722201607e-15 18.1678408966587 7.0
endloop
endfacet
facet normal 0.866025403784439 -0.499999999999999 0.0
outer loop
vertex -2.07846096908265 23.2678408966587 -1.2
vertex -2.31822198309376 22.6890066049048 7.0
vertex -2.31822198309376 22.6890066049048 -1.2
endloop
endfacet
facet normal 0.965925826289068 -0.25881904510252 0.0
outer loop
vertex -2.31822198309376 22.6890066049048 7.0
vertex -2.07846096908265 23.2678408966587 -1.2
vertex -2.07846096908265 23.2678408966587 7.0
endloop
endfacet
facet normal -0.258819045102522 0.965925826289068 1.7702437689107e-19
outer loop
vertex 0.621165708246053 19.749618913565 7.0
vertex 1.2 19.9893799275761 -1.20000000000001
vertex 0.621165708246053 19.749618913565 -1.20000000000001
endloop
endfacet
facet normal -0.499999999999999 0.866025403784439 0.0
outer loop
vertex 1.2 19.9893799275761 -1.20000000000001
vertex 0.621165708246053 19.749618913565 7.0
vertex 1.2 19.9893799275761 7.0
endloop
endfacet
facet normal -0.866025403784438 -0.5 0.0
outer loop
vertex 2.07846096908266 23.2678408966587 7.0
vertex 2.31822198309377 22.6890066049048 -1.20000000000001
vertex 2.31822198309377 22.6890066049048 7.0
endloop
endfacet
facet normal -0.965925826289068 -0.258819045102521 0.0
outer loop
vertex 2.31822198309377 22.6890066049048 -1.20000000000001
vertex 2.07846096908266 23.2678408966587 7.0
vertex 2.07846096908266 23.2678408966587 -1.20000000000001
endloop
endfacet
facet normal 0.25881904510252 -0.965925826289069 0.0
outer loop
vertex -0.621165708246049 24.3860628797525 7.0
vertex -1.2 24.1463018657414 -1.2
vertex -0.621165708246049 24.3860628797525 -1.2
endloop
endfacet
facet normal 0.499999999999999 -0.866025403784439 0.0
outer loop
vertex -1.2 24.1463018657414 -1.2
vertex -0.621165708246049 24.3860628797525 7.0
vertex -1.2 24.1463018657414 7.0
endloop
endfacet
facet normal 0.707106781186547 -0.707106781186548 0.0
outer loop
vertex 2.75771644662754 19.3101244500312 7.0
vertex 1.95 18.6903418218994 4.22994972382185e-15
vertex 2.75771644662754 19.3101244500312 4.22994972382185e-15
endloop
endfacet
facet normal 0.5 -0.866025403784439 0.0
outer loop
vertex 1.95 18.6903418218994 4.22994972382185e-15
vertex 2.75771644662754 19.3101244500312 7.0
vertex 1.95 18.6903418218994 7.0
endloop
endfacet
facet normal 0.100624916136511 -0.764322120586525 0.636935100488769
outer loop
vertex 1.55291427061513 16.2722859389243 0.0
vertex 3.3925101162385e-15 15.0678408966587 -1.2
vertex 1.81173331571765 15.3063601126353 -1.2
endloop
endfacet
facet normal 0.100624916136511 -0.764322120586525 0.636935100488769
outer loop
vertex 3.3925101162385e-15 15.0678408966587 -1.2
vertex 1.55291427061513 16.2722859389243 0.0
vertex 3.24550908840908e-15 16.0678408966587 0.0
endloop
endfacet
facet normal -0.469304793921159 -0.611609915034068 0.636935100488769
outer loop
vertex -3.5 16.0056630701677 -1.2
vertex -4.24264068711928 17.8252002095394 0.0
vertex -4.94974746830583 17.1180934283529 -1.2
endloop
endfacet
facet normal -0.469304793921159 -0.611609915034068 0.636935100488769
outer loop
vertex -4.24264068711928 17.8252002095394 0.0
vertex -3.5 16.0056630701677 -1.2
vertex -3.0 16.8716884739521 0.0
endloop
endfacet
facet normal 0.258819045102523 0.965925826289068 0.0
outer loop
vertex 1.00939427589983 25.8349516191861 7.0
vertex 1.95 25.445339971418 4.22994972382185e-15
vertex 1.00939427589983 25.8349516191861 4.22994972382185e-15
endloop
endfacet
facet normal 0.499999999999998 0.86602540378444 0.0
outer loop
vertex 1.95 25.445339971418 4.22994972382185e-15
vertex 1.00939427589983 25.8349516191861 7.0
vertex 1.95 25.445339971418 7.0
endloop
endfacet
facet normal 0.499999999999998 0.86602540378444 0.0
outer loop
vertex 1.95 25.445339971418 7.0
vertex 2.75771644662754 24.8255573432863 4.22994972382185e-15
vertex 1.95 25.445339971418 4.22994972382185e-15
endloop
endfacet
facet normal 0.707106781186547 0.707106781186548 0.0
outer loop
vertex 2.75771644662754 24.8255573432863 4.22994972382185e-15
vertex 1.95 25.445339971418 7.0
vertex 2.75771644662754 24.8255573432863 7.0
endloop
endfacet
facet normal 0.707106781186547 0.707106781186548 0.0
outer loop
vertex 2.75771644662754 24.8255573432863 4.22994972382185e-15
vertex 3.37749907475931 24.0178408966587 7.0
vertex 3.37749907475931 24.0178408966587 4.22994972382185e-15
endloop
endfacet
facet normal 0.866025403784439 0.499999999999999 0.0
outer loop
vertex 3.37749907475931 24.0178408966587 7.0
vertex 2.75771644662754 24.8255573432863 4.22994972382185e-15
vertex 2.75771644662754 24.8255573432863 7.0
endloop
endfacet
facet normal 0.866025403784439 0.499999999999999 0.0
outer loop
vertex -2.07846096908265 20.8678408966587 -1.2
vertex -1.69705627484771 20.370784621811 7.0
vertex -1.69705627484771 20.370784621811 -1.2
endloop
endfacet
facet normal 0.707106781186548 0.707106781186547 0.0
outer loop
vertex -1.69705627484771 20.370784621811 7.0
vertex -2.07846096908265 20.8678408966587 -1.2
vertex -2.07846096908265 20.8678408966587 7.0
endloop
endfacet
facet normal -0.965925826289068 0.258819045102521 0.0
outer loop
vertex 2.31822198309377 21.4466751884127 7.0
vertex 2.07846096908266 20.8678408966587 -1.20000000000001
vertex 2.07846096908266 20.8678408966587 7.0
endloop
endfacet
facet normal -0.866025403784439 0.5 0.0
outer loop
vertex 2.07846096908266 20.8678408966587 -1.20000000000001
vertex 2.31822198309377 21.4466751884127 7.0
vertex 2.31822198309377 21.4466751884127 -1.20000000000001
endloop
endfacet
facet normal -2.55748854005065e-15 1.0 1.7702437689107e-19
outer loop
vertex 2.71895722201607e-15 19.6678408966587 -1.2
vertex 0.621165708246053 19.749618913565 7.0
vertex 0.621165708246053 19.749618913565 -1.20000000000001
endloop
endfacet
facet normal -0.258819045102522 0.965925826289068 1.7702437689107e-19
outer loop
vertex 0.621165708246053 19.749618913565 7.0
vertex 2.71895722201607e-15 19.6678408966587 -1.2
vertex 2.71895722201607e-15 19.6678408966587 7.0
endloop
endfacet
facet normal -1.0 -6.86155461964812e-16 0.0
outer loop
vertex -3.9 22.0678408966587 7.0
vertex -3.76711072252736 21.0584466207589 4.22994972382185e-15
vertex -3.76711072252736 21.0584466207589 7.0
endloop
endfacet
facet normal -0.965925826289068 -0.258819045102521 0.0
outer loop
vertex -3.76711072252736 21.0584466207589 4.22994972382185e-15
vertex -3.9 22.0678408966587 7.0
vertex -3.9 22.0678408966587 4.22994972382185e-15
endloop
endfacet
facet normal -0.866025403784439 0.5 0.0
outer loop
vertex 2.07846096908266 20.8678408966587 7.0
vertex 1.69705627484772 20.370784621811 -1.20000000000001
vertex 1.69705627484772 20.370784621811 7.0
endloop
endfacet
facet normal -0.707106781186547 0.707106781186548 0.0
outer loop
vertex 1.69705627484772 20.370784621811 -1.20000000000001
vertex 2.07846096908266 20.8678408966587 7.0
vertex 2.07846096908266 20.8678408966587 -1.20000000000001
endloop
endfacet
facet normal 0.469304793921159 0.611609915034068 0.63693510048877
outer loop
vertex 4.24264068711929 26.310481583778 0.0
vertex 3.5 28.1300187231498 -1.2
vertex 3.0 27.2639933193654 0.0
endloop
endfacet
facet normal 0.469304793921159 0.611609915034068 0.63693510048877
outer loop
vertex 3.5 28.1300187231498 -1.2
vertex 4.24264068711929 26.310481583778 0.0
vertex 4.94974746830583 27.0175883649646 -1.2
endloop
endfacet
facet normal 0.611609915034067 0.469304793921159 0.63693510048877
outer loop
vertex 5.19615242270664 25.0678408966587 0.0
vertex 4.94974746830583 27.0175883649646 -1.2
vertex 4.24264068711929 26.310481583778 0.0
endloop
endfacet
facet normal 0.611609915034067 0.469304793921159 0.63693510048877
outer loop
vertex 4.94974746830583 27.0175883649646 -1.2
vertex 5.19615242270664 25.0678408966587 0.0
vertex 6.06217782649107 25.5678408966587 -1.2
endloop
endfacet
facet normal -0.46930479392116 0.611609915034068 0.636935100488769
outer loop
vertex -4.24264068711928 26.310481583778 0.0
vertex -3.5 28.1300187231498 -1.2
vertex -4.94974746830583 27.0175883649646 -1.2
endloop
endfacet
facet normal -0.46930479392116 0.611609915034068 0.636935100488769
outer loop
vertex -3.5 28.1300187231498 -1.2
vertex -4.24264068711928 26.310481583778 0.0
vertex -3.0 27.2639933193654 0.0
endloop
endfacet
facet normal 0.469304793921159 -0.611609915034068 0.636935100488769
outer loop
vertex 3.5 16.0056630701677 -1.2
vertex 4.24264068711929 17.8252002095394 0.0
vertex 3.0 16.8716884739521 0.0
endloop
endfacet
facet normal 0.469304793921159 -0.611609915034068 0.636935100488769
outer loop
vertex 4.24264068711929 17.8252002095394 0.0
vertex 3.5 16.0056630701677 -1.2
vertex 4.94974746830583 17.1180934283529 -1.2
endloop
endfacet
facet normal 0.965925826289068 -0.25881904510252 0.0
outer loop
vertex 3.76711072252737 21.0584466207589 4.22994972382185e-15
vertex 3.37749907475931 20.1178408966587 7.0
vertex 3.37749907475931 20.1178408966587 4.22994972382185e-15
endloop
endfacet
facet normal 0.866025403784439 -0.5 0.0
outer loop
vertex 3.37749907475931 20.1178408966587 7.0
vertex 3.76711072252737 21.0584466207589 4.22994972382185e-15
vertex 3.76711072252737 21.0584466207589 7.0
endloop
endfacet
facet normal -0.707106781186547 -0.707106781186549 0.0
outer loop
vertex 1.69705627484772 23.7648971715065 7.0
vertex 2.07846096908266 23.2678408966587 -1.20000000000001
vertex 2.07846096908266 23.2678408966587 7.0
endloop
endfacet
facet normal -0.866025403784438 -0.5 0.0
outer loop
vertex 2.07846096908266 23.2678408966587 -1.20000000000001
vertex 1.69705627484772 23.7648971715065 7.0
vertex 1.69705627484772 23.7648971715065 -1.20000000000001
endloop
endfacet
facet normal -0.707106781186548 0.707106781186547 0.0
outer loop
vertex -2.75771644662753 24.8255573432863 7.0
vertex -3.37749907475931 24.0178408966587 4.22994972382185e-15
vertex -3.37749907475931 24.0178408966587 7.0
endloop
endfacet
facet normal -0.866025403784438 0.5 0.0
outer loop
vertex -3.37749907475931 24.0178408966587 4.22994972382185e-15
vertex -2.75771644662753 24.8255573432863 7.0
vertex -2.75771644662753 24.8255573432863 4.22994972382185e-15
endloop
endfacet
facet normal -0.965925826289068 -0.258819045102521 0.0
outer loop
vertex 2.31822198309377 22.6890066049048 7.0
vertex 2.4 22.0678408966587 -1.20000000000001
vertex 2.4 22.0678408966587 7.0
endloop
endfacet
facet normal -1.0 2.67333296869407e-17 0.0
outer loop
vertex 2.4 22.0678408966587 -1.20000000000001
vertex 2.31822198309377 22.6890066049048 7.0
vertex 2.31822198309377 22.6890066049048 -1.20000000000001
endloop
endfacet
facet normal -0.0 -0.0 1.0
outer loop
vertex -2.75771644662753 19.3101244500312 7.0
vertex -2.31822198309376 21.4466751884127 7.0
vertex -2.4 22.0678408966587 7.0
endloop
endfacet
facet normal -0.0 -0.0 1.0
outer loop
vertex -2.31822198309376 21.4466751884127 7.0
vertex -2.75771644662753 19.3101244500312 7.0
vertex -1.95 18.6903418218994 7.0
endloop
endfacet
facet normal -0.0 -0.0 1.0
outer loop
vertex -2.31822198309376 21.4466751884127 7.0
vertex -1.95 18.6903418218994 7.0
vertex -2.07846096908265 20.8678408966587 7.0
endloop
endfacet
facet normal -0.0 -0.0 1.0
outer loop
vertex -2.07846096908265 20.8678408966587 7.0
vertex -1.95 18.6903418218994 7.0
vertex -1.69705627484771 20.370784621811 7.0
endloop
endfacet
facet normal -0.0 -0.0 1.0
outer loop
vertex -1.69705627484771 20.370784621811 7.0
vertex -1.95 18.6903418218994 7.0
vertex -1.00939427589983 18.3007301741314 7.0
endloop
endfacet
facet normal -0.0 -0.0 1.0
outer loop
vertex -1.69705627484771 20.370784621811 7.0
vertex -1.00939427589983 18.3007301741314 7.0
vertex -1.2 19.9893799275761 7.0
endloop
endfacet
facet normal -0.0 -0.0 1.0
outer loop
vertex -1.2 19.9893799275761 7.0
vertex -1.00939427589983 18.3007301741314 7.0
vertex -0.621165708246047 19.749618913565 7.0
endloop
endfacet
facet normal -0.0 -0.0 1.0
outer loop
vertex -0.621165708246047 19.749618913565 7.0
vertex -1.00939427589983 18.3007301741314 7.0
vertex 2.71895722201607e-15 18.1678408966587 7.0
endloop
endfacet
facet normal -0.0 -0.0 1.0
outer loop
vertex -0.621165708246047 19.749618913565 7.0
vertex 2.71895722201607e-15 18.1678408966587 7.0
vertex 2.71895722201607e-15 19.6678408966587 7.0
endloop
endfacet
facet normal -0.0 -0.0 1.0
outer loop
vertex 2.71895722201607e-15 19.6678408966587 7.0
vertex 2.71895722201607e-15 18.1678408966587 7.0
vertex 1.00939427589983 18.3007301741314 7.0
endloop
endfacet
facet normal -0.0 -0.0 1.0
outer loop
vertex 2.71895722201607e-15 19.6678408966587 7.0
vertex 1.00939427589983 18.3007301741314 7.0
vertex 0.621165708246053 19.749618913565 7.0
endloop
endfacet
facet normal -0.0 -0.0 1.0
outer loop
vertex 0.621165708246053 19.749618913565 7.0
vertex 1.00939427589983 18.3007301741314 7.0
vertex 1.2 19.9893799275761 7.0
endloop
endfacet
facet normal -0.0 -0.0 1.0
outer loop
vertex 1.2 19.9893799275761 7.0
vertex 1.00939427589983 18.3007301741314 7.0
vertex 1.95 18.6903418218994 7.0
endloop
endfacet
facet normal -0.0 -0.0 1.0
outer loop
vertex 1.2 19.9893799275761 7.0
vertex 1.95 18.6903418218994 7.0
vertex 1.69705627484772 20.370784621811 7.0
endloop
endfacet
facet normal -0.0 -0.0 1.0
outer loop
vertex 1.69705627484772 20.370784621811 7.0
vertex 1.95 18.6903418218994 7.0
vertex 2.07846096908266 20.8678408966587 7.0
endloop
endfacet
facet normal -0.0 -0.0 1.0
outer loop
vertex 2.07846096908266 20.8678408966587 7.0
vertex 1.95 18.6903418218994 7.0
vertex 2.75771644662754 19.3101244500312 7.0
endloop
endfacet
facet normal -0.0 -0.0 1.0
outer loop
vertex 2.07846096908266 20.8678408966587 7.0
vertex 2.75771644662754 19.3101244500312 7.0
vertex 2.31822198309377 21.4466751884127 7.0
endloop
endfacet
facet normal -0.0 -0.0 1.0
outer loop
vertex 2.31822198309377 21.4466751884127 7.0
vertex 2.75771644662754 19.3101244500312 7.0
vertex 2.4 22.0678408966587 7.0
endloop
endfacet
facet normal -0.0 -0.0 1.0
outer loop
vertex -3.76711072252736 21.0584466207589 7.0
vertex -3.76711072252736 23.0772351725586 7.0
vertex -3.9 22.0678408966587 7.0
endloop
endfacet
facet normal -0.0 -0.0 1.0
outer loop
vertex -3.76711072252736 23.0772351725586 7.0
vertex -3.76711072252736 21.0584466207589 7.0
vertex -3.37749907475931 24.0178408966587 7.0
endloop
endfacet
facet normal -0.0 -0.0 1.0
outer loop
vertex -3.37749907475931 24.0178408966587 7.0
vertex -3.76711072252736 21.0584466207589 7.0
vertex -3.37749907475931 20.1178408966587 7.0
endloop
endfacet
facet normal -0.0 -0.0 1.0
outer loop
vertex -3.37749907475931 24.0178408966587 7.0
vertex -3.37749907475931 20.1178408966587 7.0
vertex -2.75771644662753 24.8255573432863 7.0
endloop
endfacet
facet normal -0.0 -0.0 1.0
outer loop
vertex -2.75771644662753 24.8255573432863 7.0
vertex -3.37749907475931 20.1178408966587 7.0
vertex -2.75771644662753 19.3101244500312 7.0
endloop
endfacet
facet normal -0.0 -0.0 1.0
outer loop
vertex -2.75771644662753 24.8255573432863 7.0
vertex -2.75771644662753 19.3101244500312 7.0
vertex -2.4 22.0678408966587 7.0
endloop
endfacet
facet normal -0.0 -0.0 1.0
outer loop
vertex -2.75771644662753 24.8255573432863 7.0
vertex -2.4 22.0678408966587 7.0
vertex -2.31822198309376 22.6890066049048 7.0
endloop
endfacet
facet normal -0.0 -0.0 1.0
outer loop
vertex -2.75771644662753 24.8255573432863 7.0
vertex -2.31822198309376 22.6890066049048 7.0
vertex -1.95 25.445339971418 7.0
endloop
endfacet
facet normal -0.0 -0.0 1.0
outer loop
vertex -1.95 25.445339971418 7.0
vertex -2.31822198309376 22.6890066049048 7.0
vertex -2.07846096908265 23.2678408966587 7.0
endloop
endfacet
facet normal -0.0 -0.0 1.0
outer loop
vertex -1.95 25.445339971418 7.0
vertex -2.07846096908265 23.2678408966587 7.0
vertex -1.69705627484771 23.7648971715065 7.0
endloop
endfacet
facet normal -0.0 -0.0 1.0
outer loop
vertex -1.95 25.445339971418 7.0
vertex -1.69705627484771 23.7648971715065 7.0
vertex -1.00939427589983 25.8349516191861 7.0
endloop
endfacet
facet normal -0.0 -0.0 1.0
outer loop
vertex -1.00939427589983 25.8349516191861 7.0
vertex -1.69705627484771 23.7648971715065 7.0
vertex -1.2 24.1463018657414 7.0
endloop
endfacet
facet normal -0.0 -0.0 1.0
outer loop
vertex -1.00939427589983 25.8349516191861 7.0
vertex -1.2 24.1463018657414 7.0
vertex -0.621165708246049 24.3860628797525 7.0
endloop
endfacet
facet normal -0.0 -0.0 1.0
outer loop
vertex -1.00939427589983 25.8349516191861 7.0
vertex -0.621165708246049 24.3860628797525 7.0
vertex 2.0139656013791e-15 25.9678408966587 7.0
endloop
endfacet
facet normal -0.0 -0.0 1.0
outer loop
vertex 2.0139656013791e-15 25.9678408966587 7.0
vertex -0.621165708246049 24.3860628797525 7.0
vertex 2.0139656013791e-15 24.4678408966587 7.0
endloop
endfacet
facet normal -0.0 -0.0 1.0
outer loop
vertex 2.0139656013791e-15 25.9678408966587 7.0
vertex 2.0139656013791e-15 24.4678408966587 7.0
vertex 0.621165708246051 24.3860628797525 7.0
endloop
endfacet
facet normal -0.0 -0.0 1.0
outer loop
vertex 2.0139656013791e-15 25.9678408966587 7.0
vertex 0.621165708246051 24.3860628797525 7.0
vertex 1.00939427589983 25.8349516191861 7.0
endloop
endfacet
facet normal -0.0 -0.0 1.0
outer loop
vertex 1.00939427589983 25.8349516191861 7.0
vertex 0.621165708246051 24.3860628797525 7.0
vertex 1.2 24.1463018657414 7.0
endloop
endfacet
facet normal -0.0 -0.0 1.0
outer loop
vertex 1.00939427589983 25.8349516191861 7.0
vertex 1.2 24.1463018657414 7.0
vertex 1.95 25.445339971418 7.0
endloop
endfacet
facet normal -0.0 -0.0 1.0
outer loop
vertex 1.95 25.445339971418 7.0
vertex 1.2 24.1463018657414 7.0
vertex 1.69705627484772 23.7648971715065 7.0
endloop
endfacet
facet normal -0.0 -0.0 1.0
outer loop
vertex 1.95 25.445339971418 7.0
vertex 1.69705627484772 23.7648971715065 7.0
vertex 2.07846096908266 23.2678408966587 7.0
endloop
endfacet
facet normal -0.0 -0.0 1.0
outer loop
vertex 1.95 25.445339971418 7.0
vertex 2.07846096908266 23.2678408966587 7.0
vertex 2.75771644662754 24.8255573432863 7.0
endloop
endfacet
facet normal -0.0 -0.0 1.0
outer loop
vertex 2.75771644662754 24.8255573432863 7.0
vertex 2.07846096908266 23.2678408966587 7.0
vertex 2.31822198309377 22.6890066049048 7.0
endloop
endfacet
facet normal -0.0 -0.0 1.0
outer loop
vertex 2.75771644662754 24.8255573432863 7.0
vertex 2.31822198309377 22.6890066049048 7.0
vertex 2.4 22.0678408966587 7.0
endloop
endfacet
facet normal -0.0 -0.0 1.0
outer loop
vertex 2.75771644662754 24.8255573432863 7.0
vertex 2.4 22.0678408966587 7.0
vertex 2.75771644662754 19.3101244500312 7.0
endloop
endfacet
facet normal -0.0 -0.0 1.0
outer loop
vertex 2.75771644662754 24.8255573432863 7.0
vertex 2.75771644662754 19.3101244500312 7.0
vertex 3.37749907475931 20.1178408966587 7.0
endloop
endfacet
facet normal -0.0 -0.0 1.0
outer loop
vertex 2.75771644662754 24.8255573432863 7.0
vertex 3.37749907475931 20.1178408966587 7.0
vertex 3.37749907475931 24.0178408966587 7.0
endloop
endfacet
facet normal -0.0 -0.0 1.0
outer loop
vertex 3.37749907475931 24.0178408966587 7.0
vertex 3.37749907475931 20.1178408966587 7.0
vertex 3.76711072252737 23.0772351725586 7.0
endloop
endfacet
facet normal -0.0 -0.0 1.0
outer loop
vertex 3.76711072252737 23.0772351725586 7.0
vertex 3.37749907475931 20.1178408966587 7.0
vertex 3.76711072252737 21.0584466207589 7.0
endloop
endfacet
facet normal -0.0 -0.0 1.0
outer loop
vertex 3.76711072252737 23.0772351725586 7.0
vertex 3.76711072252737 21.0584466207589 7.0
vertex 3.9 22.0678408966587 7.0
endloop
endfacet
facet normal 0.707106781186549 -0.707106781186546 0.0
outer loop
vertex -1.69705627484771 23.7648971715065 -1.2
vertex -2.07846096908265 23.2678408966587 7.0
vertex -2.07846096908265 23.2678408966587 -1.2
endloop
endfacet
facet normal 0.866025403784439 -0.499999999999999 0.0
outer loop
vertex -2.07846096908265 23.2678408966587 7.0
vertex -1.69705627484771 23.7648971715065 -1.2
vertex -1.69705627484771 23.7648971715065 7.0
endloop
endfacet
facet normal -1.42577758330351e-16 -1.0 -9.68863874802773e-20
outer loop
vertex 2.0139656013791e-15 24.4678408966587 7.0
vertex -0.621165708246049 24.3860628797525 -1.2
vertex 2.0139656013791e-15 24.4678408966587 -1.2
endloop
endfacet
facet normal 0.25881904510252 -0.965925826289069 0.0
outer loop
vertex -0.621165708246049 24.3860628797525 -1.2
vertex 2.0139656013791e-15 24.4678408966587 7.0
vertex -0.621165708246049 24.3860628797525 7.0
endloop
endfacet
facet normal -0.707106781186547 -0.707106781186549 0.0
outer loop
vertex 1.69705627484772 23.7648971715065 7.0
vertex 1.2 24.1463018657414 -1.20000000000001
vertex 1.69705627484772 23.7648971715065 -1.20000000000001
endloop
endfacet
facet normal -0.499999999999998 -0.86602540378444 0.0
outer loop
vertex 1.2 24.1463018657414 -1.20000000000001
vertex 1.69705627484772 23.7648971715065 7.0
vertex 1.2 24.1463018657414 7.0
endloop
endfacet
facet normal 0.866025403784439 -0.5 0.0
outer loop
vertex 3.37749907475931 20.1178408966587 4.22994972382185e-15
vertex 2.75771644662754 19.3101244500312 7.0
vertex 2.75771644662754 19.3101244500312 4.22994972382185e-15
endloop
endfacet
facet normal 0.707106781186547 -0.707106781186548 0.0
outer loop
vertex 2.75771644662754 19.3101244500312 7.0
vertex 3.37749907475931 20.1178408966587 4.22994972382185e-15
vertex 3.37749907475931 20.1178408966587 7.0
endloop
endfacet
facet normal -0.5 -0.866025403784438 0.0
outer loop
vertex -1.95 18.6903418218994 7.0
vertex -2.75771644662753 19.3101244500312 4.22994972382185e-15
vertex -1.95 18.6903418218994 4.22994972382185e-15
endloop
endfacet
facet normal -0.707106781186548 -0.707106781186547 0.0
outer loop
vertex -2.75771644662753 19.3101244500312 4.22994972382185e-15
vertex -1.95 18.6903418218994 7.0
vertex -2.75771644662753 19.3101244500312 7.0
endloop
endfacet
facet normal -0.965925826289068 -0.258819045102521 0.0
outer loop
vertex -3.76711072252736 21.0584466207589 7.0
vertex -3.37749907475931 20.1178408966587 4.22994972382185e-15
vertex -3.37749907475931 20.1178408966587 7.0
endloop
endfacet
facet normal -0.866025403784439 -0.5 0.0
outer loop
vertex -3.37749907475931 20.1178408966587 4.22994972382185e-15
vertex -3.76711072252736 21.0584466207589 7.0
vertex -3.76711072252736 21.0584466207589 4.22994972382185e-15
endloop
endfacet
facet normal -0.25881904510252 -0.965925826289068 -9.68863874802773e-20
outer loop
vertex 0.621165708246051 24.3860628797525 7.0
vertex 2.0139656013791e-15 24.4678408966587 -1.2
vertex 0.621165708246051 24.3860628797525 -1.20000000000001
endloop
endfacet
facet normal -5.25755483843166e-16 -1.0 -9.68863874802776e-20
outer loop
vertex 2.0139656013791e-15 24.4678408966587 -1.2
vertex 0.621165708246051 24.3860628797525 7.0
vertex 2.0139656013791e-15 24.4678408966587 7.0
endloop
endfacet
facet normal 0.866025403784439 0.499999999999999 0.0
outer loop
vertex 3.37749907475931 24.0178408966587 4.22994972382185e-15
vertex 3.76711072252737 23.0772351725586 7.0
vertex 3.76711072252737 23.0772351725586 4.22994972382185e-15
endloop
endfacet
facet normal 0.965925826289068 0.258819045102521 0.0
outer loop
vertex 3.76711072252737 23.0772351725586 7.0
vertex 3.37749907475931 24.0178408966587 4.22994972382185e-15
vertex 3.37749907475931 24.0178408966587 7.0
endloop
endfacet
facet normal -0.611609915034068 -0.469304793921159 0.636935100488769
outer loop
vertex -4.94974746830583 17.1180934283529 -1.2
vertex -5.19615242270663 19.0678408966587 0.0
vertex -6.06217782649107 18.5678408966587 -1.2
endloop
endfacet
facet normal -0.611609915034068 -0.469304793921159 0.636935100488769
outer loop
vertex -5.19615242270663 19.0678408966587 0.0
vertex -4.94974746830583 17.1180934283529 -1.2
vertex -4.24264068711928 17.8252002095394 0.0
endloop
endfacet
facet normal 0.0 0.0 -1.0
outer loop
vertex -1.81173331571764 28.8293216806822 -1.2
vertex -2.4 22.0678408966587 -1.2
vertex -3.5 28.1300187231498 -1.2
endloop
endfacet
facet normal 0.0 0.0 -1.0
outer loop
vertex -2.4 22.0678408966587 -1.2
vertex -1.81173331571764 28.8293216806822 -1.2
vertex -2.31822198309376 22.6890066049048 -1.2
endloop
endfacet
facet normal 0.0 0.0 -1.0
outer loop
vertex -2.31822198309376 22.6890066049048 -1.2
vertex -1.81173331571764 28.8293216806822 -1.2
vertex -2.07846096908265 23.2678408966587 -1.2
endloop
endfacet
facet normal 0.0 0.0 -1.0
outer loop
vertex -2.07846096908265 23.2678408966587 -1.2
vertex -1.81173331571764 28.8293216806822 -1.2
vertex -1.69705627484771 23.7648971715065 -1.2
endloop
endfacet
facet normal 0.0 0.0 -1.0
outer loop
vertex -1.69705627484771 23.7648971715065 -1.2
vertex -1.81173331571764 28.8293216806822 -1.2
vertex 2.9026570871968e-15 29.0678408966587 -1.2
endloop
endfacet
facet normal 0.0 0.0 -1.0
outer loop
vertex -1.69705627484771 23.7648971715065 -1.2
vertex 2.9026570871968e-15 29.0678408966587 -1.2
vertex -1.2 24.1463018657414 -1.2
endloop
endfacet
facet normal 0.0 0.0 -1.0
outer loop
vertex -1.2 24.1463018657414 -1.2
vertex 2.9026570871968e-15 29.0678408966587 -1.2
vertex -0.621165708246049 24.3860628797525 -1.2
endloop
endfacet
facet normal 0.0 0.0 -1.0
outer loop
vertex -0.621165708246049 24.3860628797525 -1.2
vertex 2.9026570871968e-15 29.0678408966587 -1.2
vertex 2.0139656013791e-15 24.4678408966587 -1.2
endloop
endfacet
facet normal 0.0 0.0 -1.0
outer loop
vertex 2.0139656013791e-15 24.4678408966587 -1.2
vertex 2.9026570871968e-15 29.0678408966587 -1.2
vertex 0.621165708246051 24.3860628797525 -1.20000000000001
endloop
endfacet
facet normal 0.0 0.0 -1.0
outer loop
vertex 0.621165708246051 24.3860628797525 -1.20000000000001
vertex 2.9026570871968e-15 29.0678408966587 -1.2
vertex 1.81173331571765 28.8293216806822 -1.2
endloop
endfacet
facet normal 0.0 0.0 -1.0
outer loop
vertex 0.621165708246051 24.3860628797525 -1.20000000000001
vertex 1.81173331571765 28.8293216806822 -1.2
vertex 1.2 24.1463018657414 -1.20000000000001
endloop
endfacet
facet normal 0.0 0.0 -1.0
outer loop
vertex 1.2 24.1463018657414 -1.20000000000001
vertex 1.81173331571765 28.8293216806822 -1.2
vertex 1.69705627484772 23.7648971715065 -1.20000000000001
endloop
endfacet
facet normal 0.0 0.0 -1.0
outer loop
vertex 1.69705627484772 23.7648971715065 -1.20000000000001
vertex 1.81173331571765 28.8293216806822 -1.2
vertex 2.07846096908266 23.2678408966587 -1.20000000000001
endloop
endfacet
facet normal 0.0 0.0 -1.0
outer loop
vertex 2.07846096908266 23.2678408966587 -1.20000000000001
vertex 1.81173331571765 28.8293216806822 -1.2
vertex 3.5 28.1300187231498 -1.2
endloop
endfacet
facet normal 0.0 0.0 -1.0
outer loop
vertex 2.07846096908266 23.2678408966587 -1.20000000000001
vertex 3.5 28.1300187231498 -1.2
vertex 2.31822198309377 22.6890066049048 -1.20000000000001
endloop
endfacet
facet normal 0.0 0.0 -1.0
outer loop
vertex 2.31822198309377 22.6890066049048 -1.20000000000001
vertex 3.5 28.1300187231498 -1.2
vertex 2.4 22.0678408966587 -1.20000000000001
endloop
endfacet
facet normal 0.0 0.0 -1.0
outer loop
vertex 2.4 22.0678408966587 -1.20000000000001
vertex 3.5 28.1300187231498 -1.2
vertex 3.5 16.0056630701677 -1.2
endloop
endfacet
facet normal 0.0 0.0 -1.0
outer loop
vertex 3.5 16.0056630701677 -1.2
vertex 3.5 28.1300187231498 -1.2
vertex 4.94974746830583 17.1180934283529 -1.2
endloop
endfacet
facet normal 0.0 0.0 -1.0
outer loop
vertex 4.94974746830583 17.1180934283529 -1.2
vertex 3.5 28.1300187231498 -1.2
vertex 4.94974746830583 27.0175883649646 -1.2
endloop
endfacet
facet normal 0.0 0.0 -1.0
outer loop
vertex 4.94974746830583 17.1180934283529 -1.2
vertex 4.94974746830583 27.0175883649646 -1.2
vertex 6.06217782649107 25.5678408966587 -1.2
endloop
endfacet
facet normal 0.0 0.0 -1.0
outer loop
vertex 4.94974746830583 17.1180934283529 -1.2
vertex 6.06217782649107 25.5678408966587 -1.2
vertex 6.06217782649107 18.5678408966587 -1.2
endloop
endfacet
facet normal 0.0 0.0 -1.0
outer loop
vertex 6.06217782649107 18.5678408966587 -1.2
vertex 6.06217782649107 25.5678408966587 -1.2
vertex 6.76148078402348 20.2561075809411 -1.2
endloop
endfacet
facet normal 0.0 0.0 -1.0
outer loop
vertex 6.76148078402348 20.2561075809411 -1.2
vertex 6.06217782649107 25.5678408966587 -1.2
vertex 6.76148078402348 23.8795742123764 -1.2
endloop
endfacet
facet normal 0.0 0.0 -1.0
outer loop
vertex 6.76148078402348 20.2561075809411 -1.2
vertex 6.76148078402348 23.8795742123764 -1.2
vertex 7.0 22.0678408966587 -1.2
endloop
endfacet
facet normal 0.0 0.0 -1.0
outer loop
vertex -6.76148078402347 23.8795742123764 -1.2
vertex -6.76148078402348 20.2561075809411 -1.2
vertex -7.0 22.0678408966587 -1.2
endloop
endfacet
facet normal 0.0 0.0 -1.0
outer loop
vertex -6.76148078402348 20.2561075809411 -1.2
vertex -6.76148078402347 23.8795742123764 -1.2
vertex -6.06217782649107 18.5678408966587 -1.2
endloop
endfacet
facet normal 0.0 0.0 -1.0
outer loop
vertex -6.06217782649107 18.5678408966587 -1.2
vertex -6.76148078402347 23.8795742123764 -1.2
vertex -6.06217782649106 25.5678408966587 -1.2
endloop
endfacet
facet normal 0.0 0.0 -1.0
outer loop
vertex -6.06217782649107 18.5678408966587 -1.2
vertex -6.06217782649106 25.5678408966587 -1.2
vertex -4.94974746830583 17.1180934283529 -1.2
endloop
endfacet
facet normal 0.0 0.0 -1.0
outer loop
vertex -4.94974746830583 17.1180934283529 -1.2
vertex -6.06217782649106 25.5678408966587 -1.2
vertex -4.94974746830583 27.0175883649646 -1.2
endloop
endfacet
facet normal 0.0 0.0 -1.0
outer loop
vertex -4.94974746830583 17.1180934283529 -1.2
vertex -4.94974746830583 27.0175883649646 -1.2
vertex -3.5 16.0056630701677 -1.2
endloop
endfacet
facet normal 0.0 0.0 -1.0
outer loop
vertex -3.5 16.0056630701677 -1.2
vertex -4.94974746830583 27.0175883649646 -1.2
vertex -3.5 28.1300187231498 -1.2
endloop
endfacet
facet normal 0.0 0.0 -1.0
outer loop
vertex -3.5 16.0056630701677 -1.2
vertex -3.5 28.1300187231498 -1.2
vertex -1.81173331571765 15.3063601126353 -1.2
endloop
endfacet
facet normal 0.0 0.0 -1.0
outer loop
vertex -1.81173331571765 15.3063601126353 -1.2
vertex -3.5 28.1300187231498 -1.2
vertex -2.4 22.0678408966587 -1.2
endloop
endfacet
facet normal 0.0 0.0 -1.0
outer loop
vertex -1.81173331571765 15.3063601126353 -1.2
vertex -2.4 22.0678408966587 -1.2
vertex -2.31822198309376 21.4466751884127 -1.2
endloop
endfacet
facet normal 0.0 0.0 -1.0
outer loop
vertex -1.81173331571765 15.3063601126353 -1.2
vertex -2.31822198309376 21.4466751884127 -1.2
vertex -2.07846096908265 20.8678408966587 -1.2
endloop
endfacet
facet normal 0.0 0.0 -1.0
outer loop
vertex -1.81173331571765 15.3063601126353 -1.2
vertex -2.07846096908265 20.8678408966587 -1.2
vertex -1.69705627484771 20.370784621811 -1.2
endloop
endfacet
facet normal 0.0 0.0 -1.0
outer loop
vertex -1.81173331571765 15.3063601126353 -1.2
vertex -1.69705627484771 20.370784621811 -1.2
vertex 3.3925101162385e-15 15.0678408966587 -1.2
endloop
endfacet
facet normal 0.0 0.0 -1.0
outer loop
vertex 3.3925101162385e-15 15.0678408966587 -1.2
vertex -1.69705627484771 20.370784621811 -1.2
vertex -1.2 19.9893799275761 -1.2
endloop
endfacet
facet normal 0.0 0.0 -1.0
outer loop
vertex 3.3925101162385e-15 15.0678408966587 -1.2
vertex -1.2 19.9893799275761 -1.2
vertex -0.621165708246047 19.749618913565 -1.2
endloop
endfacet
facet normal 0.0 0.0 -1.0
outer loop
vertex 3.3925101162385e-15 15.0678408966587 -1.2
vertex -0.621165708246047 19.749618913565 -1.2
vertex 2.71895722201607e-15 19.6678408966587 -1.2
endloop
endfacet
facet normal 0.0 0.0 -1.0
outer loop
vertex 3.3925101162385e-15 15.0678408966587 -1.2
vertex 2.71895722201607e-15 19.6678408966587 -1.2
vertex 0.621165708246053 19.749618913565 -1.20000000000001
endloop
endfacet
facet normal 0.0 0.0 -1.0
outer loop
vertex 3.3925101162385e-15 15.0678408966587 -1.2
vertex 0.621165708246053 19.749618913565 -1.20000000000001
vertex 1.81173331571765 15.3063601126353 -1.2
endloop
endfacet
facet normal 0.0 0.0 -1.0
outer loop
vertex 1.81173331571765 15.3063601126353 -1.2
vertex 0.621165708246053 19.749618913565 -1.20000000000001
vertex 1.2 19.9893799275761 -1.20000000000001
endloop
endfacet
facet normal 0.0 0.0 -1.0
outer loop
vertex 1.81173331571765 15.3063601126353 -1.2
vertex 1.2 19.9893799275761 -1.20000000000001
vertex 1.69705627484772 20.370784621811 -1.20000000000001
endloop
endfacet
facet normal 0.0 0.0 -1.0
outer loop
vertex 1.81173331571765 15.3063601126353 -1.2
vertex 1.69705627484772 20.370784621811 -1.20000000000001
vertex 2.07846096908266 20.8678408966587 -1.20000000000001
endloop
endfacet
facet normal 0.0 0.0 -1.0
outer loop
vertex 1.81173331571765 15.3063601126353 -1.2
vertex 2.07846096908266 20.8678408966587 -1.20000000000001
vertex 3.5 16.0056630701677 -1.2
endloop
endfacet
facet normal 0.0 0.0 -1.0
outer loop
vertex 3.5 16.0056630701677 -1.2
vertex 2.07846096908266 20.8678408966587 -1.20000000000001
vertex 2.31822198309377 21.4466751884127 -1.20000000000001
endloop
endfacet
facet normal 0.0 0.0 -1.0
outer loop
vertex 3.5 16.0056630701677 -1.2
vertex 2.31822198309377 21.4466751884127 -1.20000000000001
vertex 2.4 22.0678408966587 -1.20000000000001
endloop
endfacet
facet normal -0.0 -0.0 1.0
outer loop
vertex -5.79555495773441 20.5149266260436 0.0
vertex -5.79555495773441 23.6207551672739 0.0
vertex -6.0 22.0678408966587 0.0
endloop
endfacet
facet normal -0.0 -0.0 1.0
outer loop
vertex -5.79555495773441 23.6207551672739 0.0
vertex -5.79555495773441 20.5149266260436 0.0
vertex -5.19615242270663 19.0678408966587 0.0
endloop
endfacet
facet normal -0.0 -0.0 1.0
outer loop
vertex -5.79555495773441 23.6207551672739 0.0
vertex -5.19615242270663 19.0678408966587 0.0
vertex -5.19615242270663 25.0678408966587 0.0
endloop
endfacet
facet normal -0.0 -0.0 1.0
outer loop
vertex -5.19615242270663 25.0678408966587 0.0
vertex -5.19615242270663 19.0678408966587 0.0
vertex -4.24264068711928 17.8252002095394 0.0
endloop
endfacet
facet normal -0.0 -0.0 1.0
outer loop
vertex -5.19615242270663 25.0678408966587 0.0
vertex -4.24264068711928 17.8252002095394 0.0
vertex -4.24264068711928 26.310481583778 0.0
endloop
endfacet
facet normal -0.0 -0.0 1.0
outer loop
vertex -4.24264068711928 26.310481583778 0.0
vertex -4.24264068711928 17.8252002095394 0.0
vertex -3.9 22.0678408966587 4.22994972382185e-15
endloop
endfacet
facet normal -0.0 -0.0 1.0
outer loop
vertex -3.9 22.0678408966587 4.22994972382185e-15
vertex -4.24264068711928 17.8252002095394 0.0
vertex -3.76711072252736 21.0584466207589 4.22994972382185e-15
endloop
endfacet
facet normal -0.0 -0.0 1.0
outer loop
vertex -3.76711072252736 21.0584466207589 4.22994972382185e-15
vertex -4.24264068711928 17.8252002095394 0.0
vertex -3.0 16.8716884739521 0.0
endloop
endfacet
facet normal -0.0 -0.0 1.0
outer loop
vertex -3.76711072252736 21.0584466207589 4.22994972382185e-15
vertex -3.0 16.8716884739521 0.0
vertex -3.37749907475931 20.1178408966587 4.22994972382185e-15
endloop
endfacet
facet normal -0.0 -0.0 1.0
outer loop
vertex -3.37749907475931 20.1178408966587 4.22994972382185e-15
vertex -3.0 16.8716884739521 0.0
vertex -2.75771644662753 19.3101244500312 4.22994972382185e-15
endloop
endfacet
facet normal -0.0 -0.0 1.0
outer loop
vertex -2.75771644662753 19.3101244500312 4.22994972382185e-15
vertex -3.0 16.8716884739521 0.0
vertex -1.55291427061513 16.2722859389243 0.0
endloop
endfacet
facet normal -0.0 -0.0 1.0
outer loop
vertex -2.75771644662753 19.3101244500312 4.22994972382185e-15
vertex -1.55291427061513 16.2722859389243 0.0
vertex -1.95 18.6903418218994 4.22994972382185e-15
endloop
endfacet
facet normal -0.0 -0.0 1.0
outer loop
vertex -1.95 18.6903418218994 4.22994972382185e-15
vertex -1.55291427061513 16.2722859389243 0.0
vertex -1.00939427589983 18.3007301741314 4.22994972382185e-15
endloop
endfacet
facet normal -0.0 -0.0 1.0
outer loop
vertex -1.00939427589983 18.3007301741314 4.22994972382185e-15
vertex -1.55291427061513 16.2722859389243 0.0
vertex 3.24550908840908e-15 16.0678408966587 0.0
endloop
endfacet
facet normal -0.0 -0.0 1.0
outer loop
vertex -1.00939427589983 18.3007301741314 4.22994972382185e-15
vertex 3.24550908840908e-15 16.0678408966587 0.0
vertex 2.71895722201607e-15 18.1678408966587 4.22994972382185e-15
endloop
endfacet
facet normal -0.0 -0.0 1.0
outer loop
vertex 2.71895722201607e-15 18.1678408966587 4.22994972382185e-15
vertex 3.24550908840908e-15 16.0678408966587 0.0
vertex 1.00939427589983 18.3007301741314 4.22994972382185e-15
endloop
endfacet
facet normal -0.0 -0.0 1.0
outer loop
vertex 1.00939427589983 18.3007301741314 4.22994972382185e-15
vertex 3.24550908840908e-15 16.0678408966587 0.0
vertex 1.55291427061513 16.2722859389243 0.0
endloop
endfacet
facet normal -0.0 -0.0 1.0
outer loop
vertex 1.00939427589983 18.3007301741314 4.22994972382185e-15
vertex 1.55291427061513 16.2722859389243 0.0
vertex 1.95 18.6903418218994 4.22994972382185e-15
endloop
endfacet
facet normal -0.0 -0.0 1.0
outer loop
vertex 1.95 18.6903418218994 4.22994972382185e-15
vertex 1.55291427061513 16.2722859389243 0.0
vertex 3.0 16.8716884739521 0.0
endloop
endfacet
facet normal -0.0 -0.0 1.0
outer loop
vertex 1.95 18.6903418218994 4.22994972382185e-15
vertex 3.0 16.8716884739521 0.0
vertex 2.75771644662754 19.3101244500312 4.22994972382185e-15
endloop
endfacet
facet normal -0.0 -0.0 1.0
outer loop
vertex 2.75771644662754 19.3101244500312 4.22994972382185e-15
vertex 3.0 16.8716884739521 0.0
vertex 3.37749907475931 20.1178408966587 4.22994972382185e-15
endloop
endfacet
facet normal -0.0 -0.0 1.0
outer loop
vertex 3.37749907475931 20.1178408966587 4.22994972382185e-15
vertex 3.0 16.8716884739521 0.0
vertex 4.24264068711929 17.8252002095394 0.0
endloop
endfacet
facet normal -0.0 -0.0 1.0
outer loop
vertex 3.37749907475931 20.1178408966587 4.22994972382185e-15
vertex 4.24264068711929 17.8252002095394 0.0
vertex 3.76711072252737 21.0584466207589 4.22994972382185e-15
endloop
endfacet
facet normal -0.0 -0.0 1.0
outer loop
vertex 3.76711072252737 21.0584466207589 4.22994972382185e-15
vertex 4.24264068711929 17.8252002095394 0.0
vertex 3.9 22.0678408966587 4.22994972382185e-15
endloop
endfacet
facet normal -0.0 -0.0 1.0
outer loop
vertex 3.9 22.0678408966587 4.22994972382185e-15
vertex 4.24264068711929 17.8252002095394 0.0
vertex 4.24264068711929 26.310481583778 0.0
endloop
endfacet
facet normal -0.0 -0.0 1.0
outer loop
vertex 4.24264068711929 26.310481583778 0.0
vertex 4.24264068711929 17.8252002095394 0.0
vertex 5.19615242270664 25.0678408966587 0.0
endloop
endfacet
facet normal -0.0 -0.0 1.0
outer loop
vertex 5.19615242270664 25.0678408966587 0.0
vertex 4.24264068711929 17.8252002095394 0.0
vertex 5.19615242270663 19.0678408966587 0.0
endloop
endfacet
facet normal -0.0 -0.0 1.0
outer loop
vertex 5.19615242270664 25.0678408966587 0.0
vertex 5.19615242270663 19.0678408966587 0.0
vertex 5.79555495773441 20.5149266260436 0.0
endloop
endfacet
facet normal -0.0 -0.0 1.0
outer loop
vertex 5.19615242270664 25.0678408966587 0.0
vertex 5.79555495773441 20.5149266260436 0.0
vertex 5.79555495773441 23.6207551672739 0.0
endloop
endfacet
facet normal -0.0 -0.0 1.0
outer loop
vertex 5.79555495773441 23.6207551672739 0.0
vertex 5.79555495773441 20.5149266260436 0.0
vertex 6.0 22.0678408966587 0.0
endloop
endfacet
facet normal -0.0 -0.0 1.0
outer loop
vertex -4.24264068711928 26.310481583778 0.0
vertex -3.76711072252736 23.0772351725586 4.22994972382185e-15
vertex -3.0 27.2639933193654 0.0
endloop
endfacet
facet normal -0.0 -0.0 1.0
outer loop
vertex -3.76711072252736 23.0772351725586 4.22994972382185e-15
vertex -4.24264068711928 26.310481583778 0.0
vertex -3.9 22.0678408966587 4.22994972382185e-15
endloop
endfacet
facet normal -0.0 -0.0 1.0
outer loop
vertex -3.0 27.2639933193654 0.0
vertex -3.76711072252736 23.0772351725586 4.22994972382185e-15
vertex -3.37749907475931 24.0178408966587 4.22994972382185e-15
endloop
endfacet
facet normal -0.0 -0.0 1.0
outer loop
vertex -3.0 27.2639933193654 0.0
vertex -3.37749907475931 24.0178408966587 4.22994972382185e-15
vertex -2.75771644662753 24.8255573432863 4.22994972382185e-15
endloop
endfacet
facet normal -0.0 -0.0 1.0
outer loop
vertex -3.0 27.2639933193654 0.0
vertex -2.75771644662753 24.8255573432863 4.22994972382185e-15
vertex -1.55291427061512 27.8633958543931 0.0
endloop
endfacet
facet normal -0.0 -0.0 1.0
outer loop
vertex -1.55291427061512 27.8633958543931 0.0
vertex -2.75771644662753 24.8255573432863 4.22994972382185e-15
vertex -1.95 25.445339971418 4.22994972382185e-15
endloop
endfacet
facet normal -0.0 -0.0 1.0
outer loop
vertex -1.55291427061512 27.8633958543931 0.0
vertex -1.95 25.445339971418 4.22994972382185e-15
vertex -1.00939427589983 25.8349516191861 4.22994972382185e-15
endloop
endfacet
facet normal -0.0 -0.0 1.0
outer loop
vertex -1.55291427061512 27.8633958543931 0.0
vertex -1.00939427589983 25.8349516191861 4.22994972382185e-15
vertex 2.92719343511148e-15 28.0678408966587 0.0
endloop
endfacet
facet normal -0.0 -0.0 1.0
outer loop
vertex 2.92719343511148e-15 28.0678408966587 0.0
vertex -1.00939427589983 25.8349516191861 4.22994972382185e-15
vertex 2.0139656013791e-15 25.9678408966587 4.22994972382185e-15
endloop
endfacet
facet normal -0.0 -0.0 1.0
outer loop
vertex 2.92719343511148e-15 28.0678408966587 0.0
vertex 2.0139656013791e-15 25.9678408966587 4.22994972382185e-15
vertex 1.00939427589983 25.8349516191861 4.22994972382185e-15
endloop
endfacet
facet normal -0.0 -0.0 1.0
outer loop
vertex 2.92719343511148e-15 28.0678408966587 0.0
vertex 1.00939427589983 25.8349516191861 4.22994972382185e-15
vertex 1.55291427061513 27.8633958543931 0.0
endloop
endfacet
facet normal -0.0 -0.0 1.0
outer loop
vertex 1.55291427061513 27.8633958543931 0.0
vertex 1.00939427589983 25.8349516191861 4.22994972382185e-15
vertex 1.95 25.445339971418 4.22994972382185e-15
endloop
endfacet
facet normal -0.0 -0.0 1.0
outer loop
vertex 1.55291427061513 27.8633958543931 0.0
vertex 1.95 25.445339971418 4.22994972382185e-15
vertex 3.0 27.2639933193654 0.0
endloop
endfacet
facet normal -0.0 -0.0 1.0
outer loop
vertex 3.0 27.2639933193654 0.0
vertex 1.95 25.445339971418 4.22994972382185e-15
vertex 2.75771644662754 24.8255573432863 4.22994972382185e-15
endloop
endfacet
facet normal -0.0 -0.0 1.0
outer loop
vertex 3.0 27.2639933193654 0.0
vertex 2.75771644662754 24.8255573432863 4.22994972382185e-15
vertex 3.37749907475931 24.0178408966587 4.22994972382185e-15
endloop
endfacet
facet normal -0.0 -0.0 1.0
outer loop
vertex 3.0 27.2639933193654 0.0
vertex 3.37749907475931 24.0178408966587 4.22994972382185e-15
vertex 4.24264068711929 26.310481583778 0.0
endloop
endfacet
facet normal -0.0 -0.0 1.0
outer loop
vertex 4.24264068711929 26.310481583778 0.0
vertex 3.37749907475931 24.0178408966587 4.22994972382185e-15
vertex 3.76711072252737 23.0772351725586 4.22994972382185e-15
endloop
endfacet
facet normal -0.0 -0.0 1.0
outer loop
vertex 4.24264068711929 26.310481583778 0.0
vertex 3.76711072252737 23.0772351725586 4.22994972382185e-15
vertex 3.9 22.0678408966587 4.22994972382185e-15
endloop
endfacet
facet normal 0.712234831170579 -0.295017326665366 0.636935100488769
outer loop
vertex 6.76148078402348 20.2561075809411 -1.2
vertex 5.19615242270663 19.0678408966587 0.0
vertex 6.06217782649107 18.5678408966587 -1.2
endloop
endfacet
facet normal 0.712234831170579 -0.295017326665366 0.636935100488769
outer loop
vertex 5.19615242270663 19.0678408966587 0.0
vertex 6.76148078402348 20.2561075809411 -1.2
vertex 5.79555495773441 20.5149266260436 0.0
endloop
endfacet
facet normal 0.712234831170579 0.295017326665365 0.636935100488769
outer loop
vertex 6.76148078402348 23.8795742123764 -1.2
vertex 5.19615242270664 25.0678408966587 0.0
vertex 5.79555495773441 23.6207551672739 0.0
endloop
endfacet
facet normal 0.712234831170579 0.295017326665365 0.636935100488769
outer loop
vertex 5.19615242270664 25.0678408966587 0.0
vertex 6.76148078402348 23.8795742123764 -1.2
vertex 6.06217782649107 25.5678408966587 -1.2
endloop
endfacet
facet normal 0.611609915034068 -0.469304793921159 0.636935100488769
outer loop
vertex 4.94974746830583 17.1180934283529 -1.2
vertex 5.19615242270663 19.0678408966587 0.0
vertex 4.24264068711929 17.8252002095394 0.0
endloop
endfacet
facet normal 0.611609915034068 -0.469304793921159 0.636935100488769
outer loop
vertex 5.19615242270663 19.0678408966587 0.0
vertex 4.94974746830583 17.1180934283529 -1.2
vertex 6.06217782649107 18.5678408966587 -1.2
endloop
endfacet
facet normal 1.0 3.11888846347642e-16 0.0
outer loop
vertex 3.9 22.0678408966587 4.22994972382185e-15
vertex 3.76711072252737 21.0584466207589 7.0
vertex 3.76711072252737 21.0584466207589 4.22994972382185e-15
endloop
endfacet
facet normal 0.965925826289068 -0.25881904510252 0.0
outer loop
vertex 3.76711072252737 21.0584466207589 7.0
vertex 3.9 22.0678408966587 4.22994972382185e-15
vertex 3.9 22.0678408966587 7.0
endloop
endfacet
facet normal -0.866025403784438 0.5 0.0
outer loop
vertex -3.37749907475931 24.0178408966587 7.0
vertex -3.76711072252736 23.0772351725586 4.22994972382185e-15
vertex -3.76711072252736 23.0772351725586 7.0
endloop
endfacet
facet normal -0.965925826289068 0.25881904510252 0.0
outer loop
vertex -3.76711072252736 23.0772351725586 4.22994972382185e-15
vertex -3.37749907475931 24.0178408966587 7.0
vertex -3.37749907475931 24.0178408966587 4.22994972382185e-15
endloop
endfacet
facet normal -0.965925826289068 0.25881904510252 0.0
outer loop
vertex -3.76711072252736 23.0772351725586 7.0
vertex -3.9 22.0678408966587 4.22994972382185e-15
vertex -3.9 22.0678408966587 7.0
endloop
endfacet
facet normal -1.0 -6.86155461964812e-16 0.0
outer loop
vertex -3.9 22.0678408966587 4.22994972382185e-15
vertex -3.76711072252736 23.0772351725586 7.0
vertex -3.76711072252736 23.0772351725586 4.22994972382185e-15
endloop
endfacet
facet normal 0.965925826289068 0.258819045102521 0.0
outer loop
vertex -2.31822198309376 21.4466751884127 -1.2
vertex -2.07846096908265 20.8678408966587 7.0
vertex -2.07846096908265 20.8678408966587 -1.2
endloop
endfacet
facet normal 0.866025403784439 0.499999999999999 0.0
outer loop
vertex -2.07846096908265 20.8678408966587 7.0
vertex -2.31822198309376 21.4466751884127 -1.2
vertex -2.31822198309376 21.4466751884127 7.0
endloop
endfacet
facet normal 0.965925826289068 -0.25881904510252 0.0
outer loop
vertex -2.31822198309376 22.6890066049048 -1.2
vertex -2.4 22.0678408966587 7.0
vertex -2.4 22.0678408966587 -1.2
endloop
endfacet
facet normal 1.0 5.61399923425755e-16 0.0
outer loop
vertex -2.4 22.0678408966587 7.0
vertex -2.31822198309376 22.6890066049048 -1.2
vertex -2.31822198309376 22.6890066049048 7.0
endloop
endfacet
facet normal -0.611609915034068 0.46930479392116 0.636935100488769
outer loop
vertex -5.19615242270663 25.0678408966587 0.0
vertex -4.94974746830583 27.0175883649646 -1.2
vertex -6.06217782649106 25.5678408966587 -1.2
endloop
endfacet
facet normal -0.611609915034068 0.46930479392116 0.636935100488769
outer loop
vertex -4.94974746830583 27.0175883649646 -1.2
vertex -5.19615242270663 25.0678408966587 0.0
vertex -4.24264068711928 26.310481583778 0.0
endloop
endfacet
facet normal 0.499999999999999 -0.866025403784439 0.0
outer loop
vertex -1.2 24.1463018657414 7.0
vertex -1.69705627484771 23.7648971715065 -1.2
vertex -1.2 24.1463018657414 -1.2
endloop
endfacet
facet normal 0.707106781186549 -0.707106781186546 0.0
outer loop
vertex -1.69705627484771 23.7648971715065 -1.2
vertex -1.2 24.1463018657414 7.0
vertex -1.69705627484771 23.7648971715065 7.0
endloop
endfacet
facet normal -0.25881904510252 -0.965925826289069 0.0
outer loop
vertex -1.00939427589983 18.3007301741314 7.0
vertex -1.95 18.6903418218994 4.22994972382185e-15
vertex -1.00939427589983 18.3007301741314 4.22994972382185e-15
endloop
endfacet
facet normal -0.5 -0.866025403784438 0.0
outer loop
vertex -1.95 18.6903418218994 4.22994972382185e-15
vertex -1.00939427589983 18.3007301741314 7.0
vertex -1.95 18.6903418218994 7.0
endloop
endfacet
facet normal 0.707106781186548 0.707106781186547 0.0
outer loop
vertex -1.69705627484771 20.370784621811 7.0
vertex -1.2 19.9893799275761 -1.2
vertex -1.69705627484771 20.370784621811 -1.2
endloop
endfacet
facet normal 0.5 0.866025403784438 0.0
outer loop
vertex -1.2 19.9893799275761 -1.2
vertex -1.69705627484771 20.370784621811 7.0
vertex -1.2 19.9893799275761 7.0
endloop
endfacet
facet normal 2.3168885728682e-16 1.0 0.0
outer loop
vertex 2.0139656013791e-15 25.9678408966587 7.0
vertex 1.00939427589983 25.8349516191861 4.22994972382185e-15
vertex 2.0139656013791e-15 25.9678408966587 4.22994972382185e-15
endloop
endfacet
facet normal 0.258819045102523 0.965925826289068 0.0
outer loop
vertex 1.00939427589983 25.8349516191861 4.22994972382185e-15
vertex 2.0139656013791e-15 25.9678408966587 7.0
vertex 1.00939427589983 25.8349516191861 7.0
endloop
endfacet
facet normal 0.5 0.866025403784438 0.0
outer loop
vertex -1.2 19.9893799275761 7.0
vertex -0.621165708246047 19.749618913565 -1.2
vertex -1.2 19.9893799275761 -1.2
endloop
endfacet
facet normal 0.25881904510252 0.965925826289068 0.0
outer loop
vertex -0.621165708246047 19.749618913565 -1.2
vertex -1.2 19.9893799275761 7.0
vertex -0.621165708246047 19.749618913565 7.0
endloop
endfacet
facet normal -0.500000000000001 0.866025403784438 0.0
outer loop
vertex -1.95 25.445339971418 7.0
vertex -1.00939427589983 25.8349516191861 4.22994972382185e-15
vertex -1.95 25.445339971418 4.22994972382185e-15
endloop
endfacet
facet normal -0.258819045102523 0.965925826289068 0.0
outer loop
vertex -1.00939427589983 25.8349516191861 4.22994972382185e-15
vertex -1.95 25.445339971418 7.0
vertex -1.00939427589983 25.8349516191861 7.0
endloop
endfacet
facet normal -0.295017326665366 -0.712234831170578 0.636935100488769
outer loop
vertex -1.55291427061513 16.2722859389243 0.0
vertex -3.5 16.0056630701677 -1.2
vertex -1.81173331571765 15.3063601126353 -1.2
endloop
endfacet
facet normal -0.295017326665366 -0.712234831170578 0.636935100488769
outer loop
vertex -3.5 16.0056630701677 -1.2
vertex -1.55291427061513 16.2722859389243 0.0
vertex -3.0 16.8716884739521 0.0
endloop
endfacet
facet normal -0.712234831170579 0.295017326665366 0.636935100488768
outer loop
vertex -5.19615242270663 25.0678408966587 0.0
vertex -6.76148078402347 23.8795742123764 -1.2
vertex -5.79555495773441 23.6207551672739 0.0
endloop
endfacet
facet normal -0.712234831170579 0.295017326665366 0.636935100488768
outer loop
vertex -6.76148078402347 23.8795742123764 -1.2
vertex -5.19615242270663 25.0678408966587 0.0
vertex -6.06217782649106 25.5678408966587 -1.2
endloop
endfacet
facet normal -0.712234831170579 -0.295017326665365 0.636935100488769
outer loop
vertex -5.19615242270663 19.0678408966587 0.0
vertex -6.76148078402348 20.2561075809411 -1.2
vertex -6.06217782649107 18.5678408966587 -1.2
endloop
endfacet
facet normal -0.712234831170579 -0.295017326665365 0.636935100488769
outer loop
vertex -6.76148078402348 20.2561075809411 -1.2
vertex -5.19615242270663 19.0678408966587 0.0
vertex -5.79555495773441 20.5149266260436 0.0
endloop
endfacet
facet normal -0.100624916136511 -0.764322120586525 0.636935100488769
outer loop
vertex 3.24550908840908e-15 16.0678408966587 0.0
vertex -1.81173331571765 15.3063601126353 -1.2
vertex 3.3925101162385e-15 15.0678408966587 -1.2
endloop
endfacet
facet normal -0.100624916136511 -0.764322120586525 0.636935100488769
outer loop
vertex -1.81173331571765 15.3063601126353 -1.2
vertex 3.24550908840908e-15 16.0678408966587 0.0
vertex -1.55291427061513 16.2722859389243 0.0
endloop
endfacet
facet normal 0.100624916136511 0.764322120586525 0.636935100488769
outer loop
vertex 2.92719343511148e-15 28.0678408966587 0.0
vertex 1.81173331571765 28.8293216806822 -1.2
vertex 2.9026570871968e-15 29.0678408966587 -1.2
endloop
endfacet
facet normal 0.100624916136511 0.764322120586525 0.636935100488769
outer loop
vertex 1.81173331571765 28.8293216806822 -1.2
vertex 2.92719343511148e-15 28.0678408966587 0.0
vertex 1.55291427061513 27.8633958543931 0.0
endloop
endfacet
facet normal 0.764322120586525 0.100624916136511 0.636935100488769
outer loop
vertex 6.76148078402348 23.8795742123764 -1.2
vertex 6.0 22.0678408966587 0.0
vertex 7.0 22.0678408966587 -1.2
endloop
endfacet
facet normal 0.764322120586525 0.100624916136511 0.636935100488769
outer loop
vertex 6.0 22.0678408966587 0.0
vertex 6.76148078402348 23.8795742123764 -1.2
vertex 5.79555495773441 23.6207551672739 0.0
endloop
endfacet
facet normal -0.764322120586525 0.100624916136511 0.636935100488769
outer loop
vertex -5.79555495773441 23.6207551672739 0.0
vertex -7.0 22.0678408966587 -1.2
vertex -6.0 22.0678408966587 0.0
endloop
endfacet
facet normal -0.764322120586525 0.100624916136511 0.636935100488769
outer loop
vertex -7.0 22.0678408966587 -1.2
vertex -5.79555495773441 23.6207551672739 0.0
vertex -6.76148078402347 23.8795742123764 -1.2
endloop
endfacet
facet normal 0.295017326665366 0.712234831170578 0.636935100488769
outer loop
vertex 1.55291427061513 27.8633958543931 0.0
vertex 3.5 28.1300187231498 -1.2
vertex 1.81173331571765 28.8293216806822 -1.2
endloop
endfacet
facet normal 0.295017326665366 0.712234831170578 0.636935100488769
outer loop
vertex 3.5 28.1300187231498 -1.2
vertex 1.55291427061513 27.8633958543931 0.0
vertex 3.0 27.2639933193654 0.0
endloop
endfacet
facet normal -0.866025403784439 -0.5 0.0
outer loop
vertex -3.37749907475931 20.1178408966587 7.0
vertex -2.75771644662753 19.3101244500312 4.22994972382185e-15
vertex -2.75771644662753 19.3101244500312 7.0
endloop
endfacet
facet normal -0.707106781186548 -0.707106781186547 0.0
outer loop
vertex -2.75771644662753 19.3101244500312 4.22994972382185e-15
vertex -3.37749907475931 20.1178408966587 7.0
vertex -3.37749907475931 20.1178408966587 4.22994972382185e-15
endloop
endfacet
facet normal 0.965925826289068 0.258819045102521 0.0
outer loop
vertex 3.76711072252737 23.0772351725586 4.22994972382185e-15
vertex 3.9 22.0678408966587 7.0
vertex 3.9 22.0678408966587 4.22994972382185e-15
endloop
endfacet
facet normal 1.0 3.11888846347642e-16 0.0
outer loop
vertex 3.9 22.0678408966587 7.0
vertex 3.76711072252737 23.0772351725586 4.22994972382185e-15
vertex 3.76711072252737 23.0772351725586 7.0
endloop
endfacet
facet normal 1.2921109348688e-15 -1.0 0.0
outer loop
vertex 2.71895722201607e-15 18.1678408966587 7.0
vertex -1.00939427589983 18.3007301741314 4.22994972382185e-15
vertex 2.71895722201607e-15 18.1678408966587 4.22994972382185e-15
endloop
endfacet
facet normal -0.25881904510252 -0.965925826289069 0.0
outer loop
vertex -1.00939427589983 18.3007301741314 4.22994972382185e-15
vertex 2.71895722201607e-15 18.1678408966587 7.0
vertex -1.00939427589983 18.3007301741314 7.0
endloop
endfacet
facet normal 0.764322120586525 -0.100624916136511 0.636935100488769
outer loop
vertex 7.0 22.0678408966587 -1.2
vertex 5.79555495773441 20.5149266260436 0.0
vertex 6.76148078402348 20.2561075809411 -1.2
endloop
endfacet
facet normal 0.764322120586525 -0.100624916136511 0.636935100488769
outer loop
vertex 5.79555495773441 20.5149266260436 0.0
vertex 7.0 22.0678408966587 -1.2
vertex 6.0 22.0678408966587 0.0
endloop
endfacet
facet normal 1.0 5.61399923425755e-16 0.0
outer loop
vertex -2.4 22.0678408966587 -1.2
vertex -2.31822198309376 21.4466751884127 7.0
vertex -2.31822198309376 21.4466751884127 -1.2
endloop
endfacet
facet normal 0.965925826289068 0.258819045102521 0.0
outer loop
vertex -2.31822198309376 21.4466751884127 7.0
vertex -2.4 22.0678408966587 -1.2
vertex -2.4 22.0678408966587 7.0
endloop
endfacet
facet normal 0.25881904510252 0.965925826289068 0.0
outer loop
vertex -0.621165708246047 19.749618913565 7.0
vertex 2.71895722201607e-15 19.6678408966587 -1.2
vertex -0.621165708246047 19.749618913565 -1.2
endloop
endfacet
facet normal -2.55748854005065e-15 1.0 1.7702437689107e-19
outer loop
vertex 2.71895722201607e-15 19.6678408966587 -1.2
vertex -0.621165708246047 19.749618913565 7.0
vertex 2.71895722201607e-15 19.6678408966587 7.0
endloop
endfacet
facet normal 0.5 -0.866025403784439 0.0
outer loop
vertex 1.95 18.6903418218994 7.0
vertex 1.00939427589983 18.3007301741314 4.22994972382185e-15
vertex 1.95 18.6903418218994 4.22994972382185e-15
endloop
endfacet
facet normal 0.258819045102521 -0.965925826289068 0.0
outer loop
vertex 1.00939427589983 18.3007301741314 4.22994972382185e-15
vertex 1.95 18.6903418218994 7.0
vertex 1.00939427589983 18.3007301741314 7.0
endloop
endfacet
facet normal -0.295017326665365 0.71223483117058 0.636935100488768
outer loop
vertex -3.0 27.2639933193654 0.0
vertex -1.81173331571764 28.8293216806822 -1.2
vertex -3.5 28.1300187231498 -1.2
endloop
endfacet
facet normal -0.295017326665365 0.71223483117058 0.636935100488768
outer loop
vertex -1.81173331571764 28.8293216806822 -1.2
vertex -3.0 27.2639933193654 0.0
vertex -1.55291427061512 27.8633958543931 0.0
endloop
endfacet
facet normal -0.499999999999999 0.866025403784439 0.0
outer loop
vertex 1.2 19.9893799275761 7.0
vertex 1.69705627484772 20.370784621811 -1.20000000000001
vertex 1.2 19.9893799275761 -1.20000000000001
endloop
endfacet
facet normal -0.707106781186547 0.707106781186548 0.0
outer loop
vertex 1.69705627484772 20.370784621811 -1.20000000000001
vertex 1.2 19.9893799275761 7.0
vertex 1.69705627484772 20.370784621811 7.0
endloop
endfacet
facet normal -0.258819045102523 0.965925826289068 0.0
outer loop
vertex -1.00939427589983 25.8349516191861 7.0
vertex 2.0139656013791e-15 25.9678408966587 4.22994972382185e-15
vertex -1.00939427589983 25.8349516191861 4.22994972382185e-15
endloop
endfacet
facet normal 2.3168885728682e-16 1.0 0.0
outer loop
vertex 2.0139656013791e-15 25.9678408966587 4.22994972382185e-15
vertex -1.00939427589983 25.8349516191861 7.0
vertex 2.0139656013791e-15 25.9678408966587 7.0
endloop
endfacet
endsolid 608zz to 8-32 Bearing Adaptor
