solid K02.2
facet normal 0.342020143325664 -0.93969262078591 0.0
outer loop
vertex 829.80851745133 -287.413555204507 8.0
vertex 829.067680802431 -287.612061786303 0.0
vertex 829.80851745133 -287.413555204507 0.0
endloop
endfacet
facet normal 0.173648177666953 -0.984807753012204 0.0
outer loop
vertex 829.067680802431 -287.612061786303 0.0
vertex 829.80851745133 -287.413555204507 8.0
vertex 829.067680802431 -287.612061786303 8.0
endloop
endfacet
facet normal -0.173648177666934 -0.984807753012207 0.0
outer loop
vertex 828.720384447098 -280.91536906582 8.0
vertex 828.303628820697 -280.878907673049 0.0
vertex 828.720384447098 -280.91536906582 0.0
endloop
endfacet
facet normal 0.0 -1.0 0.0
outer loop
vertex 828.303628820697 -280.878907673049 0.0
vertex 828.720384447098 -280.91536906582 8.0
vertex 828.303628820697 -280.878907673049 8.0
endloop
endfacet
facet normal 0.499999999999955 0.866025403784464 0.0
outer loop
vertex 827.103628820697 -285.357368642132 8.0
vertex 827.482780476715 -285.534169962936 0.0
vertex 827.103628820697 -285.357368642132 0.0
endloop
endfacet
facet normal 0.342020143325603 0.939692620785932 0.0
outer loop
vertex 827.482780476715 -285.534169962936 0.0
vertex 827.103628820697 -285.357368642132 8.0
vertex 827.482780476715 -285.534169962936 8.0
endloop
endfacet
facet normal 0.0 0.0 -1.0
outer loop
vertex 823.970474707443 -282.514855691315 0.0
vertex 823.970474707443 -284.042959654784 0.0
vertex 823.903628820697 -283.278907673049 0.0
endloop
endfacet
facet normal 0.0 0.0 -1.0
outer loop
vertex 823.970474707443 -284.042959654784 0.0
vertex 823.970474707443 -282.514855691315 0.0
vertex 824.168981289239 -281.774019042416 0.0
endloop
endfacet
facet normal 0.0 0.0 -1.0
outer loop
vertex 823.970474707443 -284.042959654784 0.0
vertex 824.168981289239 -281.774019042416 0.0
vertex 824.168981289239 -284.783796303682 0.0
endloop
endfacet
facet normal 0.0 0.0 -1.0
outer loop
vertex 824.168981289239 -284.783796303682 0.0
vertex 824.168981289239 -281.774019042416 0.0
vertex 824.493117044045 -281.078907673049 0.0
endloop
endfacet
facet normal 0.0 0.0 -1.0
outer loop
vertex 824.168981289239 -284.783796303682 0.0
vertex 824.493117044045 -281.078907673049 0.0
vertex 824.493117044045 -285.478907673049 0.0
endloop
endfacet
facet normal 0.0 0.0 -1.0
outer loop
vertex 824.493117044045 -285.478907673049 0.0
vertex 824.493117044045 -281.078907673049 0.0
vertex 824.933033270974 -280.450642190429 0.0
endloop
endfacet
facet normal 0.0 0.0 -1.0
outer loop
vertex 824.493117044045 -285.478907673049 0.0
vertex 824.933033270974 -280.450642190429 0.0
vertex 824.933033270974 -286.10717315567 0.0
endloop
endfacet
facet normal 0.0 0.0 -1.0
outer loop
vertex 824.933033270974 -286.10717315567 0.0
vertex 824.933033270974 -280.450642190429 0.0
vertex 825.475363338076 -279.908312123326 0.0
endloop
endfacet
facet normal 0.0 0.0 -1.0
outer loop
vertex 824.933033270974 -286.10717315567 0.0
vertex 825.475363338076 -279.908312123326 0.0
vertex 825.475363338076 -286.649503222773 0.0
endloop
endfacet
facet normal 0.0 0.0 -1.0
outer loop
vertex 825.475363338076 -286.649503222773 0.0
vertex 825.475363338076 -279.908312123326 0.0
vertex 826.103628820697 -279.468395896398 0.0
endloop
endfacet
facet normal 0.0 0.0 -1.0
outer loop
vertex 825.475363338076 -286.649503222773 0.0
vertex 826.103628820697 -279.468395896398 0.0
vertex 825.903628820697 -283.278907673049 0.0
endloop
endfacet
facet normal 0.0 0.0 -1.0
outer loop
vertex 825.903628820697 -283.278907673049 0.0
vertex 826.103628820697 -279.468395896398 0.0
vertex 825.940090213468 -282.862152046649 0.0
endloop
endfacet
facet normal 0.0 0.0 -1.0
outer loop
vertex 825.940090213468 -282.862152046649 0.0
vertex 826.103628820697 -279.468395896398 0.0
vertex 826.048366530811 -282.458059329068 0.0
endloop
endfacet
facet normal 0.0 0.0 -1.0
outer loop
vertex 826.048366530811 -282.458059329068 0.0
vertex 826.103628820697 -279.468395896398 0.0
vertex 826.225167851614 -282.078907673049 0.0
endloop
endfacet
facet normal 0.0 0.0 -1.0
outer loop
vertex 826.225167851614 -282.078907673049 0.0
vertex 826.103628820697 -279.468395896398 0.0
vertex 826.798740190064 -279.144260141591 0.0
endloop
endfacet
facet normal 0.0 0.0 -1.0
outer loop
vertex 826.225167851614 -282.078907673049 0.0
vertex 826.798740190064 -279.144260141591 0.0
vertex 826.465122157211 -281.736217409802 0.0
endloop
endfacet
facet normal 0.0 0.0 -1.0
outer loop
vertex 826.465122157211 -281.736217409802 0.0
vertex 826.798740190064 -279.144260141591 0.0
vertex 826.760938557449 -281.440401009564 0.0
endloop
endfacet
facet normal 0.0 0.0 -1.0
outer loop
vertex 826.760938557449 -281.440401009564 0.0
vertex 826.798740190064 -279.144260141591 0.0
vertex 827.103628820697 -281.200446703967 0.0
endloop
endfacet
facet normal 0.0 0.0 -1.0
outer loop
vertex 827.103628820697 -281.200446703967 0.0
vertex 826.798740190064 -279.144260141591 0.0
vertex 827.539576838962 -278.945753559796 0.0
endloop
endfacet
facet normal 0.0 0.0 -1.0
outer loop
vertex 827.103628820697 -281.200446703967 0.0
vertex 827.539576838962 -278.945753559796 0.0
vertex 827.482780476715 -281.023645383163 0.0
endloop
endfacet
facet normal 0.0 0.0 -1.0
outer loop
vertex 827.482780476715 -281.023645383163 0.0
vertex 827.539576838962 -278.945753559796 0.0
vertex 827.886873194296 -280.91536906582 0.0
endloop
endfacet
facet normal 0.0 0.0 -1.0
outer loop
vertex 827.886873194296 -280.91536906582 0.0
vertex 827.539576838962 -278.945753559796 0.0
vertex 828.303628820697 -278.878907673049 0.0
endloop
endfacet
facet normal 0.0 0.0 -1.0
outer loop
vertex 827.886873194296 -280.91536906582 0.0
vertex 828.303628820697 -278.878907673049 0.0
vertex 828.303628820697 -280.878907673049 0.0
endloop
endfacet
facet normal 0.0 0.0 -1.0
outer loop
vertex 828.303628820697 -280.878907673049 0.0
vertex 828.303628820697 -278.878907673049 0.0
vertex 829.067680802431 -278.945753559796 0.0
endloop
endfacet
facet normal 0.0 0.0 -1.0
outer loop
vertex 828.303628820697 -280.878907673049 0.0
vertex 829.067680802431 -278.945753559796 0.0
vertex 828.720384447098 -280.91536906582 0.0
endloop
endfacet
facet normal 0.0 0.0 -1.0
outer loop
vertex 828.720384447098 -280.91536906582 0.0
vertex 829.067680802431 -278.945753559796 0.0
vertex 829.124477164679 -281.023645383163 0.0
endloop
endfacet
facet normal 0.0 0.0 -1.0
outer loop
vertex 829.124477164679 -281.023645383163 0.0
vertex 829.067680802431 -278.945753559796 0.0
vertex 829.80851745133 -279.144260141591 0.0
endloop
endfacet
facet normal 0.0 0.0 -1.0
outer loop
vertex 829.124477164679 -281.023645383163 0.0
vertex 829.80851745133 -279.144260141591 0.0
vertex 829.503628820697 -281.200446703967 0.0
endloop
endfacet
facet normal 0.0 0.0 -1.0
outer loop
vertex 829.503628820697 -281.200446703967 0.0
vertex 829.80851745133 -279.144260141591 0.0
vertex 829.846319083945 -281.440401009564 0.0
endloop
endfacet
facet normal 0.0 0.0 -1.0
outer loop
vertex 829.846319083945 -281.440401009564 0.0
vertex 829.80851745133 -279.144260141591 0.0
vertex 830.503628820697 -279.468395896398 0.0
endloop
endfacet
facet normal 0.0 0.0 -1.0
outer loop
vertex 829.846319083945 -281.440401009564 0.0
vertex 830.503628820697 -279.468395896398 0.0
vertex 830.142135484183 -281.736217409802 0.0
endloop
endfacet
facet normal 0.0 0.0 -1.0
outer loop
vertex 830.142135484183 -281.736217409802 0.0
vertex 830.503628820697 -279.468395896398 0.0
vertex 830.38208978978 -282.078907673049 0.0
endloop
endfacet
facet normal 0.0 0.0 -1.0
outer loop
vertex 830.38208978978 -282.078907673049 0.0
vertex 830.503628820697 -279.468395896398 0.0
vertex 830.558891110583 -282.458059329068 0.0
endloop
endfacet
facet normal 0.0 0.0 -1.0
outer loop
vertex 830.558891110583 -282.458059329068 0.0
vertex 830.503628820697 -279.468395896398 0.0
vertex 831.131894303318 -279.908312123326 0.0
endloop
endfacet
facet normal 0.0 0.0 -1.0
outer loop
vertex 830.558891110583 -282.458059329068 0.0
vertex 831.131894303318 -279.908312123326 0.0
vertex 830.667167427926 -282.862152046649 0.0
endloop
endfacet
facet normal 0.0 0.0 -1.0
outer loop
vertex 830.667167427926 -282.862152046649 0.0
vertex 831.131894303318 -279.908312123326 0.0
vertex 830.703628820697 -283.278907673049 0.0
endloop
endfacet
facet normal 0.0 0.0 -1.0
outer loop
vertex 825.903628820697 -283.278907673049 0.0
vertex 826.103628820697 -287.089419449701 0.0
vertex 825.475363338076 -286.649503222773 0.0
endloop
endfacet
facet normal 0.0 0.0 -1.0
outer loop
vertex 826.103628820697 -287.089419449701 0.0
vertex 825.903628820697 -283.278907673049 0.0
vertex 825.940090213468 -283.69566329945 0.0
endloop
endfacet
facet normal 0.0 0.0 -1.0
outer loop
vertex 826.103628820697 -287.089419449701 0.0
vertex 825.940090213468 -283.69566329945 0.0
vertex 826.048366530811 -284.099756017031 0.0
endloop
endfacet
facet normal 0.0 0.0 -1.0
outer loop
vertex 826.103628820697 -287.089419449701 0.0
vertex 826.048366530811 -284.099756017031 0.0
vertex 826.225167851614 -284.478907673049 0.0
endloop
endfacet
facet normal 0.0 0.0 -1.0
outer loop
vertex 826.103628820697 -287.089419449701 0.0
vertex 826.225167851614 -284.478907673049 0.0
vertex 826.798740190064 -287.413555204507 0.0
endloop
endfacet
facet normal 0.0 0.0 -1.0
outer loop
vertex 826.798740190064 -287.413555204507 0.0
vertex 826.225167851614 -284.478907673049 0.0
vertex 826.465122157211 -284.821597936297 0.0
endloop
endfacet
facet normal 0.0 0.0 -1.0
outer loop
vertex 826.798740190064 -287.413555204507 0.0
vertex 826.465122157211 -284.821597936297 0.0
vertex 826.760938557449 -285.117414336535 0.0
endloop
endfacet
facet normal 0.0 0.0 -1.0
outer loop
vertex 826.798740190064 -287.413555204507 0.0
vertex 826.760938557449 -285.117414336535 0.0
vertex 827.103628820697 -285.357368642132 0.0
endloop
endfacet
facet normal 0.0 0.0 -1.0
outer loop
vertex 826.798740190064 -287.413555204507 0.0
vertex 827.103628820697 -285.357368642132 0.0
vertex 827.539576838962 -287.612061786303 0.0
endloop
endfacet
facet normal 0.0 0.0 -1.0
outer loop
vertex 827.539576838962 -287.612061786303 0.0
vertex 827.103628820697 -285.357368642132 0.0
vertex 827.482780476715 -285.534169962936 0.0
endloop
endfacet
facet normal 0.0 0.0 -1.0
outer loop
vertex 827.539576838962 -287.612061786303 0.0
vertex 827.482780476715 -285.534169962936 0.0
vertex 827.886873194296 -285.642446280279 0.0
endloop
endfacet
facet normal 0.0 0.0 -1.0
outer loop
vertex 827.539576838962 -287.612061786303 0.0
vertex 827.886873194296 -285.642446280279 0.0
vertex 828.303628820697 -287.678907673049 0.0
endloop
endfacet
facet normal 0.0 0.0 -1.0
outer loop
vertex 828.303628820697 -287.678907673049 0.0
vertex 827.886873194296 -285.642446280279 0.0
vertex 828.303628820697 -285.678907673049 0.0
endloop
endfacet
facet normal 0.0 0.0 -1.0
outer loop
vertex 828.303628820697 -287.678907673049 0.0
vertex 828.303628820697 -285.678907673049 0.0
vertex 828.720384447098 -285.642446280279 0.0
endloop
endfacet
facet normal 0.0 0.0 -1.0
outer loop
vertex 828.303628820697 -287.678907673049 0.0
vertex 828.720384447098 -285.642446280279 0.0
vertex 829.067680802431 -287.612061786303 0.0
endloop
endfacet
facet normal 0.0 0.0 -1.0
outer loop
vertex 829.067680802431 -287.612061786303 0.0
vertex 828.720384447098 -285.642446280279 0.0
vertex 829.124477164679 -285.534169962936 0.0
endloop
endfacet
facet normal 0.0 0.0 -1.0
outer loop
vertex 829.067680802431 -287.612061786303 0.0
vertex 829.124477164679 -285.534169962936 0.0
vertex 829.80851745133 -287.413555204507 0.0
endloop
endfacet
facet normal 0.0 0.0 -1.0
outer loop
vertex 829.80851745133 -287.413555204507 0.0
vertex 829.124477164679 -285.534169962936 0.0
vertex 829.503628820697 -285.357368642132 0.0
endloop
endfacet
facet normal 0.0 0.0 -1.0
outer loop
vertex 829.80851745133 -287.413555204507 0.0
vertex 829.503628820697 -285.357368642132 0.0
vertex 829.846319083945 -285.117414336535 0.0
endloop
endfacet
facet normal 0.0 0.0 -1.0
outer loop
vertex 829.80851745133 -287.413555204507 0.0
vertex 829.846319083945 -285.117414336535 0.0
vertex 830.503628820697 -287.089419449701 0.0
endloop
endfacet
facet normal 0.0 0.0 -1.0
outer loop
vertex 830.503628820697 -287.089419449701 0.0
vertex 829.846319083945 -285.117414336535 0.0
vertex 830.142135484183 -284.821597936297 0.0
endloop
endfacet
facet normal 0.0 0.0 -1.0
outer loop
vertex 830.503628820697 -287.089419449701 0.0
vertex 830.142135484183 -284.821597936297 0.0
vertex 830.38208978978 -284.478907673049 0.0
endloop
endfacet
facet normal 0.0 0.0 -1.0
outer loop
vertex 830.503628820697 -287.089419449701 0.0
vertex 830.38208978978 -284.478907673049 0.0
vertex 830.558891110583 -284.099756017031 0.0
endloop
endfacet
facet normal 0.0 0.0 -1.0
outer loop
vertex 830.503628820697 -287.089419449701 0.0
vertex 830.558891110583 -284.099756017031 0.0
vertex 831.131894303318 -286.649503222773 0.0
endloop
endfacet
facet normal 0.0 0.0 -1.0
outer loop
vertex 831.131894303318 -286.649503222773 0.0
vertex 830.558891110583 -284.099756017031 0.0
vertex 830.667167427926 -283.69566329945 0.0
endloop
endfacet
facet normal 0.0 0.0 -1.0
outer loop
vertex 831.131894303318 -286.649503222773 0.0
vertex 830.667167427926 -283.69566329945 0.0
vertex 830.703628820697 -283.278907673049 0.0
endloop
endfacet
facet normal 0.0 0.0 -1.0
outer loop
vertex 831.131894303318 -286.649503222773 0.0
vertex 830.703628820697 -283.278907673049 0.0
vertex 831.131894303318 -279.908312123326 0.0
endloop
endfacet
facet normal 0.0 0.0 -1.0
outer loop
vertex 831.131894303318 -286.649503222773 0.0
vertex 831.131894303318 -279.908312123326 0.0
vertex 831.67422437042 -280.450642190429 0.0
endloop
endfacet
facet normal 0.0 0.0 -1.0
outer loop
vertex 831.131894303318 -286.649503222773 0.0
vertex 831.67422437042 -280.450642190429 0.0
vertex 831.67422437042 -286.10717315567 0.0
endloop
endfacet
facet normal 0.0 0.0 -1.0
outer loop
vertex 831.67422437042 -286.10717315567 0.0
vertex 831.67422437042 -280.450642190429 0.0
vertex 832.114140597349 -281.078907673049 0.0
endloop
endfacet
facet normal 0.0 0.0 -1.0
outer loop
vertex 831.67422437042 -286.10717315567 0.0
vertex 832.114140597349 -281.078907673049 0.0
vertex 832.114140597349 -285.478907673049 0.0
endloop
endfacet
facet normal 0.0 0.0 -1.0
outer loop
vertex 832.114140597349 -285.478907673049 0.0
vertex 832.114140597349 -281.078907673049 0.0
vertex 832.438276352155 -281.774019042416 0.0
endloop
endfacet
facet normal 0.0 0.0 -1.0
outer loop
vertex 832.114140597349 -285.478907673049 0.0
vertex 832.438276352155 -281.774019042416 0.0
vertex 832.438276352155 -284.783796303682 0.0
endloop
endfacet
facet normal 0.0 0.0 -1.0
outer loop
vertex 832.438276352155 -284.783796303682 0.0
vertex 832.438276352155 -281.774019042416 0.0
vertex 832.636782933951 -282.514855691315 0.0
endloop
endfacet
facet normal 0.0 0.0 -1.0
outer loop
vertex 832.438276352155 -284.783796303682 0.0
vertex 832.636782933951 -282.514855691315 0.0
vertex 832.636782933951 -284.042959654784 0.0
endloop
endfacet
facet normal 0.0 0.0 -1.0
outer loop
vertex 832.636782933951 -284.042959654784 0.0
vertex 832.636782933951 -282.514855691315 0.0
vertex 832.703628820697 -283.278907673049 0.0
endloop
endfacet
facet normal 0.342020143325603 0.939692620785932 0.0
outer loop
vertex 827.482780476715 -285.534169962936 8.0
vertex 827.886873194296 -285.642446280279 0.0
vertex 827.482780476715 -285.534169962936 0.0
endloop
endfacet
facet normal 0.173648177666934 0.984807753012207 0.0
outer loop
vertex 827.886873194296 -285.642446280279 0.0
vertex 827.482780476715 -285.534169962936 8.0
vertex 827.886873194296 -285.642446280279 8.0
endloop
endfacet
facet normal 0.173648177666934 -0.984807753012207 0.0
outer loop
vertex 827.886873194296 -280.91536906582 8.0
vertex 827.482780476715 -281.023645383163 0.0
vertex 827.886873194296 -280.91536906582 0.0
endloop
endfacet
facet normal 0.342020143325689 -0.939692620785901 0.0
outer loop
vertex 827.482780476715 -281.023645383163 0.0
vertex 827.886873194296 -280.91536906582 8.0
vertex 827.482780476715 -281.023645383163 8.0
endloop
endfacet
facet normal 0.866025403784478 -0.499999999999931 0.0
outer loop
vertex 826.225167851614 -282.078907673049 0.0
vertex 826.048366530811 -282.458059329068 8.0
vertex 826.048366530811 -282.458059329068 0.0
endloop
endfacet
facet normal 0.939692620785901 -0.342020143325689 0.0
outer loop
vertex 826.048366530811 -282.458059329068 8.0
vertex 826.225167851614 -282.078907673049 0.0
vertex 826.225167851614 -282.078907673049 8.0
endloop
endfacet
facet normal 0.173648177666953 -0.984807753012204 0.0
outer loop
vertex 829.067680802431 -287.612061786303 8.0
vertex 828.303628820697 -287.678907673049 0.0
vertex 829.067680802431 -287.612061786303 0.0
endloop
endfacet
facet normal 0.0 -1.0 0.0
outer loop
vertex 828.303628820697 -287.678907673049 0.0
vertex 829.067680802431 -287.612061786303 8.0
vertex 828.303628820697 -287.678907673049 8.0
endloop
endfacet
facet normal 0.642787609686558 0.766044443118963 0.0
outer loop
vertex 831.131894303318 -279.908312123326 0.0
vertex 831.67422437042 -280.450642190429 8.0
vertex 831.67422437042 -280.450642190429 0.0
endloop
endfacet
facet normal 0.766044443118953 0.642787609686569 0.0
outer loop
vertex 831.67422437042 -280.450642190429 8.0
vertex 831.131894303318 -279.908312123326 0.0
vertex 831.131894303318 -279.908312123326 8.0
endloop
endfacet
facet normal -0.499999999999991 0.866025403784444 0.0
outer loop
vertex 826.103628820697 -279.468395896398 8.0
vertex 826.798740190064 -279.144260141591 0.0
vertex 826.103628820697 -279.468395896398 0.0
endloop
endfacet
facet normal -0.342020143325664 0.93969262078591 0.0
outer loop
vertex 826.798740190064 -279.144260141591 0.0
vertex 826.103628820697 -279.468395896398 8.0
vertex 826.798740190064 -279.144260141591 8.0
endloop
endfacet
facet normal -0.9848077530122 -0.173648177666978 0.0
outer loop
vertex 830.667167427926 -282.862152046649 8.0
vertex 830.703628820697 -283.278907673049 0.0
vertex 830.703628820697 -283.278907673049 8.0
endloop
endfacet
facet normal -1.0 0.0 0.0
outer loop
vertex 830.703628820697 -283.278907673049 0.0
vertex 830.667167427926 -282.862152046649 8.0
vertex 830.667167427926 -282.862152046649 0.0
endloop
endfacet
facet normal -0.173648177666953 -0.984807753012204 0.0
outer loop
vertex 827.539576838962 -287.612061786303 8.0
vertex 826.798740190064 -287.413555204507 0.0
vertex 827.539576838962 -287.612061786303 0.0
endloop
endfacet
facet normal -0.342020143325664 -0.93969262078591 0.0
outer loop
vertex 826.798740190064 -287.413555204507 0.0
vertex 827.539576838962 -287.612061786303 8.0
vertex 826.798740190064 -287.413555204507 8.0
endloop
endfacet
facet normal 0.642787609686564 0.766044443118958 0.0
outer loop
vertex 826.760938557449 -285.117414336535 8.0
vertex 827.103628820697 -285.357368642132 0.0
vertex 826.760938557449 -285.117414336535 0.0
endloop
endfacet
facet normal 0.499999999999955 0.866025403784464 0.0
outer loop
vertex 827.103628820697 -285.357368642132 0.0
vertex 826.760938557449 -285.117414336535 8.0
vertex 827.103628820697 -285.357368642132 8.0
endloop
endfacet
facet normal -0.939692620785935 -0.342020143325595 0.0
outer loop
vertex 824.168981289239 -284.783796303682 8.0
vertex 824.493117044045 -285.478907673049 0.0
vertex 824.493117044045 -285.478907673049 8.0
endloop
endfacet
facet normal -0.866025403784438 -0.500000000000002 0.0
outer loop
vertex 824.493117044045 -285.478907673049 0.0
vertex 824.168981289239 -284.783796303682 8.0
vertex 824.168981289239 -284.783796303682 0.0
endloop
endfacet
facet normal -0.939692620785901 -0.342020143325689 0.0
outer loop
vertex 830.558891110583 -282.458059329068 8.0
vertex 830.667167427926 -282.862152046649 0.0
vertex 830.667167427926 -282.862152046649 8.0
endloop
endfacet
facet normal -0.9848077530122 -0.173648177666978 0.0
outer loop
vertex 830.667167427926 -282.862152046649 0.0
vertex 830.558891110583 -282.458059329068 8.0
vertex 830.558891110583 -282.458059329068 0.0
endloop
endfacet
facet normal 0.9848077530122 -0.173648177666978 0.0
outer loop
vertex 825.940090213468 -282.862152046649 0.0
vertex 825.903628820697 -283.278907673049 8.0
vertex 825.903628820697 -283.278907673049 0.0
endloop
endfacet
facet normal 1.0 0.0 0.0
outer loop
vertex 825.903628820697 -283.278907673049 8.0
vertex 825.940090213468 -282.862152046649 0.0
vertex 825.940090213468 -282.862152046649 8.0
endloop
endfacet
facet normal 0.866025403784438 -0.500000000000002 0.0
outer loop
vertex 832.114140597349 -285.478907673049 0.0
vertex 831.67422437042 -286.10717315567 8.0
vertex 831.67422437042 -286.10717315567 0.0
endloop
endfacet
facet normal 0.766044443118953 -0.642787609686569 0.0
outer loop
vertex 831.67422437042 -286.10717315567 8.0
vertex 832.114140597349 -285.478907673049 0.0
vertex 832.114140597349 -285.478907673049 8.0
endloop
endfacet
facet normal -0.342020143325664 -0.93969262078591 0.0
outer loop
vertex 826.798740190064 -287.413555204507 8.0
vertex 826.103628820697 -287.089419449701 0.0
vertex 826.798740190064 -287.413555204507 0.0
endloop
endfacet
facet normal -0.499999999999991 -0.866025403784444 0.0
outer loop
vertex 826.103628820697 -287.089419449701 0.0
vertex 826.798740190064 -287.413555204507 8.0
vertex 826.103628820697 -287.089419449701 8.0
endloop
endfacet
facet normal 0.499999999999991 0.866025403784444 0.0
outer loop
vertex 830.503628820697 -279.468395896398 8.0
vertex 831.131894303318 -279.908312123326 0.0
vertex 830.503628820697 -279.468395896398 0.0
endloop
endfacet
facet normal 0.642787609686558 0.766044443118963 0.0
outer loop
vertex 831.131894303318 -279.908312123326 0.0
vertex 830.503628820697 -279.468395896398 8.0
vertex 831.131894303318 -279.908312123326 8.0
endloop
endfacet
facet normal -0.766044443118953 0.642787609686569 0.0
outer loop
vertex 824.933033270974 -280.450642190429 8.0
vertex 824.493117044045 -281.078907673049 0.0
vertex 824.493117044045 -281.078907673049 8.0
endloop
endfacet
facet normal -0.866025403784438 0.500000000000002 0.0
outer loop
vertex 824.493117044045 -281.078907673049 0.0
vertex 824.933033270974 -280.450642190429 8.0
vertex 824.933033270974 -280.450642190429 0.0
endloop
endfacet
facet normal -0.9848077530122 0.173648177666978 0.0
outer loop
vertex 830.667167427926 -283.69566329945 8.0
vertex 830.558891110583 -284.099756017031 0.0
vertex 830.558891110583 -284.099756017031 8.0
endloop
endfacet
facet normal -0.939692620785901 0.342020143325689 0.0
outer loop
vertex 830.558891110583 -284.099756017031 0.0
vertex 830.667167427926 -283.69566329945 8.0
vertex 830.667167427926 -283.69566329945 0.0
endloop
endfacet
facet normal 0.0 0.0 1.0
outer loop
vertex 823.970474707443 -284.042959654784 8.0
vertex 823.970474707443 -282.514855691315 8.0
vertex 823.903628820697 -283.278907673049 8.0
endloop
endfacet
facet normal 0.0 0.0 1.0
outer loop
vertex 823.970474707443 -282.514855691315 8.0
vertex 823.970474707443 -284.042959654784 8.0
vertex 824.168981289239 -284.783796303682 8.0
endloop
endfacet
facet normal 0.0 0.0 1.0
outer loop
vertex 823.970474707443 -282.514855691315 8.0
vertex 824.168981289239 -284.783796303682 8.0
vertex 824.168981289239 -281.774019042416 8.0
endloop
endfacet
facet normal 0.0 0.0 1.0
outer loop
vertex 824.168981289239 -281.774019042416 8.0
vertex 824.168981289239 -284.783796303682 8.0
vertex 824.493117044045 -285.478907673049 8.0
endloop
endfacet
facet normal 0.0 0.0 1.0
outer loop
vertex 824.168981289239 -281.774019042416 8.0
vertex 824.493117044045 -285.478907673049 8.0
vertex 824.493117044045 -281.078907673049 8.0
endloop
endfacet
facet normal 0.0 0.0 1.0
outer loop
vertex 824.493117044045 -281.078907673049 8.0
vertex 824.493117044045 -285.478907673049 8.0
vertex 824.933033270974 -286.10717315567 8.0
endloop
endfacet
facet normal 0.0 0.0 1.0
outer loop
vertex 824.493117044045 -281.078907673049 8.0
vertex 824.933033270974 -286.10717315567 8.0
vertex 824.933033270974 -280.450642190429 8.0
endloop
endfacet
facet normal 0.0 0.0 1.0
outer loop
vertex 824.933033270974 -280.450642190429 8.0
vertex 824.933033270974 -286.10717315567 8.0
vertex 825.475363338076 -286.649503222773 8.0
endloop
endfacet
facet normal 0.0 0.0 1.0
outer loop
vertex 824.933033270974 -280.450642190429 8.0
vertex 825.475363338076 -286.649503222773 8.0
vertex 825.475363338076 -279.908312123326 8.0
endloop
endfacet
facet normal 0.0 0.0 1.0
outer loop
vertex 825.475363338076 -279.908312123326 8.0
vertex 825.475363338076 -286.649503222773 8.0
vertex 826.103628820697 -287.089419449701 8.0
endloop
endfacet
facet normal 0.0 0.0 1.0
outer loop
vertex 825.475363338076 -279.908312123326 8.0
vertex 826.103628820697 -287.089419449701 8.0
vertex 825.903628820697 -283.278907673049 8.0
endloop
endfacet
facet normal 0.0 0.0 1.0
outer loop
vertex 825.903628820697 -283.278907673049 8.0
vertex 826.103628820697 -287.089419449701 8.0
vertex 825.940090213468 -283.69566329945 8.0
endloop
endfacet
facet normal 0.0 0.0 1.0
outer loop
vertex 825.940090213468 -283.69566329945 8.0
vertex 826.103628820697 -287.089419449701 8.0
vertex 826.048366530811 -284.099756017031 8.0
endloop
endfacet
facet normal 0.0 0.0 1.0
outer loop
vertex 826.048366530811 -284.099756017031 8.0
vertex 826.103628820697 -287.089419449701 8.0
vertex 826.225167851614 -284.478907673049 8.0
endloop
endfacet
facet normal 0.0 0.0 1.0
outer loop
vertex 826.225167851614 -284.478907673049 8.0
vertex 826.103628820697 -287.089419449701 8.0
vertex 826.798740190064 -287.413555204507 8.0
endloop
endfacet
facet normal 0.0 0.0 1.0
outer loop
vertex 826.225167851614 -284.478907673049 8.0
vertex 826.798740190064 -287.413555204507 8.0
vertex 826.465122157211 -284.821597936297 8.0
endloop
endfacet
facet normal 0.0 0.0 1.0
outer loop
vertex 826.465122157211 -284.821597936297 8.0
vertex 826.798740190064 -287.413555204507 8.0
vertex 826.760938557449 -285.117414336535 8.0
endloop
endfacet
facet normal 0.0 0.0 1.0
outer loop
vertex 826.760938557449 -285.117414336535 8.0
vertex 826.798740190064 -287.413555204507 8.0
vertex 827.103628820697 -285.357368642132 8.0
endloop
endfacet
facet normal 0.0 0.0 1.0
outer loop
vertex 827.103628820697 -285.357368642132 8.0
vertex 826.798740190064 -287.413555204507 8.0
vertex 827.539576838962 -287.612061786303 8.0
endloop
endfacet
facet normal 0.0 0.0 1.0
outer loop
vertex 827.103628820697 -285.357368642132 8.0
vertex 827.539576838962 -287.612061786303 8.0
vertex 827.482780476715 -285.534169962936 8.0
endloop
endfacet
facet normal 0.0 0.0 1.0
outer loop
vertex 827.482780476715 -285.534169962936 8.0
vertex 827.539576838962 -287.612061786303 8.0
vertex 827.886873194296 -285.642446280279 8.0
endloop
endfacet
facet normal 0.0 0.0 1.0
outer loop
vertex 827.886873194296 -285.642446280279 8.0
vertex 827.539576838962 -287.612061786303 8.0
vertex 828.303628820697 -287.678907673049 8.0
endloop
endfacet
facet normal 0.0 0.0 1.0
outer loop
vertex 827.886873194296 -285.642446280279 8.0
vertex 828.303628820697 -287.678907673049 8.0
vertex 828.303628820697 -285.678907673049 8.0
endloop
endfacet
facet normal 0.0 0.0 1.0
outer loop
vertex 828.303628820697 -285.678907673049 8.0
vertex 828.303628820697 -287.678907673049 8.0
vertex 829.067680802431 -287.612061786303 8.0
endloop
endfacet
facet normal 0.0 0.0 1.0
outer loop
vertex 828.303628820697 -285.678907673049 8.0
vertex 829.067680802431 -287.612061786303 8.0
vertex 828.720384447098 -285.642446280279 8.0
endloop
endfacet
facet normal 0.0 0.0 1.0
outer loop
vertex 828.720384447098 -285.642446280279 8.0
vertex 829.067680802431 -287.612061786303 8.0
vertex 829.124477164679 -285.534169962936 8.0
endloop
endfacet
facet normal 0.0 0.0 1.0
outer loop
vertex 829.124477164679 -285.534169962936 8.0
vertex 829.067680802431 -287.612061786303 8.0
vertex 829.80851745133 -287.413555204507 8.0
endloop
endfacet
facet normal 0.0 0.0 1.0
outer loop
vertex 829.124477164679 -285.534169962936 8.0
vertex 829.80851745133 -287.413555204507 8.0
vertex 829.503628820697 -285.357368642132 8.0
endloop
endfacet
facet normal 0.0 0.0 1.0
outer loop
vertex 829.503628820697 -285.357368642132 8.0
vertex 829.80851745133 -287.413555204507 8.0
vertex 829.846319083945 -285.117414336535 8.0
endloop
endfacet
facet normal 0.0 0.0 1.0
outer loop
vertex 829.846319083945 -285.117414336535 8.0
vertex 829.80851745133 -287.413555204507 8.0
vertex 830.503628820697 -287.089419449701 8.0
endloop
endfacet
facet normal 0.0 0.0 1.0
outer loop
vertex 829.846319083945 -285.117414336535 8.0
vertex 830.503628820697 -287.089419449701 8.0
vertex 830.142135484183 -284.821597936297 8.0
endloop
endfacet
facet normal 0.0 0.0 1.0
outer loop
vertex 830.142135484183 -284.821597936297 8.0
vertex 830.503628820697 -287.089419449701 8.0
vertex 830.38208978978 -284.478907673049 8.0
endloop
endfacet
facet normal 0.0 0.0 1.0
outer loop
vertex 830.38208978978 -284.478907673049 8.0
vertex 830.503628820697 -287.089419449701 8.0
vertex 830.558891110583 -284.099756017031 8.0
endloop
endfacet
facet normal 0.0 0.0 1.0
outer loop
vertex 830.558891110583 -284.099756017031 8.0
vertex 830.503628820697 -287.089419449701 8.0
vertex 831.131894303318 -286.649503222773 8.0
endloop
endfacet
facet normal 0.0 0.0 1.0
outer loop
vertex 830.558891110583 -284.099756017031 8.0
vertex 831.131894303318 -286.649503222773 8.0
vertex 830.667167427926 -283.69566329945 8.0
endloop
endfacet
facet normal 0.0 0.0 1.0
outer loop
vertex 830.667167427926 -283.69566329945 8.0
vertex 831.131894303318 -286.649503222773 8.0
vertex 830.703628820697 -283.278907673049 8.0
endloop
endfacet
facet normal 0.0 0.0 1.0
outer loop
vertex 825.903628820697 -283.278907673049 8.0
vertex 826.103628820697 -279.468395896398 8.0
vertex 825.475363338076 -279.908312123326 8.0
endloop
endfacet
facet normal 0.0 0.0 1.0
outer loop
vertex 826.103628820697 -279.468395896398 8.0
vertex 825.903628820697 -283.278907673049 8.0
vertex 825.940090213468 -282.862152046649 8.0
endloop
endfacet
facet normal 0.0 0.0 1.0
outer loop
vertex 826.103628820697 -279.468395896398 8.0
vertex 825.940090213468 -282.862152046649 8.0
vertex 826.048366530811 -282.458059329068 8.0
endloop
endfacet
facet normal 0.0 0.0 1.0
outer loop
vertex 826.103628820697 -279.468395896398 8.0
vertex 826.048366530811 -282.458059329068 8.0
vertex 826.225167851614 -282.078907673049 8.0
endloop
endfacet
facet normal 0.0 0.0 1.0
outer loop
vertex 826.103628820697 -279.468395896398 8.0
vertex 826.225167851614 -282.078907673049 8.0
vertex 826.798740190064 -279.144260141591 8.0
endloop
endfacet
facet normal 0.0 0.0 1.0
outer loop
vertex 826.798740190064 -279.144260141591 8.0
vertex 826.225167851614 -282.078907673049 8.0
vertex 826.465122157211 -281.736217409802 8.0
endloop
endfacet
facet normal 0.0 0.0 1.0
outer loop
vertex 826.798740190064 -279.144260141591 8.0
vertex 826.465122157211 -281.736217409802 8.0
vertex 826.760938557449 -281.440401009564 8.0
endloop
endfacet
facet normal 0.0 0.0 1.0
outer loop
vertex 826.798740190064 -279.144260141591 8.0
vertex 826.760938557449 -281.440401009564 8.0
vertex 827.103628820697 -281.200446703967 8.0
endloop
endfacet
facet normal 0.0 0.0 1.0
outer loop
vertex 826.798740190064 -279.144260141591 8.0
vertex 827.103628820697 -281.200446703967 8.0
vertex 827.539576838962 -278.945753559796 8.0
endloop
endfacet
facet normal 0.0 0.0 1.0
outer loop
vertex 827.539576838962 -278.945753559796 8.0
vertex 827.103628820697 -281.200446703967 8.0
vertex 827.482780476715 -281.023645383163 8.0
endloop
endfacet
facet normal 0.0 0.0 1.0
outer loop
vertex 827.539576838962 -278.945753559796 8.0
vertex 827.482780476715 -281.023645383163 8.0
vertex 827.886873194296 -280.91536906582 8.0
endloop
endfacet
facet normal 0.0 0.0 1.0
outer loop
vertex 827.539576838962 -278.945753559796 8.0
vertex 827.886873194296 -280.91536906582 8.0
vertex 828.303628820697 -278.878907673049 8.0
endloop
endfacet
facet normal 0.0 0.0 1.0
outer loop
vertex 828.303628820697 -278.878907673049 8.0
vertex 827.886873194296 -280.91536906582 8.0
vertex 828.303628820697 -280.878907673049 8.0
endloop
endfacet
facet normal 0.0 0.0 1.0
outer loop
vertex 828.303628820697 -278.878907673049 8.0
vertex 828.303628820697 -280.878907673049 8.0
vertex 828.720384447098 -280.91536906582 8.0
endloop
endfacet
facet normal 0.0 0.0 1.0
outer loop
vertex 828.303628820697 -278.878907673049 8.0
vertex 828.720384447098 -280.91536906582 8.0
vertex 829.067680802431 -278.945753559796 8.0
endloop
endfacet
facet normal 0.0 0.0 1.0
outer loop
vertex 829.067680802431 -278.945753559796 8.0
vertex 828.720384447098 -280.91536906582 8.0
vertex 829.124477164679 -281.023645383163 8.0
endloop
endfacet
facet normal 0.0 0.0 1.0
outer loop
vertex 829.067680802431 -278.945753559796 8.0
vertex 829.124477164679 -281.023645383163 8.0
vertex 829.80851745133 -279.144260141591 8.0
endloop
endfacet
facet normal 0.0 0.0 1.0
outer loop
vertex 829.80851745133 -279.144260141591 8.0
vertex 829.124477164679 -281.023645383163 8.0
vertex 829.503628820697 -281.200446703967 8.0
endloop
endfacet
facet normal 0.0 0.0 1.0
outer loop
vertex 829.80851745133 -279.144260141591 8.0
vertex 829.503628820697 -281.200446703967 8.0
vertex 829.846319083945 -281.440401009564 8.0
endloop
endfacet
facet normal 0.0 0.0 1.0
outer loop
vertex 829.80851745133 -279.144260141591 8.0
vertex 829.846319083945 -281.440401009564 8.0
vertex 830.503628820697 -279.468395896398 8.0
endloop
endfacet
facet normal 0.0 0.0 1.0
outer loop
vertex 830.503628820697 -279.468395896398 8.0
vertex 829.846319083945 -281.440401009564 8.0
vertex 830.142135484183 -281.736217409802 8.0
endloop
endfacet
facet normal 0.0 0.0 1.0
outer loop
vertex 830.503628820697 -279.468395896398 8.0
vertex 830.142135484183 -281.736217409802 8.0
vertex 830.38208978978 -282.078907673049 8.0
endloop
endfacet
facet normal 0.0 0.0 1.0
outer loop
vertex 830.503628820697 -279.468395896398 8.0
vertex 830.38208978978 -282.078907673049 8.0
vertex 830.558891110583 -282.458059329068 8.0
endloop
endfacet
facet normal 0.0 0.0 1.0
outer loop
vertex 830.503628820697 -279.468395896398 8.0
vertex 830.558891110583 -282.458059329068 8.0
vertex 831.131894303318 -279.908312123326 8.0
endloop
endfacet
facet normal 0.0 0.0 1.0
outer loop
vertex 831.131894303318 -279.908312123326 8.0
vertex 830.558891110583 -282.458059329068 8.0
vertex 830.667167427926 -282.862152046649 8.0
endloop
endfacet
facet normal 0.0 0.0 1.0
outer loop
vertex 831.131894303318 -279.908312123326 8.0
vertex 830.667167427926 -282.862152046649 8.0
vertex 830.703628820697 -283.278907673049 8.0
endloop
endfacet
facet normal 0.0 0.0 1.0
outer loop
vertex 831.131894303318 -279.908312123326 8.0
vertex 830.703628820697 -283.278907673049 8.0
vertex 831.131894303318 -286.649503222773 8.0
endloop
endfacet
facet normal 0.0 0.0 1.0
outer loop
vertex 831.131894303318 -279.908312123326 8.0
vertex 831.131894303318 -286.649503222773 8.0
vertex 831.67422437042 -286.10717315567 8.0
endloop
endfacet
facet normal 0.0 0.0 1.0
outer loop
vertex 831.131894303318 -279.908312123326 8.0
vertex 831.67422437042 -286.10717315567 8.0
vertex 831.67422437042 -280.450642190429 8.0
endloop
endfacet
facet normal 0.0 0.0 1.0
outer loop
vertex 831.67422437042 -280.450642190429 8.0
vertex 831.67422437042 -286.10717315567 8.0
vertex 832.114140597349 -285.478907673049 8.0
endloop
endfacet
facet normal 0.0 0.0 1.0
outer loop
vertex 831.67422437042 -280.450642190429 8.0
vertex 832.114140597349 -285.478907673049 8.0
vertex 832.114140597349 -281.078907673049 8.0
endloop
endfacet
facet normal 0.0 0.0 1.0
outer loop
vertex 832.114140597349 -281.078907673049 8.0
vertex 832.114140597349 -285.478907673049 8.0
vertex 832.438276352155 -284.783796303682 8.0
endloop
endfacet
facet normal 0.0 0.0 1.0
outer loop
vertex 832.114140597349 -281.078907673049 8.0
vertex 832.438276352155 -284.783796303682 8.0
vertex 832.438276352155 -281.774019042416 8.0
endloop
endfacet
facet normal 0.0 0.0 1.0
outer loop
vertex 832.438276352155 -281.774019042416 8.0
vertex 832.438276352155 -284.783796303682 8.0
vertex 832.636782933951 -284.042959654784 8.0
endloop
endfacet
facet normal 0.0 0.0 1.0
outer loop
vertex 832.438276352155 -281.774019042416 8.0
vertex 832.636782933951 -284.042959654784 8.0
vertex 832.636782933951 -282.514855691315 8.0
endloop
endfacet
facet normal 0.0 0.0 1.0
outer loop
vertex 832.636782933951 -282.514855691315 8.0
vertex 832.636782933951 -284.042959654784 8.0
vertex 832.703628820697 -283.278907673049 8.0
endloop
endfacet
facet normal -0.342020143325689 0.939692620785901 0.0
outer loop
vertex 829.124477164679 -285.534169962936 8.0
vertex 829.503628820697 -285.357368642132 0.0
vertex 829.124477164679 -285.534169962936 0.0
endloop
endfacet
facet normal -0.499999999999927 0.866025403784481 0.0
outer loop
vertex 829.503628820697 -285.357368642132 0.0
vertex 829.124477164679 -285.534169962936 8.0
vertex 829.503628820697 -285.357368642132 8.0
endloop
endfacet
facet normal -0.866025403784478 0.499999999999931 0.0
outer loop
vertex 830.38208978978 -284.478907673049 8.0
vertex 830.142135484183 -284.821597936297 0.0
vertex 830.142135484183 -284.821597936297 8.0
endloop
endfacet
facet normal -0.766044443119034 0.642787609686472 0.0
outer loop
vertex 830.142135484183 -284.821597936297 0.0
vertex 830.38208978978 -284.478907673049 8.0
vertex 830.38208978978 -284.478907673049 0.0
endloop
endfacet
facet normal -0.766044443118953 -0.642787609686569 0.0
outer loop
vertex 824.933033270974 -286.10717315567 8.0
vertex 825.475363338076 -286.649503222773 0.0
vertex 825.475363338076 -286.649503222773 8.0
endloop
endfacet
facet normal -0.642787609686558 -0.766044443118963 0.0
outer loop
vertex 825.475363338076 -286.649503222773 0.0
vertex 824.933033270974 -286.10717315567 8.0
vertex 824.933033270974 -286.10717315567 0.0
endloop
endfacet
facet normal -1.0 0.0 0.0
outer loop
vertex 830.703628820697 -283.278907673049 8.0
vertex 830.667167427926 -283.69566329945 0.0
vertex 830.667167427926 -283.69566329945 8.0
endloop
endfacet
facet normal -0.9848077530122 0.173648177666978 0.0
outer loop
vertex 830.667167427926 -283.69566329945 0.0
vertex 830.703628820697 -283.278907673049 8.0
vertex 830.703628820697 -283.278907673049 0.0
endloop
endfacet
facet normal 1.0 0.0 0.0
outer loop
vertex 832.703628820697 -283.278907673049 0.0
vertex 832.636782933951 -284.042959654784 8.0
vertex 832.636782933951 -284.042959654784 0.0
endloop
endfacet
facet normal 0.984807753012216 -0.173648177666885 0.0
outer loop
vertex 832.636782933951 -284.042959654784 8.0
vertex 832.703628820697 -283.278907673049 0.0
vertex 832.703628820697 -283.278907673049 8.0
endloop
endfacet
facet normal 0.766044443118953 -0.642787609686569 0.0
outer loop
vertex 831.67422437042 -286.10717315567 0.0
vertex 831.131894303318 -286.649503222773 8.0
vertex 831.131894303318 -286.649503222773 0.0
endloop
endfacet
facet normal 0.642787609686558 -0.766044443118963 0.0
outer loop
vertex 831.131894303318 -286.649503222773 8.0
vertex 831.67422437042 -286.10717315567 0.0
vertex 831.67422437042 -286.10717315567 8.0
endloop
endfacet
facet normal -0.766044443119034 -0.642787609686472 0.0
outer loop
vertex 830.142135484183 -281.736217409802 8.0
vertex 830.38208978978 -282.078907673049 0.0
vertex 830.38208978978 -282.078907673049 8.0
endloop
endfacet
facet normal -0.866025403784478 -0.499999999999931 0.0
outer loop
vertex 830.38208978978 -282.078907673049 0.0
vertex 830.142135484183 -281.736217409802 8.0
vertex 830.142135484183 -281.736217409802 0.0
endloop
endfacet
facet normal -0.642787609686469 -0.766044443119037 0.0
outer loop
vertex 829.846319083945 -281.440401009564 8.0
vertex 829.503628820697 -281.200446703967 0.0
vertex 829.846319083945 -281.440401009564 0.0
endloop
endfacet
facet normal -0.499999999999927 -0.866025403784481 0.0
outer loop
vertex 829.503628820697 -281.200446703967 0.0
vertex 829.846319083945 -281.440401009564 8.0
vertex 829.503628820697 -281.200446703967 8.0
endloop
endfacet
facet normal -0.984807753012216 0.173648177666885 0.0
outer loop
vertex 823.970474707443 -282.514855691315 8.0
vertex 823.903628820697 -283.278907673049 0.0
vertex 823.903628820697 -283.278907673049 8.0
endloop
endfacet
facet normal -1.0 0.0 0.0
outer loop
vertex 823.903628820697 -283.278907673049 0.0
vertex 823.970474707443 -282.514855691315 8.0
vertex 823.970474707443 -282.514855691315 0.0
endloop
endfacet
facet normal -0.984807753012216 -0.173648177666885 0.0
outer loop
vertex 823.970474707443 -284.042959654784 8.0
vertex 824.168981289239 -284.783796303682 0.0
vertex 824.168981289239 -284.783796303682 8.0
endloop
endfacet
facet normal -0.939692620785935 -0.342020143325595 0.0
outer loop
vertex 824.168981289239 -284.783796303682 0.0
vertex 823.970474707443 -284.042959654784 8.0
vertex 823.970474707443 -284.042959654784 0.0
endloop
endfacet
facet normal 0.939692620785935 0.342020143325595 0.0
outer loop
vertex 832.438276352155 -281.774019042416 0.0
vertex 832.636782933951 -282.514855691315 8.0
vertex 832.636782933951 -282.514855691315 0.0
endloop
endfacet
facet normal 0.984807753012216 0.173648177666885 0.0
outer loop
vertex 832.636782933951 -282.514855691315 8.0
vertex 832.438276352155 -281.774019042416 0.0
vertex 832.438276352155 -281.774019042416 8.0
endloop
endfacet
facet normal 0.0 -1.0 0.0
outer loop
vertex 828.303628820697 -280.878907673049 8.0
vertex 827.886873194296 -280.91536906582 0.0
vertex 828.303628820697 -280.878907673049 0.0
endloop
endfacet
facet normal 0.173648177666934 -0.984807753012207 0.0
outer loop
vertex 827.886873194296 -280.91536906582 0.0
vertex 828.303628820697 -280.878907673049 8.0
vertex 827.886873194296 -280.91536906582 8.0
endloop
endfacet
facet normal 0.642787609686558 -0.766044443118963 0.0
outer loop
vertex 831.131894303318 -286.649503222773 8.0
vertex 830.503628820697 -287.089419449701 0.0
vertex 831.131894303318 -286.649503222773 0.0
endloop
endfacet
facet normal 0.499999999999991 -0.866025403784444 0.0
outer loop
vertex 830.503628820697 -287.089419449701 0.0
vertex 831.131894303318 -286.649503222773 8.0
vertex 830.503628820697 -287.089419449701 8.0
endloop
endfacet
facet normal -0.342020143325664 0.93969262078591 0.0
outer loop
vertex 826.798740190064 -279.144260141591 8.0
vertex 827.539576838962 -278.945753559796 0.0
vertex 826.798740190064 -279.144260141591 0.0
endloop
endfacet
facet normal -0.173648177666953 0.984807753012204 0.0
outer loop
vertex 827.539576838962 -278.945753559796 0.0
vertex 826.798740190064 -279.144260141591 8.0
vertex 827.539576838962 -278.945753559796 8.0
endloop
endfacet
facet normal -0.939692620785901 0.342020143325689 0.0
outer loop
vertex 830.558891110583 -284.099756017031 8.0
vertex 830.38208978978 -284.478907673049 0.0
vertex 830.38208978978 -284.478907673049 8.0
endloop
endfacet
facet normal -0.866025403784478 0.499999999999931 0.0
outer loop
vertex 830.38208978978 -284.478907673049 0.0
vertex 830.558891110583 -284.099756017031 8.0
vertex 830.558891110583 -284.099756017031 0.0
endloop
endfacet
facet normal -0.866025403784478 -0.499999999999931 0.0
outer loop
vertex 830.38208978978 -282.078907673049 8.0
vertex 830.558891110583 -282.458059329068 0.0
vertex 830.558891110583 -282.458059329068 8.0
endloop
endfacet
facet normal -0.939692620785901 -0.342020143325689 0.0
outer loop
vertex 830.558891110583 -282.458059329068 0.0
vertex 830.38208978978 -282.078907673049 8.0
vertex 830.38208978978 -282.078907673049 0.0
endloop
endfacet
facet normal -0.642787609686469 -0.766044443119037 0.0
outer loop
vertex 829.846319083945 -281.440401009564 8.0
vertex 830.142135484183 -281.736217409802 0.0
vertex 830.142135484183 -281.736217409802 8.0
endloop
endfacet
facet normal -0.766044443119034 -0.642787609686472 0.0
outer loop
vertex 830.142135484183 -281.736217409802 0.0
vertex 829.846319083945 -281.440401009564 8.0
vertex 829.846319083945 -281.440401009564 0.0
endloop
endfacet
facet normal -0.173648177666953 0.984807753012204 0.0
outer loop
vertex 827.539576838962 -278.945753559796 8.0
vertex 828.303628820697 -278.878907673049 0.0
vertex 827.539576838962 -278.945753559796 0.0
endloop
endfacet
facet normal 0.0 1.0 0.0
outer loop
vertex 828.303628820697 -278.878907673049 0.0
vertex 827.539576838962 -278.945753559796 8.0
vertex 828.303628820697 -278.878907673049 8.0
endloop
endfacet
facet normal 0.766044443118953 0.642787609686569 0.0
outer loop
vertex 831.67422437042 -280.450642190429 0.0
vertex 832.114140597349 -281.078907673049 8.0
vertex 832.114140597349 -281.078907673049 0.0
endloop
endfacet
facet normal 0.866025403784438 0.500000000000002 0.0
outer loop
vertex 832.114140597349 -281.078907673049 8.0
vertex 831.67422437042 -280.450642190429 0.0
vertex 831.67422437042 -280.450642190429 8.0
endloop
endfacet
facet normal 0.499999999999991 -0.866025403784444 0.0
outer loop
vertex 830.503628820697 -287.089419449701 8.0
vertex 829.80851745133 -287.413555204507 0.0
vertex 830.503628820697 -287.089419449701 0.0
endloop
endfacet
facet normal 0.342020143325664 -0.93969262078591 0.0
outer loop
vertex 829.80851745133 -287.413555204507 0.0
vertex 830.503628820697 -287.089419449701 8.0
vertex 829.80851745133 -287.413555204507 8.0
endloop
endfacet
facet normal 0.766044443119034 0.642787609686472 0.0
outer loop
vertex 826.465122157211 -284.821597936297 0.0
vertex 826.760938557449 -285.117414336535 8.0
vertex 826.760938557449 -285.117414336535 0.0
endloop
endfacet
facet normal 0.642787609686564 0.766044443118958 0.0
outer loop
vertex 826.760938557449 -285.117414336535 8.0
vertex 826.465122157211 -284.821597936297 0.0
vertex 826.465122157211 -284.821597936297 8.0
endloop
endfacet
facet normal -0.642787609686558 0.766044443118963 0.0
outer loop
vertex 825.475363338076 -279.908312123326 8.0
vertex 824.933033270974 -280.450642190429 0.0
vertex 824.933033270974 -280.450642190429 8.0
endloop
endfacet
facet normal -0.766044443118953 0.642787609686569 0.0
outer loop
vertex 824.933033270974 -280.450642190429 0.0
vertex 825.475363338076 -279.908312123326 8.0
vertex 825.475363338076 -279.908312123326 0.0
endloop
endfacet
facet normal -0.642787609686558 0.766044443118963 0.0
outer loop
vertex 825.475363338076 -279.908312123326 8.0
vertex 826.103628820697 -279.468395896398 0.0
vertex 825.475363338076 -279.908312123326 0.0
endloop
endfacet
facet normal -0.499999999999991 0.866025403784444 0.0
outer loop
vertex 826.103628820697 -279.468395896398 0.0
vertex 825.475363338076 -279.908312123326 8.0
vertex 826.103628820697 -279.468395896398 8.0
endloop
endfacet
facet normal 0.0 1.0 0.0
outer loop
vertex 828.303628820697 -278.878907673049 8.0
vertex 829.067680802431 -278.945753559796 0.0
vertex 828.303628820697 -278.878907673049 0.0
endloop
endfacet
facet normal 0.173648177666953 0.984807753012204 0.0
outer loop
vertex 829.067680802431 -278.945753559796 0.0
vertex 828.303628820697 -278.878907673049 8.0
vertex 829.067680802431 -278.945753559796 8.0
endloop
endfacet
facet normal 0.984807753012216 0.173648177666885 0.0
outer loop
vertex 832.636782933951 -282.514855691315 0.0
vertex 832.703628820697 -283.278907673049 8.0
vertex 832.703628820697 -283.278907673049 0.0
endloop
endfacet
facet normal 1.0 0.0 0.0
outer loop
vertex 832.703628820697 -283.278907673049 8.0
vertex 832.636782933951 -282.514855691315 0.0
vertex 832.636782933951 -282.514855691315 8.0
endloop
endfacet
facet normal -0.499999999999927 0.866025403784481 0.0
outer loop
vertex 829.503628820697 -285.357368642132 8.0
vertex 829.846319083945 -285.117414336535 0.0
vertex 829.503628820697 -285.357368642132 0.0
endloop
endfacet
facet normal -0.642787609686469 0.766044443119037 0.0
outer loop
vertex 829.846319083945 -285.117414336535 0.0
vertex 829.503628820697 -285.357368642132 8.0
vertex 829.846319083945 -285.117414336535 8.0
endloop
endfacet
facet normal 0.0 1.0 0.0
outer loop
vertex 828.303628820697 -285.678907673049 8.0
vertex 828.720384447098 -285.642446280279 0.0
vertex 828.303628820697 -285.678907673049 0.0
endloop
endfacet
facet normal -0.173648177666934 0.984807753012207 0.0
outer loop
vertex 828.720384447098 -285.642446280279 0.0
vertex 828.303628820697 -285.678907673049 8.0
vertex 828.720384447098 -285.642446280279 8.0
endloop
endfacet
facet normal 0.866025403784478 0.499999999999931 0.0
outer loop
vertex 826.225167851614 -284.478907673049 0.0
vertex 826.465122157211 -284.821597936297 8.0
vertex 826.465122157211 -284.821597936297 0.0
endloop
endfacet
facet normal 0.766044443119034 0.642787609686472 0.0
outer loop
vertex 826.465122157211 -284.821597936297 8.0
vertex 826.225167851614 -284.478907673049 0.0
vertex 826.225167851614 -284.478907673049 8.0
endloop
endfacet
facet normal 0.342020143325689 -0.939692620785901 0.0
outer loop
vertex 827.482780476715 -281.023645383163 8.0
vertex 827.103628820697 -281.200446703967 0.0
vertex 827.482780476715 -281.023645383163 0.0
endloop
endfacet
facet normal 0.499999999999927 -0.866025403784481 0.0
outer loop
vertex 827.103628820697 -281.200446703967 0.0
vertex 827.482780476715 -281.023645383163 8.0
vertex 827.103628820697 -281.200446703967 8.0
endloop
endfacet
facet normal 0.866025403784438 0.500000000000002 0.0
outer loop
vertex 832.114140597349 -281.078907673049 0.0
vertex 832.438276352155 -281.774019042416 8.0
vertex 832.438276352155 -281.774019042416 0.0
endloop
endfacet
facet normal 0.939692620785935 0.342020143325595 0.0
outer loop
vertex 832.438276352155 -281.774019042416 8.0
vertex 832.114140597349 -281.078907673049 0.0
vertex 832.114140597349 -281.078907673049 8.0
endloop
endfacet
facet normal 0.0 -1.0 0.0
outer loop
vertex 828.303628820697 -287.678907673049 8.0
vertex 827.539576838962 -287.612061786303 0.0
vertex 828.303628820697 -287.678907673049 0.0
endloop
endfacet
facet normal -0.173648177666953 -0.984807753012204 0.0
outer loop
vertex 827.539576838962 -287.612061786303 0.0
vertex 828.303628820697 -287.678907673049 8.0
vertex 827.539576838962 -287.612061786303 8.0
endloop
endfacet
facet normal 0.939692620785901 0.342020143325689 0.0
outer loop
vertex 826.048366530811 -284.099756017031 0.0
vertex 826.225167851614 -284.478907673049 8.0
vertex 826.225167851614 -284.478907673049 0.0
endloop
endfacet
facet normal 0.866025403784478 0.499999999999931 0.0
outer loop
vertex 826.225167851614 -284.478907673049 8.0
vertex 826.048366530811 -284.099756017031 0.0
vertex 826.048366530811 -284.099756017031 8.0
endloop
endfacet
facet normal -0.499999999999927 -0.866025403784481 0.0
outer loop
vertex 829.503628820697 -281.200446703967 8.0
vertex 829.124477164679 -281.023645383163 0.0
vertex 829.503628820697 -281.200446703967 0.0
endloop
endfacet
facet normal -0.342020143325689 -0.939692620785901 0.0
outer loop
vertex 829.124477164679 -281.023645383163 0.0
vertex 829.503628820697 -281.200446703967 8.0
vertex 829.124477164679 -281.023645383163 8.0
endloop
endfacet
facet normal -1.0 0.0 0.0
outer loop
vertex 823.903628820697 -283.278907673049 8.0
vertex 823.970474707443 -284.042959654784 0.0
vertex 823.970474707443 -284.042959654784 8.0
endloop
endfacet
facet normal -0.984807753012216 -0.173648177666885 0.0
outer loop
vertex 823.970474707443 -284.042959654784 0.0
vertex 823.903628820697 -283.278907673049 8.0
vertex 823.903628820697 -283.278907673049 0.0
endloop
endfacet
facet normal -0.866025403784438 0.500000000000002 0.0
outer loop
vertex 824.493117044045 -281.078907673049 8.0
vertex 824.168981289239 -281.774019042416 0.0
vertex 824.168981289239 -281.774019042416 8.0
endloop
endfacet
facet normal -0.939692620785935 0.342020143325595 0.0
outer loop
vertex 824.168981289239 -281.774019042416 0.0
vertex 824.493117044045 -281.078907673049 8.0
vertex 824.493117044045 -281.078907673049 0.0
endloop
endfacet
facet normal -0.342020143325689 -0.939692620785901 0.0
outer loop
vertex 829.124477164679 -281.023645383163 8.0
vertex 828.720384447098 -280.91536906582 0.0
vertex 829.124477164679 -281.023645383163 0.0
endloop
endfacet
facet normal -0.173648177666934 -0.984807753012207 0.0
outer loop
vertex 828.720384447098 -280.91536906582 0.0
vertex 829.124477164679 -281.023645383163 8.0
vertex 828.720384447098 -280.91536906582 8.0
endloop
endfacet
facet normal 0.939692620785935 -0.342020143325595 0.0
outer loop
vertex 832.438276352155 -284.783796303682 0.0
vertex 832.114140597349 -285.478907673049 8.0
vertex 832.114140597349 -285.478907673049 0.0
endloop
endfacet
facet normal 0.866025403784438 -0.500000000000002 0.0
outer loop
vertex 832.114140597349 -285.478907673049 8.0
vertex 832.438276352155 -284.783796303682 0.0
vertex 832.438276352155 -284.783796303682 8.0
endloop
endfacet
facet normal 0.173648177666934 0.984807753012207 0.0
outer loop
vertex 827.886873194296 -285.642446280279 8.0
vertex 828.303628820697 -285.678907673049 0.0
vertex 827.886873194296 -285.642446280279 0.0
endloop
endfacet
facet normal 0.0 1.0 0.0
outer loop
vertex 828.303628820697 -285.678907673049 0.0
vertex 827.886873194296 -285.642446280279 8.0
vertex 828.303628820697 -285.678907673049 8.0
endloop
endfacet
facet normal 0.984807753012216 -0.173648177666885 0.0
outer loop
vertex 832.636782933951 -284.042959654784 0.0
vertex 832.438276352155 -284.783796303682 8.0
vertex 832.438276352155 -284.783796303682 0.0
endloop
endfacet
facet normal 0.939692620785935 -0.342020143325595 0.0
outer loop
vertex 832.438276352155 -284.783796303682 8.0
vertex 832.636782933951 -284.042959654784 0.0
vertex 832.636782933951 -284.042959654784 8.0
endloop
endfacet
facet normal -0.766044443119034 0.642787609686472 0.0
outer loop
vertex 830.142135484183 -284.821597936297 8.0
vertex 829.846319083945 -285.117414336535 0.0
vertex 829.846319083945 -285.117414336535 8.0
endloop
endfacet
facet normal -0.642787609686469 0.766044443119037 0.0
outer loop
vertex 829.846319083945 -285.117414336535 0.0
vertex 830.142135484183 -284.821597936297 8.0
vertex 830.142135484183 -284.821597936297 0.0
endloop
endfacet
facet normal 0.642787609686469 -0.766044443119037 0.0
outer loop
vertex 826.760938557449 -281.440401009564 0.0
vertex 826.465122157211 -281.736217409802 8.0
vertex 826.465122157211 -281.736217409802 0.0
endloop
endfacet
facet normal 0.766044443119034 -0.642787609686472 0.0
outer loop
vertex 826.465122157211 -281.736217409802 8.0
vertex 826.760938557449 -281.440401009564 0.0
vertex 826.760938557449 -281.440401009564 8.0
endloop
endfacet
facet normal 1.0 0.0 0.0
outer loop
vertex 825.903628820697 -283.278907673049 0.0
vertex 825.940090213468 -283.69566329945 8.0
vertex 825.940090213468 -283.69566329945 0.0
endloop
endfacet
facet normal 0.9848077530122 0.173648177666978 0.0
outer loop
vertex 825.940090213468 -283.69566329945 8.0
vertex 825.903628820697 -283.278907673049 0.0
vertex 825.903628820697 -283.278907673049 8.0
endloop
endfacet
facet normal 0.499999999999927 -0.866025403784481 0.0
outer loop
vertex 827.103628820697 -281.200446703967 8.0
vertex 826.760938557449 -281.440401009564 0.0
vertex 827.103628820697 -281.200446703967 0.0
endloop
endfacet
facet normal 0.642787609686469 -0.766044443119037 0.0
outer loop
vertex 826.760938557449 -281.440401009564 0.0
vertex 827.103628820697 -281.200446703967 8.0
vertex 826.760938557449 -281.440401009564 8.0
endloop
endfacet
facet normal 0.342020143325664 0.93969262078591 0.0
outer loop
vertex 829.80851745133 -279.144260141591 8.0
vertex 830.503628820697 -279.468395896398 0.0
vertex 829.80851745133 -279.144260141591 0.0
endloop
endfacet
facet normal 0.499999999999991 0.866025403784444 0.0
outer loop
vertex 830.503628820697 -279.468395896398 0.0
vertex 829.80851745133 -279.144260141591 8.0
vertex 830.503628820697 -279.468395896398 8.0
endloop
endfacet
facet normal -0.866025403784438 -0.500000000000002 0.0
outer loop
vertex 824.493117044045 -285.478907673049 8.0
vertex 824.933033270974 -286.10717315567 0.0
vertex 824.933033270974 -286.10717315567 8.0
endloop
endfacet
facet normal -0.766044443118953 -0.642787609686569 0.0
outer loop
vertex 824.933033270974 -286.10717315567 0.0
vertex 824.493117044045 -285.478907673049 8.0
vertex 824.493117044045 -285.478907673049 0.0
endloop
endfacet
facet normal -0.173648177666934 0.984807753012207 0.0
outer loop
vertex 828.720384447098 -285.642446280279 8.0
vertex 829.124477164679 -285.534169962936 0.0
vertex 828.720384447098 -285.642446280279 0.0
endloop
endfacet
facet normal -0.342020143325689 0.939692620785901 0.0
outer loop
vertex 829.124477164679 -285.534169962936 0.0
vertex 828.720384447098 -285.642446280279 8.0
vertex 829.124477164679 -285.534169962936 8.0
endloop
endfacet
facet normal -0.939692620785935 0.342020143325595 0.0
outer loop
vertex 824.168981289239 -281.774019042416 8.0
vertex 823.970474707443 -282.514855691315 0.0
vertex 823.970474707443 -282.514855691315 8.0
endloop
endfacet
facet normal -0.984807753012216 0.173648177666885 0.0
outer loop
vertex 823.970474707443 -282.514855691315 0.0
vertex 824.168981289239 -281.774019042416 8.0
vertex 824.168981289239 -281.774019042416 0.0
endloop
endfacet
facet normal -0.499999999999991 -0.866025403784444 0.0
outer loop
vertex 826.103628820697 -287.089419449701 8.0
vertex 825.475363338076 -286.649503222773 0.0
vertex 826.103628820697 -287.089419449701 0.0
endloop
endfacet
facet normal -0.642787609686558 -0.766044443118963 0.0
outer loop
vertex 825.475363338076 -286.649503222773 0.0
vertex 826.103628820697 -287.089419449701 8.0
vertex 825.475363338076 -286.649503222773 8.0
endloop
endfacet
facet normal 0.173648177666953 0.984807753012204 0.0
outer loop
vertex 829.067680802431 -278.945753559796 8.0
vertex 829.80851745133 -279.144260141591 0.0
vertex 829.067680802431 -278.945753559796 0.0
endloop
endfacet
facet normal 0.342020143325664 0.93969262078591 0.0
outer loop
vertex 829.80851745133 -279.144260141591 0.0
vertex 829.067680802431 -278.945753559796 8.0
vertex 829.80851745133 -279.144260141591 8.0
endloop
endfacet
facet normal 0.766044443119034 -0.642787609686472 0.0
outer loop
vertex 826.465122157211 -281.736217409802 0.0
vertex 826.225167851614 -282.078907673049 8.0
vertex 826.225167851614 -282.078907673049 0.0
endloop
endfacet
facet normal 0.866025403784478 -0.499999999999931 0.0
outer loop
vertex 826.225167851614 -282.078907673049 8.0
vertex 826.465122157211 -281.736217409802 0.0
vertex 826.465122157211 -281.736217409802 8.0
endloop
endfacet
facet normal 0.939692620785901 -0.342020143325689 0.0
outer loop
vertex 826.048366530811 -282.458059329068 0.0
vertex 825.940090213468 -282.862152046649 8.0
vertex 825.940090213468 -282.862152046649 0.0
endloop
endfacet
facet normal 0.9848077530122 -0.173648177666978 0.0
outer loop
vertex 825.940090213468 -282.862152046649 8.0
vertex 826.048366530811 -282.458059329068 0.0
vertex 826.048366530811 -282.458059329068 8.0
endloop
endfacet
facet normal 0.9848077530122 0.173648177666978 0.0
outer loop
vertex 825.940090213468 -283.69566329945 0.0
vertex 826.048366530811 -284.099756017031 8.0
vertex 826.048366530811 -284.099756017031 0.0
endloop
endfacet
facet normal 0.939692620785901 0.342020143325689 0.0
outer loop
vertex 826.048366530811 -284.099756017031 8.0
vertex 825.940090213468 -283.69566329945 0.0
vertex 825.940090213468 -283.69566329945 8.0
endloop
endfacet
endsolid K02.2
