solid K02.2
facet normal -0.53675918705533 -7.11996053661674e-14 0.843735488830297
outer loop
vertex -16.2671578593195 710.677754895702 9.84104767917206
vertex -11.023844449643 713.677754895703 13.3758565912616
vertex -16.2671578593196 713.677754895703 9.84104767917218
endloop
endfacet
facet normal -0.580829454965462 -7.28458356210592e-14 0.814025272485151
outer loop
vertex -11.023844449643 713.677754895703 13.3758565912616
vertex -16.2671578593195 710.677754895702 9.84104767917206
vertex -11.0238444496428 710.677754895703 13.3758565912614
endloop
endfacet
facet normal -2.49071038429106e-16 -2.38242626841051e-14 1.0
outer loop
vertex -24.9638476009867 650.677754895701 -25.0723660033402
vertex 9.00196191663539 687.72610013689 -25.0723660033393
vertex -24.9638476009869 687.726100136889 -25.0723660033394
endloop
endfacet
facet normal -2.49071038429106e-16 -2.38242626841051e-14 1.0
outer loop
vertex 9.00196191663539 687.72610013689 -25.0723660033393
vertex -24.9638476009867 650.677754895701 -25.0723660033402
vertex 9.00196191663554 650.677754895701 -25.0723660033402
endloop
endfacet
facet normal 3.8709404619195e-27 1.0 1.20408038237678e-14
outer loop
vertex -50.9638476009869 690.72610013689 -25.0723660033393
vertex -47.9638476009835 690.72610013689 -5.1207112445282
vertex -47.9638476009867 690.72610013689 -25.0723660033402
endloop
endfacet
facet normal 3.8709404619195e-27 1.0 1.20408038237678e-14
outer loop
vertex -47.9638476009835 690.72610013689 -5.1207112445282
vertex -50.9638476009869 690.72610013689 -25.0723660033393
vertex -50.9638476009837 690.72610013689 -5.12071124452724
endloop
endfacet
facet normal -1.60138763759865e-28 1.0 1.32083465514153e-14
outer loop
vertex -27.9638476009868 690.72610013689 -5.12071124452799
vertex 12.0019619166355 690.72610013689 -25.0723660033398
vertex -27.9638476009867 690.72610013689 -25.0723660033402
endloop
endfacet
facet normal -1.60138763759865e-28 1.0 1.32083465514153e-14
outer loop
vertex 12.0019619166355 690.72610013689 -25.0723660033398
vertex -27.9638476009868 690.72610013689 -5.12071124452799
vertex 12.0019619166355 690.72610013689 -5.1207112445275
endloop
endfacet
facet normal 7.68688742154854e-15 -0.939819500722841 0.341671342171201
outer loop
vertex 35.0019619166354 687.6777548957 34.9276324688343
vertex 32.001961916634 686.076005765265 30.5217754880207
vertex 35.0019619166353 686.076005765264 30.5217754880207
endloop
endfacet
facet normal -3.47235480150923e-14 -0.926873470061909 0.375373907584685
outer loop
vertex 32.001961916634 686.076005765265 30.5217754880207
vertex 35.0019619166354 687.6777548957 34.9276324688343
vertex 32.001961916631 687.6777548957 34.9276324688345
endloop
endfacet
facet normal -0.7395293677009 -6.56871065631498e-14 0.673124293357406
outer loop
vertex 7.85766955106844 710.677754895703 30.1397209454249
vertex 3.47836595970043 713.677754895703 25.578042568806
vertex 3.47836595970062 710.677754895703 25.5780425688058
endloop
endfacet
facet normal -0.702721138352035 -7.65341559184657e-14 0.711465390383271
outer loop
vertex 3.47836595970043 713.677754895703 25.578042568806
vertex 7.85766955106844 710.677754895703 30.1397209454249
vertex 7.85766955106824 713.677754895704 30.1397209454251
endloop
endfacet
facet normal -2.86367343287113e-15 -1.32083465514153e-14 1.0
outer loop
vertex -24.9638476009867 650.677754895701 -5.12071124452799
vertex -24.9638476009869 687.72610013689 -5.12071124452711
vertex -27.9638476009867 650.677754895701 -5.12071124452799
endloop
endfacet
facet normal -2.86367343287113e-15 -1.32083465514153e-14 1.0
outer loop
vertex -27.9638476009868 690.72610013689 -5.12071124452799
vertex -24.9638476009869 687.72610013689 -5.12071124452711
vertex 12.0019619166355 690.72610013689 -5.1207112445275
endloop
endfacet
facet normal -2.86367343287113e-15 -1.32083465514153e-14 1.0
outer loop
vertex -24.9638476009869 687.72610013689 -5.12071124452711
vertex -27.9638476009868 690.72610013689 -5.12071124452799
vertex -27.9638476009867 650.677754895701 -5.12071124452799
endloop
endfacet
facet normal -2.86367343287113e-15 -1.32083465514153e-14 1.0
outer loop
vertex 12.0019619166355 690.72610013689 -5.1207112445275
vertex -24.9638476009869 687.72610013689 -5.12071124452711
vertex 9.00196191663535 687.72610013689 -5.12071124452708
endloop
endfacet
facet normal -2.86367343287113e-15 -1.32083465514153e-14 1.0
outer loop
vertex 12.0019619166355 690.72610013689 -5.1207112445275
vertex 9.00196191663535 687.72610013689 -5.12071124452708
vertex 9.0019619166355 650.677754895702 -5.12071124452798
endloop
endfacet
facet normal -2.86367343287113e-15 -1.32083465514153e-14 1.0
outer loop
vertex 12.0019619166355 690.72610013689 -5.1207112445275
vertex 9.0019619166355 650.677754895702 -5.12071124452798
vertex 12.0019619166355 650.677754895701 -5.12071124452798
endloop
endfacet
facet normal 1.6073808950523e-13 -1.20408038237678e-14 1.0
outer loop
vertex -50.9638476009835 650.677754895701 -5.1207112445282
vertex -47.9638476009835 690.72610013689 -5.1207112445282
vertex -50.9638476009837 690.72610013689 -5.12071124452724
endloop
endfacet
facet normal 1.6073808950523e-13 -1.20408038237678e-14 1.0
outer loop
vertex -47.9638476009835 690.72610013689 -5.1207112445282
vertex -50.9638476009835 650.677754895701 -5.1207112445282
vertex -47.9638476009835 650.677754895701 -5.1207112445282
endloop
endfacet
facet normal -0.580829454965463 -7.28458356210592e-14 0.814025272485151
outer loop
vertex -11.0238444496428 710.677754895703 13.3758565912614
vertex -5.9757444301863 713.677754895703 17.1842546469593
vertex -11.023844449643 713.677754895703 13.3758565912616
endloop
endfacet
facet normal -0.623258946188326 -7.42862847334318e-14 0.782015527976406
outer loop
vertex -5.9757444301863 713.677754895703 17.1842546469593
vertex -11.0238444496428 710.677754895703 13.3758565912614
vertex -5.97574443018611 710.677754895703 17.1842546469592
endloop
endfacet
facet normal -6.74165594707923e-15 -1.0 1.72013838038559e-14
outer loop
vertex 32.0019619166323 710.677754895702 -5.12071124452465
vertex -50.9638476009869 710.677754895701 -25.0723660033388
vertex 32.0019619166356 710.677754895701 -25.0723660033402
endloop
endfacet
facet normal -6.74165594707923e-15 -1.0 1.72013838038559e-14
outer loop
vertex -50.9638476009869 710.677754895701 -25.0723660033388
vertex 32.0019619166323 710.677754895702 -5.12071124452465
vertex -50.9638476009869 710.677754895701 -5.12071124452723
endloop
endfacet
facet normal -6.74165594707923e-15 -1.0 1.72013838038559e-14
outer loop
vertex -50.9638476009869 710.677754895701 -5.12071124452723
vertex 32.0019619166323 710.677754895702 -5.12071124452465
vertex -44.8765956768733 710.677754895701 -3.40823538500202
endloop
endfacet
facet normal -6.74165594707923e-15 -1.0 1.72013838038559e-14
outer loop
vertex -44.8765956768733 710.677754895701 -3.40823538500202
vertex 32.0019619166323 710.677754895702 -5.12071124452465
vertex -38.888926997954 710.677754895702 -1.37475724433527
endloop
endfacet
facet normal -6.74165594707923e-15 -1.0 1.72013838038559e-14
outer loop
vertex -38.888926997954 710.677754895702 -1.37475724433527
vertex 32.0019619166323 710.677754895702 -5.12071124452465
vertex -33.0177560424728 710.677754895702 0.973978834622066
endloop
endfacet
facet normal -6.74165594707923e-15 -1.0 1.72013838038559e-14
outer loop
vertex -33.0177560424728 710.677754895702 0.973978834622066
vertex 32.0019619166323 710.677754895702 -5.12071124452465
vertex -27.2796681959477 710.677754895702 3.63133794145013
endloop
endfacet
facet normal -6.74165594707923e-15 -1.0 1.72013838038559e-14
outer loop
vertex -27.2796681959477 710.677754895702 3.63133794145013
vertex 32.0019619166323 710.677754895702 -5.12071124452465
vertex 32.0019619166309 710.6777548957 34.927632468835
endloop
endfacet
facet normal -6.74165594707923e-15 -1.0 1.72013838038559e-14
outer loop
vertex -27.2796681959477 710.677754895702 3.63133794145013
vertex 32.0019619166309 710.6777548957 34.927632468835
vertex -21.6908728993558 710.677754895702 6.58981334102229
endloop
endfacet
facet normal -6.74165594707923e-15 -1.0 1.72013838038559e-14
outer loop
vertex -21.6908728993558 710.677754895702 6.58981334102229
vertex 32.0019619166309 710.6777548957 34.927632468835
vertex -16.2671578593195 710.677754895702 9.84104767917206
endloop
endfacet
facet normal -6.74165594707923e-15 -1.0 1.72013838038559e-14
outer loop
vertex -16.2671578593195 710.677754895702 9.84104767917206
vertex 32.0019619166309 710.6777548957 34.927632468835
vertex -11.0238444496428 710.677754895703 13.3758565912614
endloop
endfacet
facet normal -6.74165594707923e-15 -1.0 1.72013838038559e-14
outer loop
vertex -11.0238444496428 710.677754895703 13.3758565912614
vertex 32.0019619166309 710.6777548957 34.927632468835
vertex -5.97574443018611 710.677754895703 17.1842546469592
endloop
endfacet
facet normal -6.74165594707923e-15 -1.0 1.72013838038559e-14
outer loop
vertex -5.97574443018611 710.677754895703 17.1842546469592
vertex 32.0019619166309 710.6777548957 34.927632468835
vertex -1.13711810534005 710.677754895703 21.2554835579378
endloop
endfacet
facet normal -6.74165594707923e-15 -1.0 1.72013838038559e-14
outer loop
vertex -1.13711810534005 710.677754895703 21.2554835579378
vertex 32.0019619166309 710.6777548957 34.927632468835
vertex 3.47836595970062 710.677754895703 25.5780425688058
endloop
endfacet
facet normal -6.74165594707923e-15 -1.0 1.72013838038559e-14
outer loop
vertex 3.47836595970062 710.677754895703 25.5780425688058
vertex 32.0019619166309 710.6777548957 34.927632468835
vertex 7.85766955106844 710.677754895703 30.1397209454249
endloop
endfacet
facet normal -6.74165594707923e-15 -1.0 1.72013838038559e-14
outer loop
vertex 7.85766955106844 710.677754895703 30.1397209454249
vertex 32.0019619166309 710.6777548957 34.927632468835
vertex 11.988421637684 710.677754895703 34.9276324688349
endloop
endfacet
facet normal 1.0 -3.51008560814291e-14 -1.34517660207959e-15
outer loop
vertex 35.0019619166356 650.677754895702 -28.0723660033402
vertex 35.0019619166327 654.943295092169 -3.17588661372853
vertex 35.0019619166323 650.677754895701 -5.12071124452466
endloop
endfacet
facet normal 1.0 -3.51008560814291e-14 -1.34517660207959e-15
outer loop
vertex 35.0019619166327 654.943295092169 -3.17588661372853
vertex 35.0019619166356 650.677754895702 -28.0723660033402
vertex 35.0019619166353 713.677754895702 -28.0723660033388
endloop
endfacet
facet normal 1.0 -3.51008560814291e-14 -1.34517660207959e-15
outer loop
vertex 35.0019619166327 654.943295092169 -3.17588661372853
vertex 35.0019619166353 713.677754895702 -28.0723660033388
vertex 35.001961916633 659.05740341056 -0.928379381974515
endloop
endfacet
facet normal 1.0 -3.51008560814291e-14 -1.34517660207959e-15
outer loop
vertex 35.001961916633 659.05740341056 -0.928379381974515
vertex 35.0019619166353 713.677754895702 -28.0723660033388
vertex 35.0019619166333 662.998636495085 1.61009610257853
endloop
endfacet
facet normal 1.0 -3.51008560814291e-14 -1.34517660207959e-15
outer loop
vertex 35.0019619166333 662.998636495085 1.61009610257853
vertex 35.0019619166353 713.677754895702 -28.0723660033388
vertex 35.0019619166337 666.746452041866 4.42630892116038
endloop
endfacet
facet normal 1.0 -3.51008560814291e-14 -1.34517660207959e-15
outer loop
vertex 35.0019619166337 666.746452041866 4.42630892116038
vertex 35.0019619166353 713.677754895702 -28.0723660033388
vertex 35.001961916634 670.281315868528 7.50558054594244
endloop
endfacet
facet normal 1.0 -3.51008560814291e-14 -1.34517660207959e-15
outer loop
vertex 35.001961916634 670.281315868528 7.50558054594244
vertex 35.0019619166353 713.677754895702 -28.0723660033388
vertex 35.0019619166342 673.584803729324 10.8318613467483
endloop
endfacet
facet normal 1.0 -3.51008560814291e-14 -1.34517660207959e-15
outer loop
vertex 35.0019619166342 673.584803729324 10.8318613467483
vertex 35.0019619166353 713.677754895702 -28.0723660033388
vertex 35.0019619166345 676.639697345089 14.3878142441577
endloop
endfacet
facet normal 1.0 -3.51008560814291e-14 -1.34517660207959e-15
outer loop
vertex 35.0019619166345 676.639697345089 14.3878142441577
vertex 35.0019619166353 713.677754895702 -28.0723660033388
vertex 35.0019619166347 679.430074147522 18.1549050729905
endloop
endfacet
facet normal 1.0 -3.51008560814291e-14 -1.34517660207959e-15
outer loop
vertex 35.0019619166347 679.430074147522 18.1549050729905
vertex 35.0019619166353 713.677754895702 -28.0723660033388
vertex 35.0019619166349 681.941390270026 22.1134991851835
endloop
endfacet
facet normal 1.0 -3.51008560814291e-14 -1.34517660207959e-15
outer loop
vertex 35.0019619166349 681.941390270026 22.1134991851835
vertex 35.0019619166353 713.677754895702 -28.0723660033388
vertex 35.0019619166351 684.160556352538 26.2429637885505
endloop
endfacet
facet normal 1.0 -3.51008560814291e-14 -1.34517660207959e-15
outer loop
vertex 35.0019619166351 684.160556352538 26.2429637885505
vertex 35.0019619166353 713.677754895702 -28.0723660033388
vertex 35.0019619166353 686.076005765264 30.5217754880207
endloop
endfacet
facet normal 1.0 -3.51008560814291e-14 -1.34517660207959e-15
outer loop
vertex 35.0019619166353 686.076005765264 30.5217754880207
vertex 35.0019619166353 713.677754895702 -28.0723660033388
vertex 35.0019619166354 687.6777548957 34.9276324688343
endloop
endfacet
facet normal 1.0 -3.51008560814291e-14 -1.34517660207959e-15
outer loop
vertex 35.0019619166354 687.6777548957 34.9276324688343
vertex 35.0019619166353 713.677754895702 -28.0723660033388
vertex 35.0019619166353 710.6777548957 34.9276324688349
endloop
endfacet
facet normal 1.0 -3.51008560814291e-14 -1.34517660207959e-15
outer loop
vertex 35.0019619166353 710.6777548957 34.9276324688349
vertex 35.0019619166353 713.677754895702 -28.0723660033388
vertex 35.0019619166353 713.6777548957 34.9276324688349
endloop
endfacet
facet normal 1.0 2.81656229795745e-16 -1.6073808950523e-13
outer loop
vertex -47.9638476009867 690.72610013689 -25.0723660033402
vertex -47.9638476009835 650.677754895701 -5.1207112445282
vertex -47.9638476009867 650.677754895701 -25.0723660033402
endloop
endfacet
facet normal 1.0 2.81656229795745e-16 -1.6073808950523e-13
outer loop
vertex -47.9638476009835 650.677754895701 -5.1207112445282
vertex -47.9638476009867 690.72610013689 -25.0723660033402
vertex -47.9638476009835 690.72610013689 -5.1207112445282
endloop
endfacet
facet normal -5.10149324419992e-16 1.0 -1.82037983909008e-14
outer loop
vertex -50.9638476009869 713.677754895701 -5.1207112445272
vertex 35.0019619166353 713.677754895702 -28.0723660033388
vertex -50.9638476009869 713.677754895702 -28.0723660033388
endloop
endfacet
facet normal -5.10149324419992e-16 1.0 -1.82037983909008e-14
outer loop
vertex 35.0019619166353 713.677754895702 -28.0723660033388
vertex -50.9638476009869 713.677754895701 -5.1207112445272
vertex -44.8765956768735 713.677754895702 -3.4082353850019
endloop
endfacet
facet normal -5.10149324419992e-16 1.0 -1.82037983909008e-14
outer loop
vertex 35.0019619166353 713.677754895702 -28.0723660033388
vertex -44.8765956768735 713.677754895702 -3.4082353850019
vertex -38.8889269979542 713.677754895702 -1.37475724433514
endloop
endfacet
facet normal -5.10149324419992e-16 1.0 -1.82037983909008e-14
outer loop
vertex 35.0019619166353 713.677754895702 -28.0723660033388
vertex -38.8889269979542 713.677754895702 -1.37475724433514
vertex -33.017756042473 713.677754895702 0.973978834622195
endloop
endfacet
facet normal -5.10149324419992e-16 1.0 -1.82037983909008e-14
outer loop
vertex 35.0019619166353 713.677754895702 -28.0723660033388
vertex -33.017756042473 713.677754895702 0.973978834622195
vertex -27.2796681959479 713.677754895702 3.63133794145026
endloop
endfacet
facet normal -5.10149324419992e-16 1.0 -1.82037983909008e-14
outer loop
vertex 35.0019619166353 713.677754895702 -28.0723660033388
vertex -27.2796681959479 713.677754895702 3.63133794145026
vertex 35.0019619166353 713.6777548957 34.9276324688349
endloop
endfacet
facet normal -5.10149324419992e-16 1.0 -1.82037983909008e-14
outer loop
vertex 35.0019619166353 713.6777548957 34.9276324688349
vertex -27.2796681959479 713.677754895702 3.63133794145026
vertex -21.690872899356 713.677754895702 6.58981334102242
endloop
endfacet
facet normal -5.10149324419992e-16 1.0 -1.82037983909008e-14
outer loop
vertex 35.0019619166353 713.6777548957 34.9276324688349
vertex -21.690872899356 713.677754895702 6.58981334102242
vertex -16.2671578593196 713.677754895703 9.84104767917218
endloop
endfacet
facet normal -5.10149324419992e-16 1.0 -1.82037983909008e-14
outer loop
vertex 35.0019619166353 713.6777548957 34.9276324688349
vertex -16.2671578593196 713.677754895703 9.84104767917218
vertex -11.023844449643 713.677754895703 13.3758565912616
endloop
endfacet
facet normal -5.10149324419992e-16 1.0 -1.82037983909008e-14
outer loop
vertex 35.0019619166353 713.6777548957 34.9276324688349
vertex -11.023844449643 713.677754895703 13.3758565912616
vertex -5.9757444301863 713.677754895703 17.1842546469593
endloop
endfacet
facet normal -5.10149324419992e-16 1.0 -1.82037983909008e-14
outer loop
vertex 35.0019619166353 713.6777548957 34.9276324688349
vertex -5.9757444301863 713.677754895703 17.1842546469593
vertex -1.13711810534025 713.677754895703 21.2554835579379
endloop
endfacet
facet normal -5.10149324419992e-16 1.0 -1.82037983909008e-14
outer loop
vertex 35.0019619166353 713.6777548957 34.9276324688349
vertex -1.13711810534025 713.677754895703 21.2554835579379
vertex 3.47836595970043 713.677754895703 25.578042568806
endloop
endfacet
facet normal -5.10149324419992e-16 1.0 -1.82037983909008e-14
outer loop
vertex 35.0019619166353 713.6777548957 34.9276324688349
vertex 3.47836595970043 713.677754895703 25.578042568806
vertex 7.85766955106824 713.677754895704 30.1397209454251
endloop
endfacet
facet normal -5.10149324419992e-16 1.0 -1.82037983909008e-14
outer loop
vertex 35.0019619166353 713.6777548957 34.9276324688349
vertex 7.85766955106824 713.677754895704 30.1397209454251
vertex 11.988421637684 713.677754895703 34.927632468835
endloop
endfacet
facet normal 2.77531711232313e-15 -1.13416455919167e-14 1.0
outer loop
vertex -27.9638476009867 650.677754895701 -25.0723660033402
vertex -27.9638476009867 690.72610013689 -25.0723660033402
vertex -47.9638476009867 650.677754895701 -25.0723660033402
endloop
endfacet
facet normal 2.77531711232313e-15 -1.13416455919167e-14 1.0
outer loop
vertex -50.9638476009869 690.72610013689 -25.0723660033393
vertex 32.0019619166356 710.677754895701 -25.0723660033402
vertex -50.9638476009869 710.677754895701 -25.0723660033388
endloop
endfacet
facet normal 2.77531711232313e-15 -1.13416455919167e-14 1.0
outer loop
vertex 32.0019619166356 710.677754895701 -25.0723660033402
vertex -50.9638476009869 690.72610013689 -25.0723660033393
vertex -47.9638476009867 690.72610013689 -25.0723660033402
endloop
endfacet
facet normal 2.77531711232313e-15 -1.13416455919167e-14 1.0
outer loop
vertex 32.0019619166356 710.677754895701 -25.0723660033402
vertex -47.9638476009867 690.72610013689 -25.0723660033402
vertex -27.9638476009867 690.72610013689 -25.0723660033402
endloop
endfacet
facet normal 2.77531711232313e-15 -1.13416455919167e-14 1.0
outer loop
vertex -27.9638476009867 690.72610013689 -25.0723660033402
vertex -47.9638476009867 690.72610013689 -25.0723660033402
vertex -47.9638476009867 650.677754895701 -25.0723660033402
endloop
endfacet
facet normal 2.77531711232313e-15 -1.13416455919167e-14 1.0
outer loop
vertex 32.0019619166356 710.677754895701 -25.0723660033402
vertex -27.9638476009867 690.72610013689 -25.0723660033402
vertex 12.0019619166355 690.72610013689 -25.0723660033398
endloop
endfacet
facet normal 2.77531711232313e-15 -1.13416455919167e-14 1.0
outer loop
vertex 32.0019619166356 710.677754895701 -25.0723660033402
vertex 12.0019619166355 690.72610013689 -25.0723660033398
vertex 12.0019619166356 650.677754895701 -25.0723660033402
endloop
endfacet
facet normal 2.77531711232313e-15 -1.13416455919167e-14 1.0
outer loop
vertex 32.0019619166356 710.677754895701 -25.0723660033402
vertex 12.0019619166356 650.677754895701 -25.0723660033402
vertex 32.0019619166356 650.677754895701 -25.0723660033402
endloop
endfacet
facet normal -0.491172635917364 -6.93522443806822e-14 0.871062249053412
outer loop
vertex -21.6908728993558 710.677754895702 6.58981334102229
vertex -16.2671578593196 713.677754895703 9.84104767917218
vertex -21.690872899356 713.677754895702 6.58981334102242
endloop
endfacet
facet normal -0.536759187055332 -7.11996053661675e-14 0.843735488830297
outer loop
vertex -16.2671578593196 713.677754895703 9.84104767917218
vertex -21.6908728993558 710.677754895702 6.58981334102229
vertex -16.2671578593195 710.677754895702 9.84104767917206
endloop
endfacet
facet normal -0.444198578337449 -6.73089712478069e-14 0.89592835818663
outer loop
vertex -27.2796681959477 710.677754895702 3.63133794145013
vertex -21.690872899356 713.677754895702 6.58981334102242
vertex -27.2796681959479 713.677754895702 3.63133794145026
endloop
endfacet
facet normal -0.491172635917365 -6.93522443806822e-14 0.871062249053412
outer loop
vertex -21.690872899356 713.677754895702 6.58981334102242
vertex -27.2796681959477 710.677754895702 3.63133794145013
vertex -21.6908728993558 710.677754895702 6.58981334102229
endloop
endfacet
facet normal 4.51194637207006e-14 -2.35405897673562e-14 1.0
outer loop
vertex 32.001961916631 687.6777548957 34.9276324688345
vertex 35.0019619166353 710.6777548957 34.9276324688349
vertex 32.0019619166309 710.6777548957 34.927632468835
endloop
endfacet
facet normal 4.51194637207006e-14 -2.35405897673562e-14 1.0
outer loop
vertex 35.0019619166353 710.6777548957 34.9276324688349
vertex 32.001961916631 687.6777548957 34.9276324688345
vertex 35.0019619166354 687.6777548957 34.9276324688343
endloop
endfacet
facet normal -0.663927802270712 -7.55168835995189e-14 0.74779667916619
outer loop
vertex -1.13711810534005 710.677754895703 21.2554835579378
vertex 3.47836595970043 713.677754895703 25.578042568806
vertex -1.13711810534025 713.677754895703 21.2554835579379
endloop
endfacet
facet normal -0.702721138352035 -7.65341559184657e-14 0.711465390383271
outer loop
vertex 3.47836595970043 713.677754895703 25.578042568806
vertex -1.13711810534005 710.677754895703 21.2554835579378
vertex 3.47836595970062 710.677754895703 25.5780425688058
endloop
endfacet
facet normal 4.76702752930309e-15 -1.0 -8.77371530067189e-16
outer loop
vertex -50.9638476009867 650.677754895702 -28.0723660033402
vertex -47.9638476009867 650.677754895701 -25.0723660033402
vertex -50.9638476009835 650.677754895701 -5.1207112445282
endloop
endfacet
facet normal 4.76702752930309e-15 -1.0 -8.77371530067189e-16
outer loop
vertex -47.9638476009867 650.677754895701 -25.0723660033402
vertex -50.9638476009867 650.677754895702 -28.0723660033402
vertex 35.0019619166356 650.677754895702 -28.0723660033402
endloop
endfacet
facet normal 4.76702752930309e-15 -1.0 -8.77371530067189e-16
outer loop
vertex -50.9638476009835 650.677754895701 -5.1207112445282
vertex -47.9638476009867 650.677754895701 -25.0723660033402
vertex -47.9638476009835 650.677754895701 -5.1207112445282
endloop
endfacet
facet normal 4.76702752930309e-15 -1.0 -8.77371530067189e-16
outer loop
vertex 35.0019619166356 650.677754895702 -28.0723660033402
vertex -24.9638476009867 650.677754895701 -25.0723660033402
vertex -47.9638476009867 650.677754895701 -25.0723660033402
endloop
endfacet
facet normal 4.76702752930309e-15 -1.0 -8.77371530067189e-16
outer loop
vertex -24.9638476009867 650.677754895701 -25.0723660033402
vertex 35.0019619166356 650.677754895702 -28.0723660033402
vertex 32.0019619166356 650.677754895701 -25.0723660033402
endloop
endfacet
facet normal 4.76702752930309e-15 -1.0 -8.77371530067189e-16
outer loop
vertex 32.0019619166356 650.677754895701 -25.0723660033402
vertex 35.0019619166356 650.677754895702 -28.0723660033402
vertex 35.0019619166323 650.677754895701 -5.12071124452466
endloop
endfacet
facet normal 4.76702752930309e-15 -1.0 -8.77371530067189e-16
outer loop
vertex -24.9638476009867 650.677754895701 -25.0723660033402
vertex 32.0019619166356 650.677754895701 -25.0723660033402
vertex 12.0019619166356 650.677754895701 -25.0723660033402
endloop
endfacet
facet normal 4.76702752930309e-15 -1.0 -8.77371530067189e-16
outer loop
vertex 32.0019619166356 650.677754895701 -25.0723660033402
vertex 35.0019619166323 650.677754895701 -5.12071124452466
vertex 32.0019619166323 650.677754895702 -5.12071124452466
endloop
endfacet
facet normal 4.76702752930309e-15 -1.0 -8.77371530067189e-16
outer loop
vertex 12.0019619166356 650.677754895701 -25.0723660033402
vertex 9.00196191663554 650.677754895701 -25.0723660033402
vertex -24.9638476009867 650.677754895701 -25.0723660033402
endloop
endfacet
facet normal 4.76702752930309e-15 -1.0 -8.77371530067189e-16
outer loop
vertex 9.00196191663554 650.677754895701 -25.0723660033402
vertex 12.0019619166356 650.677754895701 -25.0723660033402
vertex 12.0019619166355 650.677754895701 -5.12071124452798
endloop
endfacet
facet normal 4.76702752930309e-15 -1.0 -8.77371530067189e-16
outer loop
vertex 9.00196191663554 650.677754895701 -25.0723660033402
vertex 12.0019619166355 650.677754895701 -5.12071124452798
vertex 9.0019619166355 650.677754895702 -5.12071124452798
endloop
endfacet
facet normal 4.76702752930309e-15 -1.0 -8.77371530067189e-16
outer loop
vertex -24.9638476009867 650.677754895701 -25.0723660033402
vertex -27.9638476009867 650.677754895701 -25.0723660033402
vertex -47.9638476009867 650.677754895701 -25.0723660033402
endloop
endfacet
facet normal 4.76702752930309e-15 -1.0 -8.77371530067189e-16
outer loop
vertex -27.9638476009867 650.677754895701 -25.0723660033402
vertex -24.9638476009867 650.677754895701 -25.0723660033402
vertex -24.9638476009867 650.677754895701 -5.12071124452799
endloop
endfacet
facet normal 4.76702752930309e-15 -1.0 -8.77371530067189e-16
outer loop
vertex -27.9638476009867 650.677754895701 -25.0723660033402
vertex -24.9638476009867 650.677754895701 -5.12071124452799
vertex -27.9638476009867 650.677754895701 -5.12071124452799
endloop
endfacet
facet normal -0.623258946188327 -7.42862847334318e-14 0.782015527976406
outer loop
vertex -5.97574443018611 710.677754895703 17.1842546469592
vertex -1.13711810534025 713.677754895703 21.2554835579379
vertex -5.9757444301863 713.677754895703 17.1842546469593
endloop
endfacet
facet normal -0.663927802270713 -7.55168835995189e-14 0.74779667916619
outer loop
vertex -1.13711810534025 713.677754895703 21.2554835579379
vertex -5.97574443018611 710.677754895703 17.1842546469592
vertex -1.13711810534005 710.677754895703 21.2554835579378
endloop
endfacet
facet normal 1.9255544553956e-17 -1.12616656533578e-14 1.0
outer loop
vertex 11.988421637684 710.677754895703 34.9276324688349
vertex 35.0019619166353 713.6777548957 34.9276324688349
vertex 11.988421637684 713.677754895703 34.927632468835
endloop
endfacet
facet normal 1.9255544553956e-17 -1.12616656533578e-14 1.0
outer loop
vertex 35.0019619166353 713.6777548957 34.9276324688349
vertex 11.988421637684 710.677754895703 34.9276324688349
vertex 32.0019619166309 710.6777548957 34.927632468835
endloop
endfacet
facet normal 1.9255544553956e-17 -1.12616656533578e-14 1.0
outer loop
vertex 35.0019619166353 713.6777548957 34.9276324688349
vertex 32.0019619166309 710.6777548957 34.927632468835
vertex 35.0019619166353 710.6777548957 34.9276324688349
endloop
endfacet
facet normal -3.47235480151015e-14 -0.926873470061906 0.375373907584692
outer loop
vertex 35.0019619166353 686.076005765264 30.5217754880207
vertex 32.0019619166339 684.160556352539 26.2429637885505
vertex 35.0019619166351 684.160556352538 26.2429637885505
endloop
endfacet
facet normal -7.5792930794161e-14 -0.897375423399023 0.441267888565918
outer loop
vertex 32.0019619166339 684.160556352539 26.2429637885505
vertex 35.0019619166353 686.076005765264 30.5217754880207
vertex 32.001961916634 686.076005765265 30.5217754880207
endloop
endfacet
facet normal -6.20383276855594e-14 -0.734508138937236 0.678599877567744
outer loop
vertex 35.0019619166342 673.584803729324 10.8318613467483
vertex 32.0019619166327 670.281315868529 7.50558054594244
vertex 35.001961916634 670.281315868528 7.50558054594244
endloop
endfacet
facet normal -5.77417881575112e-14 -0.683634209080054 0.729824820196936
outer loop
vertex 32.0019619166327 670.281315868529 7.50558054594244
vertex 35.0019619166342 673.584803729324 10.8318613467483
vertex 32.001961916633 673.584803729324 10.8318613467483
endloop
endfacet
facet normal 6.79677210611061e-15 -1.0 3.41150572067719e-15
outer loop
vertex 9.00196191663539 687.72610013689 -25.0723660033393
vertex -24.9638476009869 687.72610013689 -5.12071124452711
vertex -24.9638476009869 687.726100136889 -25.0723660033394
endloop
endfacet
facet normal 6.79677210611061e-15 -1.0 3.41150572067719e-15
outer loop
vertex -24.9638476009869 687.72610013689 -5.12071124452711
vertex 9.00196191663539 687.72610013689 -25.0723660033393
vertex 9.00196191663535 687.72610013689 -5.12071124452708
endloop
endfacet
facet normal -7.29067852049388e-14 -0.863200120089152 0.504861914465801
outer loop
vertex 35.0019619166349 681.941390270026 22.1134991851835
vertex 32.0019619166334 679.430074147523 18.1549050729905
vertex 35.0019619166347 679.430074147522 18.1549050729905
endloop
endfacet
facet normal -6.96406384068363e-14 -0.824525686990229 0.565824523587738
outer loop
vertex 32.0019619166334 679.430074147523 18.1549050729905
vertex 35.0019619166349 681.941390270026 22.1134991851835
vertex 32.0019619166337 681.941390270026 22.1134991851835
endloop
endfacet
facet normal -0.2962956688817 -4.84058208448672e-14 0.955096265620354
outer loop
vertex -44.8765956768733 710.677754895701 -3.40823538500202
vertex -38.8889269979542 713.677754895702 -1.37475724433514
vertex -44.8765956768735 713.677754895702 -3.4082353850019
endloop
endfacet
facet normal -0.346622273877321 -6.26583137143197e-14 0.938004797030439
outer loop
vertex -38.8889269979542 713.677754895702 -1.37475724433514
vertex -44.8765956768733 710.677754895701 -3.40823538500202
vertex -38.888926997954 710.677754895702 -1.37475724433527
endloop
endfacet
facet normal -1.0 -4.14001436286544e-15 -1.82097984904966e-15
outer loop
vertex 9.0019619166355 650.677754895702 -5.12071124452798
vertex 9.00196191663539 687.72610013689 -25.0723660033393
vertex 9.00196191663554 650.677754895701 -25.0723660033402
endloop
endfacet
facet normal -1.0 -4.14001436286544e-15 -1.82097984904966e-15
outer loop
vertex 9.00196191663539 687.72610013689 -25.0723660033393
vertex 9.0019619166355 650.677754895702 -5.12071124452798
vertex 9.00196191663535 687.72610013689 -5.12071124452708
endloop
endfacet
facet normal -6.96406384068362e-14 -0.824525686990229 0.565824523587739
outer loop
vertex 35.0019619166347 679.430074147522 18.1549050729905
vertex 32.0019619166332 676.639697345089 14.3878142441577
vertex 35.0019619166345 676.639697345089 14.3878142441577
endloop
endfacet
facet normal -6.60115140517427e-14 -0.781553701106225 0.623837969577968
outer loop
vertex 32.0019619166332 676.639697345089 14.3878142441577
vertex 35.0019619166347 679.430074147522 18.1549050729905
vertex 32.0019619166334 679.430074147523 18.1549050729905
endloop
endfacet
facet normal -7.5792930794161e-14 -0.897375423399023 0.441267888565918
outer loop
vertex 35.0019619166351 684.160556352538 26.2429637885505
vertex 32.0019619166337 681.941390270026 22.1134991851835
vertex 35.0019619166349 681.941390270026 22.1134991851835
endloop
endfacet
facet normal -7.29067852049388e-14 -0.863200120089152 0.504861914465801
outer loop
vertex 32.0019619166337 681.941390270026 22.1134991851835
vertex 35.0019619166351 684.160556352538 26.2429637885505
vertex 32.0019619166339 684.160556352539 26.2429637885505
endloop
endfacet
facet normal -2.49622486341541e-14 -0.414853255897279 0.909888331649234
outer loop
vertex 32.0019619166323 650.677754895702 -5.12071124452466
vertex 35.0019619166327 654.943295092169 -3.17588661372853
vertex 32.0019619166314 654.94329509217 -3.17588661372853
endloop
endfacet
facet normal -3.27497808163781e-14 -0.447427682522247 0.894320115457978
outer loop
vertex 35.0019619166327 654.943295092169 -3.17588661372853
vertex 32.0019619166323 650.677754895702 -5.12071124452466
vertex 35.0019619166323 650.677754895701 -5.12071124452466
endloop
endfacet
facet normal -6.60115140517426e-14 -0.781553701106225 0.623837969577968
outer loop
vertex 35.0019619166345 676.639697345089 14.3878142441577
vertex 32.001961916633 673.584803729324 10.8318613467483
vertex 35.0019619166342 673.584803729324 10.8318613467483
endloop
endfacet
facet normal -6.20383276855595e-14 -0.734508138937237 0.678599877567744
outer loop
vertex 32.001961916633 673.584803729324 10.8318613467483
vertex 35.0019619166345 676.639697345089 14.3878142441577
vertex 32.0019619166332 676.639697345089 14.3878142441577
endloop
endfacet
facet normal -4.82697951189945e-14 -0.571480468782175 0.820615667532923
outer loop
vertex 35.0019619166333 662.998636495085 1.61009610257853
vertex 32.0019619166324 666.746452041866 4.42630892116038
vertex 32.0019619166321 662.998636495085 1.61009610257853
endloop
endfacet
facet normal -5.3144289682486e-14 -0.62919707416381 0.777245805304668
outer loop
vertex 32.0019619166324 666.746452041866 4.42630892116038
vertex 35.0019619166333 662.998636495085 1.61009610257853
vertex 35.0019619166337 666.746452041866 4.42630892116038
endloop
endfacet
facet normal -4.3143711071122e-14 -0.510785220625691 0.859708356589817
outer loop
vertex 35.001961916633 659.05740341056 -0.928379381974515
vertex 32.0019619166321 662.998636495085 1.61009610257853
vertex 32.0019619166317 659.05740341056 -0.92837938197451
endloop
endfacet
facet normal -4.82697951189946e-14 -0.571480468782176 0.820615667532923
outer loop
vertex 32.0019619166321 662.998636495085 1.61009610257853
vertex 35.001961916633 659.05740341056 -0.928379381974515
vertex 35.0019619166333 662.998636495085 1.61009610257853
endloop
endfacet
facet normal -3.27497808163781e-14 -0.447427682522247 0.894320115457978
outer loop
vertex 35.0019619166327 654.943295092169 -3.17588661372853
vertex 32.0019619166317 659.05740341056 -0.92837938197451
vertex 32.0019619166314 654.94329509217 -3.17588661372853
endloop
endfacet
facet normal -4.31437110711221e-14 -0.510785220625692 0.859708356589816
outer loop
vertex 32.0019619166317 659.05740341056 -0.92837938197451
vertex 35.0019619166327 654.943295092169 -3.17588661372853
vertex 35.001961916633 659.05740341056 -0.928379381974515
endloop
endfacet
facet normal -1.0 -3.30955157969157e-14 7.2593156488943e-14
outer loop
vertex -50.9638476009837 690.72610013689 -5.12071124452724
vertex -50.9638476009867 650.677754895702 -28.0723660033402
vertex -50.9638476009835 650.677754895701 -5.1207112445282
endloop
endfacet
facet normal -1.0 -3.30955157969157e-14 7.2593156488943e-14
outer loop
vertex -50.9638476009867 650.677754895702 -28.0723660033402
vertex -50.9638476009837 690.72610013689 -5.12071124452724
vertex -50.9638476009869 690.72610013689 -25.0723660033393
endloop
endfacet
facet normal -1.0 -3.30955157969157e-14 7.2593156488943e-14
outer loop
vertex -50.9638476009869 690.72610013689 -25.0723660033393
vertex -50.9638476009869 713.677754895702 -28.0723660033388
vertex -50.9638476009867 650.677754895702 -28.0723660033402
endloop
endfacet
facet normal -1.0 -3.30955157969157e-14 7.2593156488943e-14
outer loop
vertex -50.9638476009869 713.677754895702 -28.0723660033388
vertex -50.9638476009869 690.72610013689 -25.0723660033393
vertex -50.9638476009869 710.677754895701 -25.0723660033388
endloop
endfacet
facet normal -1.0 -3.30955157969157e-14 7.2593156488943e-14
outer loop
vertex -50.9638476009869 713.677754895702 -28.0723660033388
vertex -50.9638476009869 710.677754895701 -25.0723660033388
vertex -50.9638476009869 710.677754895701 -5.12071124452723
endloop
endfacet
facet normal -1.0 -3.30955157969157e-14 7.2593156488943e-14
outer loop
vertex -50.9638476009869 713.677754895702 -28.0723660033388
vertex -50.9638476009869 710.677754895701 -5.12071124452723
vertex -50.9638476009869 713.677754895701 -5.1207112445272
endloop
endfacet
facet normal -0.346622273877322 -6.26583137143198e-14 0.938004797030439
outer loop
vertex -38.888926997954 710.677754895702 -1.37475724433527
vertex -33.017756042473 713.677754895702 0.973978834622195
vertex -38.8889269979542 713.677754895702 -1.37475724433514
endloop
endfacet
facet normal -0.39596971064826 -6.50755579801241e-14 0.918263572319589
outer loop
vertex -33.017756042473 713.677754895702 0.973978834622195
vertex -38.888926997954 710.677754895702 -1.37475724433527
vertex -33.0177560424728 710.677754895702 0.973978834622066
endloop
endfacet
facet normal -0.270809508338941 -3.53945813505394e-14 0.96263295715097
outer loop
vertex -50.9638476009869 710.677754895701 -5.12071124452723
vertex -44.8765956768735 713.677754895702 -3.4082353850019
vertex -50.9638476009869 713.677754895701 -5.1207112445272
endloop
endfacet
facet normal -0.296295668881699 -4.84058208448669e-14 0.955096265620354
outer loop
vertex -44.8765956768735 713.677754895702 -3.4082353850019
vertex -50.9638476009869 710.677754895701 -5.12071124452723
vertex -44.8765956768733 710.677754895701 -3.40823538500202
endloop
endfacet
facet normal 1.31213397436466e-16 2.30073455877717e-14 -1.0
outer loop
vertex 35.0019619166353 713.677754895702 -28.0723660033388
vertex -50.9638476009867 650.677754895702 -28.0723660033402
vertex -50.9638476009869 713.677754895702 -28.0723660033388
endloop
endfacet
facet normal 1.31213397436466e-16 2.30073455877717e-14 -1.0
outer loop
vertex -50.9638476009867 650.677754895702 -28.0723660033402
vertex 35.0019619166353 713.677754895702 -28.0723660033388
vertex 35.0019619166356 650.677754895702 -28.0723660033402
endloop
endfacet
facet normal -5.31442896824859e-14 -0.629197074163809 0.777245805304668
outer loop
vertex 35.0019619166337 666.746452041866 4.42630892116038
vertex 32.0019619166327 670.281315868529 7.50558054594244
vertex 32.0019619166324 666.746452041866 4.42630892116038
endloop
endfacet
facet normal -5.77417881575112e-14 -0.683634209080054 0.729824820196936
outer loop
vertex 32.0019619166327 670.281315868529 7.50558054594244
vertex 35.0019619166337 666.746452041866 4.42630892116038
vertex 35.001961916634 670.281315868528 7.50558054594244
endloop
endfacet
facet normal -0.395969710648261 -6.50755579801241e-14 0.918263572319589
outer loop
vertex -33.0177560424728 710.677754895702 0.973978834622066
vertex -27.2796681959479 713.677754895702 3.63133794145026
vertex -33.017756042473 713.677754895702 0.973978834622195
endloop
endfacet
facet normal -0.444198578337448 -6.73089712478069e-14 0.89592835818663
outer loop
vertex -27.2796681959479 713.677754895702 3.63133794145026
vertex -33.0177560424728 710.677754895702 0.973978834622066
vertex -27.2796681959477 710.677754895702 3.63133794145013
endloop
endfacet
facet normal -0.757156346708695 -5.43659424700886e-14 0.65323369986456
outer loop
vertex 11.988421637684 713.677754895703 34.927632468835
vertex 7.85766955106844 710.677754895703 30.1397209454249
vertex 11.988421637684 710.677754895703 34.9276324688349
endloop
endfacet
facet normal -0.7395293677009 -6.56871065631498e-14 0.673124293357406
outer loop
vertex 7.85766955106844 710.677754895703 30.1397209454249
vertex 11.988421637684 713.677754895703 34.927632468835
vertex 7.85766955106824 713.677754895704 30.1397209454251
endloop
endfacet
facet normal -1.0 -2.81656229795745e-16 -2.86367343287113e-15
outer loop
vertex -27.9638476009867 650.677754895701 -5.12071124452799
vertex -27.9638476009867 690.72610013689 -25.0723660033402
vertex -27.9638476009867 650.677754895701 -25.0723660033402
endloop
endfacet
facet normal -1.0 -2.81656229795745e-16 -2.86367343287113e-15
outer loop
vertex -27.9638476009867 690.72610013689 -25.0723660033402
vertex -27.9638476009867 650.677754895701 -5.12071124452799
vertex -27.9638476009868 690.72610013689 -5.12071124452799
endloop
endfacet
facet normal 1.0 2.11242172346775e-16 2.86367343287113e-15
outer loop
vertex 12.0019619166355 690.72610013689 -25.0723660033398
vertex 12.0019619166355 650.677754895701 -5.12071124452798
vertex 12.0019619166356 650.677754895701 -25.0723660033402
endloop
endfacet
facet normal 1.0 2.11242172346775e-16 2.86367343287113e-15
outer loop
vertex 12.0019619166355 650.677754895701 -5.12071124452798
vertex 12.0019619166355 690.72610013689 -25.0723660033398
vertex 12.0019619166355 690.72610013689 -5.1207112445275
endloop
endfacet
facet normal 1.0 5.96679488816421e-15 2.95169968823588e-15
outer loop
vertex -24.9638476009869 687.726100136889 -25.0723660033394
vertex -24.9638476009867 650.677754895701 -5.12071124452799
vertex -24.9638476009867 650.677754895701 -25.0723660033402
endloop
endfacet
facet normal 1.0 5.96679488816421e-15 2.95169968823588e-15
outer loop
vertex -24.9638476009867 650.677754895701 -5.12071124452799
vertex -24.9638476009869 687.726100136889 -25.0723660033394
vertex -24.9638476009869 687.72610013689 -5.12071124452711
endloop
endfacet
facet normal -1.0 1.39577179954249e-14 -3.6506152998393e-14
outer loop
vertex 32.0019619166323 650.677754895702 -5.12071124452466
vertex 32.0019619166356 710.677754895701 -25.0723660033402
vertex 32.0019619166356 650.677754895701 -25.0723660033402
endloop
endfacet
facet normal -1.0 1.39577179954249e-14 -3.6506152998393e-14
outer loop
vertex 32.0019619166356 710.677754895701 -25.0723660033402
vertex 32.0019619166323 650.677754895702 -5.12071124452466
vertex 32.0019619166314 654.94329509217 -3.17588661372853
endloop
endfacet
facet normal -1.0 1.39577179954249e-14 -3.6506152998393e-14
outer loop
vertex 32.0019619166356 710.677754895701 -25.0723660033402
vertex 32.0019619166314 654.94329509217 -3.17588661372853
vertex 32.0019619166317 659.05740341056 -0.92837938197451
endloop
endfacet
facet normal -1.0 1.39577179954249e-14 -3.6506152998393e-14
outer loop
vertex 32.0019619166356 710.677754895701 -25.0723660033402
vertex 32.0019619166317 659.05740341056 -0.92837938197451
vertex 32.0019619166321 662.998636495085 1.61009610257853
endloop
endfacet
facet normal -1.0 1.39577179954249e-14 -3.6506152998393e-14
outer loop
vertex 32.0019619166356 710.677754895701 -25.0723660033402
vertex 32.0019619166321 662.998636495085 1.61009610257853
vertex 32.0019619166324 666.746452041866 4.42630892116038
endloop
endfacet
facet normal -1.0 1.39577179954249e-14 -3.6506152998393e-14
outer loop
vertex 32.0019619166356 710.677754895701 -25.0723660033402
vertex 32.0019619166324 666.746452041866 4.42630892116038
vertex 32.0019619166327 670.281315868529 7.50558054594244
endloop
endfacet
facet normal -1.0 1.39577179954249e-14 -3.6506152998393e-14
outer loop
vertex 32.0019619166356 710.677754895701 -25.0723660033402
vertex 32.0019619166327 670.281315868529 7.50558054594244
vertex 32.001961916633 673.584803729324 10.8318613467483
endloop
endfacet
facet normal -1.0 1.39577179954249e-14 -3.6506152998393e-14
outer loop
vertex 32.0019619166356 710.677754895701 -25.0723660033402
vertex 32.001961916633 673.584803729324 10.8318613467483
vertex 32.0019619166332 676.639697345089 14.3878142441577
endloop
endfacet
facet normal -1.0 1.39577179954249e-14 -3.6506152998393e-14
outer loop
vertex 32.0019619166356 710.677754895701 -25.0723660033402
vertex 32.0019619166332 676.639697345089 14.3878142441577
vertex 32.0019619166334 679.430074147523 18.1549050729905
endloop
endfacet
facet normal -1.0 1.39577179954249e-14 -3.6506152998393e-14
outer loop
vertex 32.0019619166356 710.677754895701 -25.0723660033402
vertex 32.0019619166334 679.430074147523 18.1549050729905
vertex 32.0019619166337 681.941390270026 22.1134991851835
endloop
endfacet
facet normal -1.0 1.39577179954249e-14 -3.6506152998393e-14
outer loop
vertex 32.0019619166356 710.677754895701 -25.0723660033402
vertex 32.0019619166337 681.941390270026 22.1134991851835
vertex 32.0019619166339 684.160556352539 26.2429637885505
endloop
endfacet
facet normal -1.0 1.39577179954249e-14 -3.6506152998393e-14
outer loop
vertex 32.0019619166356 710.677754895701 -25.0723660033402
vertex 32.0019619166339 684.160556352539 26.2429637885505
vertex 32.001961916634 686.076005765265 30.5217754880207
endloop
endfacet
facet normal -1.0 1.39577179954249e-14 -3.6506152998393e-14
outer loop
vertex 32.0019619166356 710.677754895701 -25.0723660033402
vertex 32.001961916634 686.076005765265 30.5217754880207
vertex 32.001961916631 687.6777548957 34.9276324688345
endloop
endfacet
facet normal -1.0 1.39577179954249e-14 -3.6506152998393e-14
outer loop
vertex 32.0019619166356 710.677754895701 -25.0723660033402
vertex 32.001961916631 687.6777548957 34.9276324688345
vertex 32.0019619166309 710.6777548957 34.927632468835
endloop
endfacet
facet normal -1.0 1.39577179954249e-14 -3.6506152998393e-14
outer loop
vertex 32.0019619166356 710.677754895701 -25.0723660033402
vertex 32.0019619166309 710.6777548957 34.927632468835
vertex 32.0019619166323 710.677754895702 -5.12071124452465
endloop
endfacet
endsolid K02.2
