solid K02.2
facet normal 9.08655866598767e-15 5.7388791574658e-15 1.0
outer loop
vertex 306.947009517621 19.9516547588155 21.4658095176207
vertex 279.947009517622 76.9516547588155 21.4658095176206
vertex 279.947009517621 19.9516547588155 21.4658095176209
endloop
endfacet
facet normal -0.894427190999917 0.447213595499956 -2.22448851988478e-15
outer loop
vertex 229.99535475881 19.9516547588151 22.9658095176212
vertex 259.99535475881 79.9516547588154 19.9658095176206
vertex 229.99535475881 19.9516547588151 19.9658095176212
endloop
endfacet
facet normal -0.894427190999917 0.447213595499956 -2.22448851988478e-15
outer loop
vertex 259.99535475881 79.9516547588154 19.9658095176206
vertex 229.99535475881 19.9516547588151 22.9658095176212
vertex 259.99535475881 79.9516547588155 22.9658095176206
endloop
endfacet
facet normal 1.0 1.37146983560947e-28 -3.98112915183233e-15
outer loop
vertex 232.99535475881 19.9516547588151 22.9658095176212
vertex 232.99535475881 3.00000000000718 56.9658095176206
vertex 232.99535475881 3.00000000000387 22.9658095176206
endloop
endfacet
facet normal 1.98107920713433e-15 0.894935621988723 0.446195285156239
outer loop
vertex 229.99535475881 19.9516547588151 22.9658095176212
vertex 232.99535475881 3.00000000000718 56.9658095176206
vertex 232.99535475881 19.9516547588151 22.9658095176212
endloop
endfacet
facet normal 1.98107920713433e-15 0.894935621988723 0.446195285156239
outer loop
vertex 232.99535475881 3.00000000000718 56.9658095176206
vertex 229.99535475881 19.9516547588151 22.9658095176212
vertex 229.99535475881 3.00000000000718 56.9658095176206
endloop
endfacet
facet normal -1.0 0.0 3.98112915183233e-15
outer loop
vertex 306.947009517621 19.9516547588155 22.9658095176207
vertex 306.947009517621 3.00000000000387 22.9658095176207
vertex 306.947009517621 3.00000000000718 56.9658095176207
endloop
endfacet
facet normal 1.09204393717531e-15 0.894935621988722 0.44619528515624
outer loop
vertex 306.947009517621 19.9516547588155 22.9658095176207
vertex 309.947009517621 3.00000000000718 56.9658095176206
vertex 309.947009517621 19.9516547588155 22.9658095176206
endloop
endfacet
facet normal 1.09204393717531e-15 0.894935621988722 0.44619528515624
outer loop
vertex 309.947009517621 3.00000000000718 56.9658095176206
vertex 306.947009517621 19.9516547588155 22.9658095176207
vertex 306.947009517621 3.00000000000718 56.9658095176207
endloop
endfacet
facet normal 4.68896762260906e-15 3.73301295513516e-15 1.0
outer loop
vertex 306.947009517621 19.9516547588155 22.9658095176207
vertex 279.947009517622 79.9516547588155 22.9658095176206
vertex 279.947009517622 76.9516547588155 22.9658095176206
endloop
endfacet
facet normal 4.68896762260906e-15 3.73301295513516e-15 1.0
outer loop
vertex 279.947009517622 79.9516547588155 22.9658095176206
vertex 306.947009517621 19.9516547588155 22.9658095176207
vertex 309.947009517621 19.9516547588155 22.9658095176206
endloop
endfacet
facet normal -3.34827113766044e-17 -1.0 8.98470154559001e-14
outer loop
vertex 309.947009517621 3.85574214156574e-12 19.9658095176206
vertex 271.638204643818 4.80453757424315e-12 30.5116550887037
vertex 229.99535475881 3.85841913974616e-12 19.9658095176212
endloop
endfacet
facet normal -3.34827113766044e-17 -1.0 8.98470154559001e-14
outer loop
vertex 271.638204643818 4.80453757424315e-12 30.5116550887037
vertex 309.947009517621 3.85574214156574e-12 19.9658095176206
vertex 273.254575514142 4.84339666959516e-12 30.9447603580762
endloop
endfacet
facet normal -3.34827113766044e-17 -1.0 8.98470154559001e-14
outer loop
vertex 273.254575514142 4.84339666959516e-12 30.9447603580762
vertex 309.947009517621 3.85574214156574e-12 19.9658095176206
vertex 274.771182138216 4.90688617350473e-12 31.6519656412903
endloop
endfacet
facet normal -3.34827113766044e-17 -1.0 8.98470154559001e-14
outer loop
vertex 274.771182138216 4.90688617350473e-12 31.6519656412903
vertex 309.947009517621 3.85574214156574e-12 19.9658095176206
vertex 276.141943191206 4.99307698952279e-12 32.6117828636787
endloop
endfacet
facet normal -3.34827113766044e-17 -1.0 8.98470154559001e-14
outer loop
vertex 276.141943191206 4.99307698952279e-12 32.6117828636787
vertex 309.947009517621 3.85574214156574e-12 19.9658095176206
vertex 309.947009517621 7.18008171343404e-12 56.9658095176206
endloop
endfacet
facet normal -3.34827113766044e-17 -1.0 8.98470154559001e-14
outer loop
vertex 229.99535475881 3.85841913974616e-12 19.9658095176212
vertex 271.638204643818 4.80453757424315e-12 30.5116550887037
vertex 269.971182138216 4.79148960139731e-12 30.3658095176209
endloop
endfacet
facet normal -3.34827113766044e-17 -1.0 8.98470154559001e-14
outer loop
vertex 276.141943191206 4.99307698952279e-12 32.6117828636787
vertex 309.947009517621 7.18008171343404e-12 56.9658095176206
vertex 277.325208792158 5.09935025331931e-12 33.7950484646301
endloop
endfacet
facet normal -3.34827113766044e-17 -1.0 8.98470154559001e-14
outer loop
vertex 277.325208792158 5.09935025331931e-12 33.7950484646301
vertex 309.947009517621 7.18008171343404e-12 56.9658095176206
vertex 278.285026014546 5.22247690555069e-12 35.1658095176209
endloop
endfacet
facet normal -3.34827113766044e-17 -1.0 8.98470154559001e-14
outer loop
vertex 278.285026014546 5.22247690555069e-12 35.1658095176209
vertex 309.947009517621 7.18008171343404e-12 56.9658095176206
vertex 278.99223129776 5.35871580519396e-12 36.6824161416945
endloop
endfacet
facet normal -3.34827113766044e-17 -1.0 8.98470154559001e-14
outer loop
vertex 278.99223129776 5.35871580519396e-12 36.6824161416945
vertex 309.947009517621 7.18008171343404e-12 56.9658095176206
vertex 279.425336567133 5.50392740222369e-12 38.2987870120184
endloop
endfacet
facet normal -3.34827113766044e-17 -1.0 8.98470154559001e-14
outer loop
vertex 279.425336567133 5.50392740222369e-12 38.2987870120184
vertex 309.947009517621 7.18008171343404e-12 56.9658095176206
vertex 279.571182138216 5.65369951574473e-12 39.9658095176209
endloop
endfacet
facet normal -3.34827113766044e-17 -1.0 8.98470154559001e-14
outer loop
vertex 279.571182138216 5.65369951574473e-12 39.9658095176209
vertex 309.947009517621 7.18008171343404e-12 56.9658095176206
vertex 279.425336567133 5.8034813958761e-12 41.6328320232234
endloop
endfacet
facet normal -3.34827113766044e-17 -1.0 8.98470154559001e-14
outer loop
vertex 279.425336567133 5.8034813958761e-12 41.6328320232234
vertex 309.947009517621 7.18008171343404e-12 56.9658095176206
vertex 278.99223129776 5.94872199598328e-12 43.2492028935473
endloop
endfacet
facet normal -3.34827113766044e-17 -1.0 8.98470154559001e-14
outer loop
vertex 278.99223129776 5.94872199598328e-12 43.2492028935473
vertex 309.947009517621 7.18008171343404e-12 56.9658095176206
vertex 278.285026014546 6.08500825392733e-12 44.7658095176209
endloop
endfacet
facet normal -3.34827113766044e-17 -1.0 8.98470154559001e-14
outer loop
vertex 278.285026014546 6.08500825392733e-12 44.7658095176209
vertex 309.947009517621 7.18008171343404e-12 56.9658095176206
vertex 277.325208792158 6.20819918072477e-12 46.1365705706117
endloop
endfacet
facet normal -3.34827113766044e-17 -1.0 8.98470154559001e-14
outer loop
vertex 277.325208792158 6.20819918072477e-12 46.1365705706117
vertex 309.947009517621 7.18008171343404e-12 56.9658095176206
vertex 276.141943191206 6.31455168240248e-12 47.3198361715631
endloop
endfacet
facet normal -3.34827113766044e-17 -1.0 8.98470154559001e-14
outer loop
vertex 276.141943191206 6.31455168240248e-12 47.3198361715631
vertex 309.947009517621 7.18008171343404e-12 56.9658095176206
vertex 274.771182138216 6.40083429201396e-12 48.2796533939515
endloop
endfacet
facet normal -3.34827113766044e-17 -1.0 8.98470154559001e-14
outer loop
vertex 274.771182138216 6.40083429201396e-12 48.2796533939515
vertex 309.947009517621 7.18008171343404e-12 56.9658095176206
vertex 273.254575514142 6.46442535612725e-12 48.9868586771656
endloop
endfacet
facet normal -3.34827113766044e-17 -1.0 8.98470154559001e-14
outer loop
vertex 273.254575514142 6.46442535612725e-12 48.9868586771656
vertex 309.947009517621 7.18008171343404e-12 56.9658095176206
vertex 271.638204643818 6.50339269243793e-12 49.4199639465381
endloop
endfacet
facet normal -3.34827113766044e-17 -1.0 8.98470154559001e-14
outer loop
vertex 271.638204643818 6.50339269243793e-12 49.4199639465381
vertex 309.947009517621 7.18008171343404e-12 56.9658095176206
vertex 269.971182138216 6.51655229815059e-12 49.5658095176209
endloop
endfacet
facet normal -3.34827113766044e-17 -1.0 8.98470154559001e-14
outer loop
vertex 229.99535475881 3.85841913974616e-12 19.9658095176212
vertex 263.800421085225 4.99349021714542e-12 32.6117828636788
vertex 229.99535475881 7.18275871161446e-12 56.9658095176212
endloop
endfacet
facet normal -3.34827113766044e-17 -1.0 8.98470154559001e-14
outer loop
vertex 263.800421085225 4.99349021714542e-12 32.6117828636788
vertex 229.99535475881 3.85841913974616e-12 19.9658095176212
vertex 265.171182138215 4.90720760753395e-12 31.6519656412903
endloop
endfacet
facet normal -3.34827113766044e-17 -1.0 8.98470154559001e-14
outer loop
vertex 265.171182138215 4.90720760753395e-12 31.6519656412903
vertex 229.99535475881 3.85841913974616e-12 19.9658095176212
vertex 266.687788762289 4.84361654342065e-12 30.9447603580762
endloop
endfacet
facet normal -3.34827113766044e-17 -1.0 8.98470154559001e-14
outer loop
vertex 266.687788762289 4.84361654342065e-12 30.9447603580762
vertex 229.99535475881 3.85841913974616e-12 19.9658095176212
vertex 268.304159632613 4.80464920710998e-12 30.5116550887037
endloop
endfacet
facet normal -3.34827113766044e-17 -1.0 8.98470154559001e-14
outer loop
vertex 268.304159632613 4.80464920710998e-12 30.5116550887037
vertex 229.99535475881 3.85841913974616e-12 19.9658095176212
vertex 269.971182138216 4.79148960139731e-12 30.3658095176209
endloop
endfacet
facet normal -3.34827113766044e-17 -1.0 8.98470154559001e-14
outer loop
vertex 229.99535475881 7.18275871161446e-12 56.9658095176212
vertex 263.800421085225 4.99349021714542e-12 32.6117828636788
vertex 262.617155484273 5.09984271882314e-12 33.7950484646302
endloop
endfacet
facet normal -3.34827113766044e-17 -1.0 8.98470154559001e-14
outer loop
vertex 229.99535475881 7.18275871161446e-12 56.9658095176212
vertex 262.617155484273 5.09984271882314e-12 33.7950484646302
vertex 261.657338261885 5.22303364562058e-12 35.165809517621
endloop
endfacet
facet normal -3.34827113766044e-17 -1.0 8.98470154559001e-14
outer loop
vertex 229.99535475881 7.18275871161446e-12 56.9658095176212
vertex 261.657338261885 5.22303364562058e-12 35.165809517621
vertex 260.950132978671 5.35931990356462e-12 36.6824161416946
endloop
endfacet
facet normal -3.34827113766044e-17 -1.0 8.98470154559001e-14
outer loop
vertex 229.99535475881 7.18275871161446e-12 56.9658095176212
vertex 260.950132978671 5.35931990356462e-12 36.6824161416946
vertex 260.517027709298 5.5045605036718e-12 38.2987870120185
endloop
endfacet
facet normal -3.34827113766044e-17 -1.0 8.98470154559001e-14
outer loop
vertex 229.99535475881 7.18275871161446e-12 56.9658095176212
vertex 260.517027709298 5.5045605036718e-12 38.2987870120185
vertex 260.371182138216 5.65434238380317e-12 39.965809517621
endloop
endfacet
facet normal -3.34827113766044e-17 -1.0 8.98470154559001e-14
outer loop
vertex 229.99535475881 7.18275871161446e-12 56.9658095176212
vertex 260.371182138216 5.65434238380317e-12 39.965809517621
vertex 260.517027709298 5.80411449732421e-12 41.6328320232235
endloop
endfacet
facet normal -3.34827113766044e-17 -1.0 8.98470154559001e-14
outer loop
vertex 229.99535475881 7.18275871161446e-12 56.9658095176212
vertex 260.517027709298 5.80411449732421e-12 41.6328320232235
vertex 260.950132978671 5.94932609435394e-12 43.2492028935474
endloop
endfacet
facet normal -3.34827113766044e-17 -1.0 8.98470154559001e-14
outer loop
vertex 229.99535475881 7.18275871161446e-12 56.9658095176212
vertex 260.950132978671 5.94932609435394e-12 43.2492028935474
vertex 261.657338261885 6.08556499399721e-12 44.765809517621
endloop
endfacet
facet normal -3.34827113766044e-17 -1.0 8.98470154559001e-14
outer loop
vertex 229.99535475881 7.18275871161446e-12 56.9658095176212
vertex 261.657338261885 6.08556499399721e-12 44.765809517621
vertex 262.617155484273 6.20869164622859e-12 46.1365705706117
endloop
endfacet
facet normal -3.34827113766044e-17 -1.0 8.98470154559001e-14
outer loop
vertex 229.99535475881 7.18275871161446e-12 56.9658095176212
vertex 262.617155484273 6.20869164622859e-12 46.1365705706117
vertex 263.800421085225 6.31496491002511e-12 47.3198361715632
endloop
endfacet
facet normal -3.34827113766044e-17 -1.0 8.98470154559001e-14
outer loop
vertex 229.99535475881 7.18275871161446e-12 56.9658095176212
vertex 263.800421085225 6.31496491002511e-12 47.3198361715632
vertex 265.171182138216 6.40115572604318e-12 48.2796533939516
endloop
endfacet
facet normal -3.34827113766044e-17 -1.0 8.98470154559001e-14
outer loop
vertex 229.99535475881 7.18275871161446e-12 56.9658095176212
vertex 265.171182138216 6.40115572604318e-12 48.2796533939516
vertex 266.687788762289 6.46464522995274e-12 48.9868586771657
endloop
endfacet
facet normal -3.34827113766044e-17 -1.0 8.98470154559001e-14
outer loop
vertex 229.99535475881 7.18275871161446e-12 56.9658095176212
vertex 266.687788762289 6.46464522995274e-12 48.9868586771657
vertex 268.304159632613 6.50350432530475e-12 49.4199639465381
endloop
endfacet
facet normal -3.34827113766044e-17 -1.0 8.98470154559001e-14
outer loop
vertex 229.99535475881 7.18275871161446e-12 56.9658095176212
vertex 268.304159632613 6.50350432530475e-12 49.4199639465381
vertex 269.971182138216 6.51655229815059e-12 49.5658095176209
endloop
endfacet
facet normal -3.34827113766044e-17 -1.0 8.98470154559001e-14
outer loop
vertex 229.99535475881 7.18275871161446e-12 56.9658095176212
vertex 269.971182138216 6.51655229815059e-12 49.5658095176209
vertex 309.947009517621 7.18008171343404e-12 56.9658095176206
endloop
endfacet
facet normal -7.08060846694006e-15 -5.10875048958934e-15 -1.0
outer loop
vertex 259.99535475881 79.9516547588154 19.9658095176206
vertex 229.99535475881 3.85841913974616e-12 19.9658095176212
vertex 229.99535475881 19.9516547588151 19.9658095176212
endloop
endfacet
facet normal -7.08060846694006e-15 -5.10875048958934e-15 -1.0
outer loop
vertex 229.99535475881 3.85841913974616e-12 19.9658095176212
vertex 259.99535475881 79.9516547588154 19.9658095176206
vertex 309.947009517621 3.85574214156574e-12 19.9658095176206
endloop
endfacet
facet normal -7.08060846694006e-15 -5.10875048958934e-15 -1.0
outer loop
vertex 309.947009517621 3.85574214156574e-12 19.9658095176206
vertex 259.99535475881 79.9516547588154 19.9658095176206
vertex 279.947009517622 79.9516547588154 19.9658095176206
endloop
endfacet
facet normal -7.08060846694006e-15 -5.10875048958934e-15 -1.0
outer loop
vertex 309.947009517621 3.85574214156574e-12 19.9658095176206
vertex 279.947009517622 79.9516547588154 19.9658095176206
vertex 309.947009517621 19.9516547588154 19.9658095176206
endloop
endfacet
facet normal 0.0 1.0 -3.75995531006386e-15
outer loop
vertex 259.99535475881 79.9516547588155 22.9658095176206
vertex 279.947009517622 79.9516547588154 19.9658095176206
vertex 259.99535475881 79.9516547588154 19.9658095176206
endloop
endfacet
facet normal 0.0 1.0 -3.75995531006386e-15
outer loop
vertex 279.947009517622 79.9516547588154 19.9658095176206
vertex 259.99535475881 79.9516547588155 22.9658095176206
vertex 279.947009517622 79.9516547588155 22.9658095176206
endloop
endfacet
facet normal 0.89442719099992 0.44721359549995 -1.33469311193004e-15
outer loop
vertex 279.947009517622 79.9516547588154 19.9658095176206
vertex 309.947009517621 19.9516547588155 22.9658095176206
vertex 309.947009517621 19.9516547588154 19.9658095176206
endloop
endfacet
facet normal 0.89442719099992 0.44721359549995 -1.33469311193004e-15
outer loop
vertex 309.947009517621 19.9516547588155 22.9658095176206
vertex 279.947009517622 79.9516547588154 19.9658095176206
vertex 279.947009517622 79.9516547588155 22.9658095176206
endloop
endfacet
facet normal 3.72203644016439e-15 9.32205480536505e-15 1.0
outer loop
vertex 232.99535475881 19.9516547588151 22.9658095176212
vertex 259.99535475881 79.9516547588155 22.9658095176206
vertex 229.99535475881 19.9516547588151 22.9658095176212
endloop
endfacet
facet normal 3.72203644016439e-15 9.32205480536505e-15 1.0
outer loop
vertex 259.99535475881 79.9516547588155 22.9658095176206
vertex 232.99535475881 19.9516547588151 22.9658095176212
vertex 259.99535475881 76.9516547588155 22.9658095176206
endloop
endfacet
facet normal -0.903737838893543 -0.428086344739037 1.06686026931977e-14
outer loop
vertex 306.947009517621 19.9516547588155 22.9658095176207
vertex 279.947009517622 76.9516547588155 21.4658095176206
vertex 306.947009517621 19.9516547588155 21.4658095176207
endloop
endfacet
facet normal -0.903737838893543 -0.428086344739037 1.06686026931977e-14
outer loop
vertex 279.947009517622 76.9516547588155 21.4658095176206
vertex 306.947009517621 19.9516547588155 22.9658095176207
vertex 279.947009517622 76.9516547588155 22.9658095176206
endloop
endfacet
facet normal 1.0 -1.10819735454514e-14 -9.08655866598761e-15
outer loop
vertex 279.947009517622 76.9516547588155 21.4658095176206
vertex 279.947009517621 19.9516547588155 22.9658095176209
vertex 279.947009517621 19.9516547588155 21.4658095176209
endloop
endfacet
facet normal 1.0 -1.10819735454514e-14 -9.08655866598761e-15
outer loop
vertex 279.947009517621 19.9516547588155 22.9658095176209
vertex 279.947009517622 76.9516547588155 21.4658095176206
vertex 279.947009517622 76.9516547588155 22.9658095176206
endloop
endfacet
facet normal 2.47776314056357e-15 9.77588380616605e-14 1.0
outer loop
vertex 309.947009517621 7.18008171343404e-12 56.9658095176206
vertex 229.99535475881 3.00000000000718 56.9658095176206
vertex 229.99535475881 7.18275871161446e-12 56.9658095176212
endloop
endfacet
facet normal 2.47776314056357e-15 9.77588380616605e-14 1.0
outer loop
vertex 229.99535475881 3.00000000000718 56.9658095176206
vertex 309.947009517621 7.18008171343404e-12 56.9658095176206
vertex 232.99535475881 3.00000000000718 56.9658095176206
endloop
endfacet
facet normal 2.47776314056357e-15 9.77588380616605e-14 1.0
outer loop
vertex 232.99535475881 3.00000000000718 56.9658095176206
vertex 309.947009517621 7.18008171343404e-12 56.9658095176206
vertex 306.947009517621 3.00000000000718 56.9658095176207
endloop
endfacet
facet normal 2.47776314056357e-15 9.77588380616605e-14 1.0
outer loop
vertex 306.947009517621 3.00000000000718 56.9658095176207
vertex 309.947009517621 7.18008171343404e-12 56.9658095176206
vertex 309.947009517621 3.00000000000718 56.9658095176206
endloop
endfacet
facet normal -1.0 -2.89787622132802e-16 3.65457871644816e-15
outer loop
vertex 229.99535475881 7.18275871161446e-12 56.9658095176212
vertex 229.99535475881 19.9516547588151 19.9658095176212
vertex 229.99535475881 3.85841913974616e-12 19.9658095176212
endloop
endfacet
facet normal -1.0 -2.89787622132802e-16 3.65457871644816e-15
outer loop
vertex 229.99535475881 19.9516547588151 19.9658095176212
vertex 229.99535475881 7.18275871161446e-12 56.9658095176212
vertex 229.99535475881 3.00000000000718 56.9658095176206
endloop
endfacet
facet normal -1.0 -2.89787622132802e-16 3.65457871644816e-15
outer loop
vertex 229.99535475881 19.9516547588151 19.9658095176212
vertex 229.99535475881 3.00000000000718 56.9658095176206
vertex 229.99535475881 19.9516547588151 22.9658095176212
endloop
endfacet
facet normal 1.0 2.89787622132808e-16 -3.65457871644813e-15
outer loop
vertex 309.947009517621 19.9516547588154 19.9658095176206
vertex 309.947009517621 7.18008171343404e-12 56.9658095176206
vertex 309.947009517621 3.85574214156574e-12 19.9658095176206
endloop
endfacet
facet normal 1.0 2.89787622132808e-16 -3.65457871644813e-15
outer loop
vertex 309.947009517621 7.18008171343404e-12 56.9658095176206
vertex 309.947009517621 19.9516547588154 19.9658095176206
vertex 309.947009517621 3.00000000000718 56.9658095176206
endloop
endfacet
facet normal 1.0 2.89787622132808e-16 -3.65457871644813e-15
outer loop
vertex 309.947009517621 3.00000000000718 56.9658095176206
vertex 309.947009517621 19.9516547588154 19.9658095176206
vertex 309.947009517621 19.9516547588155 22.9658095176206
endloop
endfacet
facet normal 2.10995736348354e-29 1.0 -9.72888436479025e-14
outer loop
vertex 232.99535475881 3.00000000000387 22.9658095176206
vertex 268.304159632613 3.0000000000048 30.5116550887035
vertex 306.947009517621 3.00000000000387 22.9658095176207
endloop
endfacet
facet normal 2.10995736348354e-29 1.0 -9.72888436479025e-14
outer loop
vertex 268.304159632613 3.0000000000048 30.5116550887035
vertex 232.99535475881 3.00000000000387 22.9658095176206
vertex 266.687788762289 3.00000000000485 30.944760358076
endloop
endfacet
facet normal 2.10995736348354e-29 1.0 -9.72888436479025e-14
outer loop
vertex 266.687788762289 3.00000000000485 30.944760358076
vertex 232.99535475881 3.00000000000387 22.9658095176206
vertex 265.171182138215 3.0000000000049 31.6519656412901
endloop
endfacet
facet normal 2.10995736348354e-29 1.0 -9.72888436479025e-14
outer loop
vertex 265.171182138215 3.0000000000049 31.6519656412901
vertex 232.99535475881 3.00000000000387 22.9658095176206
vertex 263.800421085225 3.00000000000499 32.6117828636785
endloop
endfacet
facet normal 2.10995736348354e-29 1.0 -9.72888436479025e-14
outer loop
vertex 263.800421085225 3.00000000000499 32.6117828636785
vertex 232.99535475881 3.00000000000387 22.9658095176206
vertex 232.99535475881 3.00000000000718 56.9658095176206
endloop
endfacet
facet normal 2.10995736348354e-29 1.0 -9.72888436479025e-14
outer loop
vertex 306.947009517621 3.00000000000387 22.9658095176207
vertex 268.304159632613 3.0000000000048 30.5116550887035
vertex 269.971182138216 3.00000000000479 30.3658095176207
endloop
endfacet
facet normal 2.10995736348354e-29 1.0 -9.72888436479025e-14
outer loop
vertex 263.800421085225 3.00000000000499 32.6117828636785
vertex 232.99535475881 3.00000000000718 56.9658095176206
vertex 262.617155484273 3.0000000000051 33.7950484646299
endloop
endfacet
facet normal 2.10995736348354e-29 1.0 -9.72888436479025e-14
outer loop
vertex 262.617155484273 3.0000000000051 33.7950484646299
vertex 232.99535475881 3.00000000000718 56.9658095176206
vertex 261.657338261885 3.00000000000522 35.1658095176207
endloop
endfacet
facet normal 2.10995736348354e-29 1.0 -9.72888436479025e-14
outer loop
vertex 261.657338261885 3.00000000000522 35.1658095176207
vertex 232.99535475881 3.00000000000718 56.9658095176206
vertex 260.950132978671 3.00000000000536 36.6824161416943
endloop
endfacet
facet normal 2.10995736348354e-29 1.0 -9.72888436479025e-14
outer loop
vertex 260.950132978671 3.00000000000536 36.6824161416943
vertex 232.99535475881 3.00000000000718 56.9658095176206
vertex 260.517027709298 3.0000000000055 38.2987870120182
endloop
endfacet
facet normal 2.10995736348354e-29 1.0 -9.72888436479025e-14
outer loop
vertex 260.517027709298 3.0000000000055 38.2987870120182
vertex 232.99535475881 3.00000000000718 56.9658095176206
vertex 260.371182138216 3.00000000000565 39.9658095176207
endloop
endfacet
facet normal 2.10995736348354e-29 1.0 -9.72888436479025e-14
outer loop
vertex 260.371182138216 3.00000000000565 39.9658095176207
vertex 232.99535475881 3.00000000000718 56.9658095176206
vertex 260.517027709298 3.00000000000581 41.6328320232232
endloop
endfacet
facet normal 2.10995736348354e-29 1.0 -9.72888436479025e-14
outer loop
vertex 260.517027709298 3.00000000000581 41.6328320232232
vertex 232.99535475881 3.00000000000718 56.9658095176206
vertex 260.950132978671 3.00000000000595 43.2492028935471
endloop
endfacet
facet normal 2.10995736348354e-29 1.0 -9.72888436479025e-14
outer loop
vertex 260.950132978671 3.00000000000595 43.2492028935471
vertex 232.99535475881 3.00000000000718 56.9658095176206
vertex 261.657338261885 3.00000000000609 44.7658095176207
endloop
endfacet
facet normal 2.10995736348354e-29 1.0 -9.72888436479025e-14
outer loop
vertex 261.657338261885 3.00000000000609 44.7658095176207
vertex 232.99535475881 3.00000000000718 56.9658095176206
vertex 262.617155484273 3.00000000000621 46.1365705706115
endloop
endfacet
facet normal 2.10995736348354e-29 1.0 -9.72888436479025e-14
outer loop
vertex 262.617155484273 3.00000000000621 46.1365705706115
vertex 232.99535475881 3.00000000000718 56.9658095176206
vertex 263.800421085225 3.00000000000631 47.3198361715629
endloop
endfacet
facet normal 2.10995736348354e-29 1.0 -9.72888436479025e-14
outer loop
vertex 263.800421085225 3.00000000000631 47.3198361715629
vertex 232.99535475881 3.00000000000718 56.9658095176206
vertex 265.171182138216 3.0000000000064 48.2796533939513
endloop
endfacet
facet normal 2.10995736348354e-29 1.0 -9.72888436479025e-14
outer loop
vertex 265.171182138216 3.0000000000064 48.2796533939513
vertex 232.99535475881 3.00000000000718 56.9658095176206
vertex 266.687788762289 3.00000000000646 48.9868586771654
endloop
endfacet
facet normal 2.10995736348354e-29 1.0 -9.72888436479025e-14
outer loop
vertex 266.687788762289 3.00000000000646 48.9868586771654
vertex 232.99535475881 3.00000000000718 56.9658095176206
vertex 268.304159632613 3.00000000000651 49.4199639465379
endloop
endfacet
facet normal 2.10995736348354e-29 1.0 -9.72888436479025e-14
outer loop
vertex 268.304159632613 3.00000000000651 49.4199639465379
vertex 232.99535475881 3.00000000000718 56.9658095176206
vertex 269.971182138216 3.00000000000652 49.5658095176207
endloop
endfacet
facet normal 2.10995736348354e-29 1.0 -9.72888436479025e-14
outer loop
vertex 306.947009517621 3.00000000000387 22.9658095176207
vertex 276.141943191206 3.00000000000499 32.6117828636784
vertex 306.947009517621 3.00000000000718 56.9658095176207
endloop
endfacet
facet normal 2.10995736348354e-29 1.0 -9.72888436479025e-14
outer loop
vertex 276.141943191206 3.00000000000499 32.6117828636784
vertex 306.947009517621 3.00000000000387 22.9658095176207
vertex 274.771182138216 3.0000000000049 31.65196564129
endloop
endfacet
facet normal 2.10995736348354e-29 1.0 -9.72888436479025e-14
outer loop
vertex 274.771182138216 3.0000000000049 31.65196564129
vertex 306.947009517621 3.00000000000387 22.9658095176207
vertex 273.254575514142 3.00000000000485 30.9447603580759
endloop
endfacet
facet normal 2.10995736348354e-29 1.0 -9.72888436479025e-14
outer loop
vertex 273.254575514142 3.00000000000485 30.9447603580759
vertex 306.947009517621 3.00000000000387 22.9658095176207
vertex 271.638204643818 3.0000000000048 30.5116550887035
endloop
endfacet
facet normal 2.10995736348354e-29 1.0 -9.72888436479025e-14
outer loop
vertex 271.638204643818 3.0000000000048 30.5116550887035
vertex 306.947009517621 3.00000000000387 22.9658095176207
vertex 269.971182138216 3.00000000000479 30.3658095176207
endloop
endfacet
facet normal 2.10995736348354e-29 1.0 -9.72888436479025e-14
outer loop
vertex 306.947009517621 3.00000000000718 56.9658095176207
vertex 276.141943191206 3.00000000000499 32.6117828636784
vertex 277.325208792158 3.0000000000051 33.7950484646299
endloop
endfacet
facet normal 2.10995736348354e-29 1.0 -9.72888436479025e-14
outer loop
vertex 306.947009517621 3.00000000000718 56.9658095176207
vertex 277.325208792158 3.0000000000051 33.7950484646299
vertex 278.285026014546 3.00000000000522 35.1658095176206
endloop
endfacet
facet normal 2.10995736348354e-29 1.0 -9.72888436479025e-14
outer loop
vertex 306.947009517621 3.00000000000718 56.9658095176207
vertex 278.285026014546 3.00000000000522 35.1658095176206
vertex 278.99223129776 3.00000000000536 36.6824161416942
endloop
endfacet
facet normal 2.10995736348354e-29 1.0 -9.72888436479025e-14
outer loop
vertex 306.947009517621 3.00000000000718 56.9658095176207
vertex 278.99223129776 3.00000000000536 36.6824161416942
vertex 279.425336567133 3.0000000000055 38.2987870120181
endloop
endfacet
facet normal 2.10995736348354e-29 1.0 -9.72888436479025e-14
outer loop
vertex 306.947009517621 3.00000000000718 56.9658095176207
vertex 279.425336567133 3.0000000000055 38.2987870120181
vertex 279.571182138216 3.00000000000565 39.9658095176206
endloop
endfacet
facet normal 2.10995736348354e-29 1.0 -9.72888436479025e-14
outer loop
vertex 306.947009517621 3.00000000000718 56.9658095176207
vertex 279.571182138216 3.00000000000565 39.9658095176206
vertex 279.425336567133 3.00000000000581 41.6328320232232
endloop
endfacet
facet normal 2.10995736348354e-29 1.0 -9.72888436479025e-14
outer loop
vertex 306.947009517621 3.00000000000718 56.9658095176207
vertex 279.425336567133 3.00000000000581 41.6328320232232
vertex 278.99223129776 3.00000000000595 43.2492028935471
endloop
endfacet
facet normal 2.10995736348354e-29 1.0 -9.72888436479025e-14
outer loop
vertex 306.947009517621 3.00000000000718 56.9658095176207
vertex 278.99223129776 3.00000000000595 43.2492028935471
vertex 278.285026014546 3.00000000000609 44.7658095176206
endloop
endfacet
facet normal 2.10995736348354e-29 1.0 -9.72888436479025e-14
outer loop
vertex 306.947009517621 3.00000000000718 56.9658095176207
vertex 278.285026014546 3.00000000000609 44.7658095176206
vertex 277.325208792158 3.00000000000621 46.1365705706114
endloop
endfacet
facet normal 2.10995736348354e-29 1.0 -9.72888436479025e-14
outer loop
vertex 306.947009517621 3.00000000000718 56.9658095176207
vertex 277.325208792158 3.00000000000621 46.1365705706114
vertex 276.141943191206 3.00000000000631 47.3198361715628
endloop
endfacet
facet normal 2.10995736348354e-29 1.0 -9.72888436479025e-14
outer loop
vertex 306.947009517621 3.00000000000718 56.9658095176207
vertex 276.141943191206 3.00000000000631 47.3198361715628
vertex 274.771182138216 3.0000000000064 48.2796533939512
endloop
endfacet
facet normal 2.10995736348354e-29 1.0 -9.72888436479025e-14
outer loop
vertex 306.947009517621 3.00000000000718 56.9658095176207
vertex 274.771182138216 3.0000000000064 48.2796533939512
vertex 273.254575514142 3.00000000000646 48.9868586771654
endloop
endfacet
facet normal 2.10995736348354e-29 1.0 -9.72888436479025e-14
outer loop
vertex 306.947009517621 3.00000000000718 56.9658095176207
vertex 273.254575514142 3.00000000000646 48.9868586771654
vertex 271.638204643818 3.00000000000651 49.4199639465379
endloop
endfacet
facet normal 2.10995736348354e-29 1.0 -9.72888436479025e-14
outer loop
vertex 306.947009517621 3.00000000000718 56.9658095176207
vertex 271.638204643818 3.00000000000651 49.4199639465379
vertex 269.971182138216 3.00000000000652 49.5658095176207
endloop
endfacet
facet normal 2.10995736348354e-29 1.0 -9.72888436479025e-14
outer loop
vertex 306.947009517621 3.00000000000718 56.9658095176207
vertex 269.971182138216 3.00000000000652 49.5658095176207
vertex 232.99535475881 3.00000000000718 56.9658095176206
endloop
endfacet
facet normal 1.0 -3.34827113766197e-17 -3.10401766465431e-16
outer loop
vertex 260.371182138216 3.00000000000565 39.9658095176207
vertex 260.517027709298 5.80411449732421e-12 41.6328320232235
vertex 260.371182138216 5.65434238380317e-12 39.965809517621
endloop
endfacet
facet normal 0.984807753012208 -1.56347445364849e-14 -0.173648177666928
outer loop
vertex 260.517027709298 5.80411449732421e-12 41.6328320232235
vertex 260.371182138216 3.00000000000565 39.9658095176207
vertex 260.517027709298 3.00000000000581 41.6328320232232
endloop
endfacet
facet normal 0.984807753012209 1.55687964689737e-14 0.173648177666927
outer loop
vertex 260.517027709298 3.0000000000055 38.2987870120182
vertex 260.371182138216 5.65434238380317e-12 39.965809517621
vertex 260.517027709298 5.5045605036718e-12 38.2987870120185
endloop
endfacet
facet normal 1.0 -3.34827113765971e-17 -5.32117313940739e-17
outer loop
vertex 260.371182138216 5.65434238380317e-12 39.965809517621
vertex 260.517027709298 3.0000000000055 38.2987870120182
vertex 260.371182138216 3.00000000000565 39.9658095176207
endloop
endfacet
facet normal 0.939692620785911 3.06980256468053e-14 0.342020143325661
outer loop
vertex 260.950132978671 3.00000000000536 36.6824161416943
vertex 260.517027709298 5.5045605036718e-12 38.2987870120185
vertex 260.950132978671 5.35931990356462e-12 36.6824161416946
endloop
endfacet
facet normal 0.984807753012209 1.55687964689737e-14 0.173648177666927
outer loop
vertex 260.517027709298 5.5045605036718e-12 38.2987870120185
vertex 260.950132978671 3.00000000000536 36.6824161416943
vertex 260.517027709298 3.0000000000055 38.2987870120182
endloop
endfacet
facet normal 0.866025403784443 4.48945108493096e-14 0.499999999999993
outer loop
vertex 261.657338261885 3.00000000000522 35.1658095176207
vertex 260.950132978671 5.35931990356462e-12 36.6824161416946
vertex 261.657338261885 5.22303364562058e-12 35.165809517621
endloop
endfacet
facet normal 0.939692620785911 3.06980256468053e-14 0.342020143325661
outer loop
vertex 260.950132978671 5.35931990356462e-12 36.6824161416946
vertex 261.657338261885 3.00000000000522 35.1658095176207
vertex 260.950132978671 3.00000000000536 36.6824161416943
endloop
endfacet
facet normal 0.766044443118982 5.77268990573765e-14 0.642787609686535
outer loop
vertex 262.617155484273 3.0000000000051 33.7950484646299
vertex 261.657338261885 5.22303364562058e-12 35.165809517621
vertex 262.617155484273 5.09984271882314e-12 33.7950484646302
endloop
endfacet
facet normal 0.866025403784443 4.48945108493097e-14 0.499999999999993
outer loop
vertex 261.657338261885 5.22303364562058e-12 35.165809517621
vertex 262.617155484273 3.0000000000051 33.7950484646299
vertex 261.657338261885 3.00000000000522 35.1658095176207
endloop
endfacet
facet normal 0.642787609686544 6.88052846488051e-14 0.766044443118974
outer loop
vertex 263.800421085225 3.00000000000499 32.6117828636785
vertex 262.617155484273 5.09984271882314e-12 33.7950484646302
vertex 263.800421085225 4.99349021714542e-12 32.6117828636788
endloop
endfacet
facet normal 0.766044443118982 5.77268990573765e-14 0.642787609686535
outer loop
vertex 262.617155484273 5.09984271882314e-12 33.7950484646302
vertex 263.800421085225 3.00000000000499 32.6117828636785
vertex 262.617155484273 3.0000000000051 33.7950484646299
endloop
endfacet
facet normal 0.500000000000001 7.77930564833341e-14 0.866025403784438
outer loop
vertex 265.171182138215 4.90720760753395e-12 31.6519656412903
vertex 263.800421085225 3.00000000000499 32.6117828636785
vertex 263.800421085225 4.99349021714542e-12 32.6117828636788
endloop
endfacet
facet normal 0.642787609686544 6.88052846488051e-14 0.766044443118974
outer loop
vertex 263.800421085225 3.00000000000499 32.6117828636785
vertex 265.171182138215 4.90720760753395e-12 31.6519656412903
vertex 265.171182138215 3.0000000000049 31.6519656412901
endloop
endfacet
facet normal 0.342020143325675 8.44171256618025e-14 0.939692620785906
outer loop
vertex 266.687788762289 4.84361654342065e-12 30.9447603580762
vertex 265.171182138215 3.0000000000049 31.6519656412901
vertex 265.171182138215 4.90720760753395e-12 31.6519656412903
endloop
endfacet
facet normal 0.500000000000001 7.77930564833341e-14 0.866025403784438
outer loop
vertex 265.171182138215 3.0000000000049 31.6519656412901
vertex 266.687788762289 4.84361654342065e-12 30.9447603580762
vertex 266.687788762289 3.00000000000485 30.944760358076
endloop
endfacet
facet normal 0.173648177666935 8.8476223194164e-14 0.984807753012207
outer loop
vertex 268.304159632613 4.80464920710998e-12 30.5116550887037
vertex 266.687788762289 3.00000000000485 30.944760358076
vertex 266.687788762289 4.84361654342065e-12 30.9447603580762
endloop
endfacet
facet normal 0.342020143325675 8.44171256618025e-14 0.939692620785906
outer loop
vertex 266.687788762289 3.00000000000485 30.944760358076
vertex 268.304159632613 4.80464920710998e-12 30.5116550887037
vertex 268.304159632613 3.0000000000048 30.5116550887035
endloop
endfacet
facet normal -0.173648177666935 -8.8476223194164e-14 -0.984807753012207
outer loop
vertex 271.638204643818 3.00000000000651 49.4199639465379
vertex 269.971182138216 6.51655229815059e-12 49.5658095176209
vertex 269.971182138216 3.00000000000652 49.5658095176207
endloop
endfacet
facet normal -5.037377238639e-15 -8.98470154559e-14 -1.0
outer loop
vertex 269.971182138216 6.51655229815059e-12 49.5658095176209
vertex 271.638204643818 3.00000000000651 49.4199639465379
vertex 271.638204643818 6.50339269243793e-12 49.4199639465381
endloop
endfacet
facet normal -5.037377238639e-15 -8.98470154559e-14 -1.0
outer loop
vertex 269.971182138216 3.00000000000652 49.5658095176207
vertex 268.304159632613 6.50350432530475e-12 49.4199639465381
vertex 268.304159632613 3.00000000000651 49.4199639465379
endloop
endfacet
facet normal 0.173648177666927 -8.84878516177919e-14 -0.984807753012209
outer loop
vertex 268.304159632613 6.50350432530475e-12 49.4199639465381
vertex 269.971182138216 3.00000000000652 49.5658095176207
vertex 269.971182138216 6.51655229815059e-12 49.5658095176209
endloop
endfacet
facet normal 0.173648177666927 -8.84878516177919e-14 -0.984807753012209
outer loop
vertex 268.304159632613 3.00000000000651 49.4199639465379
vertex 266.687788762289 6.46464522995274e-12 48.9868586771657
vertex 266.687788762289 3.00000000000646 48.9868586771654
endloop
endfacet
facet normal 0.342020143325667 -8.44400291852906e-14 -0.939692620785909
outer loop
vertex 266.687788762289 6.46464522995274e-12 48.9868586771657
vertex 268.304159632613 3.00000000000651 49.4199639465379
vertex 268.304159632613 6.50350432530475e-12 49.4199639465381
endloop
endfacet
facet normal 0.342020143325667 -8.44400291852906e-14 -0.939692620785909
outer loop
vertex 266.687788762289 3.00000000000646 48.9868586771654
vertex 265.171182138216 6.40115572604318e-12 48.2796533939516
vertex 265.171182138216 3.0000000000064 48.2796533939513
endloop
endfacet
facet normal 0.499999999999995 -7.7826539194711e-14 -0.866025403784441
outer loop
vertex 265.171182138216 6.40115572604318e-12 48.2796533939516
vertex 266.687788762289 3.00000000000646 48.9868586771654
vertex 266.687788762289 6.46464522995274e-12 48.9868586771657
endloop
endfacet
facet normal 0.499999999999995 -7.7826539194711e-14 -0.866025403784442
outer loop
vertex 265.171182138216 3.0000000000064 48.2796533939513
vertex 263.800421085225 6.31496491002511e-12 47.3198361715632
vertex 263.800421085225 3.00000000000631 47.3198361715629
endloop
endfacet
facet normal 0.642787609686533 -6.88483291928292e-14 -0.766044443118983
outer loop
vertex 263.800421085225 6.31496491002511e-12 47.3198361715632
vertex 265.171182138216 3.0000000000064 48.2796533939513
vertex 265.171182138216 6.40115572604318e-12 48.2796533939516
endloop
endfacet
facet normal 0.642787609686533 -6.88483291928292e-14 -0.766044443118983
outer loop
vertex 263.800421085225 3.00000000000631 47.3198361715629
vertex 262.617155484273 6.20869164622859e-12 46.1365705706117
vertex 262.617155484273 3.00000000000621 46.1365705706115
endloop
endfacet
facet normal 0.766044443118973 -5.77781975473586e-14 -0.642787609686545
outer loop
vertex 262.617155484273 6.20869164622859e-12 46.1365705706117
vertex 263.800421085225 3.00000000000631 47.3198361715629
vertex 263.800421085225 6.31496491002511e-12 47.3198361715632
endloop
endfacet
facet normal 0.866025403784436 -4.49525046065901e-14 -0.500000000000004
outer loop
vertex 261.657338261885 3.00000000000609 44.7658095176207
vertex 262.617155484273 6.20869164622859e-12 46.1365705706117
vertex 261.657338261885 6.08556499399721e-12 44.765809517621
endloop
endfacet
facet normal 0.766044443118973 -5.77781975473586e-14 -0.642787609686545
outer loop
vertex 262.617155484273 6.20869164622859e-12 46.1365705706117
vertex 261.657338261885 3.00000000000609 44.7658095176207
vertex 262.617155484273 3.00000000000621 46.1365705706115
endloop
endfacet
facet normal 0.939692620785907 -3.07609525604154e-14 -0.342020143325673
outer loop
vertex 260.950132978671 3.00000000000595 43.2492028935471
vertex 261.657338261885 6.08556499399721e-12 44.765809517621
vertex 260.950132978671 5.94932609435394e-12 43.2492028935474
endloop
endfacet
facet normal 0.866025403784436 -4.49525046065901e-14 -0.500000000000004
outer loop
vertex 261.657338261885 6.08556499399721e-12 44.765809517621
vertex 260.950132978671 3.00000000000595 43.2492028935471
vertex 261.657338261885 3.00000000000609 44.7658095176207
endloop
endfacet
facet normal 0.984807753012209 -1.56347445364849e-14 -0.173648177666928
outer loop
vertex 260.517027709298 3.00000000000581 41.6328320232232
vertex 260.950132978671 5.94932609435394e-12 43.2492028935474
vertex 260.517027709298 5.80411449732421e-12 41.6328320232235
endloop
endfacet
facet normal 0.939692620785907 -3.07609525604153e-14 -0.342020143325673
outer loop
vertex 260.950132978671 5.94932609435394e-12 43.2492028935474
vertex 260.517027709298 3.00000000000581 41.6328320232232
vertex 260.950132978671 3.00000000000595 43.2492028935471
endloop
endfacet
facet normal 5.04624586053802e-15 8.98470154559e-14 1.0
outer loop
vertex 269.971182138216 4.79148960139731e-12 30.3658095176209
vertex 268.304159632613 3.0000000000048 30.5116550887035
vertex 268.304159632613 4.80464920710998e-12 30.5116550887037
endloop
endfacet
facet normal 0.173648177666935 8.8476223194164e-14 0.984807753012207
outer loop
vertex 268.304159632613 3.0000000000048 30.5116550887035
vertex 269.971182138216 4.79148960139731e-12 30.3658095176209
vertex 269.971182138216 3.00000000000479 30.3658095176207
endloop
endfacet
facet normal -0.173648177666927 8.84878516177919e-14 0.984807753012209
outer loop
vertex 271.638204643818 4.80453757424315e-12 30.5116550887037
vertex 269.971182138216 3.00000000000479 30.3658095176207
vertex 269.971182138216 4.79148960139731e-12 30.3658095176209
endloop
endfacet
facet normal 5.04624586053802e-15 8.98470154559e-14 1.0
outer loop
vertex 269.971182138216 3.00000000000479 30.3658095176207
vertex 271.638204643818 4.80453757424315e-12 30.5116550887037
vertex 271.638204643818 3.0000000000048 30.5116550887035
endloop
endfacet
facet normal -0.342020143325667 8.44400291852907e-14 0.939692620785909
outer loop
vertex 273.254575514142 4.84339666959516e-12 30.9447603580762
vertex 271.638204643818 3.0000000000048 30.5116550887035
vertex 271.638204643818 4.80453757424315e-12 30.5116550887037
endloop
endfacet
facet normal -0.173648177666927 8.84878516177919e-14 0.984807753012209
outer loop
vertex 271.638204643818 3.0000000000048 30.5116550887035
vertex 273.254575514142 4.84339666959516e-12 30.9447603580762
vertex 273.254575514142 3.00000000000485 30.9447603580759
endloop
endfacet
facet normal -0.499999999999995 7.7826539194711e-14 0.866025403784441
outer loop
vertex 274.771182138216 4.90688617350473e-12 31.6519656412903
vertex 273.254575514142 3.00000000000485 30.9447603580759
vertex 273.254575514142 4.84339666959516e-12 30.9447603580762
endloop
endfacet
facet normal -0.342020143325667 8.44400291852906e-14 0.939692620785909
outer loop
vertex 273.254575514142 3.00000000000485 30.9447603580759
vertex 274.771182138216 4.90688617350473e-12 31.6519656412903
vertex 274.771182138216 3.0000000000049 31.65196564129
endloop
endfacet
facet normal -0.642787609686533 6.88483291928292e-14 0.766044443118983
outer loop
vertex 276.141943191206 4.99307698952279e-12 32.6117828636787
vertex 274.771182138216 3.0000000000049 31.65196564129
vertex 274.771182138216 4.90688617350473e-12 31.6519656412903
endloop
endfacet
facet normal -0.499999999999995 7.7826539194711e-14 0.866025403784441
outer loop
vertex 274.771182138216 3.0000000000049 31.65196564129
vertex 276.141943191206 4.99307698952279e-12 32.6117828636787
vertex 276.141943191206 3.00000000000499 32.6117828636784
endloop
endfacet
facet normal -0.766044443118973 5.77781975473586e-14 0.642787609686545
outer loop
vertex 277.325208792158 5.09935025331931e-12 33.7950484646301
vertex 276.141943191206 3.00000000000499 32.6117828636784
vertex 276.141943191206 4.99307698952279e-12 32.6117828636787
endloop
endfacet
facet normal -0.642787609686533 6.88483291928292e-14 0.766044443118983
outer loop
vertex 276.141943191206 3.00000000000499 32.6117828636784
vertex 277.325208792158 5.09935025331931e-12 33.7950484646301
vertex 277.325208792158 3.0000000000051 33.7950484646299
endloop
endfacet
facet normal -0.866025403784436 4.49525046065901e-14 0.500000000000005
outer loop
vertex 278.285026014546 5.22247690555069e-12 35.1658095176209
vertex 277.325208792158 3.0000000000051 33.7950484646299
vertex 277.325208792158 5.09935025331931e-12 33.7950484646301
endloop
endfacet
facet normal -0.766044443118973 5.77781975473586e-14 0.642787609686545
outer loop
vertex 277.325208792158 3.0000000000051 33.7950484646299
vertex 278.285026014546 5.22247690555069e-12 35.1658095176209
vertex 278.285026014546 3.00000000000522 35.1658095176206
endloop
endfacet
facet normal -0.939692620785907 3.07609525604154e-14 0.342020143325674
outer loop
vertex 278.99223129776 5.35871580519396e-12 36.6824161416945
vertex 278.285026014546 3.00000000000522 35.1658095176206
vertex 278.285026014546 5.22247690555069e-12 35.1658095176209
endloop
endfacet
facet normal -0.866025403784436 4.49525046065901e-14 0.500000000000005
outer loop
vertex 278.285026014546 3.00000000000522 35.1658095176206
vertex 278.99223129776 5.35871580519396e-12 36.6824161416945
vertex 278.99223129776 3.00000000000536 36.6824161416942
endloop
endfacet
facet normal -0.984807753012208 1.56347445364849e-14 0.173648177666928
outer loop
vertex 279.425336567133 5.50392740222369e-12 38.2987870120184
vertex 278.99223129776 3.00000000000536 36.6824161416942
vertex 278.99223129776 5.35871580519396e-12 36.6824161416945
endloop
endfacet
facet normal -0.939692620785907 3.07609525604154e-14 0.342020143325674
outer loop
vertex 278.99223129776 3.00000000000536 36.6824161416942
vertex 279.425336567133 5.50392740222369e-12 38.2987870120184
vertex 279.425336567133 3.0000000000055 38.2987870120181
endloop
endfacet
facet normal -1.0 3.34827113765991e-17 8.86862189901233e-17
outer loop
vertex 279.571182138216 5.65369951574473e-12 39.9658095176209
vertex 279.425336567133 3.0000000000055 38.2987870120181
vertex 279.425336567133 5.50392740222369e-12 38.2987870120184
endloop
endfacet
facet normal -0.984807753012209 1.56347445364849e-14 0.173648177666928
outer loop
vertex 279.425336567133 3.0000000000055 38.2987870120181
vertex 279.571182138216 5.65369951574473e-12 39.9658095176209
vertex 279.571182138216 3.00000000000565 39.9658095176206
endloop
endfacet
facet normal -0.984807753012209 -1.55687964689737e-14 -0.173648177666927
outer loop
vertex 279.425336567133 5.8034813958761e-12 41.6328320232234
vertex 279.571182138216 3.00000000000565 39.9658095176206
vertex 279.571182138216 5.65369951574473e-12 39.9658095176209
endloop
endfacet
facet normal -1.0 3.34827113765763e-17 -1.68503816081234e-16
outer loop
vertex 279.571182138216 3.00000000000565 39.9658095176206
vertex 279.425336567133 5.8034813958761e-12 41.6328320232234
vertex 279.425336567133 3.00000000000581 41.6328320232232
endloop
endfacet
facet normal -0.939692620785911 -3.06980256468053e-14 -0.34202014332566
outer loop
vertex 278.99223129776 5.94872199598328e-12 43.2492028935473
vertex 279.425336567133 3.00000000000581 41.6328320232232
vertex 279.425336567133 5.8034813958761e-12 41.6328320232234
endloop
endfacet
facet normal -0.984807753012209 -1.55687964689738e-14 -0.173648177666928
outer loop
vertex 279.425336567133 3.00000000000581 41.6328320232232
vertex 278.99223129776 5.94872199598328e-12 43.2492028935473
vertex 278.99223129776 3.00000000000595 43.2492028935471
endloop
endfacet
facet normal -0.866025403784443 -4.48945108493096e-14 -0.499999999999992
outer loop
vertex 278.285026014546 6.08500825392733e-12 44.7658095176209
vertex 278.99223129776 3.00000000000595 43.2492028935471
vertex 278.99223129776 5.94872199598328e-12 43.2492028935473
endloop
endfacet
facet normal -0.939692620785911 -3.06980256468053e-14 -0.34202014332566
outer loop
vertex 278.99223129776 3.00000000000595 43.2492028935471
vertex 278.285026014546 6.08500825392733e-12 44.7658095176209
vertex 278.285026014546 3.00000000000609 44.7658095176206
endloop
endfacet
facet normal -0.766044443118982 -5.77268990573765e-14 -0.642787609686535
outer loop
vertex 277.325208792158 6.20819918072477e-12 46.1365705706117
vertex 278.285026014546 3.00000000000609 44.7658095176206
vertex 278.285026014546 6.08500825392733e-12 44.7658095176209
endloop
endfacet
facet normal -0.866025403784443 -4.48945108493096e-14 -0.499999999999992
outer loop
vertex 278.285026014546 3.00000000000609 44.7658095176206
vertex 277.325208792158 6.20819918072477e-12 46.1365705706117
vertex 277.325208792158 3.00000000000621 46.1365705706114
endloop
endfacet
facet normal -0.642787609686544 -6.88052846488051e-14 -0.766044443118974
outer loop
vertex 276.141943191206 6.31455168240248e-12 47.3198361715631
vertex 277.325208792158 3.00000000000621 46.1365705706114
vertex 277.325208792158 6.20819918072477e-12 46.1365705706117
endloop
endfacet
facet normal -0.766044443118981 -5.77268990573765e-14 -0.642787609686535
outer loop
vertex 277.325208792158 3.00000000000621 46.1365705706114
vertex 276.141943191206 6.31455168240248e-12 47.3198361715631
vertex 276.141943191206 3.00000000000631 47.3198361715628
endloop
endfacet
facet normal -0.642787609686544 -6.88052846488052e-14 -0.766044443118974
outer loop
vertex 276.141943191206 3.00000000000631 47.3198361715628
vertex 274.771182138216 6.40083429201396e-12 48.2796533939515
vertex 274.771182138216 3.0000000000064 48.2796533939512
endloop
endfacet
facet normal -0.500000000000001 -7.77930564833341e-14 -0.866025403784438
outer loop
vertex 274.771182138216 6.40083429201396e-12 48.2796533939515
vertex 276.141943191206 3.00000000000631 47.3198361715628
vertex 276.141943191206 6.31455168240248e-12 47.3198361715631
endloop
endfacet
facet normal -0.500000000000001 -7.77930564833341e-14 -0.866025403784438
outer loop
vertex 274.771182138216 3.0000000000064 48.2796533939512
vertex 273.254575514142 6.46442535612725e-12 48.9868586771656
vertex 273.254575514142 3.00000000000646 48.9868586771654
endloop
endfacet
facet normal -0.342020143325675 -8.44171256618025e-14 -0.939692620785906
outer loop
vertex 273.254575514142 6.46442535612725e-12 48.9868586771656
vertex 274.771182138216 3.0000000000064 48.2796533939512
vertex 274.771182138216 6.40083429201396e-12 48.2796533939515
endloop
endfacet
facet normal -0.342020143325675 -8.44171256618025e-14 -0.939692620785906
outer loop
vertex 273.254575514142 3.00000000000646 48.9868586771654
vertex 271.638204643818 6.50339269243793e-12 49.4199639465381
vertex 271.638204643818 3.00000000000651 49.4199639465379
endloop
endfacet
facet normal -0.173648177666935 -8.8476223194164e-14 -0.984807753012207
outer loop
vertex 271.638204643818 6.50339269243793e-12 49.4199639465381
vertex 273.254575514142 3.00000000000646 48.9868586771654
vertex 273.254575514142 6.46442535612725e-12 48.9868586771656
endloop
endfacet
facet normal 3.40772428789695e-15 2.42179238870323e-15 1.0
outer loop
vertex 306.947009517621 3.00000000000387 22.9658095176207
vertex 232.99535475881 19.9516547588151 22.9658095176212
vertex 232.99535475881 3.00000000000387 22.9658095176206
endloop
endfacet
facet normal 3.40772428789695e-15 2.42179238870323e-15 1.0
outer loop
vertex 232.99535475881 19.9516547588151 22.9658095176212
vertex 306.947009517621 3.00000000000387 22.9658095176207
vertex 259.99535475881 19.9516547588155 22.9658095176211
endloop
endfacet
facet normal 3.40772428789695e-15 2.42179238870323e-15 1.0
outer loop
vertex 259.99535475881 19.9516547588155 22.9658095176211
vertex 306.947009517621 3.00000000000387 22.9658095176207
vertex 279.947009517621 19.9516547588155 22.9658095176209
endloop
endfacet
facet normal 3.40772428789695e-15 2.42179238870323e-15 1.0
outer loop
vertex 259.99535475881 19.9516547588155 22.9658095176211
vertex 279.947009517621 19.9516547588155 22.9658095176209
vertex 259.99535475881 76.9516547588155 22.9658095176206
endloop
endfacet
facet normal 3.40772428789695e-15 2.42179238870323e-15 1.0
outer loop
vertex 259.99535475881 76.9516547588155 22.9658095176206
vertex 279.947009517621 19.9516547588155 22.9658095176209
vertex 259.99535475881 79.9516547588155 22.9658095176206
endloop
endfacet
facet normal 3.40772428789695e-15 2.42179238870323e-15 1.0
outer loop
vertex 279.947009517621 19.9516547588155 22.9658095176209
vertex 306.947009517621 3.00000000000387 22.9658095176207
vertex 306.947009517621 19.9516547588155 22.9658095176207
endloop
endfacet
facet normal 3.40772428789695e-15 2.42179238870323e-15 1.0
outer loop
vertex 259.99535475881 79.9516547588155 22.9658095176206
vertex 279.947009517622 76.9516547588155 22.9658095176206
vertex 279.947009517622 79.9516547588155 22.9658095176206
endloop
endfacet
facet normal 3.40772428789695e-15 2.42179238870323e-15 1.0
outer loop
vertex 279.947009517622 76.9516547588155 22.9658095176206
vertex 259.99535475881 79.9516547588155 22.9658095176206
vertex 279.947009517621 19.9516547588155 22.9658095176209
endloop
endfacet
facet normal -1.42042756157968e-14 1.0 -9.74619994845499e-15
outer loop
vertex 232.99535475881 19.9516547588151 21.4658095176212
vertex 259.99535475881 19.9516547588155 22.9658095176211
vertex 259.99535475881 19.9516547588155 21.4658095176211
endloop
endfacet
facet normal -1.42042756157968e-14 1.0 -9.74619994845499e-15
outer loop
vertex 259.99535475881 19.9516547588155 22.9658095176211
vertex 232.99535475881 19.9516547588151 21.4658095176212
vertex 232.99535475881 19.9516547588151 22.9658095176212
endloop
endfacet
facet normal -5.21466621413269e-29 1.0 -5.7388791574658e-15
outer loop
vertex 279.947009517621 19.9516547588155 21.4658095176209
vertex 306.947009517621 19.9516547588155 22.9658095176207
vertex 306.947009517621 19.9516547588155 21.4658095176207
endloop
endfacet
facet normal -5.21466621413269e-29 1.0 -5.7388791574658e-15
outer loop
vertex 306.947009517621 19.9516547588155 22.9658095176207
vertex 279.947009517621 19.9516547588155 21.4658095176209
vertex 279.947009517621 19.9516547588155 22.9658095176209
endloop
endfacet
facet normal -1.0 2.74839571868519e-29 2.81996648254776e-15
outer loop
vertex 259.99535475881 19.9516547588155 22.9658095176211
vertex 259.99535475881 76.9516547588155 21.4658095176206
vertex 259.99535475881 19.9516547588155 21.4658095176211
endloop
endfacet
facet normal -1.0 2.74839571868519e-29 2.81996648254776e-15
outer loop
vertex 259.99535475881 76.9516547588155 21.4658095176206
vertex 259.99535475881 19.9516547588155 22.9658095176211
vertex 259.99535475881 76.9516547588155 22.9658095176206
endloop
endfacet
facet normal 0.90373783889354 -0.428086344739043 1.62370469634003e-15
outer loop
vertex 259.99535475881 76.9516547588155 21.4658095176206
vertex 232.99535475881 19.9516547588151 22.9658095176212
vertex 232.99535475881 19.9516547588151 21.4658095176212
endloop
endfacet
facet normal 0.90373783889354 -0.428086344739043 1.62370469634003e-15
outer loop
vertex 232.99535475881 19.9516547588151 22.9658095176212
vertex 259.99535475881 76.9516547588155 21.4658095176206
vertex 259.99535475881 76.9516547588155 22.9658095176206
endloop
endfacet
facet normal 2.81996648254776e-15 9.74619994845503e-15 1.0
outer loop
vertex 259.99535475881 76.9516547588155 21.4658095176206
vertex 232.99535475881 19.9516547588151 21.4658095176212
vertex 259.99535475881 19.9516547588155 21.4658095176211
endloop
endfacet
endsolid K02.2
