solid Carriage Spacer
facet normal 0.500000000000001 0.866025403784438 0.0
outer loop
vertex -1.25 -2.1650635094611 2.75
vertex -0.647047612756304 -2.41481456572267 0.0
vertex -1.25 -2.1650635094611 0.0
endloop
endfacet
facet normal 0.258819045102521 0.965925826289068 0.0
outer loop
vertex -0.647047612756304 -2.41481456572267 0.0
vertex -1.25 -2.1650635094611 2.75
vertex -0.647047612756304 -2.41481456572267 2.75
endloop
endfacet
facet normal -0.965925826289068 -0.25881904510252 0.0
outer loop
vertex -4.82962913144534 -1.2940952255126 2.75
vertex -4.33012701892219 -2.5 0.0
vertex -4.33012701892219 -2.5 2.75
endloop
endfacet
facet normal -0.866025403784439 -0.5 0.0
outer loop
vertex -4.33012701892219 -2.5 0.0
vertex -4.82962913144534 -1.2940952255126 2.75
vertex -4.82962913144534 -1.2940952255126 0.0
endloop
endfacet
facet normal 0.25881904510252 -0.965925826289069 0.0
outer loop
vertex 1.2940952255126 -4.82962913144534 2.75
vertex -9.18485099360515e-16 -5.0 0.0
vertex 1.2940952255126 -4.82962913144534 0.0
endloop
endfacet
facet normal -3.38622176034582e-16 -1.0 0.0
outer loop
vertex -9.18485099360515e-16 -5.0 0.0
vertex 1.2940952255126 -4.82962913144534 2.75
vertex -9.18485099360515e-16 -5.0 2.75
endloop
endfacet
facet normal -0.25881904510252 0.965925826289068 0.0
outer loop
vertex 0.647047612756301 -2.41481456572267 2.75
vertex 1.25 -2.1650635094611 0.0
vertex 0.647047612756301 -2.41481456572267 0.0
endloop
endfacet
facet normal -0.5 0.866025403784439 0.0
outer loop
vertex 1.25 -2.1650635094611 0.0
vertex 0.647047612756301 -2.41481456572267 2.75
vertex 1.25 -2.1650635094611 2.75
endloop
endfacet
facet normal -0.5 0.866025403784439 0.0
outer loop
vertex 1.25 -2.1650635094611 2.75
vertex 1.76776695296637 -1.76776695296637 0.0
vertex 1.25 -2.1650635094611 0.0
endloop
endfacet
facet normal -0.707106781186547 0.707106781186548 0.0
outer loop
vertex 1.76776695296637 -1.76776695296637 0.0
vertex 1.25 -2.1650635094611 2.75
vertex 1.76776695296637 -1.76776695296637 2.75
endloop
endfacet
facet normal 0.707106781186548 0.707106781186547 0.0
outer loop
vertex -1.76776695296637 -1.76776695296637 2.75
vertex -1.25 -2.1650635094611 0.0
vertex -1.76776695296637 -1.76776695296637 0.0
endloop
endfacet
facet normal 0.500000000000001 0.866025403784438 0.0
outer loop
vertex -1.25 -2.1650635094611 0.0
vertex -1.76776695296637 -1.76776695296637 2.75
vertex -1.25 -2.1650635094611 2.75
endloop
endfacet
facet normal 0.866025403784439 0.5 0.0
outer loop
vertex -2.1650635094611 -1.25 0.0
vertex -1.76776695296637 -1.76776695296637 2.75
vertex -1.76776695296637 -1.76776695296637 0.0
endloop
endfacet
facet normal 0.707106781186548 0.707106781186547 0.0
outer loop
vertex -1.76776695296637 -1.76776695296637 2.75
vertex -2.1650635094611 -1.25 0.0
vertex -2.1650635094611 -1.25 2.75
endloop
endfacet
facet normal 0.965925826289068 0.25881904510252 0.0
outer loop
vertex -2.41481456572267 -0.647047612756301 0.0
vertex -2.1650635094611 -1.25 2.75
vertex -2.1650635094611 -1.25 0.0
endloop
endfacet
facet normal 0.866025403784439 0.5 0.0
outer loop
vertex -2.1650635094611 -1.25 2.75
vertex -2.41481456572267 -0.647047612756301 0.0
vertex -2.41481456572267 -0.647047612756301 2.75
endloop
endfacet
facet normal 1.0 -1.4257775833035e-16 0.0
outer loop
vertex -2.5 3.06161699786838e-16 0.0
vertex -2.41481456572267 -0.647047612756301 2.75
vertex -2.41481456572267 -0.647047612756301 0.0
endloop
endfacet
facet normal 0.965925826289068 0.25881904510252 0.0
outer loop
vertex -2.41481456572267 -0.647047612756301 2.75
vertex -2.5 3.06161699786838e-16 0.0
vertex -2.5 3.06161699786838e-16 2.75
endloop
endfacet
facet normal 0.866025403784438 -0.5 0.0
outer loop
vertex 4.33012701892219 -2.5 0.0
vertex 3.53553390593274 -3.53553390593274 2.75
vertex 3.53553390593274 -3.53553390593274 0.0
endloop
endfacet
facet normal 0.707106781186547 -0.707106781186548 0.0
outer loop
vertex 3.53553390593274 -3.53553390593274 2.75
vertex 4.33012701892219 -2.5 0.0
vertex 4.33012701892219 -2.5 2.75
endloop
endfacet
facet normal 0.965925826289068 -0.258819045102521 0.0
outer loop
vertex -2.41481456572267 0.647047612756302 0.0
vertex -2.5 3.06161699786838e-16 2.75
vertex -2.5 3.06161699786838e-16 0.0
endloop
endfacet
facet normal 1.0 -1.4257775833035e-16 0.0
outer loop
vertex -2.5 3.06161699786838e-16 2.75
vertex -2.41481456572267 0.647047612756302 0.0
vertex -2.41481456572267 0.647047612756302 2.75
endloop
endfacet
facet normal -0.965925826289068 0.258819045102521 0.0
outer loop
vertex -4.82962913144534 1.29409522551261 2.75
vertex -5.0 6.12323399573677e-16 0.0
vertex -5.0 6.12323399573677e-16 2.75
endloop
endfacet
facet normal -1.0 1.51488868225997e-16 0.0
outer loop
vertex -5.0 6.12323399573677e-16 0.0
vertex -4.82962913144534 1.29409522551261 2.75
vertex -4.82962913144534 1.29409522551261 0.0
endloop
endfacet
facet normal 0.707106781186548 -0.707106781186547 0.0
outer loop
vertex -1.76776695296637 1.76776695296637 0.0
vertex -2.1650635094611 1.25 2.75
vertex -2.1650635094611 1.25 0.0
endloop
endfacet
facet normal 0.866025403784438 -0.5 0.0
outer loop
vertex -2.1650635094611 1.25 2.75
vertex -1.76776695296637 1.76776695296637 0.0
vertex -1.76776695296637 1.76776695296637 2.75
endloop
endfacet
facet normal -0.866025403784439 0.5 0.0
outer loop
vertex -4.33012701892219 2.5 2.75
vertex -4.82962913144534 1.29409522551261 0.0
vertex -4.82962913144534 1.29409522551261 2.75
endloop
endfacet
facet normal -0.965925826289068 0.258819045102521 0.0
outer loop
vertex -4.82962913144534 1.29409522551261 0.0
vertex -4.33012701892219 2.5 2.75
vertex -4.33012701892219 2.5 0.0
endloop
endfacet
facet normal -0.0 -0.0 1.0
outer loop
vertex -2.5 -4.33012701892219 2.75
vertex -2.41481456572267 -0.647047612756301 2.75
vertex -2.5 3.06161699786838e-16 2.75
endloop
endfacet
facet normal -0.0 -0.0 1.0
outer loop
vertex -2.41481456572267 -0.647047612756301 2.75
vertex -2.5 -4.33012701892219 2.75
vertex -1.29409522551261 -4.82962913144534 2.75
endloop
endfacet
facet normal -0.0 -0.0 1.0
outer loop
vertex -2.41481456572267 -0.647047612756301 2.75
vertex -1.29409522551261 -4.82962913144534 2.75
vertex -2.1650635094611 -1.25 2.75
endloop
endfacet
facet normal -0.0 -0.0 1.0
outer loop
vertex -2.1650635094611 -1.25 2.75
vertex -1.29409522551261 -4.82962913144534 2.75
vertex -1.76776695296637 -1.76776695296637 2.75
endloop
endfacet
facet normal -0.0 -0.0 1.0
outer loop
vertex -1.76776695296637 -1.76776695296637 2.75
vertex -1.29409522551261 -4.82962913144534 2.75
vertex -1.25 -2.1650635094611 2.75
endloop
endfacet
facet normal -0.0 -0.0 1.0
outer loop
vertex -1.25 -2.1650635094611 2.75
vertex -1.29409522551261 -4.82962913144534 2.75
vertex -9.18485099360515e-16 -5.0 2.75
endloop
endfacet
facet normal -0.0 -0.0 1.0
outer loop
vertex -1.25 -2.1650635094611 2.75
vertex -9.18485099360515e-16 -5.0 2.75
vertex -0.647047612756304 -2.41481456572267 2.75
endloop
endfacet
facet normal -0.0 -0.0 1.0
outer loop
vertex -0.647047612756304 -2.41481456572267 2.75
vertex -9.18485099360515e-16 -5.0 2.75
vertex -4.59242549680257e-16 -2.5 2.75
endloop
endfacet
facet normal -0.0 -0.0 1.0
outer loop
vertex -4.59242549680257e-16 -2.5 2.75
vertex -9.18485099360515e-16 -5.0 2.75
vertex 1.2940952255126 -4.82962913144534 2.75
endloop
endfacet
facet normal -0.0 -0.0 1.0
outer loop
vertex -4.59242549680257e-16 -2.5 2.75
vertex 1.2940952255126 -4.82962913144534 2.75
vertex 0.647047612756301 -2.41481456572267 2.75
endloop
endfacet
facet normal -0.0 -0.0 1.0
outer loop
vertex 0.647047612756301 -2.41481456572267 2.75
vertex 1.2940952255126 -4.82962913144534 2.75
vertex 1.25 -2.1650635094611 2.75
endloop
endfacet
facet normal -0.0 -0.0 1.0
outer loop
vertex 1.25 -2.1650635094611 2.75
vertex 1.2940952255126 -4.82962913144534 2.75
vertex 1.76776695296637 -1.76776695296637 2.75
endloop
endfacet
facet normal -0.0 -0.0 1.0
outer loop
vertex 1.76776695296637 -1.76776695296637 2.75
vertex 1.2940952255126 -4.82962913144534 2.75
vertex 2.5 -4.3301270189222 2.75
endloop
endfacet
facet normal -0.0 -0.0 1.0
outer loop
vertex 1.76776695296637 -1.76776695296637 2.75
vertex 2.5 -4.3301270189222 2.75
vertex 2.1650635094611 -1.25 2.75
endloop
endfacet
facet normal -0.0 -0.0 1.0
outer loop
vertex 2.1650635094611 -1.25 2.75
vertex 2.5 -4.3301270189222 2.75
vertex 2.41481456572267 -0.647047612756304 2.75
endloop
endfacet
facet normal -0.0 -0.0 1.0
outer loop
vertex 2.41481456572267 -0.647047612756304 2.75
vertex 2.5 -4.3301270189222 2.75
vertex 2.5 0.0 2.75
endloop
endfacet
facet normal -0.0 -0.0 1.0
outer loop
vertex 2.5 0.0 2.75
vertex 2.5 -4.3301270189222 2.75
vertex 3.53553390593274 -3.53553390593274 2.75
endloop
endfacet
facet normal -0.0 -0.0 1.0
outer loop
vertex 2.5 0.0 2.75
vertex 3.53553390593274 -3.53553390593274 2.75
vertex 2.5 4.33012701892219 2.75
endloop
endfacet
facet normal -0.0 -0.0 1.0
outer loop
vertex 2.5 4.33012701892219 2.75
vertex 3.53553390593274 -3.53553390593274 2.75
vertex 3.53553390593274 3.53553390593274 2.75
endloop
endfacet
facet normal -0.0 -0.0 1.0
outer loop
vertex 3.53553390593274 3.53553390593274 2.75
vertex 3.53553390593274 -3.53553390593274 2.75
vertex 4.33012701892219 -2.5 2.75
endloop
endfacet
facet normal -0.0 -0.0 1.0
outer loop
vertex 3.53553390593274 3.53553390593274 2.75
vertex 4.33012701892219 -2.5 2.75
vertex 4.33012701892219 2.5 2.75
endloop
endfacet
facet normal -0.0 -0.0 1.0
outer loop
vertex 4.33012701892219 2.5 2.75
vertex 4.33012701892219 -2.5 2.75
vertex 4.82962913144534 -1.29409522551261 2.75
endloop
endfacet
facet normal -0.0 -0.0 1.0
outer loop
vertex 4.33012701892219 2.5 2.75
vertex 4.82962913144534 -1.29409522551261 2.75
vertex 4.82962913144534 1.2940952255126 2.75
endloop
endfacet
facet normal -0.0 -0.0 1.0
outer loop
vertex 4.82962913144534 1.2940952255126 2.75
vertex 4.82962913144534 -1.29409522551261 2.75
vertex 5.0 0.0 2.75
endloop
endfacet
facet normal -0.0 -0.0 1.0
outer loop
vertex -4.82962913144534 -1.2940952255126 2.75
vertex -4.82962913144534 1.29409522551261 2.75
vertex -5.0 6.12323399573677e-16 2.75
endloop
endfacet
facet normal -0.0 -0.0 1.0
outer loop
vertex -4.82962913144534 1.29409522551261 2.75
vertex -4.82962913144534 -1.2940952255126 2.75
vertex -4.33012701892219 -2.5 2.75
endloop
endfacet
facet normal -0.0 -0.0 1.0
outer loop
vertex -4.82962913144534 1.29409522551261 2.75
vertex -4.33012701892219 -2.5 2.75
vertex -4.33012701892219 2.5 2.75
endloop
endfacet
facet normal -0.0 -0.0 1.0
outer loop
vertex -4.33012701892219 2.5 2.75
vertex -4.33012701892219 -2.5 2.75
vertex -3.53553390593274 -3.53553390593274 2.75
endloop
endfacet
facet normal -0.0 -0.0 1.0
outer loop
vertex -4.33012701892219 2.5 2.75
vertex -3.53553390593274 -3.53553390593274 2.75
vertex -3.53553390593274 3.53553390593274 2.75
endloop
endfacet
facet normal -0.0 -0.0 1.0
outer loop
vertex -3.53553390593274 3.53553390593274 2.75
vertex -3.53553390593274 -3.53553390593274 2.75
vertex -2.5 -4.33012701892219 2.75
endloop
endfacet
facet normal -0.0 -0.0 1.0
outer loop
vertex -3.53553390593274 3.53553390593274 2.75
vertex -2.5 -4.33012701892219 2.75
vertex -2.5 4.33012701892219 2.75
endloop
endfacet
facet normal -0.0 -0.0 1.0
outer loop
vertex -2.5 4.33012701892219 2.75
vertex -2.5 -4.33012701892219 2.75
vertex -2.5 3.06161699786838e-16 2.75
endloop
endfacet
facet normal -0.0 -0.0 1.0
outer loop
vertex -2.5 4.33012701892219 2.75
vertex -2.5 3.06161699786838e-16 2.75
vertex -2.41481456572267 0.647047612756302 2.75
endloop
endfacet
facet normal -0.0 -0.0 1.0
outer loop
vertex -2.5 4.33012701892219 2.75
vertex -2.41481456572267 0.647047612756302 2.75
vertex -1.2940952255126 4.82962913144534 2.75
endloop
endfacet
facet normal -0.0 -0.0 1.0
outer loop
vertex -1.2940952255126 4.82962913144534 2.75
vertex -2.41481456572267 0.647047612756302 2.75
vertex -2.1650635094611 1.25 2.75
endloop
endfacet
facet normal -0.0 -0.0 1.0
outer loop
vertex -1.2940952255126 4.82962913144534 2.75
vertex -2.1650635094611 1.25 2.75
vertex -1.76776695296637 1.76776695296637 2.75
endloop
endfacet
facet normal -0.0 -0.0 1.0
outer loop
vertex -1.2940952255126 4.82962913144534 2.75
vertex -1.76776695296637 1.76776695296637 2.75
vertex -1.25 2.1650635094611 2.75
endloop
endfacet
facet normal -0.0 -0.0 1.0
outer loop
vertex -1.2940952255126 4.82962913144534 2.75
vertex -1.25 2.1650635094611 2.75
vertex 3.06161699786838e-16 5.0 2.75
endloop
endfacet
facet normal -0.0 -0.0 1.0
outer loop
vertex 3.06161699786838e-16 5.0 2.75
vertex -1.25 2.1650635094611 2.75
vertex -0.647047612756301 2.41481456572267 2.75
endloop
endfacet
facet normal -0.0 -0.0 1.0
outer loop
vertex 3.06161699786838e-16 5.0 2.75
vertex -0.647047612756301 2.41481456572267 2.75
vertex 1.53080849893419e-16 2.5 2.75
endloop
endfacet
facet normal -0.0 -0.0 1.0
outer loop
vertex 3.06161699786838e-16 5.0 2.75
vertex 1.53080849893419e-16 2.5 2.75
vertex 0.647047612756302 2.41481456572267 2.75
endloop
endfacet
facet normal -0.0 -0.0 1.0
outer loop
vertex 3.06161699786838e-16 5.0 2.75
vertex 0.647047612756302 2.41481456572267 2.75
vertex 1.2940952255126 4.82962913144534 2.75
endloop
endfacet
facet normal -0.0 -0.0 1.0
outer loop
vertex 1.2940952255126 4.82962913144534 2.75
vertex 0.647047612756302 2.41481456572267 2.75
vertex 1.25 2.1650635094611 2.75
endloop
endfacet
facet normal -0.0 -0.0 1.0
outer loop
vertex 1.2940952255126 4.82962913144534 2.75
vertex 1.25 2.1650635094611 2.75
vertex 1.76776695296637 1.76776695296637 2.75
endloop
endfacet
facet normal -0.0 -0.0 1.0
outer loop
vertex 1.2940952255126 4.82962913144534 2.75
vertex 1.76776695296637 1.76776695296637 2.75
vertex 2.5 4.33012701892219 2.75
endloop
endfacet
facet normal -0.0 -0.0 1.0
outer loop
vertex 2.5 4.33012701892219 2.75
vertex 1.76776695296637 1.76776695296637 2.75
vertex 2.1650635094611 1.25 2.75
endloop
endfacet
facet normal -0.0 -0.0 1.0
outer loop
vertex 2.5 4.33012701892219 2.75
vertex 2.1650635094611 1.25 2.75
vertex 2.41481456572267 0.647047612756302 2.75
endloop
endfacet
facet normal -0.0 -0.0 1.0
outer loop
vertex 2.5 4.33012701892219 2.75
vertex 2.41481456572267 0.647047612756302 2.75
vertex 2.5 0.0 2.75
endloop
endfacet
facet normal -1.0 1.51488868225997e-16 0.0
outer loop
vertex -5.0 6.12323399573677e-16 2.75
vertex -4.82962913144534 -1.2940952255126 0.0
vertex -4.82962913144534 -1.2940952255126 2.75
endloop
endfacet
facet normal -0.965925826289068 -0.25881904510252 0.0
outer loop
vertex -4.82962913144534 -1.2940952255126 0.0
vertex -5.0 6.12323399573677e-16 2.75
vertex -5.0 6.12323399573677e-16 0.0
endloop
endfacet
facet normal 0.5 -0.866025403784439 0.0
outer loop
vertex -1.25 2.1650635094611 2.75
vertex -1.76776695296637 1.76776695296637 0.0
vertex -1.25 2.1650635094611 0.0
endloop
endfacet
facet normal 0.707106781186548 -0.707106781186547 0.0
outer loop
vertex -1.76776695296637 1.76776695296637 0.0
vertex -1.25 2.1650635094611 2.75
vertex -1.76776695296637 1.76776695296637 2.75
endloop
endfacet
facet normal -0.707106781186547 0.707106781186548 0.0
outer loop
vertex -3.53553390593274 3.53553390593274 2.75
vertex -4.33012701892219 2.5 0.0
vertex -4.33012701892219 2.5 2.75
endloop
endfacet
facet normal -0.866025403784439 0.5 0.0
outer loop
vertex -4.33012701892219 2.5 0.0
vertex -3.53553390593274 3.53553390593274 2.75
vertex -3.53553390593274 3.53553390593274 0.0
endloop
endfacet
facet normal 0.866025403784438 -0.5 0.0
outer loop
vertex -2.1650635094611 1.25 0.0
vertex -2.41481456572267 0.647047612756302 2.75
vertex -2.41481456572267 0.647047612756302 0.0
endloop
endfacet
facet normal 0.965925826289068 -0.258819045102521 0.0
outer loop
vertex -2.41481456572267 0.647047612756302 2.75
vertex -2.1650635094611 1.25 0.0
vertex -2.1650635094611 1.25 2.75
endloop
endfacet
facet normal 0.0 0.0 -1.0
outer loop
vertex -4.82962913144534 1.29409522551261 0.0
vertex -4.82962913144534 -1.2940952255126 0.0
vertex -5.0 6.12323399573677e-16 0.0
endloop
endfacet
facet normal 0.0 0.0 -1.0
outer loop
vertex -4.82962913144534 -1.2940952255126 0.0
vertex -4.82962913144534 1.29409522551261 0.0
vertex -4.33012701892219 -2.5 0.0
endloop
endfacet
facet normal 0.0 0.0 -1.0
outer loop
vertex -4.33012701892219 -2.5 0.0
vertex -4.82962913144534 1.29409522551261 0.0
vertex -4.33012701892219 2.5 0.0
endloop
endfacet
facet normal 0.0 0.0 -1.0
outer loop
vertex -4.33012701892219 -2.5 0.0
vertex -4.33012701892219 2.5 0.0
vertex -3.53553390593274 -3.53553390593274 0.0
endloop
endfacet
facet normal 0.0 0.0 -1.0
outer loop
vertex -3.53553390593274 -3.53553390593274 0.0
vertex -4.33012701892219 2.5 0.0
vertex -3.53553390593274 3.53553390593274 0.0
endloop
endfacet
facet normal 0.0 0.0 -1.0
outer loop
vertex -3.53553390593274 -3.53553390593274 0.0
vertex -3.53553390593274 3.53553390593274 0.0
vertex -2.5 -4.33012701892219 0.0
endloop
endfacet
facet normal 0.0 0.0 -1.0
outer loop
vertex -2.5 -4.33012701892219 0.0
vertex -3.53553390593274 3.53553390593274 0.0
vertex -2.5 4.33012701892219 0.0
endloop
endfacet
facet normal 0.0 0.0 -1.0
outer loop
vertex -2.5 -4.33012701892219 0.0
vertex -2.5 4.33012701892219 0.0
vertex -2.5 3.06161699786838e-16 0.0
endloop
endfacet
facet normal 0.0 0.0 -1.0
outer loop
vertex -2.5 3.06161699786838e-16 0.0
vertex -2.5 4.33012701892219 0.0
vertex -2.41481456572267 0.647047612756302 0.0
endloop
endfacet
facet normal 0.0 0.0 -1.0
outer loop
vertex -2.41481456572267 0.647047612756302 0.0
vertex -2.5 4.33012701892219 0.0
vertex -1.2940952255126 4.82962913144534 0.0
endloop
endfacet
facet normal 0.0 0.0 -1.0
outer loop
vertex -2.41481456572267 0.647047612756302 0.0
vertex -1.2940952255126 4.82962913144534 0.0
vertex -2.1650635094611 1.25 0.0
endloop
endfacet
facet normal 0.0 0.0 -1.0
outer loop
vertex -2.1650635094611 1.25 0.0
vertex -1.2940952255126 4.82962913144534 0.0
vertex -1.76776695296637 1.76776695296637 0.0
endloop
endfacet
facet normal 0.0 0.0 -1.0
outer loop
vertex -1.76776695296637 1.76776695296637 0.0
vertex -1.2940952255126 4.82962913144534 0.0
vertex -1.25 2.1650635094611 0.0
endloop
endfacet
facet normal 0.0 0.0 -1.0
outer loop
vertex -1.25 2.1650635094611 0.0
vertex -1.2940952255126 4.82962913144534 0.0
vertex 3.06161699786838e-16 5.0 0.0
endloop
endfacet
facet normal 0.0 0.0 -1.0
outer loop
vertex -1.25 2.1650635094611 0.0
vertex 3.06161699786838e-16 5.0 0.0
vertex -0.647047612756301 2.41481456572267 0.0
endloop
endfacet
facet normal 0.0 0.0 -1.0
outer loop
vertex -0.647047612756301 2.41481456572267 0.0
vertex 3.06161699786838e-16 5.0 0.0
vertex 1.53080849893419e-16 2.5 0.0
endloop
endfacet
facet normal 0.0 0.0 -1.0
outer loop
vertex 1.53080849893419e-16 2.5 0.0
vertex 3.06161699786838e-16 5.0 0.0
vertex 0.647047612756302 2.41481456572267 0.0
endloop
endfacet
facet normal 0.0 0.0 -1.0
outer loop
vertex 0.647047612756302 2.41481456572267 0.0
vertex 3.06161699786838e-16 5.0 0.0
vertex 1.2940952255126 4.82962913144534 0.0
endloop
endfacet
facet normal 0.0 0.0 -1.0
outer loop
vertex 0.647047612756302 2.41481456572267 0.0
vertex 1.2940952255126 4.82962913144534 0.0
vertex 1.25 2.1650635094611 0.0
endloop
endfacet
facet normal 0.0 0.0 -1.0
outer loop
vertex 1.25 2.1650635094611 0.0
vertex 1.2940952255126 4.82962913144534 0.0
vertex 1.76776695296637 1.76776695296637 0.0
endloop
endfacet
facet normal 0.0 0.0 -1.0
outer loop
vertex 1.76776695296637 1.76776695296637 0.0
vertex 1.2940952255126 4.82962913144534 0.0
vertex 2.5 4.33012701892219 0.0
endloop
endfacet
facet normal 0.0 0.0 -1.0
outer loop
vertex 1.76776695296637 1.76776695296637 0.0
vertex 2.5 4.33012701892219 0.0
vertex 2.1650635094611 1.25 0.0
endloop
endfacet
facet normal 0.0 0.0 -1.0
outer loop
vertex 2.1650635094611 1.25 0.0
vertex 2.5 4.33012701892219 0.0
vertex 2.41481456572267 0.647047612756302 0.0
endloop
endfacet
facet normal 0.0 0.0 -1.0
outer loop
vertex 2.41481456572267 0.647047612756302 0.0
vertex 2.5 4.33012701892219 0.0
vertex 2.5 0.0 0.0
endloop
endfacet
facet normal 0.0 0.0 -1.0
outer loop
vertex -2.5 -4.33012701892219 0.0
vertex -2.41481456572267 -0.647047612756301 0.0
vertex -1.29409522551261 -4.82962913144534 0.0
endloop
endfacet
facet normal 0.0 0.0 -1.0
outer loop
vertex -2.41481456572267 -0.647047612756301 0.0
vertex -2.5 -4.33012701892219 0.0
vertex -2.5 3.06161699786838e-16 0.0
endloop
endfacet
facet normal 0.0 0.0 -1.0
outer loop
vertex -1.29409522551261 -4.82962913144534 0.0
vertex -2.41481456572267 -0.647047612756301 0.0
vertex -2.1650635094611 -1.25 0.0
endloop
endfacet
facet normal 0.0 0.0 -1.0
outer loop
vertex -1.29409522551261 -4.82962913144534 0.0
vertex -2.1650635094611 -1.25 0.0
vertex -1.76776695296637 -1.76776695296637 0.0
endloop
endfacet
facet normal 0.0 0.0 -1.0
outer loop
vertex -1.29409522551261 -4.82962913144534 0.0
vertex -1.76776695296637 -1.76776695296637 0.0
vertex -1.25 -2.1650635094611 0.0
endloop
endfacet
facet normal 0.0 0.0 -1.0
outer loop
vertex -1.29409522551261 -4.82962913144534 0.0
vertex -1.25 -2.1650635094611 0.0
vertex -9.18485099360515e-16 -5.0 0.0
endloop
endfacet
facet normal 0.0 0.0 -1.0
outer loop
vertex -9.18485099360515e-16 -5.0 0.0
vertex -1.25 -2.1650635094611 0.0
vertex -0.647047612756304 -2.41481456572267 0.0
endloop
endfacet
facet normal 0.0 0.0 -1.0
outer loop
vertex -9.18485099360515e-16 -5.0 0.0
vertex -0.647047612756304 -2.41481456572267 0.0
vertex -4.59242549680257e-16 -2.5 0.0
endloop
endfacet
facet normal 0.0 0.0 -1.0
outer loop
vertex -9.18485099360515e-16 -5.0 0.0
vertex -4.59242549680257e-16 -2.5 0.0
vertex 1.2940952255126 -4.82962913144534 0.0
endloop
endfacet
facet normal 0.0 0.0 -1.0
outer loop
vertex 1.2940952255126 -4.82962913144534 0.0
vertex -4.59242549680257e-16 -2.5 0.0
vertex 0.647047612756301 -2.41481456572267 0.0
endloop
endfacet
facet normal 0.0 0.0 -1.0
outer loop
vertex 1.2940952255126 -4.82962913144534 0.0
vertex 0.647047612756301 -2.41481456572267 0.0
vertex 1.25 -2.1650635094611 0.0
endloop
endfacet
facet normal 0.0 0.0 -1.0
outer loop
vertex 1.2940952255126 -4.82962913144534 0.0
vertex 1.25 -2.1650635094611 0.0
vertex 1.76776695296637 -1.76776695296637 0.0
endloop
endfacet
facet normal 0.0 0.0 -1.0
outer loop
vertex 1.2940952255126 -4.82962913144534 0.0
vertex 1.76776695296637 -1.76776695296637 0.0
vertex 2.5 -4.3301270189222 0.0
endloop
endfacet
facet normal 0.0 0.0 -1.0
outer loop
vertex 2.5 -4.3301270189222 0.0
vertex 1.76776695296637 -1.76776695296637 0.0
vertex 2.1650635094611 -1.25 0.0
endloop
endfacet
facet normal 0.0 0.0 -1.0
outer loop
vertex 2.5 -4.3301270189222 0.0
vertex 2.1650635094611 -1.25 0.0
vertex 2.41481456572267 -0.647047612756304 0.0
endloop
endfacet
facet normal 0.0 0.0 -1.0
outer loop
vertex 2.5 -4.3301270189222 0.0
vertex 2.41481456572267 -0.647047612756304 0.0
vertex 2.5 0.0 0.0
endloop
endfacet
facet normal 0.0 0.0 -1.0
outer loop
vertex 2.5 -4.3301270189222 0.0
vertex 2.5 0.0 0.0
vertex 3.53553390593274 -3.53553390593274 0.0
endloop
endfacet
facet normal 0.0 0.0 -1.0
outer loop
vertex 3.53553390593274 -3.53553390593274 0.0
vertex 2.5 0.0 0.0
vertex 2.5 4.33012701892219 0.0
endloop
endfacet
facet normal 0.0 0.0 -1.0
outer loop
vertex 3.53553390593274 -3.53553390593274 0.0
vertex 2.5 4.33012701892219 0.0
vertex 3.53553390593274 3.53553390593274 0.0
endloop
endfacet
facet normal 0.0 0.0 -1.0
outer loop
vertex 3.53553390593274 -3.53553390593274 0.0
vertex 3.53553390593274 3.53553390593274 0.0
vertex 4.33012701892219 -2.5 0.0
endloop
endfacet
facet normal 0.0 0.0 -1.0
outer loop
vertex 4.33012701892219 -2.5 0.0
vertex 3.53553390593274 3.53553390593274 0.0
vertex 4.33012701892219 2.5 0.0
endloop
endfacet
facet normal 0.0 0.0 -1.0
outer loop
vertex 4.33012701892219 -2.5 0.0
vertex 4.33012701892219 2.5 0.0
vertex 4.82962913144534 -1.29409522551261 0.0
endloop
endfacet
facet normal 0.0 0.0 -1.0
outer loop
vertex 4.82962913144534 -1.29409522551261 0.0
vertex 4.33012701892219 2.5 0.0
vertex 4.82962913144534 1.2940952255126 0.0
endloop
endfacet
facet normal 0.0 0.0 -1.0
outer loop
vertex 4.82962913144534 -1.29409522551261 0.0
vertex 4.82962913144534 1.2940952255126 0.0
vertex 5.0 0.0 0.0
endloop
endfacet
facet normal 0.499999999999999 -0.866025403784439 0.0
outer loop
vertex 2.5 -4.3301270189222 2.75
vertex 1.2940952255126 -4.82962913144534 0.0
vertex 2.5 -4.3301270189222 0.0
endloop
endfacet
facet normal 0.25881904510252 -0.965925826289069 0.0
outer loop
vertex 1.2940952255126 -4.82962913144534 0.0
vertex 2.5 -4.3301270189222 2.75
vertex 1.2940952255126 -4.82962913144534 2.75
endloop
endfacet
facet normal 0.25881904510252 -0.965925826289068 0.0
outer loop
vertex -0.647047612756301 2.41481456572267 2.75
vertex -1.25 2.1650635094611 0.0
vertex -0.647047612756301 2.41481456572267 0.0
endloop
endfacet
facet normal 0.5 -0.866025403784439 0.0
outer loop
vertex -1.25 2.1650635094611 0.0
vertex -0.647047612756301 2.41481456572267 2.75
vertex -1.25 2.1650635094611 2.75
endloop
endfacet
facet normal 4.45555494782345e-17 -1.0 0.0
outer loop
vertex 1.53080849893419e-16 2.5 2.75
vertex -0.647047612756301 2.41481456572267 0.0
vertex 1.53080849893419e-16 2.5 0.0
endloop
endfacet
facet normal 0.25881904510252 -0.965925826289068 0.0
outer loop
vertex -0.647047612756301 2.41481456572267 0.0
vertex 1.53080849893419e-16 2.5 2.75
vertex -0.647047612756301 2.41481456572267 2.75
endloop
endfacet
facet normal -0.5 -0.866025403784438 0.0
outer loop
vertex 1.25 2.1650635094611 2.75
vertex 0.647047612756302 2.41481456572267 0.0
vertex 1.25 2.1650635094611 0.0
endloop
endfacet
facet normal -0.258819045102521 -0.965925826289068 0.0
outer loop
vertex 0.647047612756302 2.41481456572267 0.0
vertex 1.25 2.1650635094611 2.75
vertex 0.647047612756302 2.41481456572267 2.75
endloop
endfacet
facet normal -0.258819045102521 -0.965925826289068 0.0
outer loop
vertex 0.647047612756302 2.41481456572267 2.75
vertex 1.53080849893419e-16 2.5 0.0
vertex 0.647047612756302 2.41481456572267 0.0
endloop
endfacet
facet normal 4.45555494782345e-17 -1.0 0.0
outer loop
vertex 1.53080849893419e-16 2.5 0.0
vertex 0.647047612756302 2.41481456572267 2.75
vertex 1.53080849893419e-16 2.5 2.75
endloop
endfacet
facet normal -0.707106781186548 -0.707106781186547 0.0
outer loop
vertex 1.76776695296637 1.76776695296637 2.75
vertex 1.25 2.1650635094611 0.0
vertex 1.76776695296637 1.76776695296637 0.0
endloop
endfacet
facet normal -0.5 -0.866025403784438 0.0
outer loop
vertex 1.25 2.1650635094611 0.0
vertex 1.76776695296637 1.76776695296637 2.75
vertex 1.25 2.1650635094611 2.75
endloop
endfacet
facet normal 0.707106781186547 -0.707106781186548 0.0
outer loop
vertex 3.53553390593274 -3.53553390593274 2.75
vertex 2.5 -4.3301270189222 0.0
vertex 3.53553390593274 -3.53553390593274 0.0
endloop
endfacet
facet normal 0.499999999999999 -0.866025403784439 0.0
outer loop
vertex 2.5 -4.3301270189222 0.0
vertex 3.53553390593274 -3.53553390593274 2.75
vertex 2.5 -4.3301270189222 2.75
endloop
endfacet
facet normal -0.866025403784439 -0.5 0.0
outer loop
vertex 2.1650635094611 1.25 2.75
vertex 2.41481456572267 0.647047612756302 0.0
vertex 2.41481456572267 0.647047612756302 2.75
endloop
endfacet
facet normal -0.965925826289068 -0.258819045102521 0.0
outer loop
vertex 2.41481456572267 0.647047612756302 0.0
vertex 2.1650635094611 1.25 2.75
vertex 2.1650635094611 1.25 0.0
endloop
endfacet
facet normal -0.707106781186548 -0.707106781186547 0.0
outer loop
vertex 1.76776695296637 1.76776695296637 2.75
vertex 2.1650635094611 1.25 0.0
vertex 2.1650635094611 1.25 2.75
endloop
endfacet
facet normal -0.866025403784439 -0.5 0.0
outer loop
vertex 2.1650635094611 1.25 0.0
vertex 1.76776695296637 1.76776695296637 2.75
vertex 1.76776695296637 1.76776695296637 0.0
endloop
endfacet
facet normal 0.866025403784439 0.5 0.0
outer loop
vertex 4.33012701892219 2.5 0.0
vertex 4.82962913144534 1.2940952255126 2.75
vertex 4.82962913144534 1.2940952255126 0.0
endloop
endfacet
facet normal 0.965925826289068 0.258819045102521 0.0
outer loop
vertex 4.82962913144534 1.2940952255126 2.75
vertex 4.33012701892219 2.5 0.0
vertex 4.33012701892219 2.5 2.75
endloop
endfacet
facet normal 0.965925826289068 0.258819045102521 0.0
outer loop
vertex 4.82962913144534 1.2940952255126 0.0
vertex 5.0 0.0 2.75
vertex 5.0 0.0 0.0
endloop
endfacet
facet normal 1.0 -7.12888791651753e-17 0.0
outer loop
vertex 5.0 0.0 2.75
vertex 4.82962913144534 1.2940952255126 0.0
vertex 4.82962913144534 1.2940952255126 2.75
endloop
endfacet
facet normal 1.0 -7.12888791651753e-17 0.0
outer loop
vertex 5.0 0.0 0.0
vertex 4.82962913144534 -1.29409522551261 2.75
vertex 4.82962913144534 -1.29409522551261 0.0
endloop
endfacet
facet normal 0.965925826289068 -0.258819045102521 0.0
outer loop
vertex 4.82962913144534 -1.29409522551261 2.75
vertex 5.0 0.0 0.0
vertex 5.0 0.0 2.75
endloop
endfacet
facet normal 0.965925826289068 -0.258819045102521 0.0
outer loop
vertex 4.82962913144534 -1.29409522551261 0.0
vertex 4.33012701892219 -2.5 2.75
vertex 4.33012701892219 -2.5 0.0
endloop
endfacet
facet normal 0.866025403784438 -0.5 0.0
outer loop
vertex 4.33012701892219 -2.5 2.75
vertex 4.82962913144534 -1.29409522551261 0.0
vertex 4.82962913144534 -1.29409522551261 2.75
endloop
endfacet
facet normal 0.5 0.866025403784439 0.0
outer loop
vertex 2.5 4.33012701892219 2.75
vertex 3.53553390593274 3.53553390593274 0.0
vertex 2.5 4.33012701892219 0.0
endloop
endfacet
facet normal 0.707106781186548 0.707106781186547 0.0
outer loop
vertex 3.53553390593274 3.53553390593274 0.0
vertex 2.5 4.33012701892219 2.75
vertex 3.53553390593274 3.53553390593274 2.75
endloop
endfacet
facet normal -3.38622176034582e-16 -1.0 0.0
outer loop
vertex -9.18485099360515e-16 -5.0 2.75
vertex -1.29409522551261 -4.82962913144534 0.0
vertex -9.18485099360515e-16 -5.0 0.0
endloop
endfacet
facet normal -0.258819045102521 -0.965925826289068 0.0
outer loop
vertex -1.29409522551261 -4.82962913144534 0.0
vertex -9.18485099360515e-16 -5.0 2.75
vertex -1.29409522551261 -4.82962913144534 2.75
endloop
endfacet
facet normal -0.258819045102521 -0.965925826289068 0.0
outer loop
vertex -1.29409522551261 -4.82962913144534 2.75
vertex -2.5 -4.33012701892219 0.0
vertex -1.29409522551261 -4.82962913144534 0.0
endloop
endfacet
facet normal -0.500000000000001 -0.866025403784438 0.0
outer loop
vertex -2.5 -4.33012701892219 0.0
vertex -1.29409522551261 -4.82962913144534 2.75
vertex -2.5 -4.33012701892219 2.75
endloop
endfacet
facet normal -0.500000000000001 -0.866025403784438 0.0
outer loop
vertex -2.5 -4.33012701892219 2.75
vertex -3.53553390593274 -3.53553390593274 0.0
vertex -2.5 -4.33012701892219 0.0
endloop
endfacet
facet normal -0.707106781186548 -0.707106781186547 0.0
outer loop
vertex -3.53553390593274 -3.53553390593274 0.0
vertex -2.5 -4.33012701892219 2.75
vertex -3.53553390593274 -3.53553390593274 2.75
endloop
endfacet
facet normal -0.866025403784439 -0.5 0.0
outer loop
vertex -4.33012701892219 -2.5 2.75
vertex -3.53553390593274 -3.53553390593274 0.0
vertex -3.53553390593274 -3.53553390593274 2.75
endloop
endfacet
facet normal -0.707106781186548 -0.707106781186547 0.0
outer loop
vertex -3.53553390593274 -3.53553390593274 0.0
vertex -4.33012701892219 -2.5 2.75
vertex -4.33012701892219 -2.5 0.0
endloop
endfacet
facet normal 0.258819045102521 0.965925826289068 0.0
outer loop
vertex 1.2940952255126 4.82962913144534 2.75
vertex 2.5 4.33012701892219 0.0
vertex 1.2940952255126 4.82962913144534 0.0
endloop
endfacet
facet normal 0.5 0.866025403784439 0.0
outer loop
vertex 2.5 4.33012701892219 0.0
vertex 1.2940952255126 4.82962913144534 2.75
vertex 2.5 4.33012701892219 2.75
endloop
endfacet
facet normal -4.45555494782345e-17 1.0 0.0
outer loop
vertex 3.06161699786838e-16 5.0 2.75
vertex 1.2940952255126 4.82962913144534 0.0
vertex 3.06161699786838e-16 5.0 0.0
endloop
endfacet
facet normal 0.258819045102521 0.965925826289068 0.0
outer loop
vertex 1.2940952255126 4.82962913144534 0.0
vertex 3.06161699786838e-16 5.0 2.75
vertex 1.2940952255126 4.82962913144534 2.75
endloop
endfacet
facet normal -0.707106781186547 0.707106781186548 0.0
outer loop
vertex -3.53553390593274 3.53553390593274 2.75
vertex -2.5 4.33012701892219 0.0
vertex -3.53553390593274 3.53553390593274 0.0
endloop
endfacet
facet normal -0.5 0.866025403784439 0.0
outer loop
vertex -2.5 4.33012701892219 0.0
vertex -3.53553390593274 3.53553390593274 2.75
vertex -2.5 4.33012701892219 2.75
endloop
endfacet
facet normal -0.5 0.866025403784439 0.0
outer loop
vertex -2.5 4.33012701892219 2.75
vertex -1.2940952255126 4.82962913144534 0.0
vertex -2.5 4.33012701892219 0.0
endloop
endfacet
facet normal -0.25881904510252 0.965925826289068 0.0
outer loop
vertex -1.2940952255126 4.82962913144534 0.0
vertex -2.5 4.33012701892219 2.75
vertex -1.2940952255126 4.82962913144534 2.75
endloop
endfacet
facet normal -0.25881904510252 0.965925826289068 0.0
outer loop
vertex -1.2940952255126 4.82962913144534 2.75
vertex 3.06161699786838e-16 5.0 0.0
vertex -1.2940952255126 4.82962913144534 0.0
endloop
endfacet
facet normal -4.45555494782345e-17 1.0 0.0
outer loop
vertex 3.06161699786838e-16 5.0 0.0
vertex -1.2940952255126 4.82962913144534 2.75
vertex 3.06161699786838e-16 5.0 2.75
endloop
endfacet
facet normal 0.707106781186548 0.707106781186547 0.0
outer loop
vertex 3.53553390593274 3.53553390593274 0.0
vertex 4.33012701892219 2.5 2.75
vertex 4.33012701892219 2.5 0.0
endloop
endfacet
facet normal 0.866025403784439 0.5 0.0
outer loop
vertex 4.33012701892219 2.5 2.75
vertex 3.53553390593274 3.53553390593274 0.0
vertex 3.53553390593274 3.53553390593274 2.75
endloop
endfacet
facet normal 0.258819045102521 0.965925826289068 0.0
outer loop
vertex -0.647047612756304 -2.41481456572267 2.75
vertex -4.59242549680257e-16 -2.5 0.0
vertex -0.647047612756304 -2.41481456572267 0.0
endloop
endfacet
facet normal 3.20799956243289e-16 1.0 0.0
outer loop
vertex -4.59242549680257e-16 -2.5 0.0
vertex -0.647047612756304 -2.41481456572267 2.75
vertex -4.59242549680257e-16 -2.5 2.75
endloop
endfacet
facet normal 3.20799956243289e-16 1.0 0.0
outer loop
vertex -4.59242549680257e-16 -2.5 2.75
vertex 0.647047612756301 -2.41481456572267 0.0
vertex -4.59242549680257e-16 -2.5 0.0
endloop
endfacet
facet normal -0.25881904510252 0.965925826289068 0.0
outer loop
vertex 0.647047612756301 -2.41481456572267 0.0
vertex -4.59242549680257e-16 -2.5 2.75
vertex 0.647047612756301 -2.41481456572267 2.75
endloop
endfacet
facet normal -0.965925826289068 -0.258819045102521 0.0
outer loop
vertex 2.41481456572267 0.647047612756302 2.75
vertex 2.5 0.0 0.0
vertex 2.5 0.0 2.75
endloop
endfacet
facet normal -1.0 6.23777692695283e-17 0.0
outer loop
vertex 2.5 0.0 0.0
vertex 2.41481456572267 0.647047612756302 2.75
vertex 2.41481456572267 0.647047612756302 0.0
endloop
endfacet
facet normal -1.0 6.23777692695283e-17 0.0
outer loop
vertex 2.5 0.0 2.75
vertex 2.41481456572267 -0.647047612756304 0.0
vertex 2.41481456572267 -0.647047612756304 2.75
endloop
endfacet
facet normal -0.965925826289068 0.258819045102521 0.0
outer loop
vertex 2.41481456572267 -0.647047612756304 0.0
vertex 2.5 0.0 2.75
vertex 2.5 0.0 0.0
endloop
endfacet
facet normal -0.965925826289068 0.258819045102521 0.0
outer loop
vertex 2.41481456572267 -0.647047612756304 2.75
vertex 2.1650635094611 -1.25 0.0
vertex 2.1650635094611 -1.25 2.75
endloop
endfacet
facet normal -0.866025403784438 0.5 0.0
outer loop
vertex 2.1650635094611 -1.25 0.0
vertex 2.41481456572267 -0.647047612756304 2.75
vertex 2.41481456572267 -0.647047612756304 0.0
endloop
endfacet
facet normal -0.866025403784438 0.5 0.0
outer loop
vertex 2.1650635094611 -1.25 2.75
vertex 1.76776695296637 -1.76776695296637 0.0
vertex 1.76776695296637 -1.76776695296637 2.75
endloop
endfacet
facet normal -0.707106781186547 0.707106781186548 0.0
outer loop
vertex 1.76776695296637 -1.76776695296637 0.0
vertex 2.1650635094611 -1.25 2.75
vertex 2.1650635094611 -1.25 0.0
endloop
endfacet
endsolid Carriage Spacer
