solid Dev Build
facet normal 1.0 -0.0 -0.0
outer loop
vertex -2.0 0.0 -3.63369067021281e-16
vertex -2.0 -20.0 17.4
vertex -2.0 -20.0 -3.63369067021281e-16
endloop
endfacet
facet normal 1.0 -0.0 -0.0
outer loop
vertex -2.0 -20.0 17.4
vertex -2.0 0.0 -3.63369067021281e-16
vertex -2.0 -5.0 17.4
endloop
endfacet
facet normal 1.0 -0.0 -0.0
outer loop
vertex -2.0 -5.0 17.4
vertex -2.0 0.0 -3.63369067021281e-16
vertex -2.0 0.0 17.4
endloop
endfacet
facet normal -0.994207047565849 -1.46019793488689e-17 0.107481842980092
outer loop
vertex -3.4 -15.0 18.8
vertex -4.6 -20.0 7.7
vertex -3.4 -20.0 18.8
endloop
endfacet
facet normal -0.994207047565849 -1.46019793488689e-17 0.107481842980092
outer loop
vertex -4.6 -20.0 7.7
vertex -3.4 -15.0 18.8
vertex -4.6 0.0 7.7
endloop
endfacet
facet normal -0.994207047565849 -1.46019793488689e-17 0.107481842980092
outer loop
vertex -4.6 0.0 7.7
vertex -3.4 -15.0 18.8
vertex -3.4 -5.0 18.8
endloop
endfacet
facet normal -0.994207047565849 -1.46019793488689e-17 0.107481842980092
outer loop
vertex -4.6 0.0 7.7
vertex -3.4 -5.0 18.8
vertex -3.4 0.0 18.8
endloop
endfacet
facet normal -1.0 0.0 0.0
outer loop
vertex 17.4 -5.0 17.4
vertex 17.4 -20.0 1.50354382220497e-15
vertex 17.4 -20.0 17.4
endloop
endfacet
facet normal -1.0 0.0 0.0
outer loop
vertex 17.4 -20.0 1.50354382220497e-15
vertex 17.4 -5.0 17.4
vertex 17.4 0.0 1.50354382220497e-15
endloop
endfacet
facet normal -1.0 0.0 0.0
outer loop
vertex 17.4 0.0 1.50354382220497e-15
vertex 17.4 -5.0 17.4
vertex 17.4 0.0 17.4
endloop
endfacet
facet normal -6.51204532718651e-16 -0.0 -1.0
outer loop
vertex 19.1675675675676 0.0 3.52495810318487e-16
vertex 17.4 -20.0 1.50354382220497e-15
vertex 17.4 0.0 1.50354382220497e-15
endloop
endfacet
facet normal -6.51204532718651e-16 -0.0 -1.0
outer loop
vertex 17.4 -20.0 1.50354382220497e-15
vertex 19.1675675675676 0.0 3.52495810318487e-16
vertex 19.1675675675676 -20.0 3.52495810318487e-16
endloop
endfacet
facet normal 0.994207047565849 0.0 -0.107481842980092
outer loop
vertex 19.1675675675676 0.0 3.52495810318487e-16
vertex 20.0 -20.0 7.7
vertex 19.1675675675676 -20.0 3.52495810318487e-16
endloop
endfacet
facet normal 0.994207047565849 0.0 -0.107481842980092
outer loop
vertex 20.0 -20.0 7.7
vertex 19.1675675675676 0.0 3.52495810318487e-16
vertex 20.0 0.0 7.7
endloop
endfacet
facet normal 0.994207047565849 -2.80678779245991e-18 0.107481842980092
outer loop
vertex 20.0 0.0 7.7
vertex 18.8 -20.0 18.8
vertex 20.0 -20.0 7.7
endloop
endfacet
facet normal 0.994207047565849 -2.80678779245991e-18 0.107481842980092
outer loop
vertex 18.8 -20.0 18.8
vertex 20.0 0.0 7.7
vertex 18.8 -15.0 18.8
endloop
endfacet
facet normal 0.994207047565849 -2.80678779245991e-18 0.107481842980092
outer loop
vertex 18.8 -15.0 18.8
vertex 20.0 0.0 7.7
vertex 18.8 -5.0 18.8
endloop
endfacet
facet normal 0.994207047565849 -2.80678779245991e-18 0.107481842980092
outer loop
vertex 18.8 -5.0 18.8
vertex 20.0 0.0 7.7
vertex 18.8 0.0 18.8
endloop
endfacet
facet normal 0.107481842980092 0.0 0.994207047565849
outer loop
vertex 18.8 -5.0 18.8
vertex 7.7 0.0 20.0
vertex 7.7 -5.0 20.0
endloop
endfacet
facet normal 0.107481842980092 0.0 0.994207047565849
outer loop
vertex 7.7 0.0 20.0
vertex 18.8 -5.0 18.8
vertex 18.8 0.0 18.8
endloop
endfacet
facet normal -0.107481842980092 0.0 0.994207047565849
outer loop
vertex 7.7 -5.0 20.0
vertex -3.4 0.0 18.8
vertex -3.4 -5.0 18.8
endloop
endfacet
facet normal -0.107481842980092 0.0 0.994207047565849
outer loop
vertex -3.4 0.0 18.8
vertex 7.7 -5.0 20.0
vertex 7.7 0.0 20.0
endloop
endfacet
facet normal -0.107481842980092 -8.42036337737968e-18 0.994207047565849
outer loop
vertex -3.4 -20.0 18.8
vertex 7.7 -15.0 20.0
vertex -3.4 -15.0 18.8
endloop
endfacet
facet normal -0.107481842980092 -8.42036337737968e-18 0.994207047565849
outer loop
vertex 7.7 -15.0 20.0
vertex -3.4 -20.0 18.8
vertex 7.7 -20.0 20.0
endloop
endfacet
facet normal 3.41951757087607e-16 -1.0 -1.07028430855778e-15
outer loop
vertex 18.8 -20.0 18.8
vertex -2.0 -20.0 17.4
vertex 17.4 -20.0 17.4
endloop
endfacet
facet normal 3.41951757087607e-16 -1.0 -1.07028430855778e-15
outer loop
vertex -2.0 -20.0 17.4
vertex 18.8 -20.0 18.8
vertex -3.4 -20.0 18.8
endloop
endfacet
facet normal 3.41951757087607e-16 -1.0 -1.07028430855778e-15
outer loop
vertex -3.4 -20.0 18.8
vertex 18.8 -20.0 18.8
vertex 7.7 -20.0 20.0
endloop
endfacet
facet normal 0.107481842980092 -1.20290905391151e-18 0.994207047565849
outer loop
vertex 18.8 -20.0 18.8
vertex 7.7 -15.0 20.0
vertex 7.7 -20.0 20.0
endloop
endfacet
facet normal 0.107481842980092 -1.20290905391151e-18 0.994207047565849
outer loop
vertex 7.7 -15.0 20.0
vertex 18.8 -20.0 18.8
vertex 18.8 -15.0 18.8
endloop
endfacet
facet normal 1.93272698528756e-16 0.0 -1.0
outer loop
vertex -2.0 0.0 -3.63369067021281e-16
vertex -3.76756756756757 -20.0 -7.04991620636974e-16
vertex -3.76756756756757 0.0 -7.04991620636974e-16
endloop
endfacet
facet normal 1.93272698528756e-16 0.0 -1.0
outer loop
vertex -3.76756756756757 -20.0 -7.04991620636974e-16
vertex -2.0 0.0 -3.63369067021281e-16
vertex -2.0 -20.0 -3.63369067021281e-16
endloop
endfacet
facet normal 0.0 0.0 -1.0
outer loop
vertex 17.4 0.0 17.4
vertex -2.0 -5.0 17.4
vertex -2.0 0.0 17.4
endloop
endfacet
facet normal 0.0 0.0 -1.0
outer loop
vertex -2.0 -5.0 17.4
vertex 17.4 0.0 17.4
vertex 17.4 -5.0 17.4
endloop
endfacet
facet normal -0.994207047565849 -0.0 -0.107481842980092
outer loop
vertex -4.6 0.0 7.7
vertex -3.76756756756757 -20.0 -7.04991620636974e-16
vertex -4.6 -20.0 7.7
endloop
endfacet
facet normal -0.994207047565849 -0.0 -0.107481842980092
outer loop
vertex -3.76756756756757 -20.0 -7.04991620636974e-16
vertex -4.6 0.0 7.7
vertex -3.76756756756757 0.0 -7.04991620636974e-16
endloop
endfacet
facet normal -1.0 -0.0 -0.0
outer loop
vertex 0.0 0.0 15.4
vertex 0.0 -5.0 0.0
vertex 0.0 -5.0 15.4
endloop
endfacet
facet normal -1.0 -0.0 -0.0
outer loop
vertex 0.0 -5.0 0.0
vertex 0.0 0.0 15.4
vertex 0.0 0.0 0.0
endloop
endfacet
facet normal 0.0 0.0 -1.0
outer loop
vertex 15.4 0.0 0.0
vertex 0.0 -5.0 0.0
vertex 0.0 0.0 0.0
endloop
endfacet
facet normal 0.0 0.0 -1.0
outer loop
vertex 0.0 -5.0 0.0
vertex 15.4 0.0 0.0
vertex 15.4 -5.0 0.0
endloop
endfacet
facet normal 1.0 0.0 -0.0
outer loop
vertex 15.4 0.0 0.0
vertex 15.4 -5.0 15.4
vertex 15.4 -5.0 0.0
endloop
endfacet
facet normal 1.0 0.0 -0.0
outer loop
vertex 15.4 -5.0 15.4
vertex 15.4 0.0 0.0
vertex 15.4 0.0 15.4
endloop
endfacet
facet normal 0.0 0.0 1.0
outer loop
vertex 15.4 -5.0 15.4
vertex 7.7 0.0 15.4
vertex 7.7 -5.0 15.4
endloop
endfacet
facet normal 0.0 0.0 1.0
outer loop
vertex 7.7 0.0 15.4
vertex 15.4 -5.0 15.4
vertex 15.4 0.0 15.4
endloop
endfacet
facet normal 0.0 0.0 1.0
outer loop
vertex 7.7 -5.0 15.4
vertex 0.0 0.0 15.4
vertex 0.0 -5.0 15.4
endloop
endfacet
facet normal 0.0 0.0 1.0
outer loop
vertex 0.0 0.0 15.4
vertex 7.7 -5.0 15.4
vertex 7.7 0.0 15.4
endloop
endfacet
facet normal 0.0 -1.0 0.0
outer loop
vertex 15.4 -5.0 15.4
vertex 0.0 -5.0 0.0
vertex 15.4 -5.0 0.0
endloop
endfacet
facet normal 0.0 -1.0 0.0
outer loop
vertex 0.0 -5.0 0.0
vertex 15.4 -5.0 15.4
vertex 0.0 -5.0 15.4
endloop
endfacet
facet normal 0.0 -1.0 0.0
outer loop
vertex 0.0 -5.0 15.4
vertex 15.4 -5.0 15.4
vertex 7.7 -5.0 15.4
endloop
endfacet
facet normal 0.0 -1.0 0.0
outer loop
vertex 18.8 -5.0 18.8
vertex -2.0 -5.0 17.4
vertex 17.4 -5.0 17.4
endloop
endfacet
facet normal 0.0 -1.0 0.0
outer loop
vertex -2.0 -5.0 17.4
vertex 18.8 -5.0 18.8
vertex -3.4 -5.0 18.8
endloop
endfacet
facet normal 0.0 -1.0 0.0
outer loop
vertex -3.4 -5.0 18.8
vertex 18.8 -5.0 18.8
vertex 7.7 -5.0 20.0
endloop
endfacet
facet normal 0.0 -1.0 0.0
outer loop
vertex 20.0 -20.0 7.7
vertex 17.4 -20.0 1.50354382220497e-15
vertex 19.1675675675676 -20.0 3.52495810318487e-16
endloop
endfacet
facet normal 0.0 -1.0 0.0
outer loop
vertex 17.4 -20.0 1.50354382220497e-15
vertex 20.0 -20.0 7.7
vertex 17.4 -20.0 17.4
endloop
endfacet
facet normal 0.0 -1.0 0.0
outer loop
vertex 17.4 -20.0 17.4
vertex 20.0 -20.0 7.7
vertex 18.8 -20.0 18.8
endloop
endfacet
facet normal 2.07026870391874e-16 -1.0 -8.8308740028214e-17
outer loop
vertex -2.0 -20.0 -3.63369067021281e-16
vertex -4.6 -20.0 7.7
vertex -3.76756756756757 -20.0 -7.04991620636974e-16
endloop
endfacet
facet normal 2.07026870391874e-16 -1.0 -8.8308740028214e-17
outer loop
vertex -4.6 -20.0 7.7
vertex -2.0 -20.0 -3.63369067021281e-16
vertex -2.0 -20.0 17.4
endloop
endfacet
facet normal 2.07026870391874e-16 -1.0 -8.8308740028214e-17
outer loop
vertex -4.6 -20.0 7.7
vertex -2.0 -20.0 17.4
vertex -3.4 -20.0 18.8
endloop
endfacet
facet normal -0.707106781186547 -0.0 0.707106781186547
outer loop
vertex 18.8 -15.0 18.8
vertex 17.4 -20.0 17.4
vertex 18.8 -20.0 18.8
endloop
endfacet
facet normal -0.707106781186547 -0.0 0.707106781186547
outer loop
vertex 17.4 -20.0 17.4
vertex 18.8 -15.0 18.8
vertex 17.4 -5.0 17.4
endloop
endfacet
facet normal -0.707106781186547 -0.0 0.707106781186547
outer loop
vertex 17.4 -5.0 17.4
vertex 18.8 -15.0 18.8
vertex 18.8 -5.0 18.8
endloop
endfacet
facet normal 0.0 -1.0 0.0
outer loop
vertex 17.4 0.0 1.50354382220497e-15
vertex 15.4 0.0 15.4
vertex 15.4 0.0 0.0
endloop
endfacet
facet normal 0.0 -1.0 0.0
outer loop
vertex 15.4 0.0 15.4
vertex 17.4 0.0 1.50354382220497e-15
vertex 17.4 0.0 17.4
endloop
endfacet
facet normal 0.0 -1.0 0.0
outer loop
vertex 15.4 0.0 15.4
vertex 17.4 0.0 17.4
vertex 7.7 0.0 15.4
endloop
endfacet
facet normal 0.0 -1.0 0.0
outer loop
vertex 7.7 0.0 15.4
vertex 17.4 0.0 17.4
vertex 0.0 0.0 15.4
endloop
endfacet
facet normal 0.0 -1.0 0.0
outer loop
vertex 0.0 0.0 0.0
vertex -2.0 0.0 17.4
vertex -2.0 0.0 -3.63369067021281e-16
endloop
endfacet
facet normal 0.0 -1.0 0.0
outer loop
vertex -2.0 0.0 17.4
vertex 0.0 0.0 0.0
vertex 0.0 0.0 15.4
endloop
endfacet
facet normal 0.0 -1.0 0.0
outer loop
vertex -2.0 0.0 17.4
vertex 0.0 0.0 15.4
vertex 17.4 0.0 17.4
endloop
endfacet
facet normal -0.0 1.0 -0.0
outer loop
vertex -4.6 0.0 7.7
vertex -2.0 0.0 -3.63369067021281e-16
vertex -3.76756756756757 0.0 -7.04991620636974e-16
endloop
endfacet
facet normal -0.0 1.0 -0.0
outer loop
vertex -2.0 0.0 -3.63369067021281e-16
vertex -4.6 0.0 7.7
vertex -2.0 0.0 17.4
endloop
endfacet
facet normal -0.0 1.0 -0.0
outer loop
vertex -2.0 0.0 17.4
vertex -4.6 0.0 7.7
vertex -3.4 0.0 18.8
endloop
endfacet
facet normal -0.0 1.0 -0.0
outer loop
vertex -2.0 0.0 17.4
vertex -3.4 0.0 18.8
vertex 17.4 0.0 17.4
endloop
endfacet
facet normal -0.0 1.0 -0.0
outer loop
vertex 17.4 0.0 1.50354382220497e-15
vertex 20.0 0.0 7.7
vertex 19.1675675675676 0.0 3.52495810318487e-16
endloop
endfacet
facet normal -0.0 1.0 -0.0
outer loop
vertex 20.0 0.0 7.7
vertex 17.4 0.0 1.50354382220497e-15
vertex 17.4 0.0 17.4
endloop
endfacet
facet normal -0.0 1.0 -0.0
outer loop
vertex 20.0 0.0 7.7
vertex 17.4 0.0 17.4
vertex 18.8 0.0 18.8
endloop
endfacet
facet normal -0.0 1.0 -0.0
outer loop
vertex 18.8 0.0 18.8
vertex 17.4 0.0 17.4
vertex -3.4 0.0 18.8
endloop
endfacet
facet normal -0.0 1.0 -0.0
outer loop
vertex 18.8 0.0 18.8
vertex -3.4 0.0 18.8
vertex 7.7 0.0 20.0
endloop
endfacet
facet normal 0.707106781186548 1.38756284356712e-17 0.707106781186547
outer loop
vertex -2.0 -20.0 17.4
vertex -3.4 -15.0 18.8
vertex -3.4 -20.0 18.8
endloop
endfacet
facet normal 0.707106781186548 1.38756284356712e-17 0.707106781186547
outer loop
vertex -3.4 -15.0 18.8
vertex -2.0 -20.0 17.4
vertex -2.0 -5.0 17.4
endloop
endfacet
facet normal 0.707106781186548 1.38756284356712e-17 0.707106781186547
outer loop
vertex -3.4 -15.0 18.8
vertex -2.0 -5.0 17.4
vertex -3.4 -5.0 18.8
endloop
endfacet
endsolid Dev Build
