solid Dev Build
facet normal 0.107481842980092 -9.39471971104797e-17 0.994207047565849
outer loop
vertex 12.0301270189222 -22.5 19.5318781601165
vertex 18.8 -15.0 18.8
vertex 12.0301270189222 -17.5 19.5318781601165
endloop
endfacet
facet normal 0.107481842980092 -9.39471971104797e-17 0.994207047565849
outer loop
vertex 18.8 -15.0 18.8
vertex 12.0301270189222 -22.5 19.5318781601165
vertex 18.8 -25.0 18.8
endloop
endfacet
facet normal 1.0 -0.0 -0.0
outer loop
vertex 18.8 -12.5 7.7
vertex 18.8 -12.5 12.0301270189222
vertex 18.8 -15.0 7.7
endloop
endfacet
facet normal 1.0 -0.0 -0.0
outer loop
vertex 18.8 -12.5 12.0301270189222
vertex 18.8 -12.5 7.7
vertex 18.8 -11.25 9.8650635094611
endloop
endfacet
facet normal 1.0 -0.0 -0.0
outer loop
vertex 18.8 -12.5 12.0301270189222
vertex 18.8 -11.25 9.8650635094611
vertex 18.8 -7.49999999999999 12.0301270189222
endloop
endfacet
facet normal 1.0 -0.0 -0.0
outer loop
vertex 18.8 -7.49999999999999 12.0301270189222
vertex 18.8 -11.25 9.8650635094611
vertex 18.8 -8.74999999999999 9.8650635094611
endloop
endfacet
facet normal 1.0 -0.0 -0.0
outer loop
vertex 18.8 -7.49999999999999 12.0301270189222
vertex 18.8 -8.74999999999999 9.8650635094611
vertex 18.8 -7.49999999999999 7.7
endloop
endfacet
facet normal 1.0 -0.0 -0.0
outer loop
vertex 18.8 -7.49999999999999 12.0301270189222
vertex 18.8 -7.49999999999999 7.7
vertex 18.8 -4.99999999999999 7.7
endloop
endfacet
facet normal -0.0 1.0 -0.0
outer loop
vertex -4.6 0.5 7.7
vertex -2.0 0.5 -3.63369067021281e-16
vertex -3.76756756756757 0.5 -7.04991620636974e-16
endloop
endfacet
facet normal -0.0 1.0 -0.0
outer loop
vertex -2.0 0.5 -3.63369067021281e-16
vertex -4.6 0.5 7.7
vertex 17.4 0.5 1.50354382220497e-15
endloop
endfacet
facet normal -0.0 1.0 -0.0
outer loop
vertex 17.4 0.5 1.50354382220497e-15
vertex 20.0 0.5 7.7
vertex 19.1675675675676 0.5 3.52495810318487e-16
endloop
endfacet
facet normal -0.0 1.0 -0.0
outer loop
vertex 20.0 0.5 7.7
vertex 17.4 0.5 1.50354382220497e-15
vertex -4.6 0.5 7.7
endloop
endfacet
facet normal -0.0 1.0 -0.0
outer loop
vertex 20.0 0.5 7.7
vertex -4.6 0.5 7.7
vertex -3.4 0.5 18.8
endloop
endfacet
facet normal -0.0 1.0 -0.0
outer loop
vertex 20.0 0.5 7.7
vertex -3.4 0.5 18.8
vertex 18.8 0.5 18.8
endloop
endfacet
facet normal -0.0 1.0 -0.0
outer loop
vertex 18.8 0.5 18.8
vertex -3.4 0.5 18.8
vertex 7.7 0.5 20.0
endloop
endfacet
facet normal -1.0 -8.45989944764369e-16 -3.40124854299638e-30
outer loop
vertex 12.0301270189222 -17.5 19.5318781601165
vertex 12.0301270189222 -22.5 18.8
vertex 12.0301270189222 -22.5 19.5318781601165
endloop
endfacet
facet normal -1.0 -8.45989944764369e-16 -3.40124854299638e-30
outer loop
vertex 12.0301270189222 -22.5 18.8
vertex 12.0301270189222 -17.5 19.5318781601165
vertex 12.0301270189222 -17.5 18.8
endloop
endfacet
facet normal 1.0 4.05354543187897e-17 1.1699349210384e-17
outer loop
vertex -2.0 -25.5 -8.04912767162352e-16
vertex -2.0 -11.25 5.5349364905389
vertex -2.0 -25.5 17.4
endloop
endfacet
facet normal 1.0 4.05354543187897e-17 1.1699349210384e-17
outer loop
vertex -2.0 -11.25 5.5349364905389
vertex -2.0 -25.5 -8.04912767162352e-16
vertex -2.0 0.0 -3.63369067021281e-16
endloop
endfacet
facet normal 1.0 4.05354543187897e-17 1.1699349210384e-17
outer loop
vertex -2.0 -25.5 17.4
vertex -2.0 -11.25 5.5349364905389
vertex -2.0 -12.5 7.7
endloop
endfacet
facet normal 1.0 4.05354543187897e-17 1.1699349210384e-17
outer loop
vertex -2.0 -25.5 17.4
vertex -2.0 -12.5 7.7
vertex -2.0 -14.5 17.4
endloop
endfacet
facet normal 1.0 4.05354543187897e-17 1.1699349210384e-17
outer loop
vertex -2.0 -11.25 5.5349364905389
vertex -2.0 0.0 -3.63369067021281e-16
vertex -2.0 -8.74999999999999 5.5349364905389
endloop
endfacet
facet normal 1.0 4.05354543187897e-17 1.1699349210384e-17
outer loop
vertex -2.0 -8.74999999999999 5.5349364905389
vertex -2.0 0.0 -3.63369067021281e-16
vertex -2.0 -7.49999999999999 7.7
endloop
endfacet
facet normal 1.0 4.05354543187897e-17 1.1699349210384e-17
outer loop
vertex -2.0 -7.49999999999999 7.7
vertex -2.0 0.0 -3.63369067021281e-16
vertex -2.0 -5.0 17.4
endloop
endfacet
facet normal 1.0 4.05354543187897e-17 1.1699349210384e-17
outer loop
vertex -2.0 -5.0 17.4
vertex -2.0 0.0 -3.63369067021281e-16
vertex -2.0 0.0 17.4
endloop
endfacet
facet normal 1.0 4.05354543187897e-17 1.1699349210384e-17
outer loop
vertex -2.0 -14.5 17.4
vertex -2.0 -11.25 9.8650635094611
vertex -2.0 -5.0 17.4
endloop
endfacet
facet normal 1.0 4.05354543187897e-17 1.1699349210384e-17
outer loop
vertex -2.0 -11.25 9.8650635094611
vertex -2.0 -14.5 17.4
vertex -2.0 -12.5 7.7
endloop
endfacet
facet normal 1.0 4.05354543187897e-17 1.1699349210384e-17
outer loop
vertex -2.0 -5.0 17.4
vertex -2.0 -11.25 9.8650635094611
vertex -2.0 -8.74999999999999 9.8650635094611
endloop
endfacet
facet normal 1.0 4.05354543187897e-17 1.1699349210384e-17
outer loop
vertex -2.0 -5.0 17.4
vertex -2.0 -8.74999999999999 9.8650635094611
vertex -2.0 -7.49999999999999 7.7
endloop
endfacet
facet normal 1.0 -0.0 -0.0
outer loop
vertex 18.8 -12.5 3.36987298107781
vertex 18.8 -12.5 7.7
vertex 18.8 -15.0 7.7
endloop
endfacet
facet normal 1.0 -0.0 -0.0
outer loop
vertex 18.8 -12.5 7.7
vertex 18.8 -12.5 3.36987298107781
vertex 18.8 -11.25 5.5349364905389
endloop
endfacet
facet normal 1.0 -0.0 -0.0
outer loop
vertex 18.8 -11.25 5.5349364905389
vertex 18.8 -12.5 3.36987298107781
vertex 18.8 -7.49999999999999 3.36987298107781
endloop
endfacet
facet normal 1.0 -0.0 -0.0
outer loop
vertex 18.8 -11.25 5.5349364905389
vertex 18.8 -7.49999999999999 3.36987298107781
vertex 18.8 -8.74999999999999 5.5349364905389
endloop
endfacet
facet normal 1.0 -0.0 -0.0
outer loop
vertex 18.8 -8.74999999999999 5.5349364905389
vertex 18.8 -7.49999999999999 3.36987298107781
vertex 18.8 -7.49999999999999 7.7
endloop
endfacet
facet normal 1.0 -0.0 -0.0
outer loop
vertex 18.8 -7.49999999999999 7.7
vertex 18.8 -7.49999999999999 3.36987298107781
vertex 18.8 -4.99999999999999 7.7
endloop
endfacet
facet normal 0.0 0.0 -1.0
outer loop
vertex 17.4 -14.5 17.4
vertex -2.0 -25.5 17.4
vertex -2.0 -14.5 17.4
endloop
endfacet
facet normal 0.0 0.0 -1.0
outer loop
vertex -2.0 -25.5 17.4
vertex 17.4 -14.5 17.4
vertex 17.4 -25.5 17.4
endloop
endfacet
facet normal 0.5 0.866025403784439 1.58254733053921e-15
outer loop
vertex 3.3698729810778 -22.5 18.8
vertex 7.7 -25.0 20.0
vertex 7.7 -25.0 18.8
endloop
endfacet
facet normal 0.5 0.866025403784439 1.58254733053921e-15
outer loop
vertex 7.7 -25.0 20.0
vertex 3.3698729810778 -22.5 18.8
vertex 3.3698729810778 -22.5 19.5318781601165
endloop
endfacet
facet normal -2.65082739634111e-16 0.866025403784438 -0.5
outer loop
vertex 18.8 -12.5 12.0301270189222
vertex 20.0 -15.0 7.7
vertex 18.8 -15.0 7.7
endloop
endfacet
facet normal -2.65082739634111e-16 0.866025403784438 -0.5
outer loop
vertex 20.0 -15.0 7.7
vertex 18.8 -12.5 12.0301270189222
vertex 19.5318781601165 -12.5 12.0301270189222
endloop
endfacet
facet normal -0.994207047565849 -4.22008154998646e-17 0.107481842980092
outer loop
vertex -3.4 -25.0 18.8
vertex -4.6 -25.5 7.7
vertex -3.4 -25.5 18.8
endloop
endfacet
facet normal -0.994207047565849 -4.22008154998646e-17 0.107481842980092
outer loop
vertex -4.6 -25.5 7.7
vertex -3.4 -25.0 18.8
vertex -4.59999999999999 -16.0 7.7
endloop
endfacet
facet normal -0.994207047565849 -4.22008154998646e-17 0.107481842980092
outer loop
vertex -4.59999999999999 -16.0 7.7
vertex -3.4 -25.0 18.8
vertex -3.4 -15.0 18.8
endloop
endfacet
facet normal -0.994207047565849 -4.22008154998646e-17 0.107481842980092
outer loop
vertex -4.59999999999999 -16.0 7.7
vertex -3.4 -15.0 18.8
vertex -4.43211737614971 -15.7955549577344 9.25291427061513
endloop
endfacet
facet normal -0.994207047565849 -4.22008154998646e-17 0.107481842980092
outer loop
vertex -4.43211737614971 -15.7955549577344 9.25291427061513
vertex -3.4 -15.0 18.8
vertex -4.27567567567567 -15.1961524227066 10.7
endloop
endfacet
facet normal -0.994207047565849 -4.22008154998646e-17 0.107481842980092
outer loop
vertex -4.27567567567567 -15.1961524227066 10.7
vertex -3.4 -15.0 18.8
vertex -4.14133614193305 -14.2426406871193 11.9426406871193
endloop
endfacet
facet normal -0.994207047565849 -4.22008154998646e-17 0.107481842980092
outer loop
vertex -4.14133614193305 -14.2426406871193 11.9426406871193
vertex -3.4 -15.0 18.8
vertex -3.4 -14.5 18.8
endloop
endfacet
facet normal -0.994207047565849 -4.22008154998646e-17 0.107481842980092
outer loop
vertex -4.14133614193305 -14.2426406871193 11.9426406871193
vertex -3.4 -14.5 18.8
vertex -4.03825379213982 -13.0 12.8961524227066
endloop
endfacet
facet normal -0.994207047565849 -4.22008154998646e-17 0.107481842980092
outer loop
vertex -4.03825379213982 -13.0 12.8961524227066
vertex -3.4 -14.5 18.8
vertex -3.4 -5.0 18.8
endloop
endfacet
facet normal -0.994207047565849 -4.22008154998646e-17 0.107481842980092
outer loop
vertex -4.03825379213982 -13.0 12.8961524227066
vertex -3.4 -5.0 18.8
vertex -3.97345351808276 -11.5529142706151 13.4955549577344
endloop
endfacet
facet normal -0.994207047565849 -4.22008154998646e-17 0.107481842980092
outer loop
vertex -3.97345351808276 -11.5529142706151 13.4955549577344
vertex -3.4 -5.0 18.8
vertex -3.95135135135135 -9.99999999999999 13.7
endloop
endfacet
facet normal -0.994207047565849 -4.22008154998646e-17 0.107481842980092
outer loop
vertex -3.95135135135135 -9.99999999999999 13.7
vertex -3.4 -5.0 18.8
vertex -3.97345351808276 -8.44708572938486 13.4955549577344
endloop
endfacet
facet normal -0.994207047565849 -4.22008154998646e-17 0.107481842980092
outer loop
vertex -3.97345351808276 -8.44708572938486 13.4955549577344
vertex -3.4 -5.0 18.8
vertex -4.03825379213982 -6.99999999999999 12.8961524227066
endloop
endfacet
facet normal -0.994207047565849 -4.22008154998646e-17 0.107481842980092
outer loop
vertex -4.03825379213982 -6.99999999999999 12.8961524227066
vertex -3.4 -5.0 18.8
vertex -4.14133614193305 -5.75735931288071 11.9426406871193
endloop
endfacet
facet normal -0.994207047565849 -4.22008154998646e-17 0.107481842980092
outer loop
vertex -4.14133614193305 -5.75735931288071 11.9426406871193
vertex -3.4 -5.0 18.8
vertex -4.27567567567567 -4.80384757729336 10.7
endloop
endfacet
facet normal -0.994207047565849 -4.22008154998646e-17 0.107481842980092
outer loop
vertex -4.27567567567567 -4.80384757729336 10.7
vertex -3.4 -5.0 18.8
vertex -3.4 0.5 18.8
endloop
endfacet
facet normal -0.994207047565849 -4.22008154998646e-17 0.107481842980092
outer loop
vertex -4.27567567567567 -4.80384757729336 10.7
vertex -3.4 0.5 18.8
vertex -4.43211737614971 -4.20444504226558 9.25291427061512
endloop
endfacet
facet normal -0.994207047565849 -4.22008154998646e-17 0.107481842980092
outer loop
vertex -4.43211737614971 -4.20444504226558 9.25291427061512
vertex -3.4 0.5 18.8
vertex -4.59999999999999 -3.99999999999999 7.7
endloop
endfacet
facet normal -0.994207047565849 -4.22008154998646e-17 0.107481842980092
outer loop
vertex -4.59999999999999 -3.99999999999999 7.7
vertex -3.4 0.5 18.8
vertex -4.6 0.5 7.7
endloop
endfacet
facet normal -1.0 0.0 0.0
outer loop
vertex 17.4 -14.5 17.4
vertex 17.4 -11.25 9.8650635094611
vertex 17.4 -12.5 7.7
endloop
endfacet
facet normal -1.0 0.0 0.0
outer loop
vertex 17.4 -11.25 9.8650635094611
vertex 17.4 -14.5 17.4
vertex 17.4 -5.0 17.4
endloop
endfacet
facet normal -1.0 0.0 0.0
outer loop
vertex 17.4 -11.25 9.8650635094611
vertex 17.4 -5.0 17.4
vertex 17.4 -8.74999999999999 9.8650635094611
endloop
endfacet
facet normal -1.0 0.0 0.0
outer loop
vertex 17.4 -8.74999999999999 9.8650635094611
vertex 17.4 -5.0 17.4
vertex 17.4 -7.49999999999999 7.7
endloop
endfacet
facet normal -1.0 0.0 0.0
outer loop
vertex 17.4 -14.5 17.4
vertex 17.4 -25.5 1.50354382220497e-15
vertex 17.4 -25.5 17.4
endloop
endfacet
facet normal -1.0 0.0 0.0
outer loop
vertex 17.4 -25.5 1.50354382220497e-15
vertex 17.4 -14.5 17.4
vertex 17.4 -12.5 7.7
endloop
endfacet
facet normal -1.0 0.0 0.0
outer loop
vertex 17.4 -25.5 1.50354382220497e-15
vertex 17.4 -12.5 7.7
vertex 17.4 -11.25 5.5349364905389
endloop
endfacet
facet normal -1.0 0.0 0.0
outer loop
vertex 17.4 -25.5 1.50354382220497e-15
vertex 17.4 -11.25 5.5349364905389
vertex 17.4 0.0 1.50354382220497e-15
endloop
endfacet
facet normal -1.0 0.0 0.0
outer loop
vertex 17.4 0.0 1.50354382220497e-15
vertex 17.4 -11.25 5.5349364905389
vertex 17.4 -8.74999999999999 5.5349364905389
endloop
endfacet
facet normal -1.0 0.0 0.0
outer loop
vertex 17.4 0.0 1.50354382220497e-15
vertex 17.4 -8.74999999999999 5.5349364905389
vertex 17.4 -7.49999999999999 7.7
endloop
endfacet
facet normal -1.0 0.0 0.0
outer loop
vertex 17.4 0.0 1.50354382220497e-15
vertex 17.4 -7.49999999999999 7.7
vertex 17.4 -5.0 17.4
endloop
endfacet
facet normal -1.0 0.0 0.0
outer loop
vertex 17.4 0.0 1.50354382220497e-15
vertex 17.4 -5.0 17.4
vertex 17.4 0.0 17.4
endloop
endfacet
facet normal -6.51204532718651e-16 -0.0 -1.0
outer loop
vertex 19.1675675675676 0.5 3.52495810318487e-16
vertex 17.4 0.0 1.50354382220497e-15
vertex 17.4 0.5 1.50354382220497e-15
endloop
endfacet
facet normal -6.51204532718651e-16 -0.0 -1.0
outer loop
vertex 17.4 0.0 1.50354382220497e-15
vertex 19.1675675675676 0.5 3.52495810318487e-16
vertex 17.4 -25.5 1.50354382220497e-15
endloop
endfacet
facet normal -6.51204532718651e-16 -0.0 -1.0
outer loop
vertex 17.4 -25.5 1.50354382220497e-15
vertex 19.1675675675676 0.5 3.52495810318487e-16
vertex 19.1675675675676 -25.5 3.52495810318487e-16
endloop
endfacet
facet normal 0.994207047565849 -2.31004943253188e-34 -0.107481842980092
outer loop
vertex 19.1675675675676 -25.5 3.52495810318487e-16
vertex 19.5318781601165 -12.5 3.36987298107781
vertex 20.0 -25.5 7.7
endloop
endfacet
facet normal 0.994207047565849 -2.31004943253188e-34 -0.107481842980092
outer loop
vertex 19.5318781601165 -12.5 3.36987298107781
vertex 19.1675675675676 -25.5 3.52495810318487e-16
vertex 19.1675675675676 0.5 3.52495810318487e-16
endloop
endfacet
facet normal 0.994207047565849 -2.31004943253188e-34 -0.107481842980092
outer loop
vertex 20.0 -25.5 7.7
vertex 19.5318781601165 -12.5 3.36987298107781
vertex 20.0 -15.0 7.7
endloop
endfacet
facet normal 0.994207047565849 -2.31004943253188e-34 -0.107481842980092
outer loop
vertex 19.5318781601165 -12.5 3.36987298107781
vertex 19.1675675675676 0.5 3.52495810318487e-16
vertex 19.5318781601165 -7.49999999999999 3.36987298107781
endloop
endfacet
facet normal 0.994207047565849 -2.31004943253188e-34 -0.107481842980092
outer loop
vertex 19.5318781601165 -7.49999999999999 3.36987298107781
vertex 19.1675675675676 0.5 3.52495810318487e-16
vertex 20.0 -4.99999999999999 7.7
endloop
endfacet
facet normal 0.994207047565849 -2.31004943253188e-34 -0.107481842980092
outer loop
vertex 20.0 -4.99999999999999 7.7
vertex 19.1675675675676 0.5 3.52495810318487e-16
vertex 20.0 0.5 7.7
endloop
endfacet
facet normal 0.994207047565849 -0.0 0.107481842980092
outer loop
vertex 20.0 -15.0 7.7
vertex 18.8 -25.5 18.8
vertex 20.0 -25.5 7.7
endloop
endfacet
facet normal 0.994207047565849 -0.0 0.107481842980092
outer loop
vertex 18.8 -25.5 18.8
vertex 20.0 -15.0 7.7
vertex 18.8 -25.0 18.8
endloop
endfacet
facet normal 0.994207047565849 -0.0 0.107481842980092
outer loop
vertex 18.8 -25.0 18.8
vertex 20.0 -15.0 7.7
vertex 18.8 -15.0 18.8
endloop
endfacet
facet normal 0.994207047565849 -0.0 0.107481842980092
outer loop
vertex 18.8 -15.0 18.8
vertex 20.0 -15.0 7.7
vertex 19.5318781601165 -12.5 12.0301270189222
endloop
endfacet
facet normal 0.994207047565849 -0.0 0.107481842980092
outer loop
vertex 18.8 -15.0 18.8
vertex 19.5318781601165 -12.5 12.0301270189222
vertex 18.8 -14.5 18.8
endloop
endfacet
facet normal 0.994207047565849 -0.0 0.107481842980092
outer loop
vertex 18.8 -14.5 18.8
vertex 19.5318781601165 -12.5 12.0301270189222
vertex 18.8 -5.0 18.8
endloop
endfacet
facet normal 0.994207047565849 -0.0 0.107481842980092
outer loop
vertex 18.8 -5.0 18.8
vertex 19.5318781601165 -12.5 12.0301270189222
vertex 19.5318781601165 -7.49999999999999 12.0301270189222
endloop
endfacet
facet normal 0.994207047565849 -0.0 0.107481842980092
outer loop
vertex 18.8 -5.0 18.8
vertex 19.5318781601165 -7.49999999999999 12.0301270189222
vertex 20.0 -4.99999999999999 7.7
endloop
endfacet
facet normal 0.994207047565849 -0.0 0.107481842980092
outer loop
vertex 18.8 -5.0 18.8
vertex 20.0 -4.99999999999999 7.7
vertex 18.8 0.5 18.8
endloop
endfacet
facet normal 0.994207047565849 -0.0 0.107481842980092
outer loop
vertex 18.8 0.5 18.8
vertex 20.0 -4.99999999999999 7.7
vertex 20.0 0.5 7.7
endloop
endfacet
facet normal 0.107481842980092 0.0 0.994207047565849
outer loop
vertex 18.8 -5.0 18.8
vertex 7.7 0.5 20.0
vertex 7.7 -5.0 20.0
endloop
endfacet
facet normal 0.107481842980092 0.0 0.994207047565849
outer loop
vertex 7.7 0.5 20.0
vertex 18.8 -5.0 18.8
vertex 18.8 0.5 18.8
endloop
endfacet
facet normal -0.107481842980092 0.0 0.994207047565849
outer loop
vertex 7.7 -5.0 20.0
vertex -3.4 0.5 18.8
vertex -3.4 -5.0 18.8
endloop
endfacet
facet normal -0.107481842980092 0.0 0.994207047565849
outer loop
vertex -3.4 0.5 18.8
vertex 7.7 -5.0 20.0
vertex 7.7 0.5 20.0
endloop
endfacet
facet normal -0.107481842980092 -7.94459355567772e-16 0.994207047565849
outer loop
vertex 7.7 -25.5 20.0
vertex -3.4 -25.0 18.8
vertex -3.4 -25.5 18.8
endloop
endfacet
facet normal -0.107481842980092 -7.94459355567772e-16 0.994207047565849
outer loop
vertex -3.4 -25.0 18.8
vertex 7.7 -25.5 20.0
vertex 3.3698729810778 -22.5 19.5318781601165
endloop
endfacet
facet normal -0.107481842980092 -7.94459355567772e-16 0.994207047565849
outer loop
vertex 3.3698729810778 -22.5 19.5318781601165
vertex 7.7 -25.5 20.0
vertex 7.7 -25.0 20.0
endloop
endfacet
facet normal 7.86118657192676e-16 0.608761429008721 0.793353340291235
outer loop
vertex -3.39999999999998 -14.2426406871193 3.45735931288072
vertex -4.03825379213982 -13.0 2.50384757729337
vertex -4.14133614193305 -14.2426406871193 3.45735931288072
endloop
endfacet
facet normal 7.86118657192676e-16 0.608761429008721 0.793353340291235
outer loop
vertex -4.03825379213982 -13.0 2.50384757729337
vertex -3.39999999999998 -14.2426406871193 3.45735931288072
vertex -3.39999999999998 -13.0 2.50384757729337
endloop
endfacet
facet normal -1.84385554466365e-17 0.866025403784438 0.5
outer loop
vertex 17.4 -12.5 7.7
vertex 18.8 -11.25 5.5349364905389
vertex 17.4 -11.25 5.5349364905389
endloop
endfacet
facet normal -1.84385554466365e-17 0.866025403784438 0.5
outer loop
vertex 18.8 -11.25 5.5349364905389
vertex 17.4 -12.5 7.7
vertex 18.8 -12.5 7.7
endloop
endfacet
facet normal -1.7200341115734e-17 -0.793353340291234 0.608761429008722
outer loop
vertex -3.39999999999998 -4.80384757729336 4.7
vertex -4.14133614193305 -5.75735931288071 3.45735931288071
vertex -3.39999999999998 -5.75735931288071 3.45735931288071
endloop
endfacet
facet normal -1.7200341115734e-17 -0.793353340291234 0.608761429008722
outer loop
vertex -4.14133614193305 -5.75735931288071 3.45735931288071
vertex -3.39999999999998 -4.80384757729336 4.7
vertex -4.27567567567567 -4.80384757729336 4.7
endloop
endfacet
facet normal 5.39855525421043e-16 -1.0 6.2313569984535e-32
outer loop
vertex 18.8 -25.5 18.8
vertex -2.0 -25.5 17.4
vertex 17.4 -25.5 17.4
endloop
endfacet
facet normal 5.39855525421043e-16 -1.0 6.2313569984535e-32
outer loop
vertex -2.0 -25.5 17.4
vertex 18.8 -25.5 18.8
vertex -3.4 -25.5 18.8
endloop
endfacet
facet normal 5.39855525421043e-16 -1.0 6.2313569984535e-32
outer loop
vertex -3.4 -25.5 18.8
vertex 18.8 -25.5 18.8
vertex 7.7 -25.5 20.0
endloop
endfacet
facet normal 1.93272698528756e-16 0.0 -1.0
outer loop
vertex -2.0 0.5 -3.63369067021281e-16
vertex -3.76756756756757 -25.5 -1.14653532077805e-15
vertex -3.76756756756757 0.5 -7.04991620636974e-16
endloop
endfacet
facet normal 1.93272698528756e-16 0.0 -1.0
outer loop
vertex -3.76756756756757 -25.5 -1.14653532077805e-15
vertex -2.0 0.5 -3.63369067021281e-16
vertex -2.0 0.0 -3.63369067021281e-16
endloop
endfacet
facet normal 1.93272698528756e-16 0.0 -1.0
outer loop
vertex -3.76756756756757 -25.5 -1.14653532077805e-15
vertex -2.0 0.0 -3.63369067021281e-16
vertex -2.0 -25.5 -8.04912767162352e-16
endloop
endfacet
facet normal -0.5 0.866025403784438 2.4397604679146e-15
outer loop
vertex 7.7 -25.0 20.0
vertex 12.0301270189222 -22.5 18.8
vertex 7.7 -25.0 18.8
endloop
endfacet
facet normal -0.5 0.866025403784438 2.4397604679146e-15
outer loop
vertex 12.0301270189222 -22.5 18.8
vertex 7.7 -25.0 20.0
vertex 12.0301270189222 -22.5 19.5318781601165
endloop
endfacet
facet normal -0.5 -0.866025403784439 -2.307881523703e-15
outer loop
vertex 12.0301270189222 -17.5 19.5318781601165
vertex 7.7 -15.0 18.8
vertex 12.0301270189222 -17.5 18.8
endloop
endfacet
facet normal -0.5 -0.866025403784439 -2.307881523703e-15
outer loop
vertex 7.7 -15.0 18.8
vertex 12.0301270189222 -17.5 19.5318781601165
vertex 7.7 -15.0 20.0
endloop
endfacet
facet normal -4.51131986929343e-16 -0.866025403784438 0.5
outer loop
vertex 18.8 -7.49999999999999 7.7
vertex 17.4 -8.74999999999999 5.5349364905389
vertex 18.8 -8.74999999999999 5.5349364905389
endloop
endfacet
facet normal -4.51131986929343e-16 -0.866025403784438 0.5
outer loop
vertex 17.4 -8.74999999999999 5.5349364905389
vertex 18.8 -7.49999999999999 7.7
vertex 17.4 -7.49999999999999 7.7
endloop
endfacet
facet normal 0.0 0.0 -1.0
outer loop
vertex 17.4 0.0 17.4
vertex -2.0 -5.0 17.4
vertex -2.0 0.0 17.4
endloop
endfacet
facet normal 0.0 0.0 -1.0
outer loop
vertex -2.0 -5.0 17.4
vertex 17.4 0.0 17.4
vertex 17.4 -5.0 17.4
endloop
endfacet
facet normal -0.994207047565849 -5.53485761002165e-18 -0.107481842980092
outer loop
vertex -4.59999999999999 -16.0 7.7
vertex -3.76756756756757 -25.5 -1.14653532077805e-15
vertex -4.6 -25.5 7.7
endloop
endfacet
facet normal -0.994207047565849 -5.53485761002165e-18 -0.107481842980092
outer loop
vertex -3.76756756756757 -25.5 -1.14653532077805e-15
vertex -4.59999999999999 -16.0 7.7
vertex -4.43211737614971 -15.7955549577344 6.14708572938488
endloop
endfacet
facet normal -0.994207047565849 -5.53485761002165e-18 -0.107481842980092
outer loop
vertex -3.76756756756757 -25.5 -1.14653532077805e-15
vertex -4.43211737614971 -15.7955549577344 6.14708572938488
vertex -4.27567567567567 -15.1961524227066 4.7
endloop
endfacet
facet normal -0.994207047565849 -5.53485761002165e-18 -0.107481842980092
outer loop
vertex -3.76756756756757 -25.5 -1.14653532077805e-15
vertex -4.27567567567567 -15.1961524227066 4.7
vertex -4.14133614193305 -14.2426406871193 3.45735931288072
endloop
endfacet
facet normal -0.994207047565849 -5.53485761002165e-18 -0.107481842980092
outer loop
vertex -3.76756756756757 -25.5 -1.14653532077805e-15
vertex -4.14133614193305 -14.2426406871193 3.45735931288072
vertex -4.03825379213982 -13.0 2.50384757729337
endloop
endfacet
facet normal -0.994207047565849 -5.53485761002165e-18 -0.107481842980092
outer loop
vertex -3.76756756756757 -25.5 -1.14653532077805e-15
vertex -4.03825379213982 -13.0 2.50384757729337
vertex -3.97345351808277 -11.5529142706151 1.90444504226559
endloop
endfacet
facet normal -0.994207047565849 -5.53485761002165e-18 -0.107481842980092
outer loop
vertex -3.76756756756757 -25.5 -1.14653532077805e-15
vertex -3.97345351808277 -11.5529142706151 1.90444504226559
vertex -3.76756756756757 0.5 -7.04991620636974e-16
endloop
endfacet
facet normal -0.994207047565849 -5.53485761002165e-18 -0.107481842980092
outer loop
vertex -3.76756756756757 0.5 -7.04991620636974e-16
vertex -3.97345351808277 -11.5529142706151 1.90444504226559
vertex -3.95135135135135 -9.99999999999999 1.7
endloop
endfacet
facet normal -0.994207047565849 -5.53485761002165e-18 -0.107481842980092
outer loop
vertex -3.76756756756757 0.5 -7.04991620636974e-16
vertex -3.95135135135135 -9.99999999999999 1.7
vertex -3.97345351808276 -8.44708572938487 1.90444504226559
endloop
endfacet
facet normal -0.994207047565849 -5.53485761002165e-18 -0.107481842980092
outer loop
vertex -3.76756756756757 0.5 -7.04991620636974e-16
vertex -3.97345351808276 -8.44708572938487 1.90444504226559
vertex -4.03825379213982 -7.0 2.50384757729337
endloop
endfacet
facet normal -0.994207047565849 -5.53485761002165e-18 -0.107481842980092
outer loop
vertex -3.76756756756757 0.5 -7.04991620636974e-16
vertex -4.03825379213982 -7.0 2.50384757729337
vertex -4.14133614193305 -5.75735931288071 3.45735931288071
endloop
endfacet
facet normal -0.994207047565849 -5.53485761002165e-18 -0.107481842980092
outer loop
vertex -3.76756756756757 0.5 -7.04991620636974e-16
vertex -4.14133614193305 -5.75735931288071 3.45735931288071
vertex -4.27567567567567 -4.80384757729336 4.7
endloop
endfacet
facet normal -0.994207047565849 -5.53485761002165e-18 -0.107481842980092
outer loop
vertex -3.76756756756757 0.5 -7.04991620636974e-16
vertex -4.27567567567567 -4.80384757729336 4.7
vertex -4.43211737614971 -4.20444504226558 6.14708572938487
endloop
endfacet
facet normal -0.994207047565849 -5.53485761002165e-18 -0.107481842980092
outer loop
vertex -3.76756756756757 0.5 -7.04991620636974e-16
vertex -4.43211737614971 -4.20444504226558 6.14708572938487
vertex -4.59999999999999 -3.99999999999999 7.7
endloop
endfacet
facet normal -0.994207047565849 -5.53485761002165e-18 -0.107481842980092
outer loop
vertex -3.76756756756757 0.5 -7.04991620636974e-16
vertex -4.59999999999999 -3.99999999999999 7.7
vertex -4.6 0.5 7.7
endloop
endfacet
facet normal 7.3176769004302e-17 5.70087377591843e-16 -1.0
outer loop
vertex 17.4 0.5 1.50354382220497e-15
vertex -2.0 0.0 -3.63369067021281e-16
vertex -2.0 0.5 -3.63369067021281e-16
endloop
endfacet
facet normal 7.3176769004302e-17 5.70087377591843e-16 -1.0
outer loop
vertex -2.0 0.0 -3.63369067021281e-16
vertex 17.4 0.5 1.50354382220497e-15
vertex 0.0 0.0 0.0
endloop
endfacet
facet normal 7.3176769004302e-17 5.70087377591843e-16 -1.0
outer loop
vertex 0.0 0.0 0.0
vertex 17.4 0.5 1.50354382220497e-15
vertex 15.4 0.0 0.0
endloop
endfacet
facet normal 7.3176769004302e-17 5.70087377591843e-16 -1.0
outer loop
vertex 15.4 0.0 0.0
vertex 17.4 0.5 1.50354382220497e-15
vertex 17.4 0.0 1.50354382220497e-15
endloop
endfacet
facet normal -1.0 -0.0 -0.0
outer loop
vertex 0.0 0.0 15.4
vertex 0.0 -5.0 0.0
vertex 0.0 -5.0 15.4
endloop
endfacet
facet normal -1.0 -0.0 -0.0
outer loop
vertex 0.0 -5.0 0.0
vertex 0.0 0.0 15.4
vertex 0.0 0.0 0.0
endloop
endfacet
facet normal 0.0 0.0 -1.0
outer loop
vertex 15.4 0.0 0.0
vertex 0.0 -5.0 0.0
vertex 0.0 0.0 0.0
endloop
endfacet
facet normal 0.0 0.0 -1.0
outer loop
vertex 0.0 -5.0 0.0
vertex 15.4 0.0 0.0
vertex 15.4 -5.0 0.0
endloop
endfacet
facet normal 1.0 0.0 -0.0
outer loop
vertex 15.4 0.0 0.0
vertex 15.4 -5.0 15.4
vertex 15.4 -5.0 0.0
endloop
endfacet
facet normal 1.0 0.0 -0.0
outer loop
vertex 15.4 -5.0 15.4
vertex 15.4 0.0 0.0
vertex 15.4 0.0 15.4
endloop
endfacet
facet normal -1.0 2.94066626556348e-16 1.33066999620613e-15
outer loop
vertex 10.2 -20.0 18.8
vertex 10.1148145657227 -20.6470476127563 17.9
vertex 10.1148145657227 -20.6470476127563 18.8
endloop
endfacet
facet normal -0.965925826289068 0.25881904510252 1.28532851560348e-15
outer loop
vertex 10.1148145657227 -20.6470476127563 17.9
vertex 10.2 -20.0 18.8
vertex 10.2 -20.0 17.9
endloop
endfacet
facet normal -0.25881904510252 -0.965925826289068 3.44402737764645e-16
outer loop
vertex 8.3470476127563 -17.5851854342773 18.8
vertex 7.7 -17.5 17.9
vertex 8.3470476127563 -17.5851854342773 17.9
endloop
endfacet
facet normal -0.130526192220052 -0.99144486137381 1.73687287706257e-16
outer loop
vertex 7.7 -17.5 17.9
vertex 8.3470476127563 -17.5851854342773 18.8
vertex 7.7 -17.5 18.8
endloop
endfacet
facet normal -4.51131986929343e-16 -0.866025403784438 -0.5
outer loop
vertex 18.8 -8.74999999999999 9.8650635094611
vertex 17.4 -7.49999999999999 7.7
vertex 18.8 -7.49999999999999 7.7
endloop
endfacet
facet normal -4.51131986929343e-16 -0.866025403784438 -0.5
outer loop
vertex 17.4 -7.49999999999999 7.7
vertex 18.8 -8.74999999999999 9.8650635094611
vertex 17.4 -8.74999999999999 9.8650635094611
endloop
endfacet
facet normal -0.0 -0.0 1.0
outer loop
vertex 15.4 -5.0 15.4
vertex 0.0 0.0 15.4
vertex 0.0 -5.0 15.4
endloop
endfacet
facet normal -0.0 -0.0 1.0
outer loop
vertex 0.0 0.0 15.4
vertex 15.4 -5.0 15.4
vertex 15.4 0.0 15.4
endloop
endfacet
facet normal 2.87097650833807e-16 -5.30984282699178e-32 1.0
outer loop
vertex 12.0301270189222 -22.5 18.8
vertex 7.7 -22.5 18.8
vertex 7.7 -25.0 18.8
endloop
endfacet
facet normal 2.87097650833807e-16 -5.30984282699178e-32 1.0
outer loop
vertex 7.7 -22.5 18.8
vertex 12.0301270189222 -22.5 18.8
vertex 8.3470476127563 -22.4148145657227 18.8
endloop
endfacet
facet normal 2.87097650833807e-16 -5.30984282699178e-32 1.0
outer loop
vertex 8.3470476127563 -22.4148145657227 18.8
vertex 12.0301270189222 -22.5 18.8
vertex 8.95 -22.1650635094611 18.8
endloop
endfacet
facet normal 2.87097650833807e-16 -5.30984282699178e-32 1.0
outer loop
vertex 8.95 -22.1650635094611 18.8
vertex 12.0301270189222 -22.5 18.8
vertex 9.46776695296637 -21.7677669529664 18.8
endloop
endfacet
facet normal 2.87097650833807e-16 -5.30984282699178e-32 1.0
outer loop
vertex 9.46776695296637 -21.7677669529664 18.8
vertex 12.0301270189222 -22.5 18.8
vertex 9.8650635094611 -21.25 18.8
endloop
endfacet
facet normal 2.87097650833807e-16 -5.30984282699178e-32 1.0
outer loop
vertex 9.8650635094611 -21.25 18.8
vertex 12.0301270189222 -22.5 18.8
vertex 10.1148145657227 -20.6470476127563 18.8
endloop
endfacet
facet normal 2.87097650833807e-16 -5.30984282699178e-32 1.0
outer loop
vertex 10.1148145657227 -20.6470476127563 18.8
vertex 12.0301270189222 -22.5 18.8
vertex 10.2 -20.0 18.8
endloop
endfacet
facet normal 2.87097650833807e-16 -5.30984282699178e-32 1.0
outer loop
vertex 10.2 -20.0 18.8
vertex 12.0301270189222 -22.5 18.8
vertex 12.0301270189222 -17.5 18.8
endloop
endfacet
facet normal 2.87097650833807e-16 -5.30984282699178e-32 1.0
outer loop
vertex 8.3470476127563 -17.5851854342773 18.8
vertex 7.7 -15.0 18.8
vertex 7.7 -17.5 18.8
endloop
endfacet
facet normal 2.87097650833807e-16 -5.30984282699178e-32 1.0
outer loop
vertex 7.7 -15.0 18.8
vertex 8.3470476127563 -17.5851854342773 18.8
vertex 12.0301270189222 -17.5 18.8
endloop
endfacet
facet normal 2.87097650833807e-16 -5.30984282699178e-32 1.0
outer loop
vertex 12.0301270189222 -17.5 18.8
vertex 8.3470476127563 -17.5851854342773 18.8
vertex 8.95 -17.8349364905389 18.8
endloop
endfacet
facet normal 2.87097650833807e-16 -5.30984282699178e-32 1.0
outer loop
vertex 12.0301270189222 -17.5 18.8
vertex 8.95 -17.8349364905389 18.8
vertex 9.46776695296637 -18.2322330470336 18.8
endloop
endfacet
facet normal 2.87097650833807e-16 -5.30984282699178e-32 1.0
outer loop
vertex 12.0301270189222 -17.5 18.8
vertex 9.46776695296637 -18.2322330470336 18.8
vertex 9.8650635094611 -18.75 18.8
endloop
endfacet
facet normal 2.87097650833807e-16 -5.30984282699178e-32 1.0
outer loop
vertex 12.0301270189222 -17.5 18.8
vertex 9.8650635094611 -18.75 18.8
vertex 10.1148145657227 -19.3529523872437 18.8
endloop
endfacet
facet normal 2.87097650833807e-16 -5.30984282699178e-32 1.0
outer loop
vertex 12.0301270189222 -17.5 18.8
vertex 10.1148145657227 -19.3529523872437 18.8
vertex 10.2 -20.0 18.8
endloop
endfacet
facet normal -3.18383249688812e-17 -0.923879532511287 0.382683432365091
outer loop
vertex -3.39999999999998 -4.20444504226558 6.14708572938487
vertex -4.27567567567567 -4.80384757729336 4.7
vertex -3.39999999999998 -4.80384757729336 4.7
endloop
endfacet
facet normal -3.18383249688812e-17 -0.923879532511287 0.382683432365091
outer loop
vertex -4.27567567567567 -4.80384757729336 4.7
vertex -3.39999999999998 -4.20444504226558 6.14708572938487
vertex -4.43211737614971 -4.20444504226558 6.14708572938487
endloop
endfacet
facet normal -0.707106781186547 -0.707106781186548 9.40925777838831e-16
outer loop
vertex 9.46776695296637 -18.2322330470336 18.8
vertex 9.8650635094611 -18.75 17.9
vertex 9.8650635094611 -18.75 18.8
endloop
endfacet
facet normal -0.866025403784438 -0.5 1.15239402076825e-15
outer loop
vertex 9.8650635094611 -18.75 17.9
vertex 9.46776695296637 -18.2322330470336 18.8
vertex 9.46776695296637 -18.2322330470336 17.9
endloop
endfacet
facet normal 0.0 -1.0 0.0
outer loop
vertex 15.4 -5.0 15.4
vertex 0.0 -5.0 0.0
vertex 15.4 -5.0 0.0
endloop
endfacet
facet normal 0.0 -1.0 0.0
outer loop
vertex 0.0 -5.0 0.0
vertex 15.4 -5.0 15.4
vertex 0.0 -5.0 15.4
endloop
endfacet
facet normal 3.09066736773353e-17 0.866025403784439 -0.5
outer loop
vertex 17.4 -11.25 9.8650635094611
vertex 18.8 -12.5 7.7
vertex 17.4 -12.5 7.7
endloop
endfacet
facet normal 3.09066736773353e-17 0.866025403784439 -0.5
outer loop
vertex 18.8 -12.5 7.7
vertex 17.4 -11.25 9.8650635094611
vertex 18.8 -11.25 9.8650635094611
endloop
endfacet
facet normal 0.0 -1.0 0.0
outer loop
vertex 18.8 -5.0 18.8
vertex -2.0 -5.0 17.4
vertex 17.4 -5.0 17.4
endloop
endfacet
facet normal 0.0 -1.0 0.0
outer loop
vertex -2.0 -5.0 17.4
vertex 18.8 -5.0 18.8
vertex -3.4 -5.0 18.8
endloop
endfacet
facet normal 0.0 -1.0 0.0
outer loop
vertex -3.4 -5.0 18.8
vertex 18.8 -5.0 18.8
vertex 7.7 -5.0 20.0
endloop
endfacet
facet normal 1.33066999620613e-15 5.99645802035718e-31 1.0
outer loop
vertex 5.28518543427733 -20.6470476127563 17.9
vertex 5.28518543427733 -19.3529523872437 17.9
vertex 5.2 -20.0 17.9
endloop
endfacet
facet normal 1.33066999620613e-15 5.99645802035718e-31 1.0
outer loop
vertex 5.28518543427733 -19.3529523872437 17.9
vertex 5.28518543427733 -20.6470476127563 17.9
vertex 5.5349364905389 -21.25 17.9
endloop
endfacet
facet normal 1.33066999620613e-15 5.99645802035718e-31 1.0
outer loop
vertex 5.28518543427733 -19.3529523872437 17.9
vertex 5.5349364905389 -21.25 17.9
vertex 5.5349364905389 -18.75 17.9
endloop
endfacet
facet normal 1.33066999620613e-15 5.99645802035718e-31 1.0
outer loop
vertex 5.5349364905389 -18.75 17.9
vertex 5.5349364905389 -21.25 17.9
vertex 5.93223304703363 -18.2322330470336 17.9
endloop
endfacet
facet normal 1.33066999620613e-15 5.99645802035718e-31 1.0
outer loop
vertex 5.93223304703363 -18.2322330470336 17.9
vertex 5.5349364905389 -21.25 17.9
vertex 5.93223304703363 -21.7677669529664 17.9
endloop
endfacet
facet normal 1.33066999620613e-15 5.99645802035718e-31 1.0
outer loop
vertex 5.93223304703363 -18.2322330470336 17.9
vertex 5.93223304703363 -21.7677669529664 17.9
vertex 6.45 -17.8349364905389 17.9
endloop
endfacet
facet normal 1.33066999620613e-15 5.99645802035718e-31 1.0
outer loop
vertex 6.45 -17.8349364905389 17.9
vertex 5.93223304703363 -21.7677669529664 17.9
vertex 6.45 -22.1650635094611 17.9
endloop
endfacet
facet normal 1.33066999620613e-15 5.99645802035718e-31 1.0
outer loop
vertex 6.45 -17.8349364905389 17.9
vertex 6.45 -22.1650635094611 17.9
vertex 7.0529523872437 -17.5851854342773 17.9
endloop
endfacet
facet normal 1.33066999620613e-15 5.99645802035718e-31 1.0
outer loop
vertex 7.0529523872437 -17.5851854342773 17.9
vertex 6.45 -22.1650635094611 17.9
vertex 7.0529523872437 -22.4148145657227 17.9
endloop
endfacet
facet normal 1.33066999620613e-15 5.99645802035718e-31 1.0
outer loop
vertex 7.0529523872437 -17.5851854342773 17.9
vertex 7.0529523872437 -22.4148145657227 17.9
vertex 7.7 -17.5 17.9
endloop
endfacet
facet normal 1.33066999620613e-15 5.99645802035718e-31 1.0
outer loop
vertex 7.7 -17.5 17.9
vertex 7.0529523872437 -22.4148145657227 17.9
vertex 7.7 -22.5 17.9
endloop
endfacet
facet normal 1.33066999620613e-15 5.99645802035718e-31 1.0
outer loop
vertex 7.7 -17.5 17.9
vertex 7.7 -22.5 17.9
vertex 8.3470476127563 -22.4148145657227 17.9
endloop
endfacet
facet normal 1.33066999620613e-15 5.99645802035718e-31 1.0
outer loop
vertex 7.7 -17.5 17.9
vertex 8.3470476127563 -22.4148145657227 17.9
vertex 8.3470476127563 -17.5851854342773 17.9
endloop
endfacet
facet normal 1.33066999620613e-15 5.99645802035718e-31 1.0
outer loop
vertex 8.3470476127563 -17.5851854342773 17.9
vertex 8.3470476127563 -22.4148145657227 17.9
vertex 8.95 -22.1650635094611 17.9
endloop
endfacet
facet normal 1.33066999620613e-15 5.99645802035718e-31 1.0
outer loop
vertex 8.3470476127563 -17.5851854342773 17.9
vertex 8.95 -22.1650635094611 17.9
vertex 8.95 -17.8349364905389 17.9
endloop
endfacet
facet normal 1.33066999620613e-15 5.99645802035718e-31 1.0
outer loop
vertex 8.95 -17.8349364905389 17.9
vertex 8.95 -22.1650635094611 17.9
vertex 9.46776695296637 -18.2322330470336 17.9
endloop
endfacet
facet normal 1.33066999620613e-15 5.99645802035718e-31 1.0
outer loop
vertex 9.46776695296637 -18.2322330470336 17.9
vertex 8.95 -22.1650635094611 17.9
vertex 9.46776695296637 -21.7677669529664 17.9
endloop
endfacet
facet normal 1.33066999620613e-15 5.99645802035718e-31 1.0
outer loop
vertex 9.46776695296637 -18.2322330470336 17.9
vertex 9.46776695296637 -21.7677669529664 17.9
vertex 9.8650635094611 -18.75 17.9
endloop
endfacet
facet normal 1.33066999620613e-15 5.99645802035718e-31 1.0
outer loop
vertex 9.8650635094611 -18.75 17.9
vertex 9.46776695296637 -21.7677669529664 17.9
vertex 9.8650635094611 -21.25 17.9
endloop
endfacet
facet normal 1.33066999620613e-15 5.99645802035718e-31 1.0
outer loop
vertex 9.8650635094611 -18.75 17.9
vertex 9.8650635094611 -21.25 17.9
vertex 10.1148145657227 -20.6470476127563 17.9
endloop
endfacet
facet normal 1.33066999620613e-15 5.99645802035718e-31 1.0
outer loop
vertex 9.8650635094611 -18.75 17.9
vertex 10.1148145657227 -20.6470476127563 17.9
vertex 10.1148145657227 -19.3529523872437 17.9
endloop
endfacet
facet normal 1.33066999620613e-15 5.99645802035718e-31 1.0
outer loop
vertex 10.1148145657227 -19.3529523872437 17.9
vertex 10.1148145657227 -20.6470476127563 17.9
vertex 10.2 -20.0 17.9
endloop
endfacet
facet normal 0.5 -0.866025403784438 -1.51660785843341e-15
outer loop
vertex 7.7 -15.0 20.0
vertex 3.3698729810778 -17.5 18.8
vertex 7.7 -15.0 18.8
endloop
endfacet
facet normal 0.5 -0.866025403784438 -1.51660785843341e-15
outer loop
vertex 3.3698729810778 -17.5 18.8
vertex 7.7 -15.0 20.0
vertex 3.3698729810778 -17.5 19.5318781601165
endloop
endfacet
facet normal 4.23158547321277e-32 -8.4598994476437e-16 1.0
outer loop
vertex -2.0 -11.25 5.5349364905389
vertex -3.39999999999998 -8.74999999999999 5.5349364905389
vertex -3.39999999999998 -11.25 5.5349364905389
endloop
endfacet
facet normal 4.23158547321277e-32 -8.4598994476437e-16 1.0
outer loop
vertex -3.39999999999998 -8.74999999999999 5.5349364905389
vertex -2.0 -11.25 5.5349364905389
vertex -2.0 -8.74999999999999 5.5349364905389
endloop
endfacet
facet normal 8.48263302035487e-17 -0.866025403784439 0.5
outer loop
vertex 20.0 -4.99999999999999 7.7
vertex 18.8 -7.49999999999999 3.36987298107781
vertex 19.5318781601165 -7.49999999999999 3.36987298107781
endloop
endfacet
facet normal 8.48263302035487e-17 -0.866025403784439 0.5
outer loop
vertex 18.8 -7.49999999999999 3.36987298107781
vertex 20.0 -4.99999999999999 7.7
vertex 18.8 -4.99999999999999 7.7
endloop
endfacet
facet normal 0.107481842980092 -7.80014640011995e-16 0.994207047565849
outer loop
vertex 18.8 -25.5 18.8
vertex 7.7 -25.0 20.0
vertex 7.7 -25.5 20.0
endloop
endfacet
facet normal 0.107481842980092 -7.80014640011995e-16 0.994207047565849
outer loop
vertex 7.7 -25.0 20.0
vertex 18.8 -25.5 18.8
vertex 12.0301270189222 -22.5 19.5318781601165
endloop
endfacet
facet normal 0.107481842980092 -7.80014640011995e-16 0.994207047565849
outer loop
vertex 12.0301270189222 -22.5 19.5318781601165
vertex 18.8 -25.5 18.8
vertex 18.8 -25.0 18.8
endloop
endfacet
facet normal -0.0 -8.4598994476437e-16 1.0
outer loop
vertex 18.8 -11.25 5.5349364905389
vertex 17.4 -8.74999999999999 5.5349364905389
vertex 17.4 -11.25 5.5349364905389
endloop
endfacet
facet normal -0.0 -8.4598994476437e-16 1.0
outer loop
vertex 17.4 -8.74999999999999 5.5349364905389
vertex 18.8 -11.25 5.5349364905389
vertex 18.8 -8.74999999999999 5.5349364905389
endloop
endfacet
facet normal 1.40005567807148e-17 0.866025403784438 0.5
outer loop
vertex -3.39999999999998 -12.5 7.7
vertex -2.0 -11.25 5.5349364905389
vertex -3.39999999999998 -11.25 5.5349364905389
endloop
endfacet
facet normal 1.40005567807148e-17 0.866025403784438 0.5
outer loop
vertex -2.0 -11.25 5.5349364905389
vertex -3.39999999999998 -12.5 7.7
vertex -2.0 -12.5 7.7
endloop
endfacet
facet normal -1.0 1.77022360108448e-16 -9.13530050853837e-17
outer loop
vertex -3.39999999999998 -12.5 7.7
vertex -3.39999999999999 -15.7955549577344 6.14708572938488
vertex -3.39999999999998 -16.0 7.7
endloop
endfacet
facet normal -1.0 1.77022360108448e-16 -9.13530050853837e-17
outer loop
vertex -3.39999999999999 -15.7955549577344 6.14708572938488
vertex -3.39999999999998 -12.5 7.7
vertex -3.39999999999999 -15.1961524227066 4.7
endloop
endfacet
facet normal -1.0 1.77022360108448e-16 -9.13530050853837e-17
outer loop
vertex -3.39999999999999 -15.1961524227066 4.7
vertex -3.39999999999998 -12.5 7.7
vertex -3.39999999999998 -14.2426406871193 3.45735931288072
endloop
endfacet
facet normal -1.0 1.77022360108448e-16 -9.13530050853837e-17
outer loop
vertex -3.39999999999998 -14.2426406871193 3.45735931288072
vertex -3.39999999999998 -12.5 7.7
vertex -3.39999999999998 -13.0 2.50384757729337
endloop
endfacet
facet normal -1.0 1.77022360108448e-16 -9.13530050853837e-17
outer loop
vertex -3.39999999999998 -13.0 2.50384757729337
vertex -3.39999999999998 -12.5 7.7
vertex -3.39999999999998 -11.5529142706151 1.90444504226559
endloop
endfacet
facet normal -1.0 1.77022360108448e-16 -9.13530050853837e-17
outer loop
vertex -3.39999999999998 -11.5529142706151 1.90444504226559
vertex -3.39999999999998 -12.5 7.7
vertex -3.39999999999998 -11.25 5.5349364905389
endloop
endfacet
facet normal -1.0 1.77022360108448e-16 -9.13530050853837e-17
outer loop
vertex -3.39999999999998 -11.5529142706151 1.90444504226559
vertex -3.39999999999998 -11.25 5.5349364905389
vertex -3.39999999999998 -9.99999999999999 1.7
endloop
endfacet
facet normal -1.0 1.77022360108448e-16 -9.13530050853837e-17
outer loop
vertex -3.39999999999998 -9.99999999999999 1.7
vertex -3.39999999999998 -11.25 5.5349364905389
vertex -3.39999999999998 -8.74999999999999 5.5349364905389
endloop
endfacet
facet normal -1.0 1.77022360108448e-16 -9.13530050853837e-17
outer loop
vertex -3.39999999999998 -9.99999999999999 1.7
vertex -3.39999999999998 -8.74999999999999 5.5349364905389
vertex -3.39999999999998 -8.44708572938487 1.90444504226559
endloop
endfacet
facet normal -1.0 1.77022360108448e-16 -9.13530050853837e-17
outer loop
vertex -3.39999999999998 -8.44708572938487 1.90444504226559
vertex -3.39999999999998 -8.74999999999999 5.5349364905389
vertex -3.39999999999998 -7.49999999999999 7.7
endloop
endfacet
facet normal -1.0 1.77022360108448e-16 -9.13530050853837e-17
outer loop
vertex -3.39999999999998 -8.44708572938487 1.90444504226559
vertex -3.39999999999998 -7.49999999999999 7.7
vertex -3.39999999999998 -7.0 2.50384757729337
endloop
endfacet
facet normal -1.0 1.77022360108448e-16 -9.13530050853837e-17
outer loop
vertex -3.39999999999998 -7.0 2.50384757729337
vertex -3.39999999999998 -7.49999999999999 7.7
vertex -3.39999999999998 -3.99999999999999 7.7
endloop
endfacet
facet normal -1.0 1.77022360108448e-16 -9.13530050853837e-17
outer loop
vertex -3.39999999999998 -7.0 2.50384757729337
vertex -3.39999999999998 -3.99999999999999 7.7
vertex -3.39999999999998 -5.75735931288071 3.45735931288071
endloop
endfacet
facet normal -1.0 1.77022360108448e-16 -9.13530050853837e-17
outer loop
vertex -3.39999999999998 -5.75735931288071 3.45735931288071
vertex -3.39999999999998 -3.99999999999999 7.7
vertex -3.39999999999998 -4.80384757729336 4.7
endloop
endfacet
facet normal -1.0 1.77022360108448e-16 -9.13530050853837e-17
outer loop
vertex -3.39999999999998 -4.80384757729336 4.7
vertex -3.39999999999998 -3.99999999999999 7.7
vertex -3.39999999999998 -4.20444504226558 6.14708572938487
endloop
endfacet
facet normal -6.35850380088036e-15 -0.258819045102521 -0.965925826289068
outer loop
vertex -3.39999999999999 -8.44708572938487 13.4955549577344
vertex -3.95135135135135 -9.99999999999999 13.7
vertex -3.97345351808276 -8.44708572938486 13.4955549577344
endloop
endfacet
facet normal -7.71026753691026e-15 -5.47570151275737e-16 -1.0
outer loop
vertex -3.95135135135135 -9.99999999999999 13.7
vertex -3.39999999999999 -8.44708572938487 13.4955549577344
vertex -3.39999999999999 -9.99999999999999 13.7
endloop
endfacet
facet normal -2.98024623528487e-15 0.5038506868122 -0.863790764826109
outer loop
vertex -4.03825379213982 -13.0 12.8961524227066
vertex -3.39999999999999 -14.2426406871193 11.9426406871193
vertex -4.14133614193305 -14.2426406871193 11.9426406871193
endloop
endfacet
facet normal -2.74838801440228e-16 0.707106781186547 -0.707106781186547
outer loop
vertex -3.39999999999999 -14.2426406871193 11.9426406871193
vertex -4.03825379213982 -13.0 12.8961524227066
vertex -3.39999999999999 -13.0 12.8961524227066
endloop
endfacet
facet normal -1.0 -1.70671263675219e-31 -1.33363978822992e-15
outer loop
vertex -3.39999999999998 -15.7955549577344 9.25291427061513
vertex -3.39999999999998 -12.5 7.7
vertex -3.39999999999998 -16.0 7.7
endloop
endfacet
facet normal -1.0 -1.70671263675219e-31 -1.33363978822992e-15
outer loop
vertex -3.39999999999998 -12.5 7.7
vertex -3.39999999999998 -15.7955549577344 9.25291427061513
vertex -3.39999999999999 -15.1961524227066 10.7
endloop
endfacet
facet normal -1.0 -1.70671263675219e-31 -1.33363978822992e-15
outer loop
vertex -3.39999999999998 -12.5 7.7
vertex -3.39999999999999 -15.1961524227066 10.7
vertex -3.39999999999999 -14.2426406871193 11.9426406871193
endloop
endfacet
facet normal -1.0 -1.70671263675219e-31 -1.33363978822992e-15
outer loop
vertex -3.39999999999998 -12.5 7.7
vertex -3.39999999999999 -14.2426406871193 11.9426406871193
vertex -3.39999999999999 -13.0 12.8961524227066
endloop
endfacet
facet normal -1.0 -1.70671263675219e-31 -1.33363978822992e-15
outer loop
vertex -3.39999999999998 -12.5 7.7
vertex -3.39999999999999 -13.0 12.8961524227066
vertex -3.39999999999999 -11.5529142706151 13.4955549577344
endloop
endfacet
facet normal -1.0 -1.70671263675219e-31 -1.33363978822992e-15
outer loop
vertex -3.39999999999998 -12.5 7.7
vertex -3.39999999999999 -11.5529142706151 13.4955549577344
vertex -3.39999999999998 -11.25 9.8650635094611
endloop
endfacet
facet normal -1.0 -1.70671263675219e-31 -1.33363978822992e-15
outer loop
vertex -3.39999999999998 -11.25 9.8650635094611
vertex -3.39999999999999 -11.5529142706151 13.4955549577344
vertex -3.39999999999999 -9.99999999999999 13.7
endloop
endfacet
facet normal -1.0 -1.70671263675219e-31 -1.33363978822992e-15
outer loop
vertex -3.39999999999998 -11.25 9.8650635094611
vertex -3.39999999999999 -9.99999999999999 13.7
vertex -3.39999999999998 -8.74999999999999 9.8650635094611
endloop
endfacet
facet normal -1.0 -1.70671263675219e-31 -1.33363978822992e-15
outer loop
vertex -3.39999999999998 -8.74999999999999 9.8650635094611
vertex -3.39999999999999 -9.99999999999999 13.7
vertex -3.39999999999999 -8.44708572938487 13.4955549577344
endloop
endfacet
facet normal -1.0 -1.70671263675219e-31 -1.33363978822992e-15
outer loop
vertex -3.39999999999998 -8.74999999999999 9.8650635094611
vertex -3.39999999999999 -8.44708572938487 13.4955549577344
vertex -3.39999999999998 -7.49999999999999 7.7
endloop
endfacet
facet normal -1.0 -1.70671263675219e-31 -1.33363978822992e-15
outer loop
vertex -3.39999999999998 -7.49999999999999 7.7
vertex -3.39999999999999 -8.44708572938487 13.4955549577344
vertex -3.39999999999999 -6.99999999999999 12.8961524227066
endloop
endfacet
facet normal -1.0 -1.70671263675219e-31 -1.33363978822992e-15
outer loop
vertex -3.39999999999998 -7.49999999999999 7.7
vertex -3.39999999999999 -6.99999999999999 12.8961524227066
vertex -3.39999999999998 -3.99999999999999 7.7
endloop
endfacet
facet normal -1.0 -1.70671263675219e-31 -1.33363978822992e-15
outer loop
vertex -3.39999999999998 -3.99999999999999 7.7
vertex -3.39999999999999 -6.99999999999999 12.8961524227066
vertex -3.39999999999999 -5.75735931288071 11.9426406871193
endloop
endfacet
facet normal -1.0 -1.70671263675219e-31 -1.33363978822992e-15
outer loop
vertex -3.39999999999998 -3.99999999999999 7.7
vertex -3.39999999999999 -5.75735931288071 11.9426406871193
vertex -3.39999999999999 -4.80384757729336 10.7
endloop
endfacet
facet normal -1.0 -1.70671263675219e-31 -1.33363978822992e-15
outer loop
vertex -3.39999999999998 -3.99999999999999 7.7
vertex -3.39999999999999 -4.80384757729336 10.7
vertex -3.39999999999998 -4.20444504226558 9.25291427061512
endloop
endfacet
facet normal -6.29263587268334e-15 0.261043890257302 -0.965326932888197
outer loop
vertex -3.97345351808276 -11.5529142706151 13.4955549577344
vertex -3.39999999999999 -13.0 12.8961524227066
vertex -4.03825379213982 -13.0 12.8961524227066
endloop
endfacet
facet normal -3.05117651135904e-15 0.5 -0.866025403784439
outer loop
vertex -3.39999999999999 -13.0 12.8961524227066
vertex -3.97345351808276 -11.5529142706151 13.4955549577344
vertex -3.39999999999999 -11.5529142706151 13.4955549577344
endloop
endfacet
facet normal 3.42686314507318e-16 0.869860848350149 -0.493297176666925
outer loop
vertex -4.27567567567567 -15.1961524227066 10.7
vertex -3.39999999999998 -15.7955549577344 9.25291427061513
vertex -4.43211737614971 -15.7955549577344 9.25291427061513
endloop
endfacet
facet normal 1.62330454154594e-16 0.965925826289068 -0.258819045102521
outer loop
vertex -3.39999999999998 -15.7955549577344 9.25291427061513
vertex -4.27567567567567 -15.1961524227066 10.7
vertex -3.39999999999999 -15.1961524227066 10.7
endloop
endfacet
facet normal -2.42306873299803e-16 0.711547168051187 -0.702638333453517
outer loop
vertex -4.14133614193305 -14.2426406871193 11.9426406871193
vertex -3.39999999999999 -15.1961524227066 10.7
vertex -4.27567567567567 -15.1961524227066 10.7
endloop
endfacet
facet normal 3.4614479381046e-16 0.866025403784439 -0.5
outer loop
vertex -3.39999999999999 -15.1961524227066 10.7
vertex -4.14133614193305 -14.2426406871193 11.9426406871193
vertex -3.39999999999999 -14.2426406871193 11.9426406871193
endloop
endfacet
facet normal 3.74814745356883e-16 -0.965925826289068 -0.258819045102521
outer loop
vertex -3.39999999999998 -4.20444504226558 9.25291427061512
vertex -4.59999999999999 -3.99999999999999 7.7
vertex -3.39999999999998 -3.99999999999999 7.7
endloop
endfacet
facet normal 3.82071937422752e-16 -0.99144486137381 -0.130526192220052
outer loop
vertex -4.59999999999999 -3.99999999999999 7.7
vertex -3.39999999999998 -4.20444504226558 9.25291427061512
vertex -4.43211737614971 -4.20444504226558 9.25291427061512
endloop
endfacet
facet normal -7.20239943770862e-17 1.0 -1.07028430855778e-15
outer loop
vertex -3.4 -14.5 18.8
vertex 17.4 -14.5 17.4
vertex -2.0 -14.5 17.4
endloop
endfacet
facet normal -7.20239943770862e-17 1.0 -1.07028430855778e-15
outer loop
vertex 17.4 -14.5 17.4
vertex -3.4 -14.5 18.8
vertex 18.8 -14.5 18.8
endloop
endfacet
facet normal -7.20239943770862e-17 1.0 -1.07028430855778e-15
outer loop
vertex 18.8 -14.5 18.8
vertex -3.4 -14.5 18.8
vertex 7.7 -14.5 20.0
endloop
endfacet
facet normal 1.08392316565731e-15 0.793353340291235 0.608761429008721
outer loop
vertex -4.14133614193305 -14.2426406871193 3.45735931288072
vertex -3.39999999999999 -15.1961524227066 4.7
vertex -3.39999999999998 -14.2426406871193 3.45735931288072
endloop
endfacet
facet normal 1.08392316565731e-15 0.793353340291235 0.608761429008721
outer loop
vertex -3.39999999999999 -15.1961524227066 4.7
vertex -4.14133614193305 -14.2426406871193 3.45735931288072
vertex -4.27567567567567 -15.1961524227066 4.7
endloop
endfacet
facet normal 1.80802696502427e-18 -0.99144486137381 0.130526192220051
outer loop
vertex -3.39999999999998 -3.99999999999999 7.7
vertex -4.43211737614971 -4.20444504226558 6.14708572938487
vertex -3.39999999999998 -4.20444504226558 6.14708572938487
endloop
endfacet
facet normal 1.80802696502427e-18 -0.99144486137381 0.130526192220051
outer loop
vertex -4.43211737614971 -4.20444504226558 6.14708572938487
vertex -3.39999999999998 -3.99999999999999 7.7
vertex -4.59999999999999 -3.99999999999999 7.7
endloop
endfacet
facet normal 3.12250408227642e-16 0.923879532511287 0.38268343236509
outer loop
vertex -4.27567567567567 -15.1961524227066 4.7
vertex -3.39999999999999 -15.7955549577344 6.14708572938488
vertex -3.39999999999999 -15.1961524227066 4.7
endloop
endfacet
facet normal 3.12250408227642e-16 0.923879532511287 0.38268343236509
outer loop
vertex -3.39999999999999 -15.7955549577344 6.14708572938488
vertex -4.27567567567567 -15.1961524227066 4.7
vertex -4.43211737614971 -15.7955549577344 6.14708572938488
endloop
endfacet
facet normal -3.83125076525944e-15 -0.5 -0.866025403784439
outer loop
vertex -3.39999999999999 -6.99999999999999 12.8961524227066
vertex -3.97345351808276 -8.44708572938486 13.4955549577344
vertex -4.03825379213982 -6.99999999999999 12.8961524227066
endloop
endfacet
facet normal -6.330770964829e-15 -0.261043890257302 -0.965326932888197
outer loop
vertex -3.97345351808276 -8.44708572938486 13.4955549577344
vertex -3.39999999999999 -6.99999999999999 12.8961524227066
vertex -3.39999999999999 -8.44708572938487 13.4955549577344
endloop
endfacet
facet normal 0.0 -1.0 0.0
outer loop
vertex 20.0 -25.5 7.7
vertex 17.4 -25.5 1.50354382220497e-15
vertex 19.1675675675676 -25.5 3.52495810318487e-16
endloop
endfacet
facet normal 0.0 -1.0 0.0
outer loop
vertex 17.4 -25.5 1.50354382220497e-15
vertex 20.0 -25.5 7.7
vertex 17.4 -25.5 17.4
endloop
endfacet
facet normal 0.0 -1.0 0.0
outer loop
vertex 17.4 -25.5 17.4
vertex 20.0 -25.5 7.7
vertex 18.8 -25.5 18.8
endloop
endfacet
facet normal 1.5413216324431e-16 0.968122492859062 -0.250477222158734
outer loop
vertex -4.43211737614971 -15.7955549577344 9.25291427061513
vertex -3.39999999999998 -16.0 7.7
vertex -4.59999999999999 -16.0 7.7
endloop
endfacet
facet normal 3.69806091803526e-17 0.99144486137381 -0.130526192220052
outer loop
vertex -3.39999999999998 -16.0 7.7
vertex -4.43211737614971 -15.7955549577344 9.25291427061513
vertex -3.39999999999998 -15.7955549577344 9.25291427061513
endloop
endfacet
facet normal 9.26758673327974e-18 0.991444861373811 0.13052619222005
outer loop
vertex -4.59999999999999 -16.0 7.7
vertex -3.39999999999999 -15.7955549577344 6.14708572938488
vertex -4.43211737614971 -15.7955549577344 6.14708572938488
endloop
endfacet
facet normal 9.26758673327974e-18 0.991444861373811 0.13052619222005
outer loop
vertex -3.39999999999999 -15.7955549577344 6.14708572938488
vertex -4.59999999999999 -16.0 7.7
vertex -3.39999999999998 -16.0 7.7
endloop
endfacet
facet normal 2.35277186345415e-16 -0.866025403784439 -0.5
outer loop
vertex -3.39999999999999 -4.80384757729336 10.7
vertex -4.14133614193305 -5.75735931288071 11.9426406871193
vertex -4.27567567567567 -4.80384757729336 10.7
endloop
endfacet
facet normal -1.31903707555279e-15 -0.711547168051187 -0.702638333453517
outer loop
vertex -4.14133614193305 -5.75735931288071 11.9426406871193
vertex -3.39999999999999 -4.80384757729336 10.7
vertex -3.39999999999999 -5.75735931288071 11.9426406871193
endloop
endfacet
facet normal -0.707106781186547 -0.0 0.707106781186547
outer loop
vertex 18.8 -14.5 18.8
vertex 17.4 -5.0 17.4
vertex 17.4 -14.5 17.4
endloop
endfacet
facet normal -0.707106781186547 -0.0 0.707106781186547
outer loop
vertex 17.4 -5.0 17.4
vertex 18.8 -14.5 18.8
vertex 18.8 -5.0 18.8
endloop
endfacet
facet normal 3.74814745356883e-16 -0.965925826289068 -0.258819045102521
outer loop
vertex -3.39999999999998 -4.20444504226558 9.25291427061512
vertex -4.27567567567567 -4.80384757729336 10.7
vertex -4.43211737614971 -4.20444504226558 9.25291427061512
endloop
endfacet
facet normal 2.42836147757818e-16 -0.869860848350149 -0.493297176666924
outer loop
vertex -4.27567567567567 -4.80384757729336 10.7
vertex -3.39999999999998 -4.20444504226558 9.25291427061512
vertex -3.39999999999999 -4.80384757729336 10.7
endloop
endfacet
facet normal -0.107481842980092 -9.28573317058351e-16 0.994207047565849
outer loop
vertex 3.3698729810778 -17.5 19.5318781601165
vertex -3.4 -14.5 18.8
vertex -3.4 -15.0 18.8
endloop
endfacet
facet normal -0.107481842980092 -9.28573317058351e-16 0.994207047565849
outer loop
vertex -3.4 -14.5 18.8
vertex 3.3698729810778 -17.5 19.5318781601165
vertex 7.7 -14.5 20.0
endloop
endfacet
facet normal -0.107481842980092 -9.28573317058351e-16 0.994207047565849
outer loop
vertex 7.7 -14.5 20.0
vertex 3.3698729810778 -17.5 19.5318781601165
vertex 7.7 -15.0 20.0
endloop
endfacet
facet normal -7.71026753691026e-15 -5.47570151275737e-16 -1.0
outer loop
vertex -3.95135135135135 -9.99999999999999 13.7
vertex -3.39999999999999 -11.5529142706151 13.4955549577344
vertex -3.97345351808276 -11.5529142706151 13.4955549577344
endloop
endfacet
facet normal -6.3130464465207e-15 0.258819045102521 -0.965925826289068
outer loop
vertex -3.39999999999999 -11.5529142706151 13.4955549577344
vertex -3.95135135135135 -9.99999999999999 13.7
vertex -3.39999999999999 -9.99999999999999 13.7
endloop
endfacet
facet normal 4.46454618388825e-16 -0.130526192220051 0.99144486137381
outer loop
vertex -3.95135135135135 -9.99999999999999 1.7
vertex -3.39999999999998 -8.44708572938487 1.90444504226559
vertex -3.97345351808276 -8.44708572938487 1.90444504226559
endloop
endfacet
facet normal 4.46454618388825e-16 -0.130526192220051 0.99144486137381
outer loop
vertex -3.39999999999998 -8.44708572938487 1.90444504226559
vertex -3.95135135135135 -9.99999999999999 1.7
vertex -3.39999999999998 -9.99999999999999 1.7
endloop
endfacet
facet normal -1.39069471678868e-15 -0.707106781186548 -0.707106781186547
outer loop
vertex -3.39999999999999 -5.75735931288071 11.9426406871193
vertex -4.03825379213982 -6.99999999999999 12.8961524227066
vertex -4.14133614193305 -5.75735931288071 11.9426406871193
endloop
endfacet
facet normal -3.79930402812821e-15 -0.5038506868122 -0.863790764826109
outer loop
vertex -4.03825379213982 -6.99999999999999 12.8961524227066
vertex -3.39999999999999 -5.75735931288071 11.9426406871193
vertex -3.39999999999999 -6.99999999999999 12.8961524227066
endloop
endfacet
facet normal 0.0 -1.0 0.0
outer loop
vertex 17.4 0.0 1.50354382220497e-15
vertex 15.4 0.0 15.4
vertex 15.4 0.0 0.0
endloop
endfacet
facet normal 0.0 -1.0 0.0
outer loop
vertex 15.4 0.0 15.4
vertex 17.4 0.0 1.50354382220497e-15
vertex 17.4 0.0 17.4
endloop
endfacet
facet normal 0.0 -1.0 0.0
outer loop
vertex 15.4 0.0 15.4
vertex 17.4 0.0 17.4
vertex 0.0 0.0 15.4
endloop
endfacet
facet normal 0.0 -1.0 0.0
outer loop
vertex 0.0 0.0 0.0
vertex -2.0 0.0 17.4
vertex -2.0 0.0 -3.63369067021281e-16
endloop
endfacet
facet normal 0.0 -1.0 0.0
outer loop
vertex -2.0 0.0 17.4
vertex 0.0 0.0 0.0
vertex 0.0 0.0 15.4
endloop
endfacet
facet normal 0.0 -1.0 0.0
outer loop
vertex -2.0 0.0 17.4
vertex 0.0 0.0 15.4
vertex 17.4 0.0 17.4
endloop
endfacet
facet normal 0.707106781186548 -0.0 0.707106781186547
outer loop
vertex -2.0 -5.0 17.4
vertex -3.4 -14.5 18.8
vertex -2.0 -14.5 17.4
endloop
endfacet
facet normal 0.707106781186548 -0.0 0.707106781186547
outer loop
vertex -3.4 -14.5 18.8
vertex -2.0 -5.0 17.4
vertex -3.4 -5.0 18.8
endloop
endfacet
facet normal 0.866025403784438 0.5 -1.15239402076825e-15
outer loop
vertex 5.5349364905389 -21.25 17.9
vertex 5.93223304703363 -21.7677669529664 18.8
vertex 5.93223304703363 -21.7677669529664 17.9
endloop
endfacet
facet normal 0.707106781186548 0.707106781186547 -9.40925777838832e-16
outer loop
vertex 5.93223304703363 -21.7677669529664 18.8
vertex 5.5349364905389 -21.25 17.9
vertex 5.5349364905389 -21.25 18.8
endloop
endfacet
facet normal 0.0 -1.0 0.0
outer loop
vertex -2.0 -25.5 -8.04912767162352e-16
vertex -4.6 -25.5 7.7
vertex -3.76756756756757 -25.5 -1.14653532077805e-15
endloop
endfacet
facet normal 0.0 -1.0 0.0
outer loop
vertex -4.6 -25.5 7.7
vertex -2.0 -25.5 -8.04912767162352e-16
vertex -2.0 -25.5 17.4
endloop
endfacet
facet normal 0.0 -1.0 0.0
outer loop
vertex -4.6 -25.5 7.7
vertex -2.0 -25.5 17.4
vertex -3.4 -25.5 18.8
endloop
endfacet
facet normal 0.130526192220051 -0.99144486137381 -1.73687287706255e-16
outer loop
vertex 7.7 -17.5 18.8
vertex 7.0529523872437 -17.5851854342773 17.9
vertex 7.7 -17.5 17.9
endloop
endfacet
facet normal 0.25881904510252 -0.965925826289069 -3.44402737764644e-16
outer loop
vertex 7.0529523872437 -17.5851854342773 17.9
vertex 7.7 -17.5 18.8
vertex 7.0529523872437 -17.5851854342773 18.8
endloop
endfacet
facet normal -0.130526192220052 0.99144486137381 1.73687287706256e-16
outer loop
vertex 7.7 -22.5 18.8
vertex 8.3470476127563 -22.4148145657227 17.9
vertex 7.7 -22.5 17.9
endloop
endfacet
facet normal -0.25881904510252 0.965925826289068 3.44402737764644e-16
outer loop
vertex 8.3470476127563 -22.4148145657227 17.9
vertex 7.7 -22.5 18.8
vertex 8.3470476127563 -22.4148145657227 18.8
endloop
endfacet
facet normal -0.5 -0.866025403784439 6.65334998103064e-16
outer loop
vertex 8.95 -17.8349364905389 18.8
vertex 8.3470476127563 -17.5851854342773 17.9
vertex 8.95 -17.8349364905389 17.9
endloop
endfacet
facet normal -0.258819045102521 -0.965925826289068 3.44402737764646e-16
outer loop
vertex 8.3470476127563 -17.5851854342773 17.9
vertex 8.95 -17.8349364905389 18.8
vertex 8.3470476127563 -17.5851854342773 18.8
endloop
endfacet
facet normal 0.86602540378444 -0.499999999999998 -1.15239402076825e-15
outer loop
vertex 5.5349364905389 -18.75 17.9
vertex 5.28518543427733 -19.3529523872437 18.8
vertex 5.28518543427733 -19.3529523872437 17.9
endloop
endfacet
facet normal 0.965925826289068 -0.258819045102521 -1.28532851560348e-15
outer loop
vertex 5.28518543427733 -19.3529523872437 18.8
vertex 5.5349364905389 -18.75 17.9
vertex 5.5349364905389 -18.75 18.8
endloop
endfacet
facet normal 5.55088420156088e-16 0.130526192220052 0.99144486137381
outer loop
vertex -3.39999999999998 -11.5529142706151 1.90444504226559
vertex -3.95135135135135 -9.99999999999999 1.7
vertex -3.97345351808277 -11.5529142706151 1.90444504226559
endloop
endfacet
facet normal 5.55088420156088e-16 0.130526192220052 0.99144486137381
outer loop
vertex -3.95135135135135 -9.99999999999999 1.7
vertex -3.39999999999998 -11.5529142706151 1.90444504226559
vertex -3.39999999999998 -9.99999999999999 1.7
endloop
endfacet
facet normal 0.965925826289068 0.258819045102522 -1.28532851560348e-15
outer loop
vertex 5.28518543427733 -20.6470476127563 17.9
vertex 5.5349364905389 -21.25 18.8
vertex 5.5349364905389 -21.25 17.9
endloop
endfacet
facet normal 0.866025403784438 0.5 -1.15239402076825e-15
outer loop
vertex 5.5349364905389 -21.25 18.8
vertex 5.28518543427733 -20.6470476127563 17.9
vertex 5.28518543427733 -20.6470476127563 18.8
endloop
endfacet
facet normal -0.25881904510252 0.965925826289068 3.44402737764643e-16
outer loop
vertex 8.3470476127563 -22.4148145657227 18.8
vertex 8.95 -22.1650635094611 17.9
vertex 8.3470476127563 -22.4148145657227 17.9
endloop
endfacet
facet normal -0.5 0.866025403784439 6.65334998103063e-16
outer loop
vertex 8.95 -22.1650635094611 17.9
vertex 8.3470476127563 -22.4148145657227 18.8
vertex 8.95 -22.1650635094611 18.8
endloop
endfacet
facet normal -0.499999999999999 0.866025403784439 6.65334998103063e-16
outer loop
vertex 8.95 -22.1650635094611 18.8
vertex 9.46776695296637 -21.7677669529664 17.9
vertex 8.95 -22.1650635094611 17.9
endloop
endfacet
facet normal -0.707106781186548 0.707106781186547 9.40925777838832e-16
outer loop
vertex 9.46776695296637 -21.7677669529664 17.9
vertex 8.95 -22.1650635094611 18.8
vertex 9.46776695296637 -21.7677669529664 18.8
endloop
endfacet
facet normal -0.965925826289068 -0.258819045102521 1.28532851560348e-15
outer loop
vertex 10.1148145657227 -19.3529523872437 18.8
vertex 10.2 -20.0 17.9
vertex 10.2 -20.0 18.8
endloop
endfacet
facet normal -1.0 2.94066626556348e-16 1.33066999620613e-15
outer loop
vertex 10.2 -20.0 17.9
vertex 10.1148145657227 -19.3529523872437 18.8
vertex 10.1148145657227 -19.3529523872437 17.9
endloop
endfacet
facet normal -0.107481842980092 8.92558518002252e-17 0.994207047565849
outer loop
vertex -3.4 -25.0 18.8
vertex 3.3698729810778 -17.5 19.5318781601165
vertex -3.4 -15.0 18.8
endloop
endfacet
facet normal -0.107481842980092 8.92558518002252e-17 0.994207047565849
outer loop
vertex 3.3698729810778 -17.5 19.5318781601165
vertex -3.4 -25.0 18.8
vertex 3.3698729810778 -22.5 19.5318781601165
endloop
endfacet
facet normal 1.18304901120712e-17 -0.60876142900872 0.793353340291236
outer loop
vertex -4.03825379213982 -7.0 2.50384757729337
vertex -3.39999999999998 -5.75735931288071 3.45735931288071
vertex -4.14133614193305 -5.75735931288071 3.45735931288071
endloop
endfacet
facet normal 1.18304901120712e-17 -0.60876142900872 0.793353340291236
outer loop
vertex -3.39999999999998 -5.75735931288071 3.45735931288071
vertex -4.03825379213982 -7.0 2.50384757729337
vertex -3.39999999999998 -7.0 2.50384757729337
endloop
endfacet
facet normal -0.866025403784439 0.499999999999999 1.15239402076825e-15
outer loop
vertex 9.8650635094611 -21.25 18.8
vertex 9.46776695296637 -21.7677669529664 17.9
vertex 9.46776695296637 -21.7677669529664 18.8
endloop
endfacet
facet normal -0.707106781186548 0.707106781186547 9.40925777838832e-16
outer loop
vertex 9.46776695296637 -21.7677669529664 17.9
vertex 9.8650635094611 -21.25 18.8
vertex 9.8650635094611 -21.25 17.9
endloop
endfacet
facet normal -0.965925826289068 0.25881904510252 1.28532851560348e-15
outer loop
vertex 10.1148145657227 -20.6470476127563 18.8
vertex 9.8650635094611 -21.25 17.9
vertex 9.8650635094611 -21.25 18.8
endloop
endfacet
facet normal -0.866025403784439 0.499999999999999 1.15239402076825e-15
outer loop
vertex 9.8650635094611 -21.25 17.9
vertex 10.1148145657227 -20.6470476127563 18.8
vertex 10.1148145657227 -20.6470476127563 17.9
endloop
endfacet
facet normal -9.63263640118373e-16 7.04991620636974e-16 -1.0
outer loop
vertex 19.5318781601165 -7.49999999999999 12.0301270189222
vertex 18.8 -12.5 12.0301270189222
vertex 18.8 -7.49999999999999 12.0301270189222
endloop
endfacet
facet normal -9.63263640118373e-16 7.04991620636974e-16 -1.0
outer loop
vertex 18.8 -12.5 12.0301270189222
vertex 19.5318781601165 -7.49999999999999 12.0301270189222
vertex 19.5318781601165 -12.5 12.0301270189222
endloop
endfacet
facet normal -1.32049348970167e-17 -0.382683432365089 0.923879532511287
outer loop
vertex -3.97345351808276 -8.44708572938487 1.90444504226559
vertex -3.39999999999998 -7.0 2.50384757729337
vertex -4.03825379213982 -7.0 2.50384757729337
endloop
endfacet
facet normal -1.32049348970167e-17 -0.382683432365089 0.923879532511287
outer loop
vertex -3.39999999999998 -7.0 2.50384757729337
vertex -3.97345351808276 -8.44708572938487 1.90444504226559
vertex -3.39999999999998 -8.44708572938487 1.90444504226559
endloop
endfacet
facet normal -5.30165479268223e-17 -0.866025403784439 -0.5
outer loop
vertex 19.5318781601165 -7.49999999999999 12.0301270189222
vertex 18.8 -4.99999999999999 7.7
vertex 20.0 -4.99999999999999 7.7
endloop
endfacet
facet normal -5.30165479268223e-17 -0.866025403784439 -0.5
outer loop
vertex 18.8 -4.99999999999999 7.7
vertex 19.5318781601165 -7.49999999999999 12.0301270189222
vertex 18.8 -7.49999999999999 12.0301270189222
endloop
endfacet
facet normal -0.707106781186547 -0.707106781186548 9.40925777838831e-16
outer loop
vertex 9.46776695296637 -18.2322330470336 18.8
vertex 8.95 -17.8349364905389 17.9
vertex 9.46776695296637 -18.2322330470336 17.9
endloop
endfacet
facet normal -0.5 -0.866025403784439 6.65334998103065e-16
outer loop
vertex 8.95 -17.8349364905389 17.9
vertex 9.46776695296637 -18.2322330470336 18.8
vertex 8.95 -17.8349364905389 18.8
endloop
endfacet
facet normal 1.30267778353358e-15 1.78965512307252e-31 1.0
outer loop
vertex 3.3698729810778 -22.5 18.8
vertex 5.28518543427733 -20.6470476127563 18.8
vertex 5.2 -20.0 18.8
endloop
endfacet
facet normal 1.30267778353358e-15 1.78965512307252e-31 1.0
outer loop
vertex 5.28518543427733 -20.6470476127563 18.8
vertex 3.3698729810778 -22.5 18.8
vertex 5.5349364905389 -21.25 18.8
endloop
endfacet
facet normal 1.30267778353358e-15 1.78965512307252e-31 1.0
outer loop
vertex 5.5349364905389 -21.25 18.8
vertex 3.3698729810778 -22.5 18.8
vertex 7.7 -25.0 18.8
endloop
endfacet
facet normal 1.30267778353358e-15 1.78965512307252e-31 1.0
outer loop
vertex 5.5349364905389 -21.25 18.8
vertex 7.7 -25.0 18.8
vertex 5.93223304703363 -21.7677669529664 18.8
endloop
endfacet
facet normal 1.30267778353358e-15 1.78965512307252e-31 1.0
outer loop
vertex 5.93223304703363 -21.7677669529664 18.8
vertex 7.7 -25.0 18.8
vertex 6.45 -22.1650635094611 18.8
endloop
endfacet
facet normal 1.30267778353358e-15 1.78965512307252e-31 1.0
outer loop
vertex 6.45 -22.1650635094611 18.8
vertex 7.7 -25.0 18.8
vertex 7.0529523872437 -22.4148145657227 18.8
endloop
endfacet
facet normal 1.30267778353358e-15 1.78965512307252e-31 1.0
outer loop
vertex 7.0529523872437 -22.4148145657227 18.8
vertex 7.7 -25.0 18.8
vertex 7.7 -22.5 18.8
endloop
endfacet
facet normal 1.30267778353358e-15 1.78965512307252e-31 1.0
outer loop
vertex 3.3698729810778 -22.5 18.8
vertex 7.7 -15.0 18.8
vertex 3.3698729810778 -17.5 18.8
endloop
endfacet
facet normal 1.30267778353358e-15 1.78965512307252e-31 1.0
outer loop
vertex 7.7 -15.0 18.8
vertex 3.3698729810778 -22.5 18.8
vertex 5.5349364905389 -18.75 18.8
endloop
endfacet
facet normal 1.30267778353358e-15 1.78965512307252e-31 1.0
outer loop
vertex 5.5349364905389 -18.75 18.8
vertex 3.3698729810778 -22.5 18.8
vertex 5.28518543427733 -19.3529523872437 18.8
endloop
endfacet
facet normal 1.30267778353358e-15 1.78965512307252e-31 1.0
outer loop
vertex 5.28518543427733 -19.3529523872437 18.8
vertex 3.3698729810778 -22.5 18.8
vertex 5.2 -20.0 18.8
endloop
endfacet
facet normal 1.30267778353358e-15 1.78965512307252e-31 1.0
outer loop
vertex 7.7 -15.0 18.8
vertex 5.5349364905389 -18.75 18.8
vertex 5.93223304703363 -18.2322330470336 18.8
endloop
endfacet
facet normal 1.30267778353358e-15 1.78965512307252e-31 1.0
outer loop
vertex 7.7 -15.0 18.8
vertex 5.93223304703363 -18.2322330470336 18.8
vertex 6.45 -17.8349364905389 18.8
endloop
endfacet
facet normal 1.30267778353358e-15 1.78965512307252e-31 1.0
outer loop
vertex 7.7 -15.0 18.8
vertex 6.45 -17.8349364905389 18.8
vertex 7.0529523872437 -17.5851854342773 18.8
endloop
endfacet
facet normal 1.30267778353358e-15 1.78965512307252e-31 1.0
outer loop
vertex 7.7 -15.0 18.8
vertex 7.0529523872437 -17.5851854342773 18.8
vertex 7.7 -17.5 18.8
endloop
endfacet
facet normal 0.258819045102521 -0.965925826289068 -3.44402737764645e-16
outer loop
vertex 7.0529523872437 -17.5851854342773 18.8
vertex 6.45 -17.8349364905389 17.9
vertex 7.0529523872437 -17.5851854342773 17.9
endloop
endfacet
facet normal 0.499999999999999 -0.866025403784439 -6.65334998103063e-16
outer loop
vertex 6.45 -17.8349364905389 17.9
vertex 7.0529523872437 -17.5851854342773 18.8
vertex 6.45 -17.8349364905389 18.8
endloop
endfacet
facet normal 0.5 -0.866025403784439 -6.65334998103064e-16
outer loop
vertex 6.45 -17.8349364905389 18.8
vertex 5.93223304703363 -18.2322330470336 17.9
vertex 6.45 -17.8349364905389 17.9
endloop
endfacet
facet normal 0.707106781186549 -0.707106781186546 -9.40925777838832e-16
outer loop
vertex 5.93223304703363 -18.2322330470336 17.9
vertex 6.45 -17.8349364905389 18.8
vertex 5.93223304703363 -18.2322330470336 18.8
endloop
endfacet
facet normal 0.707106781186549 -0.707106781186546 -9.40925777838832e-16
outer loop
vertex 5.93223304703363 -18.2322330470336 17.9
vertex 5.5349364905389 -18.75 18.8
vertex 5.5349364905389 -18.75 17.9
endloop
endfacet
facet normal 0.86602540378444 -0.499999999999999 -1.15239402076825e-15
outer loop
vertex 5.5349364905389 -18.75 18.8
vertex 5.93223304703363 -18.2322330470336 17.9
vertex 5.93223304703363 -18.2322330470336 18.8
endloop
endfacet
facet normal 0.499999999999999 0.866025403784439 -6.65334998103064e-16
outer loop
vertex 6.45 -22.1650635094611 17.9
vertex 7.0529523872437 -22.4148145657227 18.8
vertex 7.0529523872437 -22.4148145657227 17.9
endloop
endfacet
facet normal 0.258819045102521 0.965925826289068 -3.44402737764646e-16
outer loop
vertex 7.0529523872437 -22.4148145657227 18.8
vertex 6.45 -22.1650635094611 17.9
vertex 6.45 -22.1650635094611 18.8
endloop
endfacet
facet normal 0.258819045102521 0.965925826289068 -3.44402737764646e-16
outer loop
vertex 7.0529523872437 -22.4148145657227 18.8
vertex 7.7 -22.5 17.9
vertex 7.0529523872437 -22.4148145657227 17.9
endloop
endfacet
facet normal 0.130526192220052 0.99144486137381 -1.73687287706257e-16
outer loop
vertex 7.7 -22.5 17.9
vertex 7.0529523872437 -22.4148145657227 18.8
vertex 7.7 -22.5 18.8
endloop
endfacet
facet normal 1.0 -2.94066626556348e-16 -1.33066999620613e-15
outer loop
vertex 5.2 -20.0 17.9
vertex 5.28518543427733 -20.6470476127563 18.8
vertex 5.28518543427733 -20.6470476127563 17.9
endloop
endfacet
facet normal 0.965925826289068 0.258819045102522 -1.28532851560348e-15
outer loop
vertex 5.28518543427733 -20.6470476127563 18.8
vertex 5.2 -20.0 17.9
vertex 5.2 -20.0 18.8
endloop
endfacet
facet normal 0.707106781186548 0.707106781186547 -9.40925777838832e-16
outer loop
vertex 5.93223304703363 -21.7677669529664 18.8
vertex 6.45 -22.1650635094611 17.9
vertex 5.93223304703363 -21.7677669529664 17.9
endloop
endfacet
facet normal 0.499999999999999 0.866025403784439 -6.65334998103064e-16
outer loop
vertex 6.45 -22.1650635094611 17.9
vertex 5.93223304703363 -21.7677669529664 18.8
vertex 6.45 -22.1650635094611 18.8
endloop
endfacet
facet normal 0.965925826289068 -0.258819045102521 -1.28532851560348e-15
outer loop
vertex 5.28518543427733 -19.3529523872437 17.9
vertex 5.2 -20.0 18.8
vertex 5.2 -20.0 17.9
endloop
endfacet
facet normal 1.0 -2.94066626556348e-16 -1.33066999620613e-15
outer loop
vertex 5.2 -20.0 18.8
vertex 5.28518543427733 -19.3529523872437 17.9
vertex 5.28518543427733 -19.3529523872437 18.8
endloop
endfacet
facet normal 0.107481842980092 1.17983433226238e-15 0.994207047565849
outer loop
vertex 12.0301270189222 -17.5 19.5318781601165
vertex 7.7 -14.5 20.0
vertex 7.7 -15.0 20.0
endloop
endfacet
facet normal 0.107481842980092 1.17983433226238e-15 0.994207047565849
outer loop
vertex 7.7 -14.5 20.0
vertex 12.0301270189222 -17.5 19.5318781601165
vertex 18.8 -14.5 18.8
endloop
endfacet
facet normal 0.107481842980092 1.17983433226238e-15 0.994207047565849
outer loop
vertex 18.8 -14.5 18.8
vertex 12.0301270189222 -17.5 19.5318781601165
vertex 18.8 -15.0 18.8
endloop
endfacet
facet normal -0.866025403784438 -0.5 1.15239402076825e-15
outer loop
vertex 9.8650635094611 -18.75 18.8
vertex 10.1148145657227 -19.3529523872437 17.9
vertex 10.1148145657227 -19.3529523872437 18.8
endloop
endfacet
facet normal -0.965925826289068 -0.258819045102521 1.28532851560348e-15
outer loop
vertex 10.1148145657227 -19.3529523872437 17.9
vertex 9.8650635094611 -18.75 18.8
vertex 9.8650635094611 -18.75 17.9
endloop
endfacet
facet normal 1.0 1.40998324127395e-16 -1.44980756308469e-32
outer loop
vertex 3.3698729810778 -17.5 18.8
vertex 3.3698729810778 -22.5 19.5318781601165
vertex 3.3698729810778 -22.5 18.8
endloop
endfacet
facet normal 1.0 1.40998324127395e-16 -1.44980756308469e-32
outer loop
vertex 3.3698729810778 -22.5 19.5318781601165
vertex 3.3698729810778 -17.5 18.8
vertex 3.3698729810778 -17.5 19.5318781601165
endloop
endfacet
facet normal 4.39693709873075e-16 -0.866025403784438 0.5
outer loop
vertex -2.0 -7.49999999999999 7.7
vertex -3.39999999999998 -8.74999999999999 5.5349364905389
vertex -2.0 -8.74999999999999 5.5349364905389
endloop
endfacet
facet normal 4.39693709873075e-16 -0.866025403784438 0.5
outer loop
vertex -3.39999999999998 -8.74999999999999 5.5349364905389
vertex -2.0 -7.49999999999999 7.7
vertex -3.39999999999998 -7.49999999999999 7.7
endloop
endfacet
facet normal 3.29696770445804e-16 0.866025403784438 0.5
outer loop
vertex 18.8 -12.5 3.36987298107781
vertex 20.0 -15.0 7.7
vertex 19.5318781601165 -12.5 3.36987298107781
endloop
endfacet
facet normal 3.29696770445804e-16 0.866025403784438 0.5
outer loop
vertex 20.0 -15.0 7.7
vertex 18.8 -12.5 3.36987298107781
vertex 18.8 -15.0 7.7
endloop
endfacet
facet normal 1.44560036356696e-15 -3.28996089630588e-16 1.0
outer loop
vertex 19.5318781601165 -12.5 3.36987298107781
vertex 18.8 -7.49999999999999 3.36987298107781
vertex 18.8 -12.5 3.36987298107781
endloop
endfacet
facet normal 1.44560036356696e-15 -3.28996089630588e-16 1.0
outer loop
vertex 18.8 -7.49999999999999 3.36987298107781
vertex 19.5318781601165 -12.5 3.36987298107781
vertex 19.5318781601165 -7.49999999999999 3.36987298107781
endloop
endfacet
facet normal 0.0 0.0 -1.0
outer loop
vertex 17.4 -8.74999999999999 9.8650635094611
vertex 18.8 -11.25 9.8650635094611
vertex 17.4 -11.25 9.8650635094611
endloop
endfacet
facet normal 0.0 0.0 -1.0
outer loop
vertex 18.8 -11.25 9.8650635094611
vertex 17.4 -8.74999999999999 9.8650635094611
vertex 18.8 -8.74999999999999 9.8650635094611
endloop
endfacet
facet normal 4.32693431482718e-16 -0.866025403784438 -0.5
outer loop
vertex -2.0 -8.74999999999999 9.8650635094611
vertex -3.39999999999998 -7.49999999999999 7.7
vertex -2.0 -7.49999999999999 7.7
endloop
endfacet
facet normal 4.32693431482718e-16 -0.866025403784438 -0.5
outer loop
vertex -3.39999999999998 -7.49999999999999 7.7
vertex -2.0 -8.74999999999999 9.8650635094611
vertex -3.39999999999998 -8.74999999999999 9.8650635094611
endloop
endfacet
facet normal -0.0 0.866025403784439 -0.5
outer loop
vertex -3.39999999999998 -11.25 9.8650635094611
vertex -2.0 -12.5 7.7
vertex -3.39999999999998 -12.5 7.7
endloop
endfacet
facet normal -0.0 0.866025403784439 -0.5
outer loop
vertex -2.0 -12.5 7.7
vertex -3.39999999999998 -11.25 9.8650635094611
vertex -2.0 -11.25 9.8650635094611
endloop
endfacet
facet normal 0.0 0.0 -1.0
outer loop
vertex -2.0 -8.74999999999999 9.8650635094611
vertex -3.39999999999998 -11.25 9.8650635094611
vertex -3.39999999999998 -8.74999999999999 9.8650635094611
endloop
endfacet
facet normal 0.0 0.0 -1.0
outer loop
vertex -3.39999999999998 -11.25 9.8650635094611
vertex -2.0 -8.74999999999999 9.8650635094611
vertex -2.0 -11.25 9.8650635094611
endloop
endfacet
facet normal -1.90606405735193e-16 0.382683432365091 0.923879532511286
outer loop
vertex -3.39999999999998 -13.0 2.50384757729337
vertex -3.97345351808277 -11.5529142706151 1.90444504226559
vertex -4.03825379213982 -13.0 2.50384757729337
endloop
endfacet
facet normal -1.90606405735193e-16 0.382683432365091 0.923879532511286
outer loop
vertex -3.97345351808277 -11.5529142706151 1.90444504226559
vertex -3.39999999999998 -13.0 2.50384757729337
vertex -3.39999999999998 -11.5529142706151 1.90444504226559
endloop
endfacet
endsolid Dev Build
