solid Endstop Holder
facet normal -0.142205261995824 0.98983719038067 1.40512821260372e-15
outer loop
vertex 3.7971981138846 22.8284023095274 2.25597318603832e-14
vertex 5.74282872188013 23.1079219245165 10.0
vertex 5.74282872188003 23.1079219245165 1.12798659301916e-14
endloop
endfacet
facet normal -0.142205261995824 0.98983719038067 1.40512821260372e-15
outer loop
vertex 5.74282872188013 23.1079219245165 10.0
vertex 3.7971981138846 22.8284023095274 2.25597318603832e-14
vertex 3.7971981138847 22.8284023095274 10.0
endloop
endfacet
facet normal 0.725952683905828 -0.687744647910781 -2.97619678308177e-15
outer loop
vertex 12.9791493424628 -10.5114322068699 -3.44708165472579e-14
vertex 29.4850208923215 6.91143220686994 10.0
vertex 12.9791493424628 -10.5114322068699 9.99999999999996
endloop
endfacet
facet normal 0.725952683905828 -0.687744647910781 -2.97619678308177e-15
outer loop
vertex 29.4850208923215 6.91143220686994 10.0
vertex 12.9791493424628 -10.5114322068699 -3.44708165472579e-14
vertex 29.4850208923215 6.91143220686998 1.19110846868747e-14
endloop
endfacet
facet normal -7.94511965645618e-16 1.36516623204819e-15 -1.0
outer loop
vertex 1.87068079589993 22.4383501316877 3.38395977905748e-14
vertex -2.03742578364086e-13 19.4320851173922 3.38395977905748e-14
vertex -0.0304490694929235 21.9390356888328 4.51194637207663e-14
endloop
endfacet
facet normal -7.94511965645618e-16 1.36516623204819e-15 -1.0
outer loop
vertex -2.03742578364086e-13 19.4320851173922 3.38395977905748e-14
vertex 1.87068079589993 22.4383501316877 3.38395977905748e-14
vertex 19.3320851173921 19.4320851173922 3.38395977905748e-14
endloop
endfacet
facet normal -7.94511965645618e-16 1.36516623204819e-15 -1.0
outer loop
vertex 19.3320851173921 19.4320851173922 3.38395977905748e-14
vertex 1.87068079589993 22.4383501316877 3.38395977905748e-14
vertex 3.7971981138846 22.8284023095274 2.25597318603832e-14
endloop
endfacet
facet normal -7.94511965645618e-16 1.36516623204819e-15 -1.0
outer loop
vertex 19.3320851173921 19.4320851173922 3.38395977905748e-14
vertex 3.7971981138846 22.8284023095274 2.25597318603832e-14
vertex 5.74282872188003 23.1079219245165 1.12798659301916e-14
endloop
endfacet
facet normal -7.94511965645618e-16 1.36516623204819e-15 -1.0
outer loop
vertex 19.3320851173921 19.4320851173922 3.38395977905748e-14
vertex 5.74282872188003 23.1079219245165 1.12798659301916e-14
vertex 7.7012362103231 23.2759986544416 5.63993296509579e-15
endloop
endfacet
facet normal -7.94511965645618e-16 1.36516623204819e-15 -1.0
outer loop
vertex 19.3320851173921 19.4320851173922 3.38395977905748e-14
vertex 7.7012362103231 23.2759986544416 5.63993296509579e-15
vertex 9.66604255869605 23.3320851173925 0.0
endloop
endfacet
facet normal -7.94511965645618e-16 1.36516623204819e-15 -1.0
outer loop
vertex 19.3320851173921 19.4320851173922 3.38395977905748e-14
vertex 9.66604255869605 23.3320851173925 0.0
vertex 11.6308489070688 23.2759986544416 5.63993296509579e-15
endloop
endfacet
facet normal -7.94511965645618e-16 1.36516623204819e-15 -1.0
outer loop
vertex 19.3320851173921 19.4320851173922 3.38395977905748e-14
vertex 11.6308489070688 23.2759986544416 5.63993296509579e-15
vertex 13.5892563955119 23.1079219245165 1.12798659301916e-14
endloop
endfacet
facet normal -7.94511965645618e-16 1.36516623204819e-15 -1.0
outer loop
vertex 19.3320851173921 19.4320851173922 3.38395977905748e-14
vertex 13.5892563955119 23.1079219245165 1.12798659301916e-14
vertex 15.5348870035073 22.8284023095274 2.25597318603832e-14
endloop
endfacet
facet normal -7.94511965645618e-16 1.36516623204819e-15 -1.0
outer loop
vertex 19.3320851173921 19.4320851173922 3.38395977905748e-14
vertex 15.5348870035073 22.8284023095274 2.25597318603832e-14
vertex 17.461404321492 22.4383501316877 3.38395977905748e-14
endloop
endfacet
facet normal -7.94511965645618e-16 1.36516623204819e-15 -1.0
outer loop
vertex 19.3320851173921 19.4320851173922 3.38395977905748e-14
vertex 17.461404321492 22.4383501316877 3.38395977905748e-14
vertex 19.3625341868849 21.9390356888328 4.51194637207663e-14
endloop
endfacet
facet normal -7.94511965645618e-16 1.36516623204819e-15 -1.0
outer loop
vertex 19.3320851173921 19.4320851173922 3.38395977905748e-14
vertex 19.3625341868849 21.9390356888328 4.51194637207663e-14
vertex 19.3320851173921 1.40998324127395e-14 5.63993296509579e-14
endloop
endfacet
facet normal -7.94511965645618e-16 1.36516623204819e-15 -1.0
outer loop
vertex -3.67583680712401 7.80443564028816 4.22994972382185e-14
vertex -3.39631719213496 3.89719811388481 2.8199664825479e-14
vertex -3.67583680712406 5.84282872188023 3.38395977905748e-14
endloop
endfacet
facet normal -7.94511965645618e-16 1.36516623204819e-15 -1.0
outer loop
vertex -3.39631719213496 3.89719811388481 2.8199664825479e-14
vertex -3.67583680712401 7.80443564028816 4.22994972382185e-14
vertex -3.675836807124 11.727649477104 5.07593966858621e-14
endloop
endfacet
facet normal -7.94511965645618e-16 1.36516623204819e-15 -1.0
outer loop
vertex -3.39631719213496 3.89719811388481 2.8199664825479e-14
vertex -3.675836807124 11.727649477104 5.07593966858621e-14
vertex -3.39631719213497 15.6348870035074 5.07593966858621e-14
endloop
endfacet
facet normal -7.94511965645618e-16 1.36516623204819e-15 -1.0
outer loop
vertex -3.39631719213496 3.89719811388481 2.8199664825479e-14
vertex -3.39631719213497 15.6348870035074 5.07593966858621e-14
vertex -3.00626501429527 17.561404321492 5.07593966858621e-14
endloop
endfacet
facet normal -7.94511965645618e-16 1.36516623204819e-15 -1.0
outer loop
vertex -3.39631719213496 3.89719811388481 2.8199664825479e-14
vertex -3.00626501429527 17.561404321492 5.07593966858621e-14
vertex -3.00626501429526 1.97068079590016 1.69197988952874e-14
endloop
endfacet
facet normal -7.94511965645618e-16 1.36516623204819e-15 -1.0
outer loop
vertex -3.00626501429526 1.97068079590016 1.69197988952874e-14
vertex -3.00626501429527 17.561404321492 5.07593966858621e-14
vertex -2.50695057144034 19.4625341868849 5.07593966858621e-14
endloop
endfacet
facet normal -7.94511965645618e-16 1.36516623204819e-15 -1.0
outer loop
vertex -3.00626501429526 1.97068079590016 1.69197988952874e-14
vertex -2.50695057144034 19.4625341868849 5.07593966858621e-14
vertex -2.50695057144033 0.0695509305072744 5.63993296509579e-15
endloop
endfacet
facet normal -7.94511965645618e-16 1.36516623204819e-15 -1.0
outer loop
vertex -2.50695057144033 0.0695509305072744 5.63993296509579e-15
vertex -2.50695057144034 19.4625341868849 5.07593966858621e-14
vertex -1.90000000000019 21.3320851173922 6.76791955811495e-14
endloop
endfacet
facet normal -7.94511965645618e-16 1.36516623204819e-15 -1.0
outer loop
vertex -2.50695057144033 0.0695509305072744 5.63993296509579e-15
vertex -1.90000000000019 21.3320851173922 6.76791955811495e-14
vertex -1.90000000000019 -1.79999999999996 -1.12798659301916e-14
endloop
endfacet
facet normal -7.94511965645618e-16 1.36516623204819e-15 -1.0
outer loop
vertex -1.90000000000019 -1.79999999999996 -1.12798659301916e-14
vertex -1.90000000000019 21.3320851173922 6.76791955811495e-14
vertex -0.0304490694929235 21.9390356888328 4.51194637207663e-14
endloop
endfacet
facet normal -7.94511965645618e-16 1.36516623204819e-15 -1.0
outer loop
vertex -1.90000000000019 -1.79999999999996 -1.12798659301916e-14
vertex -0.0304490694929235 21.9390356888328 4.51194637207663e-14
vertex -0.0304490694929263 -2.40695057144028 0.0
endloop
endfacet
facet normal -7.94511965645618e-16 1.36516623204819e-15 -1.0
outer loop
vertex -0.0304490694929263 -2.40695057144028 0.0
vertex -0.0304490694929235 21.9390356888328 4.51194637207663e-14
vertex -2.03742578364086e-13 1.69197988952874e-14 5.63993296509579e-14
endloop
endfacet
facet normal -7.94511965645618e-16 1.36516623204819e-15 -1.0
outer loop
vertex -0.0304490694929263 -2.40695057144028 0.0
vertex -2.03742578364086e-13 1.69197988952874e-14 5.63993296509579e-14
vertex 1.87068079589994 -2.9062650142952 -1.12798659301916e-14
endloop
endfacet
facet normal -7.94511965645618e-16 1.36516623204819e-15 -1.0
outer loop
vertex -2.03742578364086e-13 1.69197988952874e-14 5.63993296509579e-14
vertex -0.0304490694929235 21.9390356888328 4.51194637207663e-14
vertex -2.03742578364086e-13 19.4320851173922 3.38395977905748e-14
endloop
endfacet
facet normal -7.94511965645618e-16 1.36516623204819e-15 -1.0
outer loop
vertex -2.03742578364086e-13 1.69197988952874e-14 5.63993296509579e-14
vertex -2.03742578364086e-13 19.4320851173922 3.38395977905748e-14
vertex -2.03742578364086e-13 9.71604255869609 4.51194637207663e-14
endloop
endfacet
facet normal -7.94511965645618e-16 1.36516623204819e-15 -1.0
outer loop
vertex 1.87068079589994 -2.9062650142952 -1.12798659301916e-14
vertex -2.03742578364086e-13 1.69197988952874e-14 5.63993296509579e-14
vertex 19.3320851173921 1.40998324127395e-14 5.63993296509579e-14
endloop
endfacet
facet normal -7.94511965645618e-16 1.36516623204819e-15 -1.0
outer loop
vertex 1.87068079589994 -2.9062650142952 -1.12798659301916e-14
vertex 19.3320851173921 1.40998324127395e-14 5.63993296509579e-14
vertex 12.9791493424628 -10.5114322068699 -3.44708165472579e-14
endloop
endfacet
facet normal -7.94511965645618e-16 1.36516623204819e-15 -1.0
outer loop
vertex 12.9791493424628 -10.5114322068699 -3.44708165472579e-14
vertex 19.3320851173921 1.40998324127395e-14 5.63993296509579e-14
vertex 29.4850208923215 6.91143220686998 1.19110846868747e-14
endloop
endfacet
facet normal -7.94511965645618e-16 1.36516623204819e-15 -1.0
outer loop
vertex 29.4850208923215 6.91143220686998 1.19110846868747e-14
vertex 19.3320851173921 1.40998324127395e-14 5.63993296509579e-14
vertex 19.3625341868849 21.9390356888328 4.51194637207663e-14
endloop
endfacet
facet normal -7.94511965645618e-16 1.36516623204819e-15 -1.0
outer loop
vertex 29.4850208923215 6.91143220686998 1.19110846868747e-14
vertex 19.3625341868849 21.9390356888328 4.51194637207663e-14
vertex 22.3383501316872 17.561404321492 5.07593966858621e-14
endloop
endfacet
facet normal -7.94511965645618e-16 1.36516623204819e-15 -1.0
outer loop
vertex 22.3383501316872 17.561404321492 5.07593966858621e-14
vertex 19.3625341868849 21.9390356888328 4.51194637207663e-14
vertex 21.2320851173921 21.3320851173922 6.76791955811495e-14
endloop
endfacet
facet normal -7.94511965645618e-16 1.36516623204819e-15 -1.0
outer loop
vertex 22.3383501316872 17.561404321492 5.07593966858621e-14
vertex 21.2320851173921 21.3320851173922 6.76791955811495e-14
vertex 21.8390356888323 19.4625341868849 5.07593966858621e-14
endloop
endfacet
facet normal -7.94511965645618e-16 1.36516623204819e-15 -1.0
outer loop
vertex 29.4850208923215 6.91143220686998 1.19110846868747e-14
vertex 22.3383501316872 17.561404321492 5.07593966858621e-14
vertex 37.7716442734896 0.904069948627403 -3.51007670367763e-14
endloop
endfacet
facet normal -7.94511965645618e-16 1.36516623204819e-15 -1.0
outer loop
vertex 29.4850208923215 6.91143220686998 1.19110846868747e-14
vertex 37.7716442734896 0.904069948627403 -3.51007670367763e-14
vertex 35.0121111736148 1.12772465699912 -2.12392699335367e-14
endloop
endfacet
facet normal -7.94511965645618e-16 1.36516623204819e-15 -1.0
outer loop
vertex 12.9791493424628 -10.5114322068699 -3.44708165472579e-14
vertex 18.8147691937532 -18.8747692331296 -5.76078259871467e-14
vertex 1.87068079589994 -2.9062650142952 -1.12798659301916e-14
endloop
endfacet
facet normal -7.94511965645618e-16 1.36516623204819e-15 -1.0
outer loop
vertex 18.8147691937532 -18.8747692331296 -5.76078259871467e-14
vertex 12.9791493424628 -10.5114322068699 -3.44708165472579e-14
vertex 18.7547407366431 -16.0470030037679 -5.2980424099169e-14
endloop
endfacet
facet normal -7.94511965645618e-16 1.36516623204819e-15 -1.0
outer loop
vertex 18.8147691937532 -18.8747692331296 -5.76078259871467e-14
vertex 18.7547407366431 -16.0470030037679 -5.2980424099169e-14
vertex 35.0121111736148 1.12772465699912 -2.12392699335367e-14
endloop
endfacet
facet normal -7.94511965645618e-16 1.36516623204819e-15 -1.0
outer loop
vertex 18.8147691937532 -18.8747692331296 -5.76078259871467e-14
vertex 35.0121111736148 1.12772465699912 -2.12392699335367e-14
vertex 37.7716442734896 0.904069948627403 -3.51007670367763e-14
endloop
endfacet
facet normal -7.94511965645618e-16 1.36516623204819e-15 -1.0
outer loop
vertex -3.39631719213497 15.6348870035074 5.07593966858621e-14
vertex -3.675836807124 11.727649477104 5.07593966858621e-14
vertex -3.67583680712404 13.6892563955119 5.07593966858621e-14
endloop
endfacet
facet normal 0.308785360317526 0.951131747579469 3.65417844991654e-15
outer loop
vertex 19.3625341868848 21.9390356888328 10.0
vertex 21.2320851173921 21.3320851173922 6.76791955811495e-14
vertex 19.3625341868849 21.9390356888328 4.51194637207663e-14
endloop
endfacet
facet normal 0.308785360317526 0.951131747579469 3.65417844991654e-15
outer loop
vertex 21.2320851173921 21.3320851173922 6.76791955811495e-14
vertex 19.3625341868848 21.9390356888328 10.0
vertex 21.232085117392 21.3320851173922 10.0000000000001
endloop
endfacet
facet normal 0.254025611645397 0.967197492050192 3.20449529140868e-15
outer loop
vertex 17.4614043214919 22.4383501316877 10.0
vertex 19.3625341868849 21.9390356888328 4.51194637207663e-14
vertex 17.461404321492 22.4383501316877 3.38395977905748e-14
endloop
endfacet
facet normal 0.254025611645397 0.967197492050192 3.20449529140868e-15
outer loop
vertex 19.3625341868849 21.9390356888328 4.51194637207663e-14
vertex 17.4614043214919 22.4383501316877 10.0
vertex 19.3625341868848 21.9390356888328 10.0
endloop
endfacet
facet normal 0.967197492050196 0.254025611645382 9.54731904927374e-15
outer loop
vertex 21.8390356888323 19.4625341868849 5.07593966858621e-14
vertex 22.3383501316871 17.561404321492 10.0
vertex 22.3383501316872 17.561404321492 5.07593966858621e-14
endloop
endfacet
facet normal 0.967197492050196 0.254025611645382 9.54731904927374e-15
outer loop
vertex 22.3383501316871 17.561404321492 10.0
vertex 21.8390356888323 19.4625341868849 5.07593966858621e-14
vertex 21.8390356888322 19.4625341868849 10.0
endloop
endfacet
facet normal 0.951131747579536 0.308785360317321 8.44175822853793e-15
outer loop
vertex 21.2320851173921 21.3320851173922 6.76791955811495e-14
vertex 21.8390356888322 19.4625341868849 10.0
vertex 21.8390356888323 19.4625341868849 5.07593966858621e-14
endloop
endfacet
facet normal 0.951131747579536 0.308785360317321 8.44175822853793e-15
outer loop
vertex 21.8390356888322 19.4625341868849 10.0
vertex 21.2320851173921 21.3320851173922 6.76791955811495e-14
vertex 21.232085117392 21.3320851173922 10.0000000000001
endloop
endfacet
facet normal 0.0285339193768551 0.999592824826687 2.41377216178805e-16
outer loop
vertex 9.66604255869597 23.3320851173925 10.0
vertex 11.6308489070688 23.2759986544416 5.63993296509579e-15
vertex 9.66604255869605 23.3320851173925 0.0
endloop
endfacet
facet normal 0.0285339193768551 0.999592824826687 2.41377216178805e-16
outer loop
vertex 11.6308489070688 23.2759986544416 5.63993296509579e-15
vertex 9.66604255869597 23.3320851173925 10.0
vertex 11.6308489070687 23.2759986544416 10.0
endloop
endfacet
facet normal 0.0855088306247649 0.996337412669616 1.79885166316649e-15
outer loop
vertex 11.6308489070687 23.2759986544416 10.0
vertex 13.5892563955119 23.1079219245165 1.12798659301916e-14
vertex 11.6308489070688 23.2759986544416 5.63993296509579e-15
endloop
endfacet
facet normal 0.0855088306247649 0.996337412669616 1.79885166316649e-15
outer loop
vertex 13.5892563955119 23.1079219245165 1.12798659301916e-14
vertex 11.6308489070687 23.2759986544416 10.0
vertex 13.5892563955118 23.1079219245165 10.0
endloop
endfacet
facet normal 0.142205261995824 0.98983719038067 2.27531885582859e-15
outer loop
vertex 13.5892563955118 23.1079219245165 10.0
vertex 15.5348870035073 22.8284023095274 2.25597318603832e-14
vertex 13.5892563955119 23.1079219245165 1.12798659301916e-14
endloop
endfacet
facet normal 0.142205261995824 0.98983719038067 2.27531885582859e-15
outer loop
vertex 15.5348870035073 22.8284023095274 2.25597318603832e-14
vertex 13.5892563955118 23.1079219245165 10.0
vertex 15.5348870035072 22.8284023095274 10.0
endloop
endfacet
facet normal 0.19843856805505 0.980113327482216 2.74437593061017e-15
outer loop
vertex 15.5348870035072 22.8284023095274 10.0
vertex 17.461404321492 22.4383501316877 3.38395977905748e-14
vertex 15.5348870035073 22.8284023095274 2.25597318603832e-14
endloop
endfacet
facet normal 0.19843856805505 0.980113327482216 2.74437593061017e-15
outer loop
vertex 17.461404321492 22.4383501316877 3.38395977905748e-14
vertex 15.5348870035072 22.8284023095274 10.0
vertex 17.4614043214919 22.4383501316877 10.0
endloop
endfacet
facet normal -0.0855088306247652 0.996337412669616 7.83964057589779e-16
outer loop
vertex 5.74282872188003 23.1079219245165 1.12798659301916e-14
vertex 7.70123621032319 23.2759986544416 10.0
vertex 7.7012362103231 23.2759986544416 5.63993296509579e-15
endloop
endfacet
facet normal -0.0855088306247652 0.996337412669616 7.83964057589779e-16
outer loop
vertex 7.70123621032319 23.2759986544416 10.0
vertex 5.74282872188003 23.1079219245165 1.12798659301916e-14
vertex 5.74282872188013 23.1079219245165 10.0
endloop
endfacet
facet normal 0.733544692584501 0.679641217099956 4.22223238912935e-15
outer loop
vertex 37.7716442734896 0.904069948627403 -3.51007670367763e-14
vertex 22.3383501316871 17.561404321492 10.0
vertex 37.7716442734896 0.904069948627366 9.99999999999996
endloop
endfacet
facet normal 0.733544692584501 0.679641217099956 4.22223238912935e-15
outer loop
vertex 22.3383501316871 17.561404321492 10.0
vertex 37.7716442734896 0.904069948627403 -3.51007670367763e-14
vertex 22.3383501316872 17.561404321492 5.07593966858621e-14
endloop
endfacet
facet normal -0.685845720312035 -0.727746966966999 2.02345523718928e-15
outer loop
vertex 18.8147691937532 -18.8747692331296 9.99999999999994
vertex 1.87068079589994 -2.9062650142952 -1.12798659301916e-14
vertex 18.8147691937532 -18.8747692331296 -5.76078259871467e-14
endloop
endfacet
facet normal -0.685845720312035 -0.727746966966999 2.02345523718928e-15
outer loop
vertex 1.87068079589994 -2.9062650142952 -1.12798659301916e-14
vertex 18.8147691937532 -18.8747692331296 9.99999999999994
vertex 1.87068079590004 -2.90626501429521 9.99999999999999
endloop
endfacet
facet normal -0.726236029889503 0.687445437027793 3.71819552035194e-15
outer loop
vertex 35.0121111736148 1.12772465699908 9.99999999999998
vertex 18.7547407366431 -16.0470030037679 -5.2980424099169e-14
vertex 18.7547407366431 -16.047003003768 9.99999999999994
endloop
endfacet
facet normal -0.726236029889503 0.687445437027793 3.71819552035194e-15
outer loop
vertex 18.7547407366431 -16.0470030037679 -5.2980424099169e-14
vertex 35.0121111736148 1.12772465699908 9.99999999999998
vertex 35.0121111736148 1.12772465699912 -2.12392699335367e-14
endloop
endfacet
facet normal 0.721948924272538 -0.691946349612255 -3.72738277867992e-15
outer loop
vertex 18.8147691937532 -18.8747692331296 -5.76078259871467e-14
vertex 37.7716442734896 0.904069948627366 9.99999999999996
vertex 18.8147691937532 -18.8747692331296 9.99999999999994
endloop
endfacet
facet normal 0.721948924272538 -0.691946349612255 -3.72738277867992e-15
outer loop
vertex 37.7716442734896 0.904069948627366 9.99999999999996
vertex 18.8147691937532 -18.8747692331296 -5.76078259871467e-14
vertex 37.7716442734896 0.904069948627403 -3.51007670367763e-14
endloop
endfacet
facet normal -0.722963443733857 -0.690886285161662 -1.30145210609377e-15
outer loop
vertex 29.4850208923215 6.91143220686994 10.0
vertex 35.0121111736148 1.12772465699912 -2.12392699335367e-14
vertex 35.0121111736148 1.12772465699908 9.99999999999998
endloop
endfacet
facet normal -0.722963443733857 -0.690886285161662 -1.30145210609377e-15
outer loop
vertex 35.0121111736148 1.12772465699912 -2.12392699335367e-14
vertex 29.4850208923215 6.91143220686994 10.0
vertex 29.4850208923215 6.91143220686998 1.19110846868747e-14
endloop
endfacet
facet normal 0.691946349612255 0.721948924272538 2.02068032311509e-15
outer loop
vertex 12.9791493424628 -10.5114322068699 -3.44708165472579e-14
vertex 18.7547407366431 -16.047003003768 9.99999999999994
vertex 18.7547407366431 -16.0470030037679 -5.2980424099169e-14
endloop
endfacet
facet normal 0.691946349612255 0.721948924272538 2.02068032311509e-15
outer loop
vertex 18.7547407366431 -16.047003003768 9.99999999999994
vertex 12.9791493424628 -10.5114322068699 -3.44708165472579e-14
vertex 12.9791493424628 -10.5114322068699 9.99999999999996
endloop
endfacet
facet normal -5.15846320473878e-15 -0.866025403784439 -0.499999999999999
outer loop
vertex -1.24783516852744e-13 11.3160425586961 7.77128129211025
vertex -3.00000000000015 12.9160425586961 5.00000000000007
vertex -1.52983181678223e-13 12.9160425586961 5.00000000000004
endloop
endfacet
facet normal -5.15846320473878e-15 -0.866025403784439 -0.499999999999999
outer loop
vertex -3.00000000000015 12.9160425586961 5.00000000000007
vertex -1.24783516852744e-13 11.3160425586961 7.77128129211025
vertex -3.00000000000012 11.3160425586961 7.77128129211029
endloop
endfacet
facet normal -1.31598435852235e-14 -8.81239525796221e-16 -1.0
outer loop
vertex -1.24783516852744e-13 9.71604255869609 7.77128129211025
vertex -3.00000000000012 8.11604255869609 7.77128129211029
vertex -3.00000000000012 9.71604255869609 7.77128129211029
endloop
endfacet
facet normal -1.31598435852235e-14 -8.81239525796221e-16 -1.0
outer loop
vertex -3.00000000000012 8.11604255869609 7.77128129211029
vertex -1.24783516852744e-13 9.71604255869609 7.77128129211025
vertex -1.24783516852744e-13 8.11604255869609 7.77128129211025
endloop
endfacet
facet normal -1.31598435852235e-14 0.0 -1.0
outer loop
vertex -1.24783516852744e-13 11.3160425586961 7.77128129211025
vertex -3.00000000000012 9.71604255869609 7.77128129211029
vertex -3.00000000000012 11.3160425586961 7.77128129211029
endloop
endfacet
facet normal -1.31598435852235e-14 0.0 -1.0
outer loop
vertex -3.00000000000012 9.71604255869609 7.77128129211029
vertex -1.24783516852744e-13 11.3160425586961 7.77128129211025
vertex -1.24783516852744e-13 9.71604255869609 7.77128129211025
endloop
endfacet
facet normal 1.05748743095546e-14 4.4061976289811e-16 1.0
outer loop
vertex -1.81182846503702e-13 9.71604255869609 2.22871870788984
vertex -3.00000000000018 11.3160425586961 2.22871870788987
vertex -3.00000000000018 9.71604255869609 2.22871870788987
endloop
endfacet
facet normal 1.05748743095546e-14 4.4061976289811e-16 1.0
outer loop
vertex -3.00000000000018 11.3160425586961 2.22871870788987
vertex -1.81182846503702e-13 9.71604255869609 2.22871870788984
vertex -1.81182846503702e-13 11.3160425586961 2.22871870788984
endloop
endfacet
facet normal 1.05748743095546e-14 0.0 1.0
outer loop
vertex -1.81182846503702e-13 8.11604255869609 2.22871870788984
vertex -3.00000000000018 9.71604255869609 2.22871870788987
vertex -3.00000000000018 8.11604255869609 2.22871870788987
endloop
endfacet
facet normal 1.05748743095546e-14 0.0 1.0
outer loop
vertex -3.00000000000018 9.71604255869609 2.22871870788987
vertex -1.81182846503702e-13 8.11604255869609 2.22871870788984
vertex -1.81182846503702e-13 9.71604255869609 2.22871870788984
endloop
endfacet
facet normal 4.5211556754581e-15 0.866025403784438 0.500000000000001
outer loop
vertex -3.00000000000018 8.11604255869609 2.22871870788987
vertex -1.52983181678223e-13 6.51604255869609 5.00000000000004
vertex -1.81182846503702e-13 8.11604255869609 2.22871870788984
endloop
endfacet
facet normal 4.5211556754581e-15 0.866025403784438 0.500000000000001
outer loop
vertex -1.52983181678223e-13 6.51604255869609 5.00000000000004
vertex -3.00000000000018 8.11604255869609 2.22871870788987
vertex -3.00000000000015 6.51604255869609 5.00000000000007
endloop
endfacet
facet normal 1.0 -1.89232375753212e-30 -1.01756775487797e-14
outer loop
vertex -3.00000000000018 8.11604255869609 2.22871870788987
vertex -3.00000000000016 8.06604255869609 5.00000000000004
vertex -3.00000000000015 6.51604255869609 5.00000000000007
endloop
endfacet
facet normal 1.0 -1.89232375753212e-30 -1.01756775487797e-14
outer loop
vertex -3.00000000000016 8.06604255869609 5.00000000000004
vertex -3.00000000000018 8.11604255869609 2.22871870788987
vertex -3.00000000000017 8.91604255869609 3.5277568135665
endloop
endfacet
facet normal 1.0 -1.89232375753212e-30 -1.01756775487797e-14
outer loop
vertex -3.00000000000017 8.91604255869609 3.5277568135665
vertex -3.00000000000018 8.11604255869609 2.22871870788987
vertex -3.00000000000018 9.71604255869609 2.22871870788987
endloop
endfacet
facet normal 1.0 -1.89232375753212e-30 -1.01756775487797e-14
outer loop
vertex -3.00000000000017 8.91604255869609 3.5277568135665
vertex -3.00000000000018 9.71604255869609 2.22871870788987
vertex -3.00000000000018 9.76604255869609 3.5277568135665
endloop
endfacet
facet normal 1.0 -1.89232375753212e-30 -1.01756775487797e-14
outer loop
vertex -3.00000000000018 9.76604255869609 3.5277568135665
vertex -3.00000000000018 9.71604255869609 2.22871870788987
vertex -3.00000000000018 11.3160425586961 2.22871870788987
endloop
endfacet
facet normal 1.0 -1.89232375753212e-30 -1.01756775487797e-14
outer loop
vertex -3.00000000000018 9.76604255869609 3.5277568135665
vertex -3.00000000000018 11.3160425586961 2.22871870788987
vertex -3.00000000000019 10.6160425586961 3.5277568135665
endloop
endfacet
facet normal 1.0 -1.89232375753212e-30 -1.01756775487797e-14
outer loop
vertex -3.00000000000019 10.6160425586961 3.5277568135665
vertex -3.00000000000018 11.3160425586961 2.22871870788987
vertex -3.00000000000019 11.4660425586961 5.00000000000004
endloop
endfacet
facet normal 1.0 -1.89232375753212e-30 -1.01756775487797e-14
outer loop
vertex -3.00000000000019 11.4660425586961 5.00000000000004
vertex -3.00000000000018 11.3160425586961 2.22871870788987
vertex -3.00000000000015 12.9160425586961 5.00000000000007
endloop
endfacet
facet normal 1.0 -1.89232375753212e-30 -1.01756775487797e-14
outer loop
vertex -3.00000000000016 8.06604255869609 5.00000000000004
vertex -3.00000000000012 8.11604255869609 7.77128129211029
vertex -3.00000000000015 6.51604255869609 5.00000000000007
endloop
endfacet
facet normal 1.0 -1.89232375753212e-30 -1.01756775487797e-14
outer loop
vertex -3.00000000000012 8.11604255869609 7.77128129211029
vertex -3.00000000000016 8.06604255869609 5.00000000000004
vertex -3.00000000000016 8.91604255869609 6.47224318643359
endloop
endfacet
facet normal 1.0 -1.89232375753212e-30 -1.01756775487797e-14
outer loop
vertex -3.00000000000012 8.11604255869609 7.77128129211029
vertex -3.00000000000016 8.91604255869609 6.47224318643359
vertex -3.00000000000012 9.71604255869609 7.77128129211029
endloop
endfacet
facet normal 1.0 -1.89232375753212e-30 -1.01756775487797e-14
outer loop
vertex -3.00000000000012 9.71604255869609 7.77128129211029
vertex -3.00000000000016 8.91604255869609 6.47224318643359
vertex -3.00000000000017 9.76604255869609 6.47224318643359
endloop
endfacet
facet normal 1.0 -1.89232375753212e-30 -1.01756775487797e-14
outer loop
vertex -3.00000000000012 9.71604255869609 7.77128129211029
vertex -3.00000000000017 9.76604255869609 6.47224318643359
vertex -3.00000000000012 11.3160425586961 7.77128129211029
endloop
endfacet
facet normal 1.0 -1.89232375753212e-30 -1.01756775487797e-14
outer loop
vertex -3.00000000000012 11.3160425586961 7.77128129211029
vertex -3.00000000000017 9.76604255869609 6.47224318643359
vertex -3.00000000000017 10.6160425586961 6.47224318643359
endloop
endfacet
facet normal 1.0 -1.89232375753212e-30 -1.01756775487797e-14
outer loop
vertex -3.00000000000012 11.3160425586961 7.77128129211029
vertex -3.00000000000017 10.6160425586961 6.47224318643359
vertex -3.00000000000019 11.4660425586961 5.00000000000004
endloop
endfacet
facet normal 1.0 -1.89232375753212e-30 -1.01756775487797e-14
outer loop
vertex -3.00000000000012 11.3160425586961 7.77128129211029
vertex -3.00000000000019 11.4660425586961 5.00000000000004
vertex -3.00000000000015 12.9160425586961 5.00000000000007
endloop
endfacet
facet normal -0.980113327482213 -0.198438568055063 9.49853339385326e-15
outer loop
vertex -3.39631719213486 3.8971981138848 10.0
vertex -3.00626501429526 1.97068079590016 1.69197988952874e-14
vertex -3.00626501429516 1.97068079590014 10.0
endloop
endfacet
facet normal -0.980113327482213 -0.198438568055063 9.49853339385326e-15
outer loop
vertex -3.00626501429526 1.97068079590016 1.69197988952874e-14
vertex -3.39631719213486 3.8971981138848 10.0
vertex -3.39631719213496 3.89719811388481 2.8199664825479e-14
endloop
endfacet
facet normal -3.47152174495484e-15 0.866025403784437 -0.500000000000003
outer loop
vertex -5.27583680712399 13.6892563955119 5.00000000000006
vertex -3.67583680712399 13.6892563955119 5.00000000000005
vertex -5.27583680712399 11.727649477104 1.60239715283891
endloop
endfacet
facet normal -0.989837190380672 -0.142205261995814 9.69093370823892e-15
outer loop
vertex -3.67583680712396 5.84282872188023 10.0
vertex -3.39631719213496 3.89719811388481 2.8199664825479e-14
vertex -3.39631719213486 3.8971981138848 10.0
endloop
endfacet
facet normal -0.989837190380672 -0.142205261995814 9.69093370823892e-15
outer loop
vertex -3.39631719213496 3.89719811388481 2.8199664825479e-14
vertex -3.67583680712396 5.84282872188023 10.0
vertex -3.67583680712406 5.84282872188023 3.38395977905748e-14
endloop
endfacet
facet normal -0.989837190380672 -0.142205261995814 9.69093370823892e-15
outer loop
vertex -3.67583680712406 5.84282872188023 3.38395977905748e-14
vertex -3.67583680712396 5.84282872188023 10.0
vertex -3.67583680712391 5.84282872188023 5.00000000000004
endloop
endfacet
facet normal 9.94354139251364e-15 -0.866025403784438 -0.500000000000002
outer loop
vertex -3.00000000000017 10.6160425586961 6.47224318643359
vertex -5.27583680712397 11.4660425586961 5.00000000000006
vertex -3.00000000000019 11.4660425586961 5.00000000000004
endloop
endfacet
facet normal 9.94354139251364e-15 -0.866025403784438 -0.500000000000002
outer loop
vertex -5.27583680712397 11.4660425586961 5.00000000000006
vertex -3.00000000000017 10.6160425586961 6.47224318643359
vertex -5.27583680712395 10.6160425586961 6.47224318643359
endloop
endfacet
facet normal -0.308785360317526 0.951131747579469 3.04447194405971e-15
outer loop
vertex -1.90000000000019 21.3320851173922 6.76791955811495e-14
vertex -0.0304490694928248 21.9390356888328 10.0
vertex -0.0304490694929235 21.9390356888328 4.51194637207663e-14
endloop
endfacet
facet normal -0.308785360317526 0.951131747579469 3.04447194405971e-15
outer loop
vertex -0.0304490694928248 21.9390356888328 10.0
vertex -1.90000000000019 21.3320851173922 6.76791955811495e-14
vertex -1.90000000000009 21.3320851173922 10.0000000000001
endloop
endfacet
facet normal -1.0 2.73140162106972e-14 2.93276514184981e-14
outer loop
vertex -3.67583680712401 7.80443564028816 4.22994972382185e-14
vertex -3.67583680712406 5.84282872188023 3.38395977905748e-14
vertex -3.67583680712391 5.84282872188023 5.00000000000004
endloop
endfacet
facet normal 1.5742227136965e-14 -0.866025403784439 0.5
outer loop
vertex -3.00000000000019 11.4660425586961 5.00000000000004
vertex -5.27583680712397 10.6160425586961 3.52775681356651
vertex -3.00000000000019 10.6160425586961 3.5277568135665
endloop
endfacet
facet normal 1.5742227136965e-14 -0.866025403784439 0.5
outer loop
vertex -5.27583680712397 10.6160425586961 3.52775681356651
vertex -3.00000000000019 11.4660425586961 5.00000000000004
vertex -5.27583680712397 11.4660425586961 5.00000000000006
endloop
endfacet
facet normal -6.19544967750081e-16 -9.25222665102581e-30 -1.0
outer loop
vertex -3.00000000000017 9.76604255869609 6.47224318643359
vertex -5.27583680712393 8.91604255869606 6.47224318643359
vertex -5.27583680712395 9.76604255869606 6.47224318643359
endloop
endfacet
facet normal -6.19544967750081e-16 -9.25222665102581e-30 -1.0
outer loop
vertex -5.27583680712393 8.91604255869606 6.47224318643359
vertex -3.00000000000017 9.76604255869609 6.47224318643359
vertex -3.00000000000016 8.91604255869609 6.47224318643359
endloop
endfacet
facet normal -6.19544967750081e-16 -3.13417892521393e-30 -1.0
outer loop
vertex -3.00000000000017 10.6160425586961 6.47224318643359
vertex -5.27583680712395 9.76604255869606 6.47224318643359
vertex -5.27583680712395 10.6160425586961 6.47224318643359
endloop
endfacet
facet normal -6.19544967750081e-16 -3.13417892521393e-30 -1.0
outer loop
vertex -5.27583680712395 9.76604255869606 6.47224318643359
vertex -3.00000000000017 10.6160425586961 6.47224318643359
vertex -3.00000000000017 9.76604255869609 6.47224318643359
endloop
endfacet
facet normal 6.81499464525089e-15 6.79384343462649e-29 1.0
outer loop
vertex -3.00000000000017 8.91604255869609 3.5277568135665
vertex -5.27583680712395 9.76604255869606 3.52775681356651
vertex -5.27583680712395 8.91604255869606 3.52775681356651
endloop
endfacet
facet normal 6.81499464525089e-15 6.79384343462649e-29 1.0
outer loop
vertex -5.27583680712395 9.76604255869606 3.52775681356651
vertex -3.00000000000017 8.91604255869609 3.5277568135665
vertex -3.00000000000019 10.6160425586961 3.5277568135665
endloop
endfacet
facet normal 6.81499464525089e-15 6.79384343462649e-29 1.0
outer loop
vertex -3.00000000000019 10.6160425586961 3.5277568135665
vertex -3.00000000000017 8.91604255869609 3.5277568135665
vertex -3.00000000000018 9.76604255869609 3.5277568135665
endloop
endfacet
facet normal 6.81499464525089e-15 6.79384343462649e-29 1.0
outer loop
vertex -3.00000000000019 10.6160425586961 3.5277568135665
vertex -5.27583680712397 10.6160425586961 3.52775681356651
vertex -5.27583680712395 9.76604255869606 3.52775681356651
endloop
endfacet
facet normal -1.0 -2.30012768090083e-14 1.01518793371724e-14
outer loop
vertex -3.67583680712404 13.6892563955119 5.07593966858621e-14
vertex -3.675836807124 11.727649477104 5.07593966858621e-14
vertex -3.67583680712399 13.6892563955119 5.00000000000005
endloop
endfacet
facet normal -0.343510123147377 -0.87427362720696 0.34299623914215
outer loop
vertex -3.67583680712395 7.80443564028816 10.0
vertex -5.27583680712392 7.80443564028813 8.39760284716119
vertex -3.67583680712391 5.84282872188023 5.00000000000004
endloop
endfacet
facet normal 3.47152174495487e-15 0.866025403784434 0.500000000000007
outer loop
vertex -5.27583680712396 11.727649477104 8.39760284716119
vertex -3.67583680712399 13.6892563955119 5.00000000000005
vertex -5.27583680712399 13.6892563955119 5.00000000000006
endloop
endfacet
facet normal 1.0 -8.62259283369228e-17 -9.94174635243479e-15
outer loop
vertex -2.03742578364086e-13 1.69197988952874e-14 5.63993296509579e-14
vertex -1.81182846503702e-13 8.11604255869609 2.22871870788984
vertex -1.52983181678223e-13 6.51604255869609 5.00000000000004
endloop
endfacet
facet normal 1.0 -8.62259283369228e-17 -9.94174635243479e-15
outer loop
vertex -1.81182846503702e-13 8.11604255869609 2.22871870788984
vertex -2.03742578364086e-13 1.69197988952874e-14 5.63993296509579e-14
vertex -2.03742578364086e-13 9.71604255869609 4.51194637207663e-14
endloop
endfacet
facet normal 1.0 -8.62259283369228e-17 -9.94174635243479e-15
outer loop
vertex -1.81182846503702e-13 8.11604255869609 2.22871870788984
vertex -2.03742578364086e-13 9.71604255869609 4.51194637207663e-14
vertex -1.81182846503702e-13 9.71604255869609 2.22871870788984
endloop
endfacet
facet normal 1.0 -8.62259283369228e-17 -9.94174635243479e-15
outer loop
vertex -2.03742578364086e-13 1.69197988952874e-14 5.63993296509579e-14
vertex -1.05043751474909e-13 9.71604255869609 10.0
vertex -1.05043751474909e-13 5.63993296509579e-15 10.0000000000001
endloop
endfacet
facet normal 1.0 -8.62259283369228e-17 -9.94174635243479e-15
outer loop
vertex -1.05043751474909e-13 9.71604255869609 10.0
vertex -2.03742578364086e-13 1.69197988952874e-14 5.63993296509579e-14
vertex -1.24783516852744e-13 8.11604255869609 7.77128129211025
endloop
endfacet
facet normal 1.0 -8.62259283369228e-17 -9.94174635243479e-15
outer loop
vertex -1.24783516852744e-13 8.11604255869609 7.77128129211025
vertex -2.03742578364086e-13 1.69197988952874e-14 5.63993296509579e-14
vertex -1.52983181678223e-13 6.51604255869609 5.00000000000004
endloop
endfacet
facet normal 1.0 -8.62259283369228e-17 -9.94174635243479e-15
outer loop
vertex -1.05043751474909e-13 9.71604255869609 10.0
vertex -1.24783516852744e-13 8.11604255869609 7.77128129211025
vertex -1.24783516852744e-13 9.71604255869609 7.77128129211025
endloop
endfacet
facet normal -0.343510123147402 0.87427362720695 0.342996239142152
outer loop
vertex -3.67583680712395 11.727649477104 10.0
vertex -3.67583680712399 13.6892563955119 5.00000000000005
vertex -5.27583680712396 11.727649477104 8.39760284716119
endloop
endfacet
facet normal -0.25402561164538 -0.967197492050197 1.2979708999145e-15
outer loop
vertex 1.87068079590004 -2.90626501429521 9.99999999999999
vertex -0.0304490694929263 -2.40695057144028 0.0
vertex 1.87068079589994 -2.9062650142952 -1.12798659301916e-14
endloop
endfacet
facet normal -0.25402561164538 -0.967197492050197 1.2979708999145e-15
outer loop
vertex -0.0304490694929263 -2.40695057144028 0.0
vertex 1.87068079590004 -2.90626501429521 9.99999999999999
vertex -0.0304490694928276 -2.40695057144029 10.0
endloop
endfacet
facet normal -0.951131747579535 -0.308785360317323 9.03187380480207e-15
outer loop
vertex -2.50695057144024 0.0695509305072631 10.0
vertex -1.90000000000019 -1.79999999999996 -1.12798659301916e-14
vertex -1.90000000000009 -1.79999999999997 9.99999999999999
endloop
endfacet
facet normal -0.951131747579535 -0.308785360317323 9.03187380480207e-15
outer loop
vertex -1.90000000000019 -1.79999999999996 -1.12798659301916e-14
vertex -2.50695057144024 0.0695509305072631 10.0
vertex -2.50695057144033 0.0695509305072744 5.63993296509579e-15
endloop
endfacet
facet normal -0.308785360317399 -0.951131747579511 1.87013981241733e-15
outer loop
vertex -0.0304490694929263 -2.40695057144028 0.0
vertex -1.90000000000009 -1.79999999999997 9.99999999999999
vertex -1.90000000000019 -1.79999999999996 -1.12798659301916e-14
endloop
endfacet
facet normal -0.308785360317399 -0.951131747579511 1.87013981241733e-15
outer loop
vertex -1.90000000000009 -1.79999999999997 9.99999999999999
vertex -0.0304490694929263 -2.40695057144028 0.0
vertex -0.0304490694928276 -2.40695057144029 10.0
endloop
endfacet
facet normal 8.91252879695657e-16 -1.86026694724818e-15 1.0
outer loop
vertex 18.8147691937532 -18.8747692331296 9.99999999999994
vertex 12.9791493424628 -10.5114322068699 9.99999999999996
vertex 1.87068079590004 -2.90626501429521 9.99999999999999
endloop
endfacet
facet normal 8.91252879695657e-16 -1.86026694724818e-15 1.0
outer loop
vertex 12.9791493424628 -10.5114322068699 9.99999999999996
vertex 18.8147691937532 -18.8747692331296 9.99999999999994
vertex 18.7547407366431 -16.047003003768 9.99999999999994
endloop
endfacet
facet normal 8.91252879695657e-16 -1.86026694724818e-15 1.0
outer loop
vertex 18.7547407366431 -16.047003003768 9.99999999999994
vertex 18.8147691937532 -18.8747692331296 9.99999999999994
vertex 35.0121111736148 1.12772465699908 9.99999999999998
endloop
endfacet
facet normal 8.91252879695657e-16 -1.86026694724818e-15 1.0
outer loop
vertex 35.0121111736148 1.12772465699908 9.99999999999998
vertex 18.8147691937532 -18.8747692331296 9.99999999999994
vertex 37.7716442734896 0.904069948627366 9.99999999999996
endloop
endfacet
facet normal 8.91252879695657e-16 -1.86026694724818e-15 1.0
outer loop
vertex -3.39631719213486 3.8971981138848 10.0
vertex -3.67583680712395 7.80443564028816 10.0
vertex -3.67583680712396 5.84282872188023 10.0
endloop
endfacet
facet normal 8.91252879695657e-16 -1.86026694724818e-15 1.0
outer loop
vertex -3.67583680712395 7.80443564028816 10.0
vertex -3.39631719213486 3.8971981138848 10.0
vertex -3.67583680712395 11.727649477104 10.0
endloop
endfacet
facet normal 8.91252879695657e-16 -1.86026694724818e-15 1.0
outer loop
vertex -3.67583680712395 11.727649477104 10.0
vertex -3.39631719213486 3.8971981138848 10.0
vertex -3.67583680712394 13.6892563955119 10.0
endloop
endfacet
facet normal 8.91252879695657e-16 -1.86026694724818e-15 1.0
outer loop
vertex -3.67583680712394 13.6892563955119 10.0
vertex -3.39631719213486 3.8971981138848 10.0
vertex -3.39631719213487 15.6348870035074 10.0
endloop
endfacet
facet normal 8.91252879695657e-16 -1.86026694724818e-15 1.0
outer loop
vertex -3.39631719213487 15.6348870035074 10.0
vertex -3.39631719213486 3.8971981138848 10.0
vertex -3.00626501429517 17.561404321492 10.0
endloop
endfacet
facet normal 8.91252879695657e-16 -1.86026694724818e-15 1.0
outer loop
vertex -3.00626501429517 17.561404321492 10.0
vertex -3.39631719213486 3.8971981138848 10.0
vertex -3.00626501429516 1.97068079590014 10.0
endloop
endfacet
facet normal 8.91252879695657e-16 -1.86026694724818e-15 1.0
outer loop
vertex -3.00626501429517 17.561404321492 10.0
vertex -3.00626501429516 1.97068079590014 10.0
vertex -2.50695057144024 19.4625341868849 10.0
endloop
endfacet
facet normal 8.91252879695657e-16 -1.86026694724818e-15 1.0
outer loop
vertex -2.50695057144024 19.4625341868849 10.0
vertex -3.00626501429516 1.97068079590014 10.0
vertex -2.50695057144024 0.0695509305072631 10.0
endloop
endfacet
facet normal 8.91252879695657e-16 -1.86026694724818e-15 1.0
outer loop
vertex -2.50695057144024 19.4625341868849 10.0
vertex -2.50695057144024 0.0695509305072631 10.0
vertex -1.90000000000009 21.3320851173922 10.0000000000001
endloop
endfacet
facet normal 8.91252879695657e-16 -1.86026694724818e-15 1.0
outer loop
vertex -1.90000000000009 21.3320851173922 10.0000000000001
vertex -2.50695057144024 0.0695509305072631 10.0
vertex -1.90000000000009 -1.79999999999997 9.99999999999999
endloop
endfacet
facet normal 8.91252879695657e-16 -1.86026694724818e-15 1.0
outer loop
vertex -1.90000000000009 21.3320851173922 10.0000000000001
vertex -1.90000000000009 -1.79999999999997 9.99999999999999
vertex -0.0304490694928276 -2.40695057144029 10.0
endloop
endfacet
facet normal 8.91252879695657e-16 -1.86026694724818e-15 1.0
outer loop
vertex -1.90000000000009 21.3320851173922 10.0000000000001
vertex -0.0304490694928276 -2.40695057144029 10.0
vertex -0.0304490694928248 21.9390356888328 10.0
endloop
endfacet
facet normal 8.91252879695657e-16 -1.86026694724818e-15 1.0
outer loop
vertex -0.0304490694928248 21.9390356888328 10.0
vertex -0.0304490694928276 -2.40695057144029 10.0
vertex -1.05043751474909e-13 5.63993296509579e-15 10.0000000000001
endloop
endfacet
facet normal 8.91252879695657e-16 -1.86026694724818e-15 1.0
outer loop
vertex -1.05043751474909e-13 5.63993296509579e-15 10.0000000000001
vertex -0.0304490694928276 -2.40695057144029 10.0
vertex 1.87068079590004 -2.90626501429521 9.99999999999999
endloop
endfacet
facet normal 8.91252879695657e-16 -1.86026694724818e-15 1.0
outer loop
vertex -1.05043751474909e-13 5.63993296509579e-15 10.0000000000001
vertex 1.87068079590004 -2.90626501429521 9.99999999999999
vertex 19.332085117392 2.8199664825479e-15 10.0000000000001
endloop
endfacet
facet normal 8.91252879695657e-16 -1.86026694724818e-15 1.0
outer loop
vertex 19.332085117392 2.8199664825479e-15 10.0000000000001
vertex 1.87068079590004 -2.90626501429521 9.99999999999999
vertex 12.9791493424628 -10.5114322068699 9.99999999999996
endloop
endfacet
facet normal 8.91252879695657e-16 -1.86026694724818e-15 1.0
outer loop
vertex 19.332085117392 2.8199664825479e-15 10.0000000000001
vertex 12.9791493424628 -10.5114322068699 9.99999999999996
vertex 29.4850208923215 6.91143220686994 10.0
endloop
endfacet
facet normal 8.91252879695657e-16 -1.86026694724818e-15 1.0
outer loop
vertex 19.332085117392 2.8199664825479e-15 10.0000000000001
vertex 29.4850208923215 6.91143220686994 10.0
vertex 19.332085117392 19.4320851173922 10.0
endloop
endfacet
facet normal 8.91252879695657e-16 -1.86026694724818e-15 1.0
outer loop
vertex 19.332085117392 19.4320851173922 10.0
vertex 29.4850208923215 6.91143220686994 10.0
vertex 19.3625341868848 21.9390356888328 10.0
endloop
endfacet
facet normal 8.91252879695657e-16 -1.86026694724818e-15 1.0
outer loop
vertex 19.3625341868848 21.9390356888328 10.0
vertex 29.4850208923215 6.91143220686994 10.0
vertex 22.3383501316871 17.561404321492 10.0
endloop
endfacet
facet normal 8.91252879695657e-16 -1.86026694724818e-15 1.0
outer loop
vertex 19.3625341868848 21.9390356888328 10.0
vertex 22.3383501316871 17.561404321492 10.0
vertex 21.232085117392 21.3320851173922 10.0000000000001
endloop
endfacet
facet normal 8.91252879695657e-16 -1.86026694724818e-15 1.0
outer loop
vertex 21.232085117392 21.3320851173922 10.0000000000001
vertex 22.3383501316871 17.561404321492 10.0
vertex 21.8390356888322 19.4625341868849 10.0
endloop
endfacet
facet normal 8.91252879695657e-16 -1.86026694724818e-15 1.0
outer loop
vertex 22.3383501316871 17.561404321492 10.0
vertex 29.4850208923215 6.91143220686994 10.0
vertex 37.7716442734896 0.904069948627366 9.99999999999996
endloop
endfacet
facet normal 8.91252879695657e-16 -1.86026694724818e-15 1.0
outer loop
vertex 37.7716442734896 0.904069948627366 9.99999999999996
vertex 29.4850208923215 6.91143220686994 10.0
vertex 35.0121111736148 1.12772465699908 9.99999999999998
endloop
endfacet
facet normal 8.91252879695657e-16 -1.86026694724818e-15 1.0
outer loop
vertex -0.0304490694928248 21.9390356888328 10.0
vertex -1.05043751474909e-13 19.4320851173922 10.0
vertex 1.87068079590003 22.4383501316877 10.0
endloop
endfacet
facet normal 8.91252879695657e-16 -1.86026694724818e-15 1.0
outer loop
vertex -1.05043751474909e-13 19.4320851173922 10.0
vertex -0.0304490694928248 21.9390356888328 10.0
vertex -1.05043751474909e-13 5.63993296509579e-15 10.0000000000001
endloop
endfacet
facet normal 8.91252879695657e-16 -1.86026694724818e-15 1.0
outer loop
vertex -1.05043751474909e-13 19.4320851173922 10.0
vertex -1.05043751474909e-13 5.63993296509579e-15 10.0000000000001
vertex -1.05043751474909e-13 9.71604255869609 10.0
endloop
endfacet
facet normal 8.91252879695657e-16 -1.86026694724818e-15 1.0
outer loop
vertex 1.87068079590003 22.4383501316877 10.0
vertex -1.05043751474909e-13 19.4320851173922 10.0
vertex 19.332085117392 19.4320851173922 10.0
endloop
endfacet
facet normal 8.91252879695657e-16 -1.86026694724818e-15 1.0
outer loop
vertex 1.87068079590003 22.4383501316877 10.0
vertex 19.332085117392 19.4320851173922 10.0
vertex 3.7971981138847 22.8284023095274 10.0
endloop
endfacet
facet normal 8.91252879695657e-16 -1.86026694724818e-15 1.0
outer loop
vertex 3.7971981138847 22.8284023095274 10.0
vertex 19.332085117392 19.4320851173922 10.0
vertex 5.74282872188013 23.1079219245165 10.0
endloop
endfacet
facet normal 8.91252879695657e-16 -1.86026694724818e-15 1.0
outer loop
vertex 5.74282872188013 23.1079219245165 10.0
vertex 19.332085117392 19.4320851173922 10.0
vertex 7.70123621032319 23.2759986544416 10.0
endloop
endfacet
facet normal 8.91252879695657e-16 -1.86026694724818e-15 1.0
outer loop
vertex 7.70123621032319 23.2759986544416 10.0
vertex 19.332085117392 19.4320851173922 10.0
vertex 9.66604255869597 23.3320851173925 10.0
endloop
endfacet
facet normal 8.91252879695657e-16 -1.86026694724818e-15 1.0
outer loop
vertex 9.66604255869597 23.3320851173925 10.0
vertex 19.332085117392 19.4320851173922 10.0
vertex 11.6308489070687 23.2759986544416 10.0
endloop
endfacet
facet normal 8.91252879695657e-16 -1.86026694724818e-15 1.0
outer loop
vertex 11.6308489070687 23.2759986544416 10.0
vertex 19.332085117392 19.4320851173922 10.0
vertex 13.5892563955118 23.1079219245165 10.0
endloop
endfacet
facet normal 8.91252879695657e-16 -1.86026694724818e-15 1.0
outer loop
vertex 13.5892563955118 23.1079219245165 10.0
vertex 19.332085117392 19.4320851173922 10.0
vertex 15.5348870035072 22.8284023095274 10.0
endloop
endfacet
facet normal 8.91252879695657e-16 -1.86026694724818e-15 1.0
outer loop
vertex 15.5348870035072 22.8284023095274 10.0
vertex 19.332085117392 19.4320851173922 10.0
vertex 17.4614043214919 22.4383501316877 10.0
endloop
endfacet
facet normal 8.91252879695657e-16 -1.86026694724818e-15 1.0
outer loop
vertex 17.4614043214919 22.4383501316877 10.0
vertex 19.332085117392 19.4320851173922 10.0
vertex 19.3625341868848 21.9390356888328 10.0
endloop
endfacet
facet normal -7.85246117502407e-15 0.866025403784439 0.5
outer loop
vertex -5.27583680712395 8.91604255869606 3.52775681356651
vertex -3.00000000000016 8.06604255869609 5.00000000000004
vertex -3.00000000000017 8.91604255869609 3.5277568135665
endloop
endfacet
facet normal -7.85246117502407e-15 0.866025403784439 0.5
outer loop
vertex -3.00000000000016 8.06604255869609 5.00000000000004
vertex -5.27583680712395 8.91604255869606 3.52775681356651
vertex -5.27583680712393 8.06604255869606 5.00000000000006
endloop
endfacet
facet normal -1.0 2.87515960112605e-15 -9.58788604066287e-15
outer loop
vertex -3.67583680712395 7.80443564028816 10.0
vertex -3.67583680712391 5.84282872188023 5.00000000000004
vertex -3.67583680712396 5.84282872188023 10.0
endloop
endfacet
facet normal 9.42270187916326e-15 -0.86602540378444 0.499999999999998
outer loop
vertex -5.27583680712392 7.80443564028813 8.39760284716119
vertex -5.27583680712391 5.84282872188022 5.00000000000005
vertex -3.67583680712391 5.84282872188023 5.00000000000004
endloop
endfacet
facet normal 1.34097217724707e-16 1.0 1.0682669214275e-15
outer loop
vertex -1.05043751474909e-13 5.63993296509579e-15 10.0000000000001
vertex 19.3320851173921 1.40998324127395e-14 5.63993296509579e-14
vertex -2.03742578364086e-13 1.69197988952874e-14 5.63993296509579e-14
endloop
endfacet
facet normal 1.34097217724707e-16 1.0 1.0682669214275e-15
outer loop
vertex 19.3320851173921 1.40998324127395e-14 5.63993296509579e-14
vertex -1.05043751474909e-13 5.63993296509579e-15 10.0000000000001
vertex 19.332085117392 2.8199664825479e-15 10.0000000000001
endloop
endfacet
facet normal -1.36511469194754e-14 0.866025403784438 -0.5
outer loop
vertex -5.27583680712393 8.06604255869606 5.00000000000006
vertex -3.00000000000016 8.91604255869609 6.47224318643359
vertex -3.00000000000016 8.06604255869609 5.00000000000004
endloop
endfacet
facet normal -1.36511469194754e-14 0.866025403784438 -0.5
outer loop
vertex -3.00000000000016 8.91604255869609 6.47224318643359
vertex -5.27583680712393 8.06604255869606 5.00000000000006
vertex -5.27583680712393 8.91604255869606 6.47224318643359
endloop
endfacet
facet normal -0.343510123147384 -0.874273627206959 -0.342996239142146
outer loop
vertex -3.67583680712391 5.84282872188023 5.00000000000004
vertex -5.27583680712395 7.80443564028814 1.60239715283891
vertex -3.67583680712401 7.80443564028816 4.22994972382185e-14
endloop
endfacet
facet normal -0.980113327482214 0.198438568055059 9.67207047067219e-15
outer loop
vertex -3.00626501429517 17.561404321492 10.0
vertex -3.39631719213497 15.6348870035074 5.07593966858621e-14
vertex -3.39631719213487 15.6348870035074 10.0
endloop
endfacet
facet normal -0.980113327482214 0.198438568055059 9.67207047067219e-15
outer loop
vertex -3.39631719213497 15.6348870035074 5.07593966858621e-14
vertex -3.00626501429517 17.561404321492 10.0
vertex -3.00626501429527 17.561404321492 5.07593966858621e-14
endloop
endfacet
facet normal -0.19843856805505 0.980113327482216 1.9577480245566e-15
outer loop
vertex 1.87068079589993 22.4383501316877 3.38395977905748e-14
vertex 3.7971981138847 22.8284023095274 10.0
vertex 3.7971981138846 22.8284023095274 2.25597318603832e-14
endloop
endfacet
facet normal -0.19843856805505 0.980113327482216 1.9577480245566e-15
outer loop
vertex 3.7971981138847 22.8284023095274 10.0
vertex 1.87068079589993 22.4383501316877 3.38395977905748e-14
vertex 1.87068079590003 22.4383501316877 10.0
endloop
endfacet
facet normal -0.707635887371889 -1.60046370432695e-15 -0.706577278790792
outer loop
vertex -5.27583680712396 9.76604255869606 1.60239715283891
vertex -3.67583680712401 7.80443564028816 4.22994972382185e-14
vertex -5.27583680712395 7.80443564028814 1.60239715283891
endloop
endfacet
facet normal -0.707635887371889 -1.60046370432695e-15 -0.706577278790792
outer loop
vertex -3.67583680712401 7.80443564028816 4.22994972382185e-14
vertex -5.27583680712396 9.76604255869606 1.60239715283891
vertex -3.675836807124 11.727649477104 5.07593966858621e-14
endloop
endfacet
facet normal -0.707635887371889 -1.60046370432695e-15 -0.706577278790792
outer loop
vertex -3.675836807124 11.727649477104 5.07593966858621e-14
vertex -5.27583680712396 9.76604255869606 1.60239715283891
vertex -5.27583680712399 11.727649477104 1.60239715283891
endloop
endfacet
facet normal -1.45869753077539e-16 -1.0 -4.52756827822149e-31
outer loop
vertex 19.332085117392 19.4320851173922 10.0
vertex -2.03742578364086e-13 19.4320851173922 3.38395977905748e-14
vertex 19.3320851173921 19.4320851173922 3.38395977905748e-14
endloop
endfacet
facet normal -1.45869753077539e-16 -1.0 -4.52756827822149e-31
outer loop
vertex -2.03742578364086e-13 19.4320851173922 3.38395977905748e-14
vertex 19.332085117392 19.4320851173922 10.0
vertex -1.05043751474909e-13 19.4320851173922 10.0
endloop
endfacet
facet normal -0.707635887371881 -4.44542822109758e-15 0.706577278790799
outer loop
vertex -3.67583680712395 7.80443564028816 10.0
vertex -5.27583680712394 9.76604255869606 8.39760284716119
vertex -5.27583680712392 7.80443564028813 8.39760284716119
endloop
endfacet
facet normal -0.707635887371881 -4.44542822109758e-15 0.706577278790799
outer loop
vertex -5.27583680712394 9.76604255869606 8.39760284716119
vertex -3.67583680712395 7.80443564028816 10.0
vertex -3.67583680712395 11.727649477104 10.0
endloop
endfacet
facet normal -0.707635887371881 -4.44542822109758e-15 0.706577278790799
outer loop
vertex -5.27583680712394 9.76604255869606 8.39760284716119
vertex -3.67583680712395 11.727649477104 10.0
vertex -5.27583680712396 11.727649477104 8.39760284716119
endloop
endfacet
facet normal -1.0 2.87515960112601e-15 9.58788604066285e-15
outer loop
vertex -3.67583680712399 13.6892563955119 5.00000000000005
vertex -3.67583680712395 11.727649477104 10.0
vertex -3.67583680712394 13.6892563955119 10.0
endloop
endfacet
facet normal -5.1740072908188e-15 0.866025403784439 -0.499999999999999
outer loop
vertex -3.00000000000015 6.51604255869609 5.00000000000007
vertex -1.24783516852744e-13 8.11604255869609 7.77128129211025
vertex -1.52983181678223e-13 6.51604255869609 5.00000000000004
endloop
endfacet
facet normal -5.1740072908188e-15 0.866025403784439 -0.499999999999999
outer loop
vertex -1.24783516852744e-13 8.11604255869609 7.77128129211025
vertex -3.00000000000015 6.51604255869609 5.00000000000007
vertex -3.00000000000012 8.11604255869609 7.77128129211029
endloop
endfacet
facet normal 4.5211556754581e-15 -0.866025403784438 0.500000000000001
outer loop
vertex -1.52983181678223e-13 12.9160425586961 5.00000000000004
vertex -3.00000000000018 11.3160425586961 2.22871870788987
vertex -1.81182846503702e-13 11.3160425586961 2.22871870788984
endloop
endfacet
facet normal 4.5211556754581e-15 -0.866025403784438 0.500000000000001
outer loop
vertex -3.00000000000018 11.3160425586961 2.22871870788987
vertex -1.52983181678223e-13 12.9160425586961 5.00000000000004
vertex -3.00000000000015 12.9160425586961 5.00000000000007
endloop
endfacet
facet normal -1.0 -1.15406008232174e-29 -9.88578812716312e-15
outer loop
vertex 19.332085117392 19.4320851173922 10.0
vertex 19.3320851173921 1.40998324127395e-14 5.63993296509579e-14
vertex 19.332085117392 2.8199664825479e-15 10.0000000000001
endloop
endfacet
facet normal -1.0 -1.15406008232174e-29 -9.88578812716312e-15
outer loop
vertex 19.3320851173921 1.40998324127395e-14 5.63993296509579e-14
vertex 19.332085117392 19.4320851173922 10.0
vertex 19.3320851173921 19.4320851173922 3.38395977905748e-14
endloop
endfacet
facet normal 1.0 8.62259283368993e-17 -9.94174635243479e-15
outer loop
vertex -2.03742578364086e-13 19.4320851173922 3.38395977905748e-14
vertex -1.81182846503702e-13 9.71604255869609 2.22871870788984
vertex -2.03742578364086e-13 9.71604255869609 4.51194637207663e-14
endloop
endfacet
facet normal 1.0 8.62259283368993e-17 -9.94174635243479e-15
outer loop
vertex -1.81182846503702e-13 9.71604255869609 2.22871870788984
vertex -2.03742578364086e-13 19.4320851173922 3.38395977905748e-14
vertex -1.81182846503702e-13 11.3160425586961 2.22871870788984
endloop
endfacet
facet normal 1.0 8.62259283368993e-17 -9.94174635243479e-15
outer loop
vertex -1.81182846503702e-13 11.3160425586961 2.22871870788984
vertex -2.03742578364086e-13 19.4320851173922 3.38395977905748e-14
vertex -1.52983181678223e-13 12.9160425586961 5.00000000000004
endloop
endfacet
facet normal 1.0 8.62259283368993e-17 -9.94174635243479e-15
outer loop
vertex -1.24783516852744e-13 11.3160425586961 7.77128129211025
vertex -1.05043751474909e-13 9.71604255869609 10.0
vertex -1.24783516852744e-13 9.71604255869609 7.77128129211025
endloop
endfacet
facet normal 1.0 8.62259283368993e-17 -9.94174635243479e-15
outer loop
vertex -1.05043751474909e-13 9.71604255869609 10.0
vertex -1.24783516852744e-13 11.3160425586961 7.77128129211025
vertex -1.05043751474909e-13 19.4320851173922 10.0
endloop
endfacet
facet normal 1.0 8.62259283368993e-17 -9.94174635243479e-15
outer loop
vertex -1.05043751474909e-13 19.4320851173922 10.0
vertex -1.24783516852744e-13 11.3160425586961 7.77128129211025
vertex -1.52983181678223e-13 12.9160425586961 5.00000000000004
endloop
endfacet
facet normal 1.0 8.62259283368993e-17 -9.94174635243479e-15
outer loop
vertex -1.05043751474909e-13 19.4320851173922 10.0
vertex -1.52983181678223e-13 12.9160425586961 5.00000000000004
vertex -2.03742578364086e-13 19.4320851173922 3.38395977905748e-14
endloop
endfacet
facet normal -0.343510123147399 0.874273627206952 -0.342996239142149
outer loop
vertex -3.67583680712399 13.6892563955119 5.00000000000005
vertex -3.675836807124 11.727649477104 5.07593966858621e-14
vertex -5.27583680712399 11.727649477104 1.60239715283891
endloop
endfacet
facet normal -0.254025611645397 0.967197492050192 2.50762271823252e-15
outer loop
vertex -0.0304490694929235 21.9390356888328 4.51194637207663e-14
vertex 1.87068079590003 22.4383501316877 10.0
vertex 1.87068079589993 22.4383501316877 3.38395977905748e-14
endloop
endfacet
facet normal -0.254025611645397 0.967197492050192 2.50762271823252e-15
outer loop
vertex 1.87068079590003 22.4383501316877 10.0
vertex -0.0304490694929235 21.9390356888328 4.51194637207663e-14
vertex -0.0304490694928248 21.9390356888328 10.0
endloop
endfacet
facet normal -0.967197492050196 0.254025611645382 9.54731904927374e-15
outer loop
vertex -2.50695057144024 19.4625341868849 10.0
vertex -3.00626501429527 17.561404321492 5.07593966858621e-14
vertex -3.00626501429517 17.561404321492 10.0
endloop
endfacet
facet normal -0.967197492050196 0.254025611645382 9.54731904927374e-15
outer loop
vertex -3.00626501429527 17.561404321492 5.07593966858621e-14
vertex -2.50695057144024 19.4625341868849 10.0
vertex -2.50695057144034 19.4625341868849 5.07593966858621e-14
endloop
endfacet
facet normal -0.951131747579536 0.308785360317321 9.38777191489637e-15
outer loop
vertex -1.90000000000009 21.3320851173922 10.0000000000001
vertex -2.50695057144034 19.4625341868849 5.07593966858621e-14
vertex -2.50695057144024 19.4625341868849 10.0
endloop
endfacet
facet normal -0.951131747579536 0.308785360317321 9.38777191489637e-15
outer loop
vertex -2.50695057144034 19.4625341868849 5.07593966858621e-14
vertex -1.90000000000009 21.3320851173922 10.0000000000001
vertex -1.90000000000019 21.3320851173922 6.76791955811495e-14
endloop
endfacet
facet normal -0.0285339193768524 0.999592824826687 -4.70468576573627e-20
outer loop
vertex 7.7012362103231 23.2759986544416 5.63993296509579e-15
vertex 9.66604255869597 23.3320851173925 10.0
vertex 9.66604255869605 23.3320851173925 0.0
endloop
endfacet
facet normal -0.0285339193768524 0.999592824826687 -4.70468576573627e-20
outer loop
vertex 9.66604255869597 23.3320851173925 10.0
vertex 7.7012362103231 23.2759986544416 5.63993296509579e-15
vertex 7.70123621032319 23.2759986544416 10.0
endloop
endfacet
facet normal -0.989837190380671 0.142205261995818 9.76802864669519e-15
outer loop
vertex -3.39631719213487 15.6348870035074 10.0
vertex -3.67583680712399 13.6892563955119 5.00000000000005
vertex -3.67583680712394 13.6892563955119 10.0
endloop
endfacet
facet normal -0.989837190380671 0.142205261995818 9.76802864669519e-15
outer loop
vertex -3.67583680712399 13.6892563955119 5.00000000000005
vertex -3.39631719213487 15.6348870035074 10.0
vertex -3.67583680712404 13.6892563955119 5.07593966858621e-14
endloop
endfacet
facet normal -0.989837190380671 0.142205261995818 9.76802864669519e-15
outer loop
vertex -3.67583680712404 13.6892563955119 5.07593966858621e-14
vertex -3.39631719213487 15.6348870035074 10.0
vertex -3.39631719213497 15.6348870035074 5.07593966858621e-14
endloop
endfacet
facet normal -0.967197492050197 -0.254025611645379 9.25878615746747e-15
outer loop
vertex -3.00626501429516 1.97068079590014 10.0
vertex -2.50695057144033 0.0695509305072744 5.63993296509579e-15
vertex -2.50695057144024 0.0695509305072631 10.0
endloop
endfacet
facet normal -0.967197492050197 -0.254025611645379 9.25878615746747e-15
outer loop
vertex -2.50695057144033 0.0695509305072744 5.63993296509579e-15
vertex -3.00626501429516 1.97068079590014 10.0
vertex -3.00626501429526 1.97068079590016 1.69197988952874e-14
endloop
endfacet
facet normal 2.60364130871614e-15 -0.86602540378444 -0.499999999999998
outer loop
vertex -5.27583680712391 5.84282872188022 5.00000000000005
vertex -5.27583680712395 7.80443564028814 1.60239715283891
vertex -3.67583680712391 5.84282872188023 5.00000000000004
endloop
endfacet
facet normal -1.0 -1.00630586039411e-14 3.5966107009587e-15
outer loop
vertex -5.27583680712392 7.80443564028813 8.39760284716119
vertex -5.27583680712395 7.80443564028814 1.60239715283891
vertex -5.27583680712391 5.84282872188022 5.00000000000005
endloop
endfacet
facet normal -1.0 -1.00630586039411e-14 3.5966107009587e-15
outer loop
vertex -5.27583680712395 7.80443564028814 1.60239715283891
vertex -5.27583680712392 7.80443564028813 8.39760284716119
vertex -5.27583680712393 8.06604255869606 5.00000000000006
endloop
endfacet
facet normal -1.0 -1.00630586039411e-14 3.5966107009587e-15
outer loop
vertex -5.27583680712393 8.06604255869606 5.00000000000006
vertex -5.27583680712392 7.80443564028813 8.39760284716119
vertex -5.27583680712394 9.76604255869606 8.39760284716119
endloop
endfacet
facet normal -1.0 -1.00630586039411e-14 3.5966107009587e-15
outer loop
vertex -5.27583680712393 8.06604255869606 5.00000000000006
vertex -5.27583680712394 9.76604255869606 8.39760284716119
vertex -5.27583680712393 8.91604255869606 6.47224318643359
endloop
endfacet
facet normal -1.0 -1.00630586039411e-14 3.5966107009587e-15
outer loop
vertex -5.27583680712393 8.91604255869606 6.47224318643359
vertex -5.27583680712394 9.76604255869606 8.39760284716119
vertex -5.27583680712395 9.76604255869606 6.47224318643359
endloop
endfacet
facet normal -1.0 -1.00630586039411e-14 3.5966107009587e-15
outer loop
vertex -5.27583680712395 9.76604255869606 6.47224318643359
vertex -5.27583680712394 9.76604255869606 8.39760284716119
vertex -5.27583680712396 11.727649477104 8.39760284716119
endloop
endfacet
facet normal -1.0 -1.00630586039411e-14 3.5966107009587e-15
outer loop
vertex -5.27583680712395 9.76604255869606 6.47224318643359
vertex -5.27583680712396 11.727649477104 8.39760284716119
vertex -5.27583680712395 10.6160425586961 6.47224318643359
endloop
endfacet
facet normal -1.0 -1.00630586039411e-14 3.5966107009587e-15
outer loop
vertex -5.27583680712395 10.6160425586961 6.47224318643359
vertex -5.27583680712396 11.727649477104 8.39760284716119
vertex -5.27583680712397 11.4660425586961 5.00000000000006
endloop
endfacet
facet normal -1.0 -1.00630586039411e-14 3.5966107009587e-15
outer loop
vertex -5.27583680712393 8.06604255869606 5.00000000000006
vertex -5.27583680712396 9.76604255869606 1.60239715283891
vertex -5.27583680712395 7.80443564028814 1.60239715283891
endloop
endfacet
facet normal -1.0 -1.00630586039411e-14 3.5966107009587e-15
outer loop
vertex -5.27583680712396 9.76604255869606 1.60239715283891
vertex -5.27583680712393 8.06604255869606 5.00000000000006
vertex -5.27583680712395 8.91604255869606 3.52775681356651
endloop
endfacet
facet normal -1.0 -1.00630586039411e-14 3.5966107009587e-15
outer loop
vertex -5.27583680712396 9.76604255869606 1.60239715283891
vertex -5.27583680712395 8.91604255869606 3.52775681356651
vertex -5.27583680712395 9.76604255869606 3.52775681356651
endloop
endfacet
facet normal -1.0 -1.00630586039411e-14 3.5966107009587e-15
outer loop
vertex -5.27583680712396 9.76604255869606 1.60239715283891
vertex -5.27583680712395 9.76604255869606 3.52775681356651
vertex -5.27583680712397 10.6160425586961 3.52775681356651
endloop
endfacet
facet normal -1.0 -1.00630586039411e-14 3.5966107009587e-15
outer loop
vertex -5.27583680712396 9.76604255869606 1.60239715283891
vertex -5.27583680712397 10.6160425586961 3.52775681356651
vertex -5.27583680712399 11.727649477104 1.60239715283891
endloop
endfacet
facet normal -1.0 -1.00630586039411e-14 3.5966107009587e-15
outer loop
vertex -5.27583680712399 11.727649477104 1.60239715283891
vertex -5.27583680712397 10.6160425586961 3.52775681356651
vertex -5.27583680712397 11.4660425586961 5.00000000000006
endloop
endfacet
facet normal -1.0 -1.00630586039411e-14 3.5966107009587e-15
outer loop
vertex -5.27583680712399 11.727649477104 1.60239715283891
vertex -5.27583680712397 11.4660425586961 5.00000000000006
vertex -5.27583680712396 11.727649477104 8.39760284716119
endloop
endfacet
facet normal -1.0 -1.00630586039411e-14 3.5966107009587e-15
outer loop
vertex -5.27583680712399 11.727649477104 1.60239715283891
vertex -5.27583680712396 11.727649477104 8.39760284716119
vertex -5.27583680712399 13.6892563955119 5.00000000000006
endloop
endfacet
endsolid Endstop Holder
