solid Endstop Holder
facet normal -0.548217112957655 -0.836336055100086 -2.28267897420976e-15
outer loop
vertex 18.8147691937532 -18.8747692331296 -5.76078259871467e-14
vertex 16.9394248090432 -17.6454836150845 9.99999999999994
vertex 16.9394248090432 -17.6454836150845 -3.98320265659891e-13
endloop
endfacet
facet normal -0.556488005074767 -0.830855643423036 -2.69149640971544e-15
outer loop
vertex 16.9394248090432 -17.6454836150845 9.99999999999994
vertex 18.8147691937532 -18.8747692331296 -5.76078259871467e-14
vertex 18.8147691937532 -18.8747692331296 9.99999999999994
endloop
endfacet
facet normal -0.666168067181781 -0.74580165343561 -2.87399148209636e-15
outer loop
vertex 4.54541657642371 -8.0342577288998 9.99999999999997
vertex 2.88798358020353 -6.52396783784029 -3.64480667869316e-13
vertex 4.54541657642372 -8.03425772889977 -3.70120600834412e-13
endloop
endfacet
facet normal -0.680835425033394 -0.732436430019423 -2.83487035876867e-15
outer loop
vertex 2.88798358020353 -6.52396783784029 -3.64480667869316e-13
vertex 4.54541657642371 -8.0342577288998 9.99999999999997
vertex 2.88798358020353 -6.52396783784032 9.99999999999998
endloop
endfacet
facet normal -0.604934818167771 -0.796274993810761 -3.01901200545613e-15
outer loop
vertex 11.4648637194166 -13.7378193801235 9.99999999999996
vertex 9.6928959273374 -12.3637051796912 -3.81400466764603e-13
vertex 11.4648637194166 -13.7378193801235 -3.84220433247151e-13
endloop
endfacet
facet normal -0.620615745099491 -0.784114849326681 -2.98450548119416e-15
outer loop
vertex 9.6928959273374 -12.3637051796912 -3.81400466764603e-13
vertex 11.4648637194166 -13.7378193801235 9.99999999999996
vertex 9.6928959273374 -12.3637051796912 9.99999999999996
endloop
endfacet
facet normal 3.62250257957322e-15 2.03278172847853e-14 -1.0
outer loop
vertex -2.03742578364086e-13 9.71604255869609 4.51194637207663e-14
vertex -5.10870142522138 5.16257659214978 2.32647234810202e-14
vertex -5.27583680712391 5.84282872188022 3.38395977905748e-14
endloop
endfacet
facet normal 3.62250257957322e-15 2.03278172847853e-14 -1.0
outer loop
vertex -5.10870142522138 5.16257659214978 2.32647234810202e-14
vertex -2.03742578364086e-13 9.71604255869609 4.51194637207663e-14
vertex -4.92000914480769 4.48798603544233 2.04447569984723e-14
endloop
endfacet
facet normal 3.62250257957322e-15 2.03278172847853e-14 -1.0
outer loop
vertex -4.92000914480769 4.48798603544233 2.04447569984723e-14
vertex -2.03742578364086e-13 9.71604255869609 4.51194637207663e-14
vertex -4.70995099475164 3.819739995812 1.76247905159244e-14
endloop
endfacet
facet normal 3.62250257957322e-15 2.03278172847853e-14 -1.0
outer loop
vertex -4.70995099475164 3.819739995812 1.76247905159244e-14
vertex -2.03742578364086e-13 9.71604255869609 4.51194637207663e-14
vertex -4.47873963436661 3.15851499423124 1.48048240333765e-14
endloop
endfacet
facet normal 3.62250257957322e-15 2.03278172847853e-14 -1.0
outer loop
vertex -4.47873963436661 3.15851499423124 1.48048240333765e-14
vertex -2.03742578364086e-13 9.71604255869609 4.51194637207663e-14
vertex -4.2266091381178 2.50498044369246 1.19848575508286e-14
endloop
endfacet
facet normal 3.62250257957322e-15 2.03278172847853e-14 -1.0
outer loop
vertex -4.2266091381178 2.50498044369246 1.19848575508286e-14
vertex -2.03742578364086e-13 9.71604255869609 4.51194637207663e-14
vertex -3.9538147586493 1.85979797150573 6.34492458573277e-15
endloop
endfacet
facet normal 3.62250257957322e-15 2.03278172847853e-14 -1.0
outer loop
vertex -3.9538147586493 1.85979797150573 6.34492458573277e-15
vertex -2.03742578364086e-13 9.71604255869609 4.51194637207663e-14
vertex -3.66063266837055 1.22362074947844 3.52495810318487e-15
endloop
endfacet
facet normal 3.62250257957322e-15 2.03278172847853e-14 -1.0
outer loop
vertex -3.66063266837055 1.22362074947844 3.52495810318487e-15
vertex -2.03742578364086e-13 9.71604255869609 4.51194637207663e-14
vertex -3.34735967986413 0.597092832655215 -2.11497486191092e-15
endloop
endfacet
facet normal 3.62250257957322e-15 2.03278172847853e-14 -1.0
outer loop
vertex -3.34735967986413 0.597092832655215 -2.11497486191092e-15
vertex -2.03742578364086e-13 9.71604255869609 4.51194637207663e-14
vertex -3.0143129453977 -0.0191514927124387 -4.93494134445882e-15
endloop
endfacet
facet normal 3.62250257957322e-15 2.03278172847853e-14 -1.0
outer loop
vertex -3.0143129453977 -0.0191514927124387 -4.93494134445882e-15
vertex -2.03742578364086e-13 9.71604255869609 4.51194637207663e-14
vertex -2.66182963584443 -0.624488351306856 -1.05748743095546e-14
endloop
endfacet
facet normal 3.62250257957322e-15 2.03278172847853e-14 -1.0
outer loop
vertex -2.66182963584443 -0.624488351306856 -1.05748743095546e-14
vertex -2.03742578364086e-13 9.71604255869609 4.51194637207663e-14
vertex -2.29026659933689 -1.21830491034499 -1.33948407921025e-14
endloop
endfacet
facet normal 3.62250257957322e-15 2.03278172847853e-14 -1.0
outer loop
vertex -2.29026659933689 -1.21830491034499 -1.33948407921025e-14
vertex -2.03742578364086e-13 9.71604255869609 4.51194637207663e-14
vertex -1.90000000000019 -1.79999999999996 -1.12798659301916e-14
endloop
endfacet
facet normal 3.62250257957322e-15 2.03278172847853e-14 -1.0
outer loop
vertex -1.90000000000019 -1.79999999999996 -1.12798659301916e-14
vertex -2.03742578364086e-13 9.71604255869609 4.51194637207663e-14
vertex -0.335359320698743 -3.40622515130101 -3.5884073490422e-13
endloop
endfacet
facet normal 3.62250257957322e-15 2.03278172847853e-14 -1.0
outer loop
vertex -0.335359320698743 -3.40622515130101 -3.5884073490422e-13
vertex -2.03742578364086e-13 9.71604255869609 4.51194637207663e-14
vertex -2.03742578364086e-13 1.69197988952874e-14 5.63993296509579e-14
endloop
endfacet
facet normal 3.62250257957322e-15 2.03278172847853e-14 -1.0
outer loop
vertex -0.335359320698743 -3.40622515130101 -3.5884073490422e-13
vertex -2.03742578364086e-13 1.69197988952874e-14 5.63993296509579e-14
vertex 1.26084471344627 -4.98108780352662 -3.61660701386768e-13
endloop
endfacet
facet normal 3.62250257957322e-15 2.03278172847853e-14 -1.0
outer loop
vertex 1.26084471344627 -4.98108780352662 -3.61660701386768e-13
vertex -2.03742578364086e-13 1.69197988952874e-14 5.63993296509579e-14
vertex 19.3320851173921 1.40998324127395e-14 5.63993296509579e-14
endloop
endfacet
facet normal 3.62250257957322e-15 2.03278172847853e-14 -1.0
outer loop
vertex 1.26084471344627 -4.98108780352662 -3.61660701386768e-13
vertex 19.3320851173921 1.40998324127395e-14 5.63993296509579e-14
vertex 2.88798358020353 -6.52396783784029 -3.64480667869316e-13
endloop
endfacet
facet normal 3.62250257957322e-15 2.03278172847853e-14 -1.0
outer loop
vertex 2.88798358020353 -6.52396783784029 -3.64480667869316e-13
vertex 19.3320851173921 1.40998324127395e-14 5.63993296509579e-14
vertex 4.54541657642372 -8.03425772889977 -3.70120600834412e-13
endloop
endfacet
facet normal 3.62250257957322e-15 2.03278172847853e-14 -1.0
outer loop
vertex 4.54541657642372 -8.03425772889977 -3.70120600834412e-13
vertex 19.3320851173921 1.40998324127395e-14 5.63993296509579e-14
vertex 6.23249107032346 -9.51136278407654 -3.72940567316959e-13
endloop
endfacet
facet normal 3.62250257957322e-15 2.03278172847853e-14 -1.0
outer loop
vertex 6.23249107032346 -9.51136278407654 -3.72940567316959e-13
vertex 19.3320851173921 1.40998324127395e-14 5.63993296509579e-14
vertex 7.94854275846591 -10.9547013776225 -3.75760533799507e-13
endloop
endfacet
facet normal 3.62250257957322e-15 2.03278172847853e-14 -1.0
outer loop
vertex 7.94854275846591 -10.9547013776225 -3.75760533799507e-13
vertex 19.3320851173921 1.40998324127395e-14 5.63993296509579e-14
vertex 9.6928959273374 -12.3637051796912 -3.81400466764603e-13
endloop
endfacet
facet normal 3.62250257957322e-15 2.03278172847853e-14 -1.0
outer loop
vertex 9.6928959273374 -12.3637051796912 -3.81400466764603e-13
vertex 19.3320851173921 1.40998324127395e-14 5.63993296509579e-14
vertex 12.9791493424628 -10.5114322068699 -3.44708165472579e-14
endloop
endfacet
facet normal 3.62250257957322e-15 2.03278172847853e-14 -1.0
outer loop
vertex 9.6928959273374 -12.3637051796912 -3.81400466764603e-13
vertex 12.9791493424628 -10.5114322068699 -3.44708165472579e-14
vertex 11.4648637194166 -13.7378193801235 -3.84220433247151e-13
endloop
endfacet
facet normal 3.62250257957322e-15 2.03278172847853e-14 -1.0
outer loop
vertex 12.9791493424628 -10.5114322068699 -3.44708165472579e-14
vertex 19.3320851173921 1.40998324127395e-14 5.63993296509579e-14
vertex 21.1834364687435 -1.85135135135132 6.00480489035863e-15
endloop
endfacet
facet normal 3.62250257957322e-15 2.03278172847853e-14 -1.0
outer loop
vertex 12.9791493424628 -10.5114322068699 -3.44708165472579e-14
vertex 13.2637484036322 -15.0765029069104 -3.89860366212247e-13
vertex 11.4648637194166 -13.7378193801235 -3.84220433247151e-13
endloop
endfacet
facet normal 3.62250257957322e-15 2.03278172847853e-14 -1.0
outer loop
vertex 13.2637484036322 -15.0765029069104 -3.89860366212247e-13
vertex 12.9791493424628 -10.5114322068699 -3.44708165472579e-14
vertex 18.7547407366431 -16.0470030037679 -5.2980424099169e-14
endloop
endfacet
facet normal 3.62250257957322e-15 2.03278172847853e-14 -1.0
outer loop
vertex 13.2637484036322 -15.0765029069104 -3.89860366212247e-13
vertex 18.7547407366431 -16.0470030037679 -5.2980424099169e-14
vertex 15.0888416501015 -16.3792286392455 -3.92680332694795e-13
endloop
endfacet
facet normal 3.62250257957322e-15 2.03278172847853e-14 -1.0
outer loop
vertex 15.0888416501015 -16.3792286392455 -3.92680332694795e-13
vertex 18.7547407366431 -16.0470030037679 -5.2980424099169e-14
vertex 16.9394248090432 -17.6454836150845 -3.98320265659891e-13
endloop
endfacet
facet normal 3.62250257957322e-15 2.03278172847853e-14 -1.0
outer loop
vertex 16.9394248090432 -17.6454836150845 -3.98320265659891e-13
vertex 18.7547407366431 -16.0470030037679 -5.2980424099169e-14
vertex 18.8147691937532 -18.8747692331296 -5.76078259871467e-14
endloop
endfacet
facet normal 3.62250257957322e-15 2.03278172847853e-14 -1.0
outer loop
vertex 18.8147691937532 -18.8747692331296 -5.76078259871467e-14
vertex 18.7547407366431 -16.0470030037679 -5.2980424099169e-14
vertex 26.8874612722135 -7.45537615482176 -2.41068257688144e-13
endloop
endfacet
facet normal 3.62250257957322e-15 2.03278172847853e-14 -1.0
outer loop
vertex 18.8147691937532 -18.8747692331296 -5.76078259871467e-14
vertex 26.8874612722135 -7.45537615482176 -2.41068257688144e-13
vertex 28.3540026997108 -8.92191758231906 -2.58718113042027e-13
endloop
endfacet
facet normal -0.636052298013419 -0.771645951322138 -2.94882377631299e-15
outer loop
vertex 7.94854275846591 -10.9547013776226 9.99999999999997
vertex 6.23249107032346 -9.51136278407654 -3.72940567316959e-13
vertex 7.94854275846591 -10.9547013776225 -3.75760533799507e-13
endloop
endfacet
facet normal -0.651238398603456 -0.758873209557701 -2.91198094086161e-15
outer loop
vertex 6.23249107032346 -9.51136278407654 -3.72940567316959e-13
vertex 7.94854275846591 -10.9547013776226 9.99999999999997
vertex 6.23249107032346 -9.51136278407658 9.99999999999997
endloop
endfacet
facet normal -0.58901569174918 -0.808121596588803 -3.05232976178981e-15
outer loop
vertex 13.2637484036322 -15.0765029069104 9.99999999999995
vertex 11.4648637194166 -13.7378193801235 -3.84220433247151e-13
vertex 13.2637484036322 -15.0765029069104 -3.89860366212247e-13
endloop
endfacet
facet normal -0.604934818167771 -0.79627499381076 -3.01901200545613e-15
outer loop
vertex 11.4648637194166 -13.7378193801235 -3.84220433247151e-13
vertex 13.2637484036322 -15.0765029069104 9.99999999999995
vertex 11.4648637194166 -13.7378193801235 9.99999999999996
endloop
endfacet
facet normal -0.695234696730906 -0.718782802007313 -2.79463297523491e-15
outer loop
vertex 1.26084471344626 -4.98108780352665 9.99999999999998
vertex -0.335359320698743 -3.40622515130101 -3.5884073490422e-13
vertex 1.26084471344627 -4.98108780352662 -3.61660701386768e-13
endloop
endfacet
facet normal -0.709360212408689 -0.704846145659817 -5.371735639954e-16
outer loop
vertex -0.335359320698743 -3.40622515130101 -3.5884073490422e-13
vertex 1.26084471344626 -4.98108780352665 9.99999999999998
vertex -0.335359320698748 -3.40622515130104 9.99999999999998
endloop
endfacet
facet normal -4.65413874116507e-16 -3.43784115967785e-15 1.0
outer loop
vertex -0.335359320698748 -3.40622515130104 9.99999999999998
vertex -0.0304490694928276 -2.40695057144029 10.0
vertex -1.90000000000009 -1.79999999999997 9.99999999999999
endloop
endfacet
facet normal -4.65413874116507e-16 -3.43784115967785e-15 1.0
outer loop
vertex -0.0304490694928276 -2.40695057144029 10.0
vertex -0.335359320698748 -3.40622515130104 9.99999999999998
vertex 1.26084471344626 -4.98108780352665 9.99999999999998
endloop
endfacet
facet normal -4.65413874116507e-16 -3.43784115967785e-15 1.0
outer loop
vertex -0.0304490694928276 -2.40695057144029 10.0
vertex 1.26084471344626 -4.98108780352665 9.99999999999998
vertex 1.87068079590004 -2.90626501429521 9.99999999999999
endloop
endfacet
facet normal -4.65413874116507e-16 -3.43784115967785e-15 1.0
outer loop
vertex 1.87068079590004 -2.90626501429521 9.99999999999999
vertex 1.26084471344626 -4.98108780352665 9.99999999999998
vertex 2.88798358020353 -6.52396783784032 9.99999999999998
endloop
endfacet
facet normal -4.65413874116507e-16 -3.43784115967785e-15 1.0
outer loop
vertex 1.87068079590004 -2.90626501429521 9.99999999999999
vertex 2.88798358020353 -6.52396783784032 9.99999999999998
vertex 18.8147691937532 -18.8747692331296 9.99999999999994
endloop
endfacet
facet normal -4.65413874116507e-16 -3.43784115967785e-15 1.0
outer loop
vertex 18.8147691937532 -18.8747692331296 9.99999999999994
vertex 2.88798358020353 -6.52396783784032 9.99999999999998
vertex 4.54541657642371 -8.0342577288998 9.99999999999997
endloop
endfacet
facet normal -4.65413874116507e-16 -3.43784115967785e-15 1.0
outer loop
vertex 18.8147691937532 -18.8747692331296 9.99999999999994
vertex 4.54541657642371 -8.0342577288998 9.99999999999997
vertex 6.23249107032346 -9.51136278407658 9.99999999999997
endloop
endfacet
facet normal -4.65413874116507e-16 -3.43784115967785e-15 1.0
outer loop
vertex 18.8147691937532 -18.8747692331296 9.99999999999994
vertex 6.23249107032346 -9.51136278407658 9.99999999999997
vertex 7.94854275846591 -10.9547013776226 9.99999999999997
endloop
endfacet
facet normal -4.65413874116507e-16 -3.43784115967785e-15 1.0
outer loop
vertex 18.8147691937532 -18.8747692331296 9.99999999999994
vertex 7.94854275846591 -10.9547013776226 9.99999999999997
vertex 9.6928959273374 -12.3637051796912 9.99999999999996
endloop
endfacet
facet normal -4.65413874116507e-16 -3.43784115967785e-15 1.0
outer loop
vertex 18.8147691937532 -18.8747692331296 9.99999999999994
vertex 9.6928959273374 -12.3637051796912 9.99999999999996
vertex 11.4648637194166 -13.7378193801235 9.99999999999996
endloop
endfacet
facet normal -4.65413874116507e-16 -3.43784115967785e-15 1.0
outer loop
vertex 18.8147691937532 -18.8747692331296 9.99999999999994
vertex 11.4648637194166 -13.7378193801235 9.99999999999996
vertex 13.2637484036322 -15.0765029069104 9.99999999999995
endloop
endfacet
facet normal -4.65413874116507e-16 -3.43784115967785e-15 1.0
outer loop
vertex 18.8147691937532 -18.8747692331296 9.99999999999994
vertex 13.2637484036322 -15.0765029069104 9.99999999999995
vertex 15.0888416501015 -16.3792286392455 9.99999999999995
endloop
endfacet
facet normal -4.65413874116507e-16 -3.43784115967785e-15 1.0
outer loop
vertex 18.8147691937532 -18.8747692331296 9.99999999999994
vertex 15.0888416501015 -16.3792286392455 9.99999999999995
vertex 16.9394248090432 -17.6454836150845 9.99999999999994
endloop
endfacet
facet normal -7.85246117502407e-15 0.866025403784439 0.5
outer loop
vertex -5.27583680712395 8.91604255869606 3.52775681356651
vertex -3.00000000000016 8.06604255869609 5.00000000000004
vertex -3.00000000000017 8.91604255869609 3.5277568135665
endloop
endfacet
facet normal -7.85246117502407e-15 0.866025403784439 0.5
outer loop
vertex -3.00000000000016 8.06604255869609 5.00000000000004
vertex -5.27583680712395 8.91604255869606 3.52775681356651
vertex -5.27583680712393 8.06604255869606 5.00000000000006
endloop
endfacet
facet normal 0.813994665643289 0.5808723476843 1.88159692526534e-15
outer loop
vertex 34.1105825908006 6.37905877638123 -1.12798659301916e-14
vertex 32.8171034384265 8.1533492424218 10.0
vertex 34.1105825908006 6.37905877638119 9.99999999999999
endloop
endfacet
facet normal 0.802056364503896 0.597248347137766 1.96220019188658e-15
outer loop
vertex 32.8171034384265 8.1533492424218 10.0
vertex 34.1105825908006 6.37905877638123 -1.12798659301916e-14
vertex 32.8171034384265 8.15334924242185 -2.8199664825479e-15
endloop
endfacet
facet normal -0.839177768665675 0.543857217086708 1.7879225842789e-15
outer loop
vertex -2.29026659933691 20.7503900277372 10.0000000000001
vertex -2.66182963584444 20.1565734686991 5.63993296509579e-14
vertex -2.66182963584446 20.1565734686991 10.0000000000001
endloop
endfacet
facet normal -0.856055225327191 0.51688436926455 -4.65790521290847e-16
outer loop
vertex -2.66182963584444 20.1565734686991 5.63993296509579e-14
vertex -2.29026659933691 20.7503900277372 10.0000000000001
vertex -2.29026659933689 20.7503900277373 5.92192961335058e-14
endloop
endfacet
facet normal -0.967199145803496 -0.25401931492898 -1.59925387036424e-15
outer loop
vertex -5.10870142522139 5.16257659214972 10.0
vertex -4.92000914480769 4.48798603544233 2.04447569984723e-14
vertex -4.9200091448077 4.48798603544227 10.0
endloop
endfacet
facet normal -0.95862820232381 -0.284661148928724 -2.29130004994282e-15
outer loop
vertex -4.92000914480769 4.48798603544233 2.04447569984723e-14
vertex -5.10870142522139 5.16257659214972 10.0
vertex -5.10870142522138 5.16257659214978 2.32647234810202e-14
endloop
endfacet
facet normal -0.887193962153303 -0.461396655296421 -3.32127855605772e-15
outer loop
vertex -3.34735967986414 0.597092832655153 10.0
vertex -3.0143129453977 -0.0191514927124387 -4.93494134445882e-15
vertex -3.01431294539771 -0.0191514927125007 10.0
endloop
endfacet
facet normal -0.872066026177608 -0.489388236461396 -3.48216145133936e-15
outer loop
vertex -3.0143129453977 -0.0191514927124387 -4.93494134445882e-15
vertex -3.34735967986414 0.597092832655153 10.0
vertex -3.34735967986413 0.597092832655215 -2.11497486191092e-15
endloop
endfacet
facet normal 7.89908232986144e-16 -4.34618384457142e-15 1.0
outer loop
vertex 21.8390356888322 19.4625341868849 10.0
vertex 22.7950051120518 19.789854244338 10.0000000000001
vertex 21.232085117392 21.3320851173922 10.0000000000001
endloop
endfacet
facet normal 7.89908232986144e-16 -4.34618384457142e-15 1.0
outer loop
vertex 22.7950051120518 19.789854244338 10.0000000000001
vertex 21.8390356888322 19.4625341868849 10.0
vertex 22.3383501316871 17.561404321492 10.0
endloop
endfacet
facet normal 7.89908232986144e-16 -4.34618384457142e-15 1.0
outer loop
vertex 22.7950051120518 19.789854244338 10.0000000000001
vertex 22.3383501316871 17.561404321492 10.0
vertex 37.7716442734896 0.904069948627366 9.99999999999996
endloop
endfacet
facet normal 7.89908232986144e-16 -4.34618384457142e-15 1.0
outer loop
vertex 22.7950051120518 19.789854244338 10.0000000000001
vertex 37.7716442734896 0.904069948627366 9.99999999999996
vertex 24.3263514641251 18.2162681089451 10.0
endloop
endfacet
facet normal 7.89908232986144e-16 -4.34618384457142e-15 1.0
outer loop
vertex 24.3263514641251 18.2162681089451 10.0
vertex 37.7716442734896 0.904069948627366 9.99999999999996
vertex 25.8254952551899 16.6119729773621 10.0
endloop
endfacet
facet normal 7.89908232986144e-16 -4.34618384457142e-15 1.0
outer loop
vertex 25.8254952551899 16.6119729773621 10.0
vertex 37.7716442734896 0.904069948627366 9.99999999999996
vertex 27.2918207922998 14.9776277278117 10.0
endloop
endfacet
facet normal 7.89908232986144e-16 -4.34618384457142e-15 1.0
outer loop
vertex 27.2918207922998 14.9776277278117 10.0
vertex 37.7716442734896 0.904069948627366 9.99999999999996
vertex 28.724725860847 13.3139035799913 10.0
endloop
endfacet
facet normal 7.89908232986144e-16 -4.34618384457142e-15 1.0
outer loop
vertex 28.724725860847 13.3139035799913 10.0
vertex 37.7716442734896 0.904069948627366 9.99999999999996
vertex 30.1236219718894 11.621483819406 10.0
endloop
endfacet
facet normal 7.89908232986144e-16 -4.34618384457142e-15 1.0
outer loop
vertex 30.1236219718894 11.621483819406 10.0
vertex 37.7716442734896 0.904069948627366 9.99999999999996
vertex 31.4879346038411 9.90106351674578 10.0
endloop
endfacet
facet normal 7.89908232986144e-16 -4.34618384457142e-15 1.0
outer loop
vertex 31.4879346038411 9.90106351674578 10.0
vertex 37.7716442734896 0.904069948627366 9.99999999999996
vertex 32.8171034384265 8.1533492424218 10.0
endloop
endfacet
facet normal 7.89908232986144e-16 -4.34618384457142e-15 1.0
outer loop
vertex 32.8171034384265 8.1533492424218 10.0
vertex 37.7716442734896 0.904069948627366 9.99999999999996
vertex 34.1105825908006 6.37905877638119 9.99999999999999
endloop
endfacet
facet normal 7.89908232986144e-16 -4.34618384457142e-15 1.0
outer loop
vertex 34.1105825908006 6.37905877638119 9.99999999999999
vertex 37.7716442734896 0.904069948627366 9.99999999999996
vertex 35.367840833742 4.57892081331701 9.99999999999998
endloop
endfacet
facet normal 7.89908232986144e-16 -4.34618384457142e-15 1.0
outer loop
vertex 35.367840833742 4.57892081331701 9.99999999999998
vertex 37.7716442734896 0.904069948627366 9.99999999999996
vertex 36.5883618158263 2.7536746633962 9.99999999999997
endloop
endfacet
facet normal -0.901423717988115 0.432937963972303 -8.27480539557078e-16
outer loop
vertex -3.66063266837059 18.3084643679138 10.0000000000001
vertex -3.95381475864932 17.6722871458865 4.65294469620403e-14
vertex -3.95381475864935 17.6722871458865 10.0000000000001
endloop
endfacet
facet normal -0.914740887718252 0.404040973586127 -9.46530495835028e-16
outer loop
vertex -3.95381475864932 17.6722871458865 4.65294469620403e-14
vertex -3.66063266837059 18.3084643679138 10.0000000000001
vertex -3.66063266837057 18.3084643679138 4.93494134445882e-14
endloop
endfacet
facet normal -0.927131989266631 0.374734938961527 -1.06462220067041e-15
outer loop
vertex -4.22660913811786 17.0271046736998 10.0
vertex -4.47873963436664 16.373570123161 3.94795307556706e-14
vertex -4.47873963436667 16.373570123161 10.0
endloop
endfacet
facet normal -0.93858447809191 0.345049529031612 -1.18163610002132e-15
outer loop
vertex -4.47873963436664 16.373570123161 3.94795307556706e-14
vertex -4.22660913811786 17.0271046736998 10.0
vertex -4.22660913811783 17.0271046736998 4.37094804794924e-14
endloop
endfacet
facet normal -0.971117930221453 -0.238600011740154 -9.96934678335514e-16
outer loop
vertex -5.27583680712391 5.84282872188022 10.0
vertex -5.10870142522138 5.16257659214978 2.32647234810202e-14
vertex -5.10870142522139 5.16257659214972 10.0
endloop
endfacet
facet normal -0.967199145803496 -0.25401931492898 -1.59925387036424e-15
outer loop
vertex -5.10870142522138 5.16257659214978 2.32647234810202e-14
vertex -5.27583680712391 5.84282872188022 10.0
vertex -5.27583680712391 5.84282872188022 3.38395977905748e-14
endloop
endfacet
facet normal -1.0 -1.00630586039411e-14 0.0
outer loop
vertex -5.27583680712391 5.84282872188022 10.0
vertex -5.27583680712393 8.06604255869606 5.00000000000006
vertex -5.27583680712391 5.84282872188022 3.38395977905748e-14
endloop
endfacet
facet normal -1.0 -1.00630586039411e-14 0.0
outer loop
vertex -5.27583680712393 8.06604255869606 5.00000000000006
vertex -5.27583680712391 5.84282872188022 10.0
vertex -5.27583680712393 8.91604255869606 6.47224318643359
endloop
endfacet
facet normal -1.0 -1.00630586039411e-14 0.0
outer loop
vertex -5.27583680712393 8.91604255869606 6.47224318643359
vertex -5.27583680712391 5.84282872188022 10.0
vertex -5.27583680712399 13.6892563955119 10.0
endloop
endfacet
facet normal -1.0 -1.00630586039411e-14 0.0
outer loop
vertex -5.27583680712393 8.91604255869606 6.47224318643359
vertex -5.27583680712399 13.6892563955119 10.0
vertex -5.27583680712395 9.76604255869606 6.47224318643359
endloop
endfacet
facet normal -1.0 -1.00630586039411e-14 0.0
outer loop
vertex -5.27583680712395 9.76604255869606 6.47224318643359
vertex -5.27583680712399 13.6892563955119 10.0
vertex -5.27583680712395 10.6160425586961 6.47224318643359
endloop
endfacet
facet normal -1.0 -1.00630586039411e-14 0.0
outer loop
vertex -5.27583680712395 10.6160425586961 6.47224318643359
vertex -5.27583680712399 13.6892563955119 10.0
vertex -5.27583680712397 11.4660425586961 5.00000000000006
endloop
endfacet
facet normal -1.0 -1.00630586039411e-14 0.0
outer loop
vertex -5.27583680712391 5.84282872188022 3.38395977905748e-14
vertex -5.27583680712395 8.91604255869606 3.52775681356651
vertex -5.27583680712399 13.6892563955119 3.38395977905748e-14
endloop
endfacet
facet normal -1.0 -1.00630586039411e-14 0.0
outer loop
vertex -5.27583680712395 8.91604255869606 3.52775681356651
vertex -5.27583680712391 5.84282872188022 3.38395977905748e-14
vertex -5.27583680712393 8.06604255869606 5.00000000000006
endloop
endfacet
facet normal -1.0 -1.00630586039411e-14 0.0
outer loop
vertex -5.27583680712399 13.6892563955119 3.38395977905748e-14
vertex -5.27583680712395 8.91604255869606 3.52775681356651
vertex -5.27583680712395 9.76604255869606 3.52775681356651
endloop
endfacet
facet normal -1.0 -1.00630586039411e-14 0.0
outer loop
vertex -5.27583680712399 13.6892563955119 3.38395977905748e-14
vertex -5.27583680712395 9.76604255869606 3.52775681356651
vertex -5.27583680712397 10.6160425586961 3.52775681356651
endloop
endfacet
facet normal -1.0 -1.00630586039411e-14 0.0
outer loop
vertex -5.27583680712399 13.6892563955119 3.38395977905748e-14
vertex -5.27583680712397 10.6160425586961 3.52775681356651
vertex -5.27583680712397 11.4660425586961 5.00000000000006
endloop
endfacet
facet normal -1.0 -1.00630586039411e-14 0.0
outer loop
vertex -5.27583680712399 13.6892563955119 3.38395977905748e-14
vertex -5.27583680712397 11.4660425586961 5.00000000000006
vertex -5.27583680712399 13.6892563955119 10.0
endloop
endfacet
facet normal -0.95862820232381 -0.284661148928724 -2.29130004994282e-15
outer loop
vertex -4.9200091448077 4.48798603544227 10.0
vertex -4.70995099475164 3.819739995812 1.76247905159244e-14
vertex -4.70995099475165 3.81973999581194 10.0
endloop
endfacet
facet normal -0.949086759888376 -0.315014796802603 -2.46980107329835e-15
outer loop
vertex -4.70995099475164 3.819739995812 1.76247905159244e-14
vertex -4.9200091448077 4.48798603544227 10.0
vertex -4.92000914480769 4.48798603544233 2.04447569984723e-14
endloop
endfacet
facet normal -0.967199145803494 0.254019314928986 -1.11438226060817e-15
outer loop
vertex -5.10870142522146 14.3695085252424 10.0
vertex -5.27583680712399 13.6892563955119 3.38395977905748e-14
vertex -5.27583680712399 13.6892563955119 10.0
endloop
endfacet
facet normal -0.971117930221452 0.238600011740157 -7.59801411610771e-16
outer loop
vertex -5.27583680712399 13.6892563955119 3.38395977905748e-14
vertex -5.10870142522146 14.3695085252424 10.0
vertex -5.10870142522144 14.3695085252425 3.10196313080269e-14
endloop
endfacet
facet normal -0.938584478091913 -0.345049529031604 -2.64580171187829e-15
outer loop
vertex -4.47873963436661 3.15851499423117 10.0
vertex -4.2266091381178 2.50498044369246 1.19848575508286e-14
vertex -4.22660913811781 2.5049804436924 10.0
endloop
endfacet
facet normal -0.927131989266633 -0.374734938961524 -2.81912378561709e-15
outer loop
vertex -4.2266091381178 2.50498044369246 1.19848575508286e-14
vertex -4.47873963436661 3.15851499423117 10.0
vertex -4.47873963436661 3.15851499423124 1.48048240333765e-14
endloop
endfacet
facet normal -0.572864634168227 -0.819649992935584 -3.08444563097603e-15
outer loop
vertex 15.0888416501015 -16.3792286392455 9.99999999999995
vertex 13.2637484036322 -15.0765029069104 -3.89860366212247e-13
vertex 15.0888416501015 -16.3792286392455 -3.92680332694795e-13
endloop
endfacet
facet normal -0.58901569174918 -0.808121596588803 -3.05232976178981e-15
outer loop
vertex 13.2637484036322 -15.0765029069104 -3.89860366212247e-13
vertex 15.0888416501015 -16.3792286392455 9.99999999999995
vertex 13.2637484036322 -15.0765029069104 9.99999999999995
endloop
endfacet
facet normal -0.620615745099491 -0.784114849326681 -2.98450548119416e-15
outer loop
vertex 9.6928959273374 -12.3637051796912 9.99999999999996
vertex 7.94854275846591 -10.9547013776225 -3.75760533799507e-13
vertex 9.6928959273374 -12.3637051796912 -3.81400466764603e-13
endloop
endfacet
facet normal -0.636052298013419 -0.771645951322138 -2.948823776313e-15
outer loop
vertex 7.94854275846591 -10.9547013776225 -3.75760533799507e-13
vertex 9.6928959273374 -12.3637051796912 9.99999999999996
vertex 7.94854275846591 -10.9547013776226 9.99999999999997
endloop
endfacet
facet normal -0.680835425033394 -0.732436430019423 -2.83487035876867e-15
outer loop
vertex 2.88798358020353 -6.52396783784032 9.99999999999998
vertex 1.26084471344627 -4.98108780352662 -3.61660701386768e-13
vertex 2.88798358020353 -6.52396783784029 -3.64480667869316e-13
endloop
endfacet
facet normal -0.695234696730906 -0.718782802007314 -2.79463297523491e-15
outer loop
vertex 1.26084471344627 -4.98108780352662 -3.61660701386768e-13
vertex 2.88798358020353 -6.52396783784032 9.99999999999998
vertex 1.26084471344626 -4.98108780352665 9.99999999999998
endloop
endfacet
facet normal -0.716318569322003 -0.69777339247386 1.69980637286285e-15
outer loop
vertex -1.90000000000009 -1.79999999999997 9.99999999999999
vertex -0.335359320698743 -3.40622515130101 -3.5884073490422e-13
vertex -0.335359320698748 -3.40622515130104 9.99999999999998
endloop
endfacet
facet normal -0.709360212408689 -0.704846145659817 -5.371735639954e-16
outer loop
vertex -0.335359320698743 -3.40622515130101 -3.5884073490422e-13
vertex -1.90000000000009 -1.79999999999997 9.99999999999999
vertex -1.90000000000019 -1.79999999999996 -1.12798659301916e-14
endloop
endfacet
facet normal -0.556488005074767 -0.830855643423036 -2.69149640971544e-15
outer loop
vertex 16.9394248090432 -17.6454836150845 9.99999999999994
vertex 15.0888416501015 -16.3792286392455 -3.92680332694795e-13
vertex 16.9394248090432 -17.6454836150845 -3.98320265659891e-13
endloop
endfacet
facet normal -0.572864634168227 -0.819649992935584 -3.08444563097603e-15
outer loop
vertex 15.0888416501015 -16.3792286392455 -3.92680332694795e-13
vertex 16.9394248090432 -17.6454836150845 9.99999999999994
vertex 15.0888416501015 -16.3792286392455 9.99999999999995
endloop
endfacet
facet normal 1.70726819276844e-15 1.44606530818257e-15 -1.0
outer loop
vertex -5.10870142522144 14.3695085252425 3.10196313080269e-14
vertex -5.27583680712391 5.84282872188022 3.38395977905748e-14
vertex -5.27583680712399 13.6892563955119 3.38395977905748e-14
endloop
endfacet
facet normal 1.70726819276844e-15 1.44606530818257e-15 -1.0
outer loop
vertex -5.27583680712391 5.84282872188022 3.38395977905748e-14
vertex -5.10870142522144 14.3695085252425 3.10196313080269e-14
vertex -2.03742578364086e-13 9.71604255869609 4.51194637207663e-14
endloop
endfacet
facet normal 1.70726819276844e-15 1.44606530818257e-15 -1.0
outer loop
vertex -2.03742578364086e-13 9.71604255869609 4.51194637207663e-14
vertex -5.10870142522144 14.3695085252425 3.10196313080269e-14
vertex -4.92000914480774 15.0440990819499 3.38395977905748e-14
endloop
endfacet
facet normal 1.70726819276844e-15 1.44606530818257e-15 -1.0
outer loop
vertex -2.03742578364086e-13 9.71604255869609 4.51194637207663e-14
vertex -4.92000914480774 15.0440990819499 3.38395977905748e-14
vertex -4.70995099475169 15.7123451215803 3.66595642731227e-14
endloop
endfacet
facet normal 1.70726819276844e-15 1.44606530818257e-15 -1.0
outer loop
vertex -2.03742578364086e-13 9.71604255869609 4.51194637207663e-14
vertex -4.70995099475169 15.7123451215803 3.66595642731227e-14
vertex -4.47873963436664 16.373570123161 3.94795307556706e-14
endloop
endfacet
facet normal 1.70726819276844e-15 1.44606530818257e-15 -1.0
outer loop
vertex -2.03742578364086e-13 9.71604255869609 4.51194637207663e-14
vertex -4.47873963436664 16.373570123161 3.94795307556706e-14
vertex -4.22660913811783 17.0271046736998 4.37094804794924e-14
endloop
endfacet
facet normal 1.70726819276844e-15 1.44606530818257e-15 -1.0
outer loop
vertex -2.03742578364086e-13 9.71604255869609 4.51194637207663e-14
vertex -4.22660913811783 17.0271046736998 4.37094804794924e-14
vertex -3.95381475864932 17.6722871458865 4.65294469620403e-14
endloop
endfacet
facet normal 1.70726819276844e-15 1.44606530818257e-15 -1.0
outer loop
vertex -2.03742578364086e-13 9.71604255869609 4.51194637207663e-14
vertex -3.95381475864932 17.6722871458865 4.65294469620403e-14
vertex -3.66063266837057 18.3084643679138 4.93494134445882e-14
endloop
endfacet
facet normal 1.70726819276844e-15 1.44606530818257e-15 -1.0
outer loop
vertex -2.03742578364086e-13 9.71604255869609 4.51194637207663e-14
vertex -3.66063266837057 18.3084643679138 4.93494134445882e-14
vertex -3.34735967986415 18.9349922847371 5.07593966858621e-14
endloop
endfacet
facet normal 1.70726819276844e-15 1.44606530818257e-15 -1.0
outer loop
vertex -2.03742578364086e-13 9.71604255869609 4.51194637207663e-14
vertex -3.34735967986415 18.9349922847371 5.07593966858621e-14
vertex -3.01431294539771 19.5512366101047 5.357936316841e-14
endloop
endfacet
facet normal 1.70726819276844e-15 1.44606530818257e-15 -1.0
outer loop
vertex -2.03742578364086e-13 9.71604255869609 4.51194637207663e-14
vertex -3.01431294539771 19.5512366101047 5.357936316841e-14
vertex -2.66182963584444 20.1565734686991 5.63993296509579e-14
endloop
endfacet
facet normal 1.70726819276844e-15 1.44606530818257e-15 -1.0
outer loop
vertex -2.03742578364086e-13 9.71604255869609 4.51194637207663e-14
vertex -2.66182963584444 20.1565734686991 5.63993296509579e-14
vertex -2.29026659933689 20.7503900277373 5.92192961335058e-14
endloop
endfacet
facet normal 1.70726819276844e-15 1.44606530818257e-15 -1.0
outer loop
vertex -2.03742578364086e-13 9.71604255869609 4.51194637207663e-14
vertex -2.29026659933689 20.7503900277373 5.92192961335058e-14
vertex -1.90000000000019 21.3320851173922 6.76791955811495e-14
endloop
endfacet
facet normal 1.70726819276844e-15 1.44606530818257e-15 -1.0
outer loop
vertex -2.03742578364086e-13 9.71604255869609 4.51194637207663e-14
vertex -1.90000000000019 21.3320851173922 6.76791955811495e-14
vertex -2.03742578364086e-13 19.4320851173922 3.38395977905748e-14
endloop
endfacet
facet normal -0.651238398603456 -0.758873209557701 -2.91198094086161e-15
outer loop
vertex 6.23249107032346 -9.51136278407658 9.99999999999997
vertex 4.54541657642372 -8.03425772889977 -3.70120600834412e-13
vertex 6.23249107032346 -9.51136278407654 -3.72940567316959e-13
endloop
endfacet
facet normal -0.666168067181781 -0.74580165343561 -2.87399148209636e-15
outer loop
vertex 4.54541657642372 -8.03425772889977 -3.70120600834412e-13
vertex 6.23249107032346 -9.51136278407658 9.99999999999997
vertex 4.54541657642371 -8.0342577288998 9.99999999999997
endloop
endfacet
facet normal 2.83585985291454e-16 -1.64307089727741e-15 1.0
outer loop
vertex 28.2932067336214 -8.98534964225111 9.99999999999995
vertex 35.0121111736148 1.12772465699908 9.99999999999998
vertex 26.8834259551289 -7.45963917338445 9.99999999999996
endloop
endfacet
facet normal 2.83585985291454e-16 -1.64307089727741e-15 1.0
outer loop
vertex 35.0121111736148 1.12772465699908 9.99999999999998
vertex 28.2932067336214 -8.98534964225111 9.99999999999995
vertex 37.7716442734896 0.904069948627366 9.99999999999996
endloop
endfacet
facet normal 2.83585985291454e-16 -1.64307089727741e-15 1.0
outer loop
vertex 21.2320851173921 -1.79999999999999 9.99999999999999
vertex 19.332085117392 19.4320851173922 10.0
vertex 19.332085117392 2.8199664825479e-15 10.0000000000001
endloop
endfacet
facet normal 2.83585985291454e-16 -1.64307089727741e-15 1.0
outer loop
vertex 19.332085117392 19.4320851173922 10.0
vertex 21.2320851173921 -1.79999999999999 9.99999999999999
vertex 19.3625341868848 21.9390356888328 10.0
endloop
endfacet
facet normal 2.83585985291454e-16 -1.64307089727741e-15 1.0
outer loop
vertex 19.3625341868848 21.9390356888328 10.0
vertex 21.2320851173921 -1.79999999999999 9.99999999999999
vertex 21.232085117392 21.3320851173922 10.0000000000001
endloop
endfacet
facet normal 2.83585985291454e-16 -1.64307089727741e-15 1.0
outer loop
vertex 21.232085117392 21.3320851173922 10.0000000000001
vertex 21.2320851173921 -1.79999999999999 9.99999999999999
vertex 21.8390356888322 19.4625341868849 10.0
endloop
endfacet
facet normal 2.83585985291454e-16 -1.64307089727741e-15 1.0
outer loop
vertex 21.8390356888322 19.4625341868849 10.0
vertex 21.2320851173921 -1.79999999999999 9.99999999999999
vertex 22.3383501316871 17.561404321492 10.0
endloop
endfacet
facet normal 2.83585985291454e-16 -1.64307089727741e-15 1.0
outer loop
vertex 22.3383501316871 17.561404321492 10.0
vertex 21.2320851173921 -1.79999999999999 9.99999999999999
vertex 29.4850208923215 6.91143220686994 10.0
endloop
endfacet
facet normal 2.83585985291454e-16 -1.64307089727741e-15 1.0
outer loop
vertex 22.3383501316871 17.561404321492 10.0
vertex 29.4850208923215 6.91143220686994 10.0
vertex 37.7716442734896 0.904069948627366 9.99999999999996
endloop
endfacet
facet normal 2.83585985291454e-16 -1.64307089727741e-15 1.0
outer loop
vertex 37.7716442734896 0.904069948627366 9.99999999999996
vertex 29.4850208923215 6.91143220686994 10.0
vertex 35.0121111736148 1.12772465699908 9.99999999999998
endloop
endfacet
facet normal 2.83585985291454e-16 -1.64307089727741e-15 1.0
outer loop
vertex -1.05043751474909e-13 19.4320851173922 10.0
vertex -0.0304490694928248 21.9390356888328 10.0
vertex -1.90000000000009 21.3320851173922 10.0000000000001
endloop
endfacet
facet normal 2.83585985291454e-16 -1.64307089727741e-15 1.0
outer loop
vertex -0.0304490694928248 21.9390356888328 10.0
vertex -1.05043751474909e-13 19.4320851173922 10.0
vertex 1.87068079590003 22.4383501316877 10.0
endloop
endfacet
facet normal 2.83585985291454e-16 -1.64307089727741e-15 1.0
outer loop
vertex 1.87068079590003 22.4383501316877 10.0
vertex -1.05043751474909e-13 19.4320851173922 10.0
vertex 19.332085117392 19.4320851173922 10.0
endloop
endfacet
facet normal 2.83585985291454e-16 -1.64307089727741e-15 1.0
outer loop
vertex 1.87068079590003 22.4383501316877 10.0
vertex 19.332085117392 19.4320851173922 10.0
vertex 3.7971981138847 22.8284023095274 10.0
endloop
endfacet
facet normal 2.83585985291454e-16 -1.64307089727741e-15 1.0
outer loop
vertex 3.7971981138847 22.8284023095274 10.0
vertex 19.332085117392 19.4320851173922 10.0
vertex 5.74282872188013 23.1079219245165 10.0
endloop
endfacet
facet normal 2.83585985291454e-16 -1.64307089727741e-15 1.0
outer loop
vertex 5.74282872188013 23.1079219245165 10.0
vertex 19.332085117392 19.4320851173922 10.0
vertex 7.70123621032319 23.2759986544416 10.0
endloop
endfacet
facet normal 2.83585985291454e-16 -1.64307089727741e-15 1.0
outer loop
vertex 7.70123621032319 23.2759986544416 10.0
vertex 19.332085117392 19.4320851173922 10.0
vertex 9.66604255869597 23.3320851173925 10.0
endloop
endfacet
facet normal 2.83585985291454e-16 -1.64307089727741e-15 1.0
outer loop
vertex 9.66604255869597 23.3320851173925 10.0
vertex 19.332085117392 19.4320851173922 10.0
vertex 11.6308489070687 23.2759986544416 10.0
endloop
endfacet
facet normal 2.83585985291454e-16 -1.64307089727741e-15 1.0
outer loop
vertex 11.6308489070687 23.2759986544416 10.0
vertex 19.332085117392 19.4320851173922 10.0
vertex 13.5892563955118 23.1079219245165 10.0
endloop
endfacet
facet normal 2.83585985291454e-16 -1.64307089727741e-15 1.0
outer loop
vertex 13.5892563955118 23.1079219245165 10.0
vertex 19.332085117392 19.4320851173922 10.0
vertex 15.5348870035072 22.8284023095274 10.0
endloop
endfacet
facet normal 2.83585985291454e-16 -1.64307089727741e-15 1.0
outer loop
vertex 15.5348870035072 22.8284023095274 10.0
vertex 19.332085117392 19.4320851173922 10.0
vertex 17.4614043214919 22.4383501316877 10.0
endloop
endfacet
facet normal 2.83585985291454e-16 -1.64307089727741e-15 1.0
outer loop
vertex 17.4614043214919 22.4383501316877 10.0
vertex 19.332085117392 19.4320851173922 10.0
vertex 19.3625341868848 21.9390356888328 10.0
endloop
endfacet
facet normal 0.0285339193768551 0.999592824826687 2.41377216178805e-16
outer loop
vertex 9.66604255869597 23.3320851173925 10.0
vertex 11.6308489070688 23.2759986544416 5.63993296509579e-15
vertex 9.66604255869605 23.3320851173925 0.0
endloop
endfacet
facet normal 0.0285339193768551 0.999592824826687 2.41377216178805e-16
outer loop
vertex 11.6308489070688 23.2759986544416 5.63993296509579e-15
vertex 9.66604255869597 23.3320851173925 10.0
vertex 11.6308489070687 23.2759986544416 10.0
endloop
endfacet
facet normal 0.737526585429436 0.675318099701761 2.3524782929936e-15
outer loop
vertex 25.8254952551899 16.6119729773622 4.22994972382185e-14
vertex 24.3263514641251 18.2162681089451 10.0
vertex 25.8254952551899 16.6119729773621 10.0
endloop
endfacet
facet normal 0.723690080993991 0.690125109433725 2.42776184824638e-15
outer loop
vertex 24.3263514641251 18.2162681089451 10.0
vertex 25.8254952551899 16.6119729773622 4.22994972382185e-14
vertex 24.3263514641251 18.2162681089452 5.07593966858621e-14
endloop
endfacet
facet normal 0.142205261995824 0.98983719038067 2.27531885582859e-15
outer loop
vertex 13.5892563955118 23.1079219245165 10.0
vertex 15.5348870035073 22.8284023095274 2.25597318603832e-14
vertex 13.5892563955119 23.1079219245165 1.12798659301916e-14
endloop
endfacet
facet normal 0.142205261995824 0.98983719038067 2.27531885582859e-15
outer loop
vertex 15.5348870035073 22.8284023095274 2.25597318603832e-14
vertex 13.5892563955118 23.1079219245165 10.0
vertex 15.5348870035072 22.8284023095274 10.0
endloop
endfacet
facet normal 0.842367448563638 0.538903592120507 1.4280322272074e-15
outer loop
vertex 37.7716442734896 0.904069948627403 -3.51007670367763e-14
vertex 36.5883618158263 2.7536746633962 9.99999999999997
vertex 37.7716442734896 0.904069948627366 9.99999999999996
endloop
endfacet
facet normal 0.836863588185253 0.547411485785331 1.59372469423669e-15
outer loop
vertex 36.5883618158263 2.7536746633962 9.99999999999997
vertex 37.7716442734896 0.904069948627403 -3.51007670367763e-14
vertex 36.5883618158263 2.75367466339624 -2.8199664825479e-14
endloop
endfacet
facet normal 0.802056364503896 0.597248347137766 1.96220019188658e-15
outer loop
vertex 32.8171034384265 8.15334924242185 -2.8199664825479e-15
vertex 31.4879346038411 9.90106351674578 10.0
vertex 32.8171034384265 8.1533492424218 10.0
endloop
endfacet
facet normal 0.789788661709266 0.613379058849817 2.04199758996824e-15
outer loop
vertex 31.4879346038411 9.90106351674578 10.0
vertex 32.8171034384265 8.15334924242185 -2.8199664825479e-15
vertex 31.4879346038411 9.90106351674582 5.63993296509579e-15
endloop
endfacet
facet normal 0.702379851898841 0.711802320624598 4.87672587332595e-15
outer loop
vertex 21.2320851173921 21.3320851173922 6.76791955811495e-14
vertex 22.7950051120518 19.789854244338 10.0000000000001
vertex 22.7950051120518 19.789854244338 5.92192961335058e-14
endloop
endfacet
facet normal 0.709556359653215 0.704648687273082 3.67106722328642e-15
outer loop
vertex 22.7950051120518 19.789854244338 10.0000000000001
vertex 21.2320851173921 21.3320851173922 6.76791955811495e-14
vertex 21.232085117392 21.3320851173922 10.0000000000001
endloop
endfacet
facet normal 1.0 -1.89232375753212e-30 -1.01756775487797e-14
outer loop
vertex -3.00000000000018 8.11604255869609 2.22871870788987
vertex -3.00000000000016 8.06604255869609 5.00000000000004
vertex -3.00000000000015 6.51604255869609 5.00000000000007
endloop
endfacet
facet normal 1.0 -1.89232375753212e-30 -1.01756775487797e-14
outer loop
vertex -3.00000000000016 8.06604255869609 5.00000000000004
vertex -3.00000000000018 8.11604255869609 2.22871870788987
vertex -3.00000000000017 8.91604255869609 3.5277568135665
endloop
endfacet
facet normal 1.0 -1.89232375753212e-30 -1.01756775487797e-14
outer loop
vertex -3.00000000000017 8.91604255869609 3.5277568135665
vertex -3.00000000000018 8.11604255869609 2.22871870788987
vertex -3.00000000000018 9.71604255869609 2.22871870788987
endloop
endfacet
facet normal 1.0 -1.89232375753212e-30 -1.01756775487797e-14
outer loop
vertex -3.00000000000017 8.91604255869609 3.5277568135665
vertex -3.00000000000018 9.71604255869609 2.22871870788987
vertex -3.00000000000018 9.76604255869609 3.5277568135665
endloop
endfacet
facet normal 1.0 -1.89232375753212e-30 -1.01756775487797e-14
outer loop
vertex -3.00000000000018 9.76604255869609 3.5277568135665
vertex -3.00000000000018 9.71604255869609 2.22871870788987
vertex -3.00000000000018 11.3160425586961 2.22871870788987
endloop
endfacet
facet normal 1.0 -1.89232375753212e-30 -1.01756775487797e-14
outer loop
vertex -3.00000000000018 9.76604255869609 3.5277568135665
vertex -3.00000000000018 11.3160425586961 2.22871870788987
vertex -3.00000000000019 10.6160425586961 3.5277568135665
endloop
endfacet
facet normal 1.0 -1.89232375753212e-30 -1.01756775487797e-14
outer loop
vertex -3.00000000000019 10.6160425586961 3.5277568135665
vertex -3.00000000000018 11.3160425586961 2.22871870788987
vertex -3.00000000000019 11.4660425586961 5.00000000000004
endloop
endfacet
facet normal 1.0 -1.89232375753212e-30 -1.01756775487797e-14
outer loop
vertex -3.00000000000019 11.4660425586961 5.00000000000004
vertex -3.00000000000018 11.3160425586961 2.22871870788987
vertex -3.00000000000015 12.9160425586961 5.00000000000007
endloop
endfacet
facet normal 1.0 -1.89232375753212e-30 -1.01756775487797e-14
outer loop
vertex -3.00000000000016 8.06604255869609 5.00000000000004
vertex -3.00000000000012 8.11604255869609 7.77128129211029
vertex -3.00000000000015 6.51604255869609 5.00000000000007
endloop
endfacet
facet normal 1.0 -1.89232375753212e-30 -1.01756775487797e-14
outer loop
vertex -3.00000000000012 8.11604255869609 7.77128129211029
vertex -3.00000000000016 8.06604255869609 5.00000000000004
vertex -3.00000000000016 8.91604255869609 6.47224318643359
endloop
endfacet
facet normal 1.0 -1.89232375753212e-30 -1.01756775487797e-14
outer loop
vertex -3.00000000000012 8.11604255869609 7.77128129211029
vertex -3.00000000000016 8.91604255869609 6.47224318643359
vertex -3.00000000000012 9.71604255869609 7.77128129211029
endloop
endfacet
facet normal 1.0 -1.89232375753212e-30 -1.01756775487797e-14
outer loop
vertex -3.00000000000012 9.71604255869609 7.77128129211029
vertex -3.00000000000016 8.91604255869609 6.47224318643359
vertex -3.00000000000017 9.76604255869609 6.47224318643359
endloop
endfacet
facet normal 1.0 -1.89232375753212e-30 -1.01756775487797e-14
outer loop
vertex -3.00000000000012 9.71604255869609 7.77128129211029
vertex -3.00000000000017 9.76604255869609 6.47224318643359
vertex -3.00000000000012 11.3160425586961 7.77128129211029
endloop
endfacet
facet normal 1.0 -1.89232375753212e-30 -1.01756775487797e-14
outer loop
vertex -3.00000000000012 11.3160425586961 7.77128129211029
vertex -3.00000000000017 9.76604255869609 6.47224318643359
vertex -3.00000000000017 10.6160425586961 6.47224318643359
endloop
endfacet
facet normal 1.0 -1.89232375753212e-30 -1.01756775487797e-14
outer loop
vertex -3.00000000000012 11.3160425586961 7.77128129211029
vertex -3.00000000000017 10.6160425586961 6.47224318643359
vertex -3.00000000000019 11.4660425586961 5.00000000000004
endloop
endfacet
facet normal 1.0 -1.89232375753212e-30 -1.01756775487797e-14
outer loop
vertex -3.00000000000012 11.3160425586961 7.77128129211029
vertex -3.00000000000019 11.4660425586961 5.00000000000004
vertex -3.00000000000015 12.9160425586961 5.00000000000007
endloop
endfacet
facet normal -5.1740072908188e-15 0.866025403784439 -0.499999999999999
outer loop
vertex -3.00000000000015 6.51604255869609 5.00000000000007
vertex -1.24783516852744e-13 8.11604255869609 7.77128129211025
vertex -1.52983181678223e-13 6.51604255869609 5.00000000000004
endloop
endfacet
facet normal -5.1740072908188e-15 0.866025403784439 -0.499999999999999
outer loop
vertex -1.24783516852744e-13 8.11604255869609 7.77128129211025
vertex -3.00000000000015 6.51604255869609 5.00000000000007
vertex -3.00000000000012 8.11604255869609 7.77128129211029
endloop
endfacet
facet normal 0.254025611645397 0.967197492050192 3.20449529140868e-15
outer loop
vertex 17.4614043214919 22.4383501316877 10.0
vertex 19.3625341868849 21.9390356888328 4.51194637207663e-14
vertex 17.461404321492 22.4383501316877 3.38395977905748e-14
endloop
endfacet
facet normal 0.254025611645397 0.967197492050192 3.20449529140868e-15
outer loop
vertex 19.3625341868849 21.9390356888328 4.51194637207663e-14
vertex 17.4614043214919 22.4383501316877 10.0
vertex 19.3625341868848 21.9390356888328 10.0
endloop
endfacet
facet normal 1.5691848984154e-15 6.09645925573735e-15 -1.0
outer loop
vertex -0.0304490694929235 21.9390356888328 4.51194637207663e-14
vertex -2.03742578364086e-13 19.4320851173922 3.38395977905748e-14
vertex -1.90000000000019 21.3320851173922 6.76791955811495e-14
endloop
endfacet
facet normal 1.5691848984154e-15 6.09645925573735e-15 -1.0
outer loop
vertex -2.03742578364086e-13 19.4320851173922 3.38395977905748e-14
vertex -0.0304490694929235 21.9390356888328 4.51194637207663e-14
vertex 1.87068079589993 22.4383501316877 3.38395977905748e-14
endloop
endfacet
facet normal 1.5691848984154e-15 6.09645925573735e-15 -1.0
outer loop
vertex -2.03742578364086e-13 19.4320851173922 3.38395977905748e-14
vertex 1.87068079589993 22.4383501316877 3.38395977905748e-14
vertex 19.3320851173921 19.4320851173922 3.38395977905748e-14
endloop
endfacet
facet normal 1.5691848984154e-15 6.09645925573735e-15 -1.0
outer loop
vertex 19.3320851173921 19.4320851173922 3.38395977905748e-14
vertex 1.87068079589993 22.4383501316877 3.38395977905748e-14
vertex 3.7971981138846 22.8284023095274 2.25597318603832e-14
endloop
endfacet
facet normal 1.5691848984154e-15 6.09645925573735e-15 -1.0
outer loop
vertex 19.3320851173921 19.4320851173922 3.38395977905748e-14
vertex 3.7971981138846 22.8284023095274 2.25597318603832e-14
vertex 5.74282872188003 23.1079219245165 1.12798659301916e-14
endloop
endfacet
facet normal 1.5691848984154e-15 6.09645925573735e-15 -1.0
outer loop
vertex 19.3320851173921 19.4320851173922 3.38395977905748e-14
vertex 5.74282872188003 23.1079219245165 1.12798659301916e-14
vertex 7.7012362103231 23.2759986544416 5.63993296509579e-15
endloop
endfacet
facet normal 1.5691848984154e-15 6.09645925573735e-15 -1.0
outer loop
vertex 19.3320851173921 19.4320851173922 3.38395977905748e-14
vertex 7.7012362103231 23.2759986544416 5.63993296509579e-15
vertex 9.66604255869605 23.3320851173925 0.0
endloop
endfacet
facet normal 1.5691848984154e-15 6.09645925573735e-15 -1.0
outer loop
vertex 19.3320851173921 19.4320851173922 3.38395977905748e-14
vertex 9.66604255869605 23.3320851173925 0.0
vertex 11.6308489070688 23.2759986544416 5.63993296509579e-15
endloop
endfacet
facet normal 1.5691848984154e-15 6.09645925573735e-15 -1.0
outer loop
vertex 19.3320851173921 19.4320851173922 3.38395977905748e-14
vertex 11.6308489070688 23.2759986544416 5.63993296509579e-15
vertex 13.5892563955119 23.1079219245165 1.12798659301916e-14
endloop
endfacet
facet normal 1.5691848984154e-15 6.09645925573735e-15 -1.0
outer loop
vertex 19.3320851173921 19.4320851173922 3.38395977905748e-14
vertex 13.5892563955119 23.1079219245165 1.12798659301916e-14
vertex 15.5348870035073 22.8284023095274 2.25597318603832e-14
endloop
endfacet
facet normal 1.5691848984154e-15 6.09645925573735e-15 -1.0
outer loop
vertex 19.3320851173921 19.4320851173922 3.38395977905748e-14
vertex 15.5348870035073 22.8284023095274 2.25597318603832e-14
vertex 17.461404321492 22.4383501316877 3.38395977905748e-14
endloop
endfacet
facet normal 1.5691848984154e-15 6.09645925573735e-15 -1.0
outer loop
vertex 19.3320851173921 19.4320851173922 3.38395977905748e-14
vertex 17.461404321492 22.4383501316877 3.38395977905748e-14
vertex 19.3625341868849 21.9390356888328 4.51194637207663e-14
endloop
endfacet
facet normal 1.5691848984154e-15 6.09645925573735e-15 -1.0
outer loop
vertex 19.3320851173921 19.4320851173922 3.38395977905748e-14
vertex 19.3625341868849 21.9390356888328 4.51194637207663e-14
vertex 19.3320851173921 1.40998324127395e-14 5.63993296509579e-14
endloop
endfacet
facet normal 1.5691848984154e-15 6.09645925573735e-15 -1.0
outer loop
vertex 19.3320851173921 1.40998324127395e-14 5.63993296509579e-14
vertex 19.3625341868849 21.9390356888328 4.51194637207663e-14
vertex 21.1834364687435 -1.85135135135132 6.00480489035863e-15
endloop
endfacet
facet normal 1.5691848984154e-15 6.09645925573735e-15 -1.0
outer loop
vertex 21.1834364687435 -1.85135135135132 6.00480489035863e-15
vertex 19.3625341868849 21.9390356888328 4.51194637207663e-14
vertex 21.2320851173921 21.3320851173922 6.76791955811495e-14
endloop
endfacet
facet normal 1.5691848984154e-15 6.09645925573735e-15 -1.0
outer loop
vertex 21.1834364687435 -1.85135135135132 6.00480489035863e-15
vertex 21.2320851173921 21.3320851173922 6.76791955811495e-14
vertex 29.4850208923215 6.91143220686998 1.19110846868747e-14
endloop
endfacet
facet normal 1.5691848984154e-15 6.09645925573735e-15 -1.0
outer loop
vertex 29.4850208923215 6.91143220686998 1.19110846868747e-14
vertex 21.2320851173921 21.3320851173922 6.76791955811495e-14
vertex 22.7950051120518 19.789854244338 5.92192961335058e-14
endloop
endfacet
facet normal 1.5691848984154e-15 6.09645925573735e-15 -1.0
outer loop
vertex 29.4850208923215 6.91143220686998 1.19110846868747e-14
vertex 22.7950051120518 19.789854244338 5.92192961335058e-14
vertex 24.3263514641251 18.2162681089452 5.07593966858621e-14
endloop
endfacet
facet normal 1.5691848984154e-15 6.09645925573735e-15 -1.0
outer loop
vertex 29.4850208923215 6.91143220686998 1.19110846868747e-14
vertex 24.3263514641251 18.2162681089452 5.07593966858621e-14
vertex 25.8254952551899 16.6119729773622 4.22994972382185e-14
endloop
endfacet
facet normal 1.5691848984154e-15 6.09645925573735e-15 -1.0
outer loop
vertex 29.4850208923215 6.91143220686998 1.19110846868747e-14
vertex 25.8254952551899 16.6119729773622 4.22994972382185e-14
vertex 27.2918207922998 14.9776277278117 3.38395977905748e-14
endloop
endfacet
facet normal 1.5691848984154e-15 6.09645925573735e-15 -1.0
outer loop
vertex 29.4850208923215 6.91143220686998 1.19110846868747e-14
vertex 27.2918207922998 14.9776277278117 3.38395977905748e-14
vertex 28.724725860847 13.3139035799913 2.25597318603832e-14
endloop
endfacet
facet normal 1.5691848984154e-15 6.09645925573735e-15 -1.0
outer loop
vertex 29.4850208923215 6.91143220686998 1.19110846868747e-14
vertex 28.724725860847 13.3139035799913 2.25597318603832e-14
vertex 30.1236219718894 11.6214838194061 1.40998324127395e-14
endloop
endfacet
facet normal 1.5691848984154e-15 6.09645925573735e-15 -1.0
outer loop
vertex 29.4850208923215 6.91143220686998 1.19110846868747e-14
vertex 30.1236219718894 11.6214838194061 1.40998324127395e-14
vertex 35.0121111736148 1.12772465699912 -2.12392699335367e-14
endloop
endfacet
facet normal 1.5691848984154e-15 6.09645925573735e-15 -1.0
outer loop
vertex 35.0121111736148 1.12772465699912 -2.12392699335367e-14
vertex 30.1236219718894 11.6214838194061 1.40998324127395e-14
vertex 31.4879346038411 9.90106351674582 5.63993296509579e-15
endloop
endfacet
facet normal 1.5691848984154e-15 6.09645925573735e-15 -1.0
outer loop
vertex 35.0121111736148 1.12772465699912 -2.12392699335367e-14
vertex 31.4879346038411 9.90106351674582 5.63993296509579e-15
vertex 32.8171034384265 8.15334924242185 -2.8199664825479e-15
endloop
endfacet
facet normal 1.5691848984154e-15 6.09645925573735e-15 -1.0
outer loop
vertex 35.0121111736148 1.12772465699912 -2.12392699335367e-14
vertex 32.8171034384265 8.15334924242185 -2.8199664825479e-15
vertex 34.1105825908006 6.37905877638123 -1.12798659301916e-14
endloop
endfacet
facet normal 1.5691848984154e-15 6.09645925573735e-15 -1.0
outer loop
vertex 35.0121111736148 1.12772465699912 -2.12392699335367e-14
vertex 34.1105825908006 6.37905877638123 -1.12798659301916e-14
vertex 35.367840833742 4.57892081331706 -1.97397653778353e-14
endloop
endfacet
facet normal 1.5691848984154e-15 6.09645925573735e-15 -1.0
outer loop
vertex 35.0121111736148 1.12772465699912 -2.12392699335367e-14
vertex 28.3540026997108 -8.92191758231906 -2.58718113042027e-13
vertex 26.8874612722135 -7.45537615482176 -2.41068257688144e-13
endloop
endfacet
facet normal 1.5691848984154e-15 6.09645925573735e-15 -1.0
outer loop
vertex 28.3540026997108 -8.92191758231906 -2.58718113042027e-13
vertex 35.0121111736148 1.12772465699912 -2.12392699335367e-14
vertex 37.7716442734896 0.904069948627403 -3.51007670367763e-14
endloop
endfacet
facet normal 1.5691848984154e-15 6.09645925573735e-15 -1.0
outer loop
vertex 37.7716442734896 0.904069948627403 -3.51007670367763e-14
vertex 35.0121111736148 1.12772465699912 -2.12392699335367e-14
vertex 35.367840833742 4.57892081331706 -1.97397653778353e-14
endloop
endfacet
facet normal 1.5691848984154e-15 6.09645925573735e-15 -1.0
outer loop
vertex 37.7716442734896 0.904069948627403 -3.51007670367763e-14
vertex 35.367840833742 4.57892081331706 -1.97397653778353e-14
vertex 36.5883618158263 2.75367466339624 -2.8199664825479e-14
endloop
endfacet
facet normal -0.726236029889503 0.687445437027793 3.71819552035194e-15
outer loop
vertex 26.8834259551289 -7.45963917338445 9.99999999999996
vertex 18.7547407366431 -16.0470030037679 -5.2980424099169e-14
vertex 18.7547407366431 -16.047003003768 9.99999999999994
endloop
endfacet
facet normal -0.726236029889503 0.687445437027793 3.71819552035194e-15
outer loop
vertex 18.7547407366431 -16.0470030037679 -5.2980424099169e-14
vertex 26.8834259551289 -7.45963917338445 9.99999999999996
vertex 26.8874612722135 -7.45537615482176 -2.41068257688144e-13
endloop
endfacet
facet normal -0.726236029889503 0.687445437027793 3.71819552035194e-15
outer loop
vertex 26.8874612722135 -7.45537615482176 -2.41068257688144e-13
vertex 26.8834259551289 -7.45963917338445 9.99999999999996
vertex 35.0121111736148 1.12772465699908 9.99999999999998
endloop
endfacet
facet normal -0.726236029889503 0.687445437027793 3.71819552035194e-15
outer loop
vertex 26.8874612722135 -7.45537615482176 -2.41068257688144e-13
vertex 35.0121111736148 1.12772465699908 9.99999999999998
vertex 35.0121111736148 1.12772465699912 -2.12392699335367e-14
endloop
endfacet
facet normal 9.94354139251364e-15 -0.866025403784438 -0.500000000000002
outer loop
vertex -3.00000000000017 10.6160425586961 6.47224318643359
vertex -5.27583680712397 11.4660425586961 5.00000000000006
vertex -3.00000000000019 11.4660425586961 5.00000000000004
endloop
endfacet
facet normal 9.94354139251364e-15 -0.866025403784438 -0.500000000000002
outer loop
vertex -5.27583680712397 11.4660425586961 5.00000000000006
vertex -3.00000000000017 10.6160425586961 6.47224318643359
vertex -5.27583680712395 10.6160425586961 6.47224318643359
endloop
endfacet
facet normal 0.825598662110234 0.564257786053318 1.80022089357535e-15
outer loop
vertex 35.367840833742 4.57892081331706 -1.97397653778353e-14
vertex 34.1105825908006 6.37905877638119 9.99999999999999
vertex 35.367840833742 4.57892081331701 9.99999999999998
endloop
endfacet
facet normal 0.813994665643289 0.5808723476843 1.88159692526534e-15
outer loop
vertex 34.1105825908006 6.37905877638119 9.99999999999999
vertex 35.367840833742 4.57892081331706 -1.97397653778353e-14
vertex 34.1105825908006 6.37905877638123 -1.12798659301916e-14
endloop
endfacet
facet normal -0.308785360317526 0.951131747579469 3.04447194405971e-15
outer loop
vertex -1.90000000000019 21.3320851173922 6.76791955811495e-14
vertex -0.0304490694928248 21.9390356888328 10.0
vertex -0.0304490694929235 21.9390356888328 4.51194637207663e-14
endloop
endfacet
facet normal -0.308785360317526 0.951131747579469 3.04447194405971e-15
outer loop
vertex -0.0304490694928248 21.9390356888328 10.0
vertex -1.90000000000019 21.3320851173922 6.76791955811495e-14
vertex -1.90000000000009 21.3320851173922 10.0000000000001
endloop
endfacet
facet normal 1.5742227136965e-14 -0.866025403784439 0.5
outer loop
vertex -3.00000000000019 11.4660425586961 5.00000000000004
vertex -5.27583680712397 10.6160425586961 3.52775681356651
vertex -3.00000000000019 10.6160425586961 3.5277568135665
endloop
endfacet
facet normal 1.5742227136965e-14 -0.866025403784439 0.5
outer loop
vertex -5.27583680712397 10.6160425586961 3.52775681356651
vertex -3.00000000000019 11.4660425586961 5.00000000000004
vertex -5.27583680712397 11.4660425586961 5.00000000000006
endloop
endfacet
facet normal 0.723690080993991 0.690125109433725 2.42776184824638e-15
outer loop
vertex 24.3263514641251 18.2162681089452 5.07593966858621e-14
vertex 22.7950051120518 19.789854244338 10.0000000000001
vertex 24.3263514641251 18.2162681089451 10.0
endloop
endfacet
facet normal 0.709556359653215 0.704648687273082 3.67106722328642e-15
outer loop
vertex 22.7950051120518 19.789854244338 10.0000000000001
vertex 24.3263514641251 18.2162681089452 5.07593966858621e-14
vertex 22.7950051120518 19.789854244338 5.92192961335058e-14
endloop
endfacet
facet normal -0.0855088306247652 0.996337412669616 7.83964057589779e-16
outer loop
vertex 5.74282872188003 23.1079219245165 1.12798659301916e-14
vertex 7.70123621032319 23.2759986544416 10.0
vertex 7.7012362103231 23.2759986544416 5.63993296509579e-15
endloop
endfacet
facet normal -0.0855088306247652 0.996337412669616 7.83964057589779e-16
outer loop
vertex 7.70123621032319 23.2759986544416 10.0
vertex 5.74282872188003 23.1079219245165 1.12798659301916e-14
vertex 5.74282872188013 23.1079219245165 10.0
endloop
endfacet
facet normal 6.81499464525089e-15 6.79384343462649e-29 1.0
outer loop
vertex -3.00000000000017 8.91604255869609 3.5277568135665
vertex -5.27583680712395 9.76604255869606 3.52775681356651
vertex -5.27583680712395 8.91604255869606 3.52775681356651
endloop
endfacet
facet normal 6.81499464525089e-15 6.79384343462649e-29 1.0
outer loop
vertex -5.27583680712395 9.76604255869606 3.52775681356651
vertex -3.00000000000017 8.91604255869609 3.5277568135665
vertex -3.00000000000019 10.6160425586961 3.5277568135665
endloop
endfacet
facet normal 6.81499464525089e-15 6.79384343462649e-29 1.0
outer loop
vertex -3.00000000000019 10.6160425586961 3.5277568135665
vertex -3.00000000000017 8.91604255869609 3.5277568135665
vertex -3.00000000000018 9.76604255869609 3.5277568135665
endloop
endfacet
facet normal 6.81499464525089e-15 6.79384343462649e-29 1.0
outer loop
vertex -3.00000000000019 10.6160425586961 3.5277568135665
vertex -5.27583680712397 10.6160425586961 3.52775681356651
vertex -5.27583680712395 9.76604255869606 3.52775681356651
endloop
endfacet
facet normal 0.721948924272538 -0.691946349612255 -3.44312290727986e-15
outer loop
vertex 18.8147691937532 -18.8747692331296 -5.76078259871467e-14
vertex 28.2932067336214 -8.98534964225111 9.99999999999995
vertex 18.8147691937532 -18.8747692331296 9.99999999999994
endloop
endfacet
facet normal 0.721948924272538 -0.691946349612255 -3.44312290727986e-15
outer loop
vertex 28.2932067336214 -8.98534964225111 9.99999999999995
vertex 18.8147691937532 -18.8747692331296 -5.76078259871467e-14
vertex 28.3540026997108 -8.92191758231906 -2.58718113042027e-13
endloop
endfacet
facet normal 0.721948924272538 -0.691946349612255 -3.44312290727986e-15
outer loop
vertex 28.2932067336214 -8.98534964225111 9.99999999999995
vertex 28.3540026997108 -8.92191758231906 -2.58718113042027e-13
vertex 37.7716442734896 0.904069948627366 9.99999999999996
endloop
endfacet
facet normal 0.721948924272538 -0.691946349612255 -3.44312290727986e-15
outer loop
vertex 37.7716442734896 0.904069948627366 9.99999999999996
vertex 28.3540026997108 -8.92191758231906 -2.58718113042027e-13
vertex 37.7716442734896 0.904069948627403 -3.51007670367763e-14
endloop
endfacet
facet normal 0.836863588185253 0.547411485785331 1.59372469423669e-15
outer loop
vertex 36.5883618158263 2.75367466339624 -2.8199664825479e-14
vertex 35.367840833742 4.57892081331701 9.99999999999998
vertex 36.5883618158263 2.7536746633962 9.99999999999997
endloop
endfacet
facet normal 0.825598662110234 0.564257786053318 1.80022089357535e-15
outer loop
vertex 35.367840833742 4.57892081331701 9.99999999999998
vertex 36.5883618158263 2.75367466339624 -2.8199664825479e-14
vertex 35.367840833742 4.57892081331706 -1.97397653778353e-14
endloop
endfacet
facet normal 4.5211556754581e-15 0.866025403784438 0.500000000000001
outer loop
vertex -3.00000000000018 8.11604255869609 2.22871870788987
vertex -1.52983181678223e-13 6.51604255869609 5.00000000000004
vertex -1.81182846503702e-13 8.11604255869609 2.22871870788984
endloop
endfacet
facet normal 4.5211556754581e-15 0.866025403784438 0.500000000000001
outer loop
vertex -1.52983181678223e-13 6.51604255869609 5.00000000000004
vertex -3.00000000000018 8.11604255869609 2.22871870788987
vertex -3.00000000000015 6.51604255869609 5.00000000000007
endloop
endfacet
facet normal -5.15846320473878e-15 -0.866025403784439 -0.499999999999999
outer loop
vertex -1.24783516852744e-13 11.3160425586961 7.77128129211025
vertex -3.00000000000015 12.9160425586961 5.00000000000007
vertex -1.52983181678223e-13 12.9160425586961 5.00000000000004
endloop
endfacet
facet normal -5.15846320473878e-15 -0.866025403784439 -0.499999999999999
outer loop
vertex -3.00000000000015 12.9160425586961 5.00000000000007
vertex -1.24783516852744e-13 11.3160425586961 7.77128129211025
vertex -3.00000000000012 11.3160425586961 7.77128129211029
endloop
endfacet
facet normal -0.722963443733857 -0.690886285161662 -1.30145210609377e-15
outer loop
vertex 29.4850208923215 6.91143220686994 10.0
vertex 35.0121111736148 1.12772465699912 -2.12392699335367e-14
vertex 35.0121111736148 1.12772465699908 9.99999999999998
endloop
endfacet
facet normal -0.722963443733857 -0.690886285161662 -1.30145210609377e-15
outer loop
vertex 35.0121111736148 1.12772465699912 -2.12392699335367e-14
vertex 29.4850208923215 6.91143220686994 10.0
vertex 29.4850208923215 6.91143220686998 1.19110846868747e-14
endloop
endfacet
facet normal 4.5211556754581e-15 -0.866025403784438 0.500000000000001
outer loop
vertex -1.52983181678223e-13 12.9160425586961 5.00000000000004
vertex -3.00000000000018 11.3160425586961 2.22871870788987
vertex -1.81182846503702e-13 11.3160425586961 2.22871870788984
endloop
endfacet
facet normal 4.5211556754581e-15 -0.866025403784438 0.500000000000001
outer loop
vertex -3.00000000000018 11.3160425586961 2.22871870788987
vertex -1.52983181678223e-13 12.9160425586961 5.00000000000004
vertex -3.00000000000015 12.9160425586961 5.00000000000007
endloop
endfacet
facet normal 1.05748743095546e-14 2.20309881449055e-16 1.0
outer loop
vertex -1.81182846503702e-13 8.11604255869609 2.22871870788984
vertex -3.00000000000018 9.71604255869609 2.22871870788987
vertex -3.00000000000018 8.11604255869609 2.22871870788987
endloop
endfacet
facet normal 1.05748743095546e-14 2.20309881449055e-16 1.0
outer loop
vertex -3.00000000000018 9.71604255869609 2.22871870788987
vertex -1.81182846503702e-13 8.11604255869609 2.22871870788984
vertex -3.00000000000018 11.3160425586961 2.22871870788987
endloop
endfacet
facet normal 1.05748743095546e-14 2.20309881449055e-16 1.0
outer loop
vertex -3.00000000000018 11.3160425586961 2.22871870788987
vertex -1.81182846503702e-13 8.11604255869609 2.22871870788984
vertex -1.81182846503702e-13 11.3160425586961 2.22871870788984
endloop
endfacet
facet normal 1.05748743095546e-14 2.20309881449055e-16 1.0
outer loop
vertex -1.81182846503702e-13 11.3160425586961 2.22871870788984
vertex -1.81182846503702e-13 8.11604255869609 2.22871870788984
vertex -1.81182846503702e-13 9.71604255869609 2.22871870788984
endloop
endfacet
facet normal 1.0 -1.07721309184246e-29 -9.95115011363324e-15
outer loop
vertex -2.03742578364086e-13 1.69197988952874e-14 5.63993296509579e-14
vertex -1.81182846503702e-13 8.11604255869609 2.22871870788984
vertex -1.52983181678223e-13 6.51604255869609 5.00000000000004
endloop
endfacet
facet normal 1.0 -1.07721309184246e-29 -9.95115011363324e-15
outer loop
vertex -1.81182846503702e-13 8.11604255869609 2.22871870788984
vertex -2.03742578364086e-13 1.69197988952874e-14 5.63993296509579e-14
vertex -2.03742578364086e-13 9.71604255869609 4.51194637207663e-14
endloop
endfacet
facet normal 1.0 -1.07721309184246e-29 -9.95115011363324e-15
outer loop
vertex -1.81182846503702e-13 8.11604255869609 2.22871870788984
vertex -2.03742578364086e-13 9.71604255869609 4.51194637207663e-14
vertex -1.81182846503702e-13 9.71604255869609 2.22871870788984
endloop
endfacet
facet normal 1.0 -1.07721309184246e-29 -9.95115011363324e-15
outer loop
vertex -1.81182846503702e-13 9.71604255869609 2.22871870788984
vertex -2.03742578364086e-13 9.71604255869609 4.51194637207663e-14
vertex -2.03742578364086e-13 19.4320851173922 3.38395977905748e-14
endloop
endfacet
facet normal 1.0 -1.07721309184246e-29 -9.95115011363324e-15
outer loop
vertex -1.81182846503702e-13 9.71604255869609 2.22871870788984
vertex -2.03742578364086e-13 19.4320851173922 3.38395977905748e-14
vertex -1.81182846503702e-13 11.3160425586961 2.22871870788984
endloop
endfacet
facet normal 1.0 -1.07721309184246e-29 -9.95115011363324e-15
outer loop
vertex -1.81182846503702e-13 11.3160425586961 2.22871870788984
vertex -2.03742578364086e-13 19.4320851173922 3.38395977905748e-14
vertex -1.52983181678223e-13 12.9160425586961 5.00000000000004
endloop
endfacet
facet normal 1.0 -1.07721309184246e-29 -9.95115011363324e-15
outer loop
vertex -1.05043751474909e-13 5.63993296509579e-15 10.0000000000001
vertex -1.24783516852744e-13 8.11604255869609 7.77128129211025
vertex -1.05043751474909e-13 19.4320851173922 10.0
endloop
endfacet
facet normal 1.0 -1.07721309184246e-29 -9.95115011363324e-15
outer loop
vertex -1.24783516852744e-13 8.11604255869609 7.77128129211025
vertex -1.05043751474909e-13 5.63993296509579e-15 10.0000000000001
vertex -2.03742578364086e-13 1.69197988952874e-14 5.63993296509579e-14
endloop
endfacet
facet normal 1.0 -1.07721309184246e-29 -9.95115011363324e-15
outer loop
vertex -1.24783516852744e-13 8.11604255869609 7.77128129211025
vertex -2.03742578364086e-13 1.69197988952874e-14 5.63993296509579e-14
vertex -1.52983181678223e-13 6.51604255869609 5.00000000000004
endloop
endfacet
facet normal 1.0 -1.07721309184246e-29 -9.95115011363324e-15
outer loop
vertex -1.05043751474909e-13 19.4320851173922 10.0
vertex -1.24783516852744e-13 8.11604255869609 7.77128129211025
vertex -1.24783516852744e-13 9.71604255869609 7.77128129211025
endloop
endfacet
facet normal 1.0 -1.07721309184246e-29 -9.95115011363324e-15
outer loop
vertex -1.05043751474909e-13 19.4320851173922 10.0
vertex -1.24783516852744e-13 9.71604255869609 7.77128129211025
vertex -1.24783516852744e-13 11.3160425586961 7.77128129211025
endloop
endfacet
facet normal 1.0 -1.07721309184246e-29 -9.95115011363324e-15
outer loop
vertex -1.05043751474909e-13 19.4320851173922 10.0
vertex -1.24783516852744e-13 11.3160425586961 7.77128129211025
vertex -1.52983181678223e-13 12.9160425586961 5.00000000000004
endloop
endfacet
facet normal 1.0 -1.07721309184246e-29 -9.95115011363324e-15
outer loop
vertex -1.05043751474909e-13 19.4320851173922 10.0
vertex -1.52983181678223e-13 12.9160425586961 5.00000000000004
vertex -2.03742578364086e-13 19.4320851173922 3.38395977905748e-14
endloop
endfacet
facet normal -0.142205261995824 0.98983719038067 1.40512821260372e-15
outer loop
vertex 3.7971981138846 22.8284023095274 2.25597318603832e-14
vertex 5.74282872188013 23.1079219245165 10.0
vertex 5.74282872188003 23.1079219245165 1.12798659301916e-14
endloop
endfacet
facet normal -0.142205261995824 0.98983719038067 1.40512821260372e-15
outer loop
vertex 5.74282872188013 23.1079219245165 10.0
vertex 3.7971981138846 22.8284023095274 2.25597318603832e-14
vertex 3.7971981138847 22.8284023095274 10.0
endloop
endfacet
facet normal -6.19544967750081e-16 -6.1406137703847e-30 -1.0
outer loop
vertex -3.00000000000017 10.6160425586961 6.47224318643359
vertex -5.27583680712395 9.76604255869606 6.47224318643359
vertex -5.27583680712395 10.6160425586961 6.47224318643359
endloop
endfacet
facet normal -6.19544967750081e-16 -6.1406137703847e-30 -1.0
outer loop
vertex -5.27583680712395 9.76604255869606 6.47224318643359
vertex -3.00000000000017 10.6160425586961 6.47224318643359
vertex -5.27583680712393 8.91604255869606 6.47224318643359
endloop
endfacet
facet normal -6.19544967750081e-16 -6.1406137703847e-30 -1.0
outer loop
vertex -5.27583680712393 8.91604255869606 6.47224318643359
vertex -3.00000000000017 10.6160425586961 6.47224318643359
vertex -3.00000000000017 9.76604255869609 6.47224318643359
endloop
endfacet
facet normal -6.19544967750081e-16 -6.1406137703847e-30 -1.0
outer loop
vertex -5.27583680712393 8.91604255869606 6.47224318643359
vertex -3.00000000000017 9.76604255869609 6.47224318643359
vertex -3.00000000000016 8.91604255869609 6.47224318643359
endloop
endfacet
facet normal -1.45869753077539e-16 -1.0 -4.52756827822149e-31
outer loop
vertex 19.332085117392 19.4320851173922 10.0
vertex -2.03742578364086e-13 19.4320851173922 3.38395977905748e-14
vertex 19.3320851173921 19.4320851173922 3.38395977905748e-14
endloop
endfacet
facet normal -1.45869753077539e-16 -1.0 -4.52756827822149e-31
outer loop
vertex -2.03742578364086e-13 19.4320851173922 3.38395977905748e-14
vertex 19.332085117392 19.4320851173922 10.0
vertex -1.05043751474909e-13 19.4320851173922 10.0
endloop
endfacet
facet normal 0.777196595560676 0.629257857995349 2.12095634700682e-15
outer loop
vertex 30.1236219718894 11.6214838194061 1.40998324127395e-14
vertex 28.724725860847 13.3139035799913 10.0
vertex 30.1236219718894 11.621483819406 10.0
endloop
endfacet
facet normal 0.764285337574265 0.644878223208841 2.19904403492568e-15
outer loop
vertex 28.724725860847 13.3139035799913 10.0
vertex 30.1236219718894 11.6214838194061 1.40998324127395e-14
vertex 28.724725860847 13.3139035799913 2.25597318603832e-14
endloop
endfacet
facet normal -0.856055225327193 -0.516884369264547 -3.63951906534504e-15
outer loop
vertex -2.66182963584444 -0.624488351306918 10.0
vertex -2.29026659933689 -1.21830491034499 -1.33948407921025e-14
vertex -2.29026659933689 -1.21830491034504 9.99999999999999
endloop
endfacet
facet normal -0.839177768665685 -0.543857217086693 -9.8219292160454e-16
outer loop
vertex -2.29026659933689 -1.21830491034499 -1.33948407921025e-14
vertex -2.66182963584444 -0.624488351306918 10.0
vertex -2.66182963584443 -0.624488351306856 -1.05748743095546e-14
endloop
endfacet
facet normal -0.856055225327191 0.51688436926455 -4.65790521290847e-16
outer loop
vertex -2.66182963584446 20.1565734686991 10.0000000000001
vertex -3.01431294539771 19.5512366101047 5.357936316841e-14
vertex -3.01431294539774 19.5512366101047 10.0000000000001
endloop
endfacet
facet normal -0.872066026177606 0.489388236461401 -5.86988817411839e-16
outer loop
vertex -3.01431294539771 19.5512366101047 5.357936316841e-14
vertex -2.66182963584446 20.1565734686991 10.0000000000001
vertex -2.66182963584444 20.1565734686991 5.63993296509579e-14
endloop
endfacet
facet normal -0.927131989266632 -0.374734938961524 -2.81912378561709e-15
outer loop
vertex -4.22660913811781 2.5049804436924 10.0
vertex -3.9538147586493 1.85979797150573 6.34492458573277e-15
vertex -3.9538147586493 1.85979797150567 10.0
endloop
endfacet
facet normal -0.914740887718255 -0.404040973586118 -2.98959182618281e-15
outer loop
vertex -3.9538147586493 1.85979797150573 6.34492458573277e-15
vertex -4.22660913811781 2.5049804436924 10.0
vertex -4.2266091381178 2.50498044369246 1.19848575508286e-14
endloop
endfacet
facet normal -0.872066026177608 -0.489388236461396 -3.48216145133936e-15
outer loop
vertex -3.01431294539771 -0.0191514927125007 10.0
vertex -2.66182963584443 -0.624488351306856 -1.05748743095546e-14
vertex -2.66182963584444 -0.624488351306918 10.0
endloop
endfacet
facet normal -0.856055225327193 -0.516884369264547 -3.63951906534504e-15
outer loop
vertex -2.66182963584443 -0.624488351306856 -1.05748743095546e-14
vertex -3.01431294539771 -0.0191514927125007 10.0
vertex -3.0143129453977 -0.0191514927124387 -4.93494134445882e-15
endloop
endfacet
facet normal -0.949086759888374 0.315014796802609 -1.29745373099794e-15
outer loop
vertex -4.70995099475171 15.7123451215802 10.0
vertex -4.92000914480774 15.0440990819499 3.38395977905748e-14
vertex -4.92000914480776 15.0440990819499 10.0
endloop
endfacet
facet normal -0.958628202323808 0.28466114892873 -1.41195784179227e-15
outer loop
vertex -4.92000914480774 15.0440990819499 3.38395977905748e-14
vertex -4.70995099475171 15.7123451215802 10.0
vertex -4.70995099475169 15.7123451215803 3.66595642731227e-14
endloop
endfacet
facet normal -0.93858447809191 0.345049529031612 -1.18163610002132e-15
outer loop
vertex -4.47873963436667 16.373570123161 10.0
vertex -4.70995099475169 15.7123451215803 3.66595642731227e-14
vertex -4.70995099475171 15.7123451215802 10.0
endloop
endfacet
facet normal -0.949086759888374 0.315014796802609 -1.29745373099794e-15
outer loop
vertex -4.70995099475169 15.7123451215803 3.66595642731227e-14
vertex -4.47873963436667 16.373570123161 10.0
vertex -4.47873963436664 16.373570123161 3.94795307556706e-14
endloop
endfacet
facet normal 9.92364564482204e-16 -4.84592647953859e-15 1.0
outer loop
vertex 18.8147691937532 -18.8747692331296 9.99999999999994
vertex 12.9791493424628 -10.5114322068699 9.99999999999996
vertex 1.87068079590004 -2.90626501429521 9.99999999999999
endloop
endfacet
facet normal 9.92364564482204e-16 -4.84592647953859e-15 1.0
outer loop
vertex 12.9791493424628 -10.5114322068699 9.99999999999996
vertex 18.8147691937532 -18.8747692331296 9.99999999999994
vertex 18.7547407366431 -16.047003003768 9.99999999999994
endloop
endfacet
facet normal 9.92364564482204e-16 -4.84592647953859e-15 1.0
outer loop
vertex 18.7547407366431 -16.047003003768 9.99999999999994
vertex 18.8147691937532 -18.8747692331296 9.99999999999994
vertex 26.8834259551289 -7.45963917338445 9.99999999999996
endloop
endfacet
facet normal 9.92364564482204e-16 -4.84592647953859e-15 1.0
outer loop
vertex 26.8834259551289 -7.45963917338445 9.99999999999996
vertex 18.8147691937532 -18.8747692331296 9.99999999999994
vertex 28.2932067336214 -8.98534964225111 9.99999999999995
endloop
endfacet
facet normal 9.92364564482204e-16 -4.84592647953859e-15 1.0
outer loop
vertex 1.87068079590004 -2.90626501429521 9.99999999999999
vertex 19.332085117392 2.8199664825479e-15 10.0000000000001
vertex -1.05043751474909e-13 5.63993296509579e-15 10.0000000000001
endloop
endfacet
facet normal 9.92364564482204e-16 -4.84592647953859e-15 1.0
outer loop
vertex 19.332085117392 2.8199664825479e-15 10.0000000000001
vertex 1.87068079590004 -2.90626501429521 9.99999999999999
vertex 12.9791493424628 -10.5114322068699 9.99999999999996
endloop
endfacet
facet normal 9.92364564482204e-16 -4.84592647953859e-15 1.0
outer loop
vertex 19.332085117392 2.8199664825479e-15 10.0000000000001
vertex 12.9791493424628 -10.5114322068699 9.99999999999996
vertex 21.2320851173921 -1.79999999999999 9.99999999999999
endloop
endfacet
facet normal -0.830419350115821 0.557138854284295 3.98039947430197e-15
outer loop
vertex -1.90000000000009 21.3320851173922 10.0000000000001
vertex -2.29026659933689 20.7503900277373 5.92192961335058e-14
vertex -2.29026659933691 20.7503900277372 10.0000000000001
endloop
endfacet
facet normal -0.839177768665675 0.543857217086708 1.7879225842789e-15
outer loop
vertex -2.29026659933689 20.7503900277373 5.92192961335058e-14
vertex -1.90000000000009 21.3320851173922 10.0000000000001
vertex -1.90000000000019 21.3320851173922 6.76791955811495e-14
endloop
endfacet
facet normal -0.958628202323808 0.28466114892873 -1.41195784179227e-15
outer loop
vertex -4.92000914480776 15.0440990819499 10.0
vertex -5.10870142522144 14.3695085252425 3.10196313080269e-14
vertex -5.10870142522146 14.3695085252424 10.0
endloop
endfacet
facet normal -0.967199145803494 0.254019314928986 -1.11438226060817e-15
outer loop
vertex -5.10870142522144 14.3695085252425 3.10196313080269e-14
vertex -4.92000914480776 15.0440990819499 10.0
vertex -4.92000914480774 15.0440990819499 3.38395977905748e-14
endloop
endfacet
facet normal 5.44224366181407e-16 -2.33479116597565e-15 1.0
outer loop
vertex 1.87068079590004 -2.90626501429521 9.99999999999999
vertex -1.05043751474909e-13 5.63993296509579e-15 10.0000000000001
vertex -0.0304490694928276 -2.40695057144029 10.0
endloop
endfacet
facet normal 5.44224366181407e-16 -2.33479116597565e-15 1.0
outer loop
vertex -5.27583680712391 5.84282872188022 10.0
vertex -5.10870142522146 14.3695085252424 10.0
vertex -5.27583680712399 13.6892563955119 10.0
endloop
endfacet
facet normal 5.44224366181407e-16 -2.33479116597565e-15 1.0
outer loop
vertex -5.10870142522146 14.3695085252424 10.0
vertex -5.27583680712391 5.84282872188022 10.0
vertex -5.10870142522139 5.16257659214972 10.0
endloop
endfacet
facet normal 5.44224366181407e-16 -2.33479116597565e-15 1.0
outer loop
vertex -5.10870142522146 14.3695085252424 10.0
vertex -5.10870142522139 5.16257659214972 10.0
vertex -4.92000914480776 15.0440990819499 10.0
endloop
endfacet
facet normal 5.44224366181407e-16 -2.33479116597565e-15 1.0
outer loop
vertex -4.92000914480776 15.0440990819499 10.0
vertex -5.10870142522139 5.16257659214972 10.0
vertex -4.9200091448077 4.48798603544227 10.0
endloop
endfacet
facet normal 5.44224366181407e-16 -2.33479116597565e-15 1.0
outer loop
vertex -4.92000914480776 15.0440990819499 10.0
vertex -4.9200091448077 4.48798603544227 10.0
vertex -4.70995099475171 15.7123451215802 10.0
endloop
endfacet
facet normal 5.44224366181407e-16 -2.33479116597565e-15 1.0
outer loop
vertex -4.70995099475171 15.7123451215802 10.0
vertex -4.9200091448077 4.48798603544227 10.0
vertex -4.70995099475165 3.81973999581194 10.0
endloop
endfacet
facet normal 5.44224366181407e-16 -2.33479116597565e-15 1.0
outer loop
vertex -4.70995099475171 15.7123451215802 10.0
vertex -4.70995099475165 3.81973999581194 10.0
vertex -4.47873963436667 16.373570123161 10.0
endloop
endfacet
facet normal 5.44224366181407e-16 -2.33479116597565e-15 1.0
outer loop
vertex -4.47873963436667 16.373570123161 10.0
vertex -4.70995099475165 3.81973999581194 10.0
vertex -4.47873963436661 3.15851499423117 10.0
endloop
endfacet
facet normal 5.44224366181407e-16 -2.33479116597565e-15 1.0
outer loop
vertex -4.47873963436667 16.373570123161 10.0
vertex -4.47873963436661 3.15851499423117 10.0
vertex -4.22660913811786 17.0271046736998 10.0
endloop
endfacet
facet normal 5.44224366181407e-16 -2.33479116597565e-15 1.0
outer loop
vertex -4.22660913811786 17.0271046736998 10.0
vertex -4.47873963436661 3.15851499423117 10.0
vertex -4.22660913811781 2.5049804436924 10.0
endloop
endfacet
facet normal 5.44224366181407e-16 -2.33479116597565e-15 1.0
outer loop
vertex -4.22660913811786 17.0271046736998 10.0
vertex -4.22660913811781 2.5049804436924 10.0
vertex -3.95381475864935 17.6722871458865 10.0000000000001
endloop
endfacet
facet normal 5.44224366181407e-16 -2.33479116597565e-15 1.0
outer loop
vertex -3.95381475864935 17.6722871458865 10.0000000000001
vertex -4.22660913811781 2.5049804436924 10.0
vertex -3.9538147586493 1.85979797150567 10.0
endloop
endfacet
facet normal 5.44224366181407e-16 -2.33479116597565e-15 1.0
outer loop
vertex -3.95381475864935 17.6722871458865 10.0000000000001
vertex -3.9538147586493 1.85979797150567 10.0
vertex -3.66063266837059 18.3084643679138 10.0000000000001
endloop
endfacet
facet normal 5.44224366181407e-16 -2.33479116597565e-15 1.0
outer loop
vertex -3.66063266837059 18.3084643679138 10.0000000000001
vertex -3.9538147586493 1.85979797150567 10.0
vertex -3.66063266837056 1.22362074947837 10.0
endloop
endfacet
facet normal 5.44224366181407e-16 -2.33479116597565e-15 1.0
outer loop
vertex -3.66063266837059 18.3084643679138 10.0000000000001
vertex -3.66063266837056 1.22362074947837 10.0
vertex -3.34735967986417 18.934992284737 10.0000000000001
endloop
endfacet
facet normal 5.44224366181407e-16 -2.33479116597565e-15 1.0
outer loop
vertex -3.34735967986417 18.934992284737 10.0000000000001
vertex -3.66063266837056 1.22362074947837 10.0
vertex -3.34735967986414 0.597092832655153 10.0
endloop
endfacet
facet normal 5.44224366181407e-16 -2.33479116597565e-15 1.0
outer loop
vertex -3.34735967986417 18.934992284737 10.0000000000001
vertex -3.34735967986414 0.597092832655153 10.0
vertex -3.01431294539774 19.5512366101047 10.0000000000001
endloop
endfacet
facet normal 5.44224366181407e-16 -2.33479116597565e-15 1.0
outer loop
vertex -3.01431294539774 19.5512366101047 10.0000000000001
vertex -3.34735967986414 0.597092832655153 10.0
vertex -3.01431294539771 -0.0191514927125007 10.0
endloop
endfacet
facet normal 5.44224366181407e-16 -2.33479116597565e-15 1.0
outer loop
vertex -3.01431294539774 19.5512366101047 10.0000000000001
vertex -3.01431294539771 -0.0191514927125007 10.0
vertex -2.66182963584446 20.1565734686991 10.0000000000001
endloop
endfacet
facet normal 5.44224366181407e-16 -2.33479116597565e-15 1.0
outer loop
vertex -2.66182963584446 20.1565734686991 10.0000000000001
vertex -3.01431294539771 -0.0191514927125007 10.0
vertex -2.66182963584444 -0.624488351306918 10.0
endloop
endfacet
facet normal 5.44224366181407e-16 -2.33479116597565e-15 1.0
outer loop
vertex -2.66182963584446 20.1565734686991 10.0000000000001
vertex -2.66182963584444 -0.624488351306918 10.0
vertex -2.29026659933691 20.7503900277372 10.0000000000001
endloop
endfacet
facet normal 5.44224366181407e-16 -2.33479116597565e-15 1.0
outer loop
vertex -2.29026659933691 20.7503900277372 10.0000000000001
vertex -2.66182963584444 -0.624488351306918 10.0
vertex -2.29026659933689 -1.21830491034504 9.99999999999999
endloop
endfacet
facet normal 5.44224366181407e-16 -2.33479116597565e-15 1.0
outer loop
vertex -2.29026659933691 20.7503900277372 10.0000000000001
vertex -2.29026659933689 -1.21830491034504 9.99999999999999
vertex -1.90000000000009 21.3320851173922 10.0000000000001
endloop
endfacet
facet normal 5.44224366181407e-16 -2.33479116597565e-15 1.0
outer loop
vertex -1.90000000000009 21.3320851173922 10.0000000000001
vertex -2.29026659933689 -1.21830491034504 9.99999999999999
vertex -1.90000000000009 -1.79999999999997 9.99999999999999
endloop
endfacet
facet normal 5.44224366181407e-16 -2.33479116597565e-15 1.0
outer loop
vertex -1.90000000000009 21.3320851173922 10.0000000000001
vertex -1.90000000000009 -1.79999999999997 9.99999999999999
vertex -0.0304490694928276 -2.40695057144029 10.0
endloop
endfacet
facet normal 5.44224366181407e-16 -2.33479116597565e-15 1.0
outer loop
vertex -1.90000000000009 21.3320851173922 10.0000000000001
vertex -0.0304490694928276 -2.40695057144029 10.0
vertex -1.05043751474909e-13 19.4320851173922 10.0
endloop
endfacet
facet normal 5.44224366181407e-16 -2.33479116597565e-15 1.0
outer loop
vertex -1.05043751474909e-13 19.4320851173922 10.0
vertex -0.0304490694928276 -2.40695057144029 10.0
vertex -1.05043751474909e-13 5.63993296509579e-15 10.0000000000001
endloop
endfacet
facet normal -0.887193962153301 0.461396655296424 -7.07592855995919e-16
outer loop
vertex -3.34735967986417 18.934992284737 10.0000000000001
vertex -3.66063266837057 18.3084643679138 4.93494134445882e-14
vertex -3.66063266837059 18.3084643679138 10.0000000000001
endloop
endfacet
facet normal -0.901423717988115 0.432937963972303 -8.27480539557077e-16
outer loop
vertex -3.66063266837057 18.3084643679138 4.93494134445882e-14
vertex -3.34735967986417 18.934992284737 10.0000000000001
vertex -3.34735967986415 18.9349922847371 5.07593966858621e-14
endloop
endfacet
facet normal -0.949086759888375 -0.315014796802603 -2.46980107329835e-15
outer loop
vertex -4.70995099475165 3.81973999581194 10.0
vertex -4.47873963436661 3.15851499423124 1.48048240333765e-14
vertex -4.47873963436661 3.15851499423117 10.0
endloop
endfacet
facet normal -0.938584478091913 -0.345049529031604 -2.64580171187829e-15
outer loop
vertex -4.47873963436661 3.15851499423124 1.48048240333765e-14
vertex -4.70995099475165 3.81973999581194 10.0
vertex -4.70995099475164 3.819739995812 1.76247905159244e-14
endloop
endfacet
facet normal -0.901423717988118 -0.432937963972296 -3.15703325461841e-15
outer loop
vertex -3.66063266837056 1.22362074947837 10.0
vertex -3.34735967986413 0.597092832655215 -2.11497486191092e-15
vertex -3.34735967986414 0.597092832655153 10.0
endloop
endfacet
facet normal -0.887193962153303 -0.461396655296421 -3.32127855605772e-15
outer loop
vertex -3.34735967986413 0.597092832655215 -2.11497486191092e-15
vertex -3.66063266837056 1.22362074947837 10.0
vertex -3.66063266837055 1.22362074947844 3.52495810318487e-15
endloop
endfacet
facet normal -0.872066026177606 0.489388236461401 -5.86988817411839e-16
outer loop
vertex -3.01431294539774 19.5512366101047 10.0000000000001
vertex -3.34735967986415 18.9349922847371 5.07593966858621e-14
vertex -3.34735967986417 18.934992284737 10.0000000000001
endloop
endfacet
facet normal -0.887193962153301 0.461396655296424 -7.0759285599592e-16
outer loop
vertex -3.34735967986415 18.9349922847371 5.07593966858621e-14
vertex -3.01431294539774 19.5512366101047 10.0000000000001
vertex -3.01431294539771 19.5512366101047 5.357936316841e-14
endloop
endfacet
facet normal -0.839177768665685 -0.543857217086693 -9.82192921604537e-16
outer loop
vertex -2.29026659933689 -1.21830491034504 9.99999999999999
vertex -1.90000000000019 -1.79999999999996 -1.12798659301916e-14
vertex -1.90000000000009 -1.79999999999997 9.99999999999999
endloop
endfacet
facet normal -0.830419350115839 -0.557138854284269 1.75268872623195e-15
outer loop
vertex -1.90000000000019 -1.79999999999996 -1.12798659301916e-14
vertex -2.29026659933689 -1.21830491034504 9.99999999999999
vertex -2.29026659933689 -1.21830491034499 -1.33948407921025e-14
endloop
endfacet
facet normal -0.914740887718255 -0.404040973586118 -2.98959182618281e-15
outer loop
vertex -3.9538147586493 1.85979797150567 10.0
vertex -3.66063266837055 1.22362074947844 3.52495810318487e-15
vertex -3.66063266837056 1.22362074947837 10.0
endloop
endfacet
facet normal -0.901423717988118 -0.432937963972296 -3.15703325461841e-15
outer loop
vertex -3.66063266837055 1.22362074947844 3.52495810318487e-15
vertex -3.9538147586493 1.85979797150567 10.0
vertex -3.9538147586493 1.85979797150573 6.34492458573277e-15
endloop
endfacet
facet normal -0.914740887718252 0.404040973586127 -9.46530495835028e-16
outer loop
vertex -3.95381475864935 17.6722871458865 10.0000000000001
vertex -4.22660913811783 17.0271046736998 4.37094804794924e-14
vertex -4.22660913811786 17.0271046736998 10.0
endloop
endfacet
facet normal -0.927131989266631 0.374734938961527 -1.06462220067041e-15
outer loop
vertex -4.22660913811783 17.0271046736998 4.37094804794924e-14
vertex -3.95381475864935 17.6722871458865 10.0000000000001
vertex -3.95381475864932 17.6722871458865 4.65294469620403e-14
endloop
endfacet
facet normal 0.789788661709266 0.613379058849817 2.04199758996824e-15
outer loop
vertex 31.4879346038411 9.90106351674582 5.63993296509579e-15
vertex 30.1236219718894 11.621483819406 10.0
vertex 31.4879346038411 9.90106351674578 10.0
endloop
endfacet
facet normal 0.777196595560676 0.629257857995349 2.12095634700682e-15
outer loop
vertex 30.1236219718894 11.621483819406 10.0
vertex 31.4879346038411 9.90106351674582 5.63993296509579e-15
vertex 30.1236219718894 11.6214838194061 1.40998324127395e-14
endloop
endfacet
facet normal -1.36511469194754e-14 0.866025403784438 -0.5
outer loop
vertex -5.27583680712393 8.06604255869606 5.00000000000006
vertex -3.00000000000016 8.91604255869609 6.47224318643359
vertex -3.00000000000016 8.06604255869609 5.00000000000004
endloop
endfacet
facet normal -1.36511469194754e-14 0.866025403784438 -0.5
outer loop
vertex -3.00000000000016 8.91604255869609 6.47224318643359
vertex -5.27583680712393 8.06604255869606 5.00000000000006
vertex -5.27583680712393 8.91604255869606 6.47224318643359
endloop
endfacet
facet normal 0.764285337574265 0.644878223208841 2.19904403492568e-15
outer loop
vertex 28.724725860847 13.3139035799913 2.25597318603832e-14
vertex 27.2918207922998 14.9776277278117 10.0
vertex 28.724725860847 13.3139035799913 10.0
endloop
endfacet
facet normal 0.751060190357101 0.660233739262661 2.27622858339314e-15
outer loop
vertex 27.2918207922998 14.9776277278117 10.0
vertex 28.724725860847 13.3139035799913 2.25597318603832e-14
vertex 27.2918207922998 14.9776277278117 3.38395977905748e-14
endloop
endfacet
facet normal -0.254025611645397 0.967197492050192 2.50762271823252e-15
outer loop
vertex -0.0304490694929235 21.9390356888328 4.51194637207663e-14
vertex 1.87068079590003 22.4383501316877 10.0
vertex 1.87068079589993 22.4383501316877 3.38395977905748e-14
endloop
endfacet
facet normal -0.254025611645397 0.967197492050192 2.50762271823252e-15
outer loop
vertex 1.87068079590003 22.4383501316877 10.0
vertex -0.0304490694929235 21.9390356888328 4.51194637207663e-14
vertex -0.0304490694928248 21.9390356888328 10.0
endloop
endfacet
facet normal -1.31598435852235e-14 -4.4061976289811e-16 -1.0
outer loop
vertex -1.24783516852744e-13 11.3160425586961 7.77128129211025
vertex -3.00000000000012 9.71604255869609 7.77128129211029
vertex -3.00000000000012 11.3160425586961 7.77128129211029
endloop
endfacet
facet normal -1.31598435852235e-14 -4.4061976289811e-16 -1.0
outer loop
vertex -3.00000000000012 9.71604255869609 7.77128129211029
vertex -1.24783516852744e-13 11.3160425586961 7.77128129211025
vertex -3.00000000000012 8.11604255869609 7.77128129211029
endloop
endfacet
facet normal -1.31598435852235e-14 -4.4061976289811e-16 -1.0
outer loop
vertex -3.00000000000012 8.11604255869609 7.77128129211029
vertex -1.24783516852744e-13 11.3160425586961 7.77128129211025
vertex -1.24783516852744e-13 8.11604255869609 7.77128129211025
endloop
endfacet
facet normal -1.31598435852235e-14 -4.4061976289811e-16 -1.0
outer loop
vertex -1.24783516852744e-13 8.11604255869609 7.77128129211025
vertex -1.24783516852744e-13 11.3160425586961 7.77128129211025
vertex -1.24783516852744e-13 9.71604255869609 7.77128129211025
endloop
endfacet
facet normal 0.308785360317526 0.951131747579469 2.95807579208127e-15
outer loop
vertex 19.3625341868848 21.9390356888328 10.0
vertex 21.2320851173921 21.3320851173922 6.76791955811495e-14
vertex 19.3625341868849 21.9390356888328 4.51194637207663e-14
endloop
endfacet
facet normal 0.308785360317526 0.951131747579469 2.95807579208127e-15
outer loop
vertex 21.2320851173921 21.3320851173922 6.76791955811495e-14
vertex 19.3625341868848 21.9390356888328 10.0
vertex 21.232085117392 21.3320851173922 10.0000000000001
endloop
endfacet
facet normal -0.0285339193768524 0.999592824826687 -4.70468576573627e-20
outer loop
vertex 7.7012362103231 23.2759986544416 5.63993296509579e-15
vertex 9.66604255869597 23.3320851173925 10.0
vertex 9.66604255869605 23.3320851173925 0.0
endloop
endfacet
facet normal -0.0285339193768524 0.999592824826687 -4.70468576573627e-20
outer loop
vertex 9.66604255869597 23.3320851173925 10.0
vertex 7.7012362103231 23.2759986544416 5.63993296509579e-15
vertex 7.70123621032319 23.2759986544416 10.0
endloop
endfacet
facet normal -1.0 -1.15406008232174e-29 -9.88578812716312e-15
outer loop
vertex 19.332085117392 19.4320851173922 10.0
vertex 19.3320851173921 1.40998324127395e-14 5.63993296509579e-14
vertex 19.332085117392 2.8199664825479e-15 10.0000000000001
endloop
endfacet
facet normal -1.0 -1.15406008232174e-29 -9.88578812716312e-15
outer loop
vertex 19.3320851173921 1.40998324127395e-14 5.63993296509579e-14
vertex 19.332085117392 19.4320851173922 10.0
vertex 19.3320851173921 19.4320851173922 3.38395977905748e-14
endloop
endfacet
facet normal 0.0855088306247649 0.996337412669616 1.79885166316649e-15
outer loop
vertex 11.6308489070687 23.2759986544416 10.0
vertex 13.5892563955119 23.1079219245165 1.12798659301916e-14
vertex 11.6308489070688 23.2759986544416 5.63993296509579e-15
endloop
endfacet
facet normal 0.0855088306247649 0.996337412669616 1.79885166316649e-15
outer loop
vertex 13.5892563955119 23.1079219245165 1.12798659301916e-14
vertex 11.6308489070687 23.2759986544416 10.0
vertex 13.5892563955118 23.1079219245165 10.0
endloop
endfacet
facet normal 0.19843856805505 0.980113327482216 2.74437593061017e-15
outer loop
vertex 15.5348870035072 22.8284023095274 10.0
vertex 17.461404321492 22.4383501316877 3.38395977905748e-14
vertex 15.5348870035073 22.8284023095274 2.25597318603832e-14
endloop
endfacet
facet normal 0.19843856805505 0.980113327482216 2.74437593061017e-15
outer loop
vertex 17.461404321492 22.4383501316877 3.38395977905748e-14
vertex 15.5348870035072 22.8284023095274 10.0
vertex 17.4614043214919 22.4383501316877 10.0
endloop
endfacet
facet normal 0.751060190357101 0.660233739262661 2.27622858339314e-15
outer loop
vertex 27.2918207922998 14.9776277278117 3.38395977905748e-14
vertex 25.8254952551899 16.6119729773621 10.0
vertex 27.2918207922998 14.9776277278117 10.0
endloop
endfacet
facet normal 0.737526585429435 0.675318099701761 2.3524782929936e-15
outer loop
vertex 25.8254952551899 16.6119729773621 10.0
vertex 27.2918207922998 14.9776277278117 3.38395977905748e-14
vertex 25.8254952551899 16.6119729773622 4.22994972382185e-14
endloop
endfacet
facet normal -0.19843856805505 0.980113327482216 1.9577480245566e-15
outer loop
vertex 1.87068079589993 22.4383501316877 3.38395977905748e-14
vertex 3.7971981138847 22.8284023095274 10.0
vertex 3.7971981138846 22.8284023095274 2.25597318603832e-14
endloop
endfacet
facet normal -0.19843856805505 0.980113327482216 1.9577480245566e-15
outer loop
vertex 3.7971981138847 22.8284023095274 10.0
vertex 1.87068079589993 22.4383501316877 3.38395977905748e-14
vertex 1.87068079590003 22.4383501316877 10.0
endloop
endfacet
facet normal 1.34097217724707e-16 1.0 1.0682669214275e-15
outer loop
vertex -1.05043751474909e-13 5.63993296509579e-15 10.0000000000001
vertex 19.3320851173921 1.40998324127395e-14 5.63993296509579e-14
vertex -2.03742578364086e-13 1.69197988952874e-14 5.63993296509579e-14
endloop
endfacet
facet normal 1.34097217724707e-16 1.0 1.0682669214275e-15
outer loop
vertex 19.3320851173921 1.40998324127395e-14 5.63993296509579e-14
vertex -1.05043751474909e-13 5.63993296509579e-15 10.0000000000001
vertex 19.332085117392 2.8199664825479e-15 10.0000000000001
endloop
endfacet
facet normal 0.691946349612255 0.721948924272538 2.02068032311509e-15
outer loop
vertex 12.9791493424628 -10.5114322068699 -3.44708165472579e-14
vertex 18.7547407366431 -16.047003003768 9.99999999999994
vertex 18.7547407366431 -16.0470030037679 -5.2980424099169e-14
endloop
endfacet
facet normal 0.691946349612255 0.721948924272538 2.02068032311509e-15
outer loop
vertex 18.7547407366431 -16.047003003768 9.99999999999994
vertex 12.9791493424628 -10.5114322068699 -3.44708165472579e-14
vertex 12.9791493424628 -10.5114322068699 9.99999999999996
endloop
endfacet
facet normal 0.725952683905828 -0.687744647910781 -2.97619678308177e-15
outer loop
vertex 12.9791493424628 -10.5114322068699 -3.44708165472579e-14
vertex 21.2320851173921 -1.79999999999999 9.99999999999999
vertex 12.9791493424628 -10.5114322068699 9.99999999999996
endloop
endfacet
facet normal 0.725952683905828 -0.687744647910781 -2.97619678308177e-15
outer loop
vertex 21.2320851173921 -1.79999999999999 9.99999999999999
vertex 12.9791493424628 -10.5114322068699 -3.44708165472579e-14
vertex 21.1834364687435 -1.85135135135132 6.00480489035863e-15
endloop
endfacet
facet normal 0.725952683905828 -0.687744647910781 -2.97619678308177e-15
outer loop
vertex 21.2320851173921 -1.79999999999999 9.99999999999999
vertex 21.1834364687435 -1.85135135135132 6.00480489035863e-15
vertex 29.4850208923215 6.91143220686998 1.19110846868747e-14
endloop
endfacet
facet normal 0.725952683905828 -0.687744647910781 -2.97619678308177e-15
outer loop
vertex 21.2320851173921 -1.79999999999999 9.99999999999999
vertex 29.4850208923215 6.91143220686998 1.19110846868747e-14
vertex 29.4850208923215 6.91143220686994 10.0
endloop
endfacet
endsolid Endstop Holder
