solid K02.2
facet normal -0.0403847101927163 -0.306752328537848 0.950932218467362
outer loop
vertex 519.481759625179 335.514667691167 474.010400000007
vertex 518.705302489872 338.716890212301 475.010400000007
vertex 517.902963450054 335.722520150804 474.010400000007
endloop
endfacet
facet normal -0.0403847101927163 -0.306752328537848 0.950932218467362
outer loop
vertex 518.705302489872 338.716890212301 475.010400000007
vertex 519.481759625179 335.514667691167 474.010400000007
vertex 519.481759625179 338.614667691168 475.010400000007
endloop
endfacet
facet normal -0.0403847101927221 0.306752328537839 0.950932218467365
outer loop
vertex 518.705302489872 344.512445170036 475.010400000007
vertex 519.481759625179 347.714667691167 474.010400000007
vertex 517.902963450054 347.50681523153 474.010400000007
endloop
endfacet
facet normal -0.0403847101927221 0.306752328537839 0.950932218467365
outer loop
vertex 519.481759625179 347.714667691167 474.010400000007
vertex 518.705302489872 344.512445170036 475.010400000007
vertex 519.481759625179 344.614667691168 475.010400000007
endloop
endfacet
facet normal 0.188350349220299 -0.245462954087405 0.950932218467371
outer loop
vertex 522.531759625179 336.331912728082 474.010400000007
vertex 521.603079968739 339.493347347609 475.010400000007
vertex 520.981759625179 339.016591479815 475.010400000007
endloop
endfacet
facet normal 0.188350349220299 -0.245462954087405 0.950932218467371
outer loop
vertex 521.603079968739 339.493347347609 475.010400000007
vertex 522.531759625179 336.331912728082 474.010400000007
vertex 523.795110990417 337.301316325929 474.010400000007
endloop
endfacet
facet normal 0.188350349220383 0.245462954087358 0.950932218467367
outer loop
vertex 521.603079968739 343.735988034728 475.010400000007
vertex 522.531759625179 346.897422654252 474.010400000009
vertex 520.981759625179 344.212743902522 475.010400000007
endloop
endfacet
facet normal 0.188350349220383 0.245462954087358 0.950932218467367
outer loop
vertex 522.531759625179 346.897422654252 474.010400000009
vertex 521.603079968739 343.735988034728 475.010400000007
vertex 523.795110990417 345.928019056405 474.010400000007
endloop
endfacet
facet normal 0.923879532511269 0.382683432365133 -1.10735700704081e-15
outer loop
vertex 525.373907165542 343.193463866293 463.010400000003
vertex 524.764514588264 344.664667691167 474.010400000007
vertex 525.373907165543 343.193463866293 474.010400000009
endloop
endfacet
facet normal 0.923879532511269 0.382683432365133 -1.10735700704081e-15
outer loop
vertex 524.764514588264 344.664667691167 474.010400000007
vertex 525.373907165542 343.193463866293 463.010400000003
vertex 524.764514588264 344.664667691167 463.010400000002
endloop
endfacet
facet normal -0.285847664280133 0.118401979317523 0.950932218467376
outer loop
vertex 516.583982146312 342.391124826476 475.010400000007
vertex 514.199004662094 344.664667691167 474.010400000009
vertex 513.589612084816 343.193463866292 474.010400000009
endloop
endfacet
facet normal -0.285847664280133 0.118401979317523 0.950932218467376
outer loop
vertex 514.199004662094 344.664667691167 474.010400000009
vertex 516.583982146312 342.391124826476 475.010400000007
vertex 516.883683413826 343.114667691168 475.010400000007
endloop
endfacet
facet normal 1.0 -2.60204408952886e-15 8.09547015797195e-14
outer loop
vertex 517.28175962518 341.614667691165 463.010400000001
vertex 517.356722807343 341.045265791943 475.010400000007
vertex 517.356722807344 341.045265791939 463.010400000001
endloop
endfacet
facet normal 0.965925826289063 0.25881904510254 5.9203942101931e-15
outer loop
vertex 517.356722807343 341.045265791943 475.010400000007
vertex 517.28175962518 341.614667691165 463.010400000001
vertex 517.281759625179 341.614667691168 475.010400000007
endloop
endfacet
facet normal -0.306752328537855 -0.0403847101927603 0.950932218467358
outer loop
vertex 513.589612084816 340.035871516042 474.010400000007
vertex 516.481759625179 341.614667691168 475.010400000007
vertex 513.381759625179 341.614667691167 474.010400000007
endloop
endfacet
facet normal -0.306752328537855 -0.0403847101927603 0.950932218467358
outer loop
vertex 516.481759625179 341.614667691168 475.010400000007
vertex 513.589612084816 340.035871516042 474.010400000007
vertex 516.583982146312 340.838210555861 475.010400000007
endloop
endfacet
facet normal 8.64893184352893e-15 -2.12790265128962e-14 1.0
outer loop
vertex 516.583982146312 340.838210555861 475.010400000007
vertex 516.583982146312 342.391124826476 475.010400000007
vertex 516.481759625179 341.614667691168 475.010400000007
endloop
endfacet
facet normal 8.64893184352893e-15 -2.12790265128962e-14 1.0
outer loop
vertex 516.583982146312 342.391124826476 475.010400000007
vertex 516.583982146312 340.838210555861 475.010400000007
vertex 516.883683413826 340.114667691168 475.010400000007
endloop
endfacet
facet normal 8.64893184352893e-15 -2.12790265128962e-14 1.0
outer loop
vertex 516.583982146312 342.391124826476 475.010400000007
vertex 516.883683413826 340.114667691168 475.010400000007
vertex 516.883683413826 343.114667691168 475.010400000007
endloop
endfacet
facet normal 8.64893184352893e-15 -2.12790265128962e-14 1.0
outer loop
vertex 516.883683413826 343.114667691168 475.010400000007
vertex 516.883683413826 340.114667691168 475.010400000007
vertex 517.36043928162 339.493347347609 475.010400000009
endloop
endfacet
facet normal 8.64893184352893e-15 -2.12790265128962e-14 1.0
outer loop
vertex 516.883683413826 343.114667691168 475.010400000007
vertex 517.36043928162 339.493347347609 475.010400000009
vertex 517.281759625179 341.614667691168 475.010400000007
endloop
endfacet
facet normal 8.64893184352893e-15 -2.12790265128962e-14 1.0
outer loop
vertex 517.281759625179 341.614667691168 475.010400000007
vertex 517.36043928162 339.493347347609 475.010400000009
vertex 517.356722807343 341.045265791943 475.010400000007
endloop
endfacet
facet normal 8.64893184352893e-15 -2.12790265128962e-14 1.0
outer loop
vertex 517.356722807343 341.045265791943 475.010400000007
vertex 517.36043928162 339.493347347609 475.010400000009
vertex 517.576503736853 340.514667691168 475.010400000007
endloop
endfacet
facet normal 8.64893184352893e-15 -2.12790265128962e-14 1.0
outer loop
vertex 517.576503736853 340.514667691168 475.010400000007
vertex 517.36043928162 339.493347347609 475.010400000009
vertex 517.981759625179 339.016591479815 475.010400000009
endloop
endfacet
facet normal 8.64893184352893e-15 -2.12790265128962e-14 1.0
outer loop
vertex 517.576503736853 340.514667691168 475.010400000007
vertex 517.981759625179 339.016591479815 475.010400000009
vertex 517.926124706569 340.059032772558 475.010400000007
endloop
endfacet
facet normal 8.64893184352893e-15 -2.12790265128962e-14 1.0
outer loop
vertex 517.926124706569 340.059032772558 475.010400000007
vertex 517.981759625179 339.016591479815 475.010400000009
vertex 518.381759625179 339.709411802843 475.010400000007
endloop
endfacet
facet normal 8.64893184352893e-15 -2.12790265128962e-14 1.0
outer loop
vertex 518.381759625179 339.709411802843 475.010400000007
vertex 517.981759625179 339.016591479815 475.010400000009
vertex 518.705302489872 338.716890212301 475.010400000007
endloop
endfacet
facet normal 8.64893184352893e-15 -2.12790265128962e-14 1.0
outer loop
vertex 518.381759625179 339.709411802843 475.010400000007
vertex 518.705302489872 338.716890212301 475.010400000007
vertex 518.912357725954 339.489630873332 475.010400000008
endloop
endfacet
facet normal 8.64893184352893e-15 -2.12790265128962e-14 1.0
outer loop
vertex 518.912357725954 339.489630873332 475.010400000008
vertex 518.705302489872 338.716890212301 475.010400000007
vertex 519.481759625179 338.614667691168 475.010400000007
endloop
endfacet
facet normal 8.64893184352893e-15 -2.12790265128962e-14 1.0
outer loop
vertex 518.912357725954 339.489630873332 475.010400000008
vertex 519.481759625179 338.614667691168 475.010400000007
vertex 519.481759625179 339.414667691168 475.010400000008
endloop
endfacet
facet normal 8.64893184352893e-15 -2.12790265128962e-14 1.0
outer loop
vertex 519.481759625179 339.414667691168 475.010400000008
vertex 519.481759625179 338.614667691168 475.010400000007
vertex 520.258216760487 338.716890212301 475.010400000007
endloop
endfacet
facet normal 8.64893184352893e-15 -2.12790265128962e-14 1.0
outer loop
vertex 519.481759625179 339.414667691168 475.010400000008
vertex 520.258216760487 338.716890212301 475.010400000007
vertex 520.051161524405 339.489630873332 475.010400000008
endloop
endfacet
facet normal 8.64893184352893e-15 -2.12790265128962e-14 1.0
outer loop
vertex 520.051161524405 339.489630873332 475.010400000008
vertex 520.258216760487 338.716890212301 475.010400000007
vertex 520.581759625179 339.709411802843 475.010400000008
endloop
endfacet
facet normal 8.64893184352893e-15 -2.12790265128962e-14 1.0
outer loop
vertex 520.581759625179 339.709411802843 475.010400000008
vertex 520.258216760487 338.716890212301 475.010400000007
vertex 520.981759625179 339.016591479815 475.010400000007
endloop
endfacet
facet normal 8.64893184352893e-15 -2.12790265128962e-14 1.0
outer loop
vertex 520.581759625179 339.709411802843 475.010400000008
vertex 520.981759625179 339.016591479815 475.010400000007
vertex 521.03739454379 340.059032772558 475.010400000008
endloop
endfacet
facet normal 8.64893184352893e-15 -2.12790265128962e-14 1.0
outer loop
vertex 521.03739454379 340.059032772558 475.010400000008
vertex 520.981759625179 339.016591479815 475.010400000007
vertex 521.603079968739 339.493347347609 475.010400000007
endloop
endfacet
facet normal 8.64893184352893e-15 -2.12790265128962e-14 1.0
outer loop
vertex 521.03739454379 340.059032772558 475.010400000008
vertex 521.603079968739 339.493347347609 475.010400000007
vertex 521.387015513505 340.514667691168 475.010400000007
endloop
endfacet
facet normal 8.64893184352893e-15 -2.12790265128962e-14 1.0
outer loop
vertex 521.387015513505 340.514667691168 475.010400000007
vertex 521.603079968739 339.493347347609 475.010400000007
vertex 521.606796443015 341.045265791943 475.010400000007
endloop
endfacet
facet normal 8.64893184352893e-15 -2.12790265128962e-14 1.0
outer loop
vertex 521.606796443015 341.045265791943 475.010400000007
vertex 521.603079968739 339.493347347609 475.010400000007
vertex 522.079835836533 340.114667691168 475.010400000007
endloop
endfacet
facet normal 8.64893184352893e-15 -2.12790265128962e-14 1.0
outer loop
vertex 521.606796443015 341.045265791943 475.010400000007
vertex 522.079835836533 340.114667691168 475.010400000007
vertex 521.681759625179 341.614667691168 475.010400000007
endloop
endfacet
facet normal 8.64893184352893e-15 -2.12790265128962e-14 1.0
outer loop
vertex 517.281759625179 341.614667691168 475.010400000007
vertex 517.36043928162 343.735988034728 475.010400000007
vertex 516.883683413826 343.114667691168 475.010400000007
endloop
endfacet
facet normal 8.64893184352893e-15 -2.12790265128962e-14 1.0
outer loop
vertex 517.36043928162 343.735988034728 475.010400000007
vertex 517.281759625179 341.614667691168 475.010400000007
vertex 517.356722807343 342.184069590394 475.010400000007
endloop
endfacet
facet normal 8.64893184352893e-15 -2.12790265128962e-14 1.0
outer loop
vertex 517.36043928162 343.735988034728 475.010400000007
vertex 517.356722807343 342.184069590394 475.010400000007
vertex 517.576503736853 342.714667691168 475.010400000007
endloop
endfacet
facet normal 8.64893184352893e-15 -2.12790265128962e-14 1.0
outer loop
vertex 517.36043928162 343.735988034728 475.010400000007
vertex 517.576503736853 342.714667691168 475.010400000007
vertex 517.981759625179 344.212743902522 475.010400000007
endloop
endfacet
facet normal 8.64893184352893e-15 -2.12790265128962e-14 1.0
outer loop
vertex 517.981759625179 344.212743902522 475.010400000007
vertex 517.576503736853 342.714667691168 475.010400000007
vertex 517.926124706569 343.170302609779 475.010400000006
endloop
endfacet
facet normal 8.64893184352893e-15 -2.12790265128962e-14 1.0
outer loop
vertex 517.981759625179 344.212743902522 475.010400000007
vertex 517.926124706569 343.170302609779 475.010400000006
vertex 518.381759625179 343.519923579494 475.010400000006
endloop
endfacet
facet normal 8.64893184352893e-15 -2.12790265128962e-14 1.0
outer loop
vertex 517.981759625179 344.212743902522 475.010400000007
vertex 518.381759625179 343.519923579494 475.010400000006
vertex 518.705302489872 344.512445170036 475.010400000007
endloop
endfacet
facet normal 8.64893184352893e-15 -2.12790265128962e-14 1.0
outer loop
vertex 518.705302489872 344.512445170036 475.010400000007
vertex 518.381759625179 343.519923579494 475.010400000006
vertex 518.912357725954 343.739704509004 475.010400000006
endloop
endfacet
facet normal 8.64893184352893e-15 -2.12790265128962e-14 1.0
outer loop
vertex 518.705302489872 344.512445170036 475.010400000007
vertex 518.912357725954 343.739704509004 475.010400000006
vertex 519.481759625179 344.614667691168 475.010400000007
endloop
endfacet
facet normal 8.64893184352893e-15 -2.12790265128962e-14 1.0
outer loop
vertex 519.481759625179 344.614667691168 475.010400000007
vertex 518.912357725954 343.739704509004 475.010400000006
vertex 519.481759625179 343.814667691168 475.010400000006
endloop
endfacet
facet normal 8.64893184352893e-15 -2.12790265128962e-14 1.0
outer loop
vertex 519.481759625179 344.614667691168 475.010400000007
vertex 519.481759625179 343.814667691168 475.010400000006
vertex 520.051161524405 343.739704509004 475.010400000006
endloop
endfacet
facet normal 8.64893184352893e-15 -2.12790265128962e-14 1.0
outer loop
vertex 519.481759625179 344.614667691168 475.010400000007
vertex 520.051161524405 343.739704509004 475.010400000006
vertex 520.258216760487 344.512445170036 475.010400000007
endloop
endfacet
facet normal 8.64893184352893e-15 -2.12790265128962e-14 1.0
outer loop
vertex 520.258216760487 344.512445170036 475.010400000007
vertex 520.051161524405 343.739704509004 475.010400000006
vertex 520.581759625179 343.519923579494 475.010400000007
endloop
endfacet
facet normal 8.64893184352893e-15 -2.12790265128962e-14 1.0
outer loop
vertex 520.258216760487 344.512445170036 475.010400000007
vertex 520.581759625179 343.519923579494 475.010400000007
vertex 520.981759625179 344.212743902522 475.010400000007
endloop
endfacet
facet normal 8.64893184352893e-15 -2.12790265128962e-14 1.0
outer loop
vertex 520.981759625179 344.212743902522 475.010400000007
vertex 520.581759625179 343.519923579494 475.010400000007
vertex 521.03739454379 343.170302609779 475.010400000007
endloop
endfacet
facet normal 8.64893184352893e-15 -2.12790265128962e-14 1.0
outer loop
vertex 520.981759625179 344.212743902522 475.010400000007
vertex 521.03739454379 343.170302609779 475.010400000007
vertex 521.603079968739 343.735988034728 475.010400000007
endloop
endfacet
facet normal 8.64893184352893e-15 -2.12790265128962e-14 1.0
outer loop
vertex 521.603079968739 343.735988034728 475.010400000007
vertex 521.03739454379 343.170302609779 475.010400000007
vertex 521.387015513505 342.714667691168 475.010400000007
endloop
endfacet
facet normal 8.64893184352893e-15 -2.12790265128962e-14 1.0
outer loop
vertex 521.603079968739 343.735988034728 475.010400000007
vertex 521.387015513505 342.714667691168 475.010400000007
vertex 521.606796443015 342.184069590394 475.010400000007
endloop
endfacet
facet normal 8.64893184352893e-15 -2.12790265128962e-14 1.0
outer loop
vertex 521.603079968739 343.735988034728 475.010400000007
vertex 521.606796443015 342.184069590394 475.010400000007
vertex 522.079835836533 343.114667691168 475.010400000007
endloop
endfacet
facet normal 8.64893184352893e-15 -2.12790265128962e-14 1.0
outer loop
vertex 522.079835836533 343.114667691168 475.010400000007
vertex 521.606796443015 342.184069590394 475.010400000007
vertex 521.681759625179 341.614667691168 475.010400000007
endloop
endfacet
facet normal 8.64893184352893e-15 -2.12790265128962e-14 1.0
outer loop
vertex 522.079835836533 343.114667691168 475.010400000007
vertex 521.681759625179 341.614667691168 475.010400000007
vertex 522.079835836533 340.114667691168 475.010400000007
endloop
endfacet
facet normal 8.64893184352893e-15 -2.12790265128962e-14 1.0
outer loop
vertex 522.079835836533 343.114667691168 475.010400000007
vertex 522.079835836533 340.114667691168 475.010400000007
vertex 522.379537104046 340.838210555861 475.010400000009
endloop
endfacet
facet normal 8.64893184352893e-15 -2.12790265128962e-14 1.0
outer loop
vertex 522.079835836533 343.114667691168 475.010400000007
vertex 522.379537104046 340.838210555861 475.010400000009
vertex 522.379537104046 342.391124826476 475.010400000007
endloop
endfacet
facet normal 8.64893184352893e-15 -2.12790265128962e-14 1.0
outer loop
vertex 522.379537104046 342.391124826476 475.010400000007
vertex 522.379537104046 340.838210555861 475.010400000009
vertex 522.481759625179 341.614667691168 475.010400000009
endloop
endfacet
facet normal -0.118401979317521 -0.28584766428021 0.950932218467353
outer loop
vertex 517.902963450054 335.722520150804 474.010400000007
vertex 517.981759625179 339.016591479815 475.010400000009
vertex 516.431759625179 336.331912728082 474.010400000007
endloop
endfacet
facet normal -0.118401979317521 -0.28584766428021 0.950932218467353
outer loop
vertex 517.981759625179 339.016591479815 475.010400000009
vertex 517.902963450054 335.722520150804 474.010400000007
vertex 518.705302489872 338.716890212301 475.010400000007
endloop
endfacet
facet normal 0.306752328537834 0.0403847101927137 0.950932218467367
outer loop
vertex 522.481759625179 341.614667691168 475.010400000009
vertex 525.373907165543 343.193463866293 474.010400000009
vertex 522.379537104046 342.391124826476 475.010400000007
endloop
endfacet
facet normal 0.306752328537834 0.0403847101927137 0.950932218467367
outer loop
vertex 525.373907165543 343.193463866293 474.010400000009
vertex 522.481759625179 341.614667691168 475.010400000009
vertex 525.581759625179 341.614667691167 474.010400000007
endloop
endfacet
facet normal 2.85155516660707e-16 1.0 -2.79252412729313e-13
outer loop
vertex 519.481759625179 339.414667691168 475.010400000008
vertex 520.051161524406 339.489630873329 463.010400000002
vertex 519.48175962518 339.414667691165 463.010400000002
endloop
endfacet
facet normal -0.258819045102539 0.965925826289063 -2.906897360682e-13
outer loop
vertex 520.051161524406 339.489630873329 463.010400000002
vertex 519.481759625179 339.414667691168 475.010400000008
vertex 520.051161524405 339.489630873332 475.010400000008
endloop
endfacet
facet normal 0.866025403784429 -0.500000000000016 2.09735034488485e-13
outer loop
vertex 517.576503736854 342.714667691165 463.010400000001
vertex 517.356722807343 342.184069590394 475.010400000007
vertex 517.356722807344 342.18406959039 463.010400000001
endloop
endfacet
facet normal 0.965925826289063 -0.25881904510254 1.50472079820556e-13
outer loop
vertex 517.356722807343 342.184069590394 475.010400000007
vertex 517.576503736854 342.714667691165 463.010400000001
vertex 517.576503736853 342.714667691168 475.010400000007
endloop
endfacet
facet normal -0.707106781186554 -0.707106781186541 1.40217656247647e-13
outer loop
vertex 521.037394543791 343.170302609775 463.010400000001
vertex 520.581759625179 343.519923579494 475.010400000007
vertex 520.58175962518 343.519923579491 463.010400000001
endloop
endfacet
facet normal -0.500000000000021 -0.866025403784426 2.01362332701817e-13
outer loop
vertex 520.581759625179 343.519923579494 475.010400000007
vertex 521.037394543791 343.170302609775 463.010400000001
vertex 521.03739454379 343.170302609779 475.010400000007
endloop
endfacet
facet normal 0.245462954087406 -0.18835034922034 0.950932218467363
outer loop
vertex 523.795110990417 337.301316325929 474.010400000007
vertex 522.079835836533 340.114667691168 475.010400000007
vertex 521.603079968739 339.493347347609 475.010400000007
endloop
endfacet
facet normal 0.245462954087406 -0.18835034922034 0.950932218467363
outer loop
vertex 522.079835836533 340.114667691168 475.010400000007
vertex 523.795110990417 337.301316325929 474.010400000007
vertex 524.764514588264 338.564667691167 474.010400000007
endloop
endfacet
facet normal 0.0403847101927092 0.3067523285378 0.950932218467378
outer loop
vertex 520.258216760487 344.512445170036 475.010400000007
vertex 519.481759625179 347.714667691167 474.010400000007
vertex 519.481759625179 344.614667691168 475.010400000007
endloop
endfacet
facet normal 0.0403847101927092 0.3067523285378 0.950932218467378
outer loop
vertex 519.481759625179 347.714667691167 474.010400000007
vertex 520.258216760487 344.512445170036 475.010400000007
vertex 521.060555800305 347.50681523153 474.010400000009
endloop
endfacet
facet normal 0.965925826289064 0.258819045102537 5.92039421019404e-15
outer loop
vertex 517.356722807344 341.045265791939 463.010400000001
vertex 517.576503736853 340.514667691168 475.010400000007
vertex 517.576503736854 340.514667691165 463.010400000001
endloop
endfacet
facet normal 0.866025403784429 0.500000000000016 -6.95173782408369e-14
outer loop
vertex 517.576503736853 340.514667691168 475.010400000007
vertex 517.356722807344 341.045265791939 463.010400000001
vertex 517.356722807343 341.045265791943 475.010400000007
endloop
endfacet
facet normal -0.866025403784425 -0.500000000000023 6.95173782408393e-14
outer loop
vertex 521.387015513505 342.714667691168 475.010400000007
vertex 521.037394543791 343.170302609775 463.010400000001
vertex 521.387015513506 342.714667691165 463.010400000001
endloop
endfacet
facet normal -0.707106781186554 -0.707106781186541 1.40217656247647e-13
outer loop
vertex 521.037394543791 343.170302609775 463.010400000001
vertex 521.387015513505 342.714667691168 475.010400000007
vertex 521.03739454379 343.170302609779 475.010400000007
endloop
endfacet
facet normal 0.0403847101927621 -0.306752328537815 0.950932218467371
outer loop
vertex 519.481759625179 335.514667691167 474.010400000007
vertex 520.258216760487 338.716890212301 475.010400000007
vertex 519.481759625179 338.614667691168 475.010400000007
endloop
endfacet
facet normal 0.0403847101927621 -0.306752328537815 0.950932218467371
outer loop
vertex 520.258216760487 338.716890212301 475.010400000007
vertex 519.481759625179 335.514667691167 474.010400000007
vertex 521.060555800305 335.722520150804 474.010400000007
endloop
endfacet
facet normal 0.306752328537848 -0.040384710192803 0.950932218467358
outer loop
vertex 525.373907165543 340.035871516042 474.010400000007
vertex 522.481759625179 341.614667691168 475.010400000009
vertex 522.379537104046 340.838210555861 475.010400000009
endloop
endfacet
facet normal 0.306752328537848 -0.040384710192803 0.950932218467358
outer loop
vertex 522.481759625179 341.614667691168 475.010400000009
vertex 525.373907165543 340.035871516042 474.010400000007
vertex 525.581759625179 341.614667691167 474.010400000007
endloop
endfacet
facet normal 0.118401979317471 0.285847664280145 0.950932218467379
outer loop
vertex 520.981759625179 344.212743902522 475.010400000007
vertex 521.060555800305 347.50681523153 474.010400000009
vertex 520.258216760487 344.512445170036 475.010400000007
endloop
endfacet
facet normal 0.118401979317471 0.285847664280145 0.950932218467379
outer loop
vertex 521.060555800305 347.50681523153 474.010400000009
vertex 520.981759625179 344.212743902522 475.010400000007
vertex 522.531759625179 346.897422654252 474.010400000009
endloop
endfacet
facet normal -0.285847664280192 -0.118401979317491 0.950932218467363
outer loop
vertex 514.199004662094 338.564667691167 474.010400000009
vertex 516.583982146312 340.838210555861 475.010400000007
vertex 513.589612084816 340.035871516042 474.010400000007
endloop
endfacet
facet normal -0.285847664280192 -0.118401979317491 0.950932218467363
outer loop
vertex 516.583982146312 340.838210555861 475.010400000007
vertex 514.199004662094 338.564667691167 474.010400000009
vertex 516.883683413826 340.114667691168 475.010400000007
endloop
endfacet
facet normal 0.258819045102539 -0.965925826289063 2.906897360682e-13
outer loop
vertex 518.912357725954 343.739704509004 475.010400000006
vertex 518.38175962518 343.519923579491 463.010400000001
vertex 518.912357725955 343.739704509001 463.010400000001
endloop
endfacet
facet normal 0.500000000000025 -0.866025403784424 2.82317034281539e-13
outer loop
vertex 518.38175962518 343.519923579491 463.010400000001
vertex 518.912357725954 343.739704509004 475.010400000006
vertex 518.381759625179 343.519923579494 475.010400000006
endloop
endfacet
facet normal 0.118401979317511 -0.285847664280154 0.950932218467371
outer loop
vertex 521.060555800305 335.722520150804 474.010400000007
vertex 520.981759625179 339.016591479815 475.010400000007
vertex 520.258216760487 338.716890212301 475.010400000007
endloop
endfacet
facet normal 0.118401979317511 -0.285847664280154 0.950932218467371
outer loop
vertex 520.981759625179 339.016591479815 475.010400000007
vertex 521.060555800305 335.722520150804 474.010400000007
vertex 522.531759625179 336.331912728082 474.010400000007
endloop
endfacet
facet normal 0.965925826289065 -0.258819045102531 1.50472079820553e-13
outer loop
vertex 517.356722807344 342.18406959039 463.010400000001
vertex 517.281759625179 341.614667691168 475.010400000007
vertex 517.28175962518 341.614667691165 463.010400000001
endloop
endfacet
facet normal 1.0 2.59313297963325e-15 8.0954701579718e-14
outer loop
vertex 517.281759625179 341.614667691168 475.010400000007
vertex 517.356722807344 342.18406959039 463.010400000001
vertex 517.356722807343 342.184069590394 475.010400000007
endloop
endfacet
facet normal 0.500000000000018 0.866025403784428 -2.01362332701818e-13
outer loop
vertex 518.381759625179 339.709411802843 475.010400000007
vertex 518.912357725955 339.489630873329 463.010400000002
vertex 518.38175962518 339.709411802839 463.010400000002
endloop
endfacet
facet normal 0.258819045102539 0.965925826289063 -2.48784498949352e-13
outer loop
vertex 518.912357725955 339.489630873329 463.010400000002
vertex 518.381759625179 339.709411802843 475.010400000007
vertex 518.912357725954 339.489630873332 475.010400000008
endloop
endfacet
facet normal 0.28584766428015 0.118401979317567 0.950932218467365
outer loop
vertex 522.379537104046 342.391124826476 475.010400000007
vertex 524.764514588264 344.664667691167 474.010400000007
vertex 522.079835836533 343.114667691168 475.010400000007
endloop
endfacet
facet normal 0.28584766428015 0.118401979317567 0.950932218467365
outer loop
vertex 524.764514588264 344.664667691167 474.010400000007
vertex 522.379537104046 342.391124826476 475.010400000007
vertex 525.373907165543 343.193463866293 474.010400000009
endloop
endfacet
facet normal -0.500000000000026 0.866025403784424 -2.82317034281539e-13
outer loop
vertex 520.58175962518 339.709411802839 463.010400000002
vertex 521.03739454379 340.059032772558 475.010400000008
vertex 521.037394543791 340.059032772554 463.010400000002
endloop
endfacet
facet normal -0.707106781186547 0.707106781186548 -2.54704893159554e-13
outer loop
vertex 521.03739454379 340.059032772558 475.010400000008
vertex 520.58175962518 339.709411802839 463.010400000002
vertex 520.581759625179 339.709411802843 475.010400000008
endloop
endfacet
facet normal -0.306752328537845 0.0403847101926715 0.950932218467365
outer loop
vertex 516.481759625179 341.614667691168 475.010400000007
vertex 513.589612084816 343.193463866292 474.010400000009
vertex 513.381759625179 341.614667691167 474.010400000007
endloop
endfacet
facet normal -0.306752328537845 0.0403847101926715 0.950932218467365
outer loop
vertex 513.589612084816 343.193463866292 474.010400000009
vertex 516.481759625179 341.614667691168 475.010400000007
vertex 516.583982146312 342.391124826476 475.010400000007
endloop
endfacet
facet normal 0.24546295408743 0.188350349220329 0.950932218467359
outer loop
vertex 522.079835836533 343.114667691168 475.010400000007
vertex 523.795110990417 345.928019056405 474.010400000007
vertex 521.603079968739 343.735988034728 475.010400000007
endloop
endfacet
facet normal 0.24546295408743 0.188350349220329 0.950932218467359
outer loop
vertex 523.795110990417 345.928019056405 474.010400000007
vertex 522.079835836533 343.114667691168 475.010400000007
vertex 524.764514588264 344.664667691167 474.010400000007
endloop
endfacet
facet normal -0.118401979317529 0.285847664280197 0.950932218467356
outer loop
vertex 517.981759625179 344.212743902522 475.010400000007
vertex 517.902963450054 347.50681523153 474.010400000007
vertex 516.431759625179 346.897422654252 474.010400000007
endloop
endfacet
facet normal -0.118401979317529 0.285847664280197 0.950932218467356
outer loop
vertex 517.902963450054 347.50681523153 474.010400000007
vertex 517.981759625179 344.212743902522 475.010400000007
vertex 518.705302489872 344.512445170036 475.010400000007
endloop
endfacet
facet normal -0.707106781186547 0.707106781186548 -2.54704893159554e-13
outer loop
vertex 521.03739454379 340.059032772558 475.010400000008
vertex 521.387015513506 340.514667691165 463.010400000002
vertex 521.037394543791 340.059032772554 463.010400000002
endloop
endfacet
facet normal -0.866025403784425 0.500000000000023 -2.09735034488486e-13
outer loop
vertex 521.387015513506 340.514667691165 463.010400000002
vertex 521.03739454379 340.059032772558 475.010400000008
vertex 521.387015513505 340.514667691168 475.010400000007
endloop
endfacet
facet normal -0.1883503492203 -0.245462954087465 0.950932218467355
outer loop
vertex 516.431759625179 336.331912728082 474.010400000007
vertex 517.36043928162 339.493347347609 475.010400000009
vertex 515.168408259941 337.301316325929 474.010400000007
endloop
endfacet
facet normal -0.1883503492203 -0.245462954087465 0.950932218467355
outer loop
vertex 517.36043928162 339.493347347609 475.010400000009
vertex 516.431759625179 336.331912728082 474.010400000007
vertex 517.981759625179 339.016591479815 475.010400000009
endloop
endfacet
facet normal -0.500000000000012 -0.866025403784432 2.01362332701819e-13
outer loop
vertex 520.58175962518 343.519923579491 463.010400000001
vertex 520.051161524405 343.739704509004 475.010400000006
vertex 520.051161524406 343.739704509001 463.010400000001
endloop
endfacet
facet normal -0.258819045102539 -0.965925826289063 2.48784498949352e-13
outer loop
vertex 520.051161524405 343.739704509004 475.010400000006
vertex 520.58175962518 343.519923579491 463.010400000001
vertex 520.581759625179 343.519923579494 475.010400000007
endloop
endfacet
facet normal -1.0 2.60204408952886e-15 -8.09547015797195e-14
outer loop
vertex 521.681759625179 341.614667691168 475.010400000007
vertex 521.606796443016 342.18406959039 463.010400000001
vertex 521.68175962518 341.614667691165 463.010400000001
endloop
endfacet
facet normal -0.965925826289063 -0.25881904510254 -5.9203942101931e-15
outer loop
vertex 521.606796443016 342.18406959039 463.010400000001
vertex 521.681759625179 341.614667691168 475.010400000007
vertex 521.606796443015 342.184069590394 475.010400000007
endloop
endfacet
facet normal 0.866025403784429 0.500000000000017 -6.95173782408374e-14
outer loop
vertex 517.576503736854 340.514667691165 463.010400000001
vertex 517.926124706569 340.059032772558 475.010400000007
vertex 517.92612470657 340.059032772554 463.010400000001
endloop
endfacet
facet normal 0.707106781186549 0.707106781186546 -1.40217656247649e-13
outer loop
vertex 517.926124706569 340.059032772558 475.010400000007
vertex 517.576503736854 340.514667691165 463.010400000001
vertex 517.576503736853 340.514667691168 475.010400000007
endloop
endfacet
facet normal 0.50000000000002 -0.866025403784427 2.8231703428154e-13
outer loop
vertex 518.381759625179 343.519923579494 475.010400000006
vertex 517.92612470657 343.170302609775 463.010400000001
vertex 518.38175962518 343.519923579491 463.010400000001
endloop
endfacet
facet normal 0.707106781186547 -0.707106781186548 2.54704893159554e-13
outer loop
vertex 517.92612470657 343.170302609775 463.010400000001
vertex 518.381759625179 343.519923579494 475.010400000006
vertex 517.926124706569 343.170302609779 475.010400000006
endloop
endfacet
facet normal -0.965925826289064 -0.258819045102537 -5.92039421019404e-15
outer loop
vertex 521.606796443015 342.184069590394 475.010400000007
vertex 521.387015513506 342.714667691165 463.010400000001
vertex 521.606796443016 342.18406959039 463.010400000001
endloop
endfacet
facet normal -0.866025403784433 -0.50000000000001 6.95173782408351e-14
outer loop
vertex 521.387015513506 342.714667691165 463.010400000001
vertex 521.606796443015 342.184069590394 475.010400000007
vertex 521.387015513505 342.714667691168 475.010400000007
endloop
endfacet
facet normal -0.965925826289064 0.258819045102538 -1.50472079820555e-13
outer loop
vertex 521.606796443015 341.045265791943 475.010400000007
vertex 521.68175962518 341.614667691165 463.010400000001
vertex 521.606796443016 341.045265791939 463.010400000001
endloop
endfacet
facet normal -1.0 -2.59313297963325e-15 -8.0954701579718e-14
outer loop
vertex 521.68175962518 341.614667691165 463.010400000001
vertex 521.606796443015 341.045265791943 475.010400000007
vertex 521.681759625179 341.614667691168 475.010400000007
endloop
endfacet
facet normal 0.285847664280203 -0.118401979317528 0.950932218467354
outer loop
vertex 524.764514588264 338.564667691167 474.010400000007
vertex 522.379537104046 340.838210555861 475.010400000009
vertex 522.079835836533 340.114667691168 475.010400000007
endloop
endfacet
facet normal 0.285847664280203 -0.118401979317528 0.950932218467354
outer loop
vertex 522.379537104046 340.838210555861 475.010400000009
vertex 524.764514588264 338.564667691167 474.010400000007
vertex 525.373907165543 340.035871516042 474.010400000007
endloop
endfacet
facet normal 0.13052619222005 0.991444861373811 4.78421246613557e-15
outer loop
vertex 519.481759625179 347.714667691167 474.010400000007
vertex 521.060555800304 347.506815231531 463.010400000003
vertex 519.481759625179 347.714667691167 463.010400000001
endloop
endfacet
facet normal 0.13052619222005 0.991444861373811 4.78421246613557e-15
outer loop
vertex 521.060555800304 347.506815231531 463.010400000003
vertex 519.481759625179 347.714667691167 474.010400000007
vertex 521.060555800305 347.50681523153 474.010400000009
endloop
endfacet
facet normal -0.382683432365051 -0.923879532511303 -3.57535007721622e-15
outer loop
vertex 517.902963450054 335.722520150804 474.010400000007
vertex 516.431759625179 336.331912728082 463.010400000001
vertex 517.902963450054 335.722520150804 463.010400000001
endloop
endfacet
facet normal -0.382683432365051 -0.923879532511303 -3.57535007721622e-15
outer loop
vertex 516.431759625179 336.331912728082 463.010400000001
vertex 517.902963450054 335.722520150804 474.010400000007
vertex 516.431759625179 336.331912728082 474.010400000007
endloop
endfacet
facet normal 0.793353340291271 -0.608761429008674 -5.89156947317654e-15
outer loop
vertex 523.795110990417 337.301316325929 463.010400000001
vertex 524.764514588264 338.564667691167 474.010400000007
vertex 523.795110990417 337.301316325929 474.010400000007
endloop
endfacet
facet normal 0.793353340291271 -0.608761429008674 -5.89156947317654e-15
outer loop
vertex 524.764514588264 338.564667691167 474.010400000007
vertex 523.795110990417 337.301316325929 463.010400000001
vertex 524.764514588264 338.564667691167 463.010400000001
endloop
endfacet
facet normal 0.923879532511289 -0.382683432365085 -5.14138937496238e-15
outer loop
vertex 524.764514588264 338.564667691167 463.010400000001
vertex 525.373907165543 340.035871516042 474.010400000007
vertex 524.764514588264 338.564667691167 474.010400000007
endloop
endfacet
facet normal 0.923879532511289 -0.382683432365085 -5.14138937496238e-15
outer loop
vertex 525.373907165543 340.035871516042 474.010400000007
vertex 524.764514588264 338.564667691167 463.010400000001
vertex 525.373907165542 340.035871516042 463.010400000001
endloop
endfacet
facet normal -0.991444861373811 0.13052619222005 4.04083208739212e-15
outer loop
vertex 513.589612084816 343.193463866292 474.010400000009
vertex 513.381759625179 341.614667691167 463.010400000002
vertex 513.381759625179 341.614667691167 474.010400000007
endloop
endfacet
facet normal -0.991444861373811 0.13052619222005 4.04083208739212e-15
outer loop
vertex 513.381759625179 341.614667691167 463.010400000002
vertex 513.589612084816 343.193463866292 474.010400000009
vertex 513.589612084816 343.193463866293 463.010400000003
endloop
endfacet
facet normal 0.382683432365095 -0.923879532511285 -6.16366557647167e-15
outer loop
vertex 522.531759625179 336.331912728082 474.010400000007
vertex 521.060555800305 335.722520150804 463.010400000001
vertex 522.531759625179 336.331912728082 463.010400000001
endloop
endfacet
facet normal 0.382683432365095 -0.923879532511285 -6.16366557647167e-15
outer loop
vertex 521.060555800305 335.722520150804 463.010400000001
vertex 522.531759625179 336.331912728082 474.010400000007
vertex 521.060555800305 335.722520150804 474.010400000007
endloop
endfacet
facet normal -0.608761429008709 0.793353340291244 6.24024884807285e-15
outer loop
vertex 515.168408259941 345.928019056405 474.010400000007
vertex 516.431759625179 346.897422654252 463.010400000001
vertex 515.168408259941 345.928019056405 463.010400000001
endloop
endfacet
facet normal -0.608761429008709 0.793353340291244 6.24024884807285e-15
outer loop
vertex 516.431759625179 346.897422654252 463.010400000001
vertex 515.168408259941 345.928019056405 474.010400000007
vertex 516.431759625179 346.897422654252 474.010400000007
endloop
endfacet
facet normal 0.991444861373811 0.13052619222005 -2.66489877085684e-15
outer loop
vertex 525.581759625179 341.614667691167 463.010400000002
vertex 525.373907165543 343.193463866293 474.010400000009
vertex 525.581759625179 341.614667691167 474.010400000007
endloop
endfacet
facet normal 0.991444861373811 0.13052619222005 -2.66489877085684e-15
outer loop
vertex 525.373907165543 343.193463866293 474.010400000009
vertex 525.581759625179 341.614667691167 463.010400000002
vertex 525.373907165542 343.193463866293 463.010400000003
endloop
endfacet
facet normal -0.991444861373811 -0.13052619222005 2.66489877085684e-15
outer loop
vertex 513.381759625179 341.614667691167 474.010400000007
vertex 513.589612084816 340.035871516042 463.010400000002
vertex 513.589612084816 340.035871516042 474.010400000007
endloop
endfacet
facet normal -0.991444861373811 -0.13052619222005 2.66489877085684e-15
outer loop
vertex 513.589612084816 340.035871516042 463.010400000002
vertex 513.381759625179 341.614667691167 474.010400000007
vertex 513.381759625179 341.614667691167 463.010400000002
endloop
endfacet
facet normal -0.793353340291223 -0.608761429008737 -5.25649306810638e-16
outer loop
vertex 514.199004662094 338.564667691167 474.010400000009
vertex 515.168408259941 337.301316325929 463.010400000002
vertex 515.168408259941 337.301316325929 474.010400000007
endloop
endfacet
facet normal -0.793353340291223 -0.608761429008737 -5.25649306810638e-16
outer loop
vertex 515.168408259941 337.301316325929 463.010400000002
vertex 514.199004662094 338.564667691167 474.010400000009
vertex 514.199004662094 338.564667691167 463.010400000003
endloop
endfacet
facet normal 0.793353340291223 0.608761429008737 5.25649306810638e-16
outer loop
vertex 524.764514588264 344.664667691167 463.010400000002
vertex 523.795110990417 345.928019056405 474.010400000007
vertex 524.764514588264 344.664667691167 474.010400000007
endloop
endfacet
facet normal 0.793353340291223 0.608761429008737 5.25649306810638e-16
outer loop
vertex 523.795110990417 345.928019056405 474.010400000007
vertex 524.764514588264 344.664667691167 463.010400000002
vertex 523.795110990417 345.928019056405 463.010400000002
endloop
endfacet
facet normal -0.923879532511289 0.382683432365085 5.14138937496238e-15
outer loop
vertex 514.199004662094 344.664667691167 474.010400000009
vertex 513.589612084816 343.193463866293 463.010400000003
vertex 513.589612084816 343.193463866292 474.010400000009
endloop
endfacet
facet normal -0.923879532511289 0.382683432365085 5.14138937496238e-15
outer loop
vertex 513.589612084816 343.193463866293 463.010400000003
vertex 514.199004662094 344.664667691167 474.010400000009
vertex 514.199004662094 344.664667691167 463.010400000003
endloop
endfacet
facet normal -0.608761429008737 -0.793353340291223 -2.12283348907942e-15
outer loop
vertex 516.431759625179 336.331912728082 474.010400000007
vertex 515.168408259941 337.301316325929 463.010400000002
vertex 516.431759625179 336.331912728082 463.010400000001
endloop
endfacet
facet normal -0.608761429008737 -0.793353340291223 -2.12283348907942e-15
outer loop
vertex 515.168408259941 337.301316325929 463.010400000002
vertex 516.431759625179 336.331912728082 474.010400000007
vertex 515.168408259941 337.301316325929 474.010400000007
endloop
endfacet
facet normal 0.382683432365051 0.923879532511303 3.57535007721622e-15
outer loop
vertex 521.060555800305 347.50681523153 474.010400000009
vertex 522.531759625179 346.897422654252 463.010400000003
vertex 521.060555800304 347.506815231531 463.010400000003
endloop
endfacet
facet normal 0.382683432365051 0.923879532511303 3.57535007721622e-15
outer loop
vertex 522.531759625179 346.897422654252 463.010400000003
vertex 521.060555800305 347.50681523153 474.010400000009
vertex 522.531759625179 346.897422654252 474.010400000009
endloop
endfacet
facet normal 0.130526192220078 -0.991444861373807 -5.66703868177298e-15
outer loop
vertex 521.060555800305 335.722520150804 474.010400000007
vertex 519.481759625179 335.514667691167 463.010400000001
vertex 521.060555800305 335.722520150804 463.010400000001
endloop
endfacet
facet normal 0.130526192220078 -0.991444861373807 -5.66703868177298e-15
outer loop
vertex 519.481759625179 335.514667691167 463.010400000001
vertex 521.060555800305 335.722520150804 474.010400000007
vertex 519.481759625179 335.514667691167 474.010400000007
endloop
endfacet
facet normal 0.608761429008709 -0.793353340291244 -6.24024884807285e-15
outer loop
vertex 523.795110990417 337.301316325929 474.010400000007
vertex 522.531759625179 336.331912728082 463.010400000001
vertex 523.795110990417 337.301316325929 463.010400000001
endloop
endfacet
facet normal 0.608761429008709 -0.793353340291244 -6.24024884807285e-15
outer loop
vertex 522.531759625179 336.331912728082 463.010400000001
vertex 523.795110990417 337.301316325929 474.010400000007
vertex 522.531759625179 336.331912728082 474.010400000007
endloop
endfacet
facet normal -0.793353340291271 0.608761429008674 5.89156947317654e-15
outer loop
vertex 515.168408259941 345.928019056405 474.010400000007
vertex 514.199004662094 344.664667691167 463.010400000003
vertex 514.199004662094 344.664667691167 474.010400000009
endloop
endfacet
facet normal -0.793353340291271 0.608761429008674 5.89156947317654e-15
outer loop
vertex 514.199004662094 344.664667691167 463.010400000003
vertex 515.168408259941 345.928019056405 474.010400000007
vertex 515.168408259941 345.928019056405 463.010400000001
endloop
endfacet
facet normal -0.923879532511269 -0.382683432365133 1.10735700704081e-15
outer loop
vertex 513.589612084816 340.035871516042 474.010400000007
vertex 514.199004662094 338.564667691167 463.010400000003
vertex 514.199004662094 338.564667691167 474.010400000009
endloop
endfacet
facet normal -0.923879532511269 -0.382683432365133 1.10735700704081e-15
outer loop
vertex 514.199004662094 338.564667691167 463.010400000003
vertex 513.589612084816 340.035871516042 474.010400000007
vertex 513.589612084816 340.035871516042 463.010400000002
endloop
endfacet
facet normal -0.130526192220078 0.991444861373807 5.66703868177298e-15
outer loop
vertex 517.902963450054 347.50681523153 474.010400000007
vertex 519.481759625179 347.714667691167 463.010400000001
vertex 517.902963450054 347.506815231531 463.010400000001
endloop
endfacet
facet normal -0.130526192220078 0.991444861373807 5.66703868177298e-15
outer loop
vertex 519.481759625179 347.714667691167 463.010400000001
vertex 517.902963450054 347.50681523153 474.010400000007
vertex 519.481759625179 347.714667691167 474.010400000007
endloop
endfacet
facet normal -0.382683432365095 0.923879532511285 6.16366557647167e-15
outer loop
vertex 516.431759625179 346.897422654252 474.010400000007
vertex 517.902963450054 347.506815231531 463.010400000001
vertex 516.431759625179 346.897422654252 463.010400000001
endloop
endfacet
facet normal -0.382683432365095 0.923879532511285 6.16366557647167e-15
outer loop
vertex 517.902963450054 347.506815231531 463.010400000001
vertex 516.431759625179 346.897422654252 474.010400000007
vertex 517.902963450054 347.50681523153 474.010400000007
endloop
endfacet
facet normal 0.707106781186549 0.707106781186546 -1.40217656247649e-13
outer loop
vertex 517.926124706569 340.059032772558 475.010400000007
vertex 518.38175962518 339.709411802839 463.010400000002
vertex 517.92612470657 340.059032772554 463.010400000001
endloop
endfacet
facet normal 0.500000000000016 0.86602540378443 -2.01362332701819e-13
outer loop
vertex 518.38175962518 339.709411802839 463.010400000002
vertex 517.926124706569 340.059032772558 475.010400000007
vertex 518.381759625179 339.709411802843 475.010400000007
endloop
endfacet
facet normal 2.85155516660692e-16 -1.0 2.79252412729313e-13
outer loop
vertex 519.481759625179 343.814667691168 475.010400000006
vertex 518.912357725955 343.739704509001 463.010400000001
vertex 519.48175962518 343.814667691165 463.010400000001
endloop
endfacet
facet normal 0.258819045102538 -0.965925826289064 2.906897360682e-13
outer loop
vertex 518.912357725955 343.739704509001 463.010400000001
vertex 519.481759625179 343.814667691168 475.010400000006
vertex 518.912357725954 343.739704509004 475.010400000006
endloop
endfacet
facet normal -0.258819045102539 -0.965925826289063 2.48784498949352e-13
outer loop
vertex 520.051161524405 343.739704509004 475.010400000006
vertex 519.48175962518 343.814667691165 463.010400000001
vertex 520.051161524406 343.739704509001 463.010400000001
endloop
endfacet
facet normal -6.86155461964792e-15 -1.0 2.79252412729312e-13
outer loop
vertex 519.48175962518 343.814667691165 463.010400000001
vertex 520.051161524405 343.739704509004 475.010400000006
vertex 519.481759625179 343.814667691168 475.010400000006
endloop
endfacet
facet normal -0.245462954087374 0.188350349220315 0.950932218467376
outer loop
vertex 516.883683413826 343.114667691168 475.010400000007
vertex 515.168408259941 345.928019056405 474.010400000007
vertex 514.199004662094 344.664667691167 474.010400000009
endloop
endfacet
facet normal -0.245462954087374 0.188350349220315 0.950932218467376
outer loop
vertex 515.168408259941 345.928019056405 474.010400000007
vertex 516.883683413826 343.114667691168 475.010400000007
vertex 517.36043928162 343.735988034728 475.010400000007
endloop
endfacet
facet normal -0.245462954087396 -0.188350349220357 0.950932218467362
outer loop
vertex 515.168408259941 337.301316325929 474.010400000007
vertex 516.883683413826 340.114667691168 475.010400000007
vertex 514.199004662094 338.564667691167 474.010400000009
endloop
endfacet
facet normal -0.245462954087396 -0.188350349220357 0.950932218467362
outer loop
vertex 516.883683413826 340.114667691168 475.010400000007
vertex 515.168408259941 337.301316325929 474.010400000007
vertex 517.36043928162 339.493347347609 475.010400000009
endloop
endfacet
facet normal 0.991444861373811 -0.13052619222005 -4.04083208739212e-15
outer loop
vertex 525.373907165542 340.035871516042 463.010400000001
vertex 525.581759625179 341.614667691167 474.010400000007
vertex 525.373907165543 340.035871516042 474.010400000007
endloop
endfacet
facet normal 0.991444861373811 -0.13052619222005 -4.04083208739212e-15
outer loop
vertex 525.581759625179 341.614667691167 474.010400000007
vertex 525.373907165542 340.035871516042 463.010400000001
vertex 525.581759625179 341.614667691167 463.010400000002
endloop
endfacet
facet normal -0.13052619222005 -0.991444861373811 -4.78421246613557e-15
outer loop
vertex 519.481759625179 335.514667691167 474.010400000007
vertex 517.902963450054 335.722520150804 463.010400000001
vertex 519.481759625179 335.514667691167 463.010400000001
endloop
endfacet
facet normal -0.13052619222005 -0.991444861373811 -4.78421246613557e-15
outer loop
vertex 517.902963450054 335.722520150804 463.010400000001
vertex 519.481759625179 335.514667691167 474.010400000007
vertex 517.902963450054 335.722520150804 474.010400000007
endloop
endfacet
facet normal 0.608761429008737 0.793353340291223 2.12283348907942e-15
outer loop
vertex 522.531759625179 346.897422654252 463.010400000003
vertex 523.795110990417 345.928019056405 474.010400000007
vertex 523.795110990417 345.928019056405 463.010400000002
endloop
endfacet
facet normal 0.608761429008737 0.793353340291223 2.12283348907942e-15
outer loop
vertex 523.795110990417 345.928019056405 474.010400000007
vertex 522.531759625179 346.897422654252 463.010400000003
vertex 522.531759625179 346.897422654252 474.010400000009
endloop
endfacet
facet normal -0.258819045102538 0.965925826289064 -2.906897360682e-13
outer loop
vertex 520.051161524405 339.489630873332 475.010400000008
vertex 520.58175962518 339.709411802839 463.010400000002
vertex 520.051161524406 339.489630873329 463.010400000002
endloop
endfacet
facet normal -0.500000000000026 0.866025403784424 -2.82317034281539e-13
outer loop
vertex 520.58175962518 339.709411802839 463.010400000002
vertex 520.051161524405 339.489630873332 475.010400000008
vertex 520.581759625179 339.709411802843 475.010400000008
endloop
endfacet
facet normal 0.707106781186547 -0.707106781186548 2.54704893159554e-13
outer loop
vertex 517.92612470657 343.170302609775 463.010400000001
vertex 517.576503736853 342.714667691168 475.010400000007
vertex 517.576503736854 342.714667691165 463.010400000001
endloop
endfacet
facet normal 0.866025403784425 -0.500000000000023 2.09735034488486e-13
outer loop
vertex 517.576503736853 342.714667691168 475.010400000007
vertex 517.92612470657 343.170302609775 463.010400000001
vertex 517.926124706569 343.170302609779 475.010400000006
endloop
endfacet
facet normal -0.866025403784429 0.500000000000016 -2.09735034488485e-13
outer loop
vertex 521.387015513505 340.514667691168 475.010400000007
vertex 521.606796443016 341.045265791939 463.010400000001
vertex 521.387015513506 340.514667691165 463.010400000002
endloop
endfacet
facet normal -0.965925826289065 0.258819045102534 -1.50472079820554e-13
outer loop
vertex 521.606796443016 341.045265791939 463.010400000001
vertex 521.387015513505 340.514667691168 475.010400000007
vertex 521.606796443015 341.045265791943 475.010400000007
endloop
endfacet
facet normal -0.188350349220346 0.245462954087397 0.950932218467364
outer loop
vertex 517.36043928162 343.735988034728 475.010400000007
vertex 516.431759625179 346.897422654252 474.010400000007
vertex 515.168408259941 345.928019056405 474.010400000007
endloop
endfacet
facet normal -0.188350349220346 0.245462954087397 0.950932218467364
outer loop
vertex 516.431759625179 346.897422654252 474.010400000007
vertex 517.36043928162 343.735988034728 475.010400000007
vertex 517.981759625179 344.212743902522 475.010400000007
endloop
endfacet
facet normal 0.258819045102539 0.965925826289063 -2.48784498949352e-13
outer loop
vertex 518.912357725954 339.489630873332 475.010400000008
vertex 519.48175962518 339.414667691165 463.010400000002
vertex 518.912357725955 339.489630873329 463.010400000002
endloop
endfacet
facet normal 6.30015469622185e-15 1.0 -2.79252412729312e-13
outer loop
vertex 519.48175962518 339.414667691165 463.010400000002
vertex 518.912357725954 339.489630873332 475.010400000008
vertex 519.481759625179 339.414667691168 475.010400000008
endloop
endfacet
endsolid K02.2
