solid K02.2
facet normal 1.0 2.3748107871894e-14 8.09547015797121e-14
outer loop
vertex 517.28175962518 341.614667691163 463.010400000004
vertex 517.356722807343 341.045265791941 475.01040000001
vertex 517.356722807344 341.045265791938 463.010400000004
endloop
endfacet
facet normal 0.96592582628907 0.258819045102516 5.92039421020057e-15
outer loop
vertex 517.356722807343 341.045265791941 475.01040000001
vertex 517.28175962518 341.614667691163 463.010400000004
vertex 517.281759625179 341.614667691167 475.01040000001
endloop
endfacet
facet normal 8.64893184352893e-15 -2.12790265128962e-14 1.0
outer loop
vertex 516.583982146312 340.838210555859 475.01040000001
vertex 516.583982146312 342.391124826474 475.010400000011
vertex 516.481759625179 341.614667691167 475.010400000011
endloop
endfacet
facet normal 8.64893184352893e-15 -2.12790265128962e-14 1.0
outer loop
vertex 516.583982146312 342.391124826474 475.010400000011
vertex 516.583982146312 340.838210555859 475.01040000001
vertex 516.883683413826 340.114667691167 475.01040000001
endloop
endfacet
facet normal 8.64893184352893e-15 -2.12790265128962e-14 1.0
outer loop
vertex 516.583982146312 342.391124826474 475.010400000011
vertex 516.883683413826 340.114667691167 475.01040000001
vertex 516.883683413826 343.114667691167 475.01040000001
endloop
endfacet
facet normal 8.64893184352893e-15 -2.12790265128962e-14 1.0
outer loop
vertex 516.883683413826 343.114667691167 475.01040000001
vertex 516.883683413826 340.114667691167 475.01040000001
vertex 517.36043928162 339.493347347607 475.010400000012
endloop
endfacet
facet normal 8.64893184352893e-15 -2.12790265128962e-14 1.0
outer loop
vertex 516.883683413826 343.114667691167 475.01040000001
vertex 517.36043928162 339.493347347607 475.010400000012
vertex 517.281759625179 341.614667691167 475.01040000001
endloop
endfacet
facet normal 8.64893184352893e-15 -2.12790265128962e-14 1.0
outer loop
vertex 517.281759625179 341.614667691167 475.01040000001
vertex 517.36043928162 339.493347347607 475.010400000012
vertex 517.356722807343 341.045265791941 475.01040000001
endloop
endfacet
facet normal 8.64893184352893e-15 -2.12790265128962e-14 1.0
outer loop
vertex 517.356722807343 341.045265791941 475.01040000001
vertex 517.36043928162 339.493347347607 475.010400000012
vertex 517.576503736853 340.514667691167 475.01040000001
endloop
endfacet
facet normal 8.64893184352893e-15 -2.12790265128962e-14 1.0
outer loop
vertex 517.576503736853 340.514667691167 475.01040000001
vertex 517.36043928162 339.493347347607 475.010400000012
vertex 517.981759625179 339.016591479814 475.010400000012
endloop
endfacet
facet normal 8.64893184352893e-15 -2.12790265128962e-14 1.0
outer loop
vertex 517.576503736853 340.514667691167 475.01040000001
vertex 517.981759625179 339.016591479814 475.010400000012
vertex 517.926124706569 340.059032772556 475.01040000001
endloop
endfacet
facet normal 8.64893184352893e-15 -2.12790265128962e-14 1.0
outer loop
vertex 517.926124706569 340.059032772556 475.01040000001
vertex 517.981759625179 339.016591479814 475.010400000012
vertex 518.381759625179 339.709411802841 475.010400000011
endloop
endfacet
facet normal 8.64893184352893e-15 -2.12790265128962e-14 1.0
outer loop
vertex 518.381759625179 339.709411802841 475.010400000011
vertex 517.981759625179 339.016591479814 475.010400000012
vertex 518.705302489872 338.7168902123 475.010400000011
endloop
endfacet
facet normal 8.64893184352893e-15 -2.12790265128962e-14 1.0
outer loop
vertex 518.381759625179 339.709411802841 475.010400000011
vertex 518.705302489872 338.7168902123 475.010400000011
vertex 518.912357725954 339.489630873331 475.010400000011
endloop
endfacet
facet normal 8.64893184352893e-15 -2.12790265128962e-14 1.0
outer loop
vertex 518.912357725954 339.489630873331 475.010400000011
vertex 518.705302489872 338.7168902123 475.010400000011
vertex 519.481759625179 338.614667691167 475.01040000001
endloop
endfacet
facet normal 8.64893184352893e-15 -2.12790265128962e-14 1.0
outer loop
vertex 518.912357725954 339.489630873331 475.010400000011
vertex 519.481759625179 338.614667691167 475.01040000001
vertex 519.481759625179 339.414667691167 475.010400000011
endloop
endfacet
facet normal 8.64893184352893e-15 -2.12790265128962e-14 1.0
outer loop
vertex 519.481759625179 339.414667691167 475.010400000011
vertex 519.481759625179 338.614667691167 475.01040000001
vertex 520.258216760487 338.7168902123 475.01040000001
endloop
endfacet
facet normal 8.64893184352893e-15 -2.12790265128962e-14 1.0
outer loop
vertex 519.481759625179 339.414667691167 475.010400000011
vertex 520.258216760487 338.7168902123 475.01040000001
vertex 520.051161524405 339.489630873331 475.010400000011
endloop
endfacet
facet normal 8.64893184352893e-15 -2.12790265128962e-14 1.0
outer loop
vertex 520.051161524405 339.489630873331 475.010400000011
vertex 520.258216760487 338.7168902123 475.01040000001
vertex 520.581759625179 339.709411802841 475.010400000011
endloop
endfacet
facet normal 8.64893184352893e-15 -2.12790265128962e-14 1.0
outer loop
vertex 520.581759625179 339.709411802841 475.010400000011
vertex 520.258216760487 338.7168902123 475.01040000001
vertex 520.981759625179 339.016591479814 475.01040000001
endloop
endfacet
facet normal 8.64893184352893e-15 -2.12790265128962e-14 1.0
outer loop
vertex 520.581759625179 339.709411802841 475.010400000011
vertex 520.981759625179 339.016591479814 475.01040000001
vertex 521.03739454379 340.059032772556 475.010400000011
endloop
endfacet
facet normal 8.64893184352893e-15 -2.12790265128962e-14 1.0
outer loop
vertex 521.03739454379 340.059032772556 475.010400000011
vertex 520.981759625179 339.016591479814 475.01040000001
vertex 521.603079968739 339.493347347607 475.01040000001
endloop
endfacet
facet normal 8.64893184352893e-15 -2.12790265128962e-14 1.0
outer loop
vertex 521.03739454379 340.059032772556 475.010400000011
vertex 521.603079968739 339.493347347607 475.01040000001
vertex 521.387015513505 340.514667691167 475.010400000011
endloop
endfacet
facet normal 8.64893184352893e-15 -2.12790265128962e-14 1.0
outer loop
vertex 521.387015513505 340.514667691167 475.010400000011
vertex 521.603079968739 339.493347347607 475.01040000001
vertex 521.606796443015 341.045265791941 475.010400000011
endloop
endfacet
facet normal 8.64893184352893e-15 -2.12790265128962e-14 1.0
outer loop
vertex 521.606796443015 341.045265791941 475.010400000011
vertex 521.603079968739 339.493347347607 475.01040000001
vertex 522.079835836533 340.114667691167 475.010400000011
endloop
endfacet
facet normal 8.64893184352893e-15 -2.12790265128962e-14 1.0
outer loop
vertex 521.606796443015 341.045265791941 475.010400000011
vertex 522.079835836533 340.114667691167 475.010400000011
vertex 521.681759625179 341.614667691167 475.01040000001
endloop
endfacet
facet normal 8.64893184352893e-15 -2.12790265128962e-14 1.0
outer loop
vertex 517.281759625179 341.614667691167 475.01040000001
vertex 517.36043928162 343.735988034727 475.01040000001
vertex 516.883683413826 343.114667691167 475.01040000001
endloop
endfacet
facet normal 8.64893184352893e-15 -2.12790265128962e-14 1.0
outer loop
vertex 517.36043928162 343.735988034727 475.01040000001
vertex 517.281759625179 341.614667691167 475.01040000001
vertex 517.356722807343 342.184069590392 475.01040000001
endloop
endfacet
facet normal 8.64893184352893e-15 -2.12790265128962e-14 1.0
outer loop
vertex 517.36043928162 343.735988034727 475.01040000001
vertex 517.356722807343 342.184069590392 475.01040000001
vertex 517.576503736853 342.714667691167 475.01040000001
endloop
endfacet
facet normal 8.64893184352893e-15 -2.12790265128962e-14 1.0
outer loop
vertex 517.36043928162 343.735988034727 475.01040000001
vertex 517.576503736853 342.714667691167 475.01040000001
vertex 517.981759625179 344.21274390252 475.010400000011
endloop
endfacet
facet normal 8.64893184352893e-15 -2.12790265128962e-14 1.0
outer loop
vertex 517.981759625179 344.21274390252 475.010400000011
vertex 517.576503736853 342.714667691167 475.01040000001
vertex 517.926124706569 343.170302609777 475.01040000001
endloop
endfacet
facet normal 8.64893184352893e-15 -2.12790265128962e-14 1.0
outer loop
vertex 517.981759625179 344.21274390252 475.010400000011
vertex 517.926124706569 343.170302609777 475.01040000001
vertex 518.381759625179 343.519923579493 475.010400000009
endloop
endfacet
facet normal 8.64893184352893e-15 -2.12790265128962e-14 1.0
outer loop
vertex 517.981759625179 344.21274390252 475.010400000011
vertex 518.381759625179 343.519923579493 475.010400000009
vertex 518.705302489872 344.512445170034 475.010400000011
endloop
endfacet
facet normal 8.64893184352893e-15 -2.12790265128962e-14 1.0
outer loop
vertex 518.705302489872 344.512445170034 475.010400000011
vertex 518.381759625179 343.519923579493 475.010400000009
vertex 518.912357725954 343.739704509003 475.010400000009
endloop
endfacet
facet normal 8.64893184352893e-15 -2.12790265128962e-14 1.0
outer loop
vertex 518.705302489872 344.512445170034 475.010400000011
vertex 518.912357725954 343.739704509003 475.010400000009
vertex 519.481759625179 344.614667691167 475.01040000001
endloop
endfacet
facet normal 8.64893184352893e-15 -2.12790265128962e-14 1.0
outer loop
vertex 519.481759625179 344.614667691167 475.01040000001
vertex 518.912357725954 343.739704509003 475.010400000009
vertex 519.481759625179 343.814667691167 475.010400000009
endloop
endfacet
facet normal 8.64893184352893e-15 -2.12790265128962e-14 1.0
outer loop
vertex 519.481759625179 344.614667691167 475.01040000001
vertex 519.481759625179 343.814667691167 475.010400000009
vertex 520.051161524405 343.739704509003 475.01040000001
endloop
endfacet
facet normal 8.64893184352893e-15 -2.12790265128962e-14 1.0
outer loop
vertex 519.481759625179 344.614667691167 475.01040000001
vertex 520.051161524405 343.739704509003 475.01040000001
vertex 520.258216760487 344.512445170034 475.01040000001
endloop
endfacet
facet normal 8.64893184352893e-15 -2.12790265128962e-14 1.0
outer loop
vertex 520.258216760487 344.512445170034 475.01040000001
vertex 520.051161524405 343.739704509003 475.01040000001
vertex 520.581759625179 343.519923579493 475.01040000001
endloop
endfacet
facet normal 8.64893184352893e-15 -2.12790265128962e-14 1.0
outer loop
vertex 520.258216760487 344.512445170034 475.01040000001
vertex 520.581759625179 343.519923579493 475.01040000001
vertex 520.981759625179 344.21274390252 475.010400000011
endloop
endfacet
facet normal 8.64893184352893e-15 -2.12790265128962e-14 1.0
outer loop
vertex 520.981759625179 344.21274390252 475.010400000011
vertex 520.581759625179 343.519923579493 475.01040000001
vertex 521.03739454379 343.170302609777 475.01040000001
endloop
endfacet
facet normal 8.64893184352893e-15 -2.12790265128962e-14 1.0
outer loop
vertex 520.981759625179 344.21274390252 475.010400000011
vertex 521.03739454379 343.170302609777 475.01040000001
vertex 521.603079968739 343.735988034727 475.010400000011
endloop
endfacet
facet normal 8.64893184352893e-15 -2.12790265128962e-14 1.0
outer loop
vertex 521.603079968739 343.735988034727 475.010400000011
vertex 521.03739454379 343.170302609777 475.01040000001
vertex 521.387015513505 342.714667691167 475.01040000001
endloop
endfacet
facet normal 8.64893184352893e-15 -2.12790265128962e-14 1.0
outer loop
vertex 521.603079968739 343.735988034727 475.010400000011
vertex 521.387015513505 342.714667691167 475.01040000001
vertex 521.606796443015 342.184069590392 475.01040000001
endloop
endfacet
facet normal 8.64893184352893e-15 -2.12790265128962e-14 1.0
outer loop
vertex 521.603079968739 343.735988034727 475.010400000011
vertex 521.606796443015 342.184069590392 475.01040000001
vertex 522.079835836533 343.114667691167 475.01040000001
endloop
endfacet
facet normal 8.64893184352893e-15 -2.12790265128962e-14 1.0
outer loop
vertex 522.079835836533 343.114667691167 475.01040000001
vertex 521.606796443015 342.184069590392 475.01040000001
vertex 521.681759625179 341.614667691167 475.01040000001
endloop
endfacet
facet normal 8.64893184352893e-15 -2.12790265128962e-14 1.0
outer loop
vertex 522.079835836533 343.114667691167 475.01040000001
vertex 521.681759625179 341.614667691167 475.01040000001
vertex 522.079835836533 340.114667691167 475.010400000011
endloop
endfacet
facet normal 8.64893184352893e-15 -2.12790265128962e-14 1.0
outer loop
vertex 522.079835836533 343.114667691167 475.01040000001
vertex 522.079835836533 340.114667691167 475.010400000011
vertex 522.379537104046 340.838210555859 475.010400000012
endloop
endfacet
facet normal 8.64893184352893e-15 -2.12790265128962e-14 1.0
outer loop
vertex 522.079835836533 343.114667691167 475.01040000001
vertex 522.379537104046 340.838210555859 475.010400000012
vertex 522.379537104046 342.391124826474 475.01040000001
endloop
endfacet
facet normal 8.64893184352893e-15 -2.12790265128962e-14 1.0
outer loop
vertex 522.379537104046 342.391124826474 475.01040000001
vertex 522.379537104046 340.838210555859 475.010400000012
vertex 522.481759625179 341.614667691167 475.010400000012
endloop
endfacet
facet normal -2.21886636401613e-15 1.0 -2.79252412729313e-13
outer loop
vertex 519.481759625179 339.414667691167 475.010400000011
vertex 520.051161524405 339.489630873327 463.010400000005
vertex 519.48175962518 339.414667691163 463.010400000005
endloop
endfacet
facet normal -0.258819045102537 0.965925826289064 -2.906897360682e-13
outer loop
vertex 520.051161524405 339.489630873327 463.010400000005
vertex 519.481759625179 339.414667691167 475.010400000011
vertex 520.051161524405 339.489630873331 475.010400000011
endloop
endfacet
facet normal 0.86602540378443 -0.500000000000015 2.09735034488485e-13
outer loop
vertex 517.576503736854 342.714667691163 463.010400000004
vertex 517.356722807343 342.184069590392 475.01040000001
vertex 517.356722807344 342.184069590389 463.010400000004
endloop
endfacet
facet normal 0.965925826289063 -0.258819045102541 1.50472079820556e-13
outer loop
vertex 517.356722807343 342.184069590392 475.01040000001
vertex 517.576503736854 342.714667691163 463.010400000004
vertex 517.576503736853 342.714667691167 475.01040000001
endloop
endfacet
facet normal -0.707106781186571 -0.707106781186524 1.40217656247641e-13
outer loop
vertex 521.03739454379 343.170302609774 463.010400000004
vertex 520.581759625179 343.519923579493 475.01040000001
vertex 520.58175962518 343.519923579489 463.010400000004
endloop
endfacet
facet normal -0.500000000000023 -0.866025403784425 2.01362332701817e-13
outer loop
vertex 520.581759625179 343.519923579493 475.01040000001
vertex 521.03739454379 343.170302609774 463.010400000004
vertex 521.03739454379 343.170302609777 475.01040000001
endloop
endfacet
facet normal 0.965925826289057 0.258819045102562 5.92039421018657e-15
outer loop
vertex 517.356722807344 341.045265791938 463.010400000004
vertex 517.576503736853 340.514667691167 475.01040000001
vertex 517.576503736854 340.514667691163 463.010400000004
endloop
endfacet
facet normal 0.866025403784416 0.50000000000004 -6.95173782408447e-14
outer loop
vertex 517.576503736853 340.514667691167 475.01040000001
vertex 517.356722807344 341.045265791938 463.010400000004
vertex 517.356722807343 341.045265791941 475.01040000001
endloop
endfacet
facet normal -0.866025403784413 -0.500000000000045 6.95173782408464e-14
outer loop
vertex 521.387015513505 342.714667691167 475.01040000001
vertex 521.03739454379 343.170302609774 463.010400000004
vertex 521.387015513506 342.714667691163 463.010400000004
endloop
endfacet
facet normal -0.707106781186571 -0.707106781186524 1.40217656247641e-13
outer loop
vertex 521.03739454379 343.170302609774 463.010400000004
vertex 521.387015513505 342.714667691167 475.01040000001
vertex 521.03739454379 343.170302609777 475.01040000001
endloop
endfacet
facet normal 0.258819045102537 -0.965925826289064 2.906897360682e-13
outer loop
vertex 518.912357725954 343.739704509003 475.010400000009
vertex 518.38175962518 343.519923579489 463.010400000004
vertex 518.912357725954 343.739704508999 463.010400000004
endloop
endfacet
facet normal 0.500000000000027 -0.866025403784423 2.82317034281539e-13
outer loop
vertex 518.38175962518 343.519923579489 463.010400000004
vertex 518.912357725954 343.739704509003 475.010400000009
vertex 518.381759625179 343.519923579493 475.010400000009
endloop
endfacet
facet normal 0.965925826289066 -0.258819045102531 1.50472079820553e-13
outer loop
vertex 517.356722807344 342.184069590389 463.010400000004
vertex 517.281759625179 341.614667691167 475.01040000001
vertex 517.28175962518 341.614667691163 463.010400000004
endloop
endfacet
facet normal 1.0 -2.37481078719037e-14 8.09547015797254e-14
outer loop
vertex 517.281759625179 341.614667691167 475.01040000001
vertex 517.356722807344 342.184069590389 463.010400000004
vertex 517.356722807343 342.184069590392 475.01040000001
endloop
endfacet
facet normal 0.500000000000016 0.866025403784429 -2.01362332701819e-13
outer loop
vertex 518.381759625179 339.709411802841 475.010400000011
vertex 518.912357725954 339.489630873327 463.010400000005
vertex 518.38175962518 339.709411802838 463.010400000005
endloop
endfacet
facet normal 0.258819045102542 0.965925826289063 -2.48784498949352e-13
outer loop
vertex 518.912357725954 339.489630873327 463.010400000005
vertex 518.381759625179 339.709411802841 475.010400000011
vertex 518.912357725954 339.489630873331 475.010400000011
endloop
endfacet
facet normal -0.500000000000024 0.866025403784425 -2.82317034281539e-13
outer loop
vertex 520.58175962518 339.709411802838 463.010400000005
vertex 521.03739454379 340.059032772556 475.010400000011
vertex 521.03739454379 340.059032772553 463.010400000005
endloop
endfacet
facet normal -0.707106781186548 0.707106781186547 -2.54704893159554e-13
outer loop
vertex 521.03739454379 340.059032772556 475.010400000011
vertex 520.58175962518 339.709411802838 463.010400000005
vertex 520.581759625179 339.709411802841 475.010400000011
endloop
endfacet
facet normal -0.707106781186548 0.707106781186547 -2.54704893159554e-13
outer loop
vertex 521.03739454379 340.059032772556 475.010400000011
vertex 521.387015513506 340.514667691163 463.010400000005
vertex 521.03739454379 340.059032772553 463.010400000005
endloop
endfacet
facet normal -0.866025403784425 0.500000000000024 -2.09735034488487e-13
outer loop
vertex 521.387015513506 340.514667691163 463.010400000005
vertex 521.03739454379 340.059032772556 475.010400000011
vertex 521.387015513505 340.514667691167 475.010400000011
endloop
endfacet
facet normal -0.50000000000001 -0.866025403784433 2.0136233270182e-13
outer loop
vertex 520.58175962518 343.519923579489 463.010400000004
vertex 520.051161524405 343.739704509003 475.01040000001
vertex 520.051161524405 343.739704508999 463.010400000004
endloop
endfacet
facet normal -0.258819045102542 -0.965925826289063 2.48784498949352e-13
outer loop
vertex 520.051161524405 343.739704509003 475.01040000001
vertex 520.58175962518 343.519923579489 463.010400000004
vertex 520.581759625179 343.519923579493 475.01040000001
endloop
endfacet
facet normal -1.0 2.89254627212754e-14 -8.09547015797268e-14
outer loop
vertex 521.681759625179 341.614667691167 475.01040000001
vertex 521.606796443016 342.184069590389 463.010400000004
vertex 521.68175962518 341.614667691163 463.010400000004
endloop
endfacet
facet normal -0.965925826289056 -0.258819045102567 -5.92039421018525e-15
outer loop
vertex 521.606796443016 342.184069590389 463.010400000004
vertex 521.681759625179 341.614667691167 475.01040000001
vertex 521.606796443015 342.184069590392 475.01040000001
endloop
endfacet
facet normal 0.866025403784442 0.499999999999994 -6.95173782408297e-14
outer loop
vertex 517.576503736854 340.514667691163 463.010400000004
vertex 517.926124706569 340.059032772556 475.01040000001
vertex 517.926124706569 340.059032772553 463.010400000005
endloop
endfacet
facet normal 0.707106781186529 0.707106781186566 -1.40217656247656e-13
outer loop
vertex 517.926124706569 340.059032772556 475.01040000001
vertex 517.576503736854 340.514667691163 463.010400000004
vertex 517.576503736853 340.514667691167 475.01040000001
endloop
endfacet
facet normal 0.500000000000018 -0.866025403784428 2.8231703428154e-13
outer loop
vertex 518.381759625179 343.519923579493 475.010400000009
vertex 517.926124706569 343.170302609774 463.010400000004
vertex 518.38175962518 343.519923579489 463.010400000004
endloop
endfacet
facet normal 0.707106781186548 -0.707106781186547 2.54704893159554e-13
outer loop
vertex 517.926124706569 343.170302609774 463.010400000004
vertex 518.381759625179 343.519923579493 475.010400000009
vertex 517.926124706569 343.170302609777 475.01040000001
endloop
endfacet
facet normal -0.965925826289071 -0.258819045102511 -5.92039421020189e-15
outer loop
vertex 521.606796443015 342.184069590392 475.01040000001
vertex 521.387015513506 342.714667691163 463.010400000004
vertex 521.606796443016 342.184069590389 463.010400000004
endloop
endfacet
facet normal -0.866025403784445 -0.499999999999989 6.9517378240828e-14
outer loop
vertex 521.387015513506 342.714667691163 463.010400000004
vertex 521.606796443015 342.184069590392 475.01040000001
vertex 521.387015513505 342.714667691167 475.01040000001
endloop
endfacet
facet normal -0.965925826289064 0.258819045102537 -1.50472079820555e-13
outer loop
vertex 521.606796443015 341.045265791941 475.010400000011
vertex 521.68175962518 341.614667691163 463.010400000004
vertex 521.606796443016 341.045265791938 463.010400000005
endloop
endfacet
facet normal -1.0 -2.8925462721264e-14 -8.09547015797107e-14
outer loop
vertex 521.68175962518 341.614667691163 463.010400000004
vertex 521.606796443015 341.045265791941 475.010400000011
vertex 521.681759625179 341.614667691167 475.01040000001
endloop
endfacet
facet normal -0.258819045102524 0.965925826289067 3.19353888646994e-14
outer loop
vertex 518.187664399667 346.444296822608 474.365238709689
vertex 519.48175962518 346.614667691164 463.010400000003
vertex 518.187664399667 346.444296822609 463.010400000003
endloop
endfacet
facet normal -3.8059350364308e-14 1.0 3.3881589616544e-14
outer loop
vertex 519.48175962518 346.614667691164 463.010400000003
vertex 518.187664399667 346.444296822608 474.365238709689
vertex 519.48175962518 346.614667691163 474.365238709689
endloop
endfacet
facet normal 0.500000000000038 -0.866025403784417 -2.93945026038657e-14
outer loop
vertex 521.98175962518 337.284540672241 474.365238709686
vertex 520.775854850692 336.785038559718 463.010400000005
vertex 521.98175962518 337.284540672241 463.010400000005
endloop
endfacet
facet normal 0.258819045102544 -0.965925826289062 -3.21755028427192e-14
outer loop
vertex 520.775854850692 336.785038559718 463.010400000005
vertex 521.98175962518 337.284540672241 474.365238709686
vertex 520.775854850693 336.785038559718 474.365238709686
endloop
endfacet
facet normal -0.707106781186484 0.707106781186612 2.43275491305275e-14
outer loop
vertex 515.946225719247 345.150201597096 463.010400000003
vertex 516.98175962518 345.944794710085 474.365238709689
vertex 516.98175962518 345.944794710086 463.010400000003
endloop
endfacet
facet normal -0.499999999999949 0.866025403784468 2.85190882167338e-14
outer loop
vertex 516.98175962518 345.944794710085 474.365238709689
vertex 515.946225719247 345.150201597096 463.010400000003
vertex 515.946225719248 345.150201597096 474.365238709688
endloop
endfacet
facet normal -0.500000000000093 -0.866025403784385 -3.06459996930399e-14
outer loop
vertex 516.98175962518 337.284540672241 463.010400000005
vertex 515.946225719246 338.079133785231 474.365238709688
vertex 515.946225719247 338.079133785231 463.010400000005
endloop
endfacet
facet normal -0.707106781186669 -0.707106781186426 -2.49935902377248e-14
outer loop
vertex 515.946225719246 338.079133785231 474.365238709688
vertex 516.98175962518 337.284540672241 463.010400000005
vertex 516.981759625179 337.284540672241 474.365238709688
endloop
endfacet
facet normal -0.866025403784401 0.500000000000065 1.71527768282707e-14
outer loop
vertex 515.151632606258 344.114667691164 474.36523870969
vertex 515.946225719247 345.150201597096 463.010400000003
vertex 515.151632606258 344.114667691164 463.010400000003
endloop
endfacet
facet normal -0.707106781186484 0.707106781186612 2.43275491305275e-14
outer loop
vertex 515.946225719247 345.150201597096 463.010400000003
vertex 515.151632606258 344.114667691164 474.36523870969
vertex 515.946225719248 345.150201597096 474.365238709688
endloop
endfacet
facet normal 0.707106781186628 -0.707106781186467 -2.35345110425534e-14
outer loop
vertex 523.017293531113 338.079133785231 474.365238709687
vertex 521.98175962518 337.284540672241 463.010400000005
vertex 523.017293531113 338.079133785231 463.010400000005
endloop
endfacet
facet normal 0.500000000000031 -0.866025403784421 -2.93945026038658e-14
outer loop
vertex 521.98175962518 337.284540672241 463.010400000005
vertex 523.017293531113 338.079133785231 474.365238709687
vertex 521.98175962518 337.284540672241 474.365238709686
endloop
endfacet
facet normal 1.0 1.52175023687962e-13 -3.92313521712093e-16
outer loop
vertex 524.48175962518 341.614667691163 463.010400000004
vertex 524.311388756626 340.320572465652 474.365238709688
vertex 524.311388756625 340.320572465651 463.010400000005
endloop
endfacet
facet normal 0.965925826289111 -0.258819045102362 -7.02486238067584e-15
outer loop
vertex 524.311388756626 340.320572465652 474.365238709688
vertex 524.48175962518 341.614667691163 463.010400000004
vertex 524.48175962518 341.614667691165 474.365238709688
endloop
endfacet
facet normal 0.866025403784356 0.500000000000144 1.60333767446336e-14
outer loop
vertex 523.811886644102 344.114667691164 463.010400000004
vertex 524.311388756625 342.908762916677 474.365238709689
vertex 524.311388756625 342.908762916676 463.010400000004
endloop
endfacet
facet normal 0.965925826289029 0.258819045102667 6.88448475124446e-15
outer loop
vertex 524.311388756625 342.908762916677 474.365238709689
vertex 523.811886644102 344.114667691164 463.010400000004
vertex 523.811886644101 344.114667691164 474.365238709688
endloop
endfacet
facet normal -0.188350349220582 0.245462954087563 0.950932218467274
outer loop
vertex 517.36043928162 343.735988034727 475.01040000001
vertex 516.98175962518 345.944794710085 474.365238709689
vertex 515.946225719248 345.150201597096 474.365238709688
endloop
endfacet
facet normal -0.188350349220582 0.245462954087563 0.950932218467274
outer loop
vertex 516.98175962518 345.944794710085 474.365238709689
vertex 517.36043928162 343.735988034727 475.01040000001
vertex 517.981759625179 344.21274390252 475.010400000011
endloop
endfacet
facet normal 0.965925826289026 0.258819045102677 6.88448475124476e-15
outer loop
vertex 524.311388756625 342.908762916676 463.010400000004
vertex 524.48175962518 341.614667691165 474.365238709688
vertex 524.48175962518 341.614667691163 463.010400000004
endloop
endfacet
facet normal 1.0 1.79621242166539e-13 -3.92313521711369e-16
outer loop
vertex 524.48175962518 341.614667691165 474.365238709688
vertex 524.311388756625 342.908762916676 463.010400000004
vertex 524.311388756625 342.908762916677 474.365238709689
endloop
endfacet
facet normal 0.499999999999861 0.866025403784519 2.93502113298653e-14
outer loop
vertex 521.981759625179 345.944794710086 474.36523870969
vertex 523.017293531113 345.150201597096 463.010400000003
vertex 521.98175962518 345.944794710086 463.010400000003
endloop
endfacet
facet normal 0.707106781186457 0.707106781186638 2.43828682640266e-14
outer loop
vertex 523.017293531113 345.150201597096 463.010400000003
vertex 521.981759625179 345.944794710086 474.36523870969
vertex 523.017293531112 345.150201597097 474.365238709688
endloop
endfacet
facet normal 0.965925826289102 -0.258819045102395 -7.02486238067667e-15
outer loop
vertex 524.311388756625 340.320572465651 463.010400000005
vertex 523.811886644103 339.114667691164 474.365238709687
vertex 523.811886644102 339.114667691163 463.010400000005
endloop
endfacet
facet normal 0.866025403784528 -0.499999999999846 -1.47828980701929e-14
outer loop
vertex 523.811886644103 339.114667691164 474.365238709687
vertex 524.311388756625 340.320572465651 463.010400000005
vertex 524.311388756626 340.320572465652 474.365238709688
endloop
endfacet
facet normal 0.258819045102549 -0.965925826289061 -3.21755028427192e-14
outer loop
vertex 520.775854850693 336.785038559718 474.365238709686
vertex 519.48175962518 336.614667691163 463.010400000005
vertex 520.775854850692 336.785038559718 463.010400000005
endloop
endfacet
facet normal -2.72858185004702e-14 -1.0 -3.34108600241695e-14
outer loop
vertex 519.48175962518 336.614667691163 463.010400000005
vertex 520.775854850693 336.785038559718 474.365238709686
vertex 519.48175962518 336.614667691163 474.365238709686
endloop
endfacet
facet normal -0.965925826289106 -0.258819045102383 -7.78162953384624e-15
outer loop
vertex 514.652130493734 340.320572465652 474.365238709688
vertex 514.48175962518 341.614667691163 463.010400000004
vertex 514.652130493734 340.320572465651 463.010400000004
endloop
endfacet
facet normal -1.0 1.51390846017146e-13 5.23243561048312e-16
outer loop
vertex 514.48175962518 341.614667691163 463.010400000004
vertex 514.652130493734 340.320572465652 474.365238709688
vertex 514.48175962518 341.614667691165 474.365238709688
endloop
endfacet
facet normal 0.188350349220327 -0.245462954087488 0.950932218467344
outer loop
vertex 521.98175962518 337.284540672241 474.365238709686
vertex 521.603079968739 339.493347347607 475.01040000001
vertex 520.981759625179 339.016591479814 475.01040000001
endloop
endfacet
facet normal 0.188350349220327 -0.245462954087488 0.950932218467344
outer loop
vertex 521.603079968739 339.493347347607 475.01040000001
vertex 521.98175962518 337.284540672241 474.365238709686
vertex 523.017293531113 338.079133785231 474.365238709687
endloop
endfacet
facet normal 0.306752328538313 -0.0403847101929017 0.950932218467204
outer loop
vertex 524.311388756626 340.320572465652 474.365238709688
vertex 522.481759625179 341.614667691167 475.010400000012
vertex 522.379537104046 340.838210555859 475.010400000012
endloop
endfacet
facet normal 0.306752328538313 -0.0403847101929017 0.950932218467204
outer loop
vertex 522.481759625179 341.614667691167 475.010400000012
vertex 524.311388756626 340.320572465652 474.365238709688
vertex 524.48175962518 341.614667691165 474.365238709688
endloop
endfacet
facet normal -0.0403847101923865 -0.306752328537871 0.950932218467369
outer loop
vertex 519.48175962518 336.614667691163 474.365238709686
vertex 518.705302489872 338.7168902123 475.010400000011
vertex 518.187664399667 336.785038559718 474.365238709687
endloop
endfacet
facet normal -0.0403847101923865 -0.306752328537871 0.950932218467369
outer loop
vertex 518.705302489872 338.7168902123 475.010400000011
vertex 519.48175962518 336.614667691163 474.365238709686
vertex 519.481759625179 338.614667691167 475.01040000001
endloop
endfacet
facet normal -1.0 2.12930970956436e-13 5.23243561050118e-16
outer loop
vertex 514.48175962518 341.614667691165 474.365238709688
vertex 514.652130493734 342.908762916676 463.010400000003
vertex 514.48175962518 341.614667691163 463.010400000004
endloop
endfacet
facet normal -0.965925826289031 0.25881904510266 8.43672763342975e-15
outer loop
vertex 514.652130493734 342.908762916676 463.010400000003
vertex 514.48175962518 341.614667691165 474.365238709688
vertex 514.652130493735 342.908762916677 474.36523870969
endloop
endfacet
facet normal -0.866025403784512 -0.499999999999872 -1.70400461224489e-14
outer loop
vertex 515.151632606257 339.114667691164 474.365238709689
vertex 514.652130493734 340.320572465651 463.010400000004
vertex 515.151632606258 339.114667691163 463.010400000004
endloop
endfacet
facet normal -0.965925826289109 -0.25881904510237 -7.7816295338458e-15
outer loop
vertex 514.652130493734 340.320572465651 463.010400000004
vertex 515.151632606257 339.114667691164 474.365238709689
vertex 514.652130493734 340.320572465652 474.365238709688
endloop
endfacet
facet normal 7.2269101253669e-15 1.0 3.38815896165441e-14
outer loop
vertex 519.48175962518 346.614667691163 474.365238709689
vertex 520.775854850692 346.444296822609 463.010400000003
vertex 519.48175962518 346.614667691164 463.010400000003
endloop
endfacet
facet normal 0.258819045102437 0.965925826289091 3.27017227339194e-14
outer loop
vertex 520.775854850692 346.444296822609 463.010400000003
vertex 519.48175962518 346.614667691163 474.365238709689
vertex 520.775854850692 346.444296822609 474.36523870969
endloop
endfacet
facet normal -2.72858185004702e-14 -1.0 -3.34108600241695e-14
outer loop
vertex 519.48175962518 336.614667691163 463.010400000005
vertex 518.187664399667 336.785038559718 474.365238709687
vertex 518.187664399667 336.785038559718 463.010400000005
endloop
endfacet
facet normal -0.258819045102625 -0.965925826289041 -3.33649790786607e-14
outer loop
vertex 518.187664399667 336.785038559718 474.365238709687
vertex 519.48175962518 336.614667691163 463.010400000005
vertex 519.48175962518 336.614667691163 474.365238709686
endloop
endfacet
facet normal -0.499999999999955 0.866025403784465 2.85190882167337e-14
outer loop
vertex 516.98175962518 345.944794710086 463.010400000003
vertex 518.187664399667 346.444296822608 474.365238709689
vertex 518.187664399667 346.444296822609 463.010400000003
endloop
endfacet
facet normal -0.258819045102524 0.965925826289067 3.19353888646994e-14
outer loop
vertex 518.187664399667 346.444296822608 474.365238709689
vertex 516.98175962518 345.944794710086 463.010400000003
vertex 516.98175962518 345.944794710085 474.365238709689
endloop
endfacet
facet normal 0.25881904510248 0.965925826289079 3.2701722733919e-14
outer loop
vertex 520.775854850692 346.444296822609 474.36523870969
vertex 521.98175962518 345.944794710086 463.010400000003
vertex 520.775854850692 346.444296822609 463.010400000003
endloop
endfacet
facet normal 0.499999999999903 0.866025403784494 2.93502113298645e-14
outer loop
vertex 521.98175962518 345.944794710086 463.010400000003
vertex 520.775854850692 346.444296822609 474.36523870969
vertex 521.981759625179 345.944794710086 474.36523870969
endloop
endfacet
facet normal -0.285847664279731 0.11840197931732 0.950932218467522
outer loop
vertex 516.583982146312 342.391124826474 475.010400000011
vertex 515.151632606258 344.114667691164 474.36523870969
vertex 514.652130493735 342.908762916677 474.36523870969
endloop
endfacet
facet normal -0.285847664279731 0.11840197931732 0.950932218467522
outer loop
vertex 515.151632606258 344.114667691164 474.36523870969
vertex 516.583982146312 342.391124826474 475.010400000011
vertex 516.883683413826 343.114667691167 475.01040000001
endloop
endfacet
facet normal -0.118401979316746 -0.285847664280671 0.950932218467311
outer loop
vertex 518.187664399667 336.785038559718 474.365238709687
vertex 517.981759625179 339.016591479814 475.010400000012
vertex 516.981759625179 337.284540672241 474.365238709688
endloop
endfacet
facet normal -0.118401979316746 -0.285847664280671 0.950932218467311
outer loop
vertex 517.981759625179 339.016591479814 475.010400000012
vertex 518.187664399667 336.785038559718 474.365238709687
vertex 518.705302489872 338.7168902123 475.010400000011
endloop
endfacet
facet normal 0.245462954087643 0.188350349220014 0.950932218467366
outer loop
vertex 522.079835836533 343.114667691167 475.01040000001
vertex 523.017293531112 345.150201597097 474.365238709688
vertex 521.603079968739 343.735988034727 475.010400000011
endloop
endfacet
facet normal 0.245462954087643 0.188350349220014 0.950932218467366
outer loop
vertex 523.017293531112 345.150201597097 474.365238709688
vertex 522.079835836533 343.114667691167 475.01040000001
vertex 523.811886644101 344.114667691164 474.365238709688
endloop
endfacet
facet normal 0.285847664279608 0.118401979317884 0.950932218467489
outer loop
vertex 522.379537104046 342.391124826474 475.01040000001
vertex 523.811886644101 344.114667691164 474.365238709688
vertex 522.079835836533 343.114667691167 475.01040000001
endloop
endfacet
facet normal 0.285847664279608 0.118401979317884 0.950932218467489
outer loop
vertex 523.811886644101 344.114667691164 474.365238709688
vertex 522.379537104046 342.391124826474 475.01040000001
vertex 524.311388756625 342.908762916677 474.365238709689
endloop
endfacet
facet normal 0.188350349220793 0.245462954086847 0.950932218467417
outer loop
vertex 521.603079968739 343.735988034727 475.010400000011
vertex 521.981759625179 345.944794710086 474.36523870969
vertex 520.981759625179 344.21274390252 475.010400000011
endloop
endfacet
facet normal 0.188350349220793 0.245462954086847 0.950932218467417
outer loop
vertex 521.981759625179 345.944794710086 474.36523870969
vertex 521.603079968739 343.735988034727 475.010400000011
vertex 523.017293531112 345.150201597097 474.365238709688
endloop
endfacet
facet normal 0.0403847101927657 -0.306752328537893 0.950932218467345
outer loop
vertex 519.48175962518 336.614667691163 474.365238709686
vertex 520.258216760487 338.7168902123 475.01040000001
vertex 519.481759625179 338.614667691167 475.01040000001
endloop
endfacet
facet normal 0.0403847101927657 -0.306752328537893 0.950932218467345
outer loop
vertex 520.258216760487 338.7168902123 475.01040000001
vertex 519.48175962518 336.614667691163 474.365238709686
vertex 520.775854850693 336.785038559718 474.365238709686
endloop
endfacet
facet normal 0.306752328537698 0.0403847101932248 0.950932218467389
outer loop
vertex 522.481759625179 341.614667691167 475.010400000012
vertex 524.311388756625 342.908762916677 474.365238709689
vertex 522.379537104046 342.391124826474 475.01040000001
endloop
endfacet
facet normal 0.306752328537698 0.0403847101932248 0.950932218467389
outer loop
vertex 524.311388756625 342.908762916677 474.365238709689
vertex 522.481759625179 341.614667691167 475.010400000012
vertex 524.48175962518 341.614667691165 474.365238709688
endloop
endfacet
facet normal 0.0403847101919594 0.306752328537852 0.950932218467393
outer loop
vertex 520.258216760487 344.512445170034 475.01040000001
vertex 519.48175962518 346.614667691163 474.365238709689
vertex 519.481759625179 344.614667691167 475.01040000001
endloop
endfacet
facet normal 0.0403847101919594 0.306752328537852 0.950932218467393
outer loop
vertex 519.48175962518 346.614667691163 474.365238709689
vertex 520.258216760487 344.512445170034 475.01040000001
vertex 520.775854850692 346.444296822609 474.36523870969
endloop
endfacet
facet normal 0.285847664280029 -0.118401979318472 0.950932218467289
outer loop
vertex 523.811886644103 339.114667691164 474.365238709687
vertex 522.379537104046 340.838210555859 475.010400000012
vertex 522.079835836533 340.114667691167 475.010400000011
endloop
endfacet
facet normal 0.285847664280029 -0.118401979318472 0.950932218467289
outer loop
vertex 522.379537104046 340.838210555859 475.010400000012
vertex 523.811886644103 339.114667691164 474.365238709687
vertex 524.311388756626 340.320572465652 474.365238709688
endloop
endfacet
facet normal -0.965925826289018 0.25881904510271 8.43672763343133e-15
outer loop
vertex 514.652130493735 342.908762916677 474.36523870969
vertex 515.151632606258 344.114667691164 463.010400000003
vertex 514.652130493734 342.908762916676 463.010400000003
endloop
endfacet
facet normal -0.86602540378438 0.500000000000101 1.71527768282721e-14
outer loop
vertex 515.151632606258 344.114667691164 463.010400000003
vertex 514.652130493735 342.908762916677 474.36523870969
vertex 515.151632606258 344.114667691164 474.36523870969
endloop
endfacet
facet normal -0.245462954086828 0.188350349220893 0.950932218467402
outer loop
vertex 516.883683413826 343.114667691167 475.01040000001
vertex 515.946225719248 345.150201597096 474.365238709688
vertex 515.151632606258 344.114667691164 474.36523870969
endloop
endfacet
facet normal -0.245462954086828 0.188350349220893 0.950932218467402
outer loop
vertex 515.946225719248 345.150201597096 474.365238709688
vertex 516.883683413826 343.114667691167 475.01040000001
vertex 517.36043928162 343.735988034727 475.01040000001
endloop
endfacet
facet normal -0.258819045102583 -0.965925826289051 -3.33649790786608e-14
outer loop
vertex 518.187664399667 336.785038559718 463.010400000005
vertex 516.981759625179 337.284540672241 474.365238709688
vertex 516.98175962518 337.284540672241 463.010400000005
endloop
endfacet
facet normal -0.500000000000119 -0.86602540378437 -3.06459996930393e-14
outer loop
vertex 516.981759625179 337.284540672241 474.365238709688
vertex 518.187664399667 336.785038559718 463.010400000005
vertex 518.187664399667 336.785038559718 474.365238709687
endloop
endfacet
facet normal -0.245462954087622 -0.188350349219805 0.950932218467413
outer loop
vertex 515.946225719246 338.079133785231 474.365238709688
vertex 516.883683413826 340.114667691167 475.01040000001
vertex 515.151632606257 339.114667691164 474.365238709689
endloop
endfacet
facet normal -0.245462954087622 -0.188350349219805 0.950932218467413
outer loop
vertex 516.883683413826 340.114667691167 475.01040000001
vertex 515.946225719246 338.079133785231 474.365238709688
vertex 517.36043928162 339.493347347607 475.010400000012
endloop
endfacet
facet normal 0.245462954087239 -0.188350349220593 0.950932218467356
outer loop
vertex 523.017293531113 338.079133785231 474.365238709687
vertex 522.079835836533 340.114667691167 475.010400000011
vertex 521.603079968739 339.493347347607 475.01040000001
endloop
endfacet
facet normal 0.245462954087239 -0.188350349220593 0.950932218467356
outer loop
vertex 522.079835836533 340.114667691167 475.010400000011
vertex 523.017293531113 338.079133785231 474.365238709687
vertex 523.811886644103 339.114667691164 474.365238709687
endloop
endfacet
facet normal -0.0403847101926985 0.306752328538116 0.950932218467276
outer loop
vertex 518.705302489872 344.512445170034 475.010400000011
vertex 519.48175962518 346.614667691163 474.365238709689
vertex 518.187664399667 346.444296822608 474.365238709689
endloop
endfacet
facet normal -0.0403847101926985 0.306752328538116 0.950932218467276
outer loop
vertex 519.48175962518 346.614667691163 474.365238709689
vertex 518.705302489872 344.512445170034 475.010400000011
vertex 519.481759625179 344.614667691167 475.01040000001
endloop
endfacet
facet normal 0.707106781186529 0.707106781186566 -1.40217656247656e-13
outer loop
vertex 517.926124706569 340.059032772556 475.01040000001
vertex 518.38175962518 339.709411802838 463.010400000005
vertex 517.926124706569 340.059032772553 463.010400000005
endloop
endfacet
facet normal 0.500000000000017 0.866025403784429 -2.01362332701818e-13
outer loop
vertex 518.38175962518 339.709411802838 463.010400000005
vertex 517.926124706569 340.059032772556 475.01040000001
vertex 518.381759625179 339.709411802841 475.010400000011
endloop
endfacet
facet normal -2.21886636401601e-15 -1.0 2.79252412729313e-13
outer loop
vertex 519.481759625179 343.814667691167 475.010400000009
vertex 518.912357725954 343.739704508999 463.010400000004
vertex 519.48175962518 343.814667691163 463.010400000004
endloop
endfacet
facet normal 0.258819045102541 -0.965925826289063 2.906897360682e-13
outer loop
vertex 518.912357725954 343.739704508999 463.010400000004
vertex 519.481759625179 343.814667691167 475.010400000009
vertex 518.912357725954 343.739704509003 475.010400000009
endloop
endfacet
facet normal -0.258819045102542 -0.965925826289063 2.48784498949352e-13
outer loop
vertex 520.051161524405 343.739704509003 475.01040000001
vertex 519.48175962518 343.814667691163 463.010400000004
vertex 520.051161524405 343.739704508999 463.010400000004
endloop
endfacet
facet normal -4.36644384886686e-15 -1.0 2.79252412729312e-13
outer loop
vertex 519.48175962518 343.814667691163 463.010400000004
vertex 520.051161524405 343.739704509003 475.01040000001
vertex 519.481759625179 343.814667691167 475.010400000009
endloop
endfacet
facet normal -0.188350349220498 -0.245462954087803 0.950932218467229
outer loop
vertex 516.981759625179 337.284540672241 474.365238709688
vertex 517.36043928162 339.493347347607 475.010400000012
vertex 515.946225719246 338.079133785231 474.365238709688
endloop
endfacet
facet normal -0.188350349220498 -0.245462954087803 0.950932218467229
outer loop
vertex 517.36043928162 339.493347347607 475.010400000012
vertex 516.981759625179 337.284540672241 474.365238709688
vertex 517.981759625179 339.016591479814 475.010400000012
endloop
endfacet
facet normal -0.118401979317667 0.285847664280437 0.950932218467267
outer loop
vertex 517.981759625179 344.21274390252 475.010400000011
vertex 518.187664399667 346.444296822608 474.365238709689
vertex 516.98175962518 345.944794710085 474.365238709689
endloop
endfacet
facet normal -0.118401979317667 0.285847664280437 0.950932218467267
outer loop
vertex 518.187664399667 346.444296822608 474.365238709689
vertex 517.981759625179 344.21274390252 475.010400000011
vertex 518.705302489872 344.512445170034 475.010400000011
endloop
endfacet
facet normal -0.285847664279977 -0.118401979316832 0.950932218467509
outer loop
vertex 515.151632606257 339.114667691164 474.365238709689
vertex 516.583982146312 340.838210555859 475.01040000001
vertex 514.652130493734 340.320572465652 474.365238709688
endloop
endfacet
facet normal -0.285847664279977 -0.118401979316832 0.950932218467509
outer loop
vertex 516.583982146312 340.838210555859 475.01040000001
vertex 515.151632606257 339.114667691164 474.365238709689
vertex 516.883683413826 340.114667691167 475.01040000001
endloop
endfacet
facet normal 0.707106781186457 0.707106781186638 2.43828682640266e-14
outer loop
vertex 523.017293531113 345.150201597096 463.010400000003
vertex 523.811886644101 344.114667691164 474.365238709688
vertex 523.811886644102 344.114667691164 463.010400000004
endloop
endfacet
facet normal 0.866025403784364 0.500000000000129 1.6033376744633e-14
outer loop
vertex 523.811886644101 344.114667691164 474.365238709688
vertex 523.017293531113 345.150201597096 463.010400000003
vertex 523.017293531112 345.150201597097 474.365238709688
endloop
endfacet
facet normal 5.40583730273686e-14 -2.01748594712651e-13 -1.0
outer loop
vertex 516.98175962518 345.944794710086 463.010400000003
vertex 517.356722807344 342.184069590389 463.010400000004
vertex 517.28175962518 341.614667691163 463.010400000004
endloop
endfacet
facet normal 5.40583730273686e-14 -2.01748594712651e-13 -1.0
outer loop
vertex 517.356722807344 342.184069590389 463.010400000004
vertex 516.98175962518 345.944794710086 463.010400000003
vertex 518.187664399667 346.444296822609 463.010400000003
endloop
endfacet
facet normal 5.40583730273686e-14 -2.01748594712651e-13 -1.0
outer loop
vertex 517.356722807344 342.184069590389 463.010400000004
vertex 518.187664399667 346.444296822609 463.010400000003
vertex 517.576503736854 342.714667691163 463.010400000004
endloop
endfacet
facet normal 5.40583730273686e-14 -2.01748594712651e-13 -1.0
outer loop
vertex 517.576503736854 342.714667691163 463.010400000004
vertex 518.187664399667 346.444296822609 463.010400000003
vertex 517.926124706569 343.170302609774 463.010400000004
endloop
endfacet
facet normal 5.40583730273686e-14 -2.01748594712651e-13 -1.0
outer loop
vertex 517.926124706569 343.170302609774 463.010400000004
vertex 518.187664399667 346.444296822609 463.010400000003
vertex 518.38175962518 343.519923579489 463.010400000004
endloop
endfacet
facet normal 5.40583730273686e-14 -2.01748594712651e-13 -1.0
outer loop
vertex 518.38175962518 343.519923579489 463.010400000004
vertex 518.187664399667 346.444296822609 463.010400000003
vertex 519.48175962518 346.614667691164 463.010400000003
endloop
endfacet
facet normal 5.40583730273686e-14 -2.01748594712651e-13 -1.0
outer loop
vertex 518.38175962518 343.519923579489 463.010400000004
vertex 519.48175962518 346.614667691164 463.010400000003
vertex 518.912357725954 343.739704508999 463.010400000004
endloop
endfacet
facet normal 5.40583730273686e-14 -2.01748594712651e-13 -1.0
outer loop
vertex 518.912357725954 343.739704508999 463.010400000004
vertex 519.48175962518 346.614667691164 463.010400000003
vertex 519.48175962518 343.814667691163 463.010400000004
endloop
endfacet
facet normal 5.40583730273686e-14 -2.01748594712651e-13 -1.0
outer loop
vertex 519.48175962518 343.814667691163 463.010400000004
vertex 519.48175962518 346.614667691164 463.010400000003
vertex 520.775854850692 346.444296822609 463.010400000003
endloop
endfacet
facet normal 5.40583730273686e-14 -2.01748594712651e-13 -1.0
outer loop
vertex 519.48175962518 343.814667691163 463.010400000004
vertex 520.775854850692 346.444296822609 463.010400000003
vertex 520.051161524405 343.739704508999 463.010400000004
endloop
endfacet
facet normal 5.40583730273686e-14 -2.01748594712651e-13 -1.0
outer loop
vertex 520.051161524405 343.739704508999 463.010400000004
vertex 520.775854850692 346.444296822609 463.010400000003
vertex 520.58175962518 343.519923579489 463.010400000004
endloop
endfacet
facet normal 5.40583730273686e-14 -2.01748594712651e-13 -1.0
outer loop
vertex 520.58175962518 343.519923579489 463.010400000004
vertex 520.775854850692 346.444296822609 463.010400000003
vertex 521.03739454379 343.170302609774 463.010400000004
endloop
endfacet
facet normal 5.40583730273686e-14 -2.01748594712651e-13 -1.0
outer loop
vertex 521.03739454379 343.170302609774 463.010400000004
vertex 520.775854850692 346.444296822609 463.010400000003
vertex 521.98175962518 345.944794710086 463.010400000003
endloop
endfacet
facet normal 5.40583730273686e-14 -2.01748594712651e-13 -1.0
outer loop
vertex 521.03739454379 343.170302609774 463.010400000004
vertex 521.98175962518 345.944794710086 463.010400000003
vertex 521.387015513506 342.714667691163 463.010400000004
endloop
endfacet
facet normal 5.40583730273686e-14 -2.01748594712651e-13 -1.0
outer loop
vertex 521.387015513506 342.714667691163 463.010400000004
vertex 521.98175962518 345.944794710086 463.010400000003
vertex 521.606796443016 342.184069590389 463.010400000004
endloop
endfacet
facet normal 5.40583730273686e-14 -2.01748594712651e-13 -1.0
outer loop
vertex 521.606796443016 342.184069590389 463.010400000004
vertex 521.98175962518 345.944794710086 463.010400000003
vertex 521.68175962518 341.614667691163 463.010400000004
endloop
endfacet
facet normal 5.40583730273686e-14 -2.01748594712651e-13 -1.0
outer loop
vertex 521.68175962518 341.614667691163 463.010400000004
vertex 521.98175962518 345.944794710086 463.010400000003
vertex 521.98175962518 337.284540672241 463.010400000005
endloop
endfacet
facet normal 5.40583730273686e-14 -2.01748594712651e-13 -1.0
outer loop
vertex 521.98175962518 337.284540672241 463.010400000005
vertex 521.98175962518 345.944794710086 463.010400000003
vertex 523.017293531113 338.079133785231 463.010400000005
endloop
endfacet
facet normal 5.40583730273686e-14 -2.01748594712651e-13 -1.0
outer loop
vertex 523.017293531113 338.079133785231 463.010400000005
vertex 521.98175962518 345.944794710086 463.010400000003
vertex 523.017293531113 345.150201597096 463.010400000003
endloop
endfacet
facet normal 5.40583730273686e-14 -2.01748594712651e-13 -1.0
outer loop
vertex 523.017293531113 338.079133785231 463.010400000005
vertex 523.017293531113 345.150201597096 463.010400000003
vertex 523.811886644102 344.114667691164 463.010400000004
endloop
endfacet
facet normal 5.40583730273686e-14 -2.01748594712651e-13 -1.0
outer loop
vertex 523.017293531113 338.079133785231 463.010400000005
vertex 523.811886644102 344.114667691164 463.010400000004
vertex 523.811886644102 339.114667691163 463.010400000005
endloop
endfacet
facet normal 5.40583730273686e-14 -2.01748594712651e-13 -1.0
outer loop
vertex 523.811886644102 339.114667691163 463.010400000005
vertex 523.811886644102 344.114667691164 463.010400000004
vertex 524.311388756625 342.908762916676 463.010400000004
endloop
endfacet
facet normal 5.40583730273686e-14 -2.01748594712651e-13 -1.0
outer loop
vertex 523.811886644102 339.114667691163 463.010400000005
vertex 524.311388756625 342.908762916676 463.010400000004
vertex 524.311388756625 340.320572465651 463.010400000005
endloop
endfacet
facet normal 5.40583730273686e-14 -2.01748594712651e-13 -1.0
outer loop
vertex 524.311388756625 340.320572465651 463.010400000005
vertex 524.311388756625 342.908762916676 463.010400000004
vertex 524.48175962518 341.614667691163 463.010400000004
endloop
endfacet
facet normal 5.40583730273686e-14 -2.01748594712651e-13 -1.0
outer loop
vertex 514.652130493734 342.908762916676 463.010400000003
vertex 514.652130493734 340.320572465651 463.010400000004
vertex 514.48175962518 341.614667691163 463.010400000004
endloop
endfacet
facet normal 5.40583730273686e-14 -2.01748594712651e-13 -1.0
outer loop
vertex 514.652130493734 340.320572465651 463.010400000004
vertex 514.652130493734 342.908762916676 463.010400000003
vertex 515.151632606258 344.114667691164 463.010400000003
endloop
endfacet
facet normal 5.40583730273686e-14 -2.01748594712651e-13 -1.0
outer loop
vertex 514.652130493734 340.320572465651 463.010400000004
vertex 515.151632606258 344.114667691164 463.010400000003
vertex 515.151632606258 339.114667691163 463.010400000004
endloop
endfacet
facet normal 5.40583730273686e-14 -2.01748594712651e-13 -1.0
outer loop
vertex 515.151632606258 339.114667691163 463.010400000004
vertex 515.151632606258 344.114667691164 463.010400000003
vertex 515.946225719247 345.150201597096 463.010400000003
endloop
endfacet
facet normal 5.40583730273686e-14 -2.01748594712651e-13 -1.0
outer loop
vertex 515.151632606258 339.114667691163 463.010400000004
vertex 515.946225719247 345.150201597096 463.010400000003
vertex 515.946225719247 338.079133785231 463.010400000005
endloop
endfacet
facet normal 5.40583730273686e-14 -2.01748594712651e-13 -1.0
outer loop
vertex 515.946225719247 338.079133785231 463.010400000005
vertex 515.946225719247 345.150201597096 463.010400000003
vertex 516.98175962518 345.944794710086 463.010400000003
endloop
endfacet
facet normal 5.40583730273686e-14 -2.01748594712651e-13 -1.0
outer loop
vertex 515.946225719247 338.079133785231 463.010400000005
vertex 516.98175962518 345.944794710086 463.010400000003
vertex 516.98175962518 337.284540672241 463.010400000005
endloop
endfacet
facet normal 5.40583730273686e-14 -2.01748594712651e-13 -1.0
outer loop
vertex 516.98175962518 337.284540672241 463.010400000005
vertex 516.98175962518 345.944794710086 463.010400000003
vertex 517.28175962518 341.614667691163 463.010400000004
endloop
endfacet
facet normal 5.40583730273686e-14 -2.01748594712651e-13 -1.0
outer loop
vertex 516.98175962518 337.284540672241 463.010400000005
vertex 517.28175962518 341.614667691163 463.010400000004
vertex 517.356722807344 341.045265791938 463.010400000004
endloop
endfacet
facet normal 5.40583730273686e-14 -2.01748594712651e-13 -1.0
outer loop
vertex 516.98175962518 337.284540672241 463.010400000005
vertex 517.356722807344 341.045265791938 463.010400000004
vertex 518.187664399667 336.785038559718 463.010400000005
endloop
endfacet
facet normal 5.40583730273686e-14 -2.01748594712651e-13 -1.0
outer loop
vertex 518.187664399667 336.785038559718 463.010400000005
vertex 517.356722807344 341.045265791938 463.010400000004
vertex 517.576503736854 340.514667691163 463.010400000004
endloop
endfacet
facet normal 5.40583730273686e-14 -2.01748594712651e-13 -1.0
outer loop
vertex 518.187664399667 336.785038559718 463.010400000005
vertex 517.576503736854 340.514667691163 463.010400000004
vertex 517.926124706569 340.059032772553 463.010400000005
endloop
endfacet
facet normal 5.40583730273686e-14 -2.01748594712651e-13 -1.0
outer loop
vertex 518.187664399667 336.785038559718 463.010400000005
vertex 517.926124706569 340.059032772553 463.010400000005
vertex 518.38175962518 339.709411802838 463.010400000005
endloop
endfacet
facet normal 5.40583730273686e-14 -2.01748594712651e-13 -1.0
outer loop
vertex 518.187664399667 336.785038559718 463.010400000005
vertex 518.38175962518 339.709411802838 463.010400000005
vertex 519.48175962518 336.614667691163 463.010400000005
endloop
endfacet
facet normal 5.40583730273686e-14 -2.01748594712651e-13 -1.0
outer loop
vertex 519.48175962518 336.614667691163 463.010400000005
vertex 518.38175962518 339.709411802838 463.010400000005
vertex 518.912357725954 339.489630873327 463.010400000005
endloop
endfacet
facet normal 5.40583730273686e-14 -2.01748594712651e-13 -1.0
outer loop
vertex 519.48175962518 336.614667691163 463.010400000005
vertex 518.912357725954 339.489630873327 463.010400000005
vertex 519.48175962518 339.414667691163 463.010400000005
endloop
endfacet
facet normal 5.40583730273686e-14 -2.01748594712651e-13 -1.0
outer loop
vertex 519.48175962518 336.614667691163 463.010400000005
vertex 519.48175962518 339.414667691163 463.010400000005
vertex 520.051161524405 339.489630873327 463.010400000005
endloop
endfacet
facet normal 5.40583730273686e-14 -2.01748594712651e-13 -1.0
outer loop
vertex 519.48175962518 336.614667691163 463.010400000005
vertex 520.051161524405 339.489630873327 463.010400000005
vertex 520.775854850692 336.785038559718 463.010400000005
endloop
endfacet
facet normal 5.40583730273686e-14 -2.01748594712651e-13 -1.0
outer loop
vertex 520.775854850692 336.785038559718 463.010400000005
vertex 520.051161524405 339.489630873327 463.010400000005
vertex 520.58175962518 339.709411802838 463.010400000005
endloop
endfacet
facet normal 5.40583730273686e-14 -2.01748594712651e-13 -1.0
outer loop
vertex 520.775854850692 336.785038559718 463.010400000005
vertex 520.58175962518 339.709411802838 463.010400000005
vertex 521.03739454379 340.059032772553 463.010400000005
endloop
endfacet
facet normal 5.40583730273686e-14 -2.01748594712651e-13 -1.0
outer loop
vertex 520.775854850692 336.785038559718 463.010400000005
vertex 521.03739454379 340.059032772553 463.010400000005
vertex 521.98175962518 337.284540672241 463.010400000005
endloop
endfacet
facet normal 5.40583730273686e-14 -2.01748594712651e-13 -1.0
outer loop
vertex 521.98175962518 337.284540672241 463.010400000005
vertex 521.03739454379 340.059032772553 463.010400000005
vertex 521.387015513506 340.514667691163 463.010400000005
endloop
endfacet
facet normal 5.40583730273686e-14 -2.01748594712651e-13 -1.0
outer loop
vertex 521.98175962518 337.284540672241 463.010400000005
vertex 521.387015513506 340.514667691163 463.010400000005
vertex 521.606796443016 341.045265791938 463.010400000005
endloop
endfacet
facet normal 5.40583730273686e-14 -2.01748594712651e-13 -1.0
outer loop
vertex 521.98175962518 337.284540672241 463.010400000005
vertex 521.606796443016 341.045265791938 463.010400000005
vertex 521.68175962518 341.614667691163 463.010400000004
endloop
endfacet
facet normal -0.306752328537687 0.0403847101920269 0.950932218467443
outer loop
vertex 516.481759625179 341.614667691167 475.010400000011
vertex 514.652130493735 342.908762916677 474.36523870969
vertex 514.48175962518 341.614667691165 474.365238709688
endloop
endfacet
facet normal -0.306752328537687 0.0403847101920269 0.950932218467443
outer loop
vertex 514.652130493735 342.908762916677 474.36523870969
vertex 516.481759625179 341.614667691167 475.010400000011
vertex 516.583982146312 342.391124826474 475.010400000011
endloop
endfacet
facet normal 0.118401979317326 0.285847664279794 0.950932218467502
outer loop
vertex 520.981759625179 344.21274390252 475.010400000011
vertex 520.775854850692 346.444296822609 474.36523870969
vertex 520.258216760487 344.512445170034 475.01040000001
endloop
endfacet
facet normal 0.118401979317326 0.285847664279794 0.950932218467502
outer loop
vertex 520.775854850692 346.444296822609 474.36523870969
vertex 520.981759625179 344.21274390252 475.010400000011
vertex 521.981759625179 345.944794710086 474.36523870969
endloop
endfacet
facet normal -0.707106781186669 -0.707106781186426 -2.49935902377248e-14
outer loop
vertex 515.946225719246 338.079133785231 474.365238709688
vertex 515.151632606258 339.114667691163 463.010400000004
vertex 515.946225719247 338.079133785231 463.010400000005
endloop
endfacet
facet normal -0.86602540378452 -0.499999999999859 -1.70400461224484e-14
outer loop
vertex 515.151632606258 339.114667691163 463.010400000004
vertex 515.946225719246 338.079133785231 474.365238709688
vertex 515.151632606257 339.114667691164 474.365238709689
endloop
endfacet
facet normal 0.866025403784504 -0.499999999999886 -1.47828980701945e-14
outer loop
vertex 523.811886644102 339.114667691163 463.010400000005
vertex 523.017293531113 338.079133785231 474.365238709687
vertex 523.017293531113 338.079133785231 463.010400000005
endloop
endfacet
facet normal 0.707106781186628 -0.707106781186467 -2.35345110425534e-14
outer loop
vertex 523.017293531113 338.079133785231 474.365238709687
vertex 523.811886644102 339.114667691163 463.010400000005
vertex 523.811886644103 339.114667691164 474.365238709687
endloop
endfacet
facet normal -0.306752328537692 -0.0403847101931751 0.950932218467393
outer loop
vertex 514.652130493734 340.320572465652 474.365238709688
vertex 516.481759625179 341.614667691167 475.010400000011
vertex 514.48175962518 341.614667691165 474.365238709688
endloop
endfacet
facet normal -0.306752328537692 -0.0403847101931751 0.950932218467393
outer loop
vertex 516.481759625179 341.614667691167 475.010400000011
vertex 514.652130493734 340.320572465652 474.365238709688
vertex 516.583982146312 340.838210555859 475.01040000001
endloop
endfacet
facet normal 0.118401979317511 -0.285847664280234 0.950932218467347
outer loop
vertex 520.775854850693 336.785038559718 474.365238709686
vertex 520.981759625179 339.016591479814 475.01040000001
vertex 520.258216760487 338.7168902123 475.01040000001
endloop
endfacet
facet normal 0.118401979317511 -0.285847664280234 0.950932218467347
outer loop
vertex 520.981759625179 339.016591479814 475.01040000001
vertex 520.775854850693 336.785038559718 474.365238709686
vertex 521.98175962518 337.284540672241 474.365238709686
endloop
endfacet
facet normal -0.258819045102541 0.965925826289063 -2.906897360682e-13
outer loop
vertex 520.051161524405 339.489630873331 475.010400000011
vertex 520.58175962518 339.709411802838 463.010400000005
vertex 520.051161524405 339.489630873327 463.010400000005
endloop
endfacet
facet normal -0.500000000000024 0.866025403784425 -2.82317034281539e-13
outer loop
vertex 520.58175962518 339.709411802838 463.010400000005
vertex 520.051161524405 339.489630873331 475.010400000011
vertex 520.581759625179 339.709411802841 475.010400000011
endloop
endfacet
facet normal 0.707106781186548 -0.707106781186547 2.54704893159554e-13
outer loop
vertex 517.926124706569 343.170302609774 463.010400000004
vertex 517.576503736853 342.714667691167 475.01040000001
vertex 517.576503736854 342.714667691163 463.010400000004
endloop
endfacet
facet normal 0.866025403784425 -0.500000000000024 2.09735034488487e-13
outer loop
vertex 517.576503736853 342.714667691167 475.01040000001
vertex 517.926124706569 343.170302609774 463.010400000004
vertex 517.926124706569 343.170302609777 475.01040000001
endloop
endfacet
facet normal -0.86602540378443 0.500000000000015 -2.09735034488485e-13
outer loop
vertex 521.387015513505 340.514667691167 475.010400000011
vertex 521.606796443016 341.045265791938 463.010400000005
vertex 521.387015513506 340.514667691163 463.010400000005
endloop
endfacet
facet normal -0.965925826289065 0.258819045102535 -1.50472079820554e-13
outer loop
vertex 521.606796443016 341.045265791938 463.010400000005
vertex 521.387015513505 340.514667691167 475.010400000011
vertex 521.606796443015 341.045265791941 475.010400000011
endloop
endfacet
facet normal 0.258819045102536 0.965925826289064 -2.48784498949353e-13
outer loop
vertex 518.912357725954 339.489630873331 475.010400000011
vertex 519.48175962518 339.414667691163 463.010400000005
vertex 518.912357725954 339.489630873327 463.010400000005
endloop
endfacet
facet normal 8.79526546700278e-15 1.0 -2.79252412729312e-13
outer loop
vertex 519.48175962518 339.414667691163 463.010400000005
vertex 518.912357725954 339.489630873331 475.010400000011
vertex 519.481759625179 339.414667691167 475.010400000011
endloop
endfacet
endsolid K02.2
