solid kitchissippi-02
facet normal -0.707106781186585 0.0 -0.70710678118651
outer loop
vertex 632.499934232542 -438.687971511792 603.417154044757
vertex 632.085720670169 -441.687971511792 603.734991289953
vertex 632.085720670169 -438.687971511792 603.734991289953
endloop
endfacet
facet normal -0.500000000000037 0.0 -0.866025403784418
outer loop
vertex 632.085720670169 -441.687971511792 603.734991289953
vertex 632.499934232542 -438.687971511792 603.417154044757
vertex 632.499934232542 -441.687971511792 603.417154044757
endloop
endfacet
facet normal -0.866025403784427 0.0 -0.50000000000002
outer loop
vertex 632.817771477737 -438.687971511792 603.002940482384
vertex 633.017572322747 -441.687971511792 602.520578572589
vertex 632.817771477737 -441.687971511792 603.002940482384
endloop
endfacet
facet normal -0.965925826289061 0.0 -0.258819045102547
outer loop
vertex 633.017572322747 -441.687971511792 602.520578572589
vertex 632.817771477737 -438.687971511792 603.002940482384
vertex 633.017572322747 -438.687971511792 602.520578572589
endloop
endfacet
facet normal 0.613508705906595 0.789687955952739 0.0
outer loop
vertex 639.123634359871 -438.687971511792 611.985845241195
vertex 641.054384359871 -440.187971511792 571.985845241195
vertex 639.123634359871 -438.687971511792 571.985845241195
endloop
endfacet
facet normal 0.613508705906595 0.789687955952739 0.0
outer loop
vertex 641.054384359871 -440.187971511792 571.985845241195
vertex 639.123634359871 -438.687971511792 611.985845241195
vertex 641.054384359871 -440.187971511792 611.985845241195
endloop
endfacet
facet normal -0.965925826289061 0.0 -0.258819045102547
outer loop
vertex 633.017572322747 -438.687971511792 602.520578572589
vertex 633.085720670168 -441.687971511792 602.002940482384
vertex 633.017572322747 -441.687971511792 602.520578572589
endloop
endfacet
facet normal -1.0 0.0 0.0
outer loop
vertex 633.085720670168 -441.687971511792 602.002940482384
vertex 633.017572322747 -438.687971511792 602.520578572589
vertex 633.085720670168 -438.687971511792 602.002940482384
endloop
endfacet
facet normal 0.0 0.0 1.0
outer loop
vertex 631.085720670168 -441.687971511792 600.002940482384
vertex 630.568082579964 -438.687971511792 600.071088829805
vertex 630.568082579964 -441.687971511792 600.071088829805
endloop
endfacet
facet normal 0.258819045102515 0.0 0.96592582628907
outer loop
vertex 630.568082579964 -438.687971511792 600.071088829805
vertex 631.085720670168 -441.687971511792 600.002940482384
vertex 631.085720670168 -438.687971511792 600.002940482384
endloop
endfacet
facet normal -1.0 0.0 0.0
outer loop
vertex 601.088574842249 -441.687971511792 611.985845241195
vertex 601.088574842249 -440.187971511792 592.020035723572
vertex 601.088574842249 -441.702471511792 592.020035723572
endloop
endfacet
facet normal -1.0 0.0 0.0
outer loop
vertex 601.088574842249 -440.187971511792 592.020035723572
vertex 601.088574842249 -441.687971511792 611.985845241195
vertex 601.088574842249 -440.187971511792 611.985845241195
endloop
endfacet
facet normal 0.0 0.0 1.0
outer loop
vertex 641.054384359871 -441.687971511792 611.985845241195
vertex 601.088574842249 -440.187971511792 611.985845241195
vertex 601.088574842249 -441.687971511792 611.985845241195
endloop
endfacet
facet normal 0.0 0.0 1.0
outer loop
vertex 601.088574842249 -440.187971511792 611.985845241195
vertex 641.054384359871 -441.687971511792 611.985845241195
vertex 603.088574842249 -438.687971511792 611.985845241195
endloop
endfacet
facet normal 0.0 0.0 1.0
outer loop
vertex 603.088574842249 -438.687971511792 611.985845241195
vertex 641.054384359871 -441.687971511792 611.985845241195
vertex 639.123634359871 -438.687971511792 611.985845241195
endloop
endfacet
facet normal 0.0 0.0 1.0
outer loop
vertex 639.123634359871 -438.687971511792 611.985845241195
vertex 641.054384359871 -441.687971511792 611.985845241195
vertex 641.054384359871 -440.187971511792 611.985845241195
endloop
endfacet
facet normal -0.258819045102547 0.0 0.965925826289061
outer loop
vertex 631.603358760374 -441.687971511792 580.053993588617
vertex 631.085720670168 -438.687971511792 579.985845241195
vertex 631.085720670168 -441.687971511792 579.985845241195
endloop
endfacet
facet normal 0.0 0.0 1.0
outer loop
vertex 631.085720670168 -438.687971511792 579.985845241195
vertex 631.603358760374 -441.687971511792 580.053993588617
vertex 631.603358760374 -438.687971511792 580.053993588617
endloop
endfacet
facet normal 1.0 0.0 0.0
outer loop
vertex 609.085720670169 -438.687971511792 602.002940482384
vertex 609.15386901759 -441.687971511792 602.520578572589
vertex 609.085720670169 -441.687971511792 602.002940482384
endloop
endfacet
facet normal 0.96592582628907 0.0 -0.258819045102515
outer loop
vertex 609.15386901759 -441.687971511792 602.520578572589
vertex 609.085720670169 -438.687971511792 602.002940482384
vertex 609.15386901759 -438.687971511792 602.520578572589
endloop
endfacet
facet normal -0.866025403784427 0.0 -0.50000000000002
outer loop
vertex 612.817771477737 -438.687971511792 603.002940482384
vertex 613.017572322747 -441.687971511792 602.520578572589
vertex 612.817771477737 -441.687971511792 603.002940482384
endloop
endfacet
facet normal -0.965925826289061 0.0 -0.258819045102547
outer loop
vertex 613.017572322747 -441.687971511792 602.520578572589
vertex 612.817771477737 -438.687971511792 603.002940482384
vertex 613.017572322747 -438.687971511792 602.520578572589
endloop
endfacet
facet normal 1.0 0.0 0.0
outer loop
vertex 641.054384359871 -440.187971511792 571.985845241195
vertex 641.054384359871 -441.687971511792 611.985845241195
vertex 641.054384359871 -441.687971511792 571.985845241195
endloop
endfacet
facet normal 1.0 0.0 0.0
outer loop
vertex 641.054384359871 -441.687971511792 611.985845241195
vertex 641.054384359871 -440.187971511792 571.985845241195
vertex 641.054384359871 -440.187971511792 611.985845241195
endloop
endfacet
facet normal 0.500000000000037 0.0 0.866025403784418
outer loop
vertex 610.085720670168 -441.687971511792 600.270889674815
vertex 609.671507107795 -438.687971511792 600.588726920011
vertex 609.671507107795 -441.687971511792 600.588726920011
endloop
endfacet
facet normal 0.707106781186585 0.0 0.70710678118651
outer loop
vertex 609.671507107795 -438.687971511792 600.588726920011
vertex 610.085720670168 -441.687971511792 600.270889674815
vertex 610.085720670168 -438.687971511792 600.270889674815
endloop
endfacet
facet normal 0.965925826289061 0.0 0.258819045102547
outer loop
vertex 609.15386901759 -438.687971511792 601.485302392179
vertex 609.085720670169 -441.687971511792 602.002940482384
vertex 609.15386901759 -441.687971511792 601.485302392179
endloop
endfacet
facet normal 1.0 0.0 0.0
outer loop
vertex 609.085720670169 -441.687971511792 602.002940482384
vertex 609.15386901759 -438.687971511792 601.485302392179
vertex 609.085720670169 -438.687971511792 602.002940482384
endloop
endfacet
facet normal -0.866025403784418 0.0 0.500000000000037
outer loop
vertex 612.817771477737 -438.687971511792 601.002940482384
vertex 612.499934232542 -441.687971511792 600.588726920011
vertex 612.817771477737 -441.687971511792 601.002940482384
endloop
endfacet
facet normal -0.70710678118651 0.0 0.707106781186585
outer loop
vertex 612.499934232542 -441.687971511792 600.588726920011
vertex 612.817771477737 -438.687971511792 601.002940482384
vertex 612.499934232542 -438.687971511792 600.588726920011
endloop
endfacet
facet normal -0.965925826289061 0.0 -0.258819045102547
outer loop
vertex 613.017572322747 -438.687971511792 602.520578572589
vertex 613.085720670169 -441.687971511792 602.002940482384
vertex 613.017572322747 -441.687971511792 602.520578572589
endloop
endfacet
facet normal -1.0 0.0 0.0
outer loop
vertex 613.085720670169 -441.687971511792 602.002940482384
vertex 613.017572322747 -438.687971511792 602.520578572589
vertex 613.085720670169 -438.687971511792 602.002940482384
endloop
endfacet
facet normal -0.258819045102515 0.0 -0.96592582628907
outer loop
vertex 611.603358760374 -438.687971511792 603.934792134962
vertex 611.085720670169 -441.687971511792 604.002940482384
vertex 611.085720670169 -438.687971511792 604.002940482384
endloop
endfacet
facet normal 0.0 0.0 -1.0
outer loop
vertex 611.085720670169 -441.687971511792 604.002940482384
vertex 611.603358760374 -438.687971511792 603.934792134962
vertex 611.603358760374 -441.687971511792 603.934792134962
endloop
endfacet
facet normal 0.50000000000002 0.0 -0.866025403784427
outer loop
vertex 610.085720670169 -438.687971511792 603.734991289953
vertex 609.671507107795 -441.687971511792 603.417154044757
vertex 609.671507107795 -438.687971511792 603.417154044757
endloop
endfacet
facet normal 0.70710678118651 0.0 -0.707106781186585
outer loop
vertex 609.671507107795 -441.687971511792 603.417154044757
vertex 610.085720670169 -438.687971511792 603.734991289953
vertex 610.085720670169 -441.687971511792 603.734991289953
endloop
endfacet
facet normal 0.0 0.0 -1.0
outer loop
vertex 611.085720670169 -438.687971511792 604.002940482384
vertex 610.568082579964 -441.687971511792 603.934792134962
vertex 610.568082579964 -438.687971511792 603.934792134962
endloop
endfacet
facet normal 0.258819045102547 0.0 -0.965925826289061
outer loop
vertex 610.568082579964 -441.687971511792 603.934792134962
vertex 611.085720670169 -438.687971511792 604.002940482384
vertex 611.085720670169 -441.687971511792 604.002940482384
endloop
endfacet
facet normal 0.258819045102515 0.0 0.96592582628907
outer loop
vertex 610.568082579964 -441.687971511792 600.071088829805
vertex 610.085720670168 -438.687971511792 600.270889674815
vertex 610.085720670168 -441.687971511792 600.270889674815
endloop
endfacet
facet normal 0.500000000000037 0.0 0.866025403784418
outer loop
vertex 610.085720670168 -438.687971511792 600.270889674815
vertex 610.568082579964 -441.687971511792 600.071088829805
vertex 610.568082579964 -438.687971511792 600.071088829805
endloop
endfacet
facet normal -0.707106781186585 0.0 -0.70710678118651
outer loop
vertex 612.499934232542 -438.687971511792 603.417154044757
vertex 612.817771477737 -441.687971511792 603.002940482384
vertex 612.499934232542 -441.687971511792 603.417154044757
endloop
endfacet
facet normal -0.866025403784427 0.0 -0.50000000000002
outer loop
vertex 612.817771477737 -441.687971511792 603.002940482384
vertex 612.499934232542 -438.687971511792 603.417154044757
vertex 612.817771477737 -438.687971511792 603.002940482384
endloop
endfacet
facet normal -0.707106781186585 0.0 -0.70710678118651
outer loop
vertex 612.499934232542 -438.687971511792 603.417154044757
vertex 612.085720670169 -441.687971511792 603.734991289953
vertex 612.085720670169 -438.687971511792 603.734991289953
endloop
endfacet
facet normal -0.500000000000037 0.0 -0.866025403784418
outer loop
vertex 612.085720670169 -441.687971511792 603.734991289953
vertex 612.499934232542 -438.687971511792 603.417154044757
vertex 612.499934232542 -441.687971511792 603.417154044757
endloop
endfacet
facet normal 0.0 0.0 -1.0
outer loop
vertex 631.085720670168 -438.687971511792 604.002940482384
vertex 630.568082579964 -441.687971511792 603.934792134962
vertex 630.568082579964 -438.687971511792 603.934792134962
endloop
endfacet
facet normal 0.258819045102547 0.0 -0.965925826289061
outer loop
vertex 630.568082579964 -441.687971511792 603.934792134962
vertex 631.085720670168 -438.687971511792 604.002940482384
vertex 631.085720670168 -441.687971511792 604.002940482384
endloop
endfacet
facet normal 0.96592582628907 0.0 -0.258819045102515
outer loop
vertex 629.15386901759 -438.687971511792 602.520578572589
vertex 629.3536698626 -441.687971511792 603.002940482384
vertex 629.15386901759 -441.687971511792 602.520578572589
endloop
endfacet
facet normal 0.866025403784418 0.0 -0.500000000000037
outer loop
vertex 629.3536698626 -441.687971511792 603.002940482384
vertex 629.15386901759 -438.687971511792 602.520578572589
vertex 629.3536698626 -438.687971511792 603.002940482384
endloop
endfacet
facet normal 0.258819045102515 0.0 0.96592582628907
outer loop
vertex 630.568082579964 -441.687971511792 600.071088829805
vertex 630.085720670168 -438.687971511792 600.270889674815
vertex 630.085720670168 -441.687971511792 600.270889674815
endloop
endfacet
facet normal 0.500000000000037 0.0 0.866025403784418
outer loop
vertex 630.085720670168 -438.687971511792 600.270889674815
vertex 630.568082579964 -441.687971511792 600.071088829805
vertex 630.568082579964 -438.687971511792 600.071088829805
endloop
endfacet
facet normal -0.866025403784418 0.0 0.500000000000037
outer loop
vertex 632.817771477737 -438.687971511792 601.002940482384
vertex 632.499934232542 -441.687971511792 600.588726920011
vertex 632.817771477737 -441.687971511792 601.002940482384
endloop
endfacet
facet normal -0.70710678118651 0.0 0.707106781186585
outer loop
vertex 632.499934232542 -441.687971511792 600.588726920011
vertex 632.817771477737 -438.687971511792 601.002940482384
vertex 632.499934232542 -438.687971511792 600.588726920011
endloop
endfacet
facet normal -0.500000000000037 0.0 -0.866025403784418
outer loop
vertex 632.085720670169 -438.687971511792 603.734991289953
vertex 631.603358760374 -441.687971511792 603.934792134962
vertex 631.603358760374 -438.687971511792 603.934792134962
endloop
endfacet
facet normal -0.258819045102515 0.0 -0.96592582628907
outer loop
vertex 631.603358760374 -441.687971511792 603.934792134962
vertex 632.085720670169 -438.687971511792 603.734991289953
vertex 632.085720670169 -441.687971511792 603.734991289953
endloop
endfacet
facet normal 0.965925826289061 0.0 0.258819045102547
outer loop
vertex 629.15386901759 -438.687971511792 601.485302392179
vertex 629.085720670168 -441.687971511792 602.002940482384
vertex 629.15386901759 -441.687971511792 601.485302392179
endloop
endfacet
facet normal 1.0 0.0 0.0
outer loop
vertex 629.085720670168 -441.687971511792 602.002940482384
vertex 629.15386901759 -438.687971511792 601.485302392179
vertex 629.085720670168 -438.687971511792 602.002940482384
endloop
endfacet
facet normal 0.500000000000037 0.0 0.866025403784418
outer loop
vertex 630.085720670168 -441.687971511792 580.253794433626
vertex 629.671507107795 -438.687971511792 580.571631678822
vertex 629.671507107795 -441.687971511792 580.571631678822
endloop
endfacet
facet normal 0.707106781186585 0.0 0.70710678118651
outer loop
vertex 629.671507107795 -438.687971511792 580.571631678822
vertex 630.085720670168 -441.687971511792 580.253794433626
vertex 630.085720670168 -438.687971511792 580.253794433626
endloop
endfacet
facet normal -1.0 0.0 0.0
outer loop
vertex 621.088574842249 -440.187971511792 592.020035723572
vertex 621.088574842249 -441.687971511792 571.985845241195
vertex 621.088574842249 -441.702471511792 592.020035723572
endloop
endfacet
facet normal -1.0 0.0 0.0
outer loop
vertex 621.088574842249 -441.687971511792 571.985845241195
vertex 621.088574842249 -440.187971511792 592.020035723572
vertex 621.088574842249 -440.187971511792 571.985845241195
endloop
endfacet
facet normal -0.607901022184207 0.794012813012105 0.0
outer loop
vertex 621.088574842249 -440.187971511792 592.020035723572
vertex 623.047806980466 -438.687971511792 571.985845241195
vertex 621.088574842249 -440.187971511792 571.985845241195
endloop
endfacet
facet normal -0.607901022184207 0.794012813012105 0.0
outer loop
vertex 623.047806980466 -438.687971511792 571.985845241195
vertex 621.088574842249 -440.187971511792 592.020035723572
vertex 623.047806980466 -438.687971511792 592.020035723572
endloop
endfacet
facet normal 0.500000000000037 0.0 0.866025403784418
outer loop
vertex 630.085720670168 -441.687971511792 600.270889674815
vertex 629.671507107795 -438.687971511792 600.588726920011
vertex 629.671507107795 -441.687971511792 600.588726920011
endloop
endfacet
facet normal 0.707106781186585 0.0 0.70710678118651
outer loop
vertex 629.671507107795 -438.687971511792 600.588726920011
vertex 630.085720670168 -441.687971511792 600.270889674815
vertex 630.085720670168 -438.687971511792 600.270889674815
endloop
endfacet
facet normal 0.866025403784418 0.0 -0.500000000000037
outer loop
vertex 629.3536698626 -438.687971511792 603.002940482384
vertex 629.671507107795 -441.687971511792 603.417154044757
vertex 629.3536698626 -441.687971511792 603.002940482384
endloop
endfacet
facet normal 0.70710678118651 0.0 -0.707106781186585
outer loop
vertex 629.671507107795 -441.687971511792 603.417154044757
vertex 629.3536698626 -438.687971511792 603.002940482384
vertex 629.671507107795 -438.687971511792 603.417154044757
endloop
endfacet
facet normal -0.50000000000002 0.0 0.866025403784427
outer loop
vertex 632.085720670168 -441.687971511792 600.270889674815
vertex 631.603358760374 -438.687971511792 600.071088829805
vertex 631.603358760374 -441.687971511792 600.071088829805
endloop
endfacet
facet normal -0.258819045102547 0.0 0.965925826289061
outer loop
vertex 631.603358760374 -438.687971511792 600.071088829805
vertex 632.085720670168 -441.687971511792 600.270889674815
vertex 632.085720670168 -438.687971511792 600.270889674815
endloop
endfacet
facet normal 0.0 0.0 -1.0
outer loop
vertex 603.088574842249 -438.687971511792 592.020035723572
vertex 621.088574842249 -440.187971511792 592.020035723572
vertex 601.088574842249 -440.187971511792 592.020035723572
endloop
endfacet
facet normal 0.0 0.0 -1.0
outer loop
vertex 621.088574842249 -440.187971511792 592.020035723572
vertex 603.088574842249 -438.687971511792 592.020035723572
vertex 623.047806980466 -438.687971511792 592.020035723572
endloop
endfacet
facet normal 0.258819045102515 0.0 0.96592582628907
outer loop
vertex 630.568082579964 -441.687971511792 580.053993588617
vertex 630.085720670168 -438.687971511792 580.253794433626
vertex 630.085720670168 -441.687971511792 580.253794433626
endloop
endfacet
facet normal 0.500000000000037 0.0 0.866025403784418
outer loop
vertex 630.085720670168 -438.687971511792 580.253794433626
vertex 630.568082579964 -441.687971511792 580.053993588617
vertex 630.568082579964 -438.687971511792 580.053993588617
endloop
endfacet
facet normal -0.500000000000037 0.0 -0.866025403784418
outer loop
vertex 632.085720670169 -438.687971511792 583.717896048764
vertex 631.603358760374 -441.687971511792 583.917696893773
vertex 631.603358760374 -438.687971511792 583.917696893773
endloop
endfacet
facet normal -0.258819045102515 0.0 -0.96592582628907
outer loop
vertex 631.603358760374 -441.687971511792 583.917696893773
vertex 632.085720670169 -438.687971511792 583.717896048764
vertex 632.085720670169 -441.687971511792 583.717896048764
endloop
endfacet
facet normal -1.0 0.0 0.0
outer loop
vertex 633.085720670168 -438.687971511792 581.985845241195
vertex 633.017572322747 -441.687971511792 581.46820715099
vertex 633.085720670168 -441.687971511792 581.985845241195
endloop
endfacet
facet normal -0.96592582628907 0.0 0.258819045102515
outer loop
vertex 633.017572322747 -441.687971511792 581.46820715099
vertex 633.085720670168 -438.687971511792 581.985845241195
vertex 633.017572322747 -438.687971511792 581.46820715099
endloop
endfacet
facet normal -0.866025403784418 0.0 0.500000000000037
outer loop
vertex 632.817771477737 -438.687971511792 580.985845241195
vertex 632.499934232542 -441.687971511792 580.571631678822
vertex 632.817771477737 -441.687971511792 580.985845241195
endloop
endfacet
facet normal -0.70710678118651 0.0 0.707106781186585
outer loop
vertex 632.499934232542 -441.687971511792 580.571631678822
vertex 632.817771477737 -438.687971511792 580.985845241195
vertex 632.499934232542 -438.687971511792 580.571631678822
endloop
endfacet
facet normal 0.258819045102547 0.0 -0.965925826289061
outer loop
vertex 630.568082579964 -438.687971511792 583.917696893773
vertex 630.085720670169 -441.687971511792 583.717896048764
vertex 630.085720670169 -438.687971511792 583.717896048764
endloop
endfacet
facet normal 0.50000000000002 0.0 -0.866025403784427
outer loop
vertex 630.085720670169 -441.687971511792 583.717896048764
vertex 630.568082579964 -438.687971511792 583.917696893773
vertex 630.568082579964 -441.687971511792 583.917696893773
endloop
endfacet
facet normal -0.50000000000002 0.0 0.866025403784427
outer loop
vertex 632.085720670168 -441.687971511792 580.253794433626
vertex 631.603358760374 -438.687971511792 580.053993588617
vertex 631.603358760374 -441.687971511792 580.053993588617
endloop
endfacet
facet normal -0.258819045102547 0.0 0.965925826289061
outer loop
vertex 631.603358760374 -438.687971511792 580.053993588617
vertex 632.085720670168 -441.687971511792 580.253794433626
vertex 632.085720670168 -438.687971511792 580.253794433626
endloop
endfacet
facet normal 0.866025403784427 0.0 0.50000000000002
outer loop
vertex 629.3536698626 -438.687971511792 580.985845241195
vertex 629.15386901759 -441.687971511792 581.46820715099
vertex 629.3536698626 -441.687971511792 580.985845241195
endloop
endfacet
facet normal 0.965925826289061 0.0 0.258819045102547
outer loop
vertex 629.15386901759 -441.687971511792 581.46820715099
vertex 629.3536698626 -438.687971511792 580.985845241195
vertex 629.15386901759 -438.687971511792 581.46820715099
endloop
endfacet
facet normal -0.70710678118651 0.0 0.707106781186585
outer loop
vertex 632.499934232542 -441.687971511792 580.571631678822
vertex 632.085720670168 -438.687971511792 580.253794433626
vertex 632.085720670168 -441.687971511792 580.253794433626
endloop
endfacet
facet normal -0.50000000000002 0.0 0.866025403784427
outer loop
vertex 632.085720670168 -438.687971511792 580.253794433626
vertex 632.499934232542 -441.687971511792 580.571631678822
vertex 632.499934232542 -438.687971511792 580.571631678822
endloop
endfacet
facet normal 0.96592582628907 0.0 -0.258819045102515
outer loop
vertex 629.15386901759 -438.687971511792 582.5034833314
vertex 629.3536698626 -441.687971511792 582.985845241195
vertex 629.15386901759 -441.687971511792 582.5034833314
endloop
endfacet
facet normal 0.866025403784418 0.0 -0.500000000000037
outer loop
vertex 629.3536698626 -441.687971511792 582.985845241195
vertex 629.15386901759 -438.687971511792 582.5034833314
vertex 629.3536698626 -438.687971511792 582.985845241195
endloop
endfacet
facet normal 0.0 0.0 -1.0
outer loop
vertex 631.085720670168 -438.687971511792 583.985845241195
vertex 630.568082579964 -441.687971511792 583.917696893773
vertex 630.568082579964 -438.687971511792 583.917696893773
endloop
endfacet
facet normal 0.258819045102547 0.0 -0.965925826289061
outer loop
vertex 630.568082579964 -441.687971511792 583.917696893773
vertex 631.085720670168 -438.687971511792 583.985845241195
vertex 631.085720670168 -441.687971511792 583.985845241195
endloop
endfacet
facet normal 0.866025403784418 0.0 -0.500000000000037
outer loop
vertex 629.3536698626 -438.687971511792 582.985845241195
vertex 629.671507107795 -441.687971511792 583.400058803568
vertex 629.3536698626 -441.687971511792 582.985845241195
endloop
endfacet
facet normal 0.70710678118651 0.0 -0.707106781186585
outer loop
vertex 629.671507107795 -441.687971511792 583.400058803568
vertex 629.3536698626 -438.687971511792 582.985845241195
vertex 629.671507107795 -438.687971511792 583.400058803568
endloop
endfacet
facet normal 0.965925826289061 0.0 0.258819045102547
outer loop
vertex 629.15386901759 -438.687971511792 581.46820715099
vertex 629.085720670168 -441.687971511792 581.985845241195
vertex 629.15386901759 -441.687971511792 581.46820715099
endloop
endfacet
facet normal 1.0 0.0 0.0
outer loop
vertex 629.085720670168 -441.687971511792 581.985845241195
vertex 629.15386901759 -438.687971511792 581.46820715099
vertex 629.085720670168 -438.687971511792 581.985845241195
endloop
endfacet
facet normal -0.707106781186585 0.0 -0.70710678118651
outer loop
vertex 632.499934232542 -438.687971511792 583.400058803568
vertex 632.085720670169 -441.687971511792 583.717896048764
vertex 632.085720670169 -438.687971511792 583.717896048764
endloop
endfacet
facet normal -0.500000000000037 0.0 -0.866025403784418
outer loop
vertex 632.085720670169 -441.687971511792 583.717896048764
vertex 632.499934232542 -438.687971511792 583.400058803568
vertex 632.499934232542 -441.687971511792 583.400058803568
endloop
endfacet
facet normal -0.258819045102515 0.0 -0.96592582628907
outer loop
vertex 631.603358760374 -438.687971511792 583.917696893773
vertex 631.085720670168 -441.687971511792 583.985845241195
vertex 631.085720670168 -438.687971511792 583.985845241195
endloop
endfacet
facet normal 0.0 0.0 -1.0
outer loop
vertex 631.085720670168 -441.687971511792 583.985845241195
vertex 631.603358760374 -438.687971511792 583.917696893773
vertex 631.603358760374 -441.687971511792 583.917696893773
endloop
endfacet
facet normal 0.707106781186585 0.0 0.70710678118651
outer loop
vertex 629.671507107795 -438.687971511792 580.571631678822
vertex 629.3536698626 -441.687971511792 580.985845241195
vertex 629.671507107795 -441.687971511792 580.571631678822
endloop
endfacet
facet normal 0.866025403784427 0.0 0.50000000000002
outer loop
vertex 629.3536698626 -441.687971511792 580.985845241195
vertex 629.671507107795 -438.687971511792 580.571631678822
vertex 629.3536698626 -438.687971511792 580.985845241195
endloop
endfacet
facet normal 0.50000000000002 0.0 -0.866025403784427
outer loop
vertex 630.085720670169 -438.687971511792 583.717896048764
vertex 629.671507107795 -441.687971511792 583.400058803568
vertex 629.671507107795 -438.687971511792 583.400058803568
endloop
endfacet
facet normal 0.70710678118651 0.0 -0.707106781186585
outer loop
vertex 629.671507107795 -441.687971511792 583.400058803568
vertex 630.085720670169 -438.687971511792 583.717896048764
vertex 630.085720670169 -441.687971511792 583.717896048764
endloop
endfacet
facet normal 1.0 0.0 0.0
outer loop
vertex 629.085720670168 -438.687971511792 581.985845241195
vertex 629.15386901759 -441.687971511792 582.5034833314
vertex 629.085720670168 -441.687971511792 581.985845241195
endloop
endfacet
facet normal 0.96592582628907 0.0 -0.258819045102515
outer loop
vertex 629.15386901759 -441.687971511792 582.5034833314
vertex 629.085720670168 -438.687971511792 581.985845241195
vertex 629.15386901759 -438.687971511792 582.5034833314
endloop
endfacet
facet normal -0.707106781186585 0.0 -0.70710678118651
outer loop
vertex 632.499934232542 -438.687971511792 583.400058803568
vertex 632.817771477737 -441.687971511792 582.985845241195
vertex 632.499934232542 -441.687971511792 583.400058803568
endloop
endfacet
facet normal -0.866025403784427 0.0 -0.50000000000002
outer loop
vertex 632.817771477737 -441.687971511792 582.985845241195
vertex 632.499934232542 -438.687971511792 583.400058803568
vertex 632.817771477737 -438.687971511792 582.985845241195
endloop
endfacet
facet normal 0.0 0.0 1.0
outer loop
vertex 631.085720670168 -441.687971511792 579.985845241195
vertex 630.568082579964 -438.687971511792 580.053993588617
vertex 630.568082579964 -441.687971511792 580.053993588617
endloop
endfacet
facet normal 0.258819045102515 0.0 0.96592582628907
outer loop
vertex 630.568082579964 -438.687971511792 580.053993588617
vertex 631.085720670168 -441.687971511792 579.985845241195
vertex 631.085720670168 -438.687971511792 579.985845241195
endloop
endfacet
facet normal -0.96592582628907 0.0 0.258819045102515
outer loop
vertex 633.017572322747 -438.687971511792 581.46820715099
vertex 632.817771477737 -441.687971511792 580.985845241195
vertex 633.017572322747 -441.687971511792 581.46820715099
endloop
endfacet
facet normal -0.866025403784418 0.0 0.500000000000037
outer loop
vertex 632.817771477737 -441.687971511792 580.985845241195
vertex 633.017572322747 -438.687971511792 581.46820715099
vertex 632.817771477737 -438.687971511792 580.985845241195
endloop
endfacet
facet normal -0.965925826289061 0.0 -0.258819045102547
outer loop
vertex 633.017572322747 -438.687971511792 582.5034833314
vertex 633.085720670168 -441.687971511792 581.985845241195
vertex 633.017572322747 -441.687971511792 582.5034833314
endloop
endfacet
facet normal -1.0 0.0 0.0
outer loop
vertex 633.085720670168 -441.687971511792 581.985845241195
vertex 633.017572322747 -438.687971511792 582.5034833314
vertex 633.085720670168 -438.687971511792 581.985845241195
endloop
endfacet
facet normal -0.866025403784427 0.0 -0.50000000000002
outer loop
vertex 632.817771477737 -438.687971511792 582.985845241195
vertex 633.017572322747 -441.687971511792 582.5034833314
vertex 632.817771477737 -441.687971511792 582.985845241195
endloop
endfacet
facet normal -0.965925826289061 0.0 -0.258819045102547
outer loop
vertex 633.017572322747 -441.687971511792 582.5034833314
vertex 632.817771477737 -438.687971511792 582.985845241195
vertex 633.017572322747 -438.687971511792 582.5034833314
endloop
endfacet
facet normal -0.70710678118651 0.0 0.707106781186585
outer loop
vertex 632.499934232542 -441.687971511792 600.588726920011
vertex 632.085720670168 -438.687971511792 600.270889674815
vertex 632.085720670168 -441.687971511792 600.270889674815
endloop
endfacet
facet normal -0.50000000000002 0.0 0.866025403784427
outer loop
vertex 632.085720670168 -438.687971511792 600.270889674815
vertex 632.499934232542 -441.687971511792 600.588726920011
vertex 632.499934232542 -438.687971511792 600.588726920011
endloop
endfacet
facet normal 0.50000000000002 0.0 -0.866025403784427
outer loop
vertex 630.085720670169 -438.687971511792 603.734991289953
vertex 629.671507107795 -441.687971511792 603.417154044757
vertex 629.671507107795 -438.687971511792 603.417154044757
endloop
endfacet
facet normal 0.70710678118651 0.0 -0.707106781186585
outer loop
vertex 629.671507107795 -441.687971511792 603.417154044757
vertex 630.085720670169 -438.687971511792 603.734991289953
vertex 630.085720670169 -441.687971511792 603.734991289953
endloop
endfacet
facet normal 0.0 0.0 -1.0
outer loop
vertex 621.088574842249 -440.187971511792 592.020035723572
vertex 601.088574842249 -441.702471511792 592.020035723572
vertex 601.088574842249 -440.187971511792 592.020035723572
endloop
endfacet
facet normal 0.0 0.0 -1.0
outer loop
vertex 601.088574842249 -441.702471511792 592.020035723572
vertex 621.088574842249 -440.187971511792 592.020035723572
vertex 621.088574842249 -441.702471511792 592.020035723572
endloop
endfacet
facet normal -1.0 0.0 0.0
outer loop
vertex 633.085720670168 -438.687971511792 602.002940482384
vertex 633.017572322747 -441.687971511792 601.485302392179
vertex 633.085720670168 -441.687971511792 602.002940482384
endloop
endfacet
facet normal -0.96592582628907 0.0 0.258819045102515
outer loop
vertex 633.017572322747 -441.687971511792 601.485302392179
vertex 633.085720670168 -438.687971511792 602.002940482384
vertex 633.017572322747 -438.687971511792 601.485302392179
endloop
endfacet
facet normal 0.0 0.0 -1.0
outer loop
vertex 623.047806980466 -438.687971511792 571.985845241195
vertex 621.088574842249 -441.687971511792 571.985845241195
vertex 621.088574842249 -440.187971511792 571.985845241195
endloop
endfacet
facet normal 0.0 0.0 -1.0
outer loop
vertex 621.088574842249 -441.687971511792 571.985845241195
vertex 623.047806980466 -438.687971511792 571.985845241195
vertex 641.054384359871 -441.687971511792 571.985845241195
endloop
endfacet
facet normal 0.0 0.0 -1.0
outer loop
vertex 641.054384359871 -441.687971511792 571.985845241195
vertex 623.047806980466 -438.687971511792 571.985845241195
vertex 639.123634359871 -438.687971511792 571.985845241195
endloop
endfacet
facet normal 0.0 0.0 -1.0
outer loop
vertex 641.054384359871 -441.687971511792 571.985845241195
vertex 639.123634359871 -438.687971511792 571.985845241195
vertex 641.054384359871 -440.187971511792 571.985845241195
endloop
endfacet
facet normal -0.600000000000006 0.799999999999996 -1.22564656668501e-29
outer loop
vertex 601.088574842249 -440.187971511792 611.985845241195
vertex 603.088574842249 -438.687971511792 592.020035723572
vertex 601.088574842249 -440.187971511792 592.020035723572
endloop
endfacet
facet normal -0.600000000000006 0.799999999999996 -1.22564656668501e-29
outer loop
vertex 603.088574842249 -438.687971511792 592.020035723572
vertex 601.088574842249 -440.187971511792 611.985845241195
vertex 603.088574842249 -438.687971511792 611.985845241195
endloop
endfacet
facet normal -0.258819045102547 0.0 0.965925826289061
outer loop
vertex 631.603358760374 -441.687971511792 600.071088829805
vertex 631.085720670168 -438.687971511792 600.002940482384
vertex 631.085720670168 -441.687971511792 600.002940482384
endloop
endfacet
facet normal 0.0 0.0 1.0
outer loop
vertex 631.085720670168 -438.687971511792 600.002940482384
vertex 631.603358760374 -441.687971511792 600.071088829805
vertex 631.603358760374 -438.687971511792 600.071088829805
endloop
endfacet
facet normal 0.707106781186585 0.0 0.70710678118651
outer loop
vertex 629.671507107795 -438.687971511792 600.588726920011
vertex 629.3536698626 -441.687971511792 601.002940482384
vertex 629.671507107795 -441.687971511792 600.588726920011
endloop
endfacet
facet normal 0.866025403784427 0.0 0.50000000000002
outer loop
vertex 629.3536698626 -441.687971511792 601.002940482384
vertex 629.671507107795 -438.687971511792 600.588726920011
vertex 629.3536698626 -438.687971511792 601.002940482384
endloop
endfacet
facet normal 0.866025403784427 0.0 0.50000000000002
outer loop
vertex 629.3536698626 -438.687971511792 601.002940482384
vertex 629.15386901759 -441.687971511792 601.485302392179
vertex 629.3536698626 -441.687971511792 601.002940482384
endloop
endfacet
facet normal 0.965925826289061 0.0 0.258819045102547
outer loop
vertex 629.15386901759 -441.687971511792 601.485302392179
vertex 629.3536698626 -438.687971511792 601.002940482384
vertex 629.15386901759 -438.687971511792 601.485302392179
endloop
endfacet
facet normal -0.0 1.0 -0.0
outer loop
vertex 623.047806980466 -438.687971511792 571.985845241195
vertex 629.671507107795 -438.687971511792 580.571631678822
vertex 639.123634359871 -438.687971511792 571.985845241195
endloop
endfacet
facet normal -0.0 1.0 -0.0
outer loop
vertex 629.671507107795 -438.687971511792 580.571631678822
vertex 623.047806980466 -438.687971511792 571.985845241195
vertex 629.3536698626 -438.687971511792 580.985845241195
endloop
endfacet
facet normal -0.0 1.0 -0.0
outer loop
vertex 629.3536698626 -438.687971511792 580.985845241195
vertex 623.047806980466 -438.687971511792 571.985845241195
vertex 623.047806980466 -438.687971511792 592.020035723572
endloop
endfacet
facet normal -0.0 1.0 -0.0
outer loop
vertex 639.123634359871 -438.687971511792 571.985845241195
vertex 629.671507107795 -438.687971511792 580.571631678822
vertex 630.085720670168 -438.687971511792 580.253794433626
endloop
endfacet
facet normal -0.0 1.0 -0.0
outer loop
vertex 639.123634359871 -438.687971511792 571.985845241195
vertex 630.085720670168 -438.687971511792 580.253794433626
vertex 630.568082579964 -438.687971511792 580.053993588617
endloop
endfacet
facet normal -0.0 1.0 -0.0
outer loop
vertex 639.123634359871 -438.687971511792 571.985845241195
vertex 630.568082579964 -438.687971511792 580.053993588617
vertex 631.085720670168 -438.687971511792 579.985845241195
endloop
endfacet
facet normal -0.0 1.0 -0.0
outer loop
vertex 629.3536698626 -438.687971511792 580.985845241195
vertex 623.047806980466 -438.687971511792 592.020035723572
vertex 629.15386901759 -438.687971511792 581.46820715099
endloop
endfacet
facet normal -0.0 1.0 -0.0
outer loop
vertex 629.15386901759 -438.687971511792 581.46820715099
vertex 623.047806980466 -438.687971511792 592.020035723572
vertex 629.085720670168 -438.687971511792 581.985845241195
endloop
endfacet
facet normal -0.0 1.0 -0.0
outer loop
vertex 629.085720670168 -438.687971511792 581.985845241195
vertex 623.047806980466 -438.687971511792 592.020035723572
vertex 629.15386901759 -438.687971511792 582.5034833314
endloop
endfacet
facet normal -0.0 1.0 -0.0
outer loop
vertex 629.15386901759 -438.687971511792 582.5034833314
vertex 623.047806980466 -438.687971511792 592.020035723572
vertex 629.3536698626 -438.687971511792 582.985845241195
endloop
endfacet
facet normal -0.0 1.0 -0.0
outer loop
vertex 629.3536698626 -438.687971511792 582.985845241195
vertex 623.047806980466 -438.687971511792 592.020035723572
vertex 629.671507107795 -438.687971511792 583.400058803568
endloop
endfacet
facet normal -0.0 1.0 -0.0
outer loop
vertex 629.671507107795 -438.687971511792 583.400058803568
vertex 623.047806980466 -438.687971511792 592.020035723572
vertex 630.085720670169 -438.687971511792 583.717896048764
endloop
endfacet
facet normal -0.0 1.0 -0.0
outer loop
vertex 630.085720670169 -438.687971511792 583.717896048764
vertex 623.047806980466 -438.687971511792 592.020035723572
vertex 630.568082579964 -438.687971511792 583.917696893773
endloop
endfacet
facet normal -0.0 1.0 -0.0
outer loop
vertex 630.568082579964 -438.687971511792 583.917696893773
vertex 623.047806980466 -438.687971511792 592.020035723572
vertex 631.085720670168 -438.687971511792 583.985845241195
endloop
endfacet
facet normal -0.0 1.0 -0.0
outer loop
vertex 603.088574842249 -438.687971511792 592.020035723572
vertex 610.085720670168 -438.687971511792 600.270889674815
vertex 623.047806980466 -438.687971511792 592.020035723572
endloop
endfacet
facet normal -0.0 1.0 -0.0
outer loop
vertex 610.085720670168 -438.687971511792 600.270889674815
vertex 603.088574842249 -438.687971511792 592.020035723572
vertex 609.671507107795 -438.687971511792 600.588726920011
endloop
endfacet
facet normal -0.0 1.0 -0.0
outer loop
vertex 609.671507107795 -438.687971511792 600.588726920011
vertex 603.088574842249 -438.687971511792 592.020035723572
vertex 609.3536698626 -438.687971511792 601.002940482384
endloop
endfacet
facet normal -0.0 1.0 -0.0
outer loop
vertex 609.3536698626 -438.687971511792 601.002940482384
vertex 603.088574842249 -438.687971511792 592.020035723572
vertex 603.088574842249 -438.687971511792 611.985845241195
endloop
endfacet
facet normal -0.0 1.0 -0.0
outer loop
vertex 623.047806980466 -438.687971511792 592.020035723572
vertex 610.085720670168 -438.687971511792 600.270889674815
vertex 610.568082579964 -438.687971511792 600.071088829805
endloop
endfacet
facet normal -0.0 1.0 -0.0
outer loop
vertex 623.047806980466 -438.687971511792 592.020035723572
vertex 610.568082579964 -438.687971511792 600.071088829805
vertex 611.085720670169 -438.687971511792 600.002940482384
endloop
endfacet
facet normal -0.0 1.0 -0.0
outer loop
vertex 609.3536698626 -438.687971511792 601.002940482384
vertex 603.088574842249 -438.687971511792 611.985845241195
vertex 609.15386901759 -438.687971511792 601.485302392179
endloop
endfacet
facet normal -0.0 1.0 -0.0
outer loop
vertex 609.15386901759 -438.687971511792 601.485302392179
vertex 603.088574842249 -438.687971511792 611.985845241195
vertex 609.085720670169 -438.687971511792 602.002940482384
endloop
endfacet
facet normal -0.0 1.0 -0.0
outer loop
vertex 609.085720670169 -438.687971511792 602.002940482384
vertex 603.088574842249 -438.687971511792 611.985845241195
vertex 609.15386901759 -438.687971511792 602.520578572589
endloop
endfacet
facet normal -0.0 1.0 -0.0
outer loop
vertex 609.15386901759 -438.687971511792 602.520578572589
vertex 603.088574842249 -438.687971511792 611.985845241195
vertex 609.3536698626 -438.687971511792 603.002940482384
endloop
endfacet
facet normal -0.0 1.0 -0.0
outer loop
vertex 609.3536698626 -438.687971511792 603.002940482384
vertex 603.088574842249 -438.687971511792 611.985845241195
vertex 609.671507107795 -438.687971511792 603.417154044757
endloop
endfacet
facet normal -0.0 1.0 -0.0
outer loop
vertex 609.671507107795 -438.687971511792 603.417154044757
vertex 603.088574842249 -438.687971511792 611.985845241195
vertex 610.085720670169 -438.687971511792 603.734991289953
endloop
endfacet
facet normal -0.0 1.0 -0.0
outer loop
vertex 610.085720670169 -438.687971511792 603.734991289953
vertex 603.088574842249 -438.687971511792 611.985845241195
vertex 610.568082579964 -438.687971511792 603.934792134962
endloop
endfacet
facet normal -0.0 1.0 -0.0
outer loop
vertex 610.568082579964 -438.687971511792 603.934792134962
vertex 603.088574842249 -438.687971511792 611.985845241195
vertex 611.085720670169 -438.687971511792 604.002940482384
endloop
endfacet
facet normal -0.0 1.0 -0.0
outer loop
vertex 611.085720670169 -438.687971511792 604.002940482384
vertex 603.088574842249 -438.687971511792 611.985845241195
vertex 631.085720670168 -438.687971511792 604.002940482384
endloop
endfacet
facet normal -0.0 1.0 -0.0
outer loop
vertex 639.123634359871 -438.687971511792 571.985845241195
vertex 633.017572322747 -438.687971511792 581.46820715099
vertex 639.123634359871 -438.687971511792 611.985845241195
endloop
endfacet
facet normal -0.0 1.0 -0.0
outer loop
vertex 633.017572322747 -438.687971511792 581.46820715099
vertex 639.123634359871 -438.687971511792 571.985845241195
vertex 632.817771477737 -438.687971511792 580.985845241195
endloop
endfacet
facet normal -0.0 1.0 -0.0
outer loop
vertex 632.817771477737 -438.687971511792 580.985845241195
vertex 639.123634359871 -438.687971511792 571.985845241195
vertex 632.499934232542 -438.687971511792 580.571631678822
endloop
endfacet
facet normal -0.0 1.0 -0.0
outer loop
vertex 632.499934232542 -438.687971511792 580.571631678822
vertex 639.123634359871 -438.687971511792 571.985845241195
vertex 632.085720670168 -438.687971511792 580.253794433626
endloop
endfacet
facet normal -0.0 1.0 -0.0
outer loop
vertex 632.085720670168 -438.687971511792 580.253794433626
vertex 639.123634359871 -438.687971511792 571.985845241195
vertex 631.603358760374 -438.687971511792 580.053993588617
endloop
endfacet
facet normal -0.0 1.0 -0.0
outer loop
vertex 631.603358760374 -438.687971511792 580.053993588617
vertex 639.123634359871 -438.687971511792 571.985845241195
vertex 631.085720670168 -438.687971511792 579.985845241195
endloop
endfacet
facet normal -0.0 1.0 -0.0
outer loop
vertex 639.123634359871 -438.687971511792 611.985845241195
vertex 633.017572322747 -438.687971511792 581.46820715099
vertex 633.085720670168 -438.687971511792 581.985845241195
endloop
endfacet
facet normal -0.0 1.0 -0.0
outer loop
vertex 639.123634359871 -438.687971511792 611.985845241195
vertex 633.085720670168 -438.687971511792 581.985845241195
vertex 633.017572322747 -438.687971511792 582.5034833314
endloop
endfacet
facet normal -0.0 1.0 -0.0
outer loop
vertex 639.123634359871 -438.687971511792 611.985845241195
vertex 633.017572322747 -438.687971511792 582.5034833314
vertex 632.817771477737 -438.687971511792 582.985845241195
endloop
endfacet
facet normal -0.0 1.0 -0.0
outer loop
vertex 639.123634359871 -438.687971511792 611.985845241195
vertex 632.817771477737 -438.687971511792 582.985845241195
vertex 632.499934232542 -438.687971511792 583.400058803568
endloop
endfacet
facet normal -0.0 1.0 -0.0
outer loop
vertex 639.123634359871 -438.687971511792 611.985845241195
vertex 632.499934232542 -438.687971511792 583.400058803568
vertex 632.085720670169 -438.687971511792 583.717896048764
endloop
endfacet
facet normal -0.0 1.0 -0.0
outer loop
vertex 639.123634359871 -438.687971511792 611.985845241195
vertex 632.085720670169 -438.687971511792 583.717896048764
vertex 631.603358760374 -438.687971511792 583.917696893773
endloop
endfacet
facet normal -0.0 1.0 -0.0
outer loop
vertex 639.123634359871 -438.687971511792 611.985845241195
vertex 631.603358760374 -438.687971511792 583.917696893773
vertex 631.085720670168 -438.687971511792 583.985845241195
endloop
endfacet
facet normal -0.0 1.0 -0.0
outer loop
vertex 639.123634359871 -438.687971511792 611.985845241195
vertex 631.085720670168 -438.687971511792 583.985845241195
vertex 632.817771477737 -438.687971511792 601.002940482384
endloop
endfacet
facet normal -0.0 1.0 -0.0
outer loop
vertex 632.817771477737 -438.687971511792 601.002940482384
vertex 631.085720670168 -438.687971511792 583.985845241195
vertex 632.499934232542 -438.687971511792 600.588726920011
endloop
endfacet
facet normal -0.0 1.0 -0.0
outer loop
vertex 632.499934232542 -438.687971511792 600.588726920011
vertex 631.085720670168 -438.687971511792 583.985845241195
vertex 623.047806980466 -438.687971511792 592.020035723572
endloop
endfacet
facet normal -0.0 1.0 -0.0
outer loop
vertex 632.499934232542 -438.687971511792 600.588726920011
vertex 623.047806980466 -438.687971511792 592.020035723572
vertex 632.085720670168 -438.687971511792 600.270889674815
endloop
endfacet
facet normal -0.0 1.0 -0.0
outer loop
vertex 632.085720670168 -438.687971511792 600.270889674815
vertex 623.047806980466 -438.687971511792 592.020035723572
vertex 631.603358760374 -438.687971511792 600.071088829805
endloop
endfacet
facet normal -0.0 1.0 -0.0
outer loop
vertex 631.603358760374 -438.687971511792 600.071088829805
vertex 623.047806980466 -438.687971511792 592.020035723572
vertex 631.085720670168 -438.687971511792 600.002940482384
endloop
endfacet
facet normal -0.0 1.0 -0.0
outer loop
vertex 631.085720670168 -438.687971511792 600.002940482384
vertex 623.047806980466 -438.687971511792 592.020035723572
vertex 611.085720670169 -438.687971511792 600.002940482384
endloop
endfacet
facet normal -0.0 1.0 -0.0
outer loop
vertex 639.123634359871 -438.687971511792 611.985845241195
vertex 632.817771477737 -438.687971511792 601.002940482384
vertex 633.017572322747 -438.687971511792 601.485302392179
endloop
endfacet
facet normal -0.0 1.0 -0.0
outer loop
vertex 639.123634359871 -438.687971511792 611.985845241195
vertex 633.017572322747 -438.687971511792 601.485302392179
vertex 633.085720670168 -438.687971511792 602.002940482384
endloop
endfacet
facet normal -0.0 1.0 -0.0
outer loop
vertex 639.123634359871 -438.687971511792 611.985845241195
vertex 633.085720670168 -438.687971511792 602.002940482384
vertex 633.017572322747 -438.687971511792 602.520578572589
endloop
endfacet
facet normal -0.0 1.0 -0.0
outer loop
vertex 639.123634359871 -438.687971511792 611.985845241195
vertex 633.017572322747 -438.687971511792 602.520578572589
vertex 632.817771477737 -438.687971511792 603.002940482384
endloop
endfacet
facet normal -0.0 1.0 -0.0
outer loop
vertex 639.123634359871 -438.687971511792 611.985845241195
vertex 632.817771477737 -438.687971511792 603.002940482384
vertex 632.499934232542 -438.687971511792 603.417154044757
endloop
endfacet
facet normal -0.0 1.0 -0.0
outer loop
vertex 639.123634359871 -438.687971511792 611.985845241195
vertex 632.499934232542 -438.687971511792 603.417154044757
vertex 632.085720670169 -438.687971511792 603.734991289953
endloop
endfacet
facet normal -0.0 1.0 -0.0
outer loop
vertex 639.123634359871 -438.687971511792 611.985845241195
vertex 632.085720670169 -438.687971511792 603.734991289953
vertex 631.603358760374 -438.687971511792 603.934792134962
endloop
endfacet
facet normal -0.0 1.0 -0.0
outer loop
vertex 639.123634359871 -438.687971511792 611.985845241195
vertex 631.603358760374 -438.687971511792 603.934792134962
vertex 631.085720670168 -438.687971511792 604.002940482384
endloop
endfacet
facet normal -0.0 1.0 -0.0
outer loop
vertex 639.123634359871 -438.687971511792 611.985845241195
vertex 631.085720670168 -438.687971511792 604.002940482384
vertex 603.088574842249 -438.687971511792 611.985845241195
endloop
endfacet
facet normal -0.0 1.0 -0.0
outer loop
vertex 611.603358760374 -438.687971511792 600.071088829805
vertex 631.085720670168 -438.687971511792 600.002940482384
vertex 611.085720670169 -438.687971511792 600.002940482384
endloop
endfacet
facet normal -0.0 1.0 -0.0
outer loop
vertex 631.085720670168 -438.687971511792 600.002940482384
vertex 611.603358760374 -438.687971511792 600.071088829805
vertex 630.568082579964 -438.687971511792 600.071088829805
endloop
endfacet
facet normal -0.0 1.0 -0.0
outer loop
vertex 630.568082579964 -438.687971511792 600.071088829805
vertex 611.603358760374 -438.687971511792 600.071088829805
vertex 612.085720670168 -438.687971511792 600.270889674815
endloop
endfacet
facet normal -0.0 1.0 -0.0
outer loop
vertex 630.568082579964 -438.687971511792 600.071088829805
vertex 612.085720670168 -438.687971511792 600.270889674815
vertex 630.085720670168 -438.687971511792 600.270889674815
endloop
endfacet
facet normal -0.0 1.0 -0.0
outer loop
vertex 630.085720670168 -438.687971511792 600.270889674815
vertex 612.085720670168 -438.687971511792 600.270889674815
vertex 612.499934232542 -438.687971511792 600.588726920011
endloop
endfacet
facet normal -0.0 1.0 -0.0
outer loop
vertex 630.085720670168 -438.687971511792 600.270889674815
vertex 612.499934232542 -438.687971511792 600.588726920011
vertex 629.671507107795 -438.687971511792 600.588726920011
endloop
endfacet
facet normal -0.0 1.0 -0.0
outer loop
vertex 629.671507107795 -438.687971511792 600.588726920011
vertex 612.499934232542 -438.687971511792 600.588726920011
vertex 612.817771477737 -438.687971511792 601.002940482384
endloop
endfacet
facet normal -0.0 1.0 -0.0
outer loop
vertex 629.671507107795 -438.687971511792 600.588726920011
vertex 612.817771477737 -438.687971511792 601.002940482384
vertex 629.3536698626 -438.687971511792 601.002940482384
endloop
endfacet
facet normal -0.0 1.0 -0.0
outer loop
vertex 629.3536698626 -438.687971511792 601.002940482384
vertex 612.817771477737 -438.687971511792 601.002940482384
vertex 613.017572322747 -438.687971511792 601.485302392179
endloop
endfacet
facet normal -0.0 1.0 -0.0
outer loop
vertex 629.3536698626 -438.687971511792 601.002940482384
vertex 613.017572322747 -438.687971511792 601.485302392179
vertex 629.15386901759 -438.687971511792 601.485302392179
endloop
endfacet
facet normal -0.0 1.0 -0.0
outer loop
vertex 629.15386901759 -438.687971511792 601.485302392179
vertex 613.017572322747 -438.687971511792 601.485302392179
vertex 613.085720670169 -438.687971511792 602.002940482384
endloop
endfacet
facet normal -0.0 1.0 -0.0
outer loop
vertex 629.15386901759 -438.687971511792 601.485302392179
vertex 613.085720670169 -438.687971511792 602.002940482384
vertex 629.085720670168 -438.687971511792 602.002940482384
endloop
endfacet
facet normal -0.0 1.0 -0.0
outer loop
vertex 629.085720670168 -438.687971511792 602.002940482384
vertex 613.085720670169 -438.687971511792 602.002940482384
vertex 613.017572322747 -438.687971511792 602.520578572589
endloop
endfacet
facet normal -0.0 1.0 -0.0
outer loop
vertex 629.085720670168 -438.687971511792 602.002940482384
vertex 613.017572322747 -438.687971511792 602.520578572589
vertex 629.15386901759 -438.687971511792 602.520578572589
endloop
endfacet
facet normal -0.0 1.0 -0.0
outer loop
vertex 629.15386901759 -438.687971511792 602.520578572589
vertex 613.017572322747 -438.687971511792 602.520578572589
vertex 612.817771477737 -438.687971511792 603.002940482384
endloop
endfacet
facet normal -0.0 1.0 -0.0
outer loop
vertex 629.15386901759 -438.687971511792 602.520578572589
vertex 612.817771477737 -438.687971511792 603.002940482384
vertex 629.3536698626 -438.687971511792 603.002940482384
endloop
endfacet
facet normal -0.0 1.0 -0.0
outer loop
vertex 629.3536698626 -438.687971511792 603.002940482384
vertex 612.817771477737 -438.687971511792 603.002940482384
vertex 612.499934232542 -438.687971511792 603.417154044757
endloop
endfacet
facet normal -0.0 1.0 -0.0
outer loop
vertex 629.3536698626 -438.687971511792 603.002940482384
vertex 612.499934232542 -438.687971511792 603.417154044757
vertex 629.671507107795 -438.687971511792 603.417154044757
endloop
endfacet
facet normal -0.0 1.0 -0.0
outer loop
vertex 629.671507107795 -438.687971511792 603.417154044757
vertex 612.499934232542 -438.687971511792 603.417154044757
vertex 612.085720670169 -438.687971511792 603.734991289953
endloop
endfacet
facet normal -0.0 1.0 -0.0
outer loop
vertex 629.671507107795 -438.687971511792 603.417154044757
vertex 612.085720670169 -438.687971511792 603.734991289953
vertex 630.085720670169 -438.687971511792 603.734991289953
endloop
endfacet
facet normal -0.0 1.0 -0.0
outer loop
vertex 630.085720670169 -438.687971511792 603.734991289953
vertex 612.085720670169 -438.687971511792 603.734991289953
vertex 611.603358760374 -438.687971511792 603.934792134962
endloop
endfacet
facet normal -0.0 1.0 -0.0
outer loop
vertex 630.085720670169 -438.687971511792 603.734991289953
vertex 611.603358760374 -438.687971511792 603.934792134962
vertex 630.568082579964 -438.687971511792 603.934792134962
endloop
endfacet
facet normal -0.0 1.0 -0.0
outer loop
vertex 630.568082579964 -438.687971511792 603.934792134962
vertex 611.603358760374 -438.687971511792 603.934792134962
vertex 611.085720670169 -438.687971511792 604.002940482384
endloop
endfacet
facet normal -0.0 1.0 -0.0
outer loop
vertex 630.568082579964 -438.687971511792 603.934792134962
vertex 611.085720670169 -438.687971511792 604.002940482384
vertex 631.085720670168 -438.687971511792 604.002940482384
endloop
endfacet
facet normal 0.0 -1.0 0.0
outer loop
vertex 641.054384359871 -441.687971511792 571.985845241195
vertex 632.085720670168 -441.687971511792 580.253794433626
vertex 621.088574842249 -441.687971511792 571.985845241195
endloop
endfacet
facet normal 0.0 -1.0 0.0
outer loop
vertex 632.085720670168 -441.687971511792 580.253794433626
vertex 641.054384359871 -441.687971511792 571.985845241195
vertex 632.499934232542 -441.687971511792 580.571631678822
endloop
endfacet
facet normal 0.0 -1.0 0.0
outer loop
vertex 632.499934232542 -441.687971511792 580.571631678822
vertex 641.054384359871 -441.687971511792 571.985845241195
vertex 632.817771477737 -441.687971511792 580.985845241195
endloop
endfacet
facet normal 0.0 -1.0 0.0
outer loop
vertex 632.817771477737 -441.687971511792 580.985845241195
vertex 641.054384359871 -441.687971511792 571.985845241195
vertex 633.017572322747 -441.687971511792 581.46820715099
endloop
endfacet
facet normal 0.0 -1.0 0.0
outer loop
vertex 633.017572322747 -441.687971511792 581.46820715099
vertex 641.054384359871 -441.687971511792 571.985845241195
vertex 641.054384359871 -441.687971511792 611.985845241195
endloop
endfacet
facet normal 0.0 -1.0 0.0
outer loop
vertex 621.088574842249 -441.687971511792 571.985845241195
vertex 632.085720670168 -441.687971511792 580.253794433626
vertex 631.603358760374 -441.687971511792 580.053993588617
endloop
endfacet
facet normal 0.0 -1.0 0.0
outer loop
vertex 621.088574842249 -441.687971511792 571.985845241195
vertex 631.603358760374 -441.687971511792 580.053993588617
vertex 631.085720670168 -441.687971511792 579.985845241195
endloop
endfacet
facet normal 0.0 -1.0 0.0
outer loop
vertex 633.017572322747 -441.687971511792 581.46820715099
vertex 641.054384359871 -441.687971511792 611.985845241195
vertex 633.085720670168 -441.687971511792 581.985845241195
endloop
endfacet
facet normal 0.0 -1.0 0.0
outer loop
vertex 633.085720670168 -441.687971511792 581.985845241195
vertex 641.054384359871 -441.687971511792 611.985845241195
vertex 633.017572322747 -441.687971511792 582.5034833314
endloop
endfacet
facet normal 0.0 -1.0 0.0
outer loop
vertex 633.017572322747 -441.687971511792 582.5034833314
vertex 641.054384359871 -441.687971511792 611.985845241195
vertex 632.817771477737 -441.687971511792 582.985845241195
endloop
endfacet
facet normal 0.0 -1.0 0.0
outer loop
vertex 632.817771477737 -441.687971511792 582.985845241195
vertex 641.054384359871 -441.687971511792 611.985845241195
vertex 632.499934232542 -441.687971511792 583.400058803568
endloop
endfacet
facet normal 0.0 -1.0 0.0
outer loop
vertex 632.499934232542 -441.687971511792 583.400058803568
vertex 641.054384359871 -441.687971511792 611.985845241195
vertex 632.085720670169 -441.687971511792 583.717896048764
endloop
endfacet
facet normal 0.0 -1.0 0.0
outer loop
vertex 632.085720670169 -441.687971511792 583.717896048764
vertex 641.054384359871 -441.687971511792 611.985845241195
vertex 631.603358760374 -441.687971511792 583.917696893773
endloop
endfacet
facet normal 0.0 -1.0 0.0
outer loop
vertex 631.603358760374 -441.687971511792 583.917696893773
vertex 641.054384359871 -441.687971511792 611.985845241195
vertex 631.085720670168 -441.687971511792 583.985845241195
endloop
endfacet
facet normal 0.0 -1.0 0.0
outer loop
vertex 631.085720670168 -441.687971511792 583.985845241195
vertex 641.054384359871 -441.687971511792 611.985845241195
vertex 632.817771477737 -441.687971511792 601.002940482384
endloop
endfacet
facet normal 0.0 -1.0 0.0
outer loop
vertex 631.085720670168 -441.687971511792 583.985845241195
vertex 632.817771477737 -441.687971511792 601.002940482384
vertex 632.499934232542 -441.687971511792 600.588726920011
endloop
endfacet
facet normal 0.0 -1.0 0.0
outer loop
vertex 631.085720670168 -441.687971511792 583.985845241195
vertex 632.499934232542 -441.687971511792 600.588726920011
vertex 632.085720670168 -441.687971511792 600.270889674815
endloop
endfacet
facet normal 0.0 -1.0 0.0
outer loop
vertex 631.085720670168 -441.687971511792 583.985845241195
vertex 632.085720670168 -441.687971511792 600.270889674815
vertex 621.088574842249 -441.702471511792 592.020035723572
endloop
endfacet
facet normal 0.0 -1.0 0.0
outer loop
vertex 621.088574842249 -441.702471511792 592.020035723572
vertex 632.085720670168 -441.687971511792 600.270889674815
vertex 631.603358760374 -441.687971511792 600.071088829805
endloop
endfacet
facet normal 0.0 -1.0 0.0
outer loop
vertex 621.088574842249 -441.702471511792 592.020035723572
vertex 631.603358760374 -441.687971511792 600.071088829805
vertex 601.088574842249 -441.702471511792 592.020035723572
endloop
endfacet
facet normal 0.0 -1.0 0.0
outer loop
vertex 601.088574842249 -441.702471511792 592.020035723572
vertex 631.603358760374 -441.687971511792 600.071088829805
vertex 631.085720670168 -441.687971511792 600.002940482384
endloop
endfacet
facet normal 0.0 -1.0 0.0
outer loop
vertex 632.817771477737 -441.687971511792 601.002940482384
vertex 641.054384359871 -441.687971511792 611.985845241195
vertex 633.017572322747 -441.687971511792 601.485302392179
endloop
endfacet
facet normal 0.0 -1.0 0.0
outer loop
vertex 633.017572322747 -441.687971511792 601.485302392179
vertex 641.054384359871 -441.687971511792 611.985845241195
vertex 633.085720670168 -441.687971511792 602.002940482384
endloop
endfacet
facet normal 0.0 -1.0 0.0
outer loop
vertex 633.085720670168 -441.687971511792 602.002940482384
vertex 641.054384359871 -441.687971511792 611.985845241195
vertex 633.017572322747 -441.687971511792 602.520578572589
endloop
endfacet
facet normal 0.0 -1.0 0.0
outer loop
vertex 633.017572322747 -441.687971511792 602.520578572589
vertex 641.054384359871 -441.687971511792 611.985845241195
vertex 632.817771477737 -441.687971511792 603.002940482384
endloop
endfacet
facet normal 0.0 -1.0 0.0
outer loop
vertex 632.817771477737 -441.687971511792 603.002940482384
vertex 641.054384359871 -441.687971511792 611.985845241195
vertex 632.499934232542 -441.687971511792 603.417154044757
endloop
endfacet
facet normal 0.0 -1.0 0.0
outer loop
vertex 632.499934232542 -441.687971511792 603.417154044757
vertex 641.054384359871 -441.687971511792 611.985845241195
vertex 632.085720670169 -441.687971511792 603.734991289953
endloop
endfacet
facet normal 0.0 -1.0 0.0
outer loop
vertex 632.085720670169 -441.687971511792 603.734991289953
vertex 641.054384359871 -441.687971511792 611.985845241195
vertex 631.603358760374 -441.687971511792 603.934792134962
endloop
endfacet
facet normal 0.0 -1.0 0.0
outer loop
vertex 631.603358760374 -441.687971511792 603.934792134962
vertex 641.054384359871 -441.687971511792 611.985845241195
vertex 631.085720670168 -441.687971511792 604.002940482384
endloop
endfacet
facet normal 0.0 -1.0 0.0
outer loop
vertex 631.085720670168 -441.687971511792 604.002940482384
vertex 641.054384359871 -441.687971511792 611.985845241195
vertex 611.085720670169 -441.687971511792 604.002940482384
endloop
endfacet
facet normal 0.0 -1.0 0.0
outer loop
vertex 601.088574842249 -441.702471511792 592.020035723572
vertex 609.3536698626 -441.687971511792 601.002940482384
vertex 601.088574842249 -441.687971511792 611.985845241195
endloop
endfacet
facet normal 0.0 -1.0 0.0
outer loop
vertex 609.3536698626 -441.687971511792 601.002940482384
vertex 601.088574842249 -441.702471511792 592.020035723572
vertex 609.671507107795 -441.687971511792 600.588726920011
endloop
endfacet
facet normal 0.0 -1.0 0.0
outer loop
vertex 609.671507107795 -441.687971511792 600.588726920011
vertex 601.088574842249 -441.702471511792 592.020035723572
vertex 610.085720670168 -441.687971511792 600.270889674815
endloop
endfacet
facet normal 0.0 -1.0 0.0
outer loop
vertex 610.085720670168 -441.687971511792 600.270889674815
vertex 601.088574842249 -441.702471511792 592.020035723572
vertex 610.568082579964 -441.687971511792 600.071088829805
endloop
endfacet
facet normal 0.0 -1.0 0.0
outer loop
vertex 610.568082579964 -441.687971511792 600.071088829805
vertex 601.088574842249 -441.702471511792 592.020035723572
vertex 611.085720670169 -441.687971511792 600.002940482384
endloop
endfacet
facet normal 0.0 -1.0 0.0
outer loop
vertex 611.085720670169 -441.687971511792 600.002940482384
vertex 601.088574842249 -441.702471511792 592.020035723572
vertex 631.085720670168 -441.687971511792 600.002940482384
endloop
endfacet
facet normal 0.0 -1.0 0.0
outer loop
vertex 601.088574842249 -441.687971511792 611.985845241195
vertex 609.3536698626 -441.687971511792 601.002940482384
vertex 609.15386901759 -441.687971511792 601.485302392179
endloop
endfacet
facet normal 0.0 -1.0 0.0
outer loop
vertex 601.088574842249 -441.687971511792 611.985845241195
vertex 609.15386901759 -441.687971511792 601.485302392179
vertex 609.085720670169 -441.687971511792 602.002940482384
endloop
endfacet
facet normal 0.0 -1.0 0.0
outer loop
vertex 601.088574842249 -441.687971511792 611.985845241195
vertex 609.085720670169 -441.687971511792 602.002940482384
vertex 609.15386901759 -441.687971511792 602.520578572589
endloop
endfacet
facet normal 0.0 -1.0 0.0
outer loop
vertex 601.088574842249 -441.687971511792 611.985845241195
vertex 609.15386901759 -441.687971511792 602.520578572589
vertex 609.3536698626 -441.687971511792 603.002940482384
endloop
endfacet
facet normal 0.0 -1.0 0.0
outer loop
vertex 601.088574842249 -441.687971511792 611.985845241195
vertex 609.3536698626 -441.687971511792 603.002940482384
vertex 609.671507107795 -441.687971511792 603.417154044757
endloop
endfacet
facet normal 0.0 -1.0 0.0
outer loop
vertex 601.088574842249 -441.687971511792 611.985845241195
vertex 609.671507107795 -441.687971511792 603.417154044757
vertex 610.085720670169 -441.687971511792 603.734991289953
endloop
endfacet
facet normal 0.0 -1.0 0.0
outer loop
vertex 601.088574842249 -441.687971511792 611.985845241195
vertex 610.085720670169 -441.687971511792 603.734991289953
vertex 610.568082579964 -441.687971511792 603.934792134962
endloop
endfacet
facet normal 0.0 -1.0 0.0
outer loop
vertex 601.088574842249 -441.687971511792 611.985845241195
vertex 610.568082579964 -441.687971511792 603.934792134962
vertex 611.085720670169 -441.687971511792 604.002940482384
endloop
endfacet
facet normal 0.0 -1.0 0.0
outer loop
vertex 601.088574842249 -441.687971511792 611.985845241195
vertex 611.085720670169 -441.687971511792 604.002940482384
vertex 641.054384359871 -441.687971511792 611.985845241195
endloop
endfacet
facet normal 0.0 -1.0 0.0
outer loop
vertex 630.568082579964 -441.687971511792 600.071088829805
vertex 611.085720670169 -441.687971511792 600.002940482384
vertex 631.085720670168 -441.687971511792 600.002940482384
endloop
endfacet
facet normal 0.0 -1.0 0.0
outer loop
vertex 611.085720670169 -441.687971511792 600.002940482384
vertex 630.568082579964 -441.687971511792 600.071088829805
vertex 611.603358760374 -441.687971511792 600.071088829805
endloop
endfacet
facet normal 0.0 -1.0 0.0
outer loop
vertex 611.603358760374 -441.687971511792 600.071088829805
vertex 630.568082579964 -441.687971511792 600.071088829805
vertex 630.085720670168 -441.687971511792 600.270889674815
endloop
endfacet
facet normal 0.0 -1.0 0.0
outer loop
vertex 611.603358760374 -441.687971511792 600.071088829805
vertex 630.085720670168 -441.687971511792 600.270889674815
vertex 612.085720670168 -441.687971511792 600.270889674815
endloop
endfacet
facet normal 0.0 -1.0 0.0
outer loop
vertex 612.085720670168 -441.687971511792 600.270889674815
vertex 630.085720670168 -441.687971511792 600.270889674815
vertex 629.671507107795 -441.687971511792 600.588726920011
endloop
endfacet
facet normal 0.0 -1.0 0.0
outer loop
vertex 612.085720670168 -441.687971511792 600.270889674815
vertex 629.671507107795 -441.687971511792 600.588726920011
vertex 612.499934232542 -441.687971511792 600.588726920011
endloop
endfacet
facet normal 0.0 -1.0 0.0
outer loop
vertex 612.499934232542 -441.687971511792 600.588726920011
vertex 629.671507107795 -441.687971511792 600.588726920011
vertex 629.3536698626 -441.687971511792 601.002940482384
endloop
endfacet
facet normal 0.0 -1.0 0.0
outer loop
vertex 612.499934232542 -441.687971511792 600.588726920011
vertex 629.3536698626 -441.687971511792 601.002940482384
vertex 612.817771477737 -441.687971511792 601.002940482384
endloop
endfacet
facet normal 0.0 -1.0 0.0
outer loop
vertex 612.817771477737 -441.687971511792 601.002940482384
vertex 629.3536698626 -441.687971511792 601.002940482384
vertex 613.017572322747 -441.687971511792 601.485302392179
endloop
endfacet
facet normal 0.0 -1.0 0.0
outer loop
vertex 613.017572322747 -441.687971511792 601.485302392179
vertex 629.3536698626 -441.687971511792 601.002940482384
vertex 629.15386901759 -441.687971511792 601.485302392179
endloop
endfacet
facet normal 0.0 -1.0 0.0
outer loop
vertex 613.017572322747 -441.687971511792 601.485302392179
vertex 629.15386901759 -441.687971511792 601.485302392179
vertex 629.085720670168 -441.687971511792 602.002940482384
endloop
endfacet
facet normal 0.0 -1.0 0.0
outer loop
vertex 613.017572322747 -441.687971511792 601.485302392179
vertex 629.085720670168 -441.687971511792 602.002940482384
vertex 613.085720670169 -441.687971511792 602.002940482384
endloop
endfacet
facet normal 0.0 -1.0 0.0
outer loop
vertex 613.085720670169 -441.687971511792 602.002940482384
vertex 629.085720670168 -441.687971511792 602.002940482384
vertex 629.15386901759 -441.687971511792 602.520578572589
endloop
endfacet
facet normal 0.0 -1.0 0.0
outer loop
vertex 613.085720670169 -441.687971511792 602.002940482384
vertex 629.15386901759 -441.687971511792 602.520578572589
vertex 613.017572322747 -441.687971511792 602.520578572589
endloop
endfacet
facet normal 0.0 -1.0 0.0
outer loop
vertex 613.017572322747 -441.687971511792 602.520578572589
vertex 629.15386901759 -441.687971511792 602.520578572589
vertex 629.3536698626 -441.687971511792 603.002940482384
endloop
endfacet
facet normal 0.0 -1.0 0.0
outer loop
vertex 613.017572322747 -441.687971511792 602.520578572589
vertex 629.3536698626 -441.687971511792 603.002940482384
vertex 612.817771477737 -441.687971511792 603.002940482384
endloop
endfacet
facet normal 0.0 -1.0 0.0
outer loop
vertex 612.817771477737 -441.687971511792 603.002940482384
vertex 629.3536698626 -441.687971511792 603.002940482384
vertex 612.499934232542 -441.687971511792 603.417154044757
endloop
endfacet
facet normal 0.0 -1.0 0.0
outer loop
vertex 612.499934232542 -441.687971511792 603.417154044757
vertex 629.3536698626 -441.687971511792 603.002940482384
vertex 629.671507107795 -441.687971511792 603.417154044757
endloop
endfacet
facet normal 0.0 -1.0 0.0
outer loop
vertex 612.499934232542 -441.687971511792 603.417154044757
vertex 629.671507107795 -441.687971511792 603.417154044757
vertex 630.085720670169 -441.687971511792 603.734991289953
endloop
endfacet
facet normal 0.0 -1.0 0.0
outer loop
vertex 612.499934232542 -441.687971511792 603.417154044757
vertex 630.085720670169 -441.687971511792 603.734991289953
vertex 612.085720670169 -441.687971511792 603.734991289953
endloop
endfacet
facet normal 0.0 -1.0 0.0
outer loop
vertex 612.085720670169 -441.687971511792 603.734991289953
vertex 630.085720670169 -441.687971511792 603.734991289953
vertex 630.568082579964 -441.687971511792 603.934792134962
endloop
endfacet
facet normal 0.0 -1.0 0.0
outer loop
vertex 612.085720670169 -441.687971511792 603.734991289953
vertex 630.568082579964 -441.687971511792 603.934792134962
vertex 611.603358760374 -441.687971511792 603.934792134962
endloop
endfacet
facet normal 0.0 -1.0 0.0
outer loop
vertex 611.603358760374 -441.687971511792 603.934792134962
vertex 630.568082579964 -441.687971511792 603.934792134962
vertex 631.085720670168 -441.687971511792 604.002940482384
endloop
endfacet
facet normal 0.0 -1.0 0.0
outer loop
vertex 611.603358760374 -441.687971511792 603.934792134962
vertex 631.085720670168 -441.687971511792 604.002940482384
vertex 611.085720670169 -441.687971511792 604.002940482384
endloop
endfacet
facet normal 0.0 -1.0 0.0
outer loop
vertex 621.088574842249 -441.687971511792 571.985845241195
vertex 629.3536698626 -441.687971511792 580.985845241195
vertex 621.088574842249 -441.702471511792 592.020035723572
endloop
endfacet
facet normal 0.0 -1.0 0.0
outer loop
vertex 629.3536698626 -441.687971511792 580.985845241195
vertex 621.088574842249 -441.687971511792 571.985845241195
vertex 629.671507107795 -441.687971511792 580.571631678822
endloop
endfacet
facet normal 0.0 -1.0 0.0
outer loop
vertex 629.671507107795 -441.687971511792 580.571631678822
vertex 621.088574842249 -441.687971511792 571.985845241195
vertex 630.085720670168 -441.687971511792 580.253794433626
endloop
endfacet
facet normal 0.0 -1.0 0.0
outer loop
vertex 630.085720670168 -441.687971511792 580.253794433626
vertex 621.088574842249 -441.687971511792 571.985845241195
vertex 630.568082579964 -441.687971511792 580.053993588617
endloop
endfacet
facet normal 0.0 -1.0 0.0
outer loop
vertex 630.568082579964 -441.687971511792 580.053993588617
vertex 621.088574842249 -441.687971511792 571.985845241195
vertex 631.085720670168 -441.687971511792 579.985845241195
endloop
endfacet
facet normal 0.0 -1.0 0.0
outer loop
vertex 621.088574842249 -441.702471511792 592.020035723572
vertex 629.3536698626 -441.687971511792 580.985845241195
vertex 629.15386901759 -441.687971511792 581.46820715099
endloop
endfacet
facet normal 0.0 -1.0 0.0
outer loop
vertex 621.088574842249 -441.702471511792 592.020035723572
vertex 629.15386901759 -441.687971511792 581.46820715099
vertex 629.085720670168 -441.687971511792 581.985845241195
endloop
endfacet
facet normal 0.0 -1.0 0.0
outer loop
vertex 621.088574842249 -441.702471511792 592.020035723572
vertex 629.085720670168 -441.687971511792 581.985845241195
vertex 629.15386901759 -441.687971511792 582.5034833314
endloop
endfacet
facet normal 0.0 -1.0 0.0
outer loop
vertex 621.088574842249 -441.702471511792 592.020035723572
vertex 629.15386901759 -441.687971511792 582.5034833314
vertex 629.3536698626 -441.687971511792 582.985845241195
endloop
endfacet
facet normal 0.0 -1.0 0.0
outer loop
vertex 621.088574842249 -441.702471511792 592.020035723572
vertex 629.3536698626 -441.687971511792 582.985845241195
vertex 629.671507107795 -441.687971511792 583.400058803568
endloop
endfacet
facet normal 0.0 -1.0 0.0
outer loop
vertex 621.088574842249 -441.702471511792 592.020035723572
vertex 629.671507107795 -441.687971511792 583.400058803568
vertex 630.085720670169 -441.687971511792 583.717896048764
endloop
endfacet
facet normal 0.0 -1.0 0.0
outer loop
vertex 621.088574842249 -441.702471511792 592.020035723572
vertex 630.085720670169 -441.687971511792 583.717896048764
vertex 630.568082579964 -441.687971511792 583.917696893773
endloop
endfacet
facet normal 0.0 -1.0 0.0
outer loop
vertex 621.088574842249 -441.702471511792 592.020035723572
vertex 630.568082579964 -441.687971511792 583.917696893773
vertex 631.085720670168 -441.687971511792 583.985845241195
endloop
endfacet
facet normal -0.96592582628907 0.0 0.258819045102515
outer loop
vertex 613.017572322747 -438.687971511792 601.485302392179
vertex 612.817771477737 -441.687971511792 601.002940482384
vertex 613.017572322747 -441.687971511792 601.485302392179
endloop
endfacet
facet normal -0.866025403784418 0.0 0.500000000000037
outer loop
vertex 612.817771477737 -441.687971511792 601.002940482384
vertex 613.017572322747 -438.687971511792 601.485302392179
vertex 612.817771477737 -438.687971511792 601.002940482384
endloop
endfacet
facet normal 0.866025403784427 0.0 0.50000000000002
outer loop
vertex 609.3536698626 -438.687971511792 601.002940482384
vertex 609.15386901759 -441.687971511792 601.485302392179
vertex 609.3536698626 -441.687971511792 601.002940482384
endloop
endfacet
facet normal 0.965925826289061 0.0 0.258819045102547
outer loop
vertex 609.15386901759 -441.687971511792 601.485302392179
vertex 609.3536698626 -438.687971511792 601.002940482384
vertex 609.15386901759 -438.687971511792 601.485302392179
endloop
endfacet
facet normal 0.258819045102547 0.0 -0.965925826289061
outer loop
vertex 610.568082579964 -438.687971511792 603.934792134962
vertex 610.085720670169 -441.687971511792 603.734991289953
vertex 610.085720670169 -438.687971511792 603.734991289953
endloop
endfacet
facet normal 0.50000000000002 0.0 -0.866025403784427
outer loop
vertex 610.085720670169 -441.687971511792 603.734991289953
vertex 610.568082579964 -438.687971511792 603.934792134962
vertex 610.568082579964 -441.687971511792 603.934792134962
endloop
endfacet
facet normal 0.96592582628907 0.0 -0.258819045102515
outer loop
vertex 609.15386901759 -438.687971511792 602.520578572589
vertex 609.3536698626 -441.687971511792 603.002940482384
vertex 609.15386901759 -441.687971511792 602.520578572589
endloop
endfacet
facet normal 0.866025403784418 0.0 -0.500000000000037
outer loop
vertex 609.3536698626 -441.687971511792 603.002940482384
vertex 609.15386901759 -438.687971511792 602.520578572589
vertex 609.3536698626 -438.687971511792 603.002940482384
endloop
endfacet
facet normal -0.707106781186585 0.0 -0.70710678118651
outer loop
vertex 632.499934232542 -438.687971511792 603.417154044757
vertex 632.817771477737 -441.687971511792 603.002940482384
vertex 632.499934232542 -441.687971511792 603.417154044757
endloop
endfacet
facet normal -0.866025403784427 0.0 -0.50000000000002
outer loop
vertex 632.817771477737 -441.687971511792 603.002940482384
vertex 632.499934232542 -438.687971511792 603.417154044757
vertex 632.817771477737 -438.687971511792 603.002940482384
endloop
endfacet
facet normal -0.258819045102515 0.0 -0.96592582628907
outer loop
vertex 631.603358760374 -438.687971511792 603.934792134962
vertex 631.085720670168 -441.687971511792 604.002940482384
vertex 631.085720670168 -438.687971511792 604.002940482384
endloop
endfacet
facet normal 0.0 0.0 -1.0
outer loop
vertex 631.085720670168 -441.687971511792 604.002940482384
vertex 631.603358760374 -438.687971511792 603.934792134962
vertex 631.603358760374 -441.687971511792 603.934792134962
endloop
endfacet
facet normal -0.96592582628907 0.0 0.258819045102515
outer loop
vertex 633.017572322747 -438.687971511792 601.485302392179
vertex 632.817771477737 -441.687971511792 601.002940482384
vertex 633.017572322747 -441.687971511792 601.485302392179
endloop
endfacet
facet normal -0.866025403784418 0.0 0.500000000000037
outer loop
vertex 632.817771477737 -441.687971511792 601.002940482384
vertex 633.017572322747 -438.687971511792 601.485302392179
vertex 632.817771477737 -438.687971511792 601.002940482384
endloop
endfacet
facet normal 0.258819045102547 0.0 -0.965925826289061
outer loop
vertex 630.568082579964 -438.687971511792 603.934792134962
vertex 630.085720670169 -441.687971511792 603.734991289953
vertex 630.085720670169 -438.687971511792 603.734991289953
endloop
endfacet
facet normal 0.50000000000002 0.0 -0.866025403784427
outer loop
vertex 630.085720670169 -441.687971511792 603.734991289953
vertex 630.568082579964 -438.687971511792 603.934792134962
vertex 630.568082579964 -441.687971511792 603.934792134962
endloop
endfacet
facet normal 1.0 0.0 0.0
outer loop
vertex 629.085720670168 -438.687971511792 602.002940482384
vertex 629.15386901759 -441.687971511792 602.520578572589
vertex 629.085720670168 -441.687971511792 602.002940482384
endloop
endfacet
facet normal 0.96592582628907 0.0 -0.258819045102515
outer loop
vertex 629.15386901759 -441.687971511792 602.520578572589
vertex 629.085720670168 -438.687971511792 602.002940482384
vertex 629.15386901759 -438.687971511792 602.520578572589
endloop
endfacet
facet normal -0.50000000000002 0.0 0.866025403784427
outer loop
vertex 612.085720670168 -441.687971511792 600.270889674815
vertex 611.603358760374 -438.687971511792 600.071088829805
vertex 611.603358760374 -441.687971511792 600.071088829805
endloop
endfacet
facet normal -0.258819045102547 0.0 0.965925826289061
outer loop
vertex 611.603358760374 -438.687971511792 600.071088829805
vertex 612.085720670168 -441.687971511792 600.270889674815
vertex 612.085720670168 -438.687971511792 600.270889674815
endloop
endfacet
facet normal 0.0 0.0 1.0
outer loop
vertex 611.085720670169 -441.687971511792 600.002940482384
vertex 610.568082579964 -438.687971511792 600.071088829805
vertex 610.568082579964 -441.687971511792 600.071088829805
endloop
endfacet
facet normal 0.258819045102515 0.0 0.96592582628907
outer loop
vertex 610.568082579964 -438.687971511792 600.071088829805
vertex 611.085720670169 -441.687971511792 600.002940482384
vertex 611.085720670169 -438.687971511792 600.002940482384
endloop
endfacet
facet normal -0.500000000000037 0.0 -0.866025403784418
outer loop
vertex 612.085720670169 -438.687971511792 603.734991289953
vertex 611.603358760374 -441.687971511792 603.934792134962
vertex 611.603358760374 -438.687971511792 603.934792134962
endloop
endfacet
facet normal -0.258819045102515 0.0 -0.96592582628907
outer loop
vertex 611.603358760374 -441.687971511792 603.934792134962
vertex 612.085720670169 -438.687971511792 603.734991289953
vertex 612.085720670169 -441.687971511792 603.734991289953
endloop
endfacet
facet normal 0.866025403784418 0.0 -0.500000000000037
outer loop
vertex 609.3536698626 -438.687971511792 603.002940482384
vertex 609.671507107795 -441.687971511792 603.417154044757
vertex 609.3536698626 -441.687971511792 603.002940482384
endloop
endfacet
facet normal 0.70710678118651 0.0 -0.707106781186585
outer loop
vertex 609.671507107795 -441.687971511792 603.417154044757
vertex 609.3536698626 -438.687971511792 603.002940482384
vertex 609.671507107795 -438.687971511792 603.417154044757
endloop
endfacet
facet normal -1.0 0.0 0.0
outer loop
vertex 613.085720670169 -438.687971511792 602.002940482384
vertex 613.017572322747 -441.687971511792 601.485302392179
vertex 613.085720670169 -441.687971511792 602.002940482384
endloop
endfacet
facet normal -0.96592582628907 0.0 0.258819045102515
outer loop
vertex 613.017572322747 -441.687971511792 601.485302392179
vertex 613.085720670169 -438.687971511792 602.002940482384
vertex 613.017572322747 -438.687971511792 601.485302392179
endloop
endfacet
facet normal 0.707106781186585 0.0 0.70710678118651
outer loop
vertex 609.671507107795 -438.687971511792 600.588726920011
vertex 609.3536698626 -441.687971511792 601.002940482384
vertex 609.671507107795 -441.687971511792 600.588726920011
endloop
endfacet
facet normal 0.866025403784427 0.0 0.50000000000002
outer loop
vertex 609.3536698626 -441.687971511792 601.002940482384
vertex 609.671507107795 -438.687971511792 600.588726920011
vertex 609.3536698626 -438.687971511792 601.002940482384
endloop
endfacet
facet normal -0.70710678118651 0.0 0.707106781186585
outer loop
vertex 612.499934232542 -441.687971511792 600.588726920011
vertex 612.085720670168 -438.687971511792 600.270889674815
vertex 612.085720670168 -441.687971511792 600.270889674815
endloop
endfacet
facet normal -0.50000000000002 0.0 0.866025403784427
outer loop
vertex 612.085720670168 -438.687971511792 600.270889674815
vertex 612.499934232542 -441.687971511792 600.588726920011
vertex 612.499934232542 -438.687971511792 600.588726920011
endloop
endfacet
facet normal -0.258819045102547 0.0 0.965925826289061
outer loop
vertex 611.603358760374 -441.687971511792 600.071088829805
vertex 611.085720670169 -438.687971511792 600.002940482384
vertex 611.085720670169 -441.687971511792 600.002940482384
endloop
endfacet
facet normal 0.0 0.0 1.0
outer loop
vertex 611.085720670169 -438.687971511792 600.002940482384
vertex 611.603358760374 -441.687971511792 600.071088829805
vertex 611.603358760374 -438.687971511792 600.071088829805
endloop
endfacet
endsolid kitchissippi-02
