solid kitchissippi-02
facet normal 0.0 0.0 1.0
outer loop
vertex 162.946091119839 -397.58694269339 0.8
vertex 162.946091119839 -394.642456320523 0.8
vertex 161.246091119839 -394.642456320523 0.8
endloop
endfacet
facet normal 0.0 0.0 1.0
outer loop
vertex 162.946091119839 -394.642456320523 0.8
vertex 162.946091119839 -397.58694269339 0.8
vertex 163.004017215148 -395.082448697197 0.8
endloop
endfacet
facet normal 0.0 0.0 1.0
outer loop
vertex 163.004017215148 -395.082448697197 0.8
vertex 162.946091119839 -397.58694269339 0.8
vertex 163.173847933406 -395.492456320523 0.8
endloop
endfacet
facet normal 0.0 0.0 1.0
outer loop
vertex 163.173847933406 -395.492456320523 0.8
vertex 162.946091119839 -397.58694269339 0.8
vertex 163.444009591822 -395.84453784854 0.8
endloop
endfacet
facet normal 0.0 0.0 1.0
outer loop
vertex 163.444009591822 -395.84453784854 0.8
vertex 162.946091119839 -397.58694269339 0.8
vertex 163.796091119839 -396.114699506957 0.8
endloop
endfacet
facet normal 0.0 0.0 1.0
outer loop
vertex 163.796091119839 -396.114699506957 0.8
vertex 162.946091119839 -397.58694269339 0.8
vertex 166.346091119839 -397.58694269339 0.8
endloop
endfacet
facet normal 0.0 0.0 1.0
outer loop
vertex 163.796091119839 -396.114699506957 0.8
vertex 166.346091119839 -397.58694269339 0.8
vertex 164.206098743165 -396.284530225215 0.8
endloop
endfacet
facet normal 0.0 0.0 1.0
outer loop
vertex 164.206098743165 -396.284530225215 0.8
vertex 166.346091119839 -397.58694269339 0.8
vertex 164.646091119839 -396.342456320523 0.8
endloop
endfacet
facet normal 0.0 0.0 1.0
outer loop
vertex 164.646091119839 -396.342456320523 0.8
vertex 166.346091119839 -397.58694269339 0.8
vertex 165.086083496514 -396.284530225215 0.8
endloop
endfacet
facet normal 0.0 0.0 1.0
outer loop
vertex 165.086083496514 -396.284530225215 0.8
vertex 166.346091119839 -397.58694269339 0.8
vertex 165.496091119839 -396.114699506957 0.8
endloop
endfacet
facet normal 0.0 0.0 1.0
outer loop
vertex 165.496091119839 -396.114699506957 0.8
vertex 166.346091119839 -397.58694269339 0.8
vertex 165.848172647856 -395.84453784854 0.8
endloop
endfacet
facet normal 0.0 0.0 1.0
outer loop
vertex 165.848172647856 -395.84453784854 0.8
vertex 166.346091119839 -397.58694269339 0.8
vertex 166.118334306273 -395.492456320523 0.8
endloop
endfacet
facet normal 0.0 0.0 1.0
outer loop
vertex 166.118334306273 -395.492456320523 0.8
vertex 166.346091119839 -397.58694269339 0.8
vertex 166.288165024531 -395.082448697197 0.8
endloop
endfacet
facet normal 0.0 0.0 1.0
outer loop
vertex 166.288165024531 -395.082448697197 0.8
vertex 166.346091119839 -397.58694269339 0.8
vertex 166.346091119839 -394.642456320523 0.8
endloop
endfacet
facet normal 0.0 0.0 1.0
outer loop
vertex 166.346091119839 -394.642456320523 0.8
vertex 166.346091119839 -397.58694269339 0.8
vertex 168.046091119839 -394.642456320523 0.8
endloop
endfacet
facet normal 0.0 0.0 1.0
outer loop
vertex 162.946091119839 -394.642456320523 0.8
vertex 162.946091119839 -391.697969947656 0.8
vertex 161.246091119839 -394.642456320523 0.8
endloop
endfacet
facet normal 0.0 0.0 1.0
outer loop
vertex 162.946091119839 -391.697969947656 0.8
vertex 162.946091119839 -394.642456320523 0.8
vertex 163.004017215148 -394.202463943849 0.8
endloop
endfacet
facet normal 0.0 0.0 1.0
outer loop
vertex 162.946091119839 -391.697969947656 0.8
vertex 163.004017215148 -394.202463943849 0.8
vertex 163.173847933406 -393.792456320523 0.8
endloop
endfacet
facet normal 0.0 0.0 1.0
outer loop
vertex 162.946091119839 -391.697969947656 0.8
vertex 163.173847933406 -393.792456320523 0.8
vertex 163.444009591822 -393.440374792506 0.8
endloop
endfacet
facet normal 0.0 0.0 1.0
outer loop
vertex 162.946091119839 -391.697969947656 0.8
vertex 163.444009591822 -393.440374792506 0.8
vertex 163.796091119839 -393.17021313409 0.8
endloop
endfacet
facet normal 0.0 0.0 1.0
outer loop
vertex 162.946091119839 -391.697969947656 0.8
vertex 163.796091119839 -393.17021313409 0.8
vertex 166.346091119839 -391.697969947656 0.8
endloop
endfacet
facet normal 0.0 0.0 1.0
outer loop
vertex 166.346091119839 -391.697969947656 0.8
vertex 163.796091119839 -393.17021313409 0.8
vertex 164.206098743165 -393.000382415832 0.8
endloop
endfacet
facet normal 0.0 0.0 1.0
outer loop
vertex 166.346091119839 -391.697969947656 0.8
vertex 164.206098743165 -393.000382415832 0.8
vertex 164.646091119839 -392.942456320523 0.8
endloop
endfacet
facet normal 0.0 0.0 1.0
outer loop
vertex 166.346091119839 -391.697969947656 0.8
vertex 164.646091119839 -392.942456320523 0.8
vertex 165.086083496514 -393.000382415832 0.8
endloop
endfacet
facet normal 0.0 0.0 1.0
outer loop
vertex 166.346091119839 -391.697969947656 0.8
vertex 165.086083496514 -393.000382415832 0.8
vertex 165.496091119839 -393.17021313409 0.8
endloop
endfacet
facet normal 0.0 0.0 1.0
outer loop
vertex 166.346091119839 -391.697969947656 0.8
vertex 165.496091119839 -393.17021313409 0.8
vertex 165.848172647856 -393.440374792506 0.8
endloop
endfacet
facet normal 0.0 0.0 1.0
outer loop
vertex 166.346091119839 -391.697969947656 0.8
vertex 165.848172647856 -393.440374792506 0.8
vertex 166.118334306273 -393.792456320523 0.8
endloop
endfacet
facet normal 0.0 0.0 1.0
outer loop
vertex 166.346091119839 -391.697969947656 0.8
vertex 166.118334306273 -393.792456320523 0.8
vertex 166.288165024531 -394.202463943849 0.8
endloop
endfacet
facet normal 0.0 0.0 1.0
outer loop
vertex 166.346091119839 -391.697969947656 0.8
vertex 166.288165024531 -394.202463943849 0.8
vertex 166.346091119839 -394.642456320523 0.8
endloop
endfacet
facet normal 0.0 0.0 1.0
outer loop
vertex 166.346091119839 -391.697969947656 0.8
vertex 166.346091119839 -394.642456320523 0.8
vertex 168.046091119839 -394.642456320523 0.8
endloop
endfacet
facet normal -0.923879532511266 0.38268343236514 0.0
outer loop
vertex 166.288165024531 -395.082448697197 0.8
vertex 166.118334306273 -395.492456320523 0.0
vertex 166.118334306273 -395.492456320523 0.8
endloop
endfacet
facet normal -0.923879532511266 0.38268343236514 0.0
outer loop
vertex 166.118334306273 -395.492456320523 0.0
vertex 166.288165024531 -395.082448697197 0.8
vertex 166.288165024531 -395.082448697197 0.0
endloop
endfacet
facet normal -1.03675238328967e-16 1.10672145422824e-15 1.0
outer loop
vertex 166.346091119839 -391.697969947656 3.3
vertex 162.946091119839 -390.742456320523 3.3
vertex 162.946091119839 -391.697969947656 3.3
endloop
endfacet
facet normal -1.03675238328967e-16 1.10672145422824e-15 1.0
outer loop
vertex 162.946091119839 -390.742456320523 3.3
vertex 166.346091119839 -391.697969947656 3.3
vertex 166.346091119839 -390.742456320523 3.3
endloop
endfacet
facet normal -2.62372273131771e-16 3.51684231323126e-17 1.0
outer loop
vertex 160.696091119839 -398.542456320523 3.3
vertex 161.246091119839 -394.642456320523 3.3
vertex 160.696091119839 -390.742456320523 3.3
endloop
endfacet
facet normal -2.62372273131771e-16 3.51684231323126e-17 1.0
outer loop
vertex 161.246091119839 -394.642456320523 3.3
vertex 160.696091119839 -398.542456320523 3.3
vertex 162.946091119839 -398.542456320523 3.3
endloop
endfacet
facet normal -2.62372273131771e-16 3.51684231323126e-17 1.0
outer loop
vertex 161.246091119839 -394.642456320523 3.3
vertex 162.946091119839 -398.542456320523 3.3
vertex 162.946091119839 -397.58694269339 3.3
endloop
endfacet
facet normal -2.62372273131771e-16 3.51684231323126e-17 1.0
outer loop
vertex 161.246091119839 -394.642456320523 3.3
vertex 162.946091119839 -390.742456320523 3.3
vertex 160.696091119839 -390.742456320523 3.3
endloop
endfacet
facet normal -2.62372273131771e-16 3.51684231323126e-17 1.0
outer loop
vertex 162.946091119839 -390.742456320523 3.3
vertex 161.246091119839 -394.642456320523 3.3
vertex 162.946091119839 -391.697969947656 3.3
endloop
endfacet
facet normal 0.866025403784438 -0.5 0.0
outer loop
vertex 162.946091119839 -391.697969947656 0.8
vertex 161.246091119839 -394.642456320523 3.3
vertex 161.246091119839 -394.642456320523 0.8
endloop
endfacet
facet normal 0.866025403784438 -0.5 0.0
outer loop
vertex 161.246091119839 -394.642456320523 3.3
vertex 162.946091119839 -391.697969947656 0.8
vertex 162.946091119839 -391.697969947656 3.3
endloop
endfacet
facet normal 0.0 -1.0 0.0
outer loop
vertex 166.346091119839 -391.697969947656 3.3
vertex 162.946091119839 -391.697969947656 0.8
vertex 166.346091119839 -391.697969947656 0.8
endloop
endfacet
facet normal 0.0 -1.0 0.0
outer loop
vertex 162.946091119839 -391.697969947656 0.8
vertex 166.346091119839 -391.697969947656 3.3
vertex 162.946091119839 -391.697969947656 3.3
endloop
endfacet
facet normal -0.0 -7.37814302818828e-16 1.0
outer loop
vertex 166.346091119839 -398.542456320523 3.3
vertex 162.946091119839 -397.58694269339 3.3
vertex 162.946091119839 -398.542456320523 3.3
endloop
endfacet
facet normal -0.0 -7.37814302818828e-16 1.0
outer loop
vertex 162.946091119839 -397.58694269339 3.3
vertex 166.346091119839 -398.542456320523 3.3
vertex 166.346091119839 -397.58694269339 3.3
endloop
endfacet
facet normal -0.382683432365148 -0.923879532511263 0.0
outer loop
vertex 165.496091119839 -393.17021313409 0.8
vertex 165.086083496514 -393.000382415832 0.0
vertex 165.496091119839 -393.17021313409 0.0
endloop
endfacet
facet normal -0.382683432365148 -0.923879532511263 0.0
outer loop
vertex 165.086083496514 -393.000382415832 0.0
vertex 165.496091119839 -393.17021313409 0.8
vertex 165.086083496514 -393.000382415832 0.8
endloop
endfacet
facet normal -0.79335334029124 0.608761429008714 0.0
outer loop
vertex 166.118334306273 -395.492456320523 0.8
vertex 165.848172647856 -395.84453784854 0.0
vertex 165.848172647856 -395.84453784854 0.8
endloop
endfacet
facet normal -0.79335334029124 0.608761429008714 0.0
outer loop
vertex 165.848172647856 -395.84453784854 0.0
vertex 166.118334306273 -395.492456320523 0.8
vertex 166.118334306273 -395.492456320523 0.0
endloop
endfacet
facet normal -0.382683432365148 0.923879532511263 0.0
outer loop
vertex 165.086083496514 -396.284530225215 0.8
vertex 165.496091119839 -396.114699506957 0.0
vertex 165.086083496514 -396.284530225215 0.0
endloop
endfacet
facet normal -0.382683432365148 0.923879532511263 0.0
outer loop
vertex 165.496091119839 -396.114699506957 0.0
vertex 165.086083496514 -396.284530225215 0.8
vertex 165.496091119839 -396.114699506957 0.8
endloop
endfacet
facet normal -0.866025403784438 0.5 0.0
outer loop
vertex 168.046091119839 -394.642456320523 3.3
vertex 166.346091119839 -397.58694269339 0.8
vertex 166.346091119839 -397.58694269339 3.3
endloop
endfacet
facet normal -0.866025403784438 0.5 0.0
outer loop
vertex 166.346091119839 -397.58694269339 0.8
vertex 168.046091119839 -394.642456320523 3.3
vertex 168.046091119839 -394.642456320523 0.8
endloop
endfacet
facet normal -0.608761429008706 0.793353340291246 0.0
outer loop
vertex 165.496091119839 -396.114699506957 0.8
vertex 165.848172647856 -395.84453784854 0.0
vertex 165.496091119839 -396.114699506957 0.0
endloop
endfacet
facet normal -0.608761429008706 0.793353340291246 0.0
outer loop
vertex 165.848172647856 -395.84453784854 0.0
vertex 165.496091119839 -396.114699506957 0.8
vertex 165.848172647856 -395.84453784854 0.8
endloop
endfacet
facet normal -0.923879532511299 -0.382683432365061 0.0
outer loop
vertex 166.118334306273 -393.792456320523 0.8
vertex 166.288165024531 -394.202463943849 0.0
vertex 166.288165024531 -394.202463943849 0.8
endloop
endfacet
facet normal -0.923879532511299 -0.382683432365061 0.0
outer loop
vertex 166.288165024531 -394.202463943849 0.0
vertex 166.118334306273 -393.792456320523 0.8
vertex 166.118334306273 -393.792456320523 0.0
endloop
endfacet
facet normal -0.793353340291203 -0.608761429008763 0.0
outer loop
vertex 165.848172647856 -393.440374792506 0.8
vertex 166.118334306273 -393.792456320523 0.0
vertex 166.118334306273 -393.792456320523 0.8
endloop
endfacet
facet normal -0.793353340291203 -0.608761429008763 0.0
outer loop
vertex 166.118334306273 -393.792456320523 0.0
vertex 165.848172647856 -393.440374792506 0.8
vertex 165.848172647856 -393.440374792506 0.0
endloop
endfacet
facet normal -0.866025403784438 -0.5 -0.0
outer loop
vertex 166.346091119839 -391.697969947656 3.3
vertex 168.046091119839 -394.642456320523 0.8
vertex 168.046091119839 -394.642456320523 3.3
endloop
endfacet
facet normal -0.866025403784438 -0.5 -0.0
outer loop
vertex 168.046091119839 -394.642456320523 0.8
vertex 166.346091119839 -391.697969947656 3.3
vertex 166.346091119839 -391.697969947656 0.8
endloop
endfacet
facet normal 0.0 1.0 0.0
outer loop
vertex 162.946091119839 -397.58694269339 3.3
vertex 166.346091119839 -397.58694269339 0.8
vertex 162.946091119839 -397.58694269339 0.8
endloop
endfacet
facet normal 0.0 1.0 0.0
outer loop
vertex 166.346091119839 -397.58694269339 0.8
vertex 162.946091119839 -397.58694269339 3.3
vertex 166.346091119839 -397.58694269339 3.3
endloop
endfacet
facet normal 0.866025403784438 0.5 0.0
outer loop
vertex 161.246091119839 -394.642456320523 0.8
vertex 162.946091119839 -397.58694269339 3.3
vertex 162.946091119839 -397.58694269339 0.8
endloop
endfacet
facet normal 0.866025403784438 0.5 0.0
outer loop
vertex 162.946091119839 -397.58694269339 3.3
vertex 161.246091119839 -394.642456320523 0.8
vertex 161.246091119839 -394.642456320523 3.3
endloop
endfacet
facet normal -0.991444861373814 0.130526192220021 0.0
outer loop
vertex 166.346091119839 -394.642456320523 0.8
vertex 166.288165024531 -395.082448697197 0.0
vertex 166.288165024531 -395.082448697197 0.8
endloop
endfacet
facet normal -0.991444861373814 0.130526192220021 0.0
outer loop
vertex 166.288165024531 -395.082448697197 0.0
vertex 166.346091119839 -394.642456320523 0.8
vertex 166.346091119839 -394.642456320523 0.0
endloop
endfacet
facet normal 0.382683432365148 0.923879532511263 0.0
outer loop
vertex 163.796091119839 -396.114699506957 0.8
vertex 164.206098743165 -396.284530225215 0.0
vertex 163.796091119839 -396.114699506957 0.0
endloop
endfacet
facet normal 0.382683432365148 0.923879532511263 0.0
outer loop
vertex 164.206098743165 -396.284530225215 0.0
vertex 163.796091119839 -396.114699506957 0.8
vertex 164.206098743165 -396.284530225215 0.8
endloop
endfacet
facet normal 0.793353340291203 0.608761429008763 0.0
outer loop
vertex 163.173847933406 -395.492456320523 0.0
vertex 163.444009591822 -395.84453784854 0.8
vertex 163.444009591822 -395.84453784854 0.0
endloop
endfacet
facet normal 0.793353340291203 0.608761429008763 0.0
outer loop
vertex 163.444009591822 -395.84453784854 0.8
vertex 163.173847933406 -395.492456320523 0.0
vertex 163.173847933406 -395.492456320523 0.8
endloop
endfacet
facet normal 0.608761429008706 -0.793353340291246 0.0
outer loop
vertex 163.796091119839 -393.17021313409 0.8
vertex 163.444009591822 -393.440374792506 0.0
vertex 163.796091119839 -393.17021313409 0.0
endloop
endfacet
facet normal 0.608761429008706 -0.793353340291246 0.0
outer loop
vertex 163.444009591822 -393.440374792506 0.0
vertex 163.796091119839 -393.17021313409 0.8
vertex 163.444009591822 -393.440374792506 0.8
endloop
endfacet
facet normal 0.608761429008706 0.793353340291246 0.0
outer loop
vertex 163.444009591822 -395.84453784854 0.8
vertex 163.796091119839 -396.114699506957 0.0
vertex 163.444009591822 -395.84453784854 0.0
endloop
endfacet
facet normal 0.608761429008706 0.793353340291246 0.0
outer loop
vertex 163.796091119839 -396.114699506957 0.0
vertex 163.444009591822 -395.84453784854 0.8
vertex 163.796091119839 -396.114699506957 0.8
endloop
endfacet
facet normal 0.130526192220028 0.991444861373814 0.0
outer loop
vertex 164.206098743165 -396.284530225215 0.8
vertex 164.646091119839 -396.342456320523 0.0
vertex 164.206098743165 -396.284530225215 0.0
endloop
endfacet
facet normal 0.130526192220028 0.991444861373814 0.0
outer loop
vertex 164.646091119839 -396.342456320523 0.0
vertex 164.206098743165 -396.284530225215 0.8
vertex 164.646091119839 -396.342456320523 0.8
endloop
endfacet
facet normal 0.923879532511299 0.382683432365061 0.0
outer loop
vertex 163.004017215148 -395.082448697197 0.0
vertex 163.173847933406 -395.492456320523 0.8
vertex 163.173847933406 -395.492456320523 0.0
endloop
endfacet
facet normal 0.923879532511299 0.382683432365061 0.0
outer loop
vertex 163.173847933406 -395.492456320523 0.8
vertex 163.004017215148 -395.082448697197 0.0
vertex 163.004017215148 -395.082448697197 0.8
endloop
endfacet
facet normal -0.991444861373808 -0.130526192220071 0.0
outer loop
vertex 166.288165024531 -394.202463943849 0.8
vertex 166.346091119839 -394.642456320523 0.0
vertex 166.346091119839 -394.642456320523 0.8
endloop
endfacet
facet normal -0.991444861373808 -0.130526192220071 0.0
outer loop
vertex 166.346091119839 -394.642456320523 0.0
vertex 166.288165024531 -394.202463943849 0.8
vertex 166.288165024531 -394.202463943849 0.0
endloop
endfacet
facet normal 0.991444861373808 -0.130526192220071 0.0
outer loop
vertex 163.004017215148 -394.202463943849 0.0
vertex 162.946091119839 -394.642456320523 0.8
vertex 162.946091119839 -394.642456320523 0.0
endloop
endfacet
facet normal 0.991444861373808 -0.130526192220071 0.0
outer loop
vertex 162.946091119839 -394.642456320523 0.8
vertex 163.004017215148 -394.202463943849 0.0
vertex 163.004017215148 -394.202463943849 0.8
endloop
endfacet
facet normal 3.45367584020392e-16 -0.0 1.0
outer loop
vertex 168.596091119839 -398.542456320523 3.3
vertex 166.346091119839 -397.58694269339 3.3
vertex 166.346091119839 -398.542456320523 3.3
endloop
endfacet
facet normal 3.45367584020392e-16 -0.0 1.0
outer loop
vertex 166.346091119839 -397.58694269339 3.3
vertex 168.596091119839 -398.542456320523 3.3
vertex 168.046091119839 -394.642456320523 3.3
endloop
endfacet
facet normal 3.45367584020392e-16 -0.0 1.0
outer loop
vertex 168.046091119839 -394.642456320523 3.3
vertex 166.346091119839 -390.742456320523 3.3
vertex 166.346091119839 -391.697969947656 3.3
endloop
endfacet
facet normal 3.45367584020392e-16 -0.0 1.0
outer loop
vertex 166.346091119839 -390.742456320523 3.3
vertex 168.046091119839 -394.642456320523 3.3
vertex 168.596091119839 -390.742456320523 3.3
endloop
endfacet
facet normal 3.45367584020392e-16 -0.0 1.0
outer loop
vertex 168.596091119839 -390.742456320523 3.3
vertex 168.046091119839 -394.642456320523 3.3
vertex 168.596091119839 -398.542456320523 3.3
endloop
endfacet
facet normal 0.923879532511284 -0.382683432365097 0.0
outer loop
vertex 163.173847933406 -393.792456320523 0.0
vertex 163.004017215148 -394.202463943849 0.8
vertex 163.004017215148 -394.202463943849 0.0
endloop
endfacet
facet normal 0.923879532511284 -0.382683432365097 0.0
outer loop
vertex 163.004017215148 -394.202463943849 0.8
vertex 163.173847933406 -393.792456320523 0.0
vertex 163.173847933406 -393.792456320523 0.8
endloop
endfacet
facet normal -1.0 0.0 0.0
outer loop
vertex 160.696091119839 -390.742456320523 3.3
vertex 160.696091119839 -398.542456320523 0.0
vertex 160.696091119839 -398.542456320523 3.3
endloop
endfacet
facet normal -1.0 0.0 0.0
outer loop
vertex 160.696091119839 -398.542456320523 0.0
vertex 160.696091119839 -390.742456320523 3.3
vertex 160.696091119839 -390.742456320523 0.0
endloop
endfacet
facet normal 1.0 0.0 0.0
outer loop
vertex 168.596091119839 -390.742456320523 0.0
vertex 168.596091119839 -398.542456320523 3.3
vertex 168.596091119839 -398.542456320523 0.0
endloop
endfacet
facet normal 1.0 0.0 0.0
outer loop
vertex 168.596091119839 -398.542456320523 3.3
vertex 168.596091119839 -390.742456320523 0.0
vertex 168.596091119839 -390.742456320523 3.3
endloop
endfacet
facet normal -0.130526192220028 0.991444861373814 0.0
outer loop
vertex 164.646091119839 -396.342456320523 0.8
vertex 165.086083496514 -396.284530225215 0.0
vertex 164.646091119839 -396.342456320523 0.0
endloop
endfacet
facet normal -0.130526192220028 0.991444861373814 0.0
outer loop
vertex 165.086083496514 -396.284530225215 0.0
vertex 164.646091119839 -396.342456320523 0.8
vertex 165.086083496514 -396.284530225215 0.8
endloop
endfacet
facet normal 0.0 1.0 0.0
outer loop
vertex 160.696091119839 -390.742456320523 3.3
vertex 168.596091119839 -390.742456320523 0.0
vertex 160.696091119839 -390.742456320523 0.0
endloop
endfacet
facet normal 0.0 1.0 0.0
outer loop
vertex 168.596091119839 -390.742456320523 0.0
vertex 160.696091119839 -390.742456320523 3.3
vertex 168.596091119839 -390.742456320523 3.3
endloop
endfacet
facet normal 0.0 1.0 0.0
outer loop
vertex 168.596091119839 -390.742456320523 3.3
vertex 160.696091119839 -390.742456320523 3.3
vertex 162.946091119839 -390.742456320523 3.3
endloop
endfacet
facet normal 0.0 1.0 0.0
outer loop
vertex 168.596091119839 -390.742456320523 3.3
vertex 162.946091119839 -390.742456320523 3.3
vertex 166.346091119839 -390.742456320523 3.3
endloop
endfacet
facet normal 0.0 -1.0 0.0
outer loop
vertex 168.596091119839 -398.542456320523 3.3
vertex 160.696091119839 -398.542456320523 0.0
vertex 168.596091119839 -398.542456320523 0.0
endloop
endfacet
facet normal 0.0 -1.0 0.0
outer loop
vertex 160.696091119839 -398.542456320523 0.0
vertex 168.596091119839 -398.542456320523 3.3
vertex 160.696091119839 -398.542456320523 3.3
endloop
endfacet
facet normal 0.0 -1.0 0.0
outer loop
vertex 160.696091119839 -398.542456320523 3.3
vertex 168.596091119839 -398.542456320523 3.3
vertex 166.346091119839 -398.542456320523 3.3
endloop
endfacet
facet normal 0.0 -1.0 0.0
outer loop
vertex 160.696091119839 -398.542456320523 3.3
vertex 166.346091119839 -398.542456320523 3.3
vertex 162.946091119839 -398.542456320523 3.3
endloop
endfacet
facet normal -0.608761429008706 -0.793353340291246 0.0
outer loop
vertex 165.848172647856 -393.440374792506 0.8
vertex 165.496091119839 -393.17021313409 0.0
vertex 165.848172647856 -393.440374792506 0.0
endloop
endfacet
facet normal -0.608761429008706 -0.793353340291246 0.0
outer loop
vertex 165.496091119839 -393.17021313409 0.0
vertex 165.848172647856 -393.440374792506 0.8
vertex 165.496091119839 -393.17021313409 0.8
endloop
endfacet
facet normal 0.991444861373808 0.130526192220071 0.0
outer loop
vertex 162.946091119839 -394.642456320523 0.0
vertex 163.004017215148 -395.082448697197 0.8
vertex 163.004017215148 -395.082448697197 0.0
endloop
endfacet
facet normal 0.991444861373808 0.130526192220071 0.0
outer loop
vertex 163.004017215148 -395.082448697197 0.8
vertex 162.946091119839 -394.642456320523 0.0
vertex 162.946091119839 -394.642456320523 0.8
endloop
endfacet
facet normal 0.0 0.0 -1.0
outer loop
vertex 160.696091119839 -390.742456320523 0.0
vertex 163.173847933406 -393.792456320523 0.0
vertex 160.696091119839 -398.542456320523 0.0
endloop
endfacet
facet normal 0.0 0.0 -1.0
outer loop
vertex 163.173847933406 -393.792456320523 0.0
vertex 160.696091119839 -390.742456320523 0.0
vertex 163.444009591822 -393.440374792506 0.0
endloop
endfacet
facet normal 0.0 0.0 -1.0
outer loop
vertex 163.444009591822 -393.440374792506 0.0
vertex 160.696091119839 -390.742456320523 0.0
vertex 163.796091119839 -393.17021313409 0.0
endloop
endfacet
facet normal 0.0 0.0 -1.0
outer loop
vertex 163.796091119839 -393.17021313409 0.0
vertex 160.696091119839 -390.742456320523 0.0
vertex 168.596091119839 -390.742456320523 0.0
endloop
endfacet
facet normal 0.0 0.0 -1.0
outer loop
vertex 160.696091119839 -398.542456320523 0.0
vertex 163.173847933406 -393.792456320523 0.0
vertex 163.004017215148 -394.202463943849 0.0
endloop
endfacet
facet normal 0.0 0.0 -1.0
outer loop
vertex 160.696091119839 -398.542456320523 0.0
vertex 163.004017215148 -394.202463943849 0.0
vertex 162.946091119839 -394.642456320523 0.0
endloop
endfacet
facet normal 0.0 0.0 -1.0
outer loop
vertex 163.796091119839 -393.17021313409 0.0
vertex 168.596091119839 -390.742456320523 0.0
vertex 164.206098743165 -393.000382415832 0.0
endloop
endfacet
facet normal 0.0 0.0 -1.0
outer loop
vertex 164.206098743165 -393.000382415832 0.0
vertex 168.596091119839 -390.742456320523 0.0
vertex 164.646091119839 -392.942456320523 0.0
endloop
endfacet
facet normal 0.0 0.0 -1.0
outer loop
vertex 164.646091119839 -392.942456320523 0.0
vertex 168.596091119839 -390.742456320523 0.0
vertex 165.086083496514 -393.000382415832 0.0
endloop
endfacet
facet normal 0.0 0.0 -1.0
outer loop
vertex 165.086083496514 -393.000382415832 0.0
vertex 168.596091119839 -390.742456320523 0.0
vertex 165.496091119839 -393.17021313409 0.0
endloop
endfacet
facet normal 0.0 0.0 -1.0
outer loop
vertex 165.496091119839 -393.17021313409 0.0
vertex 168.596091119839 -390.742456320523 0.0
vertex 165.848172647856 -393.440374792506 0.0
endloop
endfacet
facet normal 0.0 0.0 -1.0
outer loop
vertex 165.848172647856 -393.440374792506 0.0
vertex 168.596091119839 -390.742456320523 0.0
vertex 166.118334306273 -393.792456320523 0.0
endloop
endfacet
facet normal 0.0 0.0 -1.0
outer loop
vertex 166.118334306273 -393.792456320523 0.0
vertex 168.596091119839 -390.742456320523 0.0
vertex 166.288165024531 -394.202463943849 0.0
endloop
endfacet
facet normal 0.0 0.0 -1.0
outer loop
vertex 166.288165024531 -394.202463943849 0.0
vertex 168.596091119839 -390.742456320523 0.0
vertex 166.346091119839 -394.642456320523 0.0
endloop
endfacet
facet normal 0.0 0.0 -1.0
outer loop
vertex 160.696091119839 -398.542456320523 0.0
vertex 163.796091119839 -396.114699506957 0.0
vertex 168.596091119839 -398.542456320523 0.0
endloop
endfacet
facet normal 0.0 0.0 -1.0
outer loop
vertex 163.796091119839 -396.114699506957 0.0
vertex 160.696091119839 -398.542456320523 0.0
vertex 163.444009591822 -395.84453784854 0.0
endloop
endfacet
facet normal 0.0 0.0 -1.0
outer loop
vertex 163.444009591822 -395.84453784854 0.0
vertex 160.696091119839 -398.542456320523 0.0
vertex 163.173847933406 -395.492456320523 0.0
endloop
endfacet
facet normal 0.0 0.0 -1.0
outer loop
vertex 163.173847933406 -395.492456320523 0.0
vertex 160.696091119839 -398.542456320523 0.0
vertex 163.004017215148 -395.082448697197 0.0
endloop
endfacet
facet normal 0.0 0.0 -1.0
outer loop
vertex 163.004017215148 -395.082448697197 0.0
vertex 160.696091119839 -398.542456320523 0.0
vertex 162.946091119839 -394.642456320523 0.0
endloop
endfacet
facet normal 0.0 0.0 -1.0
outer loop
vertex 168.596091119839 -398.542456320523 0.0
vertex 163.796091119839 -396.114699506957 0.0
vertex 164.206098743165 -396.284530225215 0.0
endloop
endfacet
facet normal 0.0 0.0 -1.0
outer loop
vertex 168.596091119839 -398.542456320523 0.0
vertex 164.206098743165 -396.284530225215 0.0
vertex 164.646091119839 -396.342456320523 0.0
endloop
endfacet
facet normal 0.0 0.0 -1.0
outer loop
vertex 168.596091119839 -398.542456320523 0.0
vertex 164.646091119839 -396.342456320523 0.0
vertex 165.086083496514 -396.284530225215 0.0
endloop
endfacet
facet normal 0.0 0.0 -1.0
outer loop
vertex 168.596091119839 -398.542456320523 0.0
vertex 165.086083496514 -396.284530225215 0.0
vertex 165.496091119839 -396.114699506957 0.0
endloop
endfacet
facet normal 0.0 0.0 -1.0
outer loop
vertex 168.596091119839 -398.542456320523 0.0
vertex 165.496091119839 -396.114699506957 0.0
vertex 165.848172647856 -395.84453784854 0.0
endloop
endfacet
facet normal 0.0 0.0 -1.0
outer loop
vertex 168.596091119839 -398.542456320523 0.0
vertex 165.848172647856 -395.84453784854 0.0
vertex 166.118334306273 -395.492456320523 0.0
endloop
endfacet
facet normal 0.0 0.0 -1.0
outer loop
vertex 168.596091119839 -398.542456320523 0.0
vertex 166.118334306273 -395.492456320523 0.0
vertex 166.288165024531 -395.082448697197 0.0
endloop
endfacet
facet normal 0.0 0.0 -1.0
outer loop
vertex 168.596091119839 -398.542456320523 0.0
vertex 166.288165024531 -395.082448697197 0.0
vertex 166.346091119839 -394.642456320523 0.0
endloop
endfacet
facet normal 0.0 0.0 -1.0
outer loop
vertex 168.596091119839 -398.542456320523 0.0
vertex 166.346091119839 -394.642456320523 0.0
vertex 168.596091119839 -390.742456320523 0.0
endloop
endfacet
facet normal 0.79335334029124 -0.608761429008714 0.0
outer loop
vertex 163.444009591822 -393.440374792506 0.0
vertex 163.173847933406 -393.792456320523 0.8
vertex 163.173847933406 -393.792456320523 0.0
endloop
endfacet
facet normal 0.79335334029124 -0.608761429008714 0.0
outer loop
vertex 163.173847933406 -393.792456320523 0.8
vertex 163.444009591822 -393.440374792506 0.0
vertex 163.444009591822 -393.440374792506 0.8
endloop
endfacet
facet normal 0.382683432365148 -0.923879532511263 0.0
outer loop
vertex 164.206098743165 -393.000382415832 0.8
vertex 163.796091119839 -393.17021313409 0.0
vertex 164.206098743165 -393.000382415832 0.0
endloop
endfacet
facet normal 0.382683432365148 -0.923879532511263 0.0
outer loop
vertex 163.796091119839 -393.17021313409 0.0
vertex 164.206098743165 -393.000382415832 0.8
vertex 163.796091119839 -393.17021313409 0.8
endloop
endfacet
facet normal 0.130526192220028 -0.991444861373814 0.0
outer loop
vertex 164.646091119839 -392.942456320523 0.8
vertex 164.206098743165 -393.000382415832 0.0
vertex 164.646091119839 -392.942456320523 0.0
endloop
endfacet
facet normal 0.130526192220028 -0.991444861373814 0.0
outer loop
vertex 164.206098743165 -393.000382415832 0.0
vertex 164.646091119839 -392.942456320523 0.8
vertex 164.206098743165 -393.000382415832 0.8
endloop
endfacet
facet normal -0.130526192220028 -0.991444861373814 0.0
outer loop
vertex 165.086083496514 -393.000382415832 0.8
vertex 164.646091119839 -392.942456320523 0.0
vertex 165.086083496514 -393.000382415832 0.0
endloop
endfacet
facet normal -0.130526192220028 -0.991444861373814 0.0
outer loop
vertex 164.646091119839 -392.942456320523 0.0
vertex 165.086083496514 -393.000382415832 0.8
vertex 164.646091119839 -392.942456320523 0.8
endloop
endfacet
endsolid kitchissippi-02
