solid kitchissippi-02
facet normal 0.130526192220003 -0.991444861373817 -8.10915481789495e-31
outer loop
vertex 152.37834863286 -406.118874201375 -0.5
vertex 151.834828638145 -406.190429966167 -1.3
vertex 152.37834863286 -406.118874201375 -1.3
endloop
endfacet
facet normal 0.258819045102493 -0.965925826289076 -4.08956419757847e-31
outer loop
vertex 151.834828638145 -406.190429966167 -1.3
vertex 152.37834863286 -406.118874201375 -0.5
vertex 151.834828638145 -406.190429966167 -0.5
endloop
endfacet
facet normal 0.258819045102493 -0.965925826289076 -4.08956419757847e-31
outer loop
vertex 151.834828638145 -406.190429966167 -0.5
vertex 151.32834863286 -406.400220853427 -1.3
vertex 151.834828638145 -406.190429966167 -1.3
endloop
endfacet
facet normal 0.500000000000023 -0.866025403784425 0.0
outer loop
vertex 151.32834863286 -406.400220853427 -1.3
vertex 151.834828638145 -406.190429966167 -0.5
vertex 151.32834863286 -406.400220853427 -0.5
endloop
endfacet
facet normal 0.500000000000023 -0.866025403784425 0.0
outer loop
vertex 151.32834863286 -406.400220853427 -0.5
vertex 150.893424392368 -406.733949960883 -1.3
vertex 151.32834863286 -406.400220853427 -1.3
endloop
endfacet
facet normal 0.707106781186541 -0.707106781186554 0.0
outer loop
vertex 150.893424392368 -406.733949960883 -1.3
vertex 151.32834863286 -406.400220853427 -0.5
vertex 150.893424392368 -406.733949960883 -0.5
endloop
endfacet
facet normal 0.707106781186541 -0.707106781186554 0.0
outer loop
vertex 150.893424392368 -406.733949960883 -1.3
vertex 150.559695284913 -407.168874201374 -0.5
vertex 150.559695284913 -407.168874201374 -1.3
endloop
endfacet
facet normal 0.866025403784421 -0.500000000000031 0.0
outer loop
vertex 150.559695284913 -407.168874201374 -0.5
vertex 150.893424392368 -406.733949960883 -1.3
vertex 150.893424392368 -406.733949960883 -0.5
endloop
endfacet
facet normal 0.866025403784421 -0.500000000000031 0.0
outer loop
vertex 150.559695284913 -407.168874201374 -1.3
vertex 150.349904397653 -407.675354206659 -0.5
vertex 150.349904397653 -407.675354206659 -1.3
endloop
endfacet
facet normal 0.965925826289071 -0.258819045102511 0.0
outer loop
vertex 150.349904397653 -407.675354206659 -0.5
vertex 150.559695284913 -407.168874201374 -1.3
vertex 150.559695284913 -407.168874201374 -0.5
endloop
endfacet
facet normal 0.965925826289071 -0.258819045102511 0.0
outer loop
vertex 150.349904397653 -407.675354206659 -1.3
vertex 150.27834863286 -408.218874201375 -0.5
vertex 150.27834863286 -408.218874201375 -1.3
endloop
endfacet
facet normal 1.0 0.0 0.0
outer loop
vertex 150.27834863286 -408.218874201375 -0.5
vertex 150.349904397653 -407.675354206659 -1.3
vertex 150.349904397653 -407.675354206659 -0.5
endloop
endfacet
facet normal 1.0 0.0 0.0
outer loop
vertex 150.27834863286 -408.218874201375 -1.3
vertex 150.349904397653 -408.76239419609 -0.5
vertex 150.349904397653 -408.76239419609 -1.3
endloop
endfacet
facet normal 0.965925826289071 0.258819045102511 0.0
outer loop
vertex 150.349904397653 -408.76239419609 -0.5
vertex 150.27834863286 -408.218874201375 -1.3
vertex 150.27834863286 -408.218874201375 -0.5
endloop
endfacet
facet normal 0.965925826289071 0.258819045102511 0.0
outer loop
vertex 150.349904397653 -408.76239419609 -1.3
vertex 150.559695284913 -409.268874201375 -0.5
vertex 150.559695284913 -409.268874201375 -1.3
endloop
endfacet
facet normal 0.866025403784421 0.500000000000031 0.0
outer loop
vertex 150.559695284913 -409.268874201375 -0.5
vertex 150.349904397653 -408.76239419609 -1.3
vertex 150.349904397653 -408.76239419609 -0.5
endloop
endfacet
facet normal 0.866025403784421 0.500000000000031 0.0
outer loop
vertex 150.559695284913 -409.268874201375 -1.3
vertex 150.893424392368 -409.703798441866 -0.5
vertex 150.893424392368 -409.703798441866 -1.3
endloop
endfacet
facet normal 0.707106781186532 0.707106781186563 0.0
outer loop
vertex 150.893424392368 -409.703798441866 -0.5
vertex 150.559695284913 -409.268874201375 -1.3
vertex 150.559695284913 -409.268874201375 -0.5
endloop
endfacet
facet normal 0.707106781186532 0.707106781186563 0.0
outer loop
vertex 150.893424392368 -409.703798441866 -0.5
vertex 151.32834863286 -410.037527549322 -1.3
vertex 150.893424392368 -409.703798441866 -1.3
endloop
endfacet
facet normal 0.500000000000019 0.866025403784428 0.0
outer loop
vertex 151.32834863286 -410.037527549322 -1.3
vertex 150.893424392368 -409.703798441866 -0.5
vertex 151.32834863286 -410.037527549322 -0.5
endloop
endfacet
facet normal 0.500000000000019 0.866025403784428 0.0
outer loop
vertex 151.32834863286 -410.037527549322 -0.5
vertex 151.834828638145 -410.247318436582 -1.3
vertex 151.32834863286 -410.037527549322 -1.3
endloop
endfacet
facet normal 0.258819045102501 0.965925826289074 -4.08956419757848e-31
outer loop
vertex 151.834828638145 -410.247318436582 -1.3
vertex 151.32834863286 -410.037527549322 -0.5
vertex 151.834828638145 -410.247318436582 -0.5
endloop
endfacet
facet normal 0.258819045102501 0.965925826289074 -4.08956419757848e-31
outer loop
vertex 151.834828638145 -410.247318436582 -0.5
vertex 152.37834863286 -410.318874201375 -1.3
vertex 151.834828638145 -410.247318436582 -1.3
endloop
endfacet
facet normal 0.130526192220003 0.991444861373817 -8.10915481789495e-31
outer loop
vertex 152.37834863286 -410.318874201375 -1.3
vertex 151.834828638145 -410.247318436582 -0.5
vertex 152.37834863286 -410.318874201375 -0.5
endloop
endfacet
facet normal 0.866025403784439 -0.499999999999998 1.00329760490981e-15
outer loop
vertex 148.42834863286 -407.785861499482 -0.5
vertex 148.17834863286 -408.218874201375 2.2
vertex 148.17834863286 -408.218874201375 -0.499999999999998
endloop
endfacet
facet normal 0.866025403784439 -0.499999999999998 1.00329760490981e-15
outer loop
vertex 148.17834863286 -408.218874201375 2.2
vertex 148.42834863286 -407.785861499482 -0.5
vertex 148.42834863286 -407.785861499482 2.2
endloop
endfacet
facet normal 0.866025403784439 -0.499999999999998 1.00329760490981e-15
outer loop
vertex 148.42834863286 -407.785861499482 2.2
vertex 148.42834863286 -407.785861499482 -0.5
vertex 150.27834863286 -404.58156750548 -0.5
endloop
endfacet
facet normal 0.866025403784439 -0.499999999999998 1.00329760490981e-15
outer loop
vertex 148.42834863286 -407.785861499482 2.2
vertex 150.27834863286 -404.58156750548 -0.5
vertex 149.102109063564 -406.618874201375 2.0
endloop
endfacet
facet normal 0.866025403784439 -0.499999999999998 1.00329760490981e-15
outer loop
vertex 149.102109063564 -406.618874201375 2.0
vertex 150.27834863286 -404.58156750548 -0.5
vertex 150.27834863286 -404.58156750548 2.0
endloop
endfacet
facet normal 0.866025403784439 -0.499999999999998 1.00329760490981e-15
outer loop
vertex 149.102109063564 -406.618874201375 2.2
vertex 148.42834863286 -407.785861499482 2.2
vertex 149.102109063564 -406.618874201375 2.0
endloop
endfacet
facet normal 0.866025403784439 0.499999999999998 9.84971260156246e-16
outer loop
vertex 148.42834863286 -408.651886903267 -0.5
vertex 150.27834863286 -411.856180897269 2.0
vertex 150.27834863286 -411.856180897269 -0.5
endloop
endfacet
facet normal 0.866025403784439 0.499999999999998 9.84971260156246e-16
outer loop
vertex 150.27834863286 -411.856180897269 2.0
vertex 148.42834863286 -408.651886903267 -0.5
vertex 149.102109063564 -409.818874201375 2.0
endloop
endfacet
facet normal 0.866025403784439 0.499999999999998 9.84971260156246e-16
outer loop
vertex 149.102109063564 -409.818874201375 2.0
vertex 148.42834863286 -408.651886903267 -0.5
vertex 149.102109063564 -409.818874201375 2.2
endloop
endfacet
facet normal 0.866025403784439 0.499999999999998 9.84971260156246e-16
outer loop
vertex 149.102109063564 -409.818874201375 2.2
vertex 148.42834863286 -408.651886903267 -0.5
vertex 148.42834863286 -408.651886903267 2.2
endloop
endfacet
facet normal 0.866025403784439 0.499999999999998 9.84971260156246e-16
outer loop
vertex 148.42834863286 -408.651886903267 2.2
vertex 148.42834863286 -408.651886903267 -0.5
vertex 148.17834863286 -408.218874201375 -0.499999999999998
endloop
endfacet
facet normal 0.866025403784439 0.499999999999998 9.84971260156246e-16
outer loop
vertex 148.42834863286 -408.651886903267 2.2
vertex 148.17834863286 -408.218874201375 -0.499999999999998
vertex 148.17834863286 -408.218874201375 2.2
endloop
endfacet
facet normal 0.0 -1.0 0.0
outer loop
vertex 154.47834863286 -404.58156750548 2.0
vertex 152.37834863286 -404.58156750548 -0.5
vertex 154.47834863286 -404.58156750548 -0.5
endloop
endfacet
facet normal 0.0 -1.0 0.0
outer loop
vertex 152.37834863286 -404.58156750548 -0.5
vertex 154.47834863286 -404.58156750548 2.0
vertex 150.27834863286 -404.58156750548 -0.5
endloop
endfacet
facet normal 0.0 -1.0 0.0
outer loop
vertex 150.27834863286 -404.58156750548 -0.5
vertex 154.47834863286 -404.58156750548 2.0
vertex 150.27834863286 -404.58156750548 2.0
endloop
endfacet
facet normal 0.0 -1.0 0.0
outer loop
vertex 150.27834863286 -404.58156750548 2.0
vertex 154.47834863286 -404.58156750548 2.0
vertex 152.614597081719 -404.58156750548 2.0
endloop
endfacet
facet normal 0.0 -1.0 0.0
outer loop
vertex 150.27834863286 -404.58156750548 2.0
vertex 152.614597081719 -404.58156750548 2.0
vertex 152.142100184001 -404.58156750548 2.0
endloop
endfacet
facet normal 0.0 0.0 1.0
outer loop
vertex 156.918092222604 -409.818874201375 2.2
vertex 156.32834863286 -408.651886903267 2.2
vertex 155.654588202157 -409.818874201375 2.2
endloop
endfacet
facet normal 0.0 0.0 1.0
outer loop
vertex 156.32834863286 -408.651886903267 2.2
vertex 156.918092222604 -409.818874201375 2.2
vertex 156.57834863286 -408.218874201375 2.2
endloop
endfacet
facet normal 0.0 0.0 1.0
outer loop
vertex 156.32834863286 -407.785861499482 2.2
vertex 156.918092222604 -406.618874201375 2.2
vertex 155.654588202157 -406.618874201375 2.2
endloop
endfacet
facet normal 0.0 0.0 1.0
outer loop
vertex 156.918092222604 -406.618874201375 2.2
vertex 156.32834863286 -407.785861499482 2.2
vertex 156.57834863286 -408.218874201375 2.2
endloop
endfacet
facet normal 0.0 0.0 1.0
outer loop
vertex 156.918092222604 -406.618874201375 2.2
vertex 156.57834863286 -408.218874201375 2.2
vertex 156.918092222604 -409.818874201375 2.2
endloop
endfacet
facet normal 0.0 0.0 1.0
outer loop
vertex 156.918092222604 -406.618874201375 2.2
vertex 156.918092222604 -409.818874201375 2.2
vertex 157.32834863286 -408.218874201375 2.2
endloop
endfacet
facet normal 0.0 1.0 0.0
outer loop
vertex 147.838605043117 -406.618874201375 2.2
vertex 149.102109063564 -406.618874201375 2.0
vertex 147.838605043117 -406.618874201375 2.0
endloop
endfacet
facet normal 0.0 1.0 0.0
outer loop
vertex 149.102109063564 -406.618874201375 2.0
vertex 147.838605043117 -406.618874201375 2.2
vertex 149.102109063564 -406.618874201375 2.2
endloop
endfacet
facet normal -0.968663866044045 -0.248375350267702 1.30819405630853e-17
outer loop
vertex 147.42834863286 -408.218874201375 2.2
vertex 147.838605043117 -409.818874201375 2.0
vertex 147.838605043117 -409.818874201375 2.2
endloop
endfacet
facet normal -0.968663866044045 -0.248375350267702 1.30819405630853e-17
outer loop
vertex 147.838605043117 -409.818874201375 2.0
vertex 148.42834863286 -412.118874201375 -1.3
vertex 148.42834863286 -412.118874201375 2.0
endloop
endfacet
facet normal -0.968663866044045 -0.248375350267702 1.30819405630853e-17
outer loop
vertex 148.42834863286 -412.118874201375 -1.3
vertex 147.838605043117 -409.818874201375 2.0
vertex 147.42834863286 -408.218874201375 -1.3
endloop
endfacet
facet normal -0.968663866044045 -0.248375350267702 1.30819405630853e-17
outer loop
vertex 147.42834863286 -408.218874201375 -1.3
vertex 147.838605043117 -409.818874201375 2.0
vertex 147.42834863286 -408.218874201375 2.2
endloop
endfacet
facet normal -0.968663866044045 0.248375350267702 3.19071721050086e-19
outer loop
vertex 147.838605043117 -406.618874201375 2.2
vertex 147.42834863286 -408.218874201375 -1.3
vertex 147.42834863286 -408.218874201375 2.2
endloop
endfacet
facet normal -0.968663866044045 0.248375350267702 3.19071721050086e-19
outer loop
vertex 147.42834863286 -408.218874201375 -1.3
vertex 147.838605043117 -406.618874201375 2.2
vertex 147.838605043117 -406.618874201375 2.0
endloop
endfacet
facet normal -0.968663866044045 0.248375350267702 3.19071721050086e-19
outer loop
vertex 147.42834863286 -408.218874201375 -1.3
vertex 147.838605043117 -406.618874201375 2.0
vertex 148.42834863286 -404.318874201375 -1.3
endloop
endfacet
facet normal -0.968663866044045 0.248375350267702 3.19071721050086e-19
outer loop
vertex 148.42834863286 -404.318874201375 -1.3
vertex 147.838605043117 -406.618874201375 2.0
vertex 148.42834863286 -404.318874201375 2.0
endloop
endfacet
facet normal 0.0 0.0 1.0
outer loop
vertex 147.838605043117 -409.818874201375 2.2
vertex 147.838605043117 -406.618874201375 2.2
vertex 147.42834863286 -408.218874201375 2.2
endloop
endfacet
facet normal 0.0 0.0 1.0
outer loop
vertex 147.838605043117 -406.618874201375 2.2
vertex 147.838605043117 -409.818874201375 2.2
vertex 148.17834863286 -408.218874201375 2.2
endloop
endfacet
facet normal 0.0 0.0 1.0
outer loop
vertex 148.17834863286 -408.218874201375 2.2
vertex 147.838605043117 -409.818874201375 2.2
vertex 149.102109063564 -409.818874201375 2.2
endloop
endfacet
facet normal 0.0 0.0 1.0
outer loop
vertex 148.17834863286 -408.218874201375 2.2
vertex 149.102109063564 -409.818874201375 2.2
vertex 148.42834863286 -408.651886903267 2.2
endloop
endfacet
facet normal 0.0 0.0 1.0
outer loop
vertex 148.17834863286 -408.218874201375 2.2
vertex 149.102109063564 -406.618874201375 2.2
vertex 147.838605043117 -406.618874201375 2.2
endloop
endfacet
facet normal 0.0 0.0 1.0
outer loop
vertex 149.102109063564 -406.618874201375 2.2
vertex 148.17834863286 -408.218874201375 2.2
vertex 148.42834863286 -407.785861499482 2.2
endloop
endfacet
facet normal -0.258819045102501 0.965925826289074 6.36538284731702e-18
outer loop
vertex 152.921868627575 -410.247318436582 -0.5
vertex 153.42834863286 -410.037527549322 -1.3
vertex 152.921868627575 -410.247318436582 -1.3
endloop
endfacet
facet normal -0.500000000000019 0.866025403784428 6.36538284731551e-18
outer loop
vertex 153.42834863286 -410.037527549322 -1.3
vertex 152.921868627575 -410.247318436582 -0.5
vertex 153.42834863286 -410.037527549322 -0.5
endloop
endfacet
facet normal -0.866025403784421 -0.500000000000031 1.01150159762532e-29
outer loop
vertex 154.197001980808 -407.168874201374 -0.5
vertex 154.406792868067 -407.675354206659 -1.3
vertex 154.406792868067 -407.675354206659 -0.5
endloop
endfacet
facet normal -0.965925826289071 -0.258819045102511 1.47050672827035e-30
outer loop
vertex 154.406792868067 -407.675354206659 -1.3
vertex 154.197001980808 -407.168874201374 -0.5
vertex 154.197001980808 -407.168874201374 -1.3
endloop
endfacet
facet normal -0.965925826289071 0.258819045102511 1.47050672827035e-30
outer loop
vertex 154.406792868067 -408.76239419609 -0.5
vertex 154.197001980808 -409.268874201375 -1.3
vertex 154.197001980808 -409.268874201375 -0.5
endloop
endfacet
facet normal -0.866025403784421 0.500000000000031 1.01150159762532e-29
outer loop
vertex 154.197001980808 -409.268874201375 -1.3
vertex 154.406792868067 -408.76239419609 -0.5
vertex 154.406792868067 -408.76239419609 -1.3
endloop
endfacet
facet normal -0.965925826289071 -0.258819045102511 1.47050672827035e-30
outer loop
vertex 154.406792868067 -407.675354206659 -0.5
vertex 154.47834863286 -408.218874201375 -1.3
vertex 154.47834863286 -408.218874201375 -0.5
endloop
endfacet
facet normal -1.0 -8.91110989564689e-18 2.9410134565407e-30
outer loop
vertex 154.47834863286 -408.218874201375 -1.3
vertex 154.406792868067 -407.675354206659 -0.5
vertex 154.406792868067 -407.675354206659 -1.3
endloop
endfacet
facet normal 1.14635496857945e-34 5.17926505076501e-18 -1.0
outer loop
vertex 148.42834863286 -404.318874201375 -1.3
vertex 148.42834863286 -412.118874201375 -1.3
vertex 147.42834863286 -408.218874201375 -1.3
endloop
endfacet
facet normal 1.14635496857945e-34 5.17926505076501e-18 -1.0
outer loop
vertex 148.42834863286 -412.118874201375 -1.3
vertex 148.42834863286 -404.318874201375 -1.3
vertex 150.559695284913 -407.168874201374 -1.3
endloop
endfacet
facet normal 1.14635496857945e-34 5.17926505076501e-18 -1.0
outer loop
vertex 150.559695284913 -407.168874201374 -1.3
vertex 148.42834863286 -404.318874201375 -1.3
vertex 150.893424392368 -406.733949960883 -1.3
endloop
endfacet
facet normal 1.14635496857945e-34 5.17926505076501e-18 -1.0
outer loop
vertex 150.893424392368 -406.733949960883 -1.3
vertex 148.42834863286 -404.318874201375 -1.3
vertex 151.32834863286 -406.400220853427 -1.3
endloop
endfacet
facet normal 1.14635496857945e-34 5.17926505076501e-18 -1.0
outer loop
vertex 151.32834863286 -406.400220853427 -1.3
vertex 148.42834863286 -404.318874201375 -1.3
vertex 156.32834863286 -404.318874201375 -1.3
endloop
endfacet
facet normal 1.14635496857945e-34 5.17926505076501e-18 -1.0
outer loop
vertex 148.42834863286 -412.118874201375 -1.3
vertex 150.559695284913 -407.168874201374 -1.3
vertex 150.349904397653 -407.675354206659 -1.3
endloop
endfacet
facet normal 1.14635496857945e-34 5.17926505076501e-18 -1.0
outer loop
vertex 148.42834863286 -412.118874201375 -1.3
vertex 150.349904397653 -407.675354206659 -1.3
vertex 150.27834863286 -408.218874201375 -1.3
endloop
endfacet
facet normal 1.14635496857945e-34 5.17926505076501e-18 -1.0
outer loop
vertex 151.32834863286 -406.400220853427 -1.3
vertex 156.32834863286 -404.318874201375 -1.3
vertex 151.834828638145 -406.190429966167 -1.3
endloop
endfacet
facet normal 1.14635496857945e-34 5.17926505076501e-18 -1.0
outer loop
vertex 151.834828638145 -406.190429966167 -1.3
vertex 156.32834863286 -404.318874201375 -1.3
vertex 152.37834863286 -406.118874201375 -1.3
endloop
endfacet
facet normal 1.14635496857945e-34 5.17926505076501e-18 -1.0
outer loop
vertex 152.37834863286 -406.118874201375 -1.3
vertex 156.32834863286 -404.318874201375 -1.3
vertex 152.921868627575 -406.190429966167 -1.3
endloop
endfacet
facet normal 1.14635496857945e-34 5.17926505076501e-18 -1.0
outer loop
vertex 152.921868627575 -406.190429966167 -1.3
vertex 156.32834863286 -404.318874201375 -1.3
vertex 153.42834863286 -406.400220853427 -1.3
endloop
endfacet
facet normal 1.14635496857945e-34 5.17926505076501e-18 -1.0
outer loop
vertex 153.42834863286 -406.400220853427 -1.3
vertex 156.32834863286 -404.318874201375 -1.3
vertex 153.863272873352 -406.733949960883 -1.3
endloop
endfacet
facet normal 1.14635496857945e-34 5.17926505076501e-18 -1.0
outer loop
vertex 153.863272873352 -406.733949960883 -1.3
vertex 156.32834863286 -404.318874201375 -1.3
vertex 154.197001980808 -407.168874201374 -1.3
endloop
endfacet
facet normal 1.14635496857945e-34 5.17926505076501e-18 -1.0
outer loop
vertex 154.197001980808 -407.168874201374 -1.3
vertex 156.32834863286 -404.318874201375 -1.3
vertex 154.406792868067 -407.675354206659 -1.3
endloop
endfacet
facet normal 1.14635496857945e-34 5.17926505076501e-18 -1.0
outer loop
vertex 154.406792868067 -407.675354206659 -1.3
vertex 156.32834863286 -404.318874201375 -1.3
vertex 154.47834863286 -408.218874201375 -1.3
endloop
endfacet
facet normal 1.14635496857945e-34 5.17926505076501e-18 -1.0
outer loop
vertex 148.42834863286 -412.118874201375 -1.3
vertex 151.32834863286 -410.037527549322 -1.3
vertex 156.32834863286 -412.118874201375 -1.3
endloop
endfacet
facet normal 1.14635496857945e-34 5.17926505076501e-18 -1.0
outer loop
vertex 151.32834863286 -410.037527549322 -1.3
vertex 148.42834863286 -412.118874201375 -1.3
vertex 150.893424392368 -409.703798441866 -1.3
endloop
endfacet
facet normal 1.14635496857945e-34 5.17926505076501e-18 -1.0
outer loop
vertex 150.893424392368 -409.703798441866 -1.3
vertex 148.42834863286 -412.118874201375 -1.3
vertex 150.559695284913 -409.268874201375 -1.3
endloop
endfacet
facet normal 1.14635496857945e-34 5.17926505076501e-18 -1.0
outer loop
vertex 150.559695284913 -409.268874201375 -1.3
vertex 148.42834863286 -412.118874201375 -1.3
vertex 150.349904397653 -408.76239419609 -1.3
endloop
endfacet
facet normal 1.14635496857945e-34 5.17926505076501e-18 -1.0
outer loop
vertex 150.349904397653 -408.76239419609 -1.3
vertex 148.42834863286 -412.118874201375 -1.3
vertex 150.27834863286 -408.218874201375 -1.3
endloop
endfacet
facet normal 1.14635496857945e-34 5.17926505076501e-18 -1.0
outer loop
vertex 156.32834863286 -412.118874201375 -1.3
vertex 151.32834863286 -410.037527549322 -1.3
vertex 151.834828638145 -410.247318436582 -1.3
endloop
endfacet
facet normal 1.14635496857945e-34 5.17926505076501e-18 -1.0
outer loop
vertex 156.32834863286 -412.118874201375 -1.3
vertex 151.834828638145 -410.247318436582 -1.3
vertex 152.37834863286 -410.318874201375 -1.3
endloop
endfacet
facet normal 1.14635496857945e-34 5.17926505076501e-18 -1.0
outer loop
vertex 156.32834863286 -412.118874201375 -1.3
vertex 152.37834863286 -410.318874201375 -1.3
vertex 152.921868627575 -410.247318436582 -1.3
endloop
endfacet
facet normal 1.14635496857945e-34 5.17926505076501e-18 -1.0
outer loop
vertex 156.32834863286 -412.118874201375 -1.3
vertex 152.921868627575 -410.247318436582 -1.3
vertex 153.42834863286 -410.037527549322 -1.3
endloop
endfacet
facet normal 1.14635496857945e-34 5.17926505076501e-18 -1.0
outer loop
vertex 156.32834863286 -412.118874201375 -1.3
vertex 153.42834863286 -410.037527549322 -1.3
vertex 153.863272873352 -409.703798441866 -1.3
endloop
endfacet
facet normal 1.14635496857945e-34 5.17926505076501e-18 -1.0
outer loop
vertex 156.32834863286 -412.118874201375 -1.3
vertex 153.863272873352 -409.703798441866 -1.3
vertex 154.197001980808 -409.268874201375 -1.3
endloop
endfacet
facet normal 1.14635496857945e-34 5.17926505076501e-18 -1.0
outer loop
vertex 156.32834863286 -412.118874201375 -1.3
vertex 154.197001980808 -409.268874201375 -1.3
vertex 154.406792868067 -408.76239419609 -1.3
endloop
endfacet
facet normal 1.14635496857945e-34 5.17926505076501e-18 -1.0
outer loop
vertex 156.32834863286 -412.118874201375 -1.3
vertex 154.406792868067 -408.76239419609 -1.3
vertex 154.47834863286 -408.218874201375 -1.3
endloop
endfacet
facet normal 1.14635496857945e-34 5.17926505076501e-18 -1.0
outer loop
vertex 156.32834863286 -412.118874201375 -1.3
vertex 154.47834863286 -408.218874201375 -1.3
vertex 156.32834863286 -404.318874201375 -1.3
endloop
endfacet
facet normal 1.14635496857945e-34 5.17926505076501e-18 -1.0
outer loop
vertex 156.32834863286 -412.118874201375 -1.3
vertex 156.32834863286 -404.318874201375 -1.3
vertex 157.32834863286 -408.218874201375 -1.3
endloop
endfacet
facet normal 0.968663866044045 0.248375350267703 -9.74642481068573e-16
outer loop
vertex 156.32834863286 -404.318874201375 -1.3
vertex 157.32834863286 -408.218874201375 2.2
vertex 157.32834863286 -408.218874201375 -1.3
endloop
endfacet
facet normal 0.968663866044045 0.248375350267703 -9.74642481068573e-16
outer loop
vertex 157.32834863286 -408.218874201375 2.2
vertex 156.32834863286 -404.318874201375 -1.3
vertex 156.918092222604 -406.618874201375 2.0
endloop
endfacet
facet normal 0.968663866044045 0.248375350267703 -9.74642481068573e-16
outer loop
vertex 156.918092222604 -406.618874201375 2.0
vertex 156.32834863286 -404.318874201375 -1.3
vertex 156.32834863286 -404.318874201375 2.0
endloop
endfacet
facet normal 0.968663866044045 0.248375350267703 -9.74642481068573e-16
outer loop
vertex 156.918092222604 -406.618874201375 2.2
vertex 157.32834863286 -408.218874201375 2.2
vertex 156.918092222604 -406.618874201375 2.0
endloop
endfacet
facet normal -1.0 -8.91110989564689e-18 2.9410134565407e-30
outer loop
vertex 154.47834863286 -408.218874201375 -0.5
vertex 154.406792868067 -408.76239419609 -1.3
vertex 154.406792868067 -408.76239419609 -0.5
endloop
endfacet
facet normal -0.965925826289071 0.258819045102511 1.47050672827035e-30
outer loop
vertex 154.406792868067 -408.76239419609 -1.3
vertex 154.47834863286 -408.218874201375 -0.5
vertex 154.47834863286 -408.218874201375 -1.3
endloop
endfacet
facet normal -0.0 -0.0 1.0
outer loop
vertex 149.102109063564 -406.618874201375 2.0
vertex 148.42834863286 -404.318874201375 2.0
vertex 147.838605043117 -406.618874201375 2.0
endloop
endfacet
facet normal -0.0 -0.0 1.0
outer loop
vertex 148.42834863286 -404.318874201375 2.0
vertex 149.102109063564 -406.618874201375 2.0
vertex 150.27834863286 -404.58156750548 2.0
endloop
endfacet
facet normal -0.0 -0.0 1.0
outer loop
vertex 148.42834863286 -404.318874201375 2.0
vertex 150.27834863286 -404.58156750548 2.0
vertex 155.32834863286 -404.318874201375 2.0
endloop
endfacet
facet normal -0.0 -0.0 1.0
outer loop
vertex 155.32834863286 -404.318874201375 2.0
vertex 150.27834863286 -404.58156750548 2.0
vertex 152.142100184001 -404.58156750548 2.0
endloop
endfacet
facet normal -0.0 -0.0 1.0
outer loop
vertex 155.32834863286 -404.318874201375 2.0
vertex 152.142100184001 -404.58156750548 2.0
vertex 152.614597081719 -404.58156750548 2.0
endloop
endfacet
facet normal -0.0 -0.0 1.0
outer loop
vertex 155.32834863286 -404.318874201375 2.0
vertex 152.614597081719 -404.58156750548 2.0
vertex 154.47834863286 -404.58156750548 2.0
endloop
endfacet
facet normal -0.0 -0.0 1.0
outer loop
vertex 155.32834863286 -404.318874201375 2.0
vertex 154.47834863286 -404.58156750548 2.0
vertex 155.654588202157 -406.618874201375 2.0
endloop
endfacet
facet normal -0.0 -0.0 1.0
outer loop
vertex 155.32834863286 -404.318874201375 2.0
vertex 155.654588202157 -406.618874201375 2.0
vertex 156.32834863286 -404.318874201375 2.0
endloop
endfacet
facet normal -0.0 -0.0 1.0
outer loop
vertex 156.32834863286 -404.318874201375 2.0
vertex 155.654588202157 -406.618874201375 2.0
vertex 156.918092222604 -406.618874201375 2.0
endloop
endfacet
facet normal 0.0 1.0 0.0
outer loop
vertex 155.654588202157 -406.618874201375 2.2
vertex 156.918092222604 -406.618874201375 2.0
vertex 155.654588202157 -406.618874201375 2.0
endloop
endfacet
facet normal 0.0 1.0 0.0
outer loop
vertex 156.918092222604 -406.618874201375 2.0
vertex 155.654588202157 -406.618874201375 2.2
vertex 156.918092222604 -406.618874201375 2.2
endloop
endfacet
facet normal 0.0 0.0 1.0
outer loop
vertex 148.42834863286 -412.118874201375 2.0
vertex 149.102109063564 -409.818874201375 2.0
vertex 147.838605043117 -409.818874201375 2.0
endloop
endfacet
facet normal 0.0 0.0 1.0
outer loop
vertex 149.102109063564 -409.818874201375 2.0
vertex 148.42834863286 -412.118874201375 2.0
vertex 150.27834863286 -411.856180897269 2.0
endloop
endfacet
facet normal 0.0 0.0 1.0
outer loop
vertex 150.27834863286 -411.856180897269 2.0
vertex 148.42834863286 -412.118874201375 2.0
vertex 156.32834863286 -412.118874201375 2.0
endloop
endfacet
facet normal 0.0 0.0 1.0
outer loop
vertex 150.27834863286 -411.856180897269 2.0
vertex 156.32834863286 -412.118874201375 2.0
vertex 152.37834863286 -411.856180897269 2.0
endloop
endfacet
facet normal 0.0 0.0 1.0
outer loop
vertex 152.37834863286 -411.856180897269 2.0
vertex 156.32834863286 -412.118874201375 2.0
vertex 154.47834863286 -411.856180897269 2.0
endloop
endfacet
facet normal 0.0 0.0 1.0
outer loop
vertex 154.47834863286 -411.856180897269 2.0
vertex 156.32834863286 -412.118874201375 2.0
vertex 155.654588202157 -409.818874201375 2.0
endloop
endfacet
facet normal 0.0 0.0 1.0
outer loop
vertex 155.654588202157 -409.818874201375 2.0
vertex 156.32834863286 -412.118874201375 2.0
vertex 156.918092222604 -409.818874201375 2.0
endloop
endfacet
facet normal 0.0 -1.0 0.0
outer loop
vertex 156.918092222604 -409.818874201375 2.2
vertex 155.654588202157 -409.818874201375 2.0
vertex 156.918092222604 -409.818874201375 2.0
endloop
endfacet
facet normal 0.0 -1.0 0.0
outer loop
vertex 155.654588202157 -409.818874201375 2.0
vertex 156.918092222604 -409.818874201375 2.2
vertex 155.654588202157 -409.818874201375 2.2
endloop
endfacet
facet normal 0.0 1.0 0.0
outer loop
vertex 148.42834863286 -404.318874201375 2.0
vertex 156.32834863286 -404.318874201375 -1.3
vertex 148.42834863286 -404.318874201375 -1.3
endloop
endfacet
facet normal 0.0 1.0 0.0
outer loop
vertex 156.32834863286 -404.318874201375 -1.3
vertex 148.42834863286 -404.318874201375 2.0
vertex 156.32834863286 -404.318874201375 2.0
endloop
endfacet
facet normal 0.0 1.0 0.0
outer loop
vertex 156.32834863286 -404.318874201375 2.0
vertex 148.42834863286 -404.318874201375 2.0
vertex 155.32834863286 -404.318874201375 2.0
endloop
endfacet
facet normal -0.0 -0.0 1.0
outer loop
vertex 150.27834863286 -411.856180897269 -0.5
vertex 150.349904397653 -408.76239419609 -0.5
vertex 150.27834863286 -408.218874201375 -0.5
endloop
endfacet
facet normal -0.0 -0.0 1.0
outer loop
vertex 150.349904397653 -408.76239419609 -0.5
vertex 150.27834863286 -411.856180897269 -0.5
vertex 150.559695284913 -409.268874201375 -0.5
endloop
endfacet
facet normal -0.0 -0.0 1.0
outer loop
vertex 150.559695284913 -409.268874201375 -0.5
vertex 150.27834863286 -411.856180897269 -0.5
vertex 152.37834863286 -411.856180897269 -0.5
endloop
endfacet
facet normal -0.0 -0.0 1.0
outer loop
vertex 150.559695284913 -409.268874201375 -0.5
vertex 152.37834863286 -411.856180897269 -0.5
vertex 150.893424392368 -409.703798441866 -0.5
endloop
endfacet
facet normal -0.0 -0.0 1.0
outer loop
vertex 150.893424392368 -409.703798441866 -0.5
vertex 152.37834863286 -411.856180897269 -0.5
vertex 151.32834863286 -410.037527549322 -0.5
endloop
endfacet
facet normal -0.0 -0.0 1.0
outer loop
vertex 151.32834863286 -410.037527549322 -0.5
vertex 152.37834863286 -411.856180897269 -0.5
vertex 151.834828638145 -410.247318436582 -0.5
endloop
endfacet
facet normal -0.0 -0.0 1.0
outer loop
vertex 151.834828638145 -410.247318436582 -0.5
vertex 152.37834863286 -411.856180897269 -0.5
vertex 152.37834863286 -410.318874201375 -0.5
endloop
endfacet
facet normal -0.0 -0.0 1.0
outer loop
vertex 152.37834863286 -410.318874201375 -0.5
vertex 152.37834863286 -411.856180897269 -0.5
vertex 154.47834863286 -411.856180897269 -0.5
endloop
endfacet
facet normal -0.0 -0.0 1.0
outer loop
vertex 152.37834863286 -410.318874201375 -0.5
vertex 154.47834863286 -411.856180897269 -0.5
vertex 152.921868627575 -410.247318436582 -0.5
endloop
endfacet
facet normal -0.0 -0.0 1.0
outer loop
vertex 152.921868627575 -410.247318436582 -0.5
vertex 154.47834863286 -411.856180897269 -0.5
vertex 153.42834863286 -410.037527549322 -0.5
endloop
endfacet
facet normal -0.0 -0.0 1.0
outer loop
vertex 153.42834863286 -410.037527549322 -0.5
vertex 154.47834863286 -411.856180897269 -0.5
vertex 153.863272873352 -409.703798441866 -0.5
endloop
endfacet
facet normal -0.0 -0.0 1.0
outer loop
vertex 153.863272873352 -409.703798441866 -0.5
vertex 154.47834863286 -411.856180897269 -0.5
vertex 154.197001980808 -409.268874201375 -0.5
endloop
endfacet
facet normal -0.0 -0.0 1.0
outer loop
vertex 154.197001980808 -409.268874201375 -0.5
vertex 154.47834863286 -411.856180897269 -0.5
vertex 154.406792868067 -408.76239419609 -0.5
endloop
endfacet
facet normal -0.0 -0.0 1.0
outer loop
vertex 154.406792868067 -408.76239419609 -0.5
vertex 154.47834863286 -411.856180897269 -0.5
vertex 154.47834863286 -408.218874201375 -0.5
endloop
endfacet
facet normal -0.0 -0.0 1.0
outer loop
vertex 154.47834863286 -408.218874201375 -0.5
vertex 154.47834863286 -411.856180897269 -0.5
vertex 156.32834863286 -408.651886903267 -0.5
endloop
endfacet
facet normal -0.0 -0.0 1.0
outer loop
vertex 154.47834863286 -408.218874201375 -0.5
vertex 156.32834863286 -408.651886903267 -0.5
vertex 154.47834863286 -404.58156750548 -0.5
endloop
endfacet
facet normal -0.0 -0.0 1.0
outer loop
vertex 154.47834863286 -404.58156750548 -0.5
vertex 156.32834863286 -408.651886903267 -0.5
vertex 156.32834863286 -407.785861499482 -0.5
endloop
endfacet
facet normal -0.0 -0.0 1.0
outer loop
vertex 156.32834863286 -407.785861499482 -0.5
vertex 156.32834863286 -408.651886903267 -0.5
vertex 156.57834863286 -408.218874201375 -0.499999999999998
endloop
endfacet
facet normal -0.0 -0.0 1.0
outer loop
vertex 148.42834863286 -408.651886903267 -0.5
vertex 148.42834863286 -407.785861499482 -0.5
vertex 148.17834863286 -408.218874201375 -0.499999999999998
endloop
endfacet
facet normal -0.0 -0.0 1.0
outer loop
vertex 148.42834863286 -407.785861499482 -0.5
vertex 148.42834863286 -408.651886903267 -0.5
vertex 150.27834863286 -411.856180897269 -0.5
endloop
endfacet
facet normal -0.0 -0.0 1.0
outer loop
vertex 148.42834863286 -407.785861499482 -0.5
vertex 150.27834863286 -411.856180897269 -0.5
vertex 150.27834863286 -404.58156750548 -0.5
endloop
endfacet
facet normal -0.0 -0.0 1.0
outer loop
vertex 150.27834863286 -404.58156750548 -0.5
vertex 150.27834863286 -411.856180897269 -0.5
vertex 150.27834863286 -408.218874201375 -0.5
endloop
endfacet
facet normal -0.0 -0.0 1.0
outer loop
vertex 150.27834863286 -404.58156750548 -0.5
vertex 150.27834863286 -408.218874201375 -0.5
vertex 150.349904397653 -407.675354206659 -0.5
endloop
endfacet
facet normal -0.0 -0.0 1.0
outer loop
vertex 150.27834863286 -404.58156750548 -0.5
vertex 150.349904397653 -407.675354206659 -0.5
vertex 150.559695284913 -407.168874201374 -0.5
endloop
endfacet
facet normal -0.0 -0.0 1.0
outer loop
vertex 150.27834863286 -404.58156750548 -0.5
vertex 150.559695284913 -407.168874201374 -0.5
vertex 152.37834863286 -404.58156750548 -0.5
endloop
endfacet
facet normal -0.0 -0.0 1.0
outer loop
vertex 152.37834863286 -404.58156750548 -0.5
vertex 150.559695284913 -407.168874201374 -0.5
vertex 150.893424392368 -406.733949960883 -0.5
endloop
endfacet
facet normal -0.0 -0.0 1.0
outer loop
vertex 152.37834863286 -404.58156750548 -0.5
vertex 150.893424392368 -406.733949960883 -0.5
vertex 151.32834863286 -406.400220853427 -0.5
endloop
endfacet
facet normal -0.0 -0.0 1.0
outer loop
vertex 152.37834863286 -404.58156750548 -0.5
vertex 151.32834863286 -406.400220853427 -0.5
vertex 151.834828638145 -406.190429966167 -0.5
endloop
endfacet
facet normal -0.0 -0.0 1.0
outer loop
vertex 152.37834863286 -404.58156750548 -0.5
vertex 151.834828638145 -406.190429966167 -0.5
vertex 152.37834863286 -406.118874201375 -0.5
endloop
endfacet
facet normal -0.0 -0.0 1.0
outer loop
vertex 152.37834863286 -404.58156750548 -0.5
vertex 152.37834863286 -406.118874201375 -0.5
vertex 152.921868627575 -406.190429966167 -0.5
endloop
endfacet
facet normal -0.0 -0.0 1.0
outer loop
vertex 152.37834863286 -404.58156750548 -0.5
vertex 152.921868627575 -406.190429966167 -0.5
vertex 154.47834863286 -404.58156750548 -0.5
endloop
endfacet
facet normal -0.0 -0.0 1.0
outer loop
vertex 154.47834863286 -404.58156750548 -0.5
vertex 152.921868627575 -406.190429966167 -0.5
vertex 153.42834863286 -406.400220853427 -0.5
endloop
endfacet
facet normal -0.0 -0.0 1.0
outer loop
vertex 154.47834863286 -404.58156750548 -0.5
vertex 153.42834863286 -406.400220853427 -0.5
vertex 153.863272873352 -406.733949960883 -0.5
endloop
endfacet
facet normal -0.0 -0.0 1.0
outer loop
vertex 154.47834863286 -404.58156750548 -0.5
vertex 153.863272873352 -406.733949960883 -0.5
vertex 154.197001980808 -407.168874201374 -0.5
endloop
endfacet
facet normal -0.0 -0.0 1.0
outer loop
vertex 154.47834863286 -404.58156750548 -0.5
vertex 154.197001980808 -407.168874201374 -0.5
vertex 154.406792868067 -407.675354206659 -0.5
endloop
endfacet
facet normal -0.0 -0.0 1.0
outer loop
vertex 154.47834863286 -404.58156750548 -0.5
vertex 154.406792868067 -407.675354206659 -0.5
vertex 154.47834863286 -408.218874201375 -0.5
endloop
endfacet
facet normal -0.707106781186541 -0.707106781186554 1.01150159762531e-29
outer loop
vertex 153.863272873352 -406.733949960883 -0.5
vertex 154.197001980808 -407.168874201374 -1.3
vertex 154.197001980808 -407.168874201374 -0.5
endloop
endfacet
facet normal -0.866025403784421 -0.500000000000031 1.01150159762532e-29
outer loop
vertex 154.197001980808 -407.168874201374 -1.3
vertex 153.863272873352 -406.733949960883 -0.5
vertex 153.863272873352 -406.733949960883 -1.3
endloop
endfacet
facet normal -0.500000000000023 -0.866025403784425 6.36538284731868e-18
outer loop
vertex 153.42834863286 -406.400220853427 -0.5
vertex 152.921868627575 -406.190429966167 -1.3
vertex 153.42834863286 -406.400220853427 -1.3
endloop
endfacet
facet normal -0.258819045102493 -0.965925826289076 6.36538284731826e-18
outer loop
vertex 152.921868627575 -406.190429966167 -1.3
vertex 153.42834863286 -406.400220853427 -0.5
vertex 152.921868627575 -406.190429966167 -0.5
endloop
endfacet
facet normal -0.866025403784439 0.499999999999998 9.94460027490581e-16
outer loop
vertex 156.32834863286 -408.651886903267 2.2
vertex 155.654588202157 -409.818874201375 2.0
vertex 155.654588202157 -409.818874201375 2.2
endloop
endfacet
facet normal -0.866025403784439 0.499999999999998 9.94460027490581e-16
outer loop
vertex 155.654588202157 -409.818874201375 2.0
vertex 154.47834863286 -411.856180897269 -0.5
vertex 154.47834863286 -411.856180897269 2.0
endloop
endfacet
facet normal -0.866025403784439 0.499999999999998 9.94460027490581e-16
outer loop
vertex 154.47834863286 -411.856180897269 -0.5
vertex 155.654588202157 -409.818874201375 2.0
vertex 156.32834863286 -408.651886903267 -0.5
endloop
endfacet
facet normal -0.866025403784439 0.499999999999998 9.94460027490581e-16
outer loop
vertex 156.32834863286 -408.651886903267 -0.5
vertex 155.654588202157 -409.818874201375 2.0
vertex 156.32834863286 -408.651886903267 2.2
endloop
endfacet
facet normal -0.866025403784439 0.499999999999998 9.94460027490581e-16
outer loop
vertex 156.32834863286 -408.651886903267 -0.5
vertex 156.32834863286 -408.651886903267 2.2
vertex 156.57834863286 -408.218874201375 2.2
endloop
endfacet
facet normal -0.866025403784439 0.499999999999998 9.94460027490581e-16
outer loop
vertex 156.32834863286 -408.651886903267 -0.5
vertex 156.57834863286 -408.218874201375 2.2
vertex 156.57834863286 -408.218874201375 -0.499999999999998
endloop
endfacet
facet normal -0.866025403784421 0.500000000000031 1.01150159762532e-29
outer loop
vertex 154.197001980808 -409.268874201375 -0.5
vertex 153.863272873352 -409.703798441866 -1.3
vertex 153.863272873352 -409.703798441866 -0.5
endloop
endfacet
facet normal -0.707106781186532 0.707106781186563 8.20768312405077e-30
outer loop
vertex 153.863272873352 -409.703798441866 -1.3
vertex 154.197001980808 -409.268874201375 -0.5
vertex 154.197001980808 -409.268874201375 -1.3
endloop
endfacet
facet normal -0.500000000000019 0.866025403784428 6.36538284731551e-18
outer loop
vertex 153.42834863286 -410.037527549322 -0.5
vertex 153.863272873352 -409.703798441866 -1.3
vertex 153.42834863286 -410.037527549322 -1.3
endloop
endfacet
facet normal -0.707106781186532 0.707106781186563 8.20768312405077e-30
outer loop
vertex 153.863272873352 -409.703798441866 -1.3
vertex 153.42834863286 -410.037527549322 -0.5
vertex 153.863272873352 -409.703798441866 -0.5
endloop
endfacet
facet normal 0.0 -1.0 0.0
outer loop
vertex 156.32834863286 -412.118874201375 2.0
vertex 148.42834863286 -412.118874201375 -1.3
vertex 156.32834863286 -412.118874201375 -1.3
endloop
endfacet
facet normal 0.0 -1.0 0.0
outer loop
vertex 148.42834863286 -412.118874201375 -1.3
vertex 156.32834863286 -412.118874201375 2.0
vertex 148.42834863286 -412.118874201375 2.0
endloop
endfacet
facet normal -0.707106781186541 -0.707106781186554 1.01150159762531e-29
outer loop
vertex 153.863272873352 -406.733949960883 -0.5
vertex 153.42834863286 -406.400220853427 -1.3
vertex 153.863272873352 -406.733949960883 -1.3
endloop
endfacet
facet normal -0.500000000000023 -0.866025403784425 6.36538284731868e-18
outer loop
vertex 153.42834863286 -406.400220853427 -1.3
vertex 153.863272873352 -406.733949960883 -0.5
vertex 153.42834863286 -406.400220853427 -0.5
endloop
endfacet
facet normal -0.130526192220003 0.991444861373817 -8.10915481789495e-31
outer loop
vertex 152.37834863286 -410.318874201375 -0.5
vertex 152.921868627575 -410.247318436582 -1.3
vertex 152.37834863286 -410.318874201375 -1.3
endloop
endfacet
facet normal -0.258819045102501 0.965925826289074 6.36538284731702e-18
outer loop
vertex 152.921868627575 -410.247318436582 -1.3
vertex 152.37834863286 -410.318874201375 -0.5
vertex 152.921868627575 -410.247318436582 -0.5
endloop
endfacet
facet normal 0.968663866044045 -0.248375350267703 -9.65966138507132e-16
outer loop
vertex 157.32834863286 -408.218874201375 -1.3
vertex 156.32834863286 -412.118874201375 2.0
vertex 156.32834863286 -412.118874201375 -1.3
endloop
endfacet
facet normal 0.968663866044045 -0.248375350267703 -9.65966138507132e-16
outer loop
vertex 156.32834863286 -412.118874201375 2.0
vertex 157.32834863286 -408.218874201375 -1.3
vertex 156.918092222604 -409.818874201375 2.0
endloop
endfacet
facet normal 0.968663866044045 -0.248375350267703 -9.65966138507132e-16
outer loop
vertex 156.918092222604 -409.818874201375 2.0
vertex 157.32834863286 -408.218874201375 -1.3
vertex 156.918092222604 -409.818874201375 2.2
endloop
endfacet
facet normal 0.968663866044045 -0.248375350267703 -9.65966138507132e-16
outer loop
vertex 156.918092222604 -409.818874201375 2.2
vertex 157.32834863286 -408.218874201375 -1.3
vertex 157.32834863286 -408.218874201375 2.2
endloop
endfacet
facet normal -0.866025403784439 -0.499999999999998 9.95855434451512e-16
outer loop
vertex 156.32834863286 -407.785861499482 2.2
vertex 156.57834863286 -408.218874201375 -0.499999999999998
vertex 156.57834863286 -408.218874201375 2.2
endloop
endfacet
facet normal -0.866025403784439 -0.499999999999998 9.95855434451512e-16
outer loop
vertex 156.57834863286 -408.218874201375 -0.499999999999998
vertex 156.32834863286 -407.785861499482 2.2
vertex 156.32834863286 -407.785861499482 -0.5
endloop
endfacet
facet normal -0.866025403784439 -0.499999999999998 9.95855434451512e-16
outer loop
vertex 156.32834863286 -407.785861499482 -0.5
vertex 156.32834863286 -407.785861499482 2.2
vertex 155.654588202157 -406.618874201375 2.2
endloop
endfacet
facet normal -0.866025403784439 -0.499999999999998 9.95855434451512e-16
outer loop
vertex 156.32834863286 -407.785861499482 -0.5
vertex 155.654588202157 -406.618874201375 2.2
vertex 155.654588202157 -406.618874201375 2.0
endloop
endfacet
facet normal -0.866025403784439 -0.499999999999998 9.95855434451512e-16
outer loop
vertex 156.32834863286 -407.785861499482 -0.5
vertex 155.654588202157 -406.618874201375 2.0
vertex 154.47834863286 -404.58156750548 -0.5
endloop
endfacet
facet normal -0.866025403784439 -0.499999999999998 9.95855434451512e-16
outer loop
vertex 154.47834863286 -404.58156750548 -0.5
vertex 155.654588202157 -406.618874201375 2.0
vertex 154.47834863286 -404.58156750548 2.0
endloop
endfacet
facet normal -0.258819045102493 -0.965925826289076 6.36538284731826e-18
outer loop
vertex 152.921868627575 -406.190429966167 -0.5
vertex 152.37834863286 -406.118874201375 -1.3
vertex 152.921868627575 -406.190429966167 -1.3
endloop
endfacet
facet normal -0.130526192220003 -0.991444861373817 -8.10915481789495e-31
outer loop
vertex 152.37834863286 -406.118874201375 -1.3
vertex 152.921868627575 -406.190429966167 -0.5
vertex 152.37834863286 -406.118874201375 -0.5
endloop
endfacet
facet normal 0.0 1.0 0.0
outer loop
vertex 150.27834863286 -411.856180897269 2.0
vertex 152.37834863286 -411.856180897269 -0.5
vertex 150.27834863286 -411.856180897269 -0.5
endloop
endfacet
facet normal 0.0 1.0 0.0
outer loop
vertex 152.37834863286 -411.856180897269 -0.5
vertex 150.27834863286 -411.856180897269 2.0
vertex 154.47834863286 -411.856180897269 -0.5
endloop
endfacet
facet normal 0.0 1.0 0.0
outer loop
vertex 154.47834863286 -411.856180897269 -0.5
vertex 150.27834863286 -411.856180897269 2.0
vertex 154.47834863286 -411.856180897269 2.0
endloop
endfacet
facet normal 0.0 1.0 0.0
outer loop
vertex 154.47834863286 -411.856180897269 2.0
vertex 150.27834863286 -411.856180897269 2.0
vertex 152.37834863286 -411.856180897269 2.0
endloop
endfacet
facet normal 0.0 -1.0 0.0
outer loop
vertex 149.102109063564 -409.818874201375 2.2
vertex 147.838605043117 -409.818874201375 2.0
vertex 149.102109063564 -409.818874201375 2.0
endloop
endfacet
facet normal 0.0 -1.0 0.0
outer loop
vertex 147.838605043117 -409.818874201375 2.0
vertex 149.102109063564 -409.818874201375 2.2
vertex 147.838605043117 -409.818874201375 2.2
endloop
endfacet
endsolid kitchissippi-02
