solid K02.2
facet normal 0.25881906308184 -0.965925815550071 0.000106954981947565
outer loop
vertex 9.38225282642526 12.1395367705887 -3.00023530091439
vertex 8.85136820750297 11.919457613467 -5.00012646799824
vertex 9.38196629223766 12.1392385380903 -5.00023525815327
endloop
endfacet
facet normal 0.500000013369927 -0.866025394156117 5.75049109296927e-05
outer loop
vertex 8.85136820750297 11.919457613467 -5.00012646799824
vertex 9.38225282642526 12.1395367705887 -3.00023530091439
vertex 8.85165474169057 11.9197558459655 -3.00012651075936
endloop
endfacet
facet normal -0.000143267093793328 -0.000149116249227515 -0.999999978619442
outer loop
vertex 3.67285045210624 11.6965255232647 -4.99935131399557
vertex 3.67285052398672 8.33187801174709 -4.99884959037825
vertex 3.45136836366084 10.0142017675059 -4.99906872108595
endloop
endfacet
facet normal -0.000143267093793328 -0.000149116249227515 -0.999999978619442
outer loop
vertex 3.67285052398672 8.33187801174709 -4.99884959037825
vertex 3.67285045210624 11.6965255232647 -4.99935131399557
vertex 4.32220315101183 13.26420169524 -4.99967811086735
endloop
endfacet
facet normal -0.000143267093793328 -0.000149116249227515 -0.999999978619442
outer loop
vertex 3.67285052398672 8.33187801174709 -4.99884959037825
vertex 4.32220315101183 13.26420169524 -4.99967811086735
vertex 4.32220328987427 6.76420183977178 -4.99870885526809
endloop
endfacet
facet normal -0.000143267093793328 -0.000149116249227515 -0.999999978619442
outer loop
vertex 4.32220328987427 6.76420183977178 -4.99870885526809
vertex 4.32220315101183 13.26420169524 -4.99967811086735
vertex 5.35517414705328 14.6103957430191 -5.00002684103452
endloop
endfacet
facet normal -0.000143267093793328 -0.000149116249227515 -0.999999978619442
outer loop
vertex 4.32220328987427 6.76420183977178 -4.99870885526809
vertex 5.35517414705328 14.6103957430191 -5.00002684103452
vertex 5.35517434343442 5.41800779199273 -4.99865610662064
endloop
endfacet
facet normal -0.000143267093793328 -0.000149116249227515 -0.999999978619442
outer loop
vertex 5.35517434343442 5.41800779199273 -4.99865610662064
vertex 5.35517414705328 14.6103957430191 -5.00002684103452
vertex 6.70136817391562 15.6433667669366 -5.00037373911249
endloop
endfacet
facet normal -0.000143267093793328 -0.000149116249227515 -0.999999978619442
outer loop
vertex 5.35517434343442 5.41800779199273 -4.99865610662064
vertex 6.70136817391562 15.6433667669366 -5.00037373911249
vertex 6.70136841443241 4.38503676807523 -4.99869493916906
endloop
endfacet
facet normal -0.000143267093793328 -0.000149116249227515 -0.999999978619442
outer loop
vertex 6.70136841443241 4.38503676807523 -4.99869493916906
vertex 6.70136817391562 15.6433667669366 -5.00037373911249
vertex 8.26904433335902 16.2927194987779 -5.00069516457053
endloop
endfacet
facet normal -0.000143267093793328 -0.000149116249227515 -0.999999978619442
outer loop
vertex 6.70136841443241 4.38503676807523 -4.99869493916906
vertex 8.26904433335902 16.2927194987779 -5.00069516457053
vertex 7.75136827172443 10.0142017675059 -4.99968476958926
endloop
endfacet
facet normal -0.000143267093793328 -0.000149116249227515 -0.999999978619442
outer loop
vertex 7.75136827172443 10.0142017675059 -4.99968476958926
vertex 8.26904433335902 16.2927194987779 -5.00069516457053
vertex 7.82633144012133 10.5836036540704 -4.99978041642021
endloop
endfacet
facet normal -0.000143267093793328 -0.000149116249227515 -0.999999978619442
outer loop
vertex 7.82633144012133 10.5836036540704 -4.99978041642021
vertex 8.26904433335902 16.2927194987779 -5.00069516457053
vertex 8.04611235359707 11.1142017430467 -4.99989102459219
endloop
endfacet
facet normal -0.000143267093793328 -0.000149116249227515 -0.999999978619442
outer loop
vertex 8.04611235359707 11.1142017430467 -4.99989102459219
vertex 8.26904433335902 16.2927194987779 -5.00069516457053
vertex 8.39573330610341 11.5698366515257 -5.00000905634108
endloop
endfacet
facet normal -0.000143267093793328 -0.000149116249227515 -0.999999978619442
outer loop
vertex 8.39573330610341 11.5698366515257 -5.00000905634108
vertex 8.26904433335902 16.2927194987779 -5.00069516457053
vertex 9.95136808582476 16.5142016229741 -5.00096921279486
endloop
endfacet
facet normal -0.000143267093793328 -0.000149116249227515 -0.999999978619442
outer loop
vertex 8.39573330610341 11.5698366515257 -5.00000905634108
vertex 9.95136808582476 16.5142016229741 -5.00096921279486
vertex 8.85136820750297 11.919457613467 -5.00012646799824
endloop
endfacet
facet normal -0.000143267093793328 -0.000149116249227515 -0.999999978619442
outer loop
vertex 8.85136820750297 11.919457613467 -5.00012646799824
vertex 9.95136808582476 16.5142016229741 -5.00096921279486
vertex 9.38196629223766 12.1392385380903 -5.00023525815327
endloop
endfacet
facet normal -0.000143267093793328 -0.000149116249227515 -0.999999978619442
outer loop
vertex 9.38196629223766 12.1392385380903 -5.00023525815327
vertex 9.95136808582476 16.5142016229741 -5.00096921279486
vertex 9.95136817768761 12.2142017185875 -5.00032801293689
endloop
endfacet
facet normal -0.000143267093793328 -0.000149116249227515 -0.999999978619442
outer loop
vertex 9.95136817768761 12.2142017185875 -5.00032801293689
vertex 9.95136808582476 16.5142016229741 -5.00096921279486
vertex 11.6336918477538 16.2927194987779 -5.00117720785186
endloop
endfacet
facet normal -0.000143267093793328 -0.000149116249227515 -0.999999978619442
outer loop
vertex 9.95136817768761 12.2142017185875 -5.00032801293689
vertex 11.6336918477538 16.2927194987779 -5.00117720785186
vertex 10.5207700663405 12.1392385380903 -5.00039841126388
endloop
endfacet
facet normal -0.000143267093793328 -0.000149116249227515 -0.999999978619442
outer loop
vertex 10.5207700663405 12.1392385380903 -5.00039841126388
vertex 11.6336918477538 16.2927194987779 -5.00117720785186
vertex 11.0513681604657 11.919457613467 -5.00044165560459
endloop
endfacet
facet normal -0.000143267093793328 -0.000149116249227515 -0.999999978619442
outer loop
vertex 11.0513681604657 11.919457613467 -5.00044165560459
vertex 11.6336918477538 16.2927194987779 -5.00117720785186
vertex 11.5070030768035 11.5698366515257 -5.00045479892867
endloop
endfacet
facet normal -0.000143267093793328 -0.000149116249227515 -0.999999978619442
outer loop
vertex 11.5070030768035 11.5698366515257 -5.00045479892867
vertex 11.6336918477538 16.2927194987779 -5.00117720785186
vertex 11.8566240487777 11.1142017430467 -5.0004369455403
endloop
endfacet
facet normal -0.000143267093793328 -0.000149116249227515 -0.999999978619442
outer loop
vertex 11.8566240487777 11.1142017430467 -5.0004369455403
vertex 11.6336918477538 16.2927194987779 -5.00117720785186
vertex 13.201368034942 15.6433667669366 -5.00130497522215
endloop
endfacet
facet normal -0.000143267093793328 -0.000149116249227515 -0.999999978619442
outer loop
vertex 11.8566240487777 11.1142017430467 -5.0004369455403
vertex 13.201368034942 15.6433667669366 -5.00130497522215
vertex 12.0764049849243 10.5836036540704 -5.0003893121184
endloop
endfacet
facet normal -0.000143267093793328 -0.000149116249227515 -0.999999978619442
outer loop
vertex 12.0764049849243 10.5836036540704 -5.0003893121184
vertex 13.201368034942 15.6433667669366 -5.00130497522215
vertex 12.15136817765 10.0142017675059 -5.00031514480195
endloop
endfacet
facet normal -0.000143267093793328 -0.000149116249227515 -0.999999978619442
outer loop
vertex 7.75136827172443 10.0142017675059 -4.99968476958926
vertex 8.26904460162064 3.73568403623392 -4.99882270653934
vertex 6.70136841443241 4.38503676807523 -4.99869493916906
endloop
endfacet
facet normal -0.000143267093793328 -0.000149116249227515 -0.999999978619442
outer loop
vertex 8.26904460162064 3.73568403623392 -4.99882270653934
vertex 7.75136827172443 10.0142017675059 -4.99968476958926
vertex 7.82633146445011 9.44479988094138 -4.99961060227281
endloop
endfacet
facet normal -0.000143267093793328 -0.000149116249227515 -0.999999978619442
outer loop
vertex 8.26904460162064 3.73568403623392 -4.99882270653934
vertex 7.82633146445011 9.44479988094138 -4.99961060227281
vertex 8.04611240059666 8.91420179196512 -4.99956296885091
endloop
endfacet
facet normal -0.000143267093793328 -0.000149116249227515 -0.999999978619442
outer loop
vertex 8.26904460162064 3.73568403623392 -4.99882270653934
vertex 8.04611240059666 8.91420179196512 -4.99956296885091
vertex 8.39573337257087 8.45856688348606 -4.99954511546254
endloop
endfacet
facet normal -0.000143267093793328 -0.000149116249227515 -0.999999978619442
outer loop
vertex 8.26904460162064 3.73568403623392 -4.99882270653934
vertex 8.39573337257087 8.45856688348606 -4.99954511546254
vertex 9.95136836354964 3.51420191203766 -4.99903070159635
endloop
endfacet
facet normal -0.000143267093793328 -0.000149116249227515 -0.999999978619442
outer loop
vertex 9.95136836354964 3.51420191203766 -4.99903070159635
vertex 8.39573337257087 8.45856688348606 -4.99954511546254
vertex 8.85136828890865 8.10894592154475 -4.99955825878662
endloop
endfacet
facet normal -0.000143267093793328 -0.000149116249227515 -0.999999978619442
outer loop
vertex 9.95136836354964 3.51420191203766 -4.99903070159635
vertex 8.85136828890865 8.10894592154475 -4.99955825878662
vertex 9.3819663830339 7.88916499692153 -4.99960150312733
endloop
endfacet
facet normal -0.000143267093793328 -0.000149116249227515 -0.999999978619442
outer loop
vertex 9.95136836354964 3.51420191203766 -4.99903070159635
vertex 9.3819663830339 7.88916499692153 -4.99960150312733
vertex 9.95136827168679 7.81420181642434 -4.99967190145432
endloop
endfacet
facet normal -0.000143267093793328 -0.000149116249227515 -0.999999978619442
outer loop
vertex 9.95136836354964 3.51420191203766 -4.99903070159635
vertex 9.95136827168679 7.81420181642434 -4.99967190145432
vertex 10.5207701571367 7.88916499692153 -4.99976465623793
endloop
endfacet
facet normal -0.000143267093793328 -0.000149116249227515 -0.999999978619442
outer loop
vertex 9.95136836354964 3.51420191203766 -4.99903070159635
vertex 10.5207701571367 7.88916499692153 -4.99976465623793
vertex 11.6336921160154 3.73568403623392 -4.99930474982067
endloop
endfacet
facet normal -0.000143267093793328 -0.000149116249227515 -0.999999978619442
outer loop
vertex 11.6336921160154 3.73568403623392 -4.99930474982067
vertex 10.5207701571367 7.88916499692153 -4.99976465623793
vertex 11.0513682418714 8.10894592154475 -4.99987344639296
endloop
endfacet
facet normal -0.000143267093793328 -0.000149116249227515 -0.999999978619442
outer loop
vertex 11.6336921160154 3.73568403623392 -4.99930474982067
vertex 11.0513682418714 8.10894592154475 -4.99987344639296
vertex 11.507003143271 8.45856688348606 -4.99999085805012
endloop
endfacet
facet normal -0.000143267093793328 -0.000149116249227515 -0.999999978619442
outer loop
vertex 11.6336921160154 3.73568403623392 -4.99930474982067
vertex 11.507003143271 8.45856688348606 -4.99999085805012
vertex 11.8566240957773 8.91420179196512 -5.00010888979901
endloop
endfacet
facet normal -0.000143267093793328 -0.000149116249227515 -0.999999978619442
outer loop
vertex 11.6336921160154 3.73568403623392 -4.99930474982067
vertex 11.8566240957773 8.91420179196512 -5.00010888979901
vertex 13.2013682754588 4.38503676807522 -4.99962617527872
endloop
endfacet
facet normal -0.000143267093793328 -0.000149116249227515 -0.999999978619442
outer loop
vertex 13.2013682754588 4.38503676807522 -4.99962617527872
vertex 11.8566240957773 8.91420179196512 -5.00010888979901
vertex 12.0764050092531 9.44479988094138 -5.000219497971
endloop
endfacet
facet normal -0.000143267093793328 -0.000149116249227515 -0.999999978619442
outer loop
vertex 13.2013682754588 4.38503676807522 -4.99962617527872
vertex 12.0764050092531 9.44479988094138 -5.000219497971
vertex 12.15136817765 10.0142017675059 -5.00031514480195
endloop
endfacet
facet normal -0.000143267093793328 -0.000149116249227515 -0.999999978619442
outer loop
vertex 13.2013682754588 4.38503676807522 -4.99962617527872
vertex 12.15136817765 10.0142017675059 -5.00031514480195
vertex 13.201368034942 15.6433667669366 -5.00130497522215
endloop
endfacet
facet normal -0.000143267093793328 -0.000149116249227515 -0.999999978619442
outer loop
vertex 13.2013682754588 4.38503676807522 -4.99962617527872
vertex 13.201368034942 15.6433667669366 -5.00130497522215
vertex 14.54756210594 14.6103957430191 -5.00134380777056
endloop
endfacet
facet normal -0.000143267093793328 -0.000149116249227515 -0.999999978619442
outer loop
vertex 13.2013682754588 4.38503676807522 -4.99962617527872
vertex 14.54756210594 14.6103957430191 -5.00134380777056
vertex 14.5475623023212 5.41800779199273 -4.99997307335669
endloop
endfacet
facet normal -0.000143267093793328 -0.000149116249227515 -0.999999978619442
outer loop
vertex 14.5475623023212 5.41800779199273 -4.99997307335669
vertex 14.54756210594 14.6103957430191 -5.00134380777056
vertex 15.5805331595002 13.26420169524 -5.00129105912311
endloop
endfacet
facet normal -0.000143267093793328 -0.000149116249227515 -0.999999978619442
outer loop
vertex 14.5475623023212 5.41800779199273 -4.99997307335669
vertex 15.5805331595002 13.26420169524 -5.00129105912311
vertex 15.5805332983626 6.76420183977178 -5.00032180352386
endloop
endfacet
facet normal -0.000143267093793328 -0.000149116249227515 -0.999999978619442
outer loop
vertex 15.5805332983626 6.76420183977178 -5.00032180352386
vertex 15.5805331595002 13.26420169524 -5.00129105912311
vertex 16.2298859253877 11.6965255232647 -5.00115032401295
endloop
endfacet
facet normal -0.000143267093793328 -0.000149116249227515 -0.999999978619442
outer loop
vertex 15.5805332983626 6.76420183977178 -5.00032180352386
vertex 16.2298859253877 11.6965255232647 -5.00115032401295
vertex 16.2298859972682 8.33187801174709 -5.00064860039563
endloop
endfacet
facet normal -0.000143267093793328 -0.000149116249227515 -0.999999978619442
outer loop
vertex 16.2298859972682 8.33187801174709 -5.00064860039563
vertex 16.2298859253877 11.6965255232647 -5.00115032401295
vertex 16.4513680857136 10.0142017675059 -5.00093119330526
endloop
endfacet
facet normal 0.866025405578379 -0.499999994441086 -4.95148202822243e-05
outer loop
vertex 8.04611235359707 11.1142017430467 -4.99989102459219
vertex 7.82661797430893 10.5839018865689 -2.99978045918132
vertex 7.82633144012133 10.5836036540704 -4.99978041642021
endloop
endfacet
facet normal 0.9659258219053 -0.258819042225016 -9.9791262652645e-05
outer loop
vertex 7.82661797430893 10.5839018865689 -2.99978045918132
vertex 8.04611235359707 11.1142017430467 -4.99989102459219
vertex 8.04639888778467 11.1144999755451 -2.99989106735331
endloop
endfacet
facet normal 0.500023848323677 -0.866011620936419 0.000153331851741061
outer loop
vertex 15.4516548447959 0.488220770198606 -2.99936744594352
vertex 12.7975182843721 -0.611876782911275 -5.9988233241239
vertex 15.4505087080456 0.487027840204787 -5.99936727489905
endloop
endfacet
facet normal 0.258795409767191 -0.965932116936912 0.000285224837705483
outer loop
vertex 12.7975182843721 -0.611876782911275 -5.9988233241239
vertex 15.4516548447959 0.488220770198606 -2.99936744594352
vertex 12.7986644211225 -0.610683852917456 -2.99882349516838
endloop
endfacet
facet normal 0.832706205722205 0.480750206198945 -0.27473553499939
outer loop
vertex 17.7447369934039 14.5133069699501 -13.0017875085042
vertex 20.5756924233099 12.8603165028331 -6.00194660352622
vertex 18.6438408230943 12.3426784241381 -13.0015926445055
endloop
endfacet
facet normal 0.928766928399944 0.248823715629277 -0.274733964501977
outer loop
vertex 20.5756924233099 12.8603165028331 -6.00194660352622
vertex 17.7447369934039 14.5133069699501 -13.0017875085042
vertex 19.4767877425771 15.5133069477144 -6.00218477063573
endloop
endfacet
facet normal -0.000143267095662789 2.78632615844811e-05 -0.999999989349089
outer loop
vertex 9.95050842985337 19.0133068698896 -13.0013418751266
vertex 8.26818473079626 16.2918248012825 -13.0011374850631
vertex 7.62113708028542 18.7066393133102 -13.0009624237391
endloop
endfacet
facet normal -0.0001890727617786 2.18328299298952e-05 -0.999999981887409
outer loop
vertex 8.26818473079626 16.2918248012825 -13.0011374850631
vertex 9.95050842985337 19.0133068698896 -13.0013418751266
vertex 9.95050848326199 16.5133069254788 -13.0014115332874
endloop
endfacet
facet normal -0.000268410502033226 -2.39728398675275e-05 -0.999999963690552
outer loop
vertex 3.58654759155437 16.3772679591826 -13.0000370526892
vertex 4.32134354844908 13.2633069977446 -13.0001204313599
vertex 2.15628005857391 14.5133069699501 -12.9995541955347
endloop
endfacet
facet normal -0.00029653583817526 -6.06264952489534e-05 -0.999999954195462
outer loop
vertex 4.32134354844908 13.2633069977446 -13.0001204313599
vertex 3.58654759155437 16.3772679591826 -13.0000370526892
vertex 5.35431454449052 14.6095010455237 -13.0004691615271
endloop
endfacet
facet normal -0.000189072752360547 -0.00032006531493911 -0.999999930904842
outer loop
vertex 8.26818499905787 3.73478933873855 -12.9992650270319
vertex 9.95050881439549 1.01330727013143 -12.9986577826979
vertex 7.62113745172458 1.31997482671086 -12.998369789542
endloop
endfacet
facet normal -0.000143267088101248 -0.000326095746027831 -0.999999936568051
outer loop
vertex 9.95050881439549 1.01330727013143 -12.9986577826979
vertex 8.26818499905787 3.73478933873855 -12.9992650270319
vertex 9.95050876098687 3.51330721454229 -12.9994730220889
endloop
endfacet
facet normal -0.000189072762682413 2.18328296877193e-05 -0.999999981887409
outer loop
vertex 7.62113708028542 18.7066393133102 -13.0009624237391
vertex 6.70050857135285 15.6424720694412 -13.000816059605
vertex 5.45050855182532 17.8075355307607 -13.0005173731049
endloop
endfacet
facet normal -0.000231756847193292 4.15250120757041e-06 -0.99999997313576
outer loop
vertex 6.70050857135285 15.6424720694412 -13.000816059605
vertex 7.62113708028542 18.7066393133102 -13.0009624237391
vertex 8.26818473079626 16.2918248012825 -13.0011374850631
endloop
endfacet
facet normal 0.707103751407941 -0.707109810945366 3.10247595884254e-06
outer loop
vertex 5.35431454449052 14.6095010455237 -13.0004691615271
vertex 4.32220315101183 13.26420169524 -4.99967811086735
vertex 4.32134354844908 13.2633069977446 -13.0001204313599
endloop
endfacet
facet normal 0.866027493028659 -0.499996379926405 -3.71346897720083e-05
outer loop
vertex 4.32220315101183 13.26420169524 -4.99967811086735
vertex 5.35431454449052 14.6095010455237 -13.0004691615271
vertex 5.35517414705328 14.6103957430191 -5.00002684103452
endloop
endfacet
facet normal -5.47773398005218e-05 4.15250485668183e-06 -0.9999999984911
outer loop
vertex 14.4505083594003 17.8075355307607 -13.001806776949
vertex 14.5467025033773 14.6095010455237 -13.0017861282631
vertex 13.2005084323792 15.6424720694412 -13.0017472957147
endloop
endfacet
facet normal -1.81236822731058e-05 -2.39728350322166e-05 -0.999999999548418
outer loop
vertex 14.5467025033773 14.6095010455237 -13.0017861282631
vertex 14.4505083594003 17.8075355307607 -13.001806776949
vertex 16.3144693807821 16.3772679591826 -13.001860545093
endloop
endfacet
facet normal -0.707106826050121 -0.707106719323525 0.000155051108534272
outer loop
vertex 14.54756210594 14.6103957430191 -5.00134380777056
vertex 13.2005084323792 15.6424720694412 -13.0017472957147
vertex 14.5467025033773 14.6095010455237 -13.0017861282631
endloop
endfacet
facet normal -0.500000873878613 -0.866024886160371 0.000150570716079204
outer loop
vertex 13.2005084323792 15.6424720694412 -13.0017472957147
vertex 14.54756210594 14.6103957430191 -5.00134380777056
vertex 13.201368034942 15.6433667669366 -5.00130497522215
endloop
endfacet
facet normal -9.74614277403462e-05 2.18328320976599e-05 -0.999999995012299
outer loop
vertex 12.2798797925243 18.7066393133102 -13.0016298682825
vertex 9.95050848326199 16.5133069254788 -13.0014115332874
vertex 9.95050842985337 19.0133068698896 -13.0013418751266
endloop
endfacet
facet normal -0.000143267094905332 2.78632615844812e-05 -0.999999989349089
outer loop
vertex 9.95050848326199 16.5133069254788 -13.0014115332874
vertex 12.2798797925243 18.7066393133102 -13.0016298682825
vertex 11.632832245191 16.2918248012825 -13.0016195283444
endloop
endfacet
facet normal -0.866025987664737 -0.499998966497674 0.000148965011393637
outer loop
vertex 15.5805331595002 13.26420169524 -5.00129105912311
vertex 14.5467025033773 14.6095010455237 -13.0017861282631
vertex 15.5796735569374 13.2633069977446 -13.0017333796157
endloop
endfacet
facet normal -0.707106704520321 -0.707106840853322 0.000155051109067378
outer loop
vertex 14.5467025033773 14.6095010455237 -13.0017861282631
vertex 15.5805331595002 13.26420169524 -5.00129105912311
vertex 14.54756210594 14.6103957430191 -5.00134380777056
endloop
endfacet
facet normal -0.707103751407939 0.707109810945368 -3.10247595852204e-06
outer loop
vertex 14.5475623023212 5.41800779199273 -4.99997307335669
vertex 15.5796736957998 6.76330714227641 -13.0007641240164
vertex 14.5467026997584 5.41711309449736 -13.0004153938492
endloop
endfacet
facet normal -0.86602749302866 0.499996379926405 3.71346897722987e-05
outer loop
vertex 15.5796736957998 6.76330714227641 -13.0007641240164
vertex 14.5475623023212 5.41800779199273 -4.99997307335669
vertex 15.5805332983626 6.76420183977178 -5.00032180352386
endloop
endfacet
facet normal -0.258822611034065 0.965924867463124 -8.02113125974449e-05
outer loop
vertex 11.6328325134526 3.73478933873855 -12.9997470703132
vertex 13.2013682754588 4.38503676807522 -4.99962617527872
vertex 13.200508672896 4.38414207057986 -13.0000684957713
endloop
endfacet
facet normal -0.499996437152418 0.866027459711849 -4.31269130574369e-05
outer loop
vertex 13.2013682754588 4.38503676807522 -4.99962617527872
vertex 11.6328325134526 3.73478933873855 -12.9997470703132
vertex 11.6336921160154 3.73568403623392 -4.99930474982067
endloop
endfacet
facet normal 0.499999091968946 0.866025914946378 -0.000150570639672989
outer loop
vertex 6.70050881186964 4.38414207057986 -12.9991372596616
vertex 8.26904460162064 3.73568403623392 -4.99882270653934
vertex 8.26818499905787 3.73478933873855 -12.9992650270319
endloop
endfacet
facet normal 0.258821030769106 0.965925284678908 -0.000135829259274705
outer loop
vertex 8.26904460162064 3.73568403623392 -4.99882270653934
vertex 6.70050881186964 4.38414207057986 -12.9991372596616
vertex 6.70136841443241 4.38503676807523 -4.99869493916906
endloop
endfacet
facet normal -0.500003585368112 0.866023332687526 -4.31256834925628e-05
outer loop
vertex 13.200508672896 4.38414207057986 -13.0000684957713
vertex 14.5475623023212 5.41800779199273 -4.99997307335669
vertex 14.5467026997584 5.41711309449736 -13.0004153938492
endloop
endfacet
facet normal -0.707103751407939 0.707109810945368 -3.10247595852204e-06
outer loop
vertex 14.5475623023212 5.41800779199273 -4.99997307335669
vertex 13.200508672896 4.38414207057986 -13.0000684957713
vertex 13.2013682754588 4.38503676807522 -4.99962617527872
endloop
endfacet
facet normal -0.866025384214927 -0.499999994441086 0.000198631067979399
outer loop
vertex 11.8569105829653 11.1144999755451 -3.00043698830142
vertex 11.5070030768035 11.5698366515257 -5.00045479892867
vertex 11.8566240487777 11.1142017430467 -5.0004369455403
endloop
endfacet
facet normal -0.70710675882346 -0.707106773325056 0.00020674624460021
outer loop
vertex 11.5070030768035 11.5698366515257 -5.00045479892867
vertex 11.8569105829653 11.1144999755451 -3.00043698830142
vertex 11.5072896109911 11.5701348840242 -3.00045484168978
endloop
endfacet
facet normal -0.999999926809738 2.06876992512947e-05 0.000382037350942849
outer loop
vertex -1.04834500593907 10.0145000000044 -2.99842406192499
vertex -0.674675300704888 12.8603165028331 -5.99890212503527
vertex -1.04949114268941 10.0133070700105 -5.99842389088052
endloop
endfacet
facet normal -0.965932276276365 0.258794835393928 0.000266122134771587
outer loop
vertex -0.674675300704888 12.8603165028331 -5.99890212503527
vertex -1.04834500593907 10.0145000000044 -2.99842406192499
vertex -0.67352916395454 12.861509432827 -2.99890229607974
endloop
endfacet
facet normal 0.679849140722521 -0.679951185453843 -0.274720824217538
outer loop
vertex 17.7286832150434 2.23513264991133 -5.99995433318486
vertex 14.4505086924235 2.21907860926037 -12.9994822847196
vertex 16.3144696526945 3.64934618083845 -12.9999626051353
endloop
endfacet
facet normal 0.480728991069483 -0.832724584543803 -0.274716951500391
outer loop
vertex 14.4505086924235 2.21907860926037 -12.9994822847196
vertex 17.7286832150434 2.23513264991133 -5.99995433318486
vertex 15.4505087080456 0.487027840204787 -5.99936727489905
endloop
endfacet
facet normal 0.965929560350572 0.258804678691373 -0.000471941103948221
outer loop
vertex 20.5756924233099 12.8603165028331 -6.00194660352622
vertex 20.9516545236887 10.0145000000044 -3.00157593798845
vertex 20.9505083869383 10.0133070700105 -6.00157576694398
endloop
endfacet
facet normal 0.999999926804959 2.06152851994269e-05 -0.000382053774799317
outer loop
vertex 20.9516545236887 10.0145000000044 -3.00157593798845
vertex 20.5756924233099 12.8603165028331 -6.00194660352622
vertex 20.5768385600602 12.861509432827 -3.00194677457069
endloop
endfacet
facet normal 1.98989985843973e-05 -0.999999920744929 0.00039763572010433
outer loop
vertex 9.95165499387276 -0.98549975540343 -2.99835972125029
vertex 7.10349941385796 -0.611876782911276 -5.99800755857088
vertex 9.9505088571224 -0.986692685397248 -5.99835955020582
endloop
endfacet
facet normal -0.258832315687778 -0.9659221495999 0.000482978271917261
outer loop
vertex 7.10349941385796 -0.611876782911276 -5.99800755857088
vertex 9.95165499387276 -0.98549975540343 -2.99835972125029
vertex 7.10464555060833 -0.610683852917458 -2.99800772961535
endloop
endfacet
facet normal -0.866023321521495 0.500003605188989 3.71334335589314e-05
outer loop
vertex 15.5805332983626 6.76420183977178 -5.00032180352386
vertex 16.2290263947054 8.33098331425172 -13.0010909208882
vertex 15.5796736957998 6.76330714227641 -13.0007641240164
endloop
endfacet
facet normal -0.965926799130762 0.258815403560147 7.48398194319294e-05
outer loop
vertex 16.2290263947054 8.33098331425172 -13.0010909208882
vertex 15.5805332983626 6.76420183977178 -5.00032180352386
vertex 16.2298859972682 8.33187801174709 -5.00064860039563
endloop
endfacet
facet normal -0.999999994223107 3.09291005096326e-06 0.000107444033234491
outer loop
vertex 16.4513680857136 10.0142017675059 -5.00093119330526
vertex 16.2290263228249 11.6956308257693 -13.0015926445055
vertex 16.4505084831508 10.0133070700105 -13.0013735137978
endloop
endfacet
facet normal -0.965925241083657 -0.258821195076636 0.00013272747244645
outer loop
vertex 16.2290263228249 11.6956308257693 -13.0015926445055
vertex 16.4513680857136 10.0142017675059 -5.00093119330526
vertex 16.2298859253877 11.6965255232647 -5.00115032401295
endloop
endfacet
facet normal 0.000143267093793306 0.000149116249227487 0.999999978619442
outer loop
vertex 7.10464555060833 -0.610683852917458 -2.99800772961535
vertex 7.82661799863771 9.44509811343984 -2.99961064503392
vertex 7.75165480591202 10.0145000000044 -2.99968481235037
endloop
endfacet
facet normal 0.000143267093793306 0.000149116249227487 0.999999978619442
outer loop
vertex 7.82661799863771 9.44509811343984 -2.99961064503392
vertex 7.10464555060833 -0.610683852917458 -2.99800772961535
vertex 9.95165499387276 -0.98549975540343 -2.99835972125029
endloop
endfacet
facet normal 0.000143267093793306 0.000149116249227487 0.999999978619442
outer loop
vertex 7.82661799863771 9.44509811343984 -2.99961064503392
vertex 9.95165499387276 -0.98549975540343 -2.99835972125029
vertex 8.04639893478426 8.91450002446358 -2.99956301161202
endloop
endfacet
facet normal 0.000143267093793306 0.000149116249227487 0.999999978619442
outer loop
vertex 8.04639893478426 8.91450002446358 -2.99956301161202
vertex 9.95165499387276 -0.98549975540343 -2.99835972125029
vertex 8.39601990675846 8.45886511598451 -2.99954515822365
endloop
endfacet
facet normal 0.000143267093793306 0.000149116249227487 0.999999978619442
outer loop
vertex 8.39601990675846 8.45886511598451 -2.99954515822365
vertex 9.95165499387276 -0.98549975540343 -2.99835972125029
vertex 8.85165482309625 8.10924415404321 -2.99955830154773
endloop
endfacet
facet normal 0.000143267093793306 0.000149116249227487 0.999999978619442
outer loop
vertex 8.85165482309625 8.10924415404321 -2.99955830154773
vertex 9.95165499387276 -0.98549975540343 -2.99835972125029
vertex 9.3822529172215 7.88946322941999 -2.99960154588845
endloop
endfacet
facet normal 0.000143267093793306 0.000149116249227487 0.999999978619442
outer loop
vertex 9.3822529172215 7.88946322941999 -2.99960154588845
vertex 9.95165499387276 -0.98549975540343 -2.99835972125029
vertex 9.95165480587439 7.8145000489228 -2.99967194421543
endloop
endfacet
facet normal 0.000143267093793306 0.000149116249227487 0.999999978619442
outer loop
vertex 9.95165480587439 7.8145000489228 -2.99967194421543
vertex 9.95165499387276 -0.98549975540343 -2.99835972125029
vertex 10.5210566913243 7.88946322941999 -2.99976469899905
endloop
endfacet
facet normal 0.000143267093793306 0.000149116249227487 0.999999978619442
outer loop
vertex 10.5210566913243 7.88946322941999 -2.99976469899905
vertex 9.95165499387276 -0.98549975540343 -2.99835972125029
vertex 12.7986644211225 -0.610683852917456 -2.99882349516838
endloop
endfacet
facet normal 0.000143267093793306 0.000149116249227487 0.999999978619442
outer loop
vertex 10.5210566913243 7.88946322941999 -2.99976469899905
vertex 12.7986644211225 -0.610683852917456 -2.99882349516838
vertex 11.051654776059 8.1092441540432 -2.99987348915408
endloop
endfacet
facet normal 0.000143267093793306 0.000149116249227487 0.999999978619442
outer loop
vertex 11.051654776059 8.1092441540432 -2.99987348915408
vertex 12.7986644211225 -0.610683852917456 -2.99882349516838
vertex 11.5072896774586 8.45886511598451 -2.99999090081124
endloop
endfacet
facet normal 0.000143267093793306 0.000149116249227487 0.999999978619442
outer loop
vertex 11.5072896774586 8.45886511598451 -2.99999090081124
vertex 12.7986644211225 -0.610683852917456 -2.99882349516838
vertex 11.8569106299649 8.91450002446358 -3.00010893256013
endloop
endfacet
facet normal 0.000143267093793306 0.000149116249227487 0.999999978619442
outer loop
vertex 11.8569106299649 8.91450002446358 -3.00010893256013
vertex 12.7986644211225 -0.610683852917456 -2.99882349516838
vertex 12.0766915434407 9.44509811343983 -3.00021954073211
endloop
endfacet
facet normal 0.000143267093793306 0.000149116249227487 0.999999978619442
outer loop
vertex 12.0766915434407 9.44509811343983 -3.00021954073211
vertex 12.7986644211225 -0.610683852917456 -2.99882349516838
vertex 12.1516547118376 10.0145000000044 -3.00031518756306
endloop
endfacet
facet normal 0.000143267093793306 0.000149116249227487 0.999999978619442
outer loop
vertex 12.1516547118376 10.0145000000044 -3.00031518756306
vertex 12.7986644211225 -0.610683852917456 -2.99882349516838
vertex 12.7986639671413 20.6396838529262 -3.00199227029809
endloop
endfacet
facet normal 0.000143267093793306 0.000149116249227487 0.999999978619442
outer loop
vertex 12.7986639671413 20.6396838529262 -3.00199227029809
vertex 12.7986644211225 -0.610683852917456 -2.99882349516838
vertex 15.4516544377675 19.5407792298101 -3.00220849200164
endloop
endfacet
facet normal 0.000143267093793306 0.000149116249227487 0.999999978619442
outer loop
vertex 15.4516544377675 19.5407792298101 -3.00220849200164
vertex 12.7986644211225 -0.610683852917456 -2.99882349516838
vertex 15.4516548447959 0.488220770198606 -2.99936744594352
endloop
endfacet
facet normal 0.000143267093793306 0.000149116249227487 0.999999978619442
outer loop
vertex 15.4516544377675 19.5407792298101 -3.00220849200164
vertex 15.4516548447959 0.488220770198606 -2.99936744594352
vertex 17.7298290194564 17.7926744201036 -3.00227420862204
endloop
endfacet
facet normal 0.000143267093793306 0.000149116249227487 0.999999978619442
outer loop
vertex 17.7298290194564 17.7926744201036 -3.00227420862204
vertex 15.4516548447959 0.488220770198606 -2.99936744594352
vertex 17.7298293517938 2.23632557990515 -2.99995450422933
endloop
endfacet
facet normal 0.000143267093793306 0.000149116249227487 0.999999978619442
outer loop
vertex 17.7298290194564 17.7926744201036 -3.00227420862204
vertex 17.7298293517938 2.23632557990515 -2.99995450422933
vertex 19.4779338793275 15.5144998777083 -3.0021849416802
endloop
endfacet
facet normal 0.000143267093793306 0.000149116249227487 0.999999978619442
outer loop
vertex 19.4779338793275 15.5144998777083 -3.0021849416802
vertex 17.7298293517938 2.23632557990515 -2.99995450422933
vertex 19.4779341143254 4.51450012230047 -3.00054466297377
endloop
endfacet
facet normal 0.000143267093793306 0.000149116249227487 0.999999978619442
outer loop
vertex 19.4779338793275 15.5144998777083 -3.0021849416802
vertex 19.4779341143254 4.51450012230047 -3.00054466297377
vertex 20.5768385600602 12.861509432827 -3.00194677457069
endloop
endfacet
facet normal 0.000143267093793306 0.000149116249227487 0.999999978619442
outer loop
vertex 20.5768385600602 12.861509432827 -3.00194677457069
vertex 19.4779341143254 4.51450012230047 -3.00054466297377
vertex 20.5768386817041 7.16749056718176 -3.00109770383369
endloop
endfacet
facet normal 0.000143267093793306 0.000149116249227487 0.999999978619442
outer loop
vertex 20.5768385600602 12.861509432827 -3.00194677457069
vertex 20.5768386817041 7.16749056718176 -3.00109770383369
vertex 20.9516545236887 10.0145000000044 -3.00157593798845
endloop
endfacet
facet normal 0.000143267093793306 0.000149116249227487 0.999999978619442
outer loop
vertex -0.67352904231064 7.16749056718175 -2.99805322534274
vertex -0.67352916395454 12.861509432827 -2.99890229607974
vertex -1.04834500593907 10.0145000000044 -2.99842406192499
endloop
endfacet
facet normal 0.000143267093793306 0.000149116249227487 0.999999978619442
outer loop
vertex -0.67352916395454 12.861509432827 -2.99890229607974
vertex -0.67352904231064 7.16749056718175 -2.99805322534274
vertex 0.425375403424155 15.5144998777082 -2.99945533693967
endloop
endfacet
facet normal 0.000143267093793306 0.000149116249227487 0.999999978619442
outer loop
vertex 0.425375403424155 15.5144998777082 -2.99945533693967
vertex -0.67352904231064 7.16749056718175 -2.99805322534274
vertex 0.425375638422127 4.51450012230046 -2.99781505823324
endloop
endfacet
facet normal 0.000143267093793306 0.000149116249227487 0.999999978619442
outer loop
vertex 0.425375403424155 15.5144998777082 -2.99945533693967
vertex 0.425375638422127 4.51450012230046 -2.99781505823324
vertex 2.17348016595583 17.7926744201036 -3.00004549568411
endloop
endfacet
facet normal 0.000143267093793306 0.000149116249227487 0.999999978619442
outer loop
vertex 2.17348016595583 17.7926744201036 -3.00004549568411
vertex 0.425375638422127 4.51450012230046 -2.99781505823324
vertex 2.17348049829315 2.23632557990515 -2.9977257912914
endloop
endfacet
facet normal 0.000143267093793306 0.000149116249227487 0.999999978619442
outer loop
vertex 2.17348016595583 17.7926744201036 -3.00004549568411
vertex 2.17348049829315 2.23632557990515 -2.9977257912914
vertex 4.45165467295365 19.5407792298101 -3.00063255396991
endloop
endfacet
facet normal 0.000143267093793306 0.000149116249227487 0.999999978619442
outer loop
vertex 4.45165467295365 19.5407792298101 -3.00063255396991
vertex 2.17348049829315 2.23632557990515 -2.9977257912914
vertex 4.45165507998208 0.488220770198602 -2.9977915079118
endloop
endfacet
facet normal 0.000143267093793306 0.000149116249227487 0.999999978619442
outer loop
vertex 4.45165467295365 19.5407792298101 -3.00063255396991
vertex 4.45165507998208 0.488220770198602 -2.9977915079118
vertex 7.10464509662711 20.6396838529262 -3.00117650474506
endloop
endfacet
facet normal 0.000143267093793306 0.000149116249227487 0.999999978619442
outer loop
vertex 7.10464509662711 20.6396838529262 -3.00117650474506
vertex 4.45165507998208 0.488220770198602 -2.9977915079118
vertex 7.10464555060833 -0.610683852917458 -2.99800772961535
endloop
endfacet
facet normal 0.000143267093793306 0.000149116249227487 0.999999978619442
outer loop
vertex 7.10464509662711 20.6396838529262 -3.00117650474506
vertex 7.10464555060833 -0.610683852917458 -2.99800772961535
vertex 7.75165480591202 10.0145000000044 -2.99968481235037
endloop
endfacet
facet normal 0.000143267093793306 0.000149116249227487 0.999999978619442
outer loop
vertex 7.10464509662711 20.6396838529262 -3.00117650474506
vertex 7.75165480591202 10.0145000000044 -2.99968481235037
vertex 7.82661797430893 10.5839018865689 -2.99978045918132
endloop
endfacet
facet normal 0.000143267093793306 0.000149116249227487 0.999999978619442
outer loop
vertex 7.10464509662711 20.6396838529262 -3.00117650474506
vertex 7.82661797430893 10.5839018865689 -2.99978045918132
vertex 9.95165452387682 21.0144997554121 -3.00164027866315
endloop
endfacet
facet normal 0.000143267093793306 0.000149116249227487 0.999999978619442
outer loop
vertex 9.95165452387682 21.0144997554121 -3.00164027866315
vertex 7.82661797430893 10.5839018865689 -2.99978045918132
vertex 8.04639888778467 11.1144999755451 -2.99989106735331
endloop
endfacet
facet normal 0.000143267093793306 0.000149116249227487 0.999999978619442
outer loop
vertex 9.95165452387682 21.0144997554121 -3.00164027866315
vertex 8.04639888778467 11.1144999755451 -2.99989106735331
vertex 8.396019840291 11.5701348840242 -3.0000090991022
endloop
endfacet
facet normal 0.000143267093793306 0.000149116249227487 0.999999978619442
outer loop
vertex 9.95165452387682 21.0144997554121 -3.00164027866315
vertex 8.396019840291 11.5701348840242 -3.0000090991022
vertex 8.85165474169057 11.9197558459655 -3.00012651075936
endloop
endfacet
facet normal 0.000143267093793306 0.000149116249227487 0.999999978619442
outer loop
vertex 9.95165452387682 21.0144997554121 -3.00164027866315
vertex 8.85165474169057 11.9197558459655 -3.00012651075936
vertex 9.38225282642526 12.1395367705887 -3.00023530091439
endloop
endfacet
facet normal 0.000143267093793306 0.000149116249227487 0.999999978619442
outer loop
vertex 9.95165452387682 21.0144997554121 -3.00164027866315
vertex 9.38225282642526 12.1395367705887 -3.00023530091439
vertex 9.9516547118752 12.2144999510859 -3.00032805569801
endloop
endfacet
facet normal 0.000143267093793306 0.000149116249227487 0.999999978619442
outer loop
vertex 9.95165452387682 21.0144997554121 -3.00164027866315
vertex 9.9516547118752 12.2144999510859 -3.00032805569801
vertex 12.7986639671413 20.6396838529262 -3.00199227029809
endloop
endfacet
facet normal 0.000143267093793306 0.000149116249227487 0.999999978619442
outer loop
vertex 12.7986639671413 20.6396838529262 -3.00199227029809
vertex 9.9516547118752 12.2144999510859 -3.00032805569801
vertex 10.5210566005281 12.1395367705887 -3.00039845402499
endloop
endfacet
facet normal 0.000143267093793306 0.000149116249227487 0.999999978619442
outer loop
vertex 12.7986639671413 20.6396838529262 -3.00199227029809
vertex 10.5210566005281 12.1395367705887 -3.00039845402499
vertex 11.0516546946533 11.9197558459655 -3.0004416983657
endloop
endfacet
facet normal 0.000143267093793306 0.000149116249227487 0.999999978619442
outer loop
vertex 12.7986639671413 20.6396838529262 -3.00199227029809
vertex 11.0516546946533 11.9197558459655 -3.0004416983657
vertex 11.5072896109911 11.5701348840242 -3.00045484168978
endloop
endfacet
facet normal 0.000143267093793306 0.000149116249227487 0.999999978619442
outer loop
vertex 12.7986639671413 20.6396838529262 -3.00199227029809
vertex 11.5072896109911 11.5701348840242 -3.00045484168978
vertex 11.8569105829653 11.1144999755451 -3.00043698830142
endloop
endfacet
facet normal 0.000143267093793306 0.000149116249227487 0.999999978619442
outer loop
vertex 12.7986639671413 20.6396838529262 -3.00199227029809
vertex 11.8569105829653 11.1144999755451 -3.00043698830142
vertex 12.0766915191119 10.5839018865689 -3.00038935487951
endloop
endfacet
facet normal 0.000143267093793306 0.000149116249227487 0.999999978619442
outer loop
vertex 12.7986639671413 20.6396838529262 -3.00199227029809
vertex 12.0766915191119 10.5839018865689 -3.00038935487951
vertex 12.1516547118376 10.0145000000044 -3.00031518756306
endloop
endfacet
facet normal -1.8123681154345e-05 -0.000274259653639559 -0.999999962226587
outer loop
vertex 14.5467026997584 5.41711309449736 -13.0004153938492
vertex 14.4505086924235 2.21907860926037 -12.9994822847196
vertex 13.200508672896 4.38414207057986 -13.0000684957713
endloop
endfacet
facet normal -5.4777337596415e-05 -0.000302384991808381 -0.999999952781379
outer loop
vertex 14.4505086924235 2.21907860926037 -12.9994822847196
vertex 14.5467026997584 5.41711309449736 -13.0004153938492
vertex 16.3144696526945 3.64934618083845 -12.9999626051353
endloop
endfacet
facet normal 1.00016583909236e-05 -6.06264919937195e-05 -0.999999998112198
outer loop
vertex 17.7447369934039 14.5133069699501 -13.0017875085042
vertex 16.2290263228249 11.6956308257693 -13.0015926445055
vertex 15.5796735569374 13.2633069977446 -13.0017333796157
endloop
endfacet
facet normal 2.76819863402366e-05 -0.000103310578972942 -0.999999994280316
outer loop
vertex 16.2290263228249 11.6956308257693 -13.0015926445055
vertex 17.7447369934039 14.5133069699501 -13.0017875085042
vertex 18.6438408230943 12.3426784241381 -13.0015926445055
endloop
endfacet
facet normal -0.000231756848102764 4.15250068248638e-06 -0.99999997313576
outer loop
vertex 5.45050855182532 17.8075355307607 -13.0005173731049
vertex 5.35431454449052 14.6095010455237 -13.0004691615271
vertex 3.58654759155437 16.3772679591826 -13.0000370526892
endloop
endfacet
facet normal -0.000268410501260307 -2.39728390946079e-05 -0.999999963690552
outer loop
vertex 5.35431454449052 14.6095010455237 -13.0004691615271
vertex 5.45050855182532 17.8075355307607 -13.0005173731049
vertex 6.70050857135285 15.6424720694412 -13.000816059605
endloop
endfacet
facet normal -0.258817025274599 -0.965926357947905 0.000135828948932061
outer loop
vertex 11.6336918477538 16.2927194987779 -5.00117720785186
vertex 9.95050848326199 16.5133069254788 -13.0014115332874
vertex 11.632832245191 16.2918248012825 -13.0016195283444
endloop
endfacet
facet normal -2.96067323417949e-06 -0.999999993742495 0.00011183132118648
outer loop
vertex 9.95050848326199 16.5133069254788 -13.0014115332874
vertex 11.6336918477538 16.2927194987779 -5.00117720785186
vertex 9.95136808582476 16.5142016229741 -5.00096921279486
endloop
endfacet
facet normal -0.965924851208436 0.25882267330571 7.48387971556798e-05
outer loop
vertex 16.2298859972682 8.33187801174709 -5.00064860039563
vertex 16.4505084831508 10.0133070700105 -13.0013735137978
vertex 16.2290263947054 8.33098331425172 -13.0010909208882
endloop
endfacet
facet normal -0.999999994222999 -3.1035664827764e-06 0.00010744472619267
outer loop
vertex 16.4505084831508 10.0133070700105 -13.0013735137978
vertex 16.2298859972682 8.33187801174709 -5.00064860039563
vertex 16.4513680857136 10.0142017675059 -5.00093119330526
endloop
endfacet
facet normal 0.866023321521495 -0.500003605188989 -3.71334335586411e-05
outer loop
vertex 4.32134354844908 13.2633069977446 -13.0001204313599
vertex 3.67285045210624 11.6965255232647 -4.99935131399557
vertex 3.67199084954348 11.6956308257693 -12.9997936344881
endloop
endfacet
facet normal 0.965926799130762 -0.258815403560149 -7.48398194318086e-05
outer loop
vertex 3.67285045210624 11.6965255232647 -4.99935131399557
vertex 4.32134354844908 13.2633069977446 -13.0001204313599
vertex 4.32220315101183 13.26420169524 -4.99967811086735
endloop
endfacet
facet normal -9.74614220404022e-05 -0.000320065316970794 -0.999999944029731
outer loop
vertex 11.6328325134526 3.73478933873855 -12.9997470703132
vertex 9.95050881439549 1.01330727013143 -12.9986577826979
vertex 9.95050876098687 3.51330721454229 -12.9994730220889
endloop
endfacet
facet normal -0.000143267088101248 -0.000326095746027831 -0.999999936568051
outer loop
vertex 9.95050881439549 1.01330727013143 -12.9986577826979
vertex 11.6328325134526 3.73478933873855 -12.9997470703132
vertex 12.2798801639634 1.31997482671086 -12.9990372340854
endloop
endfacet
facet normal 0.866025987664737 0.499998966497674 -0.00014896501139341
outer loop
vertex 4.32134368731151 6.76330714227641 -12.9991511757606
vertex 5.35517434343442 5.41800779199273 -4.99865610662064
vertex 5.35431474087166 5.41711309449736 -12.9990984271132
endloop
endfacet
facet normal 0.707106704520323 0.70710684085332 -0.00015505110906719
outer loop
vertex 5.35517434343442 5.41800779199273 -4.99865610662064
vertex 4.32134368731151 6.76330714227641 -12.9991511757606
vertex 4.32220328987427 6.76420183977178 -4.99870885526809
endloop
endfacet
facet normal 0.500003585368116 -0.866023332687523 4.31256834928389e-05
outer loop
vertex 6.70136817391562 15.6433667669366 -5.00037373911249
vertex 5.35431454449052 14.6095010455237 -13.0004691615271
vertex 6.70050857135285 15.6424720694412 -13.000816059605
endloop
endfacet
facet normal 0.707103751407941 -0.707109810945366 3.10247595884254e-06
outer loop
vertex 5.35431454449052 14.6095010455237 -13.0004691615271
vertex 6.70136817391562 15.6433667669366 -5.00037373911249
vertex 5.35517414705328 14.6103957430191 -5.00002684103452
endloop
endfacet
facet normal -5.47773366869426e-05 -0.000302384991283297 -0.999999952781379
outer loop
vertex 13.200508672896 4.38414207057986 -13.0000684957713
vertex 12.2798801639634 1.31997482671086 -12.9990372340854
vertex 11.6328325134526 3.73478933873855 -12.9997470703132
endloop
endfacet
facet normal -9.74614229442147e-05 -0.00032006531721297 -0.99999994402973
outer loop
vertex 12.2798801639634 1.31997482671086 -12.9990372340854
vertex 13.200508672896 4.38414207057986 -13.0000684957713
vertex 14.4505086924235 2.21907860926037 -12.9994822847196
endloop
endfacet
facet normal -0.499999091968941 -0.866025914946382 0.000150570639673197
outer loop
vertex 13.201368034942 15.6433667669366 -5.00130497522215
vertex 11.632832245191 16.2918248012825 -13.0016195283444
vertex 13.2005084323792 15.6424720694412 -13.0017472957147
endloop
endfacet
facet normal -0.258821030769103 -0.965925284678909 0.000135829259275184
outer loop
vertex 11.632832245191 16.2918248012825 -13.0016195283444
vertex 13.201368034942 15.6433667669366 -5.00130497522215
vertex 11.6336918477538 16.2927194987779 -5.00117720785186
endloop
endfacet
facet normal -0.965926391399549 -0.258816902039567 0.000132727115946783
outer loop
vertex 16.2298859253877 11.6965255232647 -5.00115032401295
vertex 15.5796735569374 13.2633069977446 -13.0017333796157
vertex 16.2290263228249 11.6956308257693 -13.0015926445055
endloop
endfacet
facet normal -0.866024792865891 -0.500001035949913 0.000148965114448137
outer loop
vertex 15.5796735569374 13.2633069977446 -13.0017333796157
vertex 16.2298859253877 11.6965255232647 -5.00115032401295
vertex 15.5805331595002 13.26420169524 -5.00129105912311
endloop
endfacet
facet normal 2.76819864865921e-05 -0.000103310579519148 -0.999999994280316
outer loop
vertex 18.6438408230943 12.3426784241381 -13.0015926445055
vertex 16.4505084831508 10.0133070700105 -13.0013735137978
vertex 16.2290263228249 11.6956308257693 -13.0015926445055
endloop
endfacet
facet normal 3.37124168947523e-05 -0.000149116246449995 -0.999999988313909
outer loop
vertex 16.4505084831508 10.0133070700105 -13.0013735137978
vertex 18.6438408230943 12.3426784241381 -13.0015926445055
vertex 18.9505084296994 10.0133070700105 -13.0012892327564
endloop
endfacet
facet normal 0.258817025274602 0.965926357947904 -0.000135828948931581
outer loop
vertex 8.26818499905787 3.73478933873855 -12.9992650270319
vertex 9.95136836354964 3.51420191203766 -4.99903070159635
vertex 9.95050876098687 3.51330721454229 -12.9994730220889
endloop
endfacet
facet normal 2.96067323360027e-06 0.999999993742495 -0.000111831321185863
outer loop
vertex 9.95136836354964 3.51420191203766 -4.99903070159635
vertex 8.26818499905787 3.73478933873855 -12.9992650270319
vertex 8.26904460162064 3.73568403623392 -4.99882270653934
endloop
endfacet
facet normal 0.707106826050123 0.707106719323523 -0.000155051108534085
outer loop
vertex 5.35431474087166 5.41711309449736 -12.9990984271132
vertex 6.70136841443241 4.38503676807523 -4.99869493916906
vertex 6.70050881186964 4.38414207057986 -12.9991372596616
endloop
endfacet
facet normal 0.500000873878618 0.866024886160368 -0.000150570716078996
outer loop
vertex 6.70136841443241 4.38503676807523 -4.99869493916906
vertex 5.35431474087166 5.41711309449736 -12.9990984271132
vertex 5.35517434343442 5.41800779199273 -4.99865610662064
endloop
endfacet
facet normal 2.99274370480056e-06 -0.999999993742471 0.000111830681525287
outer loop
vertex 9.95136808582476 16.5142016229741 -5.00096921279486
vertex 8.26818473079626 16.2918248012825 -13.0011374850631
vertex 9.95050848326199 16.5133069254788 -13.0014115332874
endloop
endfacet
facet normal 0.258815507301335 -0.965926770902609 8.02122887176283e-05
outer loop
vertex 8.26818473079626 16.2918248012825 -13.0011374850631
vertex 9.95136808582476 16.5142016229741 -5.00096921279486
vertex 8.26904433335902 16.2927194987779 -5.00069516457053
endloop
endfacet
facet normal 0.258822611034068 -0.965924867463124 8.02113125979228e-05
outer loop
vertex 8.26904433335902 16.2927194987779 -5.00069516457053
vertex 6.70050857135285 15.6424720694412 -13.000816059605
vertex 8.26818473079626 16.2918248012825 -13.0011374850631
endloop
endfacet
facet normal 0.499996437152423 -0.866027459711846 4.3126913057713e-05
outer loop
vertex 6.70050857135285 15.6424720694412 -13.000816059605
vertex 8.26904433335902 16.2927194987779 -5.00069516457053
vertex 6.70136817391562 15.6433667669366 -5.00037373911249
endloop
endfacet
facet normal 0.965926391399549 0.258816902039566 -0.000132727115946662
outer loop
vertex 3.67199092142397 8.33098331425172 -12.9992919108708
vertex 4.32220328987427 6.76420183977178 -4.99870885526809
vertex 4.32134368731151 6.76330714227641 -12.9991511757606
endloop
endfacet
facet normal 0.866024792865891 0.500001035949912 -0.00014896511444791
outer loop
vertex 4.32220328987427 6.76420183977178 -4.99870885526809
vertex 3.67199092142397 8.33098331425172 -12.9992919108708
vertex 3.67285052398672 8.33187801174709 -4.99884959037825
endloop
endfacet
facet normal 0.999999994223107 -3.09291005134644e-06 -0.000107444033234404
outer loop
vertex 3.45050876109808 10.0133070700105 -12.9995110415785
vertex 3.67285052398672 8.33187801174709 -4.99884959037825
vertex 3.67199092142397 8.33098331425172 -12.9992919108708
endloop
endfacet
facet normal 0.965925241083657 0.258821195076636 -0.00013272747244633
outer loop
vertex 3.67285052398672 8.33187801174709 -4.99884959037825
vertex 3.45050876109808 10.0133070700105 -12.9995110415785
vertex 3.45136836366084 10.0142017675059 -4.99906872108595
endloop
endfacet
facet normal -2.99274370544216e-06 0.999999993742471 -0.00011183068152467
outer loop
vertex 9.95050876098687 3.51330721454229 -12.9994730220889
vertex 11.6336921160154 3.73568403623392 -4.99930474982067
vertex 11.6328325134526 3.73478933873855 -12.9997470703132
endloop
endfacet
facet normal -0.258815507301333 0.96592677090261 -8.02122887171505e-05
outer loop
vertex 11.6336921160154 3.73568403623392 -4.99930474982067
vertex 9.95050876098687 3.51330721454229 -12.9994730220889
vertex 9.95136836354964 3.51420191203766 -4.99903070159635
endloop
endfacet
facet normal -0.000231756836982388 -0.000302384987764925 -0.999999927426041
outer loop
vertex 6.70050881186964 4.38414207057986 -12.9991372596616
vertex 7.62113745172458 1.31997482671086 -12.998369789542
vertex 5.45050888484856 2.21907860926037 -12.9981928808755
endloop
endfacet
facet normal -0.000189072752870169 -0.000320065314802557 -0.999999930904842
outer loop
vertex 7.62113745172458 1.31997482671086 -12.998369789542
vertex 6.70050881186964 4.38414207057986 -12.9991372596616
vertex 8.26818499905787 3.73478933873855 -12.9992650270319
endloop
endfacet
facet normal -1.81236822576436e-05 -2.39728350476787e-05 -0.999999999548418
outer loop
vertex 16.3144693807821 16.3772679591826 -13.001860545093
vertex 15.5796735569374 13.2633069977446 -13.0017333796157
vertex 14.5467025033773 14.6095010455237 -13.0017861282631
endloop
endfacet
facet normal 1.00016582389086e-05 -6.06264917304219e-05 -0.999999998112198
outer loop
vertex 15.5796735569374 13.2633069977446 -13.0017333796157
vertex 16.3144693807821 16.3772679591826 -13.001860545093
vertex 17.7447369934039 14.5133069699501 -13.0017875085042
endloop
endfacet
facet normal -0.500000013369927 0.866025394156117 -5.75049109296927e-05
outer loop
vertex 11.0513682418714 8.10894592154475 -4.99987344639296
vertex 11.5072896774586 8.45886511598451 -2.99999090081124
vertex 11.507003143271 8.45856688348606 -4.99999085805012
endloop
endfacet
facet normal -0.707106789035944 0.707106773325055 -4.13597526332048e-06
outer loop
vertex 11.5072896774586 8.45886511598451 -2.99999090081124
vertex 11.0513682418714 8.10894592154475 -4.99987344639296
vertex 11.051654776059 8.1092441540432 -2.99987348915408
endloop
endfacet
facet normal 0.99999998973727 -1.02477763799939e-15 -0.000143267095386147
outer loop
vertex 7.75136827172443 10.0142017675059 -4.99968476958926
vertex 7.82661799863771 9.44509811343984 -2.99961064503392
vertex 7.82633146445011 9.44479988094138 -4.99961060227281
endloop
endfacet
facet normal 0.965925810846764 0.258819042225015 -0.000176979512329153
outer loop
vertex 7.82661799863771 9.44509811343984 -2.99961064503392
vertex 7.75136827172443 10.0142017675059 -4.99968476958926
vertex 7.75165480591202 10.0145000000044 -2.99968481235037
endloop
endfacet
facet normal 0.9659258219053 -0.258819042225016 -9.97912626526451e-05
outer loop
vertex 7.82633144012133 10.5836036540704 -4.99978041642021
vertex 7.75165480591202 10.0145000000044 -2.99968481235037
vertex 7.75136827172443 10.0142017675059 -4.99968476958926
endloop
endfacet
facet normal 0.99999998973727 -1.19408872601668e-15 -0.000143267095386147
outer loop
vertex 7.75165480591202 10.0145000000044 -2.99968481235037
vertex 7.82633144012133 10.5836036540704 -4.99978041642021
vertex 7.82661797430893 10.5839018865689 -2.99978045918132
endloop
endfacet
facet normal 2.13634504062966e-08 -0.999999988882172 0.000149116247697175
outer loop
vertex 9.9516547118752 12.2144999510859 -3.00032805569801
vertex 9.38196629223766 12.1392385380903 -5.00023525815327
vertex 9.95136817768761 12.2142017185875 -5.00032801293689
endloop
endfacet
facet normal 0.25881906308184 -0.965925815550071 0.000106954981947565
outer loop
vertex 9.38196629223766 12.1392385380903 -5.00023525815327
vertex 9.9516547118752 12.2144999510859 -3.00032805569801
vertex 9.38225282642526 12.1395367705887 -3.00023530091439
endloop
endfacet
facet normal -2.13634504597633e-08 0.999999988882172 -0.000149116247697175
outer loop
vertex 9.95136827168679 7.81420181642434 -4.99967190145432
vertex 10.5210566913243 7.88946322941999 -2.99976469899905
vertex 10.5207701571367 7.88916499692153 -4.99976465623793
endloop
endfacet
facet normal -0.25881906308184 0.965925815550071 -0.000106954981947565
outer loop
vertex 10.5210566913243 7.88946322941999 -2.99976469899905
vertex 9.95136827168679 7.81420181642434 -4.99967190145432
vertex 9.95165480587439 7.8145000489228 -2.99967194421543
endloop
endfacet
facet normal -0.707106789035944 0.707106773325055 -4.13597526332048e-06
outer loop
vertex 11.5072896774586 8.45886511598451 -2.99999090081124
vertex 11.8566240957773 8.91420179196512 -5.00010888979901
vertex 11.507003143271 8.45856688348606 -4.99999085805012
endloop
endfacet
facet normal -0.866025405578379 0.499999994441087 4.95148202822242e-05
outer loop
vertex 11.8566240957773 8.91420179196512 -5.00010888979901
vertex 11.5072896774586 8.45886511598451 -2.99999090081124
vertex 11.8569106299649 8.91450002446358 -3.00010893256013
endloop
endfacet
facet normal -0.25881906308184 0.965925815550071 -0.000106954981947565
outer loop
vertex 10.5207701571367 7.88916499692153 -4.99976465623793
vertex 11.051654776059 8.1092441540432 -2.99987348915408
vertex 11.0513682418714 8.10894592154475 -4.99987344639296
endloop
endfacet
facet normal -0.500000013369928 0.866025394156117 -5.75049109296925e-05
outer loop
vertex 11.051654776059 8.1092441540432 -2.99987348915408
vertex 10.5207701571367 7.88916499692153 -4.99976465623793
vertex 10.5210566913243 7.88946322941999 -2.99976469899905
endloop
endfacet
facet normal -0.9659258219053 0.258819042225016 9.97912626526451e-05
outer loop
vertex 12.0766915434407 9.44509811343983 -3.00021954073211
vertex 12.15136817765 10.0142017675059 -5.00031514480195
vertex 12.0764050092531 9.44479988094138 -5.000219497971
endloop
endfacet
facet normal -0.99999998973727 1.09606651716457e-15 0.000143267095386147
outer loop
vertex 12.15136817765 10.0142017675059 -5.00031514480195
vertex 12.0766915434407 9.44509811343983 -3.00021954073211
vertex 12.1516547118376 10.0145000000044 -3.00031518756306
endloop
endfacet
facet normal 0.500000013369926 -0.866025394156118 5.75049109296928e-05
outer loop
vertex 8.85165474169057 11.9197558459655 -3.00012651075936
vertex 8.39573330610341 11.5698366515257 -5.00000905634108
vertex 8.85136820750297 11.919457613467 -5.00012646799824
endloop
endfacet
facet normal 0.707106789035943 -0.707106773325056 4.1359752633207e-06
outer loop
vertex 8.39573330610341 11.5698366515257 -5.00000905634108
vertex 8.85165474169057 11.9197558459655 -3.00012651075936
vertex 8.396019840291 11.5701348840242 -3.0000090991022
endloop
endfacet
facet normal 0.258819021810822 0.965925815550071 -0.000181115487592474
outer loop
vertex 9.3819663830339 7.88916499692153 -4.99960150312733
vertex 9.95165480587439 7.8145000489228 -2.99967194421543
vertex 9.95136827168679 7.81420181642434 -4.99967190145432
endloop
endfacet
facet normal -2.13634513152298e-08 0.999999988882172 -0.000149116247697175
outer loop
vertex 9.95165480587439 7.8145000489228 -2.99967194421543
vertex 9.3819663830339 7.88916499692153 -4.99960150312733
vertex 9.3822529172215 7.88946322941999 -2.99960154588845
endloop
endfacet
facet normal 0.499999976367344 0.866025394156116 -0.00020077200631584
outer loop
vertex 8.85136828890865 8.10894592154475 -4.99955825878662
vertex 9.3822529172215 7.88946322941999 -2.99960154588845
vertex 9.3819663830339 7.88916499692153 -4.99960150312733
endloop
endfacet
facet normal 0.258819021810821 0.965925815550071 -0.000181115487592473
outer loop
vertex 9.3822529172215 7.88946322941999 -2.99960154588845
vertex 8.85136828890865 8.10894592154475 -4.99955825878662
vertex 8.85165482309625 8.10924415404321 -2.99955830154773
endloop
endfacet
facet normal 0.965925810846764 0.258819042225015 -0.000176979512329153
outer loop
vertex 7.82633146445011 9.44479988094138 -4.99961060227281
vertex 8.04639893478426 8.91450002446358 -2.99956301161202
vertex 8.04611240059666 8.91420179196512 -4.99956296885091
endloop
endfacet
facet normal 0.866025384214927 0.499999994441086 -0.000198631067979399
outer loop
vertex 8.04639893478426 8.91450002446358 -2.99956301161202
vertex 7.82633146445011 9.44479988094138 -4.99961060227281
vertex 7.82661799863771 9.44509811343984 -2.99961064503392
endloop
endfacet
facet normal -0.965925810846764 -0.258819042225015 0.000176979512329153
outer loop
vertex 12.0766915191119 10.5839018865689 -3.00038935487951
vertex 11.8566240487777 11.1142017430467 -5.0004369455403
vertex 12.0764049849243 10.5836036540704 -5.0003893121184
endloop
endfacet
facet normal -0.866025384214927 -0.499999994441086 0.000198631067979399
outer loop
vertex 11.8566240487777 11.1142017430467 -5.0004369455403
vertex 12.0766915191119 10.5839018865689 -3.00038935487951
vertex 11.8569105829653 11.1144999755451 -3.00043698830142
endloop
endfacet
facet normal -0.866025405578379 0.499999994441086 4.95148202822243e-05
outer loop
vertex 11.8569106299649 8.91450002446358 -3.00010893256013
vertex 12.0764050092531 9.44479988094138 -5.000219497971
vertex 11.8566240957773 8.91420179196512 -5.00010888979901
endloop
endfacet
facet normal -0.9659258219053 0.258819042225016 9.9791262652645e-05
outer loop
vertex 12.0764050092531 9.44479988094138 -5.000219497971
vertex 11.8569106299649 8.91450002446358 -3.00010893256013
vertex 12.0766915434407 9.44509811343983 -3.00021954073211
endloop
endfacet
facet normal -0.499999976367344 -0.866025394156116 0.00020077200631584
outer loop
vertex 11.0516546946533 11.9197558459655 -3.0004416983657
vertex 10.5207700663405 12.1392385380903 -5.00039841126388
vertex 11.0513681604657 11.919457613467 -5.00044165560459
endloop
endfacet
facet normal -0.258819021810821 -0.965925815550071 0.000181115487592474
outer loop
vertex 10.5207700663405 12.1392385380903 -5.00039841126388
vertex 11.0516546946533 11.9197558459655 -3.0004416983657
vertex 10.5210566005281 12.1395367705887 -3.00039845402499
endloop
endfacet
facet normal 0.707106789035943 -0.707106773325056 4.1359752633207e-06
outer loop
vertex 8.39573330610341 11.5698366515257 -5.00000905634108
vertex 8.04639888778467 11.1144999755451 -2.99989106735331
vertex 8.04611235359707 11.1142017430467 -4.99989102459219
endloop
endfacet
facet normal 0.866025405578379 -0.499999994441087 -4.95148202822242e-05
outer loop
vertex 8.04639888778467 11.1144999755451 -2.99989106735331
vertex 8.39573330610341 11.5698366515257 -5.00000905634108
vertex 8.396019840291 11.5701348840242 -3.0000090991022
endloop
endfacet
facet normal -0.70710675882346 -0.707106773325056 0.00020674624460021
outer loop
vertex 11.5072896109911 11.5701348840242 -3.00045484168978
vertex 11.0513681604657 11.919457613467 -5.00044165560459
vertex 11.5070030768035 11.5698366515257 -5.00045479892867
endloop
endfacet
facet normal -0.499999976367343 -0.866025394156117 0.00020077200631584
outer loop
vertex 11.0513681604657 11.919457613467 -5.00044165560459
vertex 11.5072896109911 11.5701348840242 -3.00045484168978
vertex 11.0516546946533 11.9197558459655 -3.0004416983657
endloop
endfacet
facet normal -0.258819021810822 -0.965925815550071 0.000181115487592474
outer loop
vertex 10.5210566005281 12.1395367705887 -3.00039845402499
vertex 9.95136817768761 12.2142017185875 -5.00032801293689
vertex 10.5207700663405 12.1392385380903 -5.00039841126388
endloop
endfacet
facet normal 2.13634512706743e-08 -0.999999988882172 0.000149116247697175
outer loop
vertex 9.95136817768761 12.2142017185875 -5.00032801293689
vertex 10.5210566005281 12.1395367705887 -3.00039845402499
vertex 9.9516547118752 12.2144999510859 -3.00032805569801
endloop
endfacet
facet normal 0.70710675882346 0.707106773325055 -0.00020674624460021
outer loop
vertex 8.39573337257087 8.45856688348606 -4.99954511546254
vertex 8.85165482309625 8.10924415404321 -2.99955830154773
vertex 8.85136828890865 8.10894592154475 -4.99955825878662
endloop
endfacet
facet normal 0.499999976367343 0.866025394156117 -0.00020077200631584
outer loop
vertex 8.85165482309625 8.10924415404321 -2.99955830154773
vertex 8.39573337257087 8.45856688348606 -4.99954511546254
vertex 8.39601990675846 8.45886511598451 -2.99954515822365
endloop
endfacet
facet normal -0.99999998973727 8.6437765987775e-16 0.000143267095386147
outer loop
vertex 12.1516547118376 10.0145000000044 -3.00031518756306
vertex 12.0764049849243 10.5836036540704 -5.0003893121184
vertex 12.15136817765 10.0142017675059 -5.00031514480195
endloop
endfacet
facet normal -0.965925810846764 -0.258819042225015 0.000176979512329153
outer loop
vertex 12.0764049849243 10.5836036540704 -5.0003893121184
vertex 12.1516547118376 10.0145000000044 -3.00031518756306
vertex 12.0766915191119 10.5839018865689 -3.00038935487951
endloop
endfacet
facet normal 0.866025384214927 0.499999994441086 -0.000198631067979399
outer loop
vertex 8.04611240059666 8.91420179196512 -4.99956296885091
vertex 8.39601990675846 8.45886511598451 -2.99954515822365
vertex 8.39573337257087 8.45856688348606 -4.99954511546254
endloop
endfacet
facet normal 0.70710675882346 0.707106773325055 -0.00020674624460021
outer loop
vertex 8.39601990675846 8.45886511598451 -2.99954515822365
vertex 8.04611240059666 8.91420179196512 -4.99956296885091
vertex 8.04639893478426 8.91450002446358 -2.99956301161202
endloop
endfacet
facet normal 0.965924851208436 -0.258822673305712 -7.48387971555591e-05
outer loop
vertex 3.67199084954348 11.6956308257693 -12.9997936344881
vertex 3.45136836366084 10.0142017675059 -4.99906872108595
vertex 3.45050876109808 10.0133070700105 -12.9995110415785
endloop
endfacet
facet normal 0.999999994222999 3.10356648239322e-06 -0.000107444726192583
outer loop
vertex 3.45136836366084 10.0142017675059 -4.99906872108595
vertex 3.67199084954348 11.6956308257693 -12.9997936344881
vertex 3.67285045210624 11.6965255232647 -4.99935131399557
endloop
endfacet
facet normal 2.76819861832349e-05 -0.000194921913360623 -0.999999980619578
outer loop
vertex 16.2290263947054 8.33098331425172 -13.0010909208882
vertex 17.744737185675 5.51330717007098 -13.0004454622898
vertex 15.5796736957998 6.76330714227641 -13.0007641240164
endloop
endfacet
facet normal 1.00016578278755e-05 -0.000237605999974543 -0.999999971721677
outer loop
vertex 17.744737185675 5.51330717007098 -13.0004454622898
vertex 16.2290263947054 8.33098331425172 -13.0010909208882
vertex 18.6438409226212 7.68393571588294 -13.0008979502661
endloop
endfacet
facet normal 1.00016583586192e-05 -0.000237605999055268 -0.999999971721678
outer loop
vertex 15.5796736957998 6.76330714227641 -13.0007641240164
vertex 16.3144696526945 3.64934618083845 -12.9999626051353
vertex 14.5467026997584 5.41711309449736 -13.0004153938492
endloop
endfacet
facet normal -1.81236819272648e-05 -0.000274259654412478 -0.999999962226586
outer loop
vertex 16.3144696526945 3.64934618083845 -12.9999626051353
vertex 15.5796736957998 6.76330714227641 -13.0007641240164
vertex 17.744737185675 5.51330717007098 -13.0004454622898
endloop
endfacet
facet normal -0.000268410491685087 -0.000274259649577168 -0.999999926368724
outer loop
vertex 5.35431474087166 5.41711309449736 -12.9990984271132
vertex 5.45050888484856 2.21907860926037 -12.9981928808755
vertex 3.58654786346671 3.64934618083845 -12.9981391127315
endloop
endfacet
facet normal -0.000231756837209102 -0.000302384987634032 -0.999999927426041
outer loop
vertex 5.45050888484856 2.21907860926037 -12.9981928808755
vertex 5.35431474087166 5.41711309449736 -12.9990984271132
vertex 6.70050881186964 4.38414207057986 -12.9991372596616
endloop
endfacet
facet normal -0.000296535830733185 -0.000237605995536737 -0.999999927804943
outer loop
vertex 4.32134368731151 6.76330714227641 -12.9991511757606
vertex 3.58654786346671 3.64934618083845 -12.9981391127315
vertex 2.15628025084497 5.51330717007099 -12.9982121493203
endloop
endfacet
facet normal -0.000268410491669625 -0.00027425964959263 -0.999999926368724
outer loop
vertex 3.58654786346671 3.64934618083845 -12.9981391127315
vertex 4.32134368731151 6.76330714227641 -12.9991511757606
vertex 5.35431474087166 5.41711309449736 -12.9990984271132
endloop
endfacet
facet normal -0.000314216158895673 -0.000194921911328679 -0.999999931636825
outer loop
vertex 3.67199092142397 8.33098331425172 -12.9992919108708
vertex 2.15628025084497 5.51330717007099 -12.9982121493203
vertex 1.25717642115453 7.68393571588295 -12.998407013319
endloop
endfacet
facet normal -0.00029653583058117 -0.000237605995800034 -0.999999927804944
outer loop
vertex 2.15628025084497 5.51330717007099 -12.9982121493203
vertex 3.67199092142397 8.33098331425172 -12.9992919108708
vertex 4.32134368731151 6.76330714227641 -12.9991511757606
endloop
endfacet
facet normal -9.74614277403462e-05 2.18328320976599e-05 -0.999999995012299
outer loop
vertex 12.2798797925243 18.7066393133102 -13.0016298682825
vertex 13.2005084323792 15.6424720694412 -13.0017472957147
vertex 11.632832245191 16.2918248012825 -13.0016195283444
endloop
endfacet
facet normal -5.47773395738081e-05 4.15250472578858e-06 -0.9999999984911
outer loop
vertex 13.2005084323792 15.6424720694412 -13.0017472957147
vertex 12.2798797925243 18.7066393133102 -13.0016298682825
vertex 14.4505083594003 17.8075355307607 -13.001806776949
endloop
endfacet
facet normal 3.37124168947523e-05 -0.000149116246449995 -0.999999988313909
outer loop
vertex 16.4505084831508 10.0133070700105 -13.0013735137978
vertex 18.6438409226212 7.68393571588294 -13.0008979502661
vertex 16.2290263947054 8.33098331425172 -13.0010909208882
endloop
endfacet
facet normal 2.76819859353994e-05 -0.000194921914285557 -0.999999980619578
outer loop
vertex 18.6438409226212 7.68393571588294 -13.0008979502661
vertex 16.4505084831508 10.0133070700105 -13.0013735137978
vertex 18.9505084296994 10.0133070700105 -13.0012892327564
endloop
endfacet
facet normal -0.000320246591020547 -0.000149116246449995 -0.999999937603231
outer loop
vertex 3.45050876109808 10.0133070700105 -12.9995110415785
vertex 1.25717642115453 7.68393571588295 -12.998407013319
vertex 0.950508814549455 10.0133070700105 -12.9987104250681
endloop
endfacet
facet normal -0.000314216158749318 -0.000194921911874885 -0.999999931636825
outer loop
vertex 1.25717642115453 7.68393571588295 -12.998407013319
vertex 3.45050876109808 10.0133070700105 -12.9995110415785
vertex 3.67199092142397 8.33098331425172 -12.9992919108708
endloop
endfacet
facet normal -0.000314216163214779 -0.000103310581929821 -0.999999945297562
outer loop
vertex 1.2571763216277 12.3426784241381 -12.9991017075584
vertex 3.45050876109808 10.0133070700105 -12.9995110415785
vertex 0.950508814549455 10.0133070700105 -12.9987104250681
endloop
endfacet
facet normal -0.000320246591020547 -0.000149116246449995 -0.999999937603231
outer loop
vertex 3.45050876109808 10.0133070700105 -12.9995110415785
vertex 1.2571763216277 12.3426784241381 -12.9991017075584
vertex 3.67199084954348 11.6956308257693 -12.9997936344881
endloop
endfacet
facet normal -0.000296535838706003 -6.06264961682284e-05 -0.999999954195461
outer loop
vertex 2.15628005857391 14.5133069699501 -12.9995541955347
vertex 3.67199084954348 11.6956308257693 -12.9997936344881
vertex 1.2571763216277 12.3426784241381 -12.9991017075584
endloop
endfacet
facet normal -0.000314216162966943 -0.000103310581004886 -0.999999945297562
outer loop
vertex 3.67199084954348 11.6956308257693 -12.9997936344881
vertex 2.15628005857391 14.5133069699501 -12.9995541955347
vertex 4.32134354844908 13.2633069977446 -13.0001204313599
endloop
endfacet
facet normal -0.928779178202513 0.24880016334501 -0.274713881806073
outer loop
vertex -0.674675300704888 12.8603165028331 -5.99890212503527
vertex 0.950508814549455 10.0133070700105 -12.9987104250681
vertex -1.04949114268941 10.0133070700105 -5.99842389088052
endloop
endfacet
facet normal -0.961526919068283 -2.91317801577715e-05 -0.274710726143693
outer loop
vertex 0.950508814549455 10.0133070700105 -12.9987104250681
vertex -0.674675300704888 12.8603165028331 -5.99890212503527
vertex 1.2571763216277 12.3426784241381 -12.9991017075584
endloop
endfacet
facet normal 0.679871630184366 -0.679928698424759 -0.274720824709131
outer loop
vertex 16.3144696526945 3.64934618083845 -12.9999626051353
vertex 19.4767879775751 4.51330719230665 -6.0005444919293
vertex 17.7286832150434 2.23513264991133 -5.99995433318486
endloop
endfacet
facet normal 0.83266824100336 -0.480822139797762 -0.274724717316576
outer loop
vertex 19.4767879775751 4.51330719230665 -6.0005444919293
vertex 16.3144696526945 3.64934618083845 -12.9999626051353
vertex 17.744737185675 5.51330717007098 -13.0004454622898
endloop
endfacet
facet normal -0.961526918172889 -5.2068242472183e-05 -0.274710725887876
outer loop
vertex -1.04949114268941 10.0133070700105 -5.99842389088052
vertex 1.25717642115453 7.68393571588295 -12.998407013319
vertex -0.674675179060988 7.16629763718792 -5.99805305429827
endloop
endfacet
facet normal -0.928758950253005 -0.248881847467526 -0.274708278590376
outer loop
vertex 1.25717642115453 7.68393571588295 -12.998407013319
vertex -1.04949114268941 10.0133070700105 -5.99842389088052
vertex 0.950508814549455 10.0133070700105 -12.9987104250681
endloop
endfacet
facet normal 0.866011487617728 -0.500024085303524 -0.000132024628590474
outer loop
vertex 19.4767879775751 4.51330719230665 -6.0005444919293
vertex 17.7298293517938 2.23632557990515 -2.99995450422933
vertex 17.7286832150434 2.23513264991133 -5.99995433318486
endloop
endfacet
facet normal 0.707127036193759 -0.707086525513344 1.10134810163538e-05
outer loop
vertex 17.7298293517938 2.23632557990515 -2.99995450422933
vertex 19.4767879775751 4.51330719230665 -6.0005444919293
vertex 19.4779341143254 4.51450012230047 -3.00054466297377
endloop
endfacet
facet normal -0.248893512543178 0.928749728975897 -0.274728885159747
outer loop
vertex 7.62113708028542 18.7066393133102 -13.0009624237391
vertex 9.95050838712646 21.0133068254183 -6.00164010761868
vertex 9.95050842985337 19.0133068698896 -13.0013418751266
endloop
endfacet
facet normal -5.0011116910495e-05 0.961520856142301 -0.274731943359823
outer loop
vertex 9.95050838712646 21.0133068254183 -6.00164010761868
vertex 7.62113708028542 18.7066393133102 -13.0009624237391
vertex 7.10349895987674 20.6384909229323 -6.00117633370059
endloop
endfacet
facet normal -0.928779178202513 0.24880016334501 -0.274713881806073
outer loop
vertex -0.674675300704888 12.8603165028331 -5.99890212503527
vertex 2.15628005857391 14.5133069699501 -12.9995541955347
vertex 1.2571763216277 12.3426784241381 -12.9991017075584
endloop
endfacet
facet normal -0.832724659972143 0.480728529015009 -0.274717531412442
outer loop
vertex 2.15628005857391 14.5133069699501 -12.9995541955347
vertex -0.674675300704888 12.8603165028331 -5.99890212503527
vertex 0.424229266673808 15.5133069477144 -5.9994551658952
endloop
endfacet
facet normal -5.00060060024846e-05 -0.961527039596558 -0.274710301270408
outer loop
vertex 9.9505088571224 -0.986692685397248 -5.99835955020582
vertex 7.62113745172458 1.31997482671086 -12.998369789542
vertex 9.95050881439549 1.01330727013143 -12.9986577826979
endloop
endfacet
facet normal -0.248880498550935 -0.928759400544724 -0.27470797829849
outer loop
vertex 7.62113745172458 1.31997482671086 -12.998369789542
vertex 9.9505088571224 -0.986692685397248 -5.99835955020582
vertex 7.10349941385796 -0.611876782911276 -5.99800755857088
endloop
endfacet
facet normal -0.965929560350572 -0.258804678691373 0.000471941103947146
outer loop
vertex -0.67352904231064 7.16749056718175 -2.99805322534274
vertex -1.04949114268941 10.0133070700105 -5.99842389088052
vertex -0.674675179060988 7.16629763718792 -5.99805305429827
endloop
endfacet
facet normal -0.999999926804959 -2.06152851992219e-05 0.000382053774798288
outer loop
vertex -1.04949114268941 10.0133070700105 -5.99842389088052
vertex -0.67352904231064 7.16749056718175 -2.99805322534274
vertex -1.04834500593907 10.0145000000044 -2.99842406192499
endloop
endfacet
facet normal 0.258805616825453 0.965929303540736 -0.000482970916455706
outer loop
vertex 12.7975178303909 20.6384909229323 -6.00199209925362
vertex 15.4516544377675 19.5407792298101 -3.00220849200164
vertex 15.4505083010172 19.5395862998163 -6.00220832095717
endloop
endfacet
facet normal 0.50000583889315 0.866021867176129 -0.000535392873196967
outer loop
vertex 15.4516544377675 19.5407792298101 -3.00220849200164
vertex 12.7975178303909 20.6384909229323 -6.00199209925362
vertex 12.7986639671413 20.6396838529262 -3.00199227029809
endloop
endfacet
facet normal -0.707127036193759 0.707086525513345 -1.10134810202713e-05
outer loop
vertex 2.17233402920549 17.7914814901097 -6.00004532463964
vertex 4.45165467295365 19.5407792298101 -3.00063255396991
vertex 4.45050853620331 19.5395862998163 -6.00063238292544
endloop
endfacet
facet normal -0.499976201463699 0.866039129860964 -0.000153360993760034
outer loop
vertex 4.45165467295365 19.5407792298101 -3.00063255396991
vertex 2.17233402920549 17.7914814901097 -6.00004532463964
vertex 2.17348016595583 17.7926744201036 -3.00004549568411
endloop
endfacet
facet normal 0.48070252973698 -0.832739860167713 -0.274716951046573
outer loop
vertex 15.4505087080456 0.487027840204787 -5.99936727489905
vertex 12.2798801639634 1.31997482671086 -12.9990372340854
vertex 14.4505086924235 2.21907860926037 -12.9994822847196
endloop
endfacet
facet normal 0.24882791139277 -0.928771898344585 -0.274713362174663
outer loop
vertex 12.2798801639634 1.31997482671086 -12.9990372340854
vertex 15.4505087080456 0.487027840204787 -5.99936727489905
vertex 12.7975182843721 -0.611876782911275 -5.9988233241239
endloop
endfacet
facet normal -0.24889532462482 -0.928755427495319 -0.274707978183911
outer loop
vertex 7.10349941385796 -0.611876782911276 -5.99800755857088
vertex 5.45050888484856 2.21907860926037 -12.9981928808755
vertex 7.62113745172458 1.31997482671086 -12.998369789542
endloop
endfacet
facet normal -0.480772422750704 -0.832702941216047 -0.274706551091457
outer loop
vertex 5.45050888484856 2.21907860926037 -12.9981928808755
vertex 7.10349941385796 -0.611876782911276 -5.99800755857088
vertex 4.45050894323173 0.487027840204783 -5.99779133686733
endloop
endfacet
facet normal -1.98989985845666e-05 0.999999920744929 -0.000397635720109092
outer loop
vertex 9.95050838712646 21.0133068254183 -6.00164010761868
vertex 12.7986639671413 20.6396838529262 -3.00199227029809
vertex 12.7975178303909 20.6384909229323 -6.00199209925362
endloop
endfacet
facet normal 0.258832315687776 0.9659221495999 -0.000482978271921693
outer loop
vertex 12.7986639671413 20.6396838529262 -3.00199227029809
vertex 9.95050838712646 21.0133068254183 -6.00164010761868
vertex 9.95165452387682 21.0144997554121 -3.00164027866315
endloop
endfacet
facet normal -0.480794965807739 0.832683740539604 -0.274725297515371
outer loop
vertex 5.45050855182532 17.8075355307607 -13.0005173731049
vertex 7.10349895987674 20.6384909229323 -6.00117633370059
vertex 7.62113708028542 18.7066393133102 -13.0009624237391
endloop
endfacet
facet normal -0.248919810344742 0.928742681195764 -0.274728884799618
outer loop
vertex 7.10349895987674 20.6384909229323 -6.00117633370059
vertex 5.45050855182532 17.8075355307607 -13.0005173731049
vertex 4.45050853620331 19.5395862998163 -6.00063238292544
endloop
endfacet
facet normal 0.679897637417063 0.679896510541011 -0.27473612356014
outer loop
vertex 16.3144693807821 16.3772679591826 -13.001860545093
vertex 19.4767877425771 15.5133069477144 -6.00218477063573
vertex 17.7447369934039 14.5133069699501 -13.0017875085042
endloop
endfacet
facet normal 0.832710628981671 0.480742544622831 -0.274735534961378
outer loop
vertex 19.4767877425771 15.5133069477144 -6.00218477063573
vertex 16.3144693807821 16.3772679591826 -13.001860545093
vertex 17.7286828827061 17.7914814901097 -6.00227403757756
endloop
endfacet
facet normal -0.258805616825453 -0.965929303540736 0.000482970916451274
outer loop
vertex 7.10464555060833 -0.610683852917458 -2.99800772961535
vertex 4.45050894323173 0.487027840204783 -5.99779133686733
vertex 7.10349941385796 -0.611876782911276 -5.99800755857088
endloop
endfacet
facet normal -0.500005838893151 -0.866021867176128 0.000535392873192461
outer loop
vertex 4.45050894323173 0.487027840204783 -5.99779133686733
vertex 7.10464555060833 -0.610683852917458 -2.99800772961535
vertex 4.45165507998208 0.488220770198602 -2.9977915079118
endloop
endfacet
facet normal 0.928749668609685 -0.248894311446887 -0.274728365457191
outer loop
vertex 18.6438409226212 7.68393571588294 -13.0008979502661
vertex 20.9505083869383 10.0133070700105 -6.00157576694398
vertex 20.5756925449538 7.16629763718793 -6.00109753278922
endloop
endfacet
facet normal 0.961520977269607 -5.20322704389243e-05 -0.274731519056591
outer loop
vertex 20.9505083869383 10.0133070700105 -6.00157576694398
vertex 18.6438409226212 7.68393571588294 -13.0008979502661
vertex 18.9505084296994 10.0133070700105 -13.0012892327564
endloop
endfacet
facet normal -0.70710707252731 -0.70710627491525 0.000551323260239578
outer loop
vertex 2.17348049829315 2.23632557990515 -2.9977257912914
vertex 0.424229501671779 4.51330719230663 -5.99781488718877
vertex 2.1723343615428 2.23513264991132 -5.99772562024693
endloop
endfacet
facet normal -0.866021307461328 -0.500006814411373 0.000529684021230924
outer loop
vertex 0.424229501671779 4.51330719230663 -5.99781488718877
vertex 2.17348049829315 2.23632557990515 -2.9977257912914
vertex 0.425375638422127 4.51450012230046 -2.99781505823324
endloop
endfacet
facet normal 0.832683684930498 -0.48079539337561 -0.274724717780107
outer loop
vertex 17.744737185675 5.51330717007098 -13.0004454622898
vertex 20.5756925449538 7.16629763718793 -6.00109753278922
vertex 19.4767879775751 4.51330719230665 -6.0005444919293
endloop
endfacet
facet normal 0.928742456122699 -0.248921223714717 -0.274728365080027
outer loop
vertex 20.5756925449538 7.16629763718793 -6.00109753278922
vertex 17.744737185675 5.51330717007098 -13.0004454622898
vertex 18.6438409226212 7.68393571588294 -13.0008979502661
endloop
endfacet
facet normal -0.928754691950837 -0.248897737887532 -0.274708278458758
outer loop
vertex -0.674675179060988 7.16629763718792 -5.99805305429827
vertex 2.15628025084497 5.51330717007099 -12.9982121493203
vertex 0.424229501671779 4.51330719230663 -5.99781488718877
endloop
endfacet
facet normal -0.832702112185664 -0.480773769814629 -0.274706706543114
outer loop
vertex 2.15628025084497 5.51330717007099 -12.9982121493203
vertex -0.674675179060988 7.16629763718792 -5.99805305429827
vertex 1.25717642115453 7.68393571588295 -12.998407013319
endloop
endfacet
facet normal 0.480751516591731 0.832705397955529 -0.274735690274261
outer loop
vertex 14.4505083594003 17.8075355307607 -13.001806776949
vertex 17.7286828827061 17.7914814901097 -6.00227403757756
vertex 16.3144693807821 16.3772679591826 -13.001860545093
endloop
endfacet
facet normal 0.679898087345133 0.679896060611977 -0.274736123559944
outer loop
vertex 17.7286828827061 17.7914814901097 -6.00227403757756
vertex 14.4505083594003 17.8075355307607 -13.001806776949
vertex 15.4505083010172 19.5395862998163 -6.00220832095717
endloop
endfacet
facet normal -0.965919292287809 0.258843292318194 0.000266097905721934
outer loop
vertex -0.67352916395454 12.861509432827 -2.99890229607974
vertex 0.424229266673808 15.5133069477144 -5.9994551658952
vertex -0.674675300704888 12.8603165028331 -5.99890212503527
endloop
endfacet
facet normal -0.866039293045612 0.49997592488308 0.000132054402201049
outer loop
vertex 0.424229266673808 15.5133069477144 -5.9994551658952
vertex -0.67352916395454 12.861509432827 -2.99890229607974
vertex 0.425375403424155 15.5144998777082 -2.99945533693967
endloop
endfacet
facet normal 0.866029271465153 0.499993020354247 -0.000529681578730485
outer loop
vertex 19.4767877425771 15.5133069477144 -6.00218477063573
vertex 20.5768385600602 12.861509432827 -3.00194677457069
vertex 20.5756924233099 12.8603165028331 -6.00194660352622
endloop
endfacet
facet normal 0.965921892848777 0.258833294185765 -0.000471949553374022
outer loop
vertex 20.5768385600602 12.861509432827 -3.00194677457069
vertex 19.4767877425771 15.5133069477144 -6.00218477063573
vertex 19.4779338793275 15.5144998777083 -3.0021849416802
endloop
endfacet
facet normal -0.866011487617728 0.500024085303525 0.000132024628588411
outer loop
vertex 0.425375403424155 15.5144998777082 -2.99945533693967
vertex 2.17233402920549 17.7914814901097 -6.00004532463964
vertex 0.424229266673808 15.5133069477144 -5.9994551658952
endloop
endfacet
facet normal -0.707127036193759 0.707086525513345 -1.10134810202713e-05
outer loop
vertex 2.17233402920549 17.7914814901097 -6.00004532463964
vertex 0.425375403424155 15.5144998777082 -2.99945533693967
vertex 2.17348016595583 17.7926744201036 -3.00004549568411
endloop
endfacet
facet normal 0.70710707252731 0.707106274915249 -0.00055132326024351
outer loop
vertex 17.7286828827061 17.7914814901097 -6.00227403757756
vertex 19.4779338793275 15.5144998777083 -3.0021849416802
vertex 19.4767877425771 15.5133069477144 -6.00218477063573
endloop
endfacet
facet normal 0.866021307461328 0.500006814411373 -0.000529684021232964
outer loop
vertex 19.4779338793275 15.5144998777083 -3.0021849416802
vertex 17.7286828827061 17.7914814901097 -6.00227403757756
vertex 17.7298290194564 17.7926744201036 -3.00227420862204
endloop
endfacet
facet normal -0.258842760123061 0.965919429451476 -0.000285201702620308
outer loop
vertex 7.10349895987674 20.6384909229323 -6.00117633370059
vertex 9.95165452387682 21.0144997554121 -3.00164027866315
vertex 9.95050838712646 21.0133068254183 -6.00164010761868
endloop
endfacet
facet normal 1.97838576316413e-05 0.999999920741185 -0.000397650880768424
outer loop
vertex 9.95165452387682 21.0144997554121 -3.00164027866315
vertex 7.10349895987674 20.6384909229323 -6.00117633370059
vertex 7.10464509662711 20.6396838529262 -3.00117650474506
endloop
endfacet
facet normal -0.83269768961065 -0.480781429672804 -0.274706706505065
outer loop
vertex 0.424229501671779 4.51330719230663 -5.99781488718877
vertex 3.58654786346671 3.64934618083845 -12.9981391127315
vertex 2.1723343615428 2.23513264991132 -5.99772562024693
endloop
endfacet
facet normal -0.67990255766176 -0.679903714655043 -0.274706117302237
outer loop
vertex 3.58654786346671 3.64934618083845 -12.9981391127315
vertex 0.424229501671779 4.51330719230663 -5.99781488718877
vertex 2.15628025084497 5.51330717007099 -12.9982121493203
endloop
endfacet
facet normal -0.499993961468075 -0.866028724611298 0.000535391062287929
outer loop
vertex 4.45165507998208 0.488220770198602 -2.9977915079118
vertex 2.1723343615428 2.23513264991132 -5.99772562024693
vertex 4.45050894323173 0.487027840204783 -5.99779133686733
endloop
endfacet
facet normal -0.707106262463161 -0.707107084979375 0.000551323272874745
outer loop
vertex 2.1723343615428 2.23513264991132 -5.99772562024693
vertex 4.45165507998208 0.488220770198602 -2.9977915079118
vertex 2.17348049829315 2.23632557990515 -2.9977257912914
endloop
endfacet
facet normal -0.48077901830114 -0.832699133159347 -0.274706551063246
outer loop
vertex 4.45050894323173 0.487027840204783 -5.99779133686733
vertex 3.58654786346671 3.64934618083845 -12.9981391127315
vertex 5.45050888484856 2.21907860926037 -12.9981928808755
endloop
endfacet
facet normal -0.67990255766176 -0.679903714655043 -0.274706117302237
outer loop
vertex 3.58654786346671 3.64934618083845 -12.9981391127315
vertex 4.45050894323173 0.487027840204783 -5.99779133686733
vertex 2.1723343615428 2.23513264991132 -5.99772562024693
endloop
endfacet
facet normal -0.679928591141191 0.679871494917974 -0.274721424986757
outer loop
vertex 3.58654759155437 16.3772679591826 -13.0000370526892
vertex 4.45050853620331 19.5395862998163 -6.00063238292544
vertex 5.45050855182532 17.8075355307607 -13.0005173731049
endloop
endfacet
facet normal -0.480821427136936 0.832668461249956 -0.274725297061682
outer loop
vertex 4.45050853620331 19.5395862998163 -6.00063238292544
vertex 3.58654759155437 16.3772679591826 -13.0000370526892
vertex 2.17233402920549 17.7914814901097 -6.00004532463964
endloop
endfacet
facet normal 0.499993961468074 0.866028724611299 -0.000535391062292436
outer loop
vertex 15.4505083010172 19.5395862998163 -6.00220832095717
vertex 17.7298290194564 17.7926744201036 -3.00227420862204
vertex 17.7286828827061 17.7914814901097 -6.00227403757756
endloop
endfacet
facet normal 0.707106262463161 0.707107084979374 -0.000551323272878678
outer loop
vertex 17.7298290194564 17.7926744201036 -3.00227420862204
vertex 15.4505083010172 19.5395862998163 -6.00220832095717
vertex 15.4516544377675 19.5407792298101 -3.00220849200164
endloop
endfacet
facet normal 0.258842760123059 -0.965919429451476 0.000285201702615855
outer loop
vertex 12.7986644211225 -0.610683852917456 -2.99882349516838
vertex 9.9505088571224 -0.986692685397248 -5.99835955020582
vertex 12.7975182843721 -0.611876782911275 -5.9988233241239
endloop
endfacet
facet normal -1.97838576318374e-05 -0.999999920741185 0.000397650880763662
outer loop
vertex 9.9505088571224 -0.986692685397248 -5.99835955020582
vertex 12.7986644211225 -0.610683852917456 -2.99882349516838
vertex 9.95165499387276 -0.98549975540343 -2.99835972125029
endloop
endfacet
facet normal 0.248801615867908 -0.928778942904165 -0.274713361814345
outer loop
vertex 12.7975182843721 -0.611876782911275 -5.9988233241239
vertex 9.95050881439549 1.01330727013143 -12.9986577826979
vertex 12.2798801639634 1.31997482671086 -12.9990372340854
endloop
endfacet
facet normal -2.79693039616903e-05 -0.961527040422628 -0.274710301506552
outer loop
vertex 9.95050881439549 1.01330727013143 -12.9986577826979
vertex 12.7975182843721 -0.611876782911275 -5.9988233241239
vertex 9.9505088571224 -0.986692685397248 -5.99835955020582
endloop
endfacet
facet normal -2.7970992146501e-05 0.961520856968636 -0.274731943595795
outer loop
vertex 9.95050842985337 19.0133068698896 -13.0013418751266
vertex 12.7975178303909 20.6384909229323 -6.00199209925362
vertex 12.2798797925243 18.7066393133102 -13.0016298682825
endloop
endfacet
facet normal 0.248826088678762 0.928766203896275 -0.274734264504688
outer loop
vertex 12.7975178303909 20.6384909229323 -6.00199209925362
vertex 9.95050842985337 19.0133068698896 -13.0013418751266
vertex 9.95050838712646 21.0133068254183 -6.00164010761868
endloop
endfacet
facet normal -0.500023848323678 0.866011620936419 -0.000153331851745556
outer loop
vertex 4.45050853620331 19.5395862998163 -6.00063238292544
vertex 7.10464509662711 20.6396838529262 -3.00117650474506
vertex 7.10349895987674 20.6384909229323 -6.00117633370059
endloop
endfacet
facet normal -0.258795409767191 0.965932116936912 -0.000285224837709936
outer loop
vertex 7.10464509662711 20.6396838529262 -3.00117650474506
vertex 4.45050853620331 19.5395862998163 -6.00063238292544
vertex 4.45165467295365 19.5407792298101 -3.00063255396991
endloop
endfacet
facet normal 0.707127036193759 -0.707086525513344 1.10134810163538e-05
outer loop
vertex 17.7298293517938 2.23632557990515 -2.99995450422933
vertex 15.4505087080456 0.487027840204787 -5.99936727489905
vertex 17.7286832150434 2.23513264991133 -5.99995433318486
endloop
endfacet
facet normal 0.499976201463699 -0.866039129860965 0.000153360993755539
outer loop
vertex 15.4505087080456 0.487027840204787 -5.99936727489905
vertex 17.7298293517938 2.23632557990515 -2.99995450422933
vertex 15.4516548447959 0.488220770198606 -2.99936744594352
endloop
endfacet
facet normal 0.999999926809738 -2.06876992511521e-05 -0.000382037350943878
outer loop
vertex 20.9505083869383 10.0133070700105 -6.00157576694398
vertex 20.5768386817041 7.16749056718176 -3.00109770383369
vertex 20.5756925449538 7.16629763718793 -6.00109753278922
endloop
endfacet
facet normal 0.965932276276365 -0.258794835393928 -0.000266122134772671
outer loop
vertex 20.5768386817041 7.16749056718176 -3.00109770383369
vertex 20.9505083869383 10.0133070700105 -6.00157576694398
vertex 20.9516545236887 10.0145000000044 -3.00157593798845
endloop
endfacet
facet normal 0.928762670202414 0.248839609216966 -0.274733964633481
outer loop
vertex 18.6438408230943 12.3426784241381 -13.0015926445055
vertex 20.9505083869383 10.0133070700105 -6.00157576694398
vertex 18.9505084296994 10.0133070700105 -13.0012892327564
endloop
endfacet
facet normal 0.961520977269607 -5.20322704389243e-05 -0.274731519056591
outer loop
vertex 20.9505083869383 10.0133070700105 -6.00157576694398
vertex 18.6438408230943 12.3426784241381 -13.0015926445055
vertex 20.5756924233099 12.8603165028331 -6.00194660352622
endloop
endfacet
facet normal 0.965919292287809 -0.258843292318194 -0.000266097905723018
outer loop
vertex 20.5756925449538 7.16629763718793 -6.00109753278922
vertex 19.4779341143254 4.51450012230047 -3.00054466297377
vertex 19.4767879775751 4.51330719230665 -6.0005444919293
endloop
endfacet
facet normal 0.866039293045612 -0.49997592488308 -0.000132054402203112
outer loop
vertex 19.4779341143254 4.51450012230047 -3.00054466297377
vertex 20.5756925449538 7.16629763718793 -6.00109753278922
vertex 20.5768386817041 7.16749056718176 -3.00109770383369
endloop
endfacet
facet normal -0.866029271465152 -0.499993020354247 0.000529681578728445
outer loop
vertex 0.425375638422127 4.51450012230046 -2.99781505823324
vertex -0.674675179060988 7.16629763718792 -5.99805305429827
vertex 0.424229501671779 4.51330719230663 -5.99781488718877
endloop
endfacet
facet normal -0.965921892848777 -0.258833294185764 0.000471949553372946
outer loop
vertex -0.674675179060988 7.16629763718792 -5.99805305429827
vertex 0.425375638422127 4.51450012230046 -2.99781505823324
vertex -0.67352904231064 7.16749056718175 -2.99805322534274
endloop
endfacet
facet normal 0.248840917757139 0.928762230871794 -0.274734264619165
outer loop
vertex 12.2798797925243 18.7066393133102 -13.0016298682825
vertex 15.4505083010172 19.5395862998163 -6.00220832095717
vertex 14.4505083594003 17.8075355307607 -13.001806776949
endloop
endfacet
facet normal 0.480744919563273 0.832709206637655 -0.274735690246078
outer loop
vertex 15.4505083010172 19.5395862998163 -6.00220832095717
vertex 12.2798797925243 18.7066393133102 -13.0016298682825
vertex 12.7975178303909 20.6384909229323 -6.00199209925362
endloop
endfacet
facet normal -0.832740100292572 0.480701782349633 -0.274717530948798
outer loop
vertex 0.424229266673808 15.5133069477144 -5.9994551658952
vertex 3.58654759155437 16.3772679591826 -13.0000370526892
vertex 2.15628005857391 14.5133069699501 -12.9995541955347
endloop
endfacet
facet normal -0.679928591141191 0.679871494917974 -0.274721424986757
outer loop
vertex 3.58654759155437 16.3772679591826 -13.0000370526892
vertex 0.424229266673808 15.5133069477144 -5.9994551658952
vertex 2.17233402920549 17.7914814901097 -6.00004532463964
endloop
endfacet
endsolid K02.2
