solid kitchissippi-02
facet normal 0.500000000000037 0.0 -0.866025403784418
outer loop
vertex 110.095183773139 -438.702471511792 603.734991289952
vertex 109.680970210766 -441.702471511792 603.417154044757
vertex 109.680970210766 -438.702471511792 603.417154044757
endloop
endfacet
facet normal 0.707106781186585 0.0 -0.70710678118651
outer loop
vertex 109.680970210766 -441.702471511792 603.417154044757
vertex 110.095183773139 -438.702471511792 603.734991289952
vertex 110.095183773139 -441.702471511792 603.734991289952
endloop
endfacet
facet normal 0.965925826289061 0.0 -0.258819045102547
outer loop
vertex 109.163332120561 -438.702471511792 602.520578572589
vertex 109.363132965571 -441.702471511792 603.002940482384
vertex 109.163332120561 -441.702471511792 602.520578572589
endloop
endfacet
facet normal 0.866025403784427 0.0 -0.50000000000002
outer loop
vertex 109.363132965571 -441.702471511792 603.002940482384
vertex 109.163332120561 -438.702471511792 602.520578572589
vertex 109.363132965571 -438.702471511792 603.002940482384
endloop
endfacet
facet normal -0.613508705906595 0.789687955952739 0.0
outer loop
vertex 101.126520083437 -440.202471511792 611.985845241195
vertex 103.057270083437 -438.702471511792 571.985845241195
vertex 101.126520083437 -440.202471511792 571.985845241195
endloop
endfacet
facet normal -0.613508705906595 0.789687955952739 0.0
outer loop
vertex 103.057270083437 -438.702471511792 571.985845241195
vertex 101.126520083437 -440.202471511792 611.985845241195
vertex 103.057270083437 -438.702471511792 611.985845241195
endloop
endfacet
facet normal 1.0 0.0 0.0
outer loop
vertex 109.09518377314 -438.702471511792 602.002940482384
vertex 109.163332120561 -441.702471511792 602.520578572589
vertex 109.09518377314 -441.702471511792 602.002940482384
endloop
endfacet
facet normal 0.965925826289061 0.0 -0.258819045102547
outer loop
vertex 109.163332120561 -441.702471511792 602.520578572589
vertex 109.09518377314 -438.702471511792 602.002940482384
vertex 109.163332120561 -438.702471511792 602.520578572589
endloop
endfacet
facet normal -0.258819045102515 0.0 0.96592582628907
outer loop
vertex 111.612821863345 -441.702471511792 600.071088829805
vertex 111.09518377314 -438.702471511792 600.002940482384
vertex 111.09518377314 -441.702471511792 600.002940482384
endloop
endfacet
facet normal 0.0 0.0 1.0
outer loop
vertex 111.09518377314 -438.702471511792 600.002940482384
vertex 111.612821863345 -441.702471511792 600.071088829805
vertex 111.612821863345 -438.702471511792 600.071088829805
endloop
endfacet
facet normal 1.0 0.0 0.0
outer loop
vertex 141.092329601059 -440.202471511792 592.020035723572
vertex 141.092329601059 -441.702471511792 611.985845241195
vertex 141.092329601059 -441.716971511792 592.020035723572
endloop
endfacet
facet normal 1.0 0.0 0.0
outer loop
vertex 141.092329601059 -441.702471511792 611.985845241195
vertex 141.092329601059 -440.202471511792 592.020035723572
vertex 141.092329601059 -440.202471511792 611.985845241195
endloop
endfacet
facet normal 0.0 0.0 1.0
outer loop
vertex 141.092329601059 -441.702471511792 611.985845241195
vertex 101.126520083437 -440.202471511792 611.985845241195
vertex 101.126520083437 -441.702471511792 611.985845241195
endloop
endfacet
facet normal 0.0 0.0 1.0
outer loop
vertex 101.126520083437 -440.202471511792 611.985845241195
vertex 141.092329601059 -441.702471511792 611.985845241195
vertex 103.057270083437 -438.702471511792 611.985845241195
endloop
endfacet
facet normal 0.0 0.0 1.0
outer loop
vertex 103.057270083437 -438.702471511792 611.985845241195
vertex 141.092329601059 -441.702471511792 611.985845241195
vertex 139.092329601059 -438.702471511792 611.985845241195
endloop
endfacet
facet normal 0.0 0.0 1.0
outer loop
vertex 139.092329601059 -438.702471511792 611.985845241195
vertex 141.092329601059 -441.702471511792 611.985845241195
vertex 141.092329601059 -440.202471511792 611.985845241195
endloop
endfacet
facet normal 0.0 0.0 1.0
outer loop
vertex 111.09518377314 -441.702471511792 579.985845241195
vertex 110.577545682934 -438.702471511792 580.053993588617
vertex 110.577545682934 -441.702471511792 580.053993588617
endloop
endfacet
facet normal 0.258819045102547 0.0 0.965925826289061
outer loop
vertex 110.577545682934 -438.702471511792 580.053993588617
vertex 111.09518377314 -441.702471511792 579.985845241195
vertex 111.09518377314 -438.702471511792 579.985845241195
endloop
endfacet
facet normal -0.96592582628907 0.0 -0.258819045102515
outer loop
vertex 133.027035425718 -438.702471511792 602.520578572589
vertex 133.095183773139 -441.702471511792 602.002940482384
vertex 133.027035425718 -441.702471511792 602.520578572589
endloop
endfacet
facet normal -1.0 0.0 0.0
outer loop
vertex 133.095183773139 -441.702471511792 602.002940482384
vertex 133.027035425718 -438.702471511792 602.520578572589
vertex 133.095183773139 -438.702471511792 602.002940482384
endloop
endfacet
facet normal 0.965925826289061 0.0 -0.258819045102547
outer loop
vertex 129.163332120561 -438.702471511792 602.520578572589
vertex 129.363132965571 -441.702471511792 603.002940482384
vertex 129.163332120561 -441.702471511792 602.520578572589
endloop
endfacet
facet normal 0.866025403784427 0.0 -0.50000000000002
outer loop
vertex 129.363132965571 -441.702471511792 603.002940482384
vertex 129.163332120561 -438.702471511792 602.520578572589
vertex 129.363132965571 -438.702471511792 603.002940482384
endloop
endfacet
facet normal -1.0 0.0 0.0
outer loop
vertex 101.126520083437 -440.202471511792 611.985845241195
vertex 101.126520083437 -441.702471511792 571.985845241195
vertex 101.126520083437 -441.702471511792 611.985845241195
endloop
endfacet
facet normal -1.0 0.0 0.0
outer loop
vertex 101.126520083437 -441.702471511792 571.985845241195
vertex 101.126520083437 -440.202471511792 611.985845241195
vertex 101.126520083437 -440.202471511792 571.985845241195
endloop
endfacet
facet normal -0.707106781186585 0.0 0.70710678118651
outer loop
vertex 132.509397335513 -441.702471511792 600.58872692001
vertex 132.09518377314 -438.702471511792 600.270889674815
vertex 132.09518377314 -441.702471511792 600.270889674815
endloop
endfacet
facet normal -0.500000000000037 0.0 0.866025403784418
outer loop
vertex 132.09518377314 -438.702471511792 600.270889674815
vertex 132.509397335513 -441.702471511792 600.58872692001
vertex 132.509397335513 -438.702471511792 600.58872692001
endloop
endfacet
facet normal -1.0 0.0 0.0
outer loop
vertex 133.095183773139 -438.702471511792 602.002940482384
vertex 133.027035425718 -441.702471511792 601.485302392178
vertex 133.095183773139 -441.702471511792 602.002940482384
endloop
endfacet
facet normal -0.965925826289061 0.0 0.258819045102547
outer loop
vertex 133.027035425718 -441.702471511792 601.485302392178
vertex 133.095183773139 -438.702471511792 602.002940482384
vertex 133.027035425718 -438.702471511792 601.485302392178
endloop
endfacet
facet normal 0.70710678118651 0.0 0.707106781186585
outer loop
vertex 129.680970210766 -438.702471511792 600.58872692001
vertex 129.363132965571 -441.702471511792 601.002940482384
vertex 129.680970210766 -441.702471511792 600.58872692001
endloop
endfacet
facet normal 0.866025403784418 0.0 0.500000000000037
outer loop
vertex 129.363132965571 -441.702471511792 601.002940482384
vertex 129.680970210766 -438.702471511792 600.58872692001
vertex 129.363132965571 -438.702471511792 601.002940482384
endloop
endfacet
facet normal 1.0 0.0 0.0
outer loop
vertex 129.095183773139 -438.702471511792 602.002940482384
vertex 129.163332120561 -441.702471511792 602.520578572589
vertex 129.095183773139 -441.702471511792 602.002940482384
endloop
endfacet
facet normal 0.965925826289061 0.0 -0.258819045102547
outer loop
vertex 129.163332120561 -441.702471511792 602.520578572589
vertex 129.095183773139 -438.702471511792 602.002940482384
vertex 129.163332120561 -438.702471511792 602.520578572589
endloop
endfacet
facet normal 0.0 0.0 -1.0
outer loop
vertex 131.095183773139 -438.702471511792 604.002940482384
vertex 130.577545682934 -441.702471511792 603.934792134962
vertex 130.577545682934 -438.702471511792 603.934792134962
endloop
endfacet
facet normal 0.258819045102515 0.0 -0.96592582628907
outer loop
vertex 130.577545682934 -441.702471511792 603.934792134962
vertex 131.095183773139 -438.702471511792 604.002940482384
vertex 131.095183773139 -441.702471511792 604.002940482384
endloop
endfacet
facet normal -0.70710678118651 0.0 -0.707106781186585
outer loop
vertex 132.509397335513 -438.702471511792 603.417154044757
vertex 132.095183773139 -441.702471511792 603.734991289952
vertex 132.095183773139 -438.702471511792 603.734991289952
endloop
endfacet
facet normal -0.50000000000002 0.0 -0.866025403784427
outer loop
vertex 132.095183773139 -441.702471511792 603.734991289952
vertex 132.509397335513 -438.702471511792 603.417154044757
vertex 132.509397335513 -441.702471511792 603.417154044757
endloop
endfacet
facet normal -0.258819045102547 0.0 -0.965925826289061
outer loop
vertex 131.612821863345 -438.702471511792 603.934792134962
vertex 131.095183773139 -441.702471511792 604.002940482384
vertex 131.095183773139 -438.702471511792 604.002940482384
endloop
endfacet
facet normal 0.0 0.0 -1.0
outer loop
vertex 131.095183773139 -441.702471511792 604.002940482384
vertex 131.612821863345 -438.702471511792 603.934792134962
vertex 131.612821863345 -441.702471511792 603.934792134962
endloop
endfacet
facet normal -0.500000000000037 0.0 0.866025403784418
outer loop
vertex 132.09518377314 -441.702471511792 600.270889674815
vertex 131.612821863345 -438.702471511792 600.071088829805
vertex 131.612821863345 -441.702471511792 600.071088829805
endloop
endfacet
facet normal -0.258819045102515 0.0 0.96592582628907
outer loop
vertex 131.612821863345 -438.702471511792 600.071088829805
vertex 132.09518377314 -441.702471511792 600.270889674815
vertex 132.09518377314 -438.702471511792 600.270889674815
endloop
endfacet
facet normal 0.866025403784427 0.0 -0.50000000000002
outer loop
vertex 129.363132965571 -438.702471511792 603.002940482384
vertex 129.680970210766 -441.702471511792 603.417154044757
vertex 129.363132965571 -441.702471511792 603.002940482384
endloop
endfacet
facet normal 0.707106781186585 0.0 -0.70710678118651
outer loop
vertex 129.680970210766 -441.702471511792 603.417154044757
vertex 129.363132965571 -438.702471511792 603.002940482384
vertex 129.680970210766 -438.702471511792 603.417154044757
endloop
endfacet
facet normal 0.500000000000037 0.0 -0.866025403784418
outer loop
vertex 130.095183773139 -438.702471511792 603.734991289952
vertex 129.680970210766 -441.702471511792 603.417154044757
vertex 129.680970210766 -438.702471511792 603.417154044757
endloop
endfacet
facet normal 0.707106781186585 0.0 -0.70710678118651
outer loop
vertex 129.680970210766 -441.702471511792 603.417154044757
vertex 130.095183773139 -438.702471511792 603.734991289952
vertex 130.095183773139 -441.702471511792 603.734991289952
endloop
endfacet
facet normal -0.258819045102547 0.0 -0.965925826289061
outer loop
vertex 111.612821863345 -438.702471511792 603.934792134962
vertex 111.09518377314 -441.702471511792 604.002940482384
vertex 111.09518377314 -438.702471511792 604.002940482384
endloop
endfacet
facet normal 0.0 0.0 -1.0
outer loop
vertex 111.09518377314 -441.702471511792 604.002940482384
vertex 111.612821863345 -438.702471511792 603.934792134962
vertex 111.612821863345 -441.702471511792 603.934792134962
endloop
endfacet
facet normal -0.866025403784418 0.0 -0.500000000000037
outer loop
vertex 112.827234580708 -438.702471511792 603.002940482384
vertex 113.027035425718 -441.702471511792 602.520578572589
vertex 112.827234580708 -441.702471511792 603.002940482384
endloop
endfacet
facet normal -0.96592582628907 0.0 -0.258819045102515
outer loop
vertex 113.027035425718 -441.702471511792 602.520578572589
vertex 112.827234580708 -438.702471511792 603.002940482384
vertex 113.027035425718 -438.702471511792 602.520578572589
endloop
endfacet
facet normal -0.500000000000037 0.0 0.866025403784418
outer loop
vertex 112.09518377314 -441.702471511792 600.270889674815
vertex 111.612821863345 -438.702471511792 600.071088829805
vertex 111.612821863345 -441.702471511792 600.071088829805
endloop
endfacet
facet normal -0.258819045102515 0.0 0.96592582628907
outer loop
vertex 111.612821863345 -438.702471511792 600.071088829805
vertex 112.09518377314 -441.702471511792 600.270889674815
vertex 112.09518377314 -438.702471511792 600.270889674815
endloop
endfacet
facet normal 0.70710678118651 0.0 0.707106781186585
outer loop
vertex 109.680970210766 -438.702471511792 600.58872692001
vertex 109.363132965571 -441.702471511792 601.002940482384
vertex 109.680970210766 -441.702471511792 600.58872692001
endloop
endfacet
facet normal 0.866025403784418 0.0 0.500000000000037
outer loop
vertex 109.363132965571 -441.702471511792 601.002940482384
vertex 109.680970210766 -438.702471511792 600.58872692001
vertex 109.363132965571 -438.702471511792 601.002940482384
endloop
endfacet
facet normal 0.258819045102515 0.0 -0.96592582628907
outer loop
vertex 110.577545682934 -438.702471511792 603.934792134962
vertex 110.095183773139 -441.702471511792 603.734991289952
vertex 110.095183773139 -438.702471511792 603.734991289952
endloop
endfacet
facet normal 0.500000000000037 0.0 -0.866025403784418
outer loop
vertex 110.095183773139 -441.702471511792 603.734991289952
vertex 110.577545682934 -438.702471511792 603.934792134962
vertex 110.577545682934 -441.702471511792 603.934792134962
endloop
endfacet
facet normal -1.0 0.0 0.0
outer loop
vertex 113.09518377314 -438.702471511792 602.002940482384
vertex 113.027035425718 -441.702471511792 601.485302392178
vertex 113.09518377314 -441.702471511792 602.002940482384
endloop
endfacet
facet normal -0.965925826289061 0.0 0.258819045102547
outer loop
vertex 113.027035425718 -441.702471511792 601.485302392178
vertex 113.09518377314 -438.702471511792 602.002940482384
vertex 113.027035425718 -438.702471511792 601.485302392178
endloop
endfacet
facet normal -0.707106781186585 0.0 0.70710678118651
outer loop
vertex 112.509397335513 -441.702471511792 580.571631678822
vertex 112.09518377314 -438.702471511792 580.253794433626
vertex 112.09518377314 -441.702471511792 580.253794433626
endloop
endfacet
facet normal -0.500000000000037 0.0 0.866025403784418
outer loop
vertex 112.09518377314 -438.702471511792 580.253794433626
vertex 112.509397335513 -441.702471511792 580.571631678822
vertex 112.509397335513 -438.702471511792 580.571631678822
endloop
endfacet
facet normal 1.0 0.0 0.0
outer loop
vertex 121.092329601059 -441.702471511792 571.985845241195
vertex 121.092329601059 -440.202471511792 592.020035723572
vertex 121.092329601059 -441.716971511792 592.020035723572
endloop
endfacet
facet normal 1.0 0.0 0.0
outer loop
vertex 121.092329601059 -440.202471511792 592.020035723572
vertex 121.092329601059 -441.702471511792 571.985845241195
vertex 121.092329601059 -440.202471511792 571.985845241195
endloop
endfacet
facet normal 0.607901022184207 0.794012813012105 0.0
outer loop
vertex 119.133097462842 -438.702471511792 592.020035723572
vertex 121.092329601059 -440.202471511792 571.985845241195
vertex 119.133097462842 -438.702471511792 571.985845241195
endloop
endfacet
facet normal 0.607901022184207 0.794012813012105 0.0
outer loop
vertex 121.092329601059 -440.202471511792 571.985845241195
vertex 119.133097462842 -438.702471511792 592.020035723572
vertex 121.092329601059 -440.202471511792 592.020035723572
endloop
endfacet
facet normal -0.707106781186585 0.0 0.70710678118651
outer loop
vertex 112.509397335513 -441.702471511792 600.58872692001
vertex 112.09518377314 -438.702471511792 600.270889674815
vertex 112.09518377314 -441.702471511792 600.270889674815
endloop
endfacet
facet normal -0.500000000000037 0.0 0.866025403784418
outer loop
vertex 112.09518377314 -438.702471511792 600.270889674815
vertex 112.509397335513 -441.702471511792 600.58872692001
vertex 112.509397335513 -438.702471511792 600.58872692001
endloop
endfacet
facet normal -0.70710678118651 0.0 -0.707106781186585
outer loop
vertex 112.509397335513 -438.702471511792 603.417154044757
vertex 112.827234580708 -441.702471511792 603.002940482384
vertex 112.509397335513 -441.702471511792 603.417154044757
endloop
endfacet
facet normal -0.866025403784418 0.0 -0.500000000000037
outer loop
vertex 112.827234580708 -441.702471511792 603.002940482384
vertex 112.509397335513 -438.702471511792 603.417154044757
vertex 112.827234580708 -438.702471511792 603.002940482384
endloop
endfacet
facet normal 0.258819045102547 0.0 0.965925826289061
outer loop
vertex 110.577545682934 -441.702471511792 600.071088829805
vertex 110.09518377314 -438.702471511792 600.270889674815
vertex 110.09518377314 -441.702471511792 600.270889674815
endloop
endfacet
facet normal 0.50000000000002 0.0 0.866025403784427
outer loop
vertex 110.09518377314 -438.702471511792 600.270889674815
vertex 110.577545682934 -441.702471511792 600.071088829805
vertex 110.577545682934 -438.702471511792 600.071088829805
endloop
endfacet
facet normal 0.0 0.0 -1.0
outer loop
vertex 139.092329601059 -438.702471511792 592.020035723572
vertex 121.092329601059 -440.202471511792 592.020035723572
vertex 119.133097462842 -438.702471511792 592.020035723572
endloop
endfacet
facet normal 0.0 0.0 -1.0
outer loop
vertex 121.092329601059 -440.202471511792 592.020035723572
vertex 139.092329601059 -438.702471511792 592.020035723572
vertex 141.092329601059 -440.202471511792 592.020035723572
endloop
endfacet
facet normal -0.500000000000037 0.0 0.866025403784418
outer loop
vertex 112.09518377314 -441.702471511792 580.253794433626
vertex 111.612821863345 -438.702471511792 580.053993588617
vertex 111.612821863345 -441.702471511792 580.053993588617
endloop
endfacet
facet normal -0.258819045102515 0.0 0.96592582628907
outer loop
vertex 111.612821863345 -438.702471511792 580.053993588617
vertex 112.09518377314 -441.702471511792 580.253794433626
vertex 112.09518377314 -438.702471511792 580.253794433626
endloop
endfacet
facet normal 0.258819045102515 0.0 -0.96592582628907
outer loop
vertex 110.577545682934 -438.702471511792 583.917696893773
vertex 110.095183773139 -441.702471511792 583.717896048764
vertex 110.095183773139 -438.702471511792 583.717896048764
endloop
endfacet
facet normal 0.500000000000037 0.0 -0.866025403784418
outer loop
vertex 110.095183773139 -441.702471511792 583.717896048764
vertex 110.577545682934 -438.702471511792 583.917696893773
vertex 110.577545682934 -441.702471511792 583.917696893773
endloop
endfacet
facet normal 0.96592582628907 0.0 0.258819045102515
outer loop
vertex 109.163332120561 -438.702471511792 581.46820715099
vertex 109.09518377314 -441.702471511792 581.985845241195
vertex 109.163332120561 -441.702471511792 581.46820715099
endloop
endfacet
facet normal 1.0 0.0 0.0
outer loop
vertex 109.09518377314 -441.702471511792 581.985845241195
vertex 109.163332120561 -438.702471511792 581.46820715099
vertex 109.09518377314 -438.702471511792 581.985845241195
endloop
endfacet
facet normal 0.70710678118651 0.0 0.707106781186585
outer loop
vertex 109.680970210766 -438.702471511792 580.571631678822
vertex 109.363132965571 -441.702471511792 580.985845241195
vertex 109.680970210766 -441.702471511792 580.571631678822
endloop
endfacet
facet normal 0.866025403784418 0.0 0.500000000000037
outer loop
vertex 109.363132965571 -441.702471511792 580.985845241195
vertex 109.680970210766 -438.702471511792 580.571631678822
vertex 109.363132965571 -438.702471511792 580.985845241195
endloop
endfacet
facet normal -0.50000000000002 0.0 -0.866025403784427
outer loop
vertex 112.095183773139 -438.702471511792 583.717896048764
vertex 111.612821863345 -441.702471511792 583.917696893773
vertex 111.612821863345 -438.702471511792 583.917696893773
endloop
endfacet
facet normal -0.258819045102547 0.0 -0.965925826289061
outer loop
vertex 111.612821863345 -441.702471511792 583.917696893773
vertex 112.095183773139 -438.702471511792 583.717896048764
vertex 112.095183773139 -441.702471511792 583.717896048764
endloop
endfacet
facet normal 0.258819045102547 0.0 0.965925826289061
outer loop
vertex 110.577545682934 -441.702471511792 580.053993588617
vertex 110.09518377314 -438.702471511792 580.253794433626
vertex 110.09518377314 -441.702471511792 580.253794433626
endloop
endfacet
facet normal 0.50000000000002 0.0 0.866025403784427
outer loop
vertex 110.09518377314 -438.702471511792 580.253794433626
vertex 110.577545682934 -441.702471511792 580.053993588617
vertex 110.577545682934 -438.702471511792 580.053993588617
endloop
endfacet
facet normal -0.965925826289061 0.0 0.258819045102547
outer loop
vertex 113.027035425718 -438.702471511792 581.46820715099
vertex 112.827234580708 -441.702471511792 580.985845241195
vertex 113.027035425718 -441.702471511792 581.46820715099
endloop
endfacet
facet normal -0.866025403784427 0.0 0.50000000000002
outer loop
vertex 112.827234580708 -441.702471511792 580.985845241195
vertex 113.027035425718 -438.702471511792 581.46820715099
vertex 112.827234580708 -438.702471511792 580.985845241195
endloop
endfacet
facet normal 0.50000000000002 0.0 0.866025403784427
outer loop
vertex 110.09518377314 -441.702471511792 580.253794433626
vertex 109.680970210766 -438.702471511792 580.571631678822
vertex 109.680970210766 -441.702471511792 580.571631678822
endloop
endfacet
facet normal 0.70710678118651 0.0 0.707106781186585
outer loop
vertex 109.680970210766 -438.702471511792 580.571631678822
vertex 110.09518377314 -441.702471511792 580.253794433626
vertex 110.09518377314 -438.702471511792 580.253794433626
endloop
endfacet
facet normal -0.866025403784418 0.0 -0.500000000000037
outer loop
vertex 112.827234580708 -438.702471511792 582.985845241195
vertex 113.027035425718 -441.702471511792 582.5034833314
vertex 112.827234580708 -441.702471511792 582.985845241195
endloop
endfacet
facet normal -0.96592582628907 0.0 -0.258819045102515
outer loop
vertex 113.027035425718 -441.702471511792 582.5034833314
vertex 112.827234580708 -438.702471511792 582.985845241195
vertex 113.027035425718 -438.702471511792 582.5034833314
endloop
endfacet
facet normal -0.258819045102547 0.0 -0.965925826289061
outer loop
vertex 111.612821863345 -438.702471511792 583.917696893773
vertex 111.09518377314 -441.702471511792 583.985845241195
vertex 111.09518377314 -438.702471511792 583.985845241195
endloop
endfacet
facet normal 0.0 0.0 -1.0
outer loop
vertex 111.09518377314 -441.702471511792 583.985845241195
vertex 111.612821863345 -438.702471511792 583.917696893773
vertex 111.612821863345 -441.702471511792 583.917696893773
endloop
endfacet
facet normal -0.70710678118651 0.0 -0.707106781186585
outer loop
vertex 112.509397335513 -438.702471511792 583.400058803568
vertex 112.827234580708 -441.702471511792 582.985845241195
vertex 112.509397335513 -441.702471511792 583.400058803568
endloop
endfacet
facet normal -0.866025403784418 0.0 -0.500000000000037
outer loop
vertex 112.827234580708 -441.702471511792 582.985845241195
vertex 112.509397335513 -438.702471511792 583.400058803568
vertex 112.827234580708 -438.702471511792 582.985845241195
endloop
endfacet
facet normal -1.0 0.0 0.0
outer loop
vertex 113.09518377314 -438.702471511792 581.985845241195
vertex 113.027035425718 -441.702471511792 581.46820715099
vertex 113.09518377314 -441.702471511792 581.985845241195
endloop
endfacet
facet normal -0.965925826289061 0.0 0.258819045102547
outer loop
vertex 113.027035425718 -441.702471511792 581.46820715099
vertex 113.09518377314 -438.702471511792 581.985845241195
vertex 113.027035425718 -438.702471511792 581.46820715099
endloop
endfacet
facet normal 0.500000000000037 0.0 -0.866025403784418
outer loop
vertex 110.095183773139 -438.702471511792 583.717896048764
vertex 109.680970210766 -441.702471511792 583.400058803568
vertex 109.680970210766 -438.702471511792 583.400058803568
endloop
endfacet
facet normal 0.707106781186585 0.0 -0.70710678118651
outer loop
vertex 109.680970210766 -441.702471511792 583.400058803568
vertex 110.095183773139 -438.702471511792 583.717896048764
vertex 110.095183773139 -441.702471511792 583.717896048764
endloop
endfacet
facet normal 0.0 0.0 -1.0
outer loop
vertex 111.09518377314 -438.702471511792 583.985845241195
vertex 110.577545682934 -441.702471511792 583.917696893773
vertex 110.577545682934 -438.702471511792 583.917696893773
endloop
endfacet
facet normal 0.258819045102515 0.0 -0.96592582628907
outer loop
vertex 110.577545682934 -441.702471511792 583.917696893773
vertex 111.09518377314 -438.702471511792 583.985845241195
vertex 111.09518377314 -441.702471511792 583.985845241195
endloop
endfacet
facet normal -0.866025403784427 0.0 0.50000000000002
outer loop
vertex 112.827234580708 -438.702471511792 580.985845241195
vertex 112.509397335513 -441.702471511792 580.571631678822
vertex 112.827234580708 -441.702471511792 580.985845241195
endloop
endfacet
facet normal -0.707106781186585 0.0 0.70710678118651
outer loop
vertex 112.509397335513 -441.702471511792 580.571631678822
vertex 112.827234580708 -438.702471511792 580.985845241195
vertex 112.509397335513 -438.702471511792 580.571631678822
endloop
endfacet
facet normal -0.70710678118651 0.0 -0.707106781186585
outer loop
vertex 112.509397335513 -438.702471511792 583.400058803568
vertex 112.095183773139 -441.702471511792 583.717896048764
vertex 112.095183773139 -438.702471511792 583.717896048764
endloop
endfacet
facet normal -0.50000000000002 0.0 -0.866025403784427
outer loop
vertex 112.095183773139 -441.702471511792 583.717896048764
vertex 112.509397335513 -438.702471511792 583.400058803568
vertex 112.509397335513 -441.702471511792 583.400058803568
endloop
endfacet
facet normal -0.96592582628907 0.0 -0.258819045102515
outer loop
vertex 113.027035425718 -438.702471511792 582.5034833314
vertex 113.09518377314 -441.702471511792 581.985845241195
vertex 113.027035425718 -441.702471511792 582.5034833314
endloop
endfacet
facet normal -1.0 0.0 0.0
outer loop
vertex 113.09518377314 -441.702471511792 581.985845241195
vertex 113.027035425718 -438.702471511792 582.5034833314
vertex 113.09518377314 -438.702471511792 581.985845241195
endloop
endfacet
facet normal 0.866025403784427 0.0 -0.50000000000002
outer loop
vertex 109.363132965571 -438.702471511792 582.985845241195
vertex 109.680970210766 -441.702471511792 583.400058803568
vertex 109.363132965571 -441.702471511792 582.985845241195
endloop
endfacet
facet normal 0.707106781186585 0.0 -0.70710678118651
outer loop
vertex 109.680970210766 -441.702471511792 583.400058803568
vertex 109.363132965571 -438.702471511792 582.985845241195
vertex 109.680970210766 -438.702471511792 583.400058803568
endloop
endfacet
facet normal -0.258819045102515 0.0 0.96592582628907
outer loop
vertex 111.612821863345 -441.702471511792 580.053993588617
vertex 111.09518377314 -438.702471511792 579.985845241195
vertex 111.09518377314 -441.702471511792 579.985845241195
endloop
endfacet
facet normal 0.0 0.0 1.0
outer loop
vertex 111.09518377314 -438.702471511792 579.985845241195
vertex 111.612821863345 -441.702471511792 580.053993588617
vertex 111.612821863345 -438.702471511792 580.053993588617
endloop
endfacet
facet normal 0.866025403784418 0.0 0.500000000000037
outer loop
vertex 109.363132965571 -438.702471511792 580.985845241195
vertex 109.163332120561 -441.702471511792 581.46820715099
vertex 109.363132965571 -441.702471511792 580.985845241195
endloop
endfacet
facet normal 0.96592582628907 0.0 0.258819045102515
outer loop
vertex 109.163332120561 -441.702471511792 581.46820715099
vertex 109.363132965571 -438.702471511792 580.985845241195
vertex 109.163332120561 -438.702471511792 581.46820715099
endloop
endfacet
facet normal 1.0 0.0 0.0
outer loop
vertex 109.09518377314 -438.702471511792 581.985845241195
vertex 109.163332120561 -441.702471511792 582.5034833314
vertex 109.09518377314 -441.702471511792 581.985845241195
endloop
endfacet
facet normal 0.965925826289061 0.0 -0.258819045102547
outer loop
vertex 109.163332120561 -441.702471511792 582.5034833314
vertex 109.09518377314 -438.702471511792 581.985845241195
vertex 109.163332120561 -438.702471511792 582.5034833314
endloop
endfacet
facet normal 0.965925826289061 0.0 -0.258819045102547
outer loop
vertex 109.163332120561 -438.702471511792 582.5034833314
vertex 109.363132965571 -441.702471511792 582.985845241195
vertex 109.163332120561 -441.702471511792 582.5034833314
endloop
endfacet
facet normal 0.866025403784427 0.0 -0.50000000000002
outer loop
vertex 109.363132965571 -441.702471511792 582.985845241195
vertex 109.163332120561 -438.702471511792 582.5034833314
vertex 109.363132965571 -438.702471511792 582.985845241195
endloop
endfacet
facet normal 0.50000000000002 0.0 0.866025403784427
outer loop
vertex 110.09518377314 -441.702471511792 600.270889674815
vertex 109.680970210766 -438.702471511792 600.58872692001
vertex 109.680970210766 -441.702471511792 600.58872692001
endloop
endfacet
facet normal 0.70710678118651 0.0 0.707106781186585
outer loop
vertex 109.680970210766 -438.702471511792 600.58872692001
vertex 110.09518377314 -441.702471511792 600.270889674815
vertex 110.09518377314 -438.702471511792 600.270889674815
endloop
endfacet
facet normal -0.70710678118651 0.0 -0.707106781186585
outer loop
vertex 112.509397335513 -438.702471511792 603.417154044757
vertex 112.095183773139 -441.702471511792 603.734991289952
vertex 112.095183773139 -438.702471511792 603.734991289952
endloop
endfacet
facet normal -0.50000000000002 0.0 -0.866025403784427
outer loop
vertex 112.095183773139 -441.702471511792 603.734991289952
vertex 112.509397335513 -438.702471511792 603.417154044757
vertex 112.509397335513 -441.702471511792 603.417154044757
endloop
endfacet
facet normal 0.0 0.0 -1.0
outer loop
vertex 141.092329601059 -440.202471511792 592.020035723572
vertex 121.092329601059 -441.716971511792 592.020035723572
vertex 121.092329601059 -440.202471511792 592.020035723572
endloop
endfacet
facet normal 0.0 0.0 -1.0
outer loop
vertex 121.092329601059 -441.716971511792 592.020035723572
vertex 141.092329601059 -440.202471511792 592.020035723572
vertex 141.092329601059 -441.716971511792 592.020035723572
endloop
endfacet
facet normal 0.96592582628907 0.0 0.258819045102515
outer loop
vertex 109.163332120561 -438.702471511792 601.485302392178
vertex 109.09518377314 -441.702471511792 602.002940482384
vertex 109.163332120561 -441.702471511792 601.485302392178
endloop
endfacet
facet normal 1.0 0.0 0.0
outer loop
vertex 109.09518377314 -441.702471511792 602.002940482384
vertex 109.163332120561 -438.702471511792 601.485302392178
vertex 109.09518377314 -438.702471511792 602.002940482384
endloop
endfacet
facet normal 0.0 0.0 -1.0
outer loop
vertex 103.057270083437 -438.702471511792 571.985845241195
vertex 101.126520083437 -441.702471511792 571.985845241195
vertex 101.126520083437 -440.202471511792 571.985845241195
endloop
endfacet
facet normal 0.0 0.0 -1.0
outer loop
vertex 101.126520083437 -441.702471511792 571.985845241195
vertex 103.057270083437 -438.702471511792 571.985845241195
vertex 121.092329601059 -441.702471511792 571.985845241195
endloop
endfacet
facet normal 0.0 0.0 -1.0
outer loop
vertex 121.092329601059 -441.702471511792 571.985845241195
vertex 103.057270083437 -438.702471511792 571.985845241195
vertex 119.133097462842 -438.702471511792 571.985845241195
endloop
endfacet
facet normal 0.0 0.0 -1.0
outer loop
vertex 121.092329601059 -441.702471511792 571.985845241195
vertex 119.133097462842 -438.702471511792 571.985845241195
vertex 121.092329601059 -440.202471511792 571.985845241195
endloop
endfacet
facet normal 0.600000000000006 0.799999999999996 -1.22564656668501e-29
outer loop
vertex 139.092329601059 -438.702471511792 611.985845241195
vertex 141.092329601059 -440.202471511792 592.020035723572
vertex 139.092329601059 -438.702471511792 592.020035723572
endloop
endfacet
facet normal 0.600000000000006 0.799999999999996 -1.22564656668501e-29
outer loop
vertex 141.092329601059 -440.202471511792 592.020035723572
vertex 139.092329601059 -438.702471511792 611.985845241195
vertex 141.092329601059 -440.202471511792 611.985845241195
endloop
endfacet
facet normal 0.0 0.0 1.0
outer loop
vertex 111.09518377314 -441.702471511792 600.002940482384
vertex 110.577545682934 -438.702471511792 600.071088829805
vertex 110.577545682934 -441.702471511792 600.071088829805
endloop
endfacet
facet normal 0.258819045102547 0.0 0.965925826289061
outer loop
vertex 110.577545682934 -438.702471511792 600.071088829805
vertex 111.09518377314 -441.702471511792 600.002940482384
vertex 111.09518377314 -438.702471511792 600.002940482384
endloop
endfacet
facet normal -0.866025403784427 0.0 0.50000000000002
outer loop
vertex 112.827234580708 -438.702471511792 601.002940482384
vertex 112.509397335513 -441.702471511792 600.58872692001
vertex 112.827234580708 -441.702471511792 601.002940482384
endloop
endfacet
facet normal -0.707106781186585 0.0 0.70710678118651
outer loop
vertex 112.509397335513 -441.702471511792 600.58872692001
vertex 112.827234580708 -438.702471511792 601.002940482384
vertex 112.509397335513 -438.702471511792 600.58872692001
endloop
endfacet
facet normal -0.965925826289061 0.0 0.258819045102547
outer loop
vertex 113.027035425718 -438.702471511792 601.485302392178
vertex 112.827234580708 -441.702471511792 601.002940482384
vertex 113.027035425718 -441.702471511792 601.485302392178
endloop
endfacet
facet normal -0.866025403784427 0.0 0.50000000000002
outer loop
vertex 112.827234580708 -441.702471511792 601.002940482384
vertex 113.027035425718 -438.702471511792 601.485302392178
vertex 112.827234580708 -438.702471511792 601.002940482384
endloop
endfacet
facet normal 0.0 1.0 0.0
outer loop
vertex 119.133097462842 -438.702471511792 571.985845241195
vertex 112.827234580708 -438.702471511792 580.985845241195
vertex 119.133097462842 -438.702471511792 592.020035723572
endloop
endfacet
facet normal 0.0 1.0 0.0
outer loop
vertex 112.827234580708 -438.702471511792 580.985845241195
vertex 119.133097462842 -438.702471511792 571.985845241195
vertex 112.509397335513 -438.702471511792 580.571631678822
endloop
endfacet
facet normal 0.0 1.0 0.0
outer loop
vertex 112.509397335513 -438.702471511792 580.571631678822
vertex 119.133097462842 -438.702471511792 571.985845241195
vertex 112.09518377314 -438.702471511792 580.253794433626
endloop
endfacet
facet normal 0.0 1.0 0.0
outer loop
vertex 112.09518377314 -438.702471511792 580.253794433626
vertex 119.133097462842 -438.702471511792 571.985845241195
vertex 111.612821863345 -438.702471511792 580.053993588617
endloop
endfacet
facet normal 0.0 1.0 0.0
outer loop
vertex 111.612821863345 -438.702471511792 580.053993588617
vertex 119.133097462842 -438.702471511792 571.985845241195
vertex 111.09518377314 -438.702471511792 579.985845241195
endloop
endfacet
facet normal 0.0 1.0 0.0
outer loop
vertex 119.133097462842 -438.702471511792 592.020035723572
vertex 112.827234580708 -438.702471511792 580.985845241195
vertex 113.027035425718 -438.702471511792 581.46820715099
endloop
endfacet
facet normal 0.0 1.0 0.0
outer loop
vertex 119.133097462842 -438.702471511792 592.020035723572
vertex 113.027035425718 -438.702471511792 581.46820715099
vertex 113.09518377314 -438.702471511792 581.985845241195
endloop
endfacet
facet normal 0.0 1.0 0.0
outer loop
vertex 119.133097462842 -438.702471511792 592.020035723572
vertex 113.09518377314 -438.702471511792 581.985845241195
vertex 113.027035425718 -438.702471511792 582.5034833314
endloop
endfacet
facet normal 0.0 1.0 0.0
outer loop
vertex 119.133097462842 -438.702471511792 592.020035723572
vertex 113.027035425718 -438.702471511792 582.5034833314
vertex 112.827234580708 -438.702471511792 582.985845241195
endloop
endfacet
facet normal 0.0 1.0 0.0
outer loop
vertex 119.133097462842 -438.702471511792 592.020035723572
vertex 112.827234580708 -438.702471511792 582.985845241195
vertex 112.509397335513 -438.702471511792 583.400058803568
endloop
endfacet
facet normal 0.0 1.0 0.0
outer loop
vertex 119.133097462842 -438.702471511792 592.020035723572
vertex 112.509397335513 -438.702471511792 583.400058803568
vertex 112.095183773139 -438.702471511792 583.717896048764
endloop
endfacet
facet normal 0.0 1.0 0.0
outer loop
vertex 119.133097462842 -438.702471511792 592.020035723572
vertex 112.095183773139 -438.702471511792 583.717896048764
vertex 111.612821863345 -438.702471511792 583.917696893773
endloop
endfacet
facet normal 0.0 1.0 0.0
outer loop
vertex 119.133097462842 -438.702471511792 592.020035723572
vertex 111.612821863345 -438.702471511792 583.917696893773
vertex 111.09518377314 -438.702471511792 583.985845241195
endloop
endfacet
facet normal 0.0 1.0 0.0
outer loop
vertex 103.057270083437 -438.702471511792 571.985845241195
vertex 109.680970210766 -438.702471511792 580.571631678822
vertex 119.133097462842 -438.702471511792 571.985845241195
endloop
endfacet
facet normal 0.0 1.0 0.0
outer loop
vertex 109.680970210766 -438.702471511792 580.571631678822
vertex 103.057270083437 -438.702471511792 571.985845241195
vertex 109.363132965571 -438.702471511792 580.985845241195
endloop
endfacet
facet normal 0.0 1.0 0.0
outer loop
vertex 109.363132965571 -438.702471511792 580.985845241195
vertex 103.057270083437 -438.702471511792 571.985845241195
vertex 109.163332120561 -438.702471511792 581.46820715099
endloop
endfacet
facet normal 0.0 1.0 0.0
outer loop
vertex 109.163332120561 -438.702471511792 581.46820715099
vertex 103.057270083437 -438.702471511792 571.985845241195
vertex 103.057270083437 -438.702471511792 611.985845241195
endloop
endfacet
facet normal 0.0 1.0 0.0
outer loop
vertex 119.133097462842 -438.702471511792 571.985845241195
vertex 109.680970210766 -438.702471511792 580.571631678822
vertex 110.09518377314 -438.702471511792 580.253794433626
endloop
endfacet
facet normal 0.0 1.0 0.0
outer loop
vertex 119.133097462842 -438.702471511792 571.985845241195
vertex 110.09518377314 -438.702471511792 580.253794433626
vertex 110.577545682934 -438.702471511792 580.053993588617
endloop
endfacet
facet normal 0.0 1.0 0.0
outer loop
vertex 119.133097462842 -438.702471511792 571.985845241195
vertex 110.577545682934 -438.702471511792 580.053993588617
vertex 111.09518377314 -438.702471511792 579.985845241195
endloop
endfacet
facet normal 0.0 1.0 0.0
outer loop
vertex 109.163332120561 -438.702471511792 581.46820715099
vertex 103.057270083437 -438.702471511792 611.985845241195
vertex 109.09518377314 -438.702471511792 581.985845241195
endloop
endfacet
facet normal 0.0 1.0 0.0
outer loop
vertex 109.09518377314 -438.702471511792 581.985845241195
vertex 103.057270083437 -438.702471511792 611.985845241195
vertex 109.163332120561 -438.702471511792 582.5034833314
endloop
endfacet
facet normal 0.0 1.0 0.0
outer loop
vertex 109.163332120561 -438.702471511792 582.5034833314
vertex 103.057270083437 -438.702471511792 611.985845241195
vertex 109.363132965571 -438.702471511792 582.985845241195
endloop
endfacet
facet normal 0.0 1.0 0.0
outer loop
vertex 109.363132965571 -438.702471511792 582.985845241195
vertex 103.057270083437 -438.702471511792 611.985845241195
vertex 109.680970210766 -438.702471511792 583.400058803568
endloop
endfacet
facet normal 0.0 1.0 0.0
outer loop
vertex 109.680970210766 -438.702471511792 583.400058803568
vertex 103.057270083437 -438.702471511792 611.985845241195
vertex 110.095183773139 -438.702471511792 583.717896048764
endloop
endfacet
facet normal 0.0 1.0 0.0
outer loop
vertex 110.095183773139 -438.702471511792 583.717896048764
vertex 103.057270083437 -438.702471511792 611.985845241195
vertex 110.577545682934 -438.702471511792 583.917696893773
endloop
endfacet
facet normal 0.0 1.0 0.0
outer loop
vertex 110.577545682934 -438.702471511792 583.917696893773
vertex 103.057270083437 -438.702471511792 611.985845241195
vertex 111.09518377314 -438.702471511792 583.985845241195
endloop
endfacet
facet normal 0.0 1.0 0.0
outer loop
vertex 111.09518377314 -438.702471511792 583.985845241195
vertex 103.057270083437 -438.702471511792 611.985845241195
vertex 109.363132965571 -438.702471511792 601.002940482384
endloop
endfacet
facet normal 0.0 1.0 0.0
outer loop
vertex 111.09518377314 -438.702471511792 583.985845241195
vertex 109.363132965571 -438.702471511792 601.002940482384
vertex 109.680970210766 -438.702471511792 600.58872692001
endloop
endfacet
facet normal 0.0 1.0 0.0
outer loop
vertex 111.09518377314 -438.702471511792 583.985845241195
vertex 109.680970210766 -438.702471511792 600.58872692001
vertex 119.133097462842 -438.702471511792 592.020035723572
endloop
endfacet
facet normal 0.0 1.0 0.0
outer loop
vertex 119.133097462842 -438.702471511792 592.020035723572
vertex 109.680970210766 -438.702471511792 600.58872692001
vertex 110.09518377314 -438.702471511792 600.270889674815
endloop
endfacet
facet normal 0.0 1.0 0.0
outer loop
vertex 119.133097462842 -438.702471511792 592.020035723572
vertex 110.09518377314 -438.702471511792 600.270889674815
vertex 110.577545682934 -438.702471511792 600.071088829805
endloop
endfacet
facet normal 0.0 1.0 0.0
outer loop
vertex 119.133097462842 -438.702471511792 592.020035723572
vertex 110.577545682934 -438.702471511792 600.071088829805
vertex 139.092329601059 -438.702471511792 592.020035723572
endloop
endfacet
facet normal 0.0 1.0 0.0
outer loop
vertex 139.092329601059 -438.702471511792 592.020035723572
vertex 110.577545682934 -438.702471511792 600.071088829805
vertex 111.09518377314 -438.702471511792 600.002940482384
endloop
endfacet
facet normal 0.0 1.0 0.0
outer loop
vertex 109.363132965571 -438.702471511792 601.002940482384
vertex 103.057270083437 -438.702471511792 611.985845241195
vertex 109.163332120561 -438.702471511792 601.485302392178
endloop
endfacet
facet normal 0.0 1.0 0.0
outer loop
vertex 109.163332120561 -438.702471511792 601.485302392178
vertex 103.057270083437 -438.702471511792 611.985845241195
vertex 109.09518377314 -438.702471511792 602.002940482384
endloop
endfacet
facet normal 0.0 1.0 0.0
outer loop
vertex 109.09518377314 -438.702471511792 602.002940482384
vertex 103.057270083437 -438.702471511792 611.985845241195
vertex 109.163332120561 -438.702471511792 602.520578572589
endloop
endfacet
facet normal 0.0 1.0 0.0
outer loop
vertex 109.163332120561 -438.702471511792 602.520578572589
vertex 103.057270083437 -438.702471511792 611.985845241195
vertex 109.363132965571 -438.702471511792 603.002940482384
endloop
endfacet
facet normal 0.0 1.0 0.0
outer loop
vertex 109.363132965571 -438.702471511792 603.002940482384
vertex 103.057270083437 -438.702471511792 611.985845241195
vertex 109.680970210766 -438.702471511792 603.417154044757
endloop
endfacet
facet normal 0.0 1.0 0.0
outer loop
vertex 109.680970210766 -438.702471511792 603.417154044757
vertex 103.057270083437 -438.702471511792 611.985845241195
vertex 110.095183773139 -438.702471511792 603.734991289952
endloop
endfacet
facet normal 0.0 1.0 0.0
outer loop
vertex 110.095183773139 -438.702471511792 603.734991289952
vertex 103.057270083437 -438.702471511792 611.985845241195
vertex 110.577545682934 -438.702471511792 603.934792134962
endloop
endfacet
facet normal 0.0 1.0 0.0
outer loop
vertex 110.577545682934 -438.702471511792 603.934792134962
vertex 103.057270083437 -438.702471511792 611.985845241195
vertex 111.09518377314 -438.702471511792 604.002940482384
endloop
endfacet
facet normal 0.0 1.0 0.0
outer loop
vertex 111.09518377314 -438.702471511792 604.002940482384
vertex 103.057270083437 -438.702471511792 611.985845241195
vertex 131.095183773139 -438.702471511792 604.002940482384
endloop
endfacet
facet normal 0.0 1.0 0.0
outer loop
vertex 139.092329601059 -438.702471511792 592.020035723572
vertex 132.827234580708 -438.702471511792 601.002940482384
vertex 139.092329601059 -438.702471511792 611.985845241195
endloop
endfacet
facet normal 0.0 1.0 0.0
outer loop
vertex 132.827234580708 -438.702471511792 601.002940482384
vertex 139.092329601059 -438.702471511792 592.020035723572
vertex 132.509397335513 -438.702471511792 600.58872692001
endloop
endfacet
facet normal 0.0 1.0 0.0
outer loop
vertex 132.509397335513 -438.702471511792 600.58872692001
vertex 139.092329601059 -438.702471511792 592.020035723572
vertex 132.09518377314 -438.702471511792 600.270889674815
endloop
endfacet
facet normal 0.0 1.0 0.0
outer loop
vertex 132.09518377314 -438.702471511792 600.270889674815
vertex 139.092329601059 -438.702471511792 592.020035723572
vertex 131.612821863345 -438.702471511792 600.071088829805
endloop
endfacet
facet normal 0.0 1.0 0.0
outer loop
vertex 131.612821863345 -438.702471511792 600.071088829805
vertex 139.092329601059 -438.702471511792 592.020035723572
vertex 131.095183773139 -438.702471511792 600.002940482384
endloop
endfacet
facet normal 0.0 1.0 0.0
outer loop
vertex 131.095183773139 -438.702471511792 600.002940482384
vertex 139.092329601059 -438.702471511792 592.020035723572
vertex 111.09518377314 -438.702471511792 600.002940482384
endloop
endfacet
facet normal 0.0 1.0 0.0
outer loop
vertex 139.092329601059 -438.702471511792 611.985845241195
vertex 132.827234580708 -438.702471511792 601.002940482384
vertex 133.027035425718 -438.702471511792 601.485302392178
endloop
endfacet
facet normal 0.0 1.0 0.0
outer loop
vertex 139.092329601059 -438.702471511792 611.985845241195
vertex 133.027035425718 -438.702471511792 601.485302392178
vertex 133.095183773139 -438.702471511792 602.002940482384
endloop
endfacet
facet normal 0.0 1.0 0.0
outer loop
vertex 139.092329601059 -438.702471511792 611.985845241195
vertex 133.095183773139 -438.702471511792 602.002940482384
vertex 133.027035425718 -438.702471511792 602.520578572589
endloop
endfacet
facet normal 0.0 1.0 0.0
outer loop
vertex 139.092329601059 -438.702471511792 611.985845241195
vertex 133.027035425718 -438.702471511792 602.520578572589
vertex 132.827234580708 -438.702471511792 603.002940482384
endloop
endfacet
facet normal 0.0 1.0 0.0
outer loop
vertex 139.092329601059 -438.702471511792 611.985845241195
vertex 132.827234580708 -438.702471511792 603.002940482384
vertex 132.509397335513 -438.702471511792 603.417154044757
endloop
endfacet
facet normal 0.0 1.0 0.0
outer loop
vertex 139.092329601059 -438.702471511792 611.985845241195
vertex 132.509397335513 -438.702471511792 603.417154044757
vertex 132.095183773139 -438.702471511792 603.734991289952
endloop
endfacet
facet normal 0.0 1.0 0.0
outer loop
vertex 139.092329601059 -438.702471511792 611.985845241195
vertex 132.095183773139 -438.702471511792 603.734991289952
vertex 131.612821863345 -438.702471511792 603.934792134962
endloop
endfacet
facet normal 0.0 1.0 0.0
outer loop
vertex 139.092329601059 -438.702471511792 611.985845241195
vertex 131.612821863345 -438.702471511792 603.934792134962
vertex 131.095183773139 -438.702471511792 604.002940482384
endloop
endfacet
facet normal 0.0 1.0 0.0
outer loop
vertex 139.092329601059 -438.702471511792 611.985845241195
vertex 131.095183773139 -438.702471511792 604.002940482384
vertex 103.057270083437 -438.702471511792 611.985845241195
endloop
endfacet
facet normal 0.0 1.0 0.0
outer loop
vertex 111.612821863345 -438.702471511792 600.071088829805
vertex 131.095183773139 -438.702471511792 600.002940482384
vertex 111.09518377314 -438.702471511792 600.002940482384
endloop
endfacet
facet normal 0.0 1.0 0.0
outer loop
vertex 131.095183773139 -438.702471511792 600.002940482384
vertex 111.612821863345 -438.702471511792 600.071088829805
vertex 130.577545682934 -438.702471511792 600.071088829805
endloop
endfacet
facet normal 0.0 1.0 0.0
outer loop
vertex 130.577545682934 -438.702471511792 600.071088829805
vertex 111.612821863345 -438.702471511792 600.071088829805
vertex 112.09518377314 -438.702471511792 600.270889674815
endloop
endfacet
facet normal 0.0 1.0 0.0
outer loop
vertex 130.577545682934 -438.702471511792 600.071088829805
vertex 112.09518377314 -438.702471511792 600.270889674815
vertex 130.09518377314 -438.702471511792 600.270889674815
endloop
endfacet
facet normal 0.0 1.0 0.0
outer loop
vertex 130.09518377314 -438.702471511792 600.270889674815
vertex 112.09518377314 -438.702471511792 600.270889674815
vertex 112.509397335513 -438.702471511792 600.58872692001
endloop
endfacet
facet normal 0.0 1.0 0.0
outer loop
vertex 130.09518377314 -438.702471511792 600.270889674815
vertex 112.509397335513 -438.702471511792 600.58872692001
vertex 129.680970210766 -438.702471511792 600.58872692001
endloop
endfacet
facet normal 0.0 1.0 0.0
outer loop
vertex 129.680970210766 -438.702471511792 600.58872692001
vertex 112.509397335513 -438.702471511792 600.58872692001
vertex 112.827234580708 -438.702471511792 601.002940482384
endloop
endfacet
facet normal 0.0 1.0 0.0
outer loop
vertex 129.680970210766 -438.702471511792 600.58872692001
vertex 112.827234580708 -438.702471511792 601.002940482384
vertex 129.363132965571 -438.702471511792 601.002940482384
endloop
endfacet
facet normal 0.0 1.0 0.0
outer loop
vertex 129.363132965571 -438.702471511792 601.002940482384
vertex 112.827234580708 -438.702471511792 601.002940482384
vertex 129.163332120561 -438.702471511792 601.485302392178
endloop
endfacet
facet normal 0.0 1.0 0.0
outer loop
vertex 129.163332120561 -438.702471511792 601.485302392178
vertex 112.827234580708 -438.702471511792 601.002940482384
vertex 113.027035425718 -438.702471511792 601.485302392178
endloop
endfacet
facet normal 0.0 1.0 0.0
outer loop
vertex 129.163332120561 -438.702471511792 601.485302392178
vertex 113.027035425718 -438.702471511792 601.485302392178
vertex 113.09518377314 -438.702471511792 602.002940482384
endloop
endfacet
facet normal 0.0 1.0 0.0
outer loop
vertex 129.163332120561 -438.702471511792 601.485302392178
vertex 113.09518377314 -438.702471511792 602.002940482384
vertex 129.095183773139 -438.702471511792 602.002940482384
endloop
endfacet
facet normal 0.0 1.0 0.0
outer loop
vertex 129.095183773139 -438.702471511792 602.002940482384
vertex 113.09518377314 -438.702471511792 602.002940482384
vertex 113.027035425718 -438.702471511792 602.520578572589
endloop
endfacet
facet normal 0.0 1.0 0.0
outer loop
vertex 129.095183773139 -438.702471511792 602.002940482384
vertex 113.027035425718 -438.702471511792 602.520578572589
vertex 129.163332120561 -438.702471511792 602.520578572589
endloop
endfacet
facet normal 0.0 1.0 0.0
outer loop
vertex 129.163332120561 -438.702471511792 602.520578572589
vertex 113.027035425718 -438.702471511792 602.520578572589
vertex 112.827234580708 -438.702471511792 603.002940482384
endloop
endfacet
facet normal 0.0 1.0 0.0
outer loop
vertex 129.163332120561 -438.702471511792 602.520578572589
vertex 112.827234580708 -438.702471511792 603.002940482384
vertex 129.363132965571 -438.702471511792 603.002940482384
endloop
endfacet
facet normal 0.0 1.0 0.0
outer loop
vertex 129.363132965571 -438.702471511792 603.002940482384
vertex 112.827234580708 -438.702471511792 603.002940482384
vertex 129.680970210766 -438.702471511792 603.417154044757
endloop
endfacet
facet normal 0.0 1.0 0.0
outer loop
vertex 129.680970210766 -438.702471511792 603.417154044757
vertex 112.827234580708 -438.702471511792 603.002940482384
vertex 112.509397335513 -438.702471511792 603.417154044757
endloop
endfacet
facet normal 0.0 1.0 0.0
outer loop
vertex 129.680970210766 -438.702471511792 603.417154044757
vertex 112.509397335513 -438.702471511792 603.417154044757
vertex 112.095183773139 -438.702471511792 603.734991289952
endloop
endfacet
facet normal 0.0 1.0 0.0
outer loop
vertex 129.680970210766 -438.702471511792 603.417154044757
vertex 112.095183773139 -438.702471511792 603.734991289952
vertex 130.095183773139 -438.702471511792 603.734991289952
endloop
endfacet
facet normal 0.0 1.0 0.0
outer loop
vertex 130.095183773139 -438.702471511792 603.734991289952
vertex 112.095183773139 -438.702471511792 603.734991289952
vertex 111.612821863345 -438.702471511792 603.934792134962
endloop
endfacet
facet normal 0.0 1.0 0.0
outer loop
vertex 130.095183773139 -438.702471511792 603.734991289952
vertex 111.612821863345 -438.702471511792 603.934792134962
vertex 130.577545682934 -438.702471511792 603.934792134962
endloop
endfacet
facet normal 0.0 1.0 0.0
outer loop
vertex 130.577545682934 -438.702471511792 603.934792134962
vertex 111.612821863345 -438.702471511792 603.934792134962
vertex 111.09518377314 -438.702471511792 604.002940482384
endloop
endfacet
facet normal 0.0 1.0 0.0
outer loop
vertex 130.577545682934 -438.702471511792 603.934792134962
vertex 111.09518377314 -438.702471511792 604.002940482384
vertex 131.095183773139 -438.702471511792 604.002940482384
endloop
endfacet
facet normal -0.0 -1.0 0.0
outer loop
vertex 121.092329601059 -441.702471511792 571.985845241195
vertex 112.09518377314 -441.702471511792 580.253794433626
vertex 101.126520083437 -441.702471511792 571.985845241195
endloop
endfacet
facet normal -0.0 -1.0 0.0
outer loop
vertex 112.09518377314 -441.702471511792 580.253794433626
vertex 121.092329601059 -441.702471511792 571.985845241195
vertex 112.509397335513 -441.702471511792 580.571631678822
endloop
endfacet
facet normal -0.0 -1.0 0.0
outer loop
vertex 112.509397335513 -441.702471511792 580.571631678822
vertex 121.092329601059 -441.702471511792 571.985845241195
vertex 112.827234580708 -441.702471511792 580.985845241195
endloop
endfacet
facet normal -0.0 -1.0 0.0
outer loop
vertex 112.827234580708 -441.702471511792 580.985845241195
vertex 121.092329601059 -441.702471511792 571.985845241195
vertex 121.092329601059 -441.716971511792 592.020035723572
endloop
endfacet
facet normal -0.0 -1.0 0.0
outer loop
vertex 101.126520083437 -441.702471511792 571.985845241195
vertex 112.09518377314 -441.702471511792 580.253794433626
vertex 111.612821863345 -441.702471511792 580.053993588617
endloop
endfacet
facet normal -0.0 -1.0 0.0
outer loop
vertex 101.126520083437 -441.702471511792 571.985845241195
vertex 111.612821863345 -441.702471511792 580.053993588617
vertex 111.09518377314 -441.702471511792 579.985845241195
endloop
endfacet
facet normal -0.0 -1.0 0.0
outer loop
vertex 112.827234580708 -441.702471511792 580.985845241195
vertex 121.092329601059 -441.716971511792 592.020035723572
vertex 113.027035425718 -441.702471511792 581.46820715099
endloop
endfacet
facet normal -0.0 -1.0 0.0
outer loop
vertex 113.027035425718 -441.702471511792 581.46820715099
vertex 121.092329601059 -441.716971511792 592.020035723572
vertex 113.09518377314 -441.702471511792 581.985845241195
endloop
endfacet
facet normal -0.0 -1.0 0.0
outer loop
vertex 113.09518377314 -441.702471511792 581.985845241195
vertex 121.092329601059 -441.716971511792 592.020035723572
vertex 113.027035425718 -441.702471511792 582.5034833314
endloop
endfacet
facet normal -0.0 -1.0 0.0
outer loop
vertex 113.027035425718 -441.702471511792 582.5034833314
vertex 121.092329601059 -441.716971511792 592.020035723572
vertex 112.827234580708 -441.702471511792 582.985845241195
endloop
endfacet
facet normal -0.0 -1.0 0.0
outer loop
vertex 112.827234580708 -441.702471511792 582.985845241195
vertex 121.092329601059 -441.716971511792 592.020035723572
vertex 112.509397335513 -441.702471511792 583.400058803568
endloop
endfacet
facet normal -0.0 -1.0 0.0
outer loop
vertex 112.509397335513 -441.702471511792 583.400058803568
vertex 121.092329601059 -441.716971511792 592.020035723572
vertex 112.095183773139 -441.702471511792 583.717896048764
endloop
endfacet
facet normal -0.0 -1.0 0.0
outer loop
vertex 112.095183773139 -441.702471511792 583.717896048764
vertex 121.092329601059 -441.716971511792 592.020035723572
vertex 111.612821863345 -441.702471511792 583.917696893773
endloop
endfacet
facet normal -0.0 -1.0 0.0
outer loop
vertex 111.612821863345 -441.702471511792 583.917696893773
vertex 121.092329601059 -441.716971511792 592.020035723572
vertex 111.09518377314 -441.702471511792 583.985845241195
endloop
endfacet
facet normal -0.0 -1.0 0.0
outer loop
vertex 141.092329601059 -441.716971511792 592.020035723572
vertex 132.09518377314 -441.702471511792 600.270889674815
vertex 121.092329601059 -441.716971511792 592.020035723572
endloop
endfacet
facet normal -0.0 -1.0 0.0
outer loop
vertex 132.09518377314 -441.702471511792 600.270889674815
vertex 141.092329601059 -441.716971511792 592.020035723572
vertex 132.509397335513 -441.702471511792 600.58872692001
endloop
endfacet
facet normal -0.0 -1.0 0.0
outer loop
vertex 132.509397335513 -441.702471511792 600.58872692001
vertex 141.092329601059 -441.716971511792 592.020035723572
vertex 132.827234580708 -441.702471511792 601.002940482384
endloop
endfacet
facet normal -0.0 -1.0 0.0
outer loop
vertex 132.827234580708 -441.702471511792 601.002940482384
vertex 141.092329601059 -441.716971511792 592.020035723572
vertex 141.092329601059 -441.702471511792 611.985845241195
endloop
endfacet
facet normal -0.0 -1.0 0.0
outer loop
vertex 121.092329601059 -441.716971511792 592.020035723572
vertex 132.09518377314 -441.702471511792 600.270889674815
vertex 131.612821863345 -441.702471511792 600.071088829805
endloop
endfacet
facet normal -0.0 -1.0 0.0
outer loop
vertex 121.092329601059 -441.716971511792 592.020035723572
vertex 131.612821863345 -441.702471511792 600.071088829805
vertex 131.095183773139 -441.702471511792 600.002940482384
endloop
endfacet
facet normal -0.0 -1.0 0.0
outer loop
vertex 132.827234580708 -441.702471511792 601.002940482384
vertex 141.092329601059 -441.702471511792 611.985845241195
vertex 133.027035425718 -441.702471511792 601.485302392178
endloop
endfacet
facet normal -0.0 -1.0 0.0
outer loop
vertex 133.027035425718 -441.702471511792 601.485302392178
vertex 141.092329601059 -441.702471511792 611.985845241195
vertex 133.095183773139 -441.702471511792 602.002940482384
endloop
endfacet
facet normal -0.0 -1.0 0.0
outer loop
vertex 133.095183773139 -441.702471511792 602.002940482384
vertex 141.092329601059 -441.702471511792 611.985845241195
vertex 133.027035425718 -441.702471511792 602.520578572589
endloop
endfacet
facet normal -0.0 -1.0 0.0
outer loop
vertex 133.027035425718 -441.702471511792 602.520578572589
vertex 141.092329601059 -441.702471511792 611.985845241195
vertex 132.827234580708 -441.702471511792 603.002940482384
endloop
endfacet
facet normal -0.0 -1.0 0.0
outer loop
vertex 132.827234580708 -441.702471511792 603.002940482384
vertex 141.092329601059 -441.702471511792 611.985845241195
vertex 132.509397335513 -441.702471511792 603.417154044757
endloop
endfacet
facet normal -0.0 -1.0 0.0
outer loop
vertex 132.509397335513 -441.702471511792 603.417154044757
vertex 141.092329601059 -441.702471511792 611.985845241195
vertex 132.095183773139 -441.702471511792 603.734991289952
endloop
endfacet
facet normal -0.0 -1.0 0.0
outer loop
vertex 132.095183773139 -441.702471511792 603.734991289952
vertex 141.092329601059 -441.702471511792 611.985845241195
vertex 131.612821863345 -441.702471511792 603.934792134962
endloop
endfacet
facet normal -0.0 -1.0 0.0
outer loop
vertex 131.612821863345 -441.702471511792 603.934792134962
vertex 141.092329601059 -441.702471511792 611.985845241195
vertex 131.095183773139 -441.702471511792 604.002940482384
endloop
endfacet
facet normal -0.0 -1.0 0.0
outer loop
vertex 131.095183773139 -441.702471511792 604.002940482384
vertex 141.092329601059 -441.702471511792 611.985845241195
vertex 111.09518377314 -441.702471511792 604.002940482384
endloop
endfacet
facet normal -0.0 -1.0 0.0
outer loop
vertex 101.126520083437 -441.702471511792 571.985845241195
vertex 109.163332120561 -441.702471511792 581.46820715099
vertex 101.126520083437 -441.702471511792 611.985845241195
endloop
endfacet
facet normal -0.0 -1.0 0.0
outer loop
vertex 109.163332120561 -441.702471511792 581.46820715099
vertex 101.126520083437 -441.702471511792 571.985845241195
vertex 109.363132965571 -441.702471511792 580.985845241195
endloop
endfacet
facet normal -0.0 -1.0 0.0
outer loop
vertex 109.363132965571 -441.702471511792 580.985845241195
vertex 101.126520083437 -441.702471511792 571.985845241195
vertex 109.680970210766 -441.702471511792 580.571631678822
endloop
endfacet
facet normal -0.0 -1.0 0.0
outer loop
vertex 109.680970210766 -441.702471511792 580.571631678822
vertex 101.126520083437 -441.702471511792 571.985845241195
vertex 110.09518377314 -441.702471511792 580.253794433626
endloop
endfacet
facet normal -0.0 -1.0 0.0
outer loop
vertex 110.09518377314 -441.702471511792 580.253794433626
vertex 101.126520083437 -441.702471511792 571.985845241195
vertex 110.577545682934 -441.702471511792 580.053993588617
endloop
endfacet
facet normal -0.0 -1.0 0.0
outer loop
vertex 110.577545682934 -441.702471511792 580.053993588617
vertex 101.126520083437 -441.702471511792 571.985845241195
vertex 111.09518377314 -441.702471511792 579.985845241195
endloop
endfacet
facet normal -0.0 -1.0 0.0
outer loop
vertex 101.126520083437 -441.702471511792 611.985845241195
vertex 109.163332120561 -441.702471511792 581.46820715099
vertex 109.09518377314 -441.702471511792 581.985845241195
endloop
endfacet
facet normal -0.0 -1.0 0.0
outer loop
vertex 101.126520083437 -441.702471511792 611.985845241195
vertex 109.09518377314 -441.702471511792 581.985845241195
vertex 109.163332120561 -441.702471511792 582.5034833314
endloop
endfacet
facet normal -0.0 -1.0 0.0
outer loop
vertex 101.126520083437 -441.702471511792 611.985845241195
vertex 109.163332120561 -441.702471511792 582.5034833314
vertex 109.363132965571 -441.702471511792 582.985845241195
endloop
endfacet
facet normal -0.0 -1.0 0.0
outer loop
vertex 101.126520083437 -441.702471511792 611.985845241195
vertex 109.363132965571 -441.702471511792 582.985845241195
vertex 109.680970210766 -441.702471511792 583.400058803568
endloop
endfacet
facet normal -0.0 -1.0 0.0
outer loop
vertex 101.126520083437 -441.702471511792 611.985845241195
vertex 109.680970210766 -441.702471511792 583.400058803568
vertex 110.095183773139 -441.702471511792 583.717896048764
endloop
endfacet
facet normal -0.0 -1.0 0.0
outer loop
vertex 101.126520083437 -441.702471511792 611.985845241195
vertex 110.095183773139 -441.702471511792 583.717896048764
vertex 110.577545682934 -441.702471511792 583.917696893773
endloop
endfacet
facet normal -0.0 -1.0 0.0
outer loop
vertex 101.126520083437 -441.702471511792 611.985845241195
vertex 110.577545682934 -441.702471511792 583.917696893773
vertex 111.09518377314 -441.702471511792 583.985845241195
endloop
endfacet
facet normal -0.0 -1.0 0.0
outer loop
vertex 101.126520083437 -441.702471511792 611.985845241195
vertex 111.09518377314 -441.702471511792 583.985845241195
vertex 109.363132965571 -441.702471511792 601.002940482384
endloop
endfacet
facet normal -0.0 -1.0 0.0
outer loop
vertex 109.363132965571 -441.702471511792 601.002940482384
vertex 111.09518377314 -441.702471511792 583.985845241195
vertex 109.680970210766 -441.702471511792 600.58872692001
endloop
endfacet
facet normal -0.0 -1.0 0.0
outer loop
vertex 109.680970210766 -441.702471511792 600.58872692001
vertex 111.09518377314 -441.702471511792 583.985845241195
vertex 110.09518377314 -441.702471511792 600.270889674815
endloop
endfacet
facet normal -0.0 -1.0 0.0
outer loop
vertex 110.09518377314 -441.702471511792 600.270889674815
vertex 111.09518377314 -441.702471511792 583.985845241195
vertex 121.092329601059 -441.716971511792 592.020035723572
endloop
endfacet
facet normal -0.0 -1.0 0.0
outer loop
vertex 110.09518377314 -441.702471511792 600.270889674815
vertex 121.092329601059 -441.716971511792 592.020035723572
vertex 110.577545682934 -441.702471511792 600.071088829805
endloop
endfacet
facet normal -0.0 -1.0 0.0
outer loop
vertex 110.577545682934 -441.702471511792 600.071088829805
vertex 121.092329601059 -441.716971511792 592.020035723572
vertex 111.09518377314 -441.702471511792 600.002940482384
endloop
endfacet
facet normal -0.0 -1.0 0.0
outer loop
vertex 111.09518377314 -441.702471511792 600.002940482384
vertex 121.092329601059 -441.716971511792 592.020035723572
vertex 131.095183773139 -441.702471511792 600.002940482384
endloop
endfacet
facet normal -0.0 -1.0 0.0
outer loop
vertex 101.126520083437 -441.702471511792 611.985845241195
vertex 109.363132965571 -441.702471511792 601.002940482384
vertex 109.163332120561 -441.702471511792 601.485302392178
endloop
endfacet
facet normal -0.0 -1.0 0.0
outer loop
vertex 101.126520083437 -441.702471511792 611.985845241195
vertex 109.163332120561 -441.702471511792 601.485302392178
vertex 109.09518377314 -441.702471511792 602.002940482384
endloop
endfacet
facet normal -0.0 -1.0 0.0
outer loop
vertex 101.126520083437 -441.702471511792 611.985845241195
vertex 109.09518377314 -441.702471511792 602.002940482384
vertex 109.163332120561 -441.702471511792 602.520578572589
endloop
endfacet
facet normal -0.0 -1.0 0.0
outer loop
vertex 101.126520083437 -441.702471511792 611.985845241195
vertex 109.163332120561 -441.702471511792 602.520578572589
vertex 109.363132965571 -441.702471511792 603.002940482384
endloop
endfacet
facet normal -0.0 -1.0 0.0
outer loop
vertex 101.126520083437 -441.702471511792 611.985845241195
vertex 109.363132965571 -441.702471511792 603.002940482384
vertex 109.680970210766 -441.702471511792 603.417154044757
endloop
endfacet
facet normal -0.0 -1.0 0.0
outer loop
vertex 101.126520083437 -441.702471511792 611.985845241195
vertex 109.680970210766 -441.702471511792 603.417154044757
vertex 110.095183773139 -441.702471511792 603.734991289952
endloop
endfacet
facet normal -0.0 -1.0 0.0
outer loop
vertex 101.126520083437 -441.702471511792 611.985845241195
vertex 110.095183773139 -441.702471511792 603.734991289952
vertex 110.577545682934 -441.702471511792 603.934792134962
endloop
endfacet
facet normal -0.0 -1.0 0.0
outer loop
vertex 101.126520083437 -441.702471511792 611.985845241195
vertex 110.577545682934 -441.702471511792 603.934792134962
vertex 111.09518377314 -441.702471511792 604.002940482384
endloop
endfacet
facet normal -0.0 -1.0 0.0
outer loop
vertex 101.126520083437 -441.702471511792 611.985845241195
vertex 111.09518377314 -441.702471511792 604.002940482384
vertex 141.092329601059 -441.702471511792 611.985845241195
endloop
endfacet
facet normal -0.0 -1.0 0.0
outer loop
vertex 130.577545682934 -441.702471511792 600.071088829805
vertex 111.09518377314 -441.702471511792 600.002940482384
vertex 131.095183773139 -441.702471511792 600.002940482384
endloop
endfacet
facet normal -0.0 -1.0 0.0
outer loop
vertex 111.09518377314 -441.702471511792 600.002940482384
vertex 130.577545682934 -441.702471511792 600.071088829805
vertex 111.612821863345 -441.702471511792 600.071088829805
endloop
endfacet
facet normal -0.0 -1.0 0.0
outer loop
vertex 111.612821863345 -441.702471511792 600.071088829805
vertex 130.577545682934 -441.702471511792 600.071088829805
vertex 130.09518377314 -441.702471511792 600.270889674815
endloop
endfacet
facet normal -0.0 -1.0 0.0
outer loop
vertex 111.612821863345 -441.702471511792 600.071088829805
vertex 130.09518377314 -441.702471511792 600.270889674815
vertex 112.09518377314 -441.702471511792 600.270889674815
endloop
endfacet
facet normal -0.0 -1.0 0.0
outer loop
vertex 112.09518377314 -441.702471511792 600.270889674815
vertex 130.09518377314 -441.702471511792 600.270889674815
vertex 129.680970210766 -441.702471511792 600.58872692001
endloop
endfacet
facet normal -0.0 -1.0 0.0
outer loop
vertex 112.09518377314 -441.702471511792 600.270889674815
vertex 129.680970210766 -441.702471511792 600.58872692001
vertex 112.509397335513 -441.702471511792 600.58872692001
endloop
endfacet
facet normal -0.0 -1.0 0.0
outer loop
vertex 112.509397335513 -441.702471511792 600.58872692001
vertex 129.680970210766 -441.702471511792 600.58872692001
vertex 129.363132965571 -441.702471511792 601.002940482384
endloop
endfacet
facet normal -0.0 -1.0 0.0
outer loop
vertex 112.509397335513 -441.702471511792 600.58872692001
vertex 129.363132965571 -441.702471511792 601.002940482384
vertex 112.827234580708 -441.702471511792 601.002940482384
endloop
endfacet
facet normal -0.0 -1.0 0.0
outer loop
vertex 112.827234580708 -441.702471511792 601.002940482384
vertex 129.363132965571 -441.702471511792 601.002940482384
vertex 129.163332120561 -441.702471511792 601.485302392178
endloop
endfacet
facet normal -0.0 -1.0 0.0
outer loop
vertex 112.827234580708 -441.702471511792 601.002940482384
vertex 129.163332120561 -441.702471511792 601.485302392178
vertex 113.027035425718 -441.702471511792 601.485302392178
endloop
endfacet
facet normal -0.0 -1.0 0.0
outer loop
vertex 113.027035425718 -441.702471511792 601.485302392178
vertex 129.163332120561 -441.702471511792 601.485302392178
vertex 129.095183773139 -441.702471511792 602.002940482384
endloop
endfacet
facet normal -0.0 -1.0 0.0
outer loop
vertex 113.027035425718 -441.702471511792 601.485302392178
vertex 129.095183773139 -441.702471511792 602.002940482384
vertex 113.09518377314 -441.702471511792 602.002940482384
endloop
endfacet
facet normal -0.0 -1.0 0.0
outer loop
vertex 113.09518377314 -441.702471511792 602.002940482384
vertex 129.095183773139 -441.702471511792 602.002940482384
vertex 129.163332120561 -441.702471511792 602.520578572589
endloop
endfacet
facet normal -0.0 -1.0 0.0
outer loop
vertex 113.09518377314 -441.702471511792 602.002940482384
vertex 129.163332120561 -441.702471511792 602.520578572589
vertex 113.027035425718 -441.702471511792 602.520578572589
endloop
endfacet
facet normal -0.0 -1.0 0.0
outer loop
vertex 113.027035425718 -441.702471511792 602.520578572589
vertex 129.163332120561 -441.702471511792 602.520578572589
vertex 129.363132965571 -441.702471511792 603.002940482384
endloop
endfacet
facet normal -0.0 -1.0 0.0
outer loop
vertex 113.027035425718 -441.702471511792 602.520578572589
vertex 129.363132965571 -441.702471511792 603.002940482384
vertex 112.827234580708 -441.702471511792 603.002940482384
endloop
endfacet
facet normal -0.0 -1.0 0.0
outer loop
vertex 112.827234580708 -441.702471511792 603.002940482384
vertex 129.363132965571 -441.702471511792 603.002940482384
vertex 129.680970210766 -441.702471511792 603.417154044757
endloop
endfacet
facet normal -0.0 -1.0 0.0
outer loop
vertex 112.827234580708 -441.702471511792 603.002940482384
vertex 129.680970210766 -441.702471511792 603.417154044757
vertex 112.509397335513 -441.702471511792 603.417154044757
endloop
endfacet
facet normal -0.0 -1.0 0.0
outer loop
vertex 112.509397335513 -441.702471511792 603.417154044757
vertex 129.680970210766 -441.702471511792 603.417154044757
vertex 130.095183773139 -441.702471511792 603.734991289952
endloop
endfacet
facet normal -0.0 -1.0 0.0
outer loop
vertex 112.509397335513 -441.702471511792 603.417154044757
vertex 130.095183773139 -441.702471511792 603.734991289952
vertex 112.095183773139 -441.702471511792 603.734991289952
endloop
endfacet
facet normal -0.0 -1.0 0.0
outer loop
vertex 112.095183773139 -441.702471511792 603.734991289952
vertex 130.095183773139 -441.702471511792 603.734991289952
vertex 130.577545682934 -441.702471511792 603.934792134962
endloop
endfacet
facet normal -0.0 -1.0 0.0
outer loop
vertex 112.095183773139 -441.702471511792 603.734991289952
vertex 130.577545682934 -441.702471511792 603.934792134962
vertex 111.612821863345 -441.702471511792 603.934792134962
endloop
endfacet
facet normal -0.0 -1.0 0.0
outer loop
vertex 111.612821863345 -441.702471511792 603.934792134962
vertex 130.577545682934 -441.702471511792 603.934792134962
vertex 131.095183773139 -441.702471511792 604.002940482384
endloop
endfacet
facet normal -0.0 -1.0 0.0
outer loop
vertex 111.612821863345 -441.702471511792 603.934792134962
vertex 131.095183773139 -441.702471511792 604.002940482384
vertex 111.09518377314 -441.702471511792 604.002940482384
endloop
endfacet
facet normal 0.866025403784418 0.0 0.500000000000037
outer loop
vertex 129.363132965571 -438.702471511792 601.002940482384
vertex 129.163332120561 -441.702471511792 601.485302392178
vertex 129.363132965571 -441.702471511792 601.002940482384
endloop
endfacet
facet normal 0.96592582628907 0.0 0.258819045102515
outer loop
vertex 129.163332120561 -441.702471511792 601.485302392178
vertex 129.363132965571 -438.702471511792 601.002940482384
vertex 129.163332120561 -438.702471511792 601.485302392178
endloop
endfacet
facet normal -0.965925826289061 0.0 0.258819045102547
outer loop
vertex 133.027035425718 -438.702471511792 601.485302392178
vertex 132.827234580708 -441.702471511792 601.002940482384
vertex 133.027035425718 -441.702471511792 601.485302392178
endloop
endfacet
facet normal -0.866025403784427 0.0 0.50000000000002
outer loop
vertex 132.827234580708 -441.702471511792 601.002940482384
vertex 133.027035425718 -438.702471511792 601.485302392178
vertex 132.827234580708 -438.702471511792 601.002940482384
endloop
endfacet
facet normal -0.50000000000002 0.0 -0.866025403784427
outer loop
vertex 132.095183773139 -438.702471511792 603.734991289952
vertex 131.612821863345 -441.702471511792 603.934792134962
vertex 131.612821863345 -438.702471511792 603.934792134962
endloop
endfacet
facet normal -0.258819045102547 0.0 -0.965925826289061
outer loop
vertex 131.612821863345 -441.702471511792 603.934792134962
vertex 132.095183773139 -438.702471511792 603.734991289952
vertex 132.095183773139 -441.702471511792 603.734991289952
endloop
endfacet
facet normal -0.866025403784418 0.0 -0.500000000000037
outer loop
vertex 132.827234580708 -438.702471511792 603.002940482384
vertex 133.027035425718 -441.702471511792 602.520578572589
vertex 132.827234580708 -441.702471511792 603.002940482384
endloop
endfacet
facet normal -0.96592582628907 0.0 -0.258819045102515
outer loop
vertex 133.027035425718 -441.702471511792 602.520578572589
vertex 132.827234580708 -438.702471511792 603.002940482384
vertex 133.027035425718 -438.702471511792 602.520578572589
endloop
endfacet
facet normal 0.866025403784427 0.0 -0.50000000000002
outer loop
vertex 109.363132965571 -438.702471511792 603.002940482384
vertex 109.680970210766 -441.702471511792 603.417154044757
vertex 109.363132965571 -441.702471511792 603.002940482384
endloop
endfacet
facet normal 0.707106781186585 0.0 -0.70710678118651
outer loop
vertex 109.680970210766 -441.702471511792 603.417154044757
vertex 109.363132965571 -438.702471511792 603.002940482384
vertex 109.680970210766 -438.702471511792 603.417154044757
endloop
endfacet
facet normal 0.0 0.0 -1.0
outer loop
vertex 111.09518377314 -438.702471511792 604.002940482384
vertex 110.577545682934 -441.702471511792 603.934792134962
vertex 110.577545682934 -438.702471511792 603.934792134962
endloop
endfacet
facet normal 0.258819045102515 0.0 -0.96592582628907
outer loop
vertex 110.577545682934 -441.702471511792 603.934792134962
vertex 111.09518377314 -438.702471511792 604.002940482384
vertex 111.09518377314 -441.702471511792 604.002940482384
endloop
endfacet
facet normal 0.866025403784418 0.0 0.500000000000037
outer loop
vertex 109.363132965571 -438.702471511792 601.002940482384
vertex 109.163332120561 -441.702471511792 601.485302392178
vertex 109.363132965571 -441.702471511792 601.002940482384
endloop
endfacet
facet normal 0.96592582628907 0.0 0.258819045102515
outer loop
vertex 109.163332120561 -441.702471511792 601.485302392178
vertex 109.363132965571 -438.702471511792 601.002940482384
vertex 109.163332120561 -438.702471511792 601.485302392178
endloop
endfacet
facet normal -0.50000000000002 0.0 -0.866025403784427
outer loop
vertex 112.095183773139 -438.702471511792 603.734991289952
vertex 111.612821863345 -441.702471511792 603.934792134962
vertex 111.612821863345 -438.702471511792 603.934792134962
endloop
endfacet
facet normal -0.258819045102547 0.0 -0.965925826289061
outer loop
vertex 111.612821863345 -441.702471511792 603.934792134962
vertex 112.095183773139 -438.702471511792 603.734991289952
vertex 112.095183773139 -441.702471511792 603.734991289952
endloop
endfacet
facet normal -0.96592582628907 0.0 -0.258819045102515
outer loop
vertex 113.027035425718 -438.702471511792 602.520578572589
vertex 113.09518377314 -441.702471511792 602.002940482384
vertex 113.027035425718 -441.702471511792 602.520578572589
endloop
endfacet
facet normal -1.0 0.0 0.0
outer loop
vertex 113.09518377314 -441.702471511792 602.002940482384
vertex 113.027035425718 -438.702471511792 602.520578572589
vertex 113.09518377314 -438.702471511792 602.002940482384
endloop
endfacet
facet normal 0.258819045102547 0.0 0.965925826289061
outer loop
vertex 130.577545682934 -441.702471511792 600.071088829805
vertex 130.09518377314 -438.702471511792 600.270889674815
vertex 130.09518377314 -441.702471511792 600.270889674815
endloop
endfacet
facet normal 0.50000000000002 0.0 0.866025403784427
outer loop
vertex 130.09518377314 -438.702471511792 600.270889674815
vertex 130.577545682934 -441.702471511792 600.071088829805
vertex 130.577545682934 -438.702471511792 600.071088829805
endloop
endfacet
facet normal -0.258819045102515 0.0 0.96592582628907
outer loop
vertex 131.612821863345 -441.702471511792 600.071088829805
vertex 131.095183773139 -438.702471511792 600.002940482384
vertex 131.095183773139 -441.702471511792 600.002940482384
endloop
endfacet
facet normal 0.0 0.0 1.0
outer loop
vertex 131.095183773139 -438.702471511792 600.002940482384
vertex 131.612821863345 -441.702471511792 600.071088829805
vertex 131.612821863345 -438.702471511792 600.071088829805
endloop
endfacet
facet normal 0.258819045102515 0.0 -0.96592582628907
outer loop
vertex 130.577545682934 -438.702471511792 603.934792134962
vertex 130.095183773139 -441.702471511792 603.734991289952
vertex 130.095183773139 -438.702471511792 603.734991289952
endloop
endfacet
facet normal 0.500000000000037 0.0 -0.866025403784418
outer loop
vertex 130.095183773139 -441.702471511792 603.734991289952
vertex 130.577545682934 -438.702471511792 603.934792134962
vertex 130.577545682934 -441.702471511792 603.934792134962
endloop
endfacet
facet normal -0.70710678118651 0.0 -0.707106781186585
outer loop
vertex 132.509397335513 -438.702471511792 603.417154044757
vertex 132.827234580708 -441.702471511792 603.002940482384
vertex 132.509397335513 -441.702471511792 603.417154044757
endloop
endfacet
facet normal -0.866025403784418 0.0 -0.500000000000037
outer loop
vertex 132.827234580708 -441.702471511792 603.002940482384
vertex 132.509397335513 -438.702471511792 603.417154044757
vertex 132.827234580708 -438.702471511792 603.002940482384
endloop
endfacet
facet normal 0.96592582628907 0.0 0.258819045102515
outer loop
vertex 129.163332120561 -438.702471511792 601.485302392178
vertex 129.095183773139 -441.702471511792 602.002940482384
vertex 129.163332120561 -441.702471511792 601.485302392178
endloop
endfacet
facet normal 1.0 0.0 0.0
outer loop
vertex 129.095183773139 -441.702471511792 602.002940482384
vertex 129.163332120561 -438.702471511792 601.485302392178
vertex 129.095183773139 -438.702471511792 602.002940482384
endloop
endfacet
facet normal -0.866025403784427 0.0 0.50000000000002
outer loop
vertex 132.827234580708 -438.702471511792 601.002940482384
vertex 132.509397335513 -441.702471511792 600.58872692001
vertex 132.827234580708 -441.702471511792 601.002940482384
endloop
endfacet
facet normal -0.707106781186585 0.0 0.70710678118651
outer loop
vertex 132.509397335513 -441.702471511792 600.58872692001
vertex 132.827234580708 -438.702471511792 601.002940482384
vertex 132.509397335513 -438.702471511792 600.58872692001
endloop
endfacet
facet normal 0.50000000000002 0.0 0.866025403784427
outer loop
vertex 130.09518377314 -441.702471511792 600.270889674815
vertex 129.680970210766 -438.702471511792 600.58872692001
vertex 129.680970210766 -441.702471511792 600.58872692001
endloop
endfacet
facet normal 0.70710678118651 0.0 0.707106781186585
outer loop
vertex 129.680970210766 -438.702471511792 600.58872692001
vertex 130.09518377314 -441.702471511792 600.270889674815
vertex 130.09518377314 -438.702471511792 600.270889674815
endloop
endfacet
facet normal 0.0 0.0 1.0
outer loop
vertex 131.095183773139 -441.702471511792 600.002940482384
vertex 130.577545682934 -438.702471511792 600.071088829805
vertex 130.577545682934 -441.702471511792 600.071088829805
endloop
endfacet
facet normal 0.258819045102547 0.0 0.965925826289061
outer loop
vertex 130.577545682934 -438.702471511792 600.071088829805
vertex 131.095183773139 -441.702471511792 600.002940482384
vertex 131.095183773139 -438.702471511792 600.002940482384
endloop
endfacet
endsolid kitchissippi-02
