solid K02.2
facet normal 9.60175707532818e-13 -1.0 2.69464887218287e-14
outer loop
vertex -27.9638476009319 667.726100136847 -2.12071124451532
vertex -47.9638476009325 667.726100136828 -5.12071124450972
vertex -27.9638476009327 667.726100136847 -5.12071124451532
endloop
endfacet
facet normal 9.60175707532818e-13 -1.0 2.69464887218287e-14
outer loop
vertex -47.9638476009325 667.726100136828 -5.12071124450972
vertex -27.9638476009319 667.726100136847 -2.12071124451532
vertex -30.9638476009318 667.726100136844 -2.12071124451449
endloop
endfacet
facet normal 9.60175707532818e-13 -1.0 2.69464887218287e-14
outer loop
vertex -47.9638476009325 667.726100136828 -5.12071124450972
vertex -30.9638476009318 667.726100136844 -2.12071124451449
vertex -47.9638476009317 667.726100136828 -2.12071124450972
endloop
endfacet
facet normal 9.60175707532818e-13 -1.0 2.69464887218287e-14
outer loop
vertex -47.9638476009317 667.726100136828 -2.12071124450972
vertex -30.9638476009318 667.726100136844 -2.12071124451449
vertex -44.9638476009317 667.726100136831 -2.12071124451056
endloop
endfacet
facet normal -0.258819045102789 -2.74064911460205e-13 -0.965925826288997
outer loop
vertex -37.3944457017248 690.726100136838 10.0043255733227
vertex -37.9638476009475 687.726100136838 10.079288755487
vertex -37.9638476009503 690.726100136838 10.0792887554869
endloop
endfacet
facet normal -2.7893556195354e-13 -3.07973416395346e-14 -1.0
outer loop
vertex -37.9638476009475 687.726100136838 10.079288755487
vertex -37.3944457017248 690.726100136838 10.0043255733227
vertex -37.394445701722 687.726100136838 10.0043255733228
endloop
endfacet
facet normal 0.866025403784576 8.3289916477842e-13 0.499999999999762
outer loop
vertex -39.8691034892742 687.726100136836 6.7792887554875
vertex -40.0888844187871 690.726100136836 7.30988685626193
vertex -40.0888844187842 687.726100136836 7.30988685626202
endloop
endfacet
facet normal 0.96592582628914 9.19774260568341e-13 0.258819045102252
outer loop
vertex -40.0888844187871 690.726100136836 7.30988685626193
vertex -39.8691034892742 687.726100136836 6.7792887554875
vertex -39.869103489277 690.726100136836 6.77928875548741
endloop
endfacet
facet normal 0.25881904510279 2.74064911460206e-13 0.965925826288996
outer loop
vertex -38.5332495001743 687.726100136837 5.75425193765118
vertex -37.9638476009516 690.726100136838 5.67928875548687
vertex -38.5332495001771 690.726100136837 5.75425193765108
endloop
endfacet
facet normal 2.78899917513958e-13 3.07973416395346e-14 1.0
outer loop
vertex -37.9638476009516 690.726100136838 5.67928875548687
vertex -38.5332495001743 687.726100136837 5.75425193765118
vertex -37.9638476009487 687.726100136838 5.67928875548697
endloop
endfacet
facet normal 0.499999999999755 4.45312850020812e-13 -0.86602540378458
outer loop
vertex -39.0638476009504 690.726100136837 9.78454464381295
vertex -39.5194825195581 687.726100136836 9.43492367409781
vertex -39.5194825195609 690.726100136836 9.43492367409772
endloop
endfacet
facet normal 0.70710678118635 6.45709349108134e-13 -0.707106781186745
outer loop
vertex -39.5194825195581 687.726100136836 9.43492367409781
vertex -39.0638476009504 690.726100136837 9.78454464381295
vertex -39.0638476009476 687.726100136837 9.78454464381304
endloop
endfacet
facet normal 9.50775433460022e-13 -1.0 2.95139935594264e-14
outer loop
vertex -30.9638476009509 687.726100136844 -2.120711244515
vertex -36.4082126823382 687.726100136839 6.32365383687613
vertex -44.9638476009509 687.726100136831 -2.12071124451107
endloop
endfacet
facet normal 9.50775433460022e-13 -1.0 2.95139935594264e-14
outer loop
vertex -36.4082126823382 687.726100136839 6.32365383687613
vertex -30.9638476009509 687.726100136844 -2.120711244515
vertex -36.0585917126227 687.72610013684 6.77928875548643
endloop
endfacet
facet normal 9.50775433460022e-13 -1.0 2.95139935594264e-14
outer loop
vertex -36.0585917126227 687.72610013684 6.77928875548643
vertex -30.9638476009509 687.726100136844 -2.120711244515
vertex -30.9638476009454 687.726100136845 17.879288755485
endloop
endfacet
facet normal 9.50775433460022e-13 -1.0 2.95139935594264e-14
outer loop
vertex -44.9638476009509 687.726100136831 -2.12071124451107
vertex -36.4082126823382 687.726100136839 6.32365383687613
vertex -36.8638476009487 687.726100136839 5.97403286716089
endloop
endfacet
facet normal 9.50775433460022e-13 -1.0 2.95139935594264e-14
outer loop
vertex -44.9638476009509 687.726100136831 -2.12071124451107
vertex -36.8638476009487 687.726100136839 5.97403286716089
vertex -37.3944457017232 687.726100136838 5.75425193765086
endloop
endfacet
facet normal 9.50775433460022e-13 -1.0 2.95139935594264e-14
outer loop
vertex -44.9638476009509 687.726100136831 -2.12071124451107
vertex -37.3944457017232 687.726100136838 5.75425193765086
vertex -37.9638476009487 687.726100136838 5.67928875548697
endloop
endfacet
facet normal 9.50775433460022e-13 -1.0 2.95139935594264e-14
outer loop
vertex -36.0585917126227 687.72610013684 6.77928875548643
vertex -30.9638476009454 687.726100136845 17.879288755485
vertex -35.8388107831123 687.72610013684 7.30988685626082
endloop
endfacet
facet normal 9.50775433460022e-13 -1.0 2.95139935594264e-14
outer loop
vertex -35.8388107831123 687.72610013684 7.30988685626082
vertex -30.9638476009454 687.726100136845 17.879288755485
vertex -35.7638476009481 687.72610013684 7.87928875548635
endloop
endfacet
facet normal 9.50775433460022e-13 -1.0 2.95139935594264e-14
outer loop
vertex -35.7638476009481 687.72610013684 7.87928875548635
vertex -30.9638476009454 687.726100136845 17.879288755485
vertex -35.838810783112 687.72610013684 8.44869065471192
endloop
endfacet
facet normal 9.50775433460022e-13 -1.0 2.95139935594264e-14
outer loop
vertex -35.838810783112 687.72610013684 8.44869065471192
vertex -30.9638476009454 687.726100136845 17.879288755485
vertex -36.058591712622 687.72610013684 8.97928875548643
endloop
endfacet
facet normal 9.50775433460022e-13 -1.0 2.95139935594264e-14
outer loop
vertex -36.058591712622 687.72610013684 8.97928875548643
vertex -30.9638476009454 687.726100136845 17.879288755485
vertex -36.4082126823373 687.726100136839 9.43492367409694
endloop
endfacet
facet normal 9.50775433460022e-13 -1.0 2.95139935594264e-14
outer loop
vertex -36.4082126823373 687.726100136839 9.43492367409694
vertex -30.9638476009454 687.726100136845 17.879288755485
vertex -36.8638476009476 687.726100136839 9.78454464381242
endloop
endfacet
facet normal 9.50775433460022e-13 -1.0 2.95139935594264e-14
outer loop
vertex -36.8638476009476 687.726100136839 9.78454464381242
vertex -30.9638476009454 687.726100136845 17.879288755485
vertex -37.394445701722 687.726100136838 10.0043255733228
endloop
endfacet
facet normal 9.50775433460022e-13 -1.0 2.95139935594264e-14
outer loop
vertex -37.394445701722 687.726100136838 10.0043255733228
vertex -30.9638476009454 687.726100136845 17.879288755485
vertex -37.9638476009475 687.726100136838 10.079288755487
endloop
endfacet
facet normal 9.50775433460022e-13 -1.0 2.95139935594264e-14
outer loop
vertex -44.9638476009509 687.726100136831 -2.12071124451107
vertex -39.8691034892742 687.726100136836 6.7792887554875
vertex -44.9638476009453 687.726100136831 17.8792887554889
endloop
endfacet
facet normal 9.50775433460022e-13 -1.0 2.95139935594264e-14
outer loop
vertex -39.8691034892742 687.726100136836 6.7792887554875
vertex -44.9638476009509 687.726100136831 -2.12071124451107
vertex -39.519482519559 687.726100136836 6.323653836877
endloop
endfacet
facet normal 9.50775433460022e-13 -1.0 2.95139935594264e-14
outer loop
vertex -39.519482519559 687.726100136836 6.323653836877
vertex -44.9638476009509 687.726100136831 -2.12071124451107
vertex -39.0638476009487 687.726100136837 5.97403286716151
endloop
endfacet
facet normal 9.50775433460022e-13 -1.0 2.95139935594264e-14
outer loop
vertex -39.0638476009487 687.726100136837 5.97403286716151
vertex -44.9638476009509 687.726100136831 -2.12071124451107
vertex -38.5332495001743 687.726100136837 5.75425193765118
endloop
endfacet
facet normal 9.50775433460022e-13 -1.0 2.95139935594264e-14
outer loop
vertex -38.5332495001743 687.726100136837 5.75425193765118
vertex -44.9638476009509 687.726100136831 -2.12071124451107
vertex -37.9638476009487 687.726100136838 5.67928875548697
endloop
endfacet
facet normal 9.50775433460022e-13 -1.0 2.95139935594264e-14
outer loop
vertex -44.9638476009453 687.726100136831 17.8792887554889
vertex -39.8691034892742 687.726100136836 6.7792887554875
vertex -40.0888844187842 687.726100136836 7.30988685626202
endloop
endfacet
facet normal 9.50775433460022e-13 -1.0 2.95139935594264e-14
outer loop
vertex -44.9638476009453 687.726100136831 17.8792887554889
vertex -40.0888844187842 687.726100136836 7.30988685626202
vertex -40.1638476009481 687.726100136836 7.87928875548758
endloop
endfacet
facet normal 9.50775433460022e-13 -1.0 2.95139935594264e-14
outer loop
vertex -44.9638476009453 687.726100136831 17.8792887554889
vertex -40.1638476009481 687.726100136836 7.87928875548758
vertex -40.0888844187839 687.726100136836 8.44869065471311
endloop
endfacet
facet normal 9.50775433460022e-13 -1.0 2.95139935594264e-14
outer loop
vertex -44.9638476009453 687.726100136831 17.8792887554889
vertex -40.0888844187839 687.726100136836 8.44869065471311
vertex -39.8691034892736 687.726100136836 8.9792887554875
endloop
endfacet
facet normal 9.50775433460022e-13 -1.0 2.95139935594264e-14
outer loop
vertex -44.9638476009453 687.726100136831 17.8792887554889
vertex -39.8691034892736 687.726100136836 8.9792887554875
vertex -39.5194825195581 687.726100136836 9.43492367409781
endloop
endfacet
facet normal 9.50775433460022e-13 -1.0 2.95139935594264e-14
outer loop
vertex -44.9638476009453 687.726100136831 17.8792887554889
vertex -39.5194825195581 687.726100136836 9.43492367409781
vertex -39.0638476009476 687.726100136837 9.78454464381304
endloop
endfacet
facet normal 9.50775433460022e-13 -1.0 2.95139935594264e-14
outer loop
vertex -44.9638476009453 687.726100136831 17.8792887554889
vertex -39.0638476009476 687.726100136837 9.78454464381304
vertex -38.5332495001731 687.726100136837 10.0043255733231
endloop
endfacet
facet normal 9.50775433460022e-13 -1.0 2.95139935594264e-14
outer loop
vertex -44.9638476009453 687.726100136831 17.8792887554889
vertex -38.5332495001731 687.726100136837 10.0043255733231
vertex -37.9638476009475 687.726100136838 10.079288755487
endloop
endfacet
facet normal 9.50775433460022e-13 -1.0 2.95139935594264e-14
outer loop
vertex -44.9638476009453 687.726100136831 17.8792887554889
vertex -37.9638476009475 687.726100136838 10.079288755487
vertex -30.9638476009454 687.726100136845 17.879288755485
endloop
endfacet
facet normal -9.50726314766578e-13 1.0 -2.6037402313597e-14
outer loop
vertex -37.9638476009401 675.526100136838 -5.12071124451271
vertex -37.3944457017138 675.601063319002 -2.12071124451288
vertex -37.3944457017146 675.601063319002 -5.12071124451288
endloop
endfacet
facet normal -0.25881904510349 0.965925826288809 4.75456907022531e-14
outer loop
vertex -37.3944457017138 675.601063319002 -2.12071124451288
vertex -37.9638476009401 675.526100136838 -5.12071124451271
vertex -37.9638476009393 675.526100136837 -2.12071124451272
endloop
endfacet
facet normal 2.80399022865206e-13 2.50665110670659e-14 1.0
outer loop
vertex -47.9638476009453 687.726100136829 17.8792887554898
vertex -27.9638476009483 690.726100136848 17.8792887554841
vertex -47.9638476009481 690.726100136828 17.8792887554897
endloop
endfacet
facet normal 2.80399022865206e-13 2.50665110670659e-14 1.0
outer loop
vertex -27.9638476009483 690.726100136848 17.8792887554841
vertex -47.9638476009453 687.726100136829 17.8792887554898
vertex -44.9638476009453 687.726100136831 17.8792887554889
endloop
endfacet
facet normal 2.80399022865206e-13 2.50665110670659e-14 1.0
outer loop
vertex -27.9638476009483 690.726100136848 17.8792887554841
vertex -44.9638476009453 687.726100136831 17.8792887554889
vertex -30.9638476009454 687.726100136845 17.879288755485
endloop
endfacet
facet normal 2.80399022865206e-13 2.50665110670659e-14 1.0
outer loop
vertex -27.9638476009483 690.726100136848 17.8792887554841
vertex -30.9638476009454 687.726100136845 17.879288755485
vertex -27.9638476009455 687.726100136848 17.8792887554842
endloop
endfacet
facet normal 0.258819045101668 0.965925826289297 -9.78460893906206e-14
outer loop
vertex -38.5332495001657 675.601063319001 -5.12071124451256
vertex -37.9638476009393 675.526100136837 -2.12071124451272
vertex -37.9638476009401 675.526100136838 -5.12071124451271
endloop
endfacet
facet normal -9.50770870316066e-13 1.0 -2.6037402313597e-14
outer loop
vertex -37.9638476009393 675.526100136837 -2.12071124451272
vertex -38.5332495001657 675.601063319001 -5.12071124451256
vertex -38.5332495001649 675.601063319001 -2.12071124451256
endloop
endfacet
facet normal 8.76146471191039e-13 -0.707106781186529 0.707106781186566
outer loop
vertex -47.9638476009317 667.726100136828 -2.12071124450972
vertex -44.9638476009453 687.726100136831 17.8792887554889
vertex -47.9638476009453 687.726100136829 17.8792887554898
endloop
endfacet
facet normal 8.76146471191039e-13 -0.707106781186529 0.707106781186566
outer loop
vertex -44.9638476009453 687.726100136831 17.8792887554889
vertex -47.9638476009317 667.726100136828 -2.12071124450972
vertex -44.9638476009317 667.726100136831 -2.12071124451056
endloop
endfacet
facet normal 0.258819045102248 2.14569016118855e-13 -0.965925826289141
outer loop
vertex -38.5332495001759 690.726100136837 10.004325573323
vertex -39.0638476009476 687.726100136837 9.78454464381304
vertex -39.0638476009504 690.726100136837 9.78454464381295
endloop
endfacet
facet normal 0.49999999999976 4.45312850020818e-13 -0.866025403784577
outer loop
vertex -39.0638476009476 687.726100136837 9.78454464381304
vertex -38.5332495001759 690.726100136837 10.004325573323
vertex -38.5332495001731 687.726100136837 10.0043255733231
endloop
endfacet
facet normal -0.499999999999755 -4.45312850020812e-13 0.86602540378458
outer loop
vertex -36.8638476009487 687.726100136839 5.97403286716089
vertex -36.408212682341 690.726100136839 6.32365383687603
vertex -36.8638476009515 690.726100136839 5.9740328671608
endloop
endfacet
facet normal -0.70710678118635 -6.45709349108135e-13 0.707106781186745
outer loop
vertex -36.408212682341 690.726100136839 6.32365383687603
vertex -36.8638476009487 687.726100136839 5.97403286716089
vertex -36.4082126823382 687.726100136839 6.32365383687613
endloop
endfacet
facet normal -0.500000000000241 -4.98655410478546e-13 -0.866025403784299
outer loop
vertex -36.8638476009504 690.726100136839 9.78454464381233
vertex -37.394445701722 687.726100136838 10.0043255733228
vertex -37.3944457017248 690.726100136838 10.0043255733227
endloop
endfacet
facet normal -0.258819045102794 -2.7406491146021e-13 -0.965925826288995
outer loop
vertex -37.394445701722 687.726100136838 10.0043255733228
vertex -36.8638476009504 690.726100136839 9.78454464381233
vertex -36.8638476009476 687.726100136839 9.78454464381242
endloop
endfacet
facet normal 1.0 9.55527901052204e-13 -2.79328492678091e-13
outer loop
vertex -27.9638476009546 690.726100136847 -5.12071124451595
vertex -27.9638476009319 667.726100136847 -2.12071124451532
vertex -27.9638476009327 667.726100136847 -5.12071124451532
endloop
endfacet
facet normal 1.0 9.55527901052204e-13 -2.79328492678091e-13
outer loop
vertex -27.9638476009319 667.726100136847 -2.12071124451532
vertex -27.9638476009546 690.726100136847 -5.12071124451595
vertex -27.9638476009455 687.726100136848 17.8792887554842
endloop
endfacet
facet normal 1.0 9.55527901052204e-13 -2.79328492678091e-13
outer loop
vertex -27.9638476009455 687.726100136848 17.8792887554842
vertex -27.9638476009546 690.726100136847 -5.12071124451595
vertex -27.9638476009483 690.726100136848 17.8792887554841
endloop
endfacet
facet normal -1.0 -9.43968260499362e-13 2.79915784042055e-13
outer loop
vertex -35.7638476009481 687.72610013684 7.87928875548635
vertex -35.8388107831152 690.72610013684 7.30988685626073
vertex -35.8388107831123 687.72610013684 7.30988685626082
endloop
endfacet
facet normal -0.965925826288995 -9.03832383458659e-13 0.258819045102794
outer loop
vertex -35.8388107831152 690.72610013684 7.30988685626073
vertex -35.7638476009481 687.72610013684 7.87928875548635
vertex -35.763847600951 690.72610013684 7.87928875548626
endloop
endfacet
facet normal 0.866025403784299 8.02101823138887e-13 -0.500000000000241
outer loop
vertex -39.8691034892764 690.726100136836 8.97928875548741
vertex -39.5194825195581 687.726100136836 9.43492367409781
vertex -39.8691034892736 687.726100136836 8.9792887554875
endloop
endfacet
facet normal 0.70710678118635 6.45709349108134e-13 -0.707106781186745
outer loop
vertex -39.5194825195581 687.726100136836 9.43492367409781
vertex -39.8691034892764 690.726100136836 8.97928875548741
vertex -39.5194825195609 690.726100136836 9.43492367409772
endloop
endfacet
facet normal -0.866025403784299 -8.02101823138887e-13 0.500000000000241
outer loop
vertex -36.0585917126227 687.72610013684 6.77928875548643
vertex -36.408212682341 690.726100136839 6.32365383687603
vertex -36.4082126823382 687.726100136839 6.32365383687613
endloop
endfacet
facet normal -0.70710678118635 -6.45709349108135e-13 0.707106781186745
outer loop
vertex -36.408212682341 690.726100136839 6.32365383687603
vertex -36.0585917126227 687.72610013684 6.77928875548643
vertex -36.0585917126255 690.726100136839 6.77928875548634
endloop
endfacet
facet normal 2.80102917349868e-13 3.07973416395357e-14 1.0
outer loop
vertex -37.9638476009487 687.726100136838 5.67928875548697
vertex -37.394445701726 690.726100136838 5.75425193765076
vertex -37.9638476009516 690.726100136838 5.67928875548687
endloop
endfacet
facet normal -0.258819045102251 -2.14569016118858e-13 0.96592582628914
outer loop
vertex -37.394445701726 690.726100136838 5.75425193765076
vertex -37.9638476009487 687.726100136838 5.67928875548697
vertex -37.3944457017232 687.726100136838 5.75425193765086
endloop
endfacet
facet normal -0.965925826289141 -9.19774260568342e-13 -0.258819045102249
outer loop
vertex -35.8388107831148 690.72610013684 8.44869065471183
vertex -35.7638476009481 687.72610013684 7.87928875548635
vertex -35.838810783112 687.72610013684 8.44869065471192
endloop
endfacet
facet normal -1.0 -9.43968260499362e-13 2.79915784042055e-13
outer loop
vertex -35.7638476009481 687.72610013684 7.87928875548635
vertex -35.8388107831148 690.72610013684 8.44869065471183
vertex -35.763847600951 690.72610013684 7.87928875548626
endloop
endfacet
facet normal -0.707106781186745 -6.89263367339803e-13 -0.70710678118635
outer loop
vertex -36.4082126823401 690.726100136839 9.43492367409684
vertex -36.058591712622 687.72610013684 8.97928875548643
vertex -36.4082126823373 687.726100136839 9.43492367409694
endloop
endfacet
facet normal -0.86602540378458 -8.32899164778423e-13 -0.499999999999755
outer loop
vertex -36.058591712622 687.72610013684 8.97928875548643
vertex -36.4082126823401 690.726100136839 9.43492367409684
vertex -36.0585917126249 690.726100136839 8.97928875548634
endloop
endfacet
facet normal 0.707106781186745 6.89263367339803e-13 0.70710678118635
outer loop
vertex -39.519482519559 687.726100136836 6.323653836877
vertex -39.0638476009515 690.726100136837 5.97403286716142
vertex -39.5194825195618 690.726100136836 6.32365383687691
endloop
endfacet
facet normal 0.500000000000244 4.98655410478549e-13 0.866025403784297
outer loop
vertex -39.0638476009515 690.726100136837 5.97403286716142
vertex -39.519482519559 687.726100136836 6.323653836877
vertex -39.0638476009487 687.726100136837 5.97403286716151
endloop
endfacet
facet normal 0.965925826288997 9.03832383458661e-13 -0.258819045102788
outer loop
vertex -40.0888844187867 690.726100136836 8.44869065471302
vertex -39.8691034892736 687.726100136836 8.9792887554875
vertex -40.0888844187839 687.726100136836 8.44869065471311
endloop
endfacet
facet normal 0.866025403784297 8.02101823138885e-13 -0.500000000000245
outer loop
vertex -39.8691034892736 687.726100136836 8.9792887554875
vertex -40.0888844187867 690.726100136836 8.44869065471302
vertex -39.8691034892764 690.726100136836 8.97928875548741
endloop
endfacet
facet normal 1.0 9.58678520508746e-13 -2.79418263437967e-13
outer loop
vertex -44.9638476009453 687.726100136831 17.8792887554889
vertex -44.9638476009317 667.726100136831 -2.12071124451056
vertex -44.9638476009509 687.726100136831 -2.12071124451107
endloop
endfacet
facet normal -0.866025403784904 0.499999999999194 2.30226487797446e-13
outer loop
vertex -36.0585917126145 676.626100136839 -2.12071124451328
vertex -36.4082126823303 676.170465218229 -5.12071124451317
vertex -36.4082126823295 676.170465218229 -2.12071124451317
endloop
endfacet
facet normal -0.707106781187202 0.707106781185893 1.80197641367829e-13
outer loop
vertex -36.4082126823303 676.170465218229 -5.12071124451317
vertex -36.0585917126145 676.626100136839 -2.12071124451328
vertex -36.0585917126154 676.626100136839 -5.12071124451328
endloop
endfacet
facet normal -0.258819045101668 -0.965925826289297 9.78460893906207e-14
outer loop
vertex -37.3944457017178 679.851136954674 -2.12071124451299
vertex -37.9638476009442 679.926100136838 -5.12071124451283
vertex -37.3944457017186 679.851136954674 -5.12071124451299
endloop
endfacet
facet normal 9.50022337084833e-13 -1.0 2.60374023135972e-14
outer loop
vertex -37.9638476009442 679.926100136838 -5.12071124451283
vertex -37.3944457017178 679.851136954674 -2.12071124451299
vertex -37.9638476009434 679.926100136838 -2.12071124451283
endloop
endfacet
facet normal 0.499999999999166 0.86602540378492 -1.62986727173944e-13
outer loop
vertex -39.0638476009404 675.820844248511 -5.12071124451241
vertex -38.5332495001649 675.601063319001 -2.12071124451256
vertex -38.5332495001657 675.601063319001 -5.12071124451256
endloop
endfacet
facet normal 0.258819045101666 0.965925826289297 -9.784608939062e-14
outer loop
vertex -38.5332495001649 675.601063319001 -2.12071124451256
vertex -39.0638476009404 675.820844248511 -5.12071124451241
vertex -39.0638476009395 675.820844248511 -2.12071124451242
endloop
endfacet
facet normal 0.866025403784904 -0.499999999999193 -2.30226487797446e-13
outer loop
vertex -39.869103489269 678.826100136836 -5.12071124451227
vertex -39.5194825195532 679.281735055446 -2.12071124451238
vertex -39.8691034892681 678.826100136836 -2.12071124451227
endloop
endfacet
facet normal 0.7071067811872 -0.707106781185896 -1.80197641367829e-13
outer loop
vertex -39.5194825195532 679.281735055446 -2.12071124451238
vertex -39.869103489269 678.826100136836 -5.12071124451227
vertex -39.519482519554 679.281735055447 -5.12071124451238
endloop
endfacet
facet normal -0.258819045103492 0.965925826288808 4.75456907022537e-14
outer loop
vertex -37.3944457017146 675.601063319002 -5.12071124451288
vertex -36.8638476009395 675.820844248513 -2.12071124451303
vertex -36.8638476009404 675.820844248513 -5.12071124451303
endloop
endfacet
facet normal -0.500000000000814 0.866025403783969 1.17888623469683e-13
outer loop
vertex -36.8638476009395 675.820844248513 -2.12071124451303
vertex -37.3944457017146 675.601063319002 -5.12071124451288
vertex -37.3944457017138 675.601063319002 -2.12071124451288
endloop
endfacet
facet normal -1.0 -9.35408116855952e-13 2.80875350643632e-13
outer loop
vertex -35.7638476009413 677.72610013684 -2.12071124451339
vertex -35.8388107831057 677.156698237614 -5.12071124451335
vertex -35.8388107831048 677.156698237614 -2.12071124451336
endloop
endfacet
facet normal -0.965925826289317 0.258819045101594 2.64565779550928e-13
outer loop
vertex -35.8388107831057 677.156698237614 -5.12071124451335
vertex -35.7638476009413 677.72610013684 -2.12071124451339
vertex -35.7638476009422 677.72610013684 -5.12071124451339
endloop
endfacet
facet normal 1.0 9.35497227954907e-13 -2.80875350643632e-13
outer loop
vertex -40.1638476009422 677.726100136836 -5.12071124451215
vertex -40.0888844187778 678.295502036061 -2.12071124451219
vertex -40.1638476009413 677.726100136835 -2.12071124451216
endloop
endfacet
facet normal 0.965925826289318 -0.25881904510159 -2.64565779550928e-13
outer loop
vertex -40.0888844187778 678.295502036061 -2.12071124451219
vertex -40.1638476009422 677.726100136836 -5.12071124451215
vertex -40.0888844187787 678.295502036061 -5.12071124451219
endloop
endfacet
facet normal -0.500000000000818 0.866025403783967 1.17888623469684e-13
outer loop
vertex -36.8638476009404 675.820844248513 -5.12071124451303
vertex -36.4082126823295 676.170465218229 -2.12071124451317
vertex -36.4082126823303 676.170465218229 -5.12071124451317
endloop
endfacet
facet normal -0.707106781187198 0.707106781185897 1.80197641367828e-13
outer loop
vertex -36.4082126823295 676.170465218229 -2.12071124451317
vertex -36.8638476009404 675.820844248513 -5.12071124451303
vertex -36.8638476009395 675.820844248513 -2.12071124451303
endloop
endfacet
facet normal 0.707106781186745 6.89263367339803e-13 0.70710678118635
outer loop
vertex -39.519482519559 687.726100136836 6.323653836877
vertex -39.869103489277 690.726100136836 6.77928875548741
vertex -39.8691034892742 687.726100136836 6.7792887554875
endloop
endfacet
facet normal 0.86602540378458 8.32899164778423e-13 0.499999999999754
outer loop
vertex -39.869103489277 690.726100136836 6.77928875548741
vertex -39.519482519559 687.726100136836 6.323653836877
vertex -39.5194825195618 690.726100136836 6.32365383687691
endloop
endfacet
facet normal -0.707106781186745 -6.89263367339803e-13 -0.70710678118635
outer loop
vertex -36.4082126823401 690.726100136839 9.43492367409684
vertex -36.8638476009476 687.726100136839 9.78454464381242
vertex -36.8638476009504 690.726100136839 9.78454464381233
endloop
endfacet
facet normal -0.500000000000243 -4.98655410478547e-13 -0.866025403784298
outer loop
vertex -36.8638476009476 687.726100136839 9.78454464381242
vertex -36.4082126823401 690.726100136839 9.43492367409684
vertex -36.4082126823373 687.726100136839 9.43492367409694
endloop
endfacet
facet normal 8.7250638569488e-13 -0.70710678118653 0.707106781186565
outer loop
vertex -30.9638476009318 667.726100136844 -2.12071124451449
vertex -27.9638476009455 687.726100136848 17.8792887554842
vertex -30.9638476009454 687.726100136845 17.879288755485
endloop
endfacet
facet normal 8.7250638569488e-13 -0.70710678118653 0.707106781186565
outer loop
vertex -27.9638476009455 687.726100136848 17.8792887554842
vertex -30.9638476009318 667.726100136844 -2.12071124451449
vertex -27.9638476009319 667.726100136847 -2.12071124451532
endloop
endfacet
facet normal 0.965925826289141 9.19774260568342e-13 0.258819045102249
outer loop
vertex -40.0888844187842 687.726100136836 7.30988685626202
vertex -40.163847600951 690.726100136836 7.87928875548749
vertex -40.1638476009481 687.726100136836 7.87928875548758
endloop
endfacet
facet normal 1.0 9.43968260499362e-13 -2.79915784042055e-13
outer loop
vertex -40.163847600951 690.726100136836 7.87928875548749
vertex -40.0888844187842 687.726100136836 7.30988685626202
vertex -40.0888844187871 690.726100136836 7.30988685626193
endloop
endfacet
facet normal 0.500000000000243 4.98655410478548e-13 0.866025403784298
outer loop
vertex -39.0638476009487 687.726100136837 5.97403286716151
vertex -38.5332495001771 690.726100136837 5.75425193765108
vertex -39.0638476009515 690.726100136837 5.97403286716142
endloop
endfacet
facet normal 0.258819045102795 2.74064911460211e-13 0.965925826288995
outer loop
vertex -38.5332495001771 690.726100136837 5.75425193765108
vertex -39.0638476009487 687.726100136837 5.97403286716151
vertex -38.5332495001743 687.726100136837 5.75425193765118
endloop
endfacet
facet normal 1.0 9.43968260499362e-13 -2.79915784042055e-13
outer loop
vertex -40.163847600951 690.726100136836 7.87928875548749
vertex -40.0888844187839 687.726100136836 8.44869065471311
vertex -40.1638476009481 687.726100136836 7.87928875548758
endloop
endfacet
facet normal 0.965925826288995 9.03832383458659e-13 -0.258819045102793
outer loop
vertex -40.0888844187839 687.726100136836 8.44869065471311
vertex -40.163847600951 690.726100136836 7.87928875548749
vertex -40.0888844187867 690.726100136836 8.44869065471302
endloop
endfacet
facet normal -0.866025403784576 -8.3289916477842e-13 -0.499999999999762
outer loop
vertex -36.0585917126249 690.726100136839 8.97928875548634
vertex -35.838810783112 687.72610013684 8.44869065471192
vertex -36.058591712622 687.72610013684 8.97928875548643
endloop
endfacet
facet normal -0.96592582628914 -9.19774260568341e-13 -0.258819045102253
outer loop
vertex -35.838810783112 687.72610013684 8.44869065471192
vertex -36.0585917126249 690.726100136839 8.97928875548634
vertex -35.8388107831148 690.72610013684 8.44869065471183
endloop
endfacet
facet normal -2.8012073956966e-13 -3.07973416395357e-14 -1.0
outer loop
vertex -37.9638476009503 690.726100136838 10.0792887554869
vertex -38.5332495001731 687.726100136837 10.0043255733231
vertex -38.5332495001759 690.726100136837 10.004325573323
endloop
endfacet
facet normal 0.258819045102253 2.14569016118859e-13 -0.96592582628914
outer loop
vertex -38.5332495001731 687.726100136837 10.0043255733231
vertex -37.9638476009503 690.726100136838 10.0792887554869
vertex -37.9638476009475 687.726100136838 10.079288755487
endloop
endfacet
facet normal -0.965925826288997 -9.03832383458661e-13 0.258819045102788
outer loop
vertex -35.8388107831123 687.72610013684 7.30988685626082
vertex -36.0585917126255 690.726100136839 6.77928875548634
vertex -36.0585917126227 687.72610013684 6.77928875548643
endloop
endfacet
facet normal -0.866025403784297 -8.02101823138885e-13 0.500000000000245
outer loop
vertex -36.0585917126255 690.726100136839 6.77928875548634
vertex -35.8388107831123 687.72610013684 7.30988685626082
vertex -35.8388107831152 690.72610013684 7.30988685626073
endloop
endfacet
facet normal -0.258819045102246 -2.14569016118854e-13 0.965925826289142
outer loop
vertex -37.3944457017232 687.726100136838 5.75425193765086
vertex -36.8638476009515 690.726100136839 5.9740328671608
vertex -37.394445701726 690.726100136838 5.75425193765076
endloop
endfacet
facet normal -0.49999999999976 -4.45312850020818e-13 0.866025403784577
outer loop
vertex -36.8638476009515 690.726100136839 5.9740328671608
vertex -37.3944457017232 687.726100136838 5.75425193765086
vertex -36.8638476009487 687.726100136839 5.97403286716089
endloop
endfacet
facet normal -0.707106781185858 -0.707106781187237 2.17020088848684e-13
outer loop
vertex -36.4082126823324 679.281735055449 -2.12071124451325
vertex -36.0585917126174 678.82610013684 -5.12071124451333
vertex -36.0585917126166 678.826100136839 -2.12071124451334
endloop
endfacet
facet normal -0.866025403783962 -0.500000000000826 2.56263890111045e-13
outer loop
vertex -36.0585917126174 678.82610013684 -5.12071124451333
vertex -36.4082126823324 679.281735055449 -2.12071124451325
vertex -36.4082126823332 679.28173505545 -5.12071124451325
endloop
endfacet
facet normal 0.50000000000082 -0.866025403783966 -1.17888623469684e-13
outer loop
vertex -39.0638476009431 679.631356025162 -2.12071124451252
vertex -39.519482519554 679.281735055447 -5.12071124451238
vertex -39.063847600944 679.631356025162 -5.12071124451251
endloop
endfacet
facet normal 0.707106781187195 -0.7071067811859 -1.80197641367827e-13
outer loop
vertex -39.519482519554 679.281735055447 -5.12071124451238
vertex -39.0638476009431 679.631356025162 -2.12071124451252
vertex -39.5194825195532 679.281735055446 -2.12071124451238
endloop
endfacet
facet normal -0.707106781185858 -0.707106781187237 2.17020088848684e-13
outer loop
vertex -36.4082126823324 679.281735055449 -2.12071124451325
vertex -36.863847600944 679.631356025164 -5.12071124451313
vertex -36.4082126823332 679.28173505545 -5.12071124451325
endloop
endfacet
facet normal -0.499999999999162 -0.866025403784923 1.62986727173943e-13
outer loop
vertex -36.863847600944 679.631356025164 -5.12071124451313
vertex -36.4082126823324 679.281735055449 -2.12071124451325
vertex -36.8638476009431 679.631356025164 -2.12071124451313
endloop
endfacet
facet normal -0.499999999999166 -0.86602540378492 1.62986727173944e-13
outer loop
vertex -36.8638476009431 679.631356025164 -2.12071124451313
vertex -37.3944457017186 679.851136954674 -5.12071124451299
vertex -36.863847600944 679.631356025164 -5.12071124451313
endloop
endfacet
facet normal -0.258819045101666 -0.965925826289297 9.784608939062e-14
outer loop
vertex -37.3944457017186 679.851136954674 -5.12071124451299
vertex -36.8638476009431 679.631356025164 -2.12071124451313
vertex -37.3944457017178 679.851136954674 -2.12071124451299
endloop
endfacet
facet normal -0.866025403783966 -0.500000000000819 2.56263890111047e-13
outer loop
vertex -36.0585917126166 678.826100136839 -2.12071124451334
vertex -35.8388107831068 678.295502036065 -5.12071124451338
vertex -35.8388107831059 678.295502036065 -2.12071124451339
endloop
endfacet
facet normal -0.965925826288824 -0.258819045103432 2.78043730758438e-13
outer loop
vertex -35.8388107831068 678.295502036065 -5.12071124451338
vertex -36.0585917126166 678.826100136839 -2.12071124451334
vertex -36.0585917126174 678.82610013684 -5.12071124451333
endloop
endfacet
facet normal -0.965925826288827 -0.258819045103423 2.78043730758438e-13
outer loop
vertex -35.8388107831059 678.295502036065 -2.12071124451339
vertex -35.7638476009422 677.72610013684 -5.12071124451339
vertex -35.7638476009413 677.72610013684 -2.12071124451339
endloop
endfacet
facet normal -1.0 -9.44622204488052e-13 2.80875350643632e-13
outer loop
vertex -35.7638476009422 677.72610013684 -5.12071124451339
vertex -35.8388107831059 678.295502036065 -2.12071124451339
vertex -35.8388107831068 678.295502036065 -5.12071124451338
endloop
endfacet
facet normal -0.965925826289314 0.258819045101603 2.64565779550927e-13
outer loop
vertex -35.8388107831048 677.156698237614 -2.12071124451336
vertex -36.0585917126154 676.626100136839 -5.12071124451328
vertex -36.0585917126145 676.626100136839 -2.12071124451328
endloop
endfacet
facet normal -0.866025403784908 0.499999999999187 2.30226487797447e-13
outer loop
vertex -36.0585917126154 676.626100136839 -5.12071124451328
vertex -35.8388107831048 677.156698237614 -2.12071124451336
vertex -35.8388107831057 677.156698237614 -5.12071124451335
endloop
endfacet
facet normal 0.707106781185858 0.707106781187237 -2.17020088848684e-13
outer loop
vertex -39.5194825195511 676.170465218226 -5.12071124451229
vertex -39.0638476009395 675.820844248511 -2.12071124451242
vertex -39.0638476009404 675.820844248511 -5.12071124451241
endloop
endfacet
facet normal 0.499999999999162 0.866025403784923 -1.62986727173943e-13
outer loop
vertex -39.0638476009395 675.820844248511 -2.12071124451242
vertex -39.5194825195511 676.170465218226 -5.12071124451229
vertex -39.5194825195503 676.170465218226 -2.1207112445123
endloop
endfacet
facet normal 0.258819045103493 -0.965925826288808 -4.7545690702254e-14
outer loop
vertex -38.5332495001689 679.851136954673 -2.12071124451267
vertex -39.063847600944 679.631356025162 -5.12071124451251
vertex -38.5332495001697 679.851136954673 -5.12071124451267
endloop
endfacet
facet normal 0.500000000000816 -0.866025403783968 -1.17888623469683e-13
outer loop
vertex -39.063847600944 679.631356025162 -5.12071124451251
vertex -38.5332495001689 679.851136954673 -2.12071124451267
vertex -39.0638476009431 679.631356025162 -2.12071124451252
endloop
endfacet
facet normal 9.4998669264524e-13 -1.0 2.60374023135972e-14
outer loop
vertex -37.9638476009434 679.926100136838 -2.12071124451283
vertex -38.5332495001697 679.851136954673 -5.12071124451267
vertex -37.9638476009442 679.926100136838 -5.12071124451283
endloop
endfacet
facet normal 0.258819045103491 -0.965925826288808 -4.75456907022534e-14
outer loop
vertex -38.5332495001697 679.851136954673 -5.12071124451267
vertex -37.9638476009434 679.926100136838 -2.12071124451283
vertex -38.5332495001689 679.851136954673 -2.12071124451267
endloop
endfacet
facet normal 0.965925826288827 0.258819045103423 -2.78043730758438e-13
outer loop
vertex -40.0888844187776 677.15669823761 -5.12071124451216
vertex -40.1638476009413 677.726100136835 -2.12071124451216
vertex -40.0888844187767 677.15669823761 -2.12071124451216
endloop
endfacet
facet normal 1.0 9.44711315587007e-13 -2.80875350643632e-13
outer loop
vertex -40.1638476009413 677.726100136835 -2.12071124451216
vertex -40.0888844187776 677.15669823761 -5.12071124451216
vertex -40.1638476009422 677.726100136836 -5.12071124451215
endloop
endfacet
facet normal 0.866025403783966 0.500000000000818 -2.56263890111047e-13
outer loop
vertex -39.8691034892669 676.626100136836 -5.12071124451221
vertex -40.0888844187767 677.15669823761 -2.12071124451216
vertex -39.8691034892661 676.626100136836 -2.12071124451221
endloop
endfacet
facet normal 0.965925826288824 0.258819045103432 -2.78043730758438e-13
outer loop
vertex -40.0888844187767 677.15669823761 -2.12071124451216
vertex -39.8691034892669 676.626100136836 -5.12071124451221
vertex -40.0888844187776 677.15669823761 -5.12071124451216
endloop
endfacet
facet normal 0.965925826289315 -0.258819045101599 -2.64565779550927e-13
outer loop
vertex -40.0888844187787 678.295502036061 -5.12071124451219
vertex -39.8691034892681 678.826100136836 -2.12071124451227
vertex -40.0888844187778 678.295502036061 -2.12071124451219
endloop
endfacet
facet normal 0.866025403784908 -0.499999999999186 -2.30226487797447e-13
outer loop
vertex -39.8691034892681 678.826100136836 -2.12071124451227
vertex -40.0888844187787 678.295502036061 -5.12071124451219
vertex -39.869103489269 678.826100136836 -5.12071124451227
endloop
endfacet
facet normal 2.80913557735733e-13 2.58016718045089e-14 1.0
outer loop
vertex -44.9638476009317 667.726100136831 -2.12071124451056
vertex -40.0888844187767 677.15669823761 -2.12071124451216
vertex -40.1638476009413 677.726100136835 -2.12071124451216
endloop
endfacet
facet normal 2.80913557735733e-13 2.58016718045089e-14 1.0
outer loop
vertex -40.0888844187767 677.15669823761 -2.12071124451216
vertex -44.9638476009317 667.726100136831 -2.12071124451056
vertex -39.8691034892661 676.626100136836 -2.12071124451221
endloop
endfacet
facet normal 2.80913557735733e-13 2.58016718045089e-14 1.0
outer loop
vertex -39.8691034892661 676.626100136836 -2.12071124451221
vertex -44.9638476009317 667.726100136831 -2.12071124451056
vertex -39.5194825195503 676.170465218226 -2.1207112445123
endloop
endfacet
facet normal 2.80913557735733e-13 2.58016718045089e-14 1.0
outer loop
vertex -39.5194825195503 676.170465218226 -2.1207112445123
vertex -44.9638476009317 667.726100136831 -2.12071124451056
vertex -30.9638476009318 667.726100136844 -2.12071124451449
endloop
endfacet
facet normal 2.80913557735733e-13 2.58016718045089e-14 1.0
outer loop
vertex -39.5194825195503 676.170465218226 -2.1207112445123
vertex -30.9638476009318 667.726100136844 -2.12071124451449
vertex -39.0638476009395 675.820844248511 -2.12071124451242
endloop
endfacet
facet normal 2.80913557735733e-13 2.58016718045089e-14 1.0
outer loop
vertex -39.0638476009395 675.820844248511 -2.12071124451242
vertex -30.9638476009318 667.726100136844 -2.12071124451449
vertex -38.5332495001649 675.601063319001 -2.12071124451256
endloop
endfacet
facet normal 2.80913557735733e-13 2.58016718045089e-14 1.0
outer loop
vertex -38.5332495001649 675.601063319001 -2.12071124451256
vertex -30.9638476009318 667.726100136844 -2.12071124451449
vertex -37.9638476009393 675.526100136837 -2.12071124451272
endloop
endfacet
facet normal 2.80913557735733e-13 2.58016718045089e-14 1.0
outer loop
vertex -37.9638476009393 675.526100136837 -2.12071124451272
vertex -30.9638476009318 667.726100136844 -2.12071124451449
vertex -37.3944457017138 675.601063319002 -2.12071124451288
endloop
endfacet
facet normal 2.80913557735733e-13 2.58016718045089e-14 1.0
outer loop
vertex -37.3944457017138 675.601063319002 -2.12071124451288
vertex -30.9638476009318 667.726100136844 -2.12071124451449
vertex -36.8638476009395 675.820844248513 -2.12071124451303
endloop
endfacet
facet normal 2.80913557735733e-13 2.58016718045089e-14 1.0
outer loop
vertex -36.8638476009395 675.820844248513 -2.12071124451303
vertex -30.9638476009318 667.726100136844 -2.12071124451449
vertex -36.4082126823295 676.170465218229 -2.12071124451317
endloop
endfacet
facet normal 2.80913557735733e-13 2.58016718045089e-14 1.0
outer loop
vertex -36.4082126823295 676.170465218229 -2.12071124451317
vertex -30.9638476009318 667.726100136844 -2.12071124451449
vertex -36.0585917126145 676.626100136839 -2.12071124451328
endloop
endfacet
facet normal 2.80913557735733e-13 2.58016718045089e-14 1.0
outer loop
vertex -36.0585917126145 676.626100136839 -2.12071124451328
vertex -30.9638476009318 667.726100136844 -2.12071124451449
vertex -35.8388107831048 677.156698237614 -2.12071124451336
endloop
endfacet
facet normal 2.80913557735733e-13 2.58016718045089e-14 1.0
outer loop
vertex -35.8388107831048 677.156698237614 -2.12071124451336
vertex -30.9638476009318 667.726100136844 -2.12071124451449
vertex -35.7638476009413 677.72610013684 -2.12071124451339
endloop
endfacet
facet normal 2.80913557735733e-13 2.58016718045089e-14 1.0
outer loop
vertex -35.7638476009413 677.72610013684 -2.12071124451339
vertex -30.9638476009318 667.726100136844 -2.12071124451449
vertex -30.9638476009509 687.726100136844 -2.120711244515
endloop
endfacet
facet normal 2.80913557735733e-13 2.58016718045089e-14 1.0
outer loop
vertex -44.9638476009509 687.726100136831 -2.12071124451107
vertex -39.5194825195532 679.281735055446 -2.12071124451238
vertex -30.9638476009509 687.726100136844 -2.120711244515
endloop
endfacet
facet normal 2.80913557735733e-13 2.58016718045089e-14 1.0
outer loop
vertex -39.5194825195532 679.281735055446 -2.12071124451238
vertex -44.9638476009509 687.726100136831 -2.12071124451107
vertex -39.8691034892681 678.826100136836 -2.12071124451227
endloop
endfacet
facet normal 2.80913557735733e-13 2.58016718045089e-14 1.0
outer loop
vertex -39.8691034892681 678.826100136836 -2.12071124451227
vertex -44.9638476009509 687.726100136831 -2.12071124451107
vertex -44.9638476009317 667.726100136831 -2.12071124451056
endloop
endfacet
facet normal 2.80913557735733e-13 2.58016718045089e-14 1.0
outer loop
vertex -39.8691034892681 678.826100136836 -2.12071124451227
vertex -44.9638476009317 667.726100136831 -2.12071124451056
vertex -40.0888844187778 678.295502036061 -2.12071124451219
endloop
endfacet
facet normal 2.80913557735733e-13 2.58016718045089e-14 1.0
outer loop
vertex -40.0888844187778 678.295502036061 -2.12071124451219
vertex -44.9638476009317 667.726100136831 -2.12071124451056
vertex -40.1638476009413 677.726100136835 -2.12071124451216
endloop
endfacet
facet normal 2.80913557735733e-13 2.58016718045089e-14 1.0
outer loop
vertex -30.9638476009509 687.726100136844 -2.120711244515
vertex -39.5194825195532 679.281735055446 -2.12071124451238
vertex -39.0638476009431 679.631356025162 -2.12071124451252
endloop
endfacet
facet normal 2.80913557735733e-13 2.58016718045089e-14 1.0
outer loop
vertex -30.9638476009509 687.726100136844 -2.120711244515
vertex -39.0638476009431 679.631356025162 -2.12071124451252
vertex -38.5332495001689 679.851136954673 -2.12071124451267
endloop
endfacet
facet normal 2.80913557735733e-13 2.58016718045089e-14 1.0
outer loop
vertex -30.9638476009509 687.726100136844 -2.120711244515
vertex -38.5332495001689 679.851136954673 -2.12071124451267
vertex -37.9638476009434 679.926100136838 -2.12071124451283
endloop
endfacet
facet normal 2.80913557735733e-13 2.58016718045089e-14 1.0
outer loop
vertex -30.9638476009509 687.726100136844 -2.120711244515
vertex -37.9638476009434 679.926100136838 -2.12071124451283
vertex -37.3944457017178 679.851136954674 -2.12071124451299
endloop
endfacet
facet normal 2.80913557735733e-13 2.58016718045089e-14 1.0
outer loop
vertex -30.9638476009509 687.726100136844 -2.120711244515
vertex -37.3944457017178 679.851136954674 -2.12071124451299
vertex -36.8638476009431 679.631356025164 -2.12071124451313
endloop
endfacet
facet normal 2.80913557735733e-13 2.58016718045089e-14 1.0
outer loop
vertex -30.9638476009509 687.726100136844 -2.120711244515
vertex -36.8638476009431 679.631356025164 -2.12071124451313
vertex -36.4082126823324 679.281735055449 -2.12071124451325
endloop
endfacet
facet normal 2.80913557735733e-13 2.58016718045089e-14 1.0
outer loop
vertex -30.9638476009509 687.726100136844 -2.120711244515
vertex -36.4082126823324 679.281735055449 -2.12071124451325
vertex -36.0585917126166 678.826100136839 -2.12071124451334
endloop
endfacet
facet normal 2.80913557735733e-13 2.58016718045089e-14 1.0
outer loop
vertex -30.9638476009509 687.726100136844 -2.120711244515
vertex -36.0585917126166 678.826100136839 -2.12071124451334
vertex -35.8388107831059 678.295502036065 -2.12071124451339
endloop
endfacet
facet normal 2.80913557735733e-13 2.58016718045089e-14 1.0
outer loop
vertex -30.9638476009509 687.726100136844 -2.120711244515
vertex -35.8388107831059 678.295502036065 -2.12071124451339
vertex -35.7638476009413 677.72610013684 -2.12071124451339
endloop
endfacet
facet normal -1.0 -9.56422547322708e-13 2.77162290251929e-13
outer loop
vertex -30.9638476009454 687.726100136845 17.879288755485
vertex -30.9638476009509 687.726100136844 -2.120711244515
vertex -30.9638476009318 667.726100136844 -2.12071124451449
endloop
endfacet
facet normal -1.0 -9.55916044928369e-13 2.79020109670059e-13
outer loop
vertex -47.9638476009317 667.726100136828 -2.12071124450972
vertex -47.9638476009546 690.726100136828 -5.12071124451034
vertex -47.9638476009325 667.726100136828 -5.12071124450972
endloop
endfacet
facet normal -1.0 -9.55916044928369e-13 2.79020109670059e-13
outer loop
vertex -47.9638476009546 690.726100136828 -5.12071124451034
vertex -47.9638476009317 667.726100136828 -2.12071124450972
vertex -47.9638476009453 687.726100136829 17.8792887554898
endloop
endfacet
facet normal -1.0 -9.55916044928369e-13 2.79020109670059e-13
outer loop
vertex -47.9638476009546 690.726100136828 -5.12071124451034
vertex -47.9638476009453 687.726100136829 17.8792887554898
vertex -47.9638476009481 690.726100136828 17.8792887554897
endloop
endfacet
facet normal 0.707106781185858 0.707106781187237 -2.17020088848684e-13
outer loop
vertex -39.5194825195511 676.170465218226 -5.12071124451229
vertex -39.8691034892661 676.626100136836 -2.12071124451221
vertex -39.5194825195503 676.170465218226 -2.1207112445123
endloop
endfacet
facet normal 0.866025403783962 0.500000000000825 -2.56263890111045e-13
outer loop
vertex -39.8691034892661 676.626100136836 -2.12071124451221
vertex -39.5194825195511 676.170465218226 -5.12071124451229
vertex -39.8691034892669 676.626100136836 -5.12071124451221
endloop
endfacet
facet normal -9.55083063243502e-13 1.0 -2.66195360861724e-14
outer loop
vertex -47.9638476009546 690.726100136828 -5.12071124451034
vertex -38.5332495001771 690.726100136837 5.75425193765108
vertex -37.9638476009516 690.726100136838 5.67928875548687
endloop
endfacet
facet normal -9.55083063243502e-13 1.0 -2.66195360861724e-14
outer loop
vertex -38.5332495001771 690.726100136837 5.75425193765108
vertex -47.9638476009546 690.726100136828 -5.12071124451034
vertex -39.0638476009515 690.726100136837 5.97403286716142
endloop
endfacet
facet normal -9.55083063243502e-13 1.0 -2.66195360861724e-14
outer loop
vertex -39.0638476009515 690.726100136837 5.97403286716142
vertex -47.9638476009546 690.726100136828 -5.12071124451034
vertex -39.5194825195618 690.726100136836 6.32365383687691
endloop
endfacet
facet normal -9.55083063243502e-13 1.0 -2.66195360861724e-14
outer loop
vertex -39.5194825195618 690.726100136836 6.32365383687691
vertex -47.9638476009546 690.726100136828 -5.12071124451034
vertex -39.869103489277 690.726100136836 6.77928875548741
endloop
endfacet
facet normal -9.55083063243502e-13 1.0 -2.66195360861724e-14
outer loop
vertex -39.869103489277 690.726100136836 6.77928875548741
vertex -47.9638476009546 690.726100136828 -5.12071124451034
vertex -47.9638476009481 690.726100136828 17.8792887554897
endloop
endfacet
facet normal -9.55083063243502e-13 1.0 -2.66195360861724e-14
outer loop
vertex -39.869103489277 690.726100136836 6.77928875548741
vertex -47.9638476009481 690.726100136828 17.8792887554897
vertex -40.0888844187871 690.726100136836 7.30988685626193
endloop
endfacet
facet normal -9.55083063243502e-13 1.0 -2.66195360861724e-14
outer loop
vertex -40.0888844187871 690.726100136836 7.30988685626193
vertex -47.9638476009481 690.726100136828 17.8792887554897
vertex -40.163847600951 690.726100136836 7.87928875548749
endloop
endfacet
facet normal -9.55083063243502e-13 1.0 -2.66195360861724e-14
outer loop
vertex -40.163847600951 690.726100136836 7.87928875548749
vertex -47.9638476009481 690.726100136828 17.8792887554897
vertex -40.0888844187867 690.726100136836 8.44869065471302
endloop
endfacet
facet normal -9.55083063243502e-13 1.0 -2.66195360861724e-14
outer loop
vertex -40.0888844187867 690.726100136836 8.44869065471302
vertex -47.9638476009481 690.726100136828 17.8792887554897
vertex -39.8691034892764 690.726100136836 8.97928875548741
endloop
endfacet
facet normal -9.55083063243502e-13 1.0 -2.66195360861724e-14
outer loop
vertex -39.8691034892764 690.726100136836 8.97928875548741
vertex -47.9638476009481 690.726100136828 17.8792887554897
vertex -39.5194825195609 690.726100136836 9.43492367409772
endloop
endfacet
facet normal -9.55083063243502e-13 1.0 -2.66195360861724e-14
outer loop
vertex -39.5194825195609 690.726100136836 9.43492367409772
vertex -47.9638476009481 690.726100136828 17.8792887554897
vertex -39.0638476009504 690.726100136837 9.78454464381295
endloop
endfacet
facet normal -9.55083063243502e-13 1.0 -2.66195360861724e-14
outer loop
vertex -39.0638476009504 690.726100136837 9.78454464381295
vertex -47.9638476009481 690.726100136828 17.8792887554897
vertex -38.5332495001759 690.726100136837 10.004325573323
endloop
endfacet
facet normal -9.55083063243502e-13 1.0 -2.66195360861724e-14
outer loop
vertex -38.5332495001759 690.726100136837 10.004325573323
vertex -47.9638476009481 690.726100136828 17.8792887554897
vertex -37.9638476009503 690.726100136838 10.0792887554869
endloop
endfacet
facet normal -9.55083063243502e-13 1.0 -2.66195360861724e-14
outer loop
vertex -37.9638476009503 690.726100136838 10.0792887554869
vertex -47.9638476009481 690.726100136828 17.8792887554897
vertex -27.9638476009483 690.726100136848 17.8792887554841
endloop
endfacet
facet normal -9.55083063243502e-13 1.0 -2.66195360861724e-14
outer loop
vertex -27.9638476009546 690.726100136847 -5.12071124451595
vertex -36.0585917126255 690.726100136839 6.77928875548634
vertex -27.9638476009483 690.726100136848 17.8792887554841
endloop
endfacet
facet normal -9.55083063243502e-13 1.0 -2.66195360861724e-14
outer loop
vertex -36.0585917126255 690.726100136839 6.77928875548634
vertex -27.9638476009546 690.726100136847 -5.12071124451595
vertex -36.408212682341 690.726100136839 6.32365383687603
endloop
endfacet
facet normal -9.55083063243502e-13 1.0 -2.66195360861724e-14
outer loop
vertex -36.408212682341 690.726100136839 6.32365383687603
vertex -27.9638476009546 690.726100136847 -5.12071124451595
vertex -47.9638476009546 690.726100136828 -5.12071124451034
endloop
endfacet
facet normal -9.55083063243502e-13 1.0 -2.66195360861724e-14
outer loop
vertex -36.408212682341 690.726100136839 6.32365383687603
vertex -47.9638476009546 690.726100136828 -5.12071124451034
vertex -36.8638476009515 690.726100136839 5.9740328671608
endloop
endfacet
facet normal -9.55083063243502e-13 1.0 -2.66195360861724e-14
outer loop
vertex -36.8638476009515 690.726100136839 5.9740328671608
vertex -47.9638476009546 690.726100136828 -5.12071124451034
vertex -37.394445701726 690.726100136838 5.75425193765076
endloop
endfacet
facet normal -9.55083063243502e-13 1.0 -2.66195360861724e-14
outer loop
vertex -37.394445701726 690.726100136838 5.75425193765076
vertex -47.9638476009546 690.726100136828 -5.12071124451034
vertex -37.9638476009516 690.726100136838 5.67928875548687
endloop
endfacet
facet normal -9.55083063243502e-13 1.0 -2.66195360861724e-14
outer loop
vertex -27.9638476009483 690.726100136848 17.8792887554841
vertex -36.0585917126255 690.726100136839 6.77928875548634
vertex -35.8388107831152 690.72610013684 7.30988685626073
endloop
endfacet
facet normal -9.55083063243502e-13 1.0 -2.66195360861724e-14
outer loop
vertex -27.9638476009483 690.726100136848 17.8792887554841
vertex -35.8388107831152 690.72610013684 7.30988685626073
vertex -35.763847600951 690.72610013684 7.87928875548626
endloop
endfacet
facet normal -9.55083063243502e-13 1.0 -2.66195360861724e-14
outer loop
vertex -27.9638476009483 690.726100136848 17.8792887554841
vertex -35.763847600951 690.72610013684 7.87928875548626
vertex -35.8388107831148 690.72610013684 8.44869065471183
endloop
endfacet
facet normal -9.55083063243502e-13 1.0 -2.66195360861724e-14
outer loop
vertex -27.9638476009483 690.726100136848 17.8792887554841
vertex -35.8388107831148 690.72610013684 8.44869065471183
vertex -36.0585917126249 690.726100136839 8.97928875548634
endloop
endfacet
facet normal -9.55083063243502e-13 1.0 -2.66195360861724e-14
outer loop
vertex -27.9638476009483 690.726100136848 17.8792887554841
vertex -36.0585917126249 690.726100136839 8.97928875548634
vertex -36.4082126823401 690.726100136839 9.43492367409684
endloop
endfacet
facet normal -9.55083063243502e-13 1.0 -2.66195360861724e-14
outer loop
vertex -27.9638476009483 690.726100136848 17.8792887554841
vertex -36.4082126823401 690.726100136839 9.43492367409684
vertex -36.8638476009504 690.726100136839 9.78454464381233
endloop
endfacet
facet normal -9.55083063243502e-13 1.0 -2.66195360861724e-14
outer loop
vertex -27.9638476009483 690.726100136848 17.8792887554841
vertex -36.8638476009504 690.726100136839 9.78454464381233
vertex -37.3944457017248 690.726100136838 10.0043255733227
endloop
endfacet
facet normal -9.55083063243502e-13 1.0 -2.66195360861724e-14
outer loop
vertex -27.9638476009483 690.726100136848 17.8792887554841
vertex -37.3944457017248 690.726100136838 10.0043255733227
vertex -37.9638476009503 690.726100136838 10.0792887554869
endloop
endfacet
facet normal -2.80264253382705e-13 -2.70486614207409e-14 -1.0
outer loop
vertex -47.9638476009546 690.726100136828 -5.12071124451034
vertex -39.869103489269 678.826100136836 -5.12071124451227
vertex -47.9638476009325 667.726100136828 -5.12071124450972
endloop
endfacet
facet normal -2.80264253382705e-13 -2.70486614207409e-14 -1.0
outer loop
vertex -39.869103489269 678.826100136836 -5.12071124451227
vertex -47.9638476009546 690.726100136828 -5.12071124451034
vertex -39.519482519554 679.281735055447 -5.12071124451238
endloop
endfacet
facet normal -2.80264253382705e-13 -2.70486614207409e-14 -1.0
outer loop
vertex -39.519482519554 679.281735055447 -5.12071124451238
vertex -47.9638476009546 690.726100136828 -5.12071124451034
vertex -27.9638476009546 690.726100136847 -5.12071124451595
endloop
endfacet
facet normal -2.80264253382705e-13 -2.70486614207409e-14 -1.0
outer loop
vertex -47.9638476009325 667.726100136828 -5.12071124450972
vertex -39.869103489269 678.826100136836 -5.12071124451227
vertex -40.0888844187787 678.295502036061 -5.12071124451219
endloop
endfacet
facet normal -2.80264253382705e-13 -2.70486614207409e-14 -1.0
outer loop
vertex -47.9638476009325 667.726100136828 -5.12071124450972
vertex -40.0888844187787 678.295502036061 -5.12071124451219
vertex -40.1638476009422 677.726100136836 -5.12071124451215
endloop
endfacet
facet normal -2.80264253382705e-13 -2.70486614207409e-14 -1.0
outer loop
vertex -39.519482519554 679.281735055447 -5.12071124451238
vertex -27.9638476009546 690.726100136847 -5.12071124451595
vertex -39.063847600944 679.631356025162 -5.12071124451251
endloop
endfacet
facet normal -2.80264253382705e-13 -2.70486614207409e-14 -1.0
outer loop
vertex -39.063847600944 679.631356025162 -5.12071124451251
vertex -27.9638476009546 690.726100136847 -5.12071124451595
vertex -38.5332495001697 679.851136954673 -5.12071124451267
endloop
endfacet
facet normal -2.80264253382705e-13 -2.70486614207409e-14 -1.0
outer loop
vertex -38.5332495001697 679.851136954673 -5.12071124451267
vertex -27.9638476009546 690.726100136847 -5.12071124451595
vertex -37.9638476009442 679.926100136838 -5.12071124451283
endloop
endfacet
facet normal -2.80264253382705e-13 -2.70486614207409e-14 -1.0
outer loop
vertex -37.9638476009442 679.926100136838 -5.12071124451283
vertex -27.9638476009546 690.726100136847 -5.12071124451595
vertex -37.3944457017186 679.851136954674 -5.12071124451299
endloop
endfacet
facet normal -2.80264253382705e-13 -2.70486614207409e-14 -1.0
outer loop
vertex -37.3944457017186 679.851136954674 -5.12071124451299
vertex -27.9638476009546 690.726100136847 -5.12071124451595
vertex -36.863847600944 679.631356025164 -5.12071124451313
endloop
endfacet
facet normal -2.80264253382705e-13 -2.70486614207409e-14 -1.0
outer loop
vertex -36.863847600944 679.631356025164 -5.12071124451313
vertex -27.9638476009546 690.726100136847 -5.12071124451595
vertex -36.4082126823332 679.28173505545 -5.12071124451325
endloop
endfacet
facet normal -2.80264253382705e-13 -2.70486614207409e-14 -1.0
outer loop
vertex -36.4082126823332 679.28173505545 -5.12071124451325
vertex -27.9638476009546 690.726100136847 -5.12071124451595
vertex -36.0585917126174 678.82610013684 -5.12071124451333
endloop
endfacet
facet normal -2.80264253382705e-13 -2.70486614207409e-14 -1.0
outer loop
vertex -36.0585917126174 678.82610013684 -5.12071124451333
vertex -27.9638476009546 690.726100136847 -5.12071124451595
vertex -35.8388107831068 678.295502036065 -5.12071124451338
endloop
endfacet
facet normal -2.80264253382705e-13 -2.70486614207409e-14 -1.0
outer loop
vertex -35.8388107831068 678.295502036065 -5.12071124451338
vertex -27.9638476009546 690.726100136847 -5.12071124451595
vertex -35.7638476009422 677.72610013684 -5.12071124451339
endloop
endfacet
facet normal -2.80264253382705e-13 -2.70486614207409e-14 -1.0
outer loop
vertex -47.9638476009325 667.726100136828 -5.12071124450972
vertex -39.0638476009404 675.820844248511 -5.12071124451241
vertex -27.9638476009327 667.726100136847 -5.12071124451532
endloop
endfacet
facet normal -2.80264253382705e-13 -2.70486614207409e-14 -1.0
outer loop
vertex -39.0638476009404 675.820844248511 -5.12071124451241
vertex -47.9638476009325 667.726100136828 -5.12071124450972
vertex -39.5194825195511 676.170465218226 -5.12071124451229
endloop
endfacet
facet normal -2.80264253382705e-13 -2.70486614207409e-14 -1.0
outer loop
vertex -39.5194825195511 676.170465218226 -5.12071124451229
vertex -47.9638476009325 667.726100136828 -5.12071124450972
vertex -39.8691034892669 676.626100136836 -5.12071124451221
endloop
endfacet
facet normal -2.80264253382705e-13 -2.70486614207409e-14 -1.0
outer loop
vertex -39.8691034892669 676.626100136836 -5.12071124451221
vertex -47.9638476009325 667.726100136828 -5.12071124450972
vertex -40.0888844187776 677.15669823761 -5.12071124451216
endloop
endfacet
facet normal -2.80264253382705e-13 -2.70486614207409e-14 -1.0
outer loop
vertex -40.0888844187776 677.15669823761 -5.12071124451216
vertex -47.9638476009325 667.726100136828 -5.12071124450972
vertex -40.1638476009422 677.726100136836 -5.12071124451215
endloop
endfacet
facet normal -2.80264253382705e-13 -2.70486614207409e-14 -1.0
outer loop
vertex -27.9638476009327 667.726100136847 -5.12071124451532
vertex -39.0638476009404 675.820844248511 -5.12071124451241
vertex -38.5332495001657 675.601063319001 -5.12071124451256
endloop
endfacet
facet normal -2.80264253382705e-13 -2.70486614207409e-14 -1.0
outer loop
vertex -27.9638476009327 667.726100136847 -5.12071124451532
vertex -38.5332495001657 675.601063319001 -5.12071124451256
vertex -37.9638476009401 675.526100136838 -5.12071124451271
endloop
endfacet
facet normal -2.80264253382705e-13 -2.70486614207409e-14 -1.0
outer loop
vertex -27.9638476009327 667.726100136847 -5.12071124451532
vertex -37.9638476009401 675.526100136838 -5.12071124451271
vertex -37.3944457017146 675.601063319002 -5.12071124451288
endloop
endfacet
facet normal -2.80264253382705e-13 -2.70486614207409e-14 -1.0
outer loop
vertex -27.9638476009327 667.726100136847 -5.12071124451532
vertex -37.3944457017146 675.601063319002 -5.12071124451288
vertex -36.8638476009404 675.820844248513 -5.12071124451303
endloop
endfacet
facet normal -2.80264253382705e-13 -2.70486614207409e-14 -1.0
outer loop
vertex -27.9638476009327 667.726100136847 -5.12071124451532
vertex -36.8638476009404 675.820844248513 -5.12071124451303
vertex -36.4082126823303 676.170465218229 -5.12071124451317
endloop
endfacet
facet normal -2.80264253382705e-13 -2.70486614207409e-14 -1.0
outer loop
vertex -27.9638476009327 667.726100136847 -5.12071124451532
vertex -36.4082126823303 676.170465218229 -5.12071124451317
vertex -36.0585917126154 676.626100136839 -5.12071124451328
endloop
endfacet
facet normal -2.80264253382705e-13 -2.70486614207409e-14 -1.0
outer loop
vertex -27.9638476009327 667.726100136847 -5.12071124451532
vertex -36.0585917126154 676.626100136839 -5.12071124451328
vertex -35.8388107831057 677.156698237614 -5.12071124451335
endloop
endfacet
facet normal -2.80264253382705e-13 -2.70486614207409e-14 -1.0
outer loop
vertex -27.9638476009327 667.726100136847 -5.12071124451532
vertex -35.8388107831057 677.156698237614 -5.12071124451335
vertex -35.7638476009422 677.72610013684 -5.12071124451339
endloop
endfacet
facet normal -2.80264253382705e-13 -2.70486614207409e-14 -1.0
outer loop
vertex -27.9638476009327 667.726100136847 -5.12071124451532
vertex -35.7638476009422 677.72610013684 -5.12071124451339
vertex -27.9638476009546 690.726100136847 -5.12071124451595
endloop
endfacet
endsolid K02.2
