solid Tube Joint
facet normal 0.707106781186548 -4.98566668676554e-16 -0.707106781186548
outer loop
vertex -25.4384393859655 -15.5406140959492 24.0
vertex -18.0845288616254 -35.5406140959492 31.3539105243402
vertex -25.4384393859655 -35.5406140959492 24.0
endloop
endfacet
facet normal 0.707106781186548 -4.98566668676554e-16 -0.707106781186548
outer loop
vertex -18.0845288616254 -35.5406140959492 31.3539105243402
vertex -25.4384393859655 -15.5406140959492 24.0
vertex -18.0845288616253 -15.5406140959492 31.3539105243401
endloop
endfacet
facet normal 2.77274612008385e-15 1.0 5.89945982996554e-17
outer loop
vertex -36.4693051724756 -15.5406140959492 31.3539105243401
vertex -25.4384393859655 -15.5406140959492 24.0
vertex -29.1153946481355 -15.5406140959492 24.0
endloop
endfacet
facet normal 2.77274612008385e-15 1.0 5.89945982996554e-17
outer loop
vertex -25.4384393859655 -15.5406140959492 24.0
vertex -36.4693051724756 -15.5406140959492 31.3539105243401
vertex -30.034633463678 -15.5406140959492 30.4346717087976
endloop
endfacet
facet normal 2.77274612008385e-15 1.0 5.89945982996554e-17
outer loop
vertex -30.034633463678 -15.5406140959492 30.4346717087976
vertex -36.4693051724756 -15.5406140959492 31.3539105243401
vertex -30.034633463678 -15.5406140959492 35.9501046020527
endloop
endfacet
facet normal 2.77274612008385e-15 1.0 5.89945982996554e-17
outer loop
vertex -30.034633463678 -15.5406140959492 35.9501046020527
vertex -36.4693051724756 -15.5406140959492 31.3539105243401
vertex -36.4693051724757 -15.5406140959492 35.0308657865102
endloop
endfacet
facet normal 2.77274612008385e-15 1.0 5.89945982996554e-17
outer loop
vertex -30.034633463678 -15.5406140959492 35.9501046020527
vertex -36.4693051724757 -15.5406140959492 35.0308657865102
vertex -29.1153946481355 -15.5406140959492 42.3847763108502
endloop
endfacet
facet normal 2.77274612008385e-15 1.0 5.89945982996554e-17
outer loop
vertex -30.034633463678 -15.5406140959492 35.9501046020527
vertex -29.1153946481355 -15.5406140959492 42.3847763108502
vertex -24.5192005704229 -15.5406140959492 35.9501046020527
endloop
endfacet
facet normal 2.77274612008385e-15 1.0 5.89945982996554e-17
outer loop
vertex -25.4384393859655 -15.5406140959492 24.0
vertex -24.5192005704229 -15.5406140959492 30.4346717087976
vertex -18.0845288616253 -15.5406140959492 31.3539105243401
endloop
endfacet
facet normal 2.77274612008385e-15 1.0 5.89945982996554e-17
outer loop
vertex -24.5192005704229 -15.5406140959492 30.4346717087976
vertex -25.4384393859655 -15.5406140959492 24.0
vertex -30.034633463678 -15.5406140959492 30.4346717087976
endloop
endfacet
facet normal 2.77274612008385e-15 1.0 5.89945982996554e-17
outer loop
vertex -18.0845288616253 -15.5406140959492 31.3539105243401
vertex -24.5192005704229 -15.5406140959492 30.4346717087976
vertex -24.5192005704229 -15.5406140959492 35.9501046020527
endloop
endfacet
facet normal 2.77274612008385e-15 1.0 5.89945982996554e-17
outer loop
vertex -18.0845288616253 -15.5406140959492 31.3539105243401
vertex -24.5192005704229 -15.5406140959492 35.9501046020527
vertex -18.0845288616254 -15.5406140959492 35.0308657865101
endloop
endfacet
facet normal 2.77274612008385e-15 1.0 5.89945982996554e-17
outer loop
vertex -18.0845288616254 -15.5406140959492 35.0308657865101
vertex -24.5192005704229 -15.5406140959492 35.9501046020527
vertex -25.4384393859655 -15.5406140959492 42.3847763108502
endloop
endfacet
facet normal 2.77274612008385e-15 1.0 5.89945982996554e-17
outer loop
vertex -25.4384393859655 -15.5406140959492 42.3847763108502
vertex -24.5192005704229 -15.5406140959492 35.9501046020527
vertex -29.1153946481355 -15.5406140959492 42.3847763108502
endloop
endfacet
facet normal -1.0 -1.84063146694931e-14 0.0
outer loop
vertex -36.4693051724756 -46.8945246202893 20.0
vertex -36.4693051724755 -50.5714798824593 0.0
vertex -36.4693051724755 -50.5714798824593 20.0
endloop
endfacet
facet normal -1.0 -1.84063146694931e-14 0.0
outer loop
vertex -36.4693051724755 -50.5714798824593 0.0
vertex -36.4693051724756 -46.8945246202893 20.0
vertex -36.4693051724756 -46.8945246202893 0.0
endloop
endfacet
facet normal 1.01795139000661e-15 -1.0 5.63012039176589e-15
outer loop
vertex -30.034633463678 -45.9752858047468 30.4346717087976
vertex -49.2193051724756 -45.9752858047468 33.4965338872763
vertex -47.9693051724756 -45.9752858047469 30.4346717087975
endloop
endfacet
facet normal 1.01795139000661e-15 -1.0 5.63012039176589e-15
outer loop
vertex -49.2193051724756 -45.9752858047468 33.4965338872763
vertex -30.034633463678 -45.9752858047468 30.4346717087976
vertex -30.034633463678 -45.9752858047468 35.9501046020526
endloop
endfacet
facet normal 1.01795139000661e-15 -1.0 5.63012039176589e-15
outer loop
vertex -49.2193051724756 -45.9752858047468 33.4965338872763
vertex -30.034633463678 -45.9752858047468 35.9501046020526
vertex -51.7193051724756 -45.9752858047468 33.4965338872763
endloop
endfacet
facet normal 1.01795139000661e-15 -1.0 5.63012039176589e-15
outer loop
vertex -51.7193051724756 -45.9752858047468 33.4965338872763
vertex -60.4693051724756 -45.9752858047468 30.4346717087976
vertex -52.9693051724756 -45.9752858047469 30.4346717087975
endloop
endfacet
facet normal 1.01795139000661e-15 -1.0 5.63012039176589e-15
outer loop
vertex -60.4693051724756 -45.9752858047468 30.4346717087976
vertex -51.7193051724756 -45.9752858047468 33.4965338872763
vertex -60.4693051724756 -45.9752858047468 35.9501046020527
endloop
endfacet
facet normal 1.01795139000661e-15 -1.0 5.63012039176589e-15
outer loop
vertex -60.4693051724756 -45.9752858047468 35.9501046020527
vertex -51.7193051724756 -45.9752858047468 33.4965338872763
vertex -30.034633463678 -45.9752858047468 35.9501046020526
endloop
endfacet
facet normal 0.707106781186549 -7.34656316397311e-16 0.707106781186546
outer loop
vertex -14.0845288616254 -59.9253904067994 40.3847763108501
vertex -16.0845288616254 -35.5406140959492 42.3847763108501
vertex -16.0845288616254 -59.9253904067995 42.3847763108501
endloop
endfacet
facet normal 0.707106781186549 -7.34656316397311e-16 0.707106781186546
outer loop
vertex -16.0845288616254 -35.5406140959492 42.3847763108501
vertex -14.0845288616254 -59.9253904067994 40.3847763108501
vertex -14.0845288616254 -35.5406140959492 40.3847763108502
endloop
endfacet
facet normal 0.707106781186555 -0.70710678118654 4.98941284375753e-15
outer loop
vertex -14.0845288616254 -59.9253904067996 21.9999999999999
vertex -16.0845288616254 -61.9253904067994 40.3847763108502
vertex -16.0845288616254 -61.9253904067996 22.0
endloop
endfacet
facet normal 0.707106781186555 -0.70710678118654 4.98941284375753e-15
outer loop
vertex -16.0845288616254 -61.9253904067994 40.3847763108502
vertex -14.0845288616254 -59.9253904067996 21.9999999999999
vertex -14.0845288616254 -59.9253904067994 40.3847763108501
endloop
endfacet
facet normal -5.63993296509579e-16 -1.0 -3.06771911158209e-15
outer loop
vertex -40.4693051724756 -57.9253904067995 35.0308657865102
vertex -60.4693051724756 -57.9253904067995 31.3539105243401
vertex -40.4693051724756 -57.9253904067995 31.3539105243401
endloop
endfacet
facet normal -5.63993296509579e-16 -1.0 -3.06771911158209e-15
outer loop
vertex -60.4693051724756 -57.9253904067995 31.3539105243401
vertex -40.4693051724756 -57.9253904067995 35.0308657865102
vertex -60.4693051724756 -57.9253904067995 35.0308657865102
endloop
endfacet
facet normal 7.99289421211617e-16 0.707106781186548 0.707106781186547
outer loop
vertex -60.4693051724756 -46.8945246202893 42.3847763108502
vertex -40.4693051724756 -39.5406140959492 35.0308657865101
vertex -60.4693051724756 -39.5406140959492 35.0308657865101
endloop
endfacet
facet normal 7.99289421211617e-16 0.707106781186548 0.707106781186547
outer loop
vertex -40.4693051724756 -39.5406140959492 35.0308657865101
vertex -60.4693051724756 -46.8945246202893 42.3847763108502
vertex -40.4693051724756 -46.8945246202893 42.3847763108502
endloop
endfacet
facet normal -0.612372435695795 -0.612372435695795 -0.499999999999998
outer loop
vertex -28.2668665107116 -45.9752858047468 12.1650635094611
vertex -31.0245829573391 -41.4498024051529 9.99999999999998
vertex -26.4990995577453 -45.9752858047468 9.99999999999998
endloop
endfacet
facet normal -0.612372435695795 -0.612372435695795 -0.499999999999998
outer loop
vertex -31.0245829573391 -41.4498024051529 9.99999999999998
vertex -28.2668665107116 -45.9752858047468 12.1650635094611
vertex -31.9084664338223 -42.3336858816361 12.1650635094611
endloop
endfacet
facet normal 5.3856268802561e-16 3.52217083332366e-16 -1.0
outer loop
vertex -32.7923499103055 -43.2175693581192 12.1650635094611
vertex -30.034633463678 -47.7430527577131 12.1650635094611
vertex -33.6762333867887 -44.1014528346024 12.1650635094611
endloop
endfacet
facet normal 5.3856268802561e-16 3.52217083332366e-16 -1.0
outer loop
vertex -30.034633463678 -47.7430527577131 12.1650635094611
vertex -32.7923499103055 -43.2175693581192 12.1650635094611
vertex -30.034633463678 -45.9752858047468 12.1650635094611
endloop
endfacet
facet normal -1.0 9.09149220478532e-16 8.39047856159212e-16
outer loop
vertex -40.4693051724756 -50.5714798824594 42.3847763108501
vertex -40.4693051724756 -57.9253904067995 35.0308657865102
vertex -40.4693051724756 -59.9253904067995 42.3847763108501
endloop
endfacet
facet normal -1.0 9.09149220478532e-16 8.39047856159212e-16
outer loop
vertex -40.4693051724756 -35.5406140959492 42.3847763108502
vertex -40.4693051724756 -39.5406140959492 35.0308657865101
vertex -40.4693051724756 -46.8945246202893 42.3847763108502
endloop
endfacet
facet normal -1.0 9.09149220478532e-16 8.39047856159212e-16
outer loop
vertex -40.4693051724756 -39.5406140959492 35.0308657865101
vertex -40.4693051724756 -35.5406140959492 42.3847763108502
vertex -40.4693051724756 -39.5406140959492 31.3539105243401
endloop
endfacet
facet normal -1.0 9.09149220478532e-16 8.39047856159212e-16
outer loop
vertex -40.4693051724756 -61.9253904067995 40.3847763108502
vertex -40.4693051724756 -59.9253904067995 20.0
vertex -40.4693051724756 -61.9253904067995 22.0
endloop
endfacet
facet normal -1.0 9.09149220478532e-16 8.39047856159212e-16
outer loop
vertex -40.4693051724756 -59.9253904067995 20.0
vertex -40.4693051724756 -61.9253904067995 40.3847763108502
vertex -40.4693051724756 -59.9253904067995 42.3847763108501
endloop
endfacet
facet normal -1.0 9.09149220478532e-16 8.39047856159212e-16
outer loop
vertex -40.4693051724756 -59.9253904067995 20.0
vertex -40.4693051724756 -59.9253904067995 42.3847763108501
vertex -40.4693051724756 -57.9253904067995 31.3539105243401
endloop
endfacet
facet normal -1.0 9.09149220478532e-16 8.39047856159212e-16
outer loop
vertex -40.4693051724756 -59.9253904067995 20.0
vertex -40.4693051724756 -57.9253904067995 31.3539105243401
vertex -40.4693051724756 -50.5714798824594 24.0
endloop
endfacet
facet normal -1.0 9.09149220478532e-16 8.39047856159212e-16
outer loop
vertex -40.4693051724756 -59.9253904067995 20.0
vertex -40.4693051724756 -50.5714798824594 24.0
vertex -40.4693051724756 -35.5406140959492 20.0
endloop
endfacet
facet normal -1.0 9.09149220478532e-16 8.39047856159212e-16
outer loop
vertex -40.4693051724756 -57.9253904067995 31.3539105243401
vertex -40.4693051724756 -59.9253904067995 42.3847763108501
vertex -40.4693051724756 -57.9253904067995 35.0308657865102
endloop
endfacet
facet normal -1.0 9.09149220478532e-16 8.39047856159212e-16
outer loop
vertex -40.4693051724756 -35.5406140959492 20.0
vertex -40.4693051724756 -50.5714798824594 24.0
vertex -40.4693051724756 -46.8945246202893 24.0
endloop
endfacet
facet normal -1.0 9.09149220478532e-16 8.39047856159212e-16
outer loop
vertex -40.4693051724756 -35.5406140959492 20.0
vertex -40.4693051724756 -46.8945246202893 24.0
vertex -40.4693051724756 -39.5406140959492 31.3539105243401
endloop
endfacet
facet normal -1.0 9.09149220478532e-16 8.39047856159212e-16
outer loop
vertex -40.4693051724756 -35.5406140959492 20.0
vertex -40.4693051724756 -39.5406140959492 31.3539105243401
vertex -40.4693051724756 -35.5406140959492 42.3847763108502
endloop
endfacet
facet normal -0.612372435695795 -0.612372435695795 0.499999999999999
outer loop
vertex -28.2668665107116 -45.9752858047468 7.83493649053888
vertex -31.0245829573391 -41.4498024051529 9.99999999999998
vertex -31.9084664338223 -42.3336858816361 7.83493649053888
endloop
endfacet
facet normal -0.612372435695795 -0.612372435695795 0.499999999999999
outer loop
vertex -31.0245829573391 -41.4498024051529 9.99999999999998
vertex -28.2668665107116 -45.9752858047468 7.83493649053888
vertex -26.4990995577453 -45.9752858047468 9.99999999999998
endloop
endfacet
facet normal 1.0810434118422e-16 -3.24313023552663e-16 -1.0
outer loop
vertex -31.9084664338223 -42.3336858816361 12.1650635094611
vertex -30.034633463678 -45.9752858047468 12.1650635094611
vertex -32.7923499103055 -43.2175693581192 12.1650635094611
endloop
endfacet
facet normal 1.0810434118422e-16 -3.24313023552663e-16 -1.0
outer loop
vertex -30.034633463678 -45.9752858047468 12.1650635094611
vertex -31.9084664338223 -42.3336858816361 12.1650635094611
vertex -28.2668665107116 -45.9752858047468 12.1650635094611
endloop
endfacet
facet normal 0.612372435695795 0.612372435695794 0.5
outer loop
vertex -30.034633463678 -47.7430527577131 7.83493649053888
vertex -34.5601168632719 -44.9853363110856 9.99999999999998
vertex -30.034633463678 -49.5108197106795 9.99999999999998
endloop
endfacet
facet normal 0.612372435695795 0.612372435695794 0.5
outer loop
vertex -34.5601168632719 -44.9853363110856 9.99999999999998
vertex -30.034633463678 -47.7430527577131 7.83493649053888
vertex -33.6762333867887 -44.1014528346024 7.83493649053888
endloop
endfacet
facet normal 0.612372435695795 0.612372435695795 -0.499999999999999
outer loop
vertex -28.0547344763557 -51.4907186980018 9.99999999999999
vertex -22.6453676002786 -55.1323186211126 12.1650635094611
vertex -23.5292510767617 -56.0162020975958 9.99999999999999
endloop
endfacet
facet normal 0.612372435695795 0.612372435695795 -0.499999999999999
outer loop
vertex -22.6453676002786 -55.1323186211126 12.1650635094611
vertex -28.0547344763557 -51.4907186980018 9.99999999999999
vertex -26.2869675233893 -51.4907186980018 12.1650635094611
endloop
endfacet
facet normal -5.03570260889671e-16 1.04766776383997e-16 1.0
outer loop
vertex -22.6453676002786 -55.1323186211126 7.83493649053889
vertex -24.5192005704229 -51.4907186980018 7.83493649053888
vertex -26.2869675233893 -51.4907186980018 7.83493649053888
endloop
endfacet
facet normal -5.03570260889671e-16 1.04766776383997e-16 1.0
outer loop
vertex -24.5192005704229 -51.4907186980018 7.83493649053888
vertex -22.6453676002786 -55.1323186211126 7.83493649053889
vertex -24.5192005704229 -49.7229517450355 7.83493649053888
endloop
endfacet
facet normal -5.03570260889671e-16 1.04766776383997e-16 1.0
outer loop
vertex -24.5192005704229 -49.7229517450355 7.83493649053888
vertex -22.6453676002786 -55.1323186211126 7.83493649053889
vertex -20.8776006473122 -53.3645516681462 7.83493649053889
endloop
endfacet
facet normal 6.13543822316428e-15 5.63993296509574e-16 -1.0
outer loop
vertex -29.1153946481355 -15.5406140959492 24.0
vertex -25.4384393859655 -35.5406140959492 24.0
vertex -29.1153946481355 -35.5406140959492 24.0
endloop
endfacet
facet normal 6.13543822316428e-15 5.63993296509574e-16 -1.0
outer loop
vertex -25.4384393859655 -35.5406140959492 24.0
vertex -29.1153946481355 -15.5406140959492 24.0
vertex -25.4384393859655 -15.5406140959492 24.0
endloop
endfacet
facet normal 0.707106781186548 0.707106781186547 0.0
outer loop
vertex -25.4384393859655 -39.5406140959492 0.0
vertex -18.0845288616254 -46.8945246202893 20.0
vertex -18.0845288616254 -46.8945246202893 0.0
endloop
endfacet
facet normal 0.707106781186548 0.707106781186547 0.0
outer loop
vertex -18.0845288616254 -46.8945246202893 20.0
vertex -25.4384393859655 -39.5406140959492 0.0
vertex -25.4384393859655 -39.5406140959492 20.0
endloop
endfacet
facet normal 1.53385955579108e-15 -1.0 -1.31473676210664e-15
outer loop
vertex -24.5192005704229 -45.9752858047468 42.3847763108502
vertex -30.034633463678 -45.9752858047468 35.9501046020526
vertex -24.519200570423 -45.9752858047468 35.9501046020526
endloop
endfacet
facet normal 1.53385955579108e-15 -1.0 -1.31473676210664e-15
outer loop
vertex -30.034633463678 -45.9752858047468 35.9501046020526
vertex -24.5192005704229 -45.9752858047468 42.3847763108502
vertex -30.034633463678 -45.9752858047468 42.3847763108502
endloop
endfacet
facet normal -0.707106781186546 -2.84895239243742e-15 0.70710678118655
outer loop
vertex -20.230553034556 -26.7906140959492 37.1768899594407
vertex -24.5192005704229 -24.2906140959492 32.8882424235737
vertex -24.5192005704229 -26.7906140959492 32.8882424235737
endloop
endfacet
facet normal -0.707106781186546 -2.84895239243742e-15 0.70710678118655
outer loop
vertex -24.5192005704229 -24.2906140959492 32.8882424235737
vertex -20.230553034556 -26.7906140959492 37.1768899594407
vertex -20.230553034556 -24.2906140959492 37.1768899594407
endloop
endfacet
facet normal 1.64606138229721e-15 -0.707106781186555 -0.70710678118654
outer loop
vertex -49.2193051724756 -52.7175040553899 40.2387521379196
vertex -51.7193051724756 -48.428856519523 35.9501046020526
vertex -49.2193051724756 -48.428856519523 35.9501046020526
endloop
endfacet
facet normal 1.64606138229721e-15 -0.707106781186555 -0.70710678118654
outer loop
vertex -51.7193051724756 -48.428856519523 35.9501046020526
vertex -49.2193051724756 -52.7175040553899 40.2387521379196
vertex -51.7193051724756 -52.7175040553899 40.2387521379196
endloop
endfacet
facet normal 1.0 -1.43531114879005e-16 6.73922132215283e-15
outer loop
vertex -30.034633463678 -28.0406140959492 30.4346717087976
vertex -30.034633463678 -45.9752858047468 35.9501046020526
vertex -30.034633463678 -45.9752858047468 30.4346717087976
endloop
endfacet
facet normal 1.0 -1.43531114879005e-16 6.73922132215283e-15
outer loop
vertex -30.034633463678 -45.9752858047468 35.9501046020526
vertex -30.034633463678 -28.0406140959492 30.4346717087976
vertex -30.034633463678 -26.7906140959492 33.4965338872766
endloop
endfacet
facet normal 1.0 -1.43531114879005e-16 6.73922132215283e-15
outer loop
vertex -30.034633463678 -45.9752858047468 35.9501046020526
vertex -30.034633463678 -26.7906140959492 33.4965338872766
vertex -30.034633463678 -15.5406140959492 35.9501046020527
endloop
endfacet
facet normal 1.0 -1.43531114879005e-16 6.73922132215283e-15
outer loop
vertex -30.034633463678 -15.5406140959492 35.9501046020527
vertex -30.034633463678 -26.7906140959492 33.4965338872766
vertex -30.034633463678 -24.2906140959492 33.4965338872766
endloop
endfacet
facet normal 1.0 -1.43531114879005e-16 6.73922132215283e-15
outer loop
vertex -30.034633463678 -15.5406140959492 35.9501046020527
vertex -30.034633463678 -24.2906140959492 33.4965338872766
vertex -30.034633463678 -23.0406140959492 30.4346717087976
endloop
endfacet
facet normal 1.0 -1.43531114879005e-16 6.73922132215283e-15
outer loop
vertex -30.034633463678 -15.5406140959492 35.9501046020527
vertex -30.034633463678 -23.0406140959492 30.4346717087976
vertex -30.034633463678 -15.5406140959492 30.4346717087976
endloop
endfacet
facet normal 1.0 0.0 0.0
outer loop
vertex -30.034633463678 -51.4907186980018 35.9501046020526
vertex -30.034633463678 -45.9752858047468 42.3847763108502
vertex -30.034633463678 -51.4907186980019 42.3847763108502
endloop
endfacet
facet normal 1.0 0.0 0.0
outer loop
vertex -30.034633463678 -45.9752858047468 42.3847763108502
vertex -30.034633463678 -51.4907186980018 35.9501046020526
vertex -30.034633463678 -45.9752858047468 35.9501046020526
endloop
endfacet
facet normal -9.20315733474671e-15 1.0 0.0
outer loop
vertex -29.1153946481354 -39.5406140959492 20.0
vertex -25.4384393859655 -39.5406140959492 0.0
vertex -29.1153946481354 -39.5406140959492 0.0
endloop
endfacet
facet normal -9.20315733474671e-15 1.0 0.0
outer loop
vertex -25.4384393859655 -39.5406140959492 0.0
vertex -29.1153946481354 -39.5406140959492 20.0
vertex -25.4384393859655 -39.5406140959492 20.0
endloop
endfacet
facet normal 0.353553390593272 -0.866025403784438 -0.353553390593277
outer loop
vertex -24.5192005704229 -23.0406140959492 35.9501046020527
vertex -23.2924152130349 -24.2906140959492 40.2387521379196
vertex -27.5810627489019 -24.2906140959492 35.9501046020527
endloop
endfacet
facet normal 0.353553390593272 -0.866025403784438 -0.353553390593277
outer loop
vertex -23.2924152130349 -24.2906140959492 40.2387521379196
vertex -24.5192005704229 -23.0406140959492 35.9501046020527
vertex -21.7614841237954 -23.0406140959492 38.7078210486801
endloop
endfacet
facet normal -3.38721957847668e-16 2.62728435988791e-16 1.0
outer loop
vertex -60.4693051724756 -51.4907186980018 30.4346717087976
vertex -51.7193051724756 -49.037147983226 30.4346717087975
vertex -60.4693051724756 -45.9752858047468 30.4346717087976
endloop
endfacet
facet normal -3.38721957847668e-16 2.62728435988791e-16 1.0
outer loop
vertex -51.7193051724756 -49.037147983226 30.4346717087975
vertex -60.4693051724756 -51.4907186980018 30.4346717087976
vertex -30.034633463678 -51.4907186980018 30.4346717087976
endloop
endfacet
facet normal -3.38721957847668e-16 2.62728435988791e-16 1.0
outer loop
vertex -60.4693051724756 -45.9752858047468 30.4346717087976
vertex -51.7193051724756 -49.037147983226 30.4346717087975
vertex -52.9693051724756 -45.9752858047469 30.4346717087975
endloop
endfacet
facet normal -3.38721957847668e-16 2.62728435988791e-16 1.0
outer loop
vertex -51.7193051724756 -49.037147983226 30.4346717087975
vertex -30.034633463678 -51.4907186980018 30.4346717087976
vertex -49.2193051724756 -49.037147983226 30.4346717087975
endloop
endfacet
facet normal -3.38721957847668e-16 2.62728435988791e-16 1.0
outer loop
vertex -49.2193051724756 -49.037147983226 30.4346717087975
vertex -30.034633463678 -51.4907186980018 30.4346717087976
vertex -47.9693051724756 -45.9752858047469 30.4346717087975
endloop
endfacet
facet normal -3.38721957847668e-16 2.62728435988791e-16 1.0
outer loop
vertex -47.9693051724756 -45.9752858047469 30.4346717087975
vertex -30.034633463678 -51.4907186980018 30.4346717087976
vertex -30.034633463678 -45.9752858047468 30.4346717087976
endloop
endfacet
facet normal 0.866025403784434 -0.353553390593287 -0.353553390593273
outer loop
vertex -52.9693051724756 -43.2175693581195 27.6769552621699
vertex -51.7193051724756 -45.9752858047468 33.4965338872763
vertex -52.9693051724756 -45.9752858047469 30.4346717087975
endloop
endfacet
facet normal 0.866025403784434 -0.353553390593287 -0.353553390593273
outer loop
vertex -51.7193051724756 -45.9752858047468 33.4965338872763
vertex -52.9693051724756 -43.2175693581195 27.6769552621699
vertex -51.7193051724756 -41.6866382688799 29.2078863514094
endloop
endfacet
facet normal -0.866025403784437 -0.353553390593279 -0.353553390593274
outer loop
vertex -49.2193051724756 -52.7175040553899 40.2387521379196
vertex -47.9693051724756 -51.4907186980019 35.9501046020526
vertex -47.9693051724756 -54.2484351446294 38.7078210486802
endloop
endfacet
facet normal -0.866025403784437 -0.353553390593279 -0.353553390593274
outer loop
vertex -47.9693051724756 -51.4907186980019 35.9501046020526
vertex -49.2193051724756 -52.7175040553899 40.2387521379196
vertex -49.2193051724756 -48.428856519523 35.9501046020526
endloop
endfacet
facet normal 0.707106781186543 9.39614781479166e-16 -0.707106781186552
outer loop
vertex -14.0845288616254 -35.5406140959492 22.0
vertex -16.0845288616254 -59.9253904067996 20.0
vertex -16.0845288616254 -35.5406140959492 20.0
endloop
endfacet
facet normal 0.707106781186543 9.39614781479166e-16 -0.707106781186552
outer loop
vertex -16.0845288616254 -59.9253904067996 20.0
vertex -14.0845288616254 -35.5406140959492 22.0
vertex -14.0845288616254 -59.9253904067996 21.9999999999999
endloop
endfacet
facet normal 1.15411151351135e-16 4.80929889124457e-15 -1.0
outer loop
vertex -60.4693051724756 -45.9752858047468 35.9501046020527
vertex -51.7193051724756 -48.428856519523 35.9501046020526
vertex -60.4693051724756 -51.4907186980019 35.9501046020526
endloop
endfacet
facet normal 1.15411151351135e-16 4.80929889124457e-15 -1.0
outer loop
vertex -51.7193051724756 -48.428856519523 35.9501046020526
vertex -60.4693051724756 -45.9752858047468 35.9501046020527
vertex -30.034633463678 -45.9752858047468 35.9501046020526
endloop
endfacet
facet normal 1.15411151351135e-16 4.80929889124457e-15 -1.0
outer loop
vertex -60.4693051724756 -51.4907186980019 35.9501046020526
vertex -51.7193051724756 -48.428856519523 35.9501046020526
vertex -52.9693051724756 -51.4907186980019 35.9501046020526
endloop
endfacet
facet normal 1.15411151351135e-16 4.80929889124457e-15 -1.0
outer loop
vertex -51.7193051724756 -48.428856519523 35.9501046020526
vertex -30.034633463678 -45.9752858047468 35.9501046020526
vertex -49.2193051724756 -48.428856519523 35.9501046020526
endloop
endfacet
facet normal 1.15411151351135e-16 4.80929889124457e-15 -1.0
outer loop
vertex -49.2193051724756 -48.428856519523 35.9501046020526
vertex -30.034633463678 -45.9752858047468 35.9501046020526
vertex -47.9693051724756 -51.4907186980019 35.9501046020526
endloop
endfacet
facet normal 1.15411151351135e-16 4.80929889124457e-15 -1.0
outer loop
vertex -47.9693051724756 -51.4907186980019 35.9501046020526
vertex -30.034633463678 -45.9752858047468 35.9501046020526
vertex -30.034633463678 -51.4907186980018 35.9501046020526
endloop
endfacet
facet normal -0.866025403784441 0.353553390593275 0.353553390593266
outer loop
vertex -47.9693051724756 -54.2484351446294 38.7078210486802
vertex -49.2193051724756 -51.4907186980019 32.8882424235735
vertex -49.2193051724756 -55.7793662338689 37.1768899594407
endloop
endfacet
facet normal -0.866025403784441 0.353553390593275 0.353553390593266
outer loop
vertex -49.2193051724756 -51.4907186980019 32.8882424235735
vertex -47.9693051724756 -54.2484351446294 38.7078210486802
vertex -47.9693051724756 -51.4907186980019 35.9501046020526
endloop
endfacet
facet normal 3.06771911158209e-15 -1.0 0.0
outer loop
vertex -25.4384393859654 -57.9253904067994 20.0
vertex -29.1153946481355 -57.9253904067994 0.0
vertex -25.4384393859654 -57.9253904067994 0.0
endloop
endfacet
facet normal 3.06771911158209e-15 -1.0 0.0
outer loop
vertex -29.1153946481355 -57.9253904067994 0.0
vertex -25.4384393859654 -57.9253904067994 20.0
vertex -29.1153946481355 -57.9253904067994 20.0
endloop
endfacet
facet normal 6.33100531652436e-17 0.707106781186557 0.707106781186538
outer loop
vertex -51.7193051724756 -49.037147983226 30.4346717087975
vertex -49.2193051724756 -44.748500447359 26.1460241729304
vertex -51.7193051724756 -44.748500447359 26.1460241729304
endloop
endfacet
facet normal 6.33100531652436e-17 0.707106781186557 0.707106781186538
outer loop
vertex -49.2193051724756 -44.748500447359 26.1460241729304
vertex -51.7193051724756 -49.037147983226 30.4346717087975
vertex -49.2193051724756 -49.037147983226 30.4346717087975
endloop
endfacet
facet normal -1.53385955579109e-14 -2.2559731860383e-15 1.0
outer loop
vertex -25.4384393859655 -35.5406140959492 42.3847763108502
vertex -29.1153946481355 -15.5406140959492 42.3847763108502
vertex -29.1153946481355 -35.5406140959492 42.3847763108501
endloop
endfacet
facet normal -1.53385955579109e-14 -2.2559731860383e-15 1.0
outer loop
vertex -29.1153946481355 -15.5406140959492 42.3847763108502
vertex -25.4384393859655 -35.5406140959492 42.3847763108502
vertex -25.4384393859655 -15.5406140959492 42.3847763108502
endloop
endfacet
facet normal -0.707106781186536 -7.99289421211617e-16 0.707106781186559
outer loop
vertex -36.4693051724757 -35.5406140959492 35.0308657865102
vertex -29.1153946481355 -15.5406140959492 42.3847763108502
vertex -36.4693051724757 -15.5406140959492 35.0308657865102
endloop
endfacet
facet normal -0.707106781186536 -7.99289421211617e-16 0.707106781186559
outer loop
vertex -29.1153946481355 -15.5406140959492 42.3847763108502
vertex -36.4693051724757 -35.5406140959492 35.0308657865102
vertex -29.1153946481355 -35.5406140959492 42.3847763108501
endloop
endfacet
facet normal 4.89770877598198e-16 -0.707106781186539 0.707106781186556
outer loop
vertex -16.0845288616254 -61.9253904067994 40.3847763108502
vertex -40.4693051724756 -59.9253904067995 42.3847763108501
vertex -40.4693051724756 -61.9253904067995 40.3847763108502
endloop
endfacet
facet normal 4.89770877598198e-16 -0.707106781186539 0.707106781186556
outer loop
vertex -40.4693051724756 -59.9253904067995 42.3847763108501
vertex -16.0845288616254 -61.9253904067994 40.3847763108502
vertex -16.0845288616254 -59.9253904067995 42.3847763108501
endloop
endfacet
facet normal -0.353553390593276 -0.866025403784436 0.353553390593277
outer loop
vertex -26.9727712851991 -24.2906140959492 30.4346717087976
vertex -32.7923499103056 -23.0406140959492 27.6769552621701
vertex -31.2614188210661 -24.2906140959492 26.1460241729306
endloop
endfacet
facet normal -0.353553390593276 -0.866025403784436 0.353553390593277
outer loop
vertex -32.7923499103056 -23.0406140959492 27.6769552621701
vertex -26.9727712851991 -24.2906140959492 30.4346717087976
vertex -30.034633463678 -23.0406140959492 30.4346717087976
endloop
endfacet
facet normal -0.707106781186545 -4.87487409372621e-15 0.70710678118655
outer loop
vertex -26.972771285199 -26.7906140959492 30.4346717087976
vertex -31.2614188210661 -24.2906140959492 26.1460241729306
vertex -31.2614188210661 -26.7906140959492 26.1460241729306
endloop
endfacet
facet normal -0.707106781186545 -4.87487409372621e-15 0.70710678118655
outer loop
vertex -31.2614188210661 -24.2906140959492 26.1460241729306
vertex -26.972771285199 -26.7906140959492 30.4346717087976
vertex -26.9727712851991 -24.2906140959492 30.4346717087976
endloop
endfacet
facet normal -0.353553390593273 0.866025403784437 0.353553390593279
outer loop
vertex -32.7923499103056 -28.0406140959492 27.6769552621701
vertex -26.972771285199 -26.7906140959492 30.4346717087976
vertex -31.2614188210661 -26.7906140959492 26.1460241729306
endloop
endfacet
facet normal -0.353553390593273 0.866025403784437 0.353553390593279
outer loop
vertex -26.972771285199 -26.7906140959492 30.4346717087976
vertex -32.7923499103056 -28.0406140959492 27.6769552621701
vertex -30.034633463678 -28.0406140959492 30.4346717087976
endloop
endfacet
facet normal 0.707106781186549 -2.1921105908477e-15 0.707106781186546
outer loop
vertex -18.0845288616254 -35.5406140959492 35.0308657865101
vertex -20.230553034556 -26.7906140959492 37.1768899594407
vertex -21.7614841237954 -28.0406140959492 38.7078210486801
endloop
endfacet
facet normal 0.707106781186549 -2.1921105908477e-15 0.707106781186546
outer loop
vertex -20.230553034556 -26.7906140959492 37.1768899594407
vertex -18.0845288616254 -35.5406140959492 35.0308657865101
vertex -18.0845288616254 -15.5406140959492 35.0308657865101
endloop
endfacet
facet normal 0.707106781186549 -2.1921105908477e-15 0.707106781186546
outer loop
vertex -20.230553034556 -26.7906140959492 37.1768899594407
vertex -18.0845288616254 -15.5406140959492 35.0308657865101
vertex -20.230553034556 -24.2906140959492 37.1768899594407
endloop
endfacet
facet normal 0.707106781186549 -2.1921105908477e-15 0.707106781186546
outer loop
vertex -20.230553034556 -24.2906140959492 37.1768899594407
vertex -18.0845288616254 -15.5406140959492 35.0308657865101
vertex -21.7614841237954 -23.0406140959492 38.7078210486801
endloop
endfacet
facet normal 0.707106781186549 -2.1921105908477e-15 0.707106781186546
outer loop
vertex -25.4384393859655 -35.5406140959492 42.3847763108502
vertex -23.2924152130349 -26.7906140959492 40.2387521379196
vertex -25.4384393859655 -15.5406140959492 42.3847763108502
endloop
endfacet
facet normal 0.707106781186549 -2.1921105908477e-15 0.707106781186546
outer loop
vertex -23.2924152130349 -26.7906140959492 40.2387521379196
vertex -25.4384393859655 -35.5406140959492 42.3847763108502
vertex -18.0845288616254 -35.5406140959492 35.0308657865101
endloop
endfacet
facet normal 0.707106781186549 -2.1921105908477e-15 0.707106781186546
outer loop
vertex -23.2924152130349 -26.7906140959492 40.2387521379196
vertex -18.0845288616254 -35.5406140959492 35.0308657865101
vertex -21.7614841237954 -28.0406140959492 38.7078210486801
endloop
endfacet
facet normal 0.707106781186549 -2.1921105908477e-15 0.707106781186546
outer loop
vertex -25.4384393859655 -15.5406140959492 42.3847763108502
vertex -23.2924152130349 -26.7906140959492 40.2387521379196
vertex -23.2924152130349 -24.2906140959492 40.2387521379196
endloop
endfacet
facet normal 0.707106781186549 -2.1921105908477e-15 0.707106781186546
outer loop
vertex -25.4384393859655 -15.5406140959492 42.3847763108502
vertex -23.2924152130349 -24.2906140959492 40.2387521379196
vertex -21.7614841237954 -23.0406140959492 38.7078210486801
endloop
endfacet
facet normal 0.707106781186549 -2.1921105908477e-15 0.707106781186546
outer loop
vertex -25.4384393859655 -15.5406140959492 42.3847763108502
vertex -21.7614841237954 -23.0406140959492 38.7078210486801
vertex -18.0845288616254 -15.5406140959492 35.0308657865101
endloop
endfacet
facet normal 1.0 -2.25597318603832e-15 7.66929777895557e-15
outer loop
vertex -18.0845288616254 -35.5406140959492 31.3539105243402
vertex -18.0845288616254 -15.5406140959492 35.0308657865101
vertex -18.0845288616254 -35.5406140959492 35.0308657865101
endloop
endfacet
facet normal 1.0 -2.25597318603832e-15 7.66929777895557e-15
outer loop
vertex -18.0845288616254 -15.5406140959492 35.0308657865101
vertex -18.0845288616254 -35.5406140959492 31.3539105243402
vertex -18.0845288616253 -15.5406140959492 31.3539105243401
endloop
endfacet
facet normal 4.455290691321e-16 -1.26710684430137e-15 1.0
outer loop
vertex -16.0845288616254 -59.9253904067995 42.3847763108501
vertex -40.4693051724756 -50.5714798824594 42.3847763108501
vertex -40.4693051724756 -59.9253904067995 42.3847763108501
endloop
endfacet
facet normal 4.455290691321e-16 -1.26710684430137e-15 1.0
outer loop
vertex -40.4693051724756 -50.5714798824594 42.3847763108501
vertex -16.0845288616254 -59.9253904067995 42.3847763108501
vertex -40.4693051724756 -46.8945246202893 42.3847763108502
endloop
endfacet
facet normal 4.455290691321e-16 -1.26710684430137e-15 1.0
outer loop
vertex -40.4693051724756 -46.8945246202893 42.3847763108502
vertex -16.0845288616254 -59.9253904067995 42.3847763108501
vertex -30.034633463678 -51.4907186980019 42.3847763108502
endloop
endfacet
facet normal 4.455290691321e-16 -1.26710684430137e-15 1.0
outer loop
vertex -40.4693051724756 -46.8945246202893 42.3847763108502
vertex -30.034633463678 -51.4907186980019 42.3847763108502
vertex -40.4693051724756 -35.5406140959492 42.3847763108502
endloop
endfacet
facet normal 4.455290691321e-16 -1.26710684430137e-15 1.0
outer loop
vertex -30.034633463678 -51.4907186980019 42.3847763108502
vertex -16.0845288616254 -59.9253904067995 42.3847763108501
vertex -24.5192005704229 -51.4907186980018 42.3847763108502
endloop
endfacet
facet normal 4.455290691321e-16 -1.26710684430137e-15 1.0
outer loop
vertex -40.4693051724756 -35.5406140959492 42.3847763108502
vertex -30.034633463678 -45.9752858047468 42.3847763108502
vertex -29.1153946481355 -35.5406140959492 42.3847763108501
endloop
endfacet
facet normal 4.455290691321e-16 -1.26710684430137e-15 1.0
outer loop
vertex -30.034633463678 -45.9752858047468 42.3847763108502
vertex -40.4693051724756 -35.5406140959492 42.3847763108502
vertex -30.034633463678 -51.4907186980019 42.3847763108502
endloop
endfacet
facet normal 4.455290691321e-16 -1.26710684430137e-15 1.0
outer loop
vertex -29.1153946481355 -35.5406140959492 42.3847763108501
vertex -30.034633463678 -45.9752858047468 42.3847763108502
vertex -24.5192005704229 -45.9752858047468 42.3847763108502
endloop
endfacet
facet normal 4.455290691321e-16 -1.26710684430137e-15 1.0
outer loop
vertex -29.1153946481355 -35.5406140959492 42.3847763108501
vertex -24.5192005704229 -45.9752858047468 42.3847763108502
vertex -25.4384393859655 -35.5406140959492 42.3847763108502
endloop
endfacet
facet normal 4.455290691321e-16 -1.26710684430137e-15 1.0
outer loop
vertex -25.4384393859655 -35.5406140959492 42.3847763108502
vertex -24.5192005704229 -45.9752858047468 42.3847763108502
vertex -16.0845288616254 -35.5406140959492 42.3847763108501
endloop
endfacet
facet normal 4.455290691321e-16 -1.26710684430137e-15 1.0
outer loop
vertex -16.0845288616254 -35.5406140959492 42.3847763108501
vertex -24.5192005704229 -45.9752858047468 42.3847763108502
vertex -24.5192005704229 -51.4907186980018 42.3847763108502
endloop
endfacet
facet normal 4.455290691321e-16 -1.26710684430137e-15 1.0
outer loop
vertex -16.0845288616254 -35.5406140959492 42.3847763108501
vertex -24.5192005704229 -51.4907186980018 42.3847763108502
vertex -16.0845288616254 -59.9253904067995 42.3847763108501
endloop
endfacet
facet normal -0.707106781186546 1.59066508577757e-15 -0.707106781186549
outer loop
vertex -29.1153946481355 -15.5406140959492 24.0
vertex -34.3232809995451 -24.2906140959492 29.2078863514096
vertex -36.4693051724756 -15.5406140959492 31.3539105243401
endloop
endfacet
facet normal -0.707106781186546 1.59066508577757e-15 -0.707106781186549
outer loop
vertex -34.3232809995451 -24.2906140959492 29.2078863514096
vertex -29.1153946481355 -15.5406140959492 24.0
vertex -32.7923499103056 -23.0406140959492 27.6769552621701
endloop
endfacet
facet normal -0.707106781186546 1.59066508577757e-15 -0.707106781186549
outer loop
vertex -32.7923499103056 -23.0406140959492 27.6769552621701
vertex -29.1153946481355 -15.5406140959492 24.0
vertex -31.2614188210661 -24.2906140959492 26.1460241729306
endloop
endfacet
facet normal -0.707106781186546 1.59066508577757e-15 -0.707106781186549
outer loop
vertex -31.2614188210661 -24.2906140959492 26.1460241729306
vertex -29.1153946481355 -15.5406140959492 24.0
vertex -31.2614188210661 -26.7906140959492 26.1460241729306
endloop
endfacet
facet normal -0.707106781186546 1.59066508577757e-15 -0.707106781186549
outer loop
vertex -31.2614188210661 -26.7906140959492 26.1460241729306
vertex -29.1153946481355 -15.5406140959492 24.0
vertex -29.1153946481355 -35.5406140959492 24.0
endloop
endfacet
facet normal -0.707106781186546 1.59066508577757e-15 -0.707106781186549
outer loop
vertex -36.4693051724757 -35.5406140959491 31.3539105243401
vertex -34.3232809995451 -26.7906140959492 29.2078863514096
vertex -29.1153946481355 -35.5406140959492 24.0
endloop
endfacet
facet normal -0.707106781186546 1.59066508577757e-15 -0.707106781186549
outer loop
vertex -34.3232809995451 -26.7906140959492 29.2078863514096
vertex -36.4693051724757 -35.5406140959491 31.3539105243401
vertex -36.4693051724756 -15.5406140959492 31.3539105243401
endloop
endfacet
facet normal -0.707106781186546 1.59066508577757e-15 -0.707106781186549
outer loop
vertex -34.3232809995451 -26.7906140959492 29.2078863514096
vertex -36.4693051724756 -15.5406140959492 31.3539105243401
vertex -34.3232809995451 -24.2906140959492 29.2078863514096
endloop
endfacet
facet normal -0.707106781186546 1.59066508577757e-15 -0.707106781186549
outer loop
vertex -29.1153946481355 -35.5406140959492 24.0
vertex -34.3232809995451 -26.7906140959492 29.2078863514096
vertex -32.7923499103056 -28.0406140959492 27.6769552621701
endloop
endfacet
facet normal -0.707106781186546 1.59066508577757e-15 -0.707106781186549
outer loop
vertex -29.1153946481355 -35.5406140959492 24.0
vertex -32.7923499103056 -28.0406140959492 27.6769552621701
vertex -31.2614188210661 -26.7906140959492 26.1460241729306
endloop
endfacet
facet normal -2.53240212661107e-16 0.707106781186547 -0.707106781186548
outer loop
vertex -60.4693051724756 -39.5406140959492 31.3539105243401
vertex -51.7193051724756 -41.6866382688799 29.2078863514094
vertex -60.4693051724756 -46.8945246202893 24.0
endloop
endfacet
facet normal -2.53240212661107e-16 0.707106781186547 -0.707106781186548
outer loop
vertex -51.7193051724756 -41.6866382688799 29.2078863514094
vertex -60.4693051724756 -39.5406140959492 31.3539105243401
vertex -40.4693051724756 -39.5406140959492 31.3539105243401
endloop
endfacet
facet normal -2.53240212661107e-16 0.707106781186547 -0.707106781186548
outer loop
vertex -60.4693051724756 -46.8945246202893 24.0
vertex -51.7193051724756 -41.6866382688799 29.2078863514094
vertex -52.9693051724756 -43.2175693581195 27.6769552621699
endloop
endfacet
facet normal -2.53240212661107e-16 0.707106781186547 -0.707106781186548
outer loop
vertex -51.7193051724756 -41.6866382688799 29.2078863514094
vertex -40.4693051724756 -39.5406140959492 31.3539105243401
vertex -49.2193051724756 -41.6866382688799 29.2078863514094
endloop
endfacet
facet normal -2.53240212661107e-16 0.707106781186547 -0.707106781186548
outer loop
vertex -49.2193051724756 -41.6866382688799 29.2078863514094
vertex -40.4693051724756 -39.5406140959492 31.3539105243401
vertex -47.9693051724756 -43.2175693581195 27.6769552621699
endloop
endfacet
facet normal -2.53240212661107e-16 0.707106781186547 -0.707106781186548
outer loop
vertex -60.4693051724756 -46.8945246202893 24.0
vertex -51.7193051724756 -44.748500447359 26.1460241729304
vertex -40.4693051724756 -46.8945246202893 24.0
endloop
endfacet
facet normal -2.53240212661107e-16 0.707106781186547 -0.707106781186548
outer loop
vertex -51.7193051724756 -44.748500447359 26.1460241729304
vertex -60.4693051724756 -46.8945246202893 24.0
vertex -52.9693051724756 -43.2175693581195 27.6769552621699
endloop
endfacet
facet normal -2.53240212661107e-16 0.707106781186547 -0.707106781186548
outer loop
vertex -40.4693051724756 -46.8945246202893 24.0
vertex -51.7193051724756 -44.748500447359 26.1460241729304
vertex -49.2193051724756 -44.748500447359 26.1460241729304
endloop
endfacet
facet normal -2.53240212661107e-16 0.707106781186547 -0.707106781186548
outer loop
vertex -40.4693051724756 -46.8945246202893 24.0
vertex -49.2193051724756 -44.748500447359 26.1460241729304
vertex -47.9693051724756 -43.2175693581195 27.6769552621699
endloop
endfacet
facet normal -2.53240212661107e-16 0.707106781186547 -0.707106781186548
outer loop
vertex -40.4693051724756 -46.8945246202893 24.0
vertex -47.9693051724756 -43.2175693581195 27.6769552621699
vertex -40.4693051724756 -39.5406140959492 31.3539105243401
endloop
endfacet
facet normal 1.40998324127394e-15 -1.6872455113702e-14 1.0
outer loop
vertex -40.4693051724756 -50.5714798824594 42.3847763108501
vertex -60.4693051724756 -46.8945246202893 42.3847763108502
vertex -60.4693051724756 -50.5714798824593 42.3847763108502
endloop
endfacet
facet normal 1.40998324127394e-15 -1.6872455113702e-14 1.0
outer loop
vertex -60.4693051724756 -46.8945246202893 42.3847763108502
vertex -40.4693051724756 -50.5714798824594 42.3847763108501
vertex -40.4693051724756 -46.8945246202893 42.3847763108502
endloop
endfacet
facet normal 0.0 0.0 -1.0
outer loop
vertex -29.1153946481354 -39.5406140959492 0.0
vertex -36.4693051724755 -50.5714798824593 0.0
vertex -36.4693051724756 -46.8945246202893 0.0
endloop
endfacet
facet normal 0.0 0.0 -1.0
outer loop
vertex -36.4693051724755 -50.5714798824593 0.0
vertex -29.1153946481354 -39.5406140959492 0.0
vertex -30.034633463678 -45.9752858047468 0.0
endloop
endfacet
facet normal 0.0 0.0 -1.0
outer loop
vertex -30.034633463678 -45.9752858047468 0.0
vertex -29.1153946481354 -39.5406140959492 0.0
vertex -24.5192005704229 -45.9752858047468 0.0
endloop
endfacet
facet normal 0.0 0.0 -1.0
outer loop
vertex -24.5192005704229 -45.9752858047468 0.0
vertex -29.1153946481354 -39.5406140959492 0.0
vertex -25.4384393859655 -39.5406140959492 0.0
endloop
endfacet
facet normal 0.0 0.0 -1.0
outer loop
vertex -24.5192005704229 -45.9752858047468 0.0
vertex -25.4384393859655 -39.5406140959492 0.0
vertex -18.0845288616254 -46.8945246202893 0.0
endloop
endfacet
facet normal 0.0 0.0 -1.0
outer loop
vertex -24.5192005704229 -45.9752858047468 0.0
vertex -18.0845288616254 -46.8945246202893 0.0
vertex -24.5192005704229 -51.4907186980018 0.0
endloop
endfacet
facet normal 0.0 0.0 -1.0
outer loop
vertex -36.4693051724755 -50.5714798824593 0.0
vertex -30.034633463678 -51.4907186980019 0.0
vertex -29.1153946481355 -57.9253904067994 0.0
endloop
endfacet
facet normal 0.0 0.0 -1.0
outer loop
vertex -30.034633463678 -51.4907186980019 0.0
vertex -36.4693051724755 -50.5714798824593 0.0
vertex -30.034633463678 -45.9752858047468 0.0
endloop
endfacet
facet normal 0.0 0.0 -1.0
outer loop
vertex -29.1153946481355 -57.9253904067994 0.0
vertex -30.034633463678 -51.4907186980019 0.0
vertex -24.5192005704229 -51.4907186980018 0.0
endloop
endfacet
facet normal 0.0 0.0 -1.0
outer loop
vertex -29.1153946481355 -57.9253904067994 0.0
vertex -24.5192005704229 -51.4907186980018 0.0
vertex -25.4384393859654 -57.9253904067994 0.0
endloop
endfacet
facet normal 0.0 0.0 -1.0
outer loop
vertex -25.4384393859654 -57.9253904067994 0.0
vertex -24.5192005704229 -51.4907186980018 0.0
vertex -18.0845288616253 -50.5714798824593 0.0
endloop
endfacet
facet normal 0.0 0.0 -1.0
outer loop
vertex -18.0845288616253 -50.5714798824593 0.0
vertex -24.5192005704229 -51.4907186980018 0.0
vertex -18.0845288616254 -46.8945246202893 0.0
endloop
endfacet
facet normal -0.707106781186545 0.707106781186551 0.0
outer loop
vertex -36.4693051724756 -46.8945246202893 0.0
vertex -33.6762333867887 -44.1014528346024 7.83493649053888
vertex -29.1153946481354 -39.5406140959492 0.0
endloop
endfacet
facet normal -0.707106781186545 0.707106781186551 0.0
outer loop
vertex -33.6762333867887 -44.1014528346024 7.83493649053888
vertex -36.4693051724756 -46.8945246202893 0.0
vertex -34.5601168632719 -44.9853363110856 9.99999999999998
endloop
endfacet
facet normal -0.707106781186545 0.707106781186551 0.0
outer loop
vertex -34.5601168632719 -44.9853363110856 9.99999999999998
vertex -36.4693051724756 -46.8945246202893 0.0
vertex -36.4693051724756 -46.8945246202893 20.0
endloop
endfacet
facet normal -0.707106781186545 0.707106781186551 0.0
outer loop
vertex -34.5601168632719 -44.9853363110856 9.99999999999998
vertex -36.4693051724756 -46.8945246202893 20.0
vertex -33.6762333867887 -44.1014528346024 12.1650635094611
endloop
endfacet
facet normal -0.707106781186545 0.707106781186551 0.0
outer loop
vertex -33.6762333867887 -44.1014528346024 12.1650635094611
vertex -36.4693051724756 -46.8945246202893 20.0
vertex -32.7923499103055 -43.2175693581192 12.1650635094611
endloop
endfacet
facet normal -0.707106781186545 0.707106781186551 0.0
outer loop
vertex -32.7923499103055 -43.2175693581192 12.1650635094611
vertex -36.4693051724756 -46.8945246202893 20.0
vertex -31.9084664338223 -42.3336858816361 12.1650635094611
endloop
endfacet
facet normal -0.707106781186545 0.707106781186551 0.0
outer loop
vertex -29.1153946481354 -39.5406140959492 0.0
vertex -31.0245829573391 -41.4498024051529 9.99999999999998
vertex -29.1153946481354 -39.5406140959492 20.0
endloop
endfacet
facet normal -0.707106781186545 0.707106781186551 0.0
outer loop
vertex -31.0245829573391 -41.4498024051529 9.99999999999998
vertex -29.1153946481354 -39.5406140959492 0.0
vertex -31.9084664338223 -42.3336858816361 7.83493649053888
endloop
endfacet
facet normal -0.707106781186545 0.707106781186551 0.0
outer loop
vertex -31.9084664338223 -42.3336858816361 7.83493649053888
vertex -29.1153946481354 -39.5406140959492 0.0
vertex -33.6762333867887 -44.1014528346024 7.83493649053888
endloop
endfacet
facet normal -0.707106781186545 0.707106781186551 0.0
outer loop
vertex -29.1153946481354 -39.5406140959492 20.0
vertex -31.0245829573391 -41.4498024051529 9.99999999999998
vertex -31.9084664338223 -42.3336858816361 12.1650635094611
endloop
endfacet
facet normal -0.707106781186545 0.707106781186551 0.0
outer loop
vertex -29.1153946481354 -39.5406140959492 20.0
vertex -31.9084664338223 -42.3336858816361 12.1650635094611
vertex -36.4693051724756 -46.8945246202893 20.0
endloop
endfacet
facet normal 1.0 7.66929777895539e-15 0.0
outer loop
vertex -18.0845288616254 -46.8945246202893 0.0
vertex -18.0845288616253 -50.5714798824593 20.0
vertex -18.0845288616253 -50.5714798824593 0.0
endloop
endfacet
facet normal 1.0 7.66929777895539e-15 0.0
outer loop
vertex -18.0845288616253 -50.5714798824593 20.0
vertex -18.0845288616254 -46.8945246202893 0.0
vertex -18.0845288616254 -46.8945246202893 20.0
endloop
endfacet
facet normal 0.707106781186548 -0.707106781186547 0.0
outer loop
vertex -25.4384393859654 -57.9253904067994 0.0
vertex -23.5292510767617 -56.0162020975958 9.99999999999999
vertex -25.4384393859654 -57.9253904067994 20.0
endloop
endfacet
facet normal 0.707106781186548 -0.707106781186547 0.0
outer loop
vertex -23.5292510767617 -56.0162020975958 9.99999999999999
vertex -25.4384393859654 -57.9253904067994 0.0
vertex -22.6453676002786 -55.1323186211126 7.83493649053889
endloop
endfacet
facet normal 0.707106781186548 -0.707106781186547 0.0
outer loop
vertex -22.6453676002786 -55.1323186211126 7.83493649053889
vertex -25.4384393859654 -57.9253904067994 0.0
vertex -18.0845288616253 -50.5714798824593 0.0
endloop
endfacet
facet normal 0.707106781186548 -0.707106781186547 0.0
outer loop
vertex -22.6453676002786 -55.1323186211126 7.83493649053889
vertex -18.0845288616253 -50.5714798824593 0.0
vertex -20.8776006473122 -53.3645516681462 7.83493649053889
endloop
endfacet
facet normal 0.707106781186548 -0.707106781186547 0.0
outer loop
vertex -20.8776006473122 -53.3645516681462 7.83493649053889
vertex -18.0845288616253 -50.5714798824593 0.0
vertex -19.993717170829 -52.480668191663 9.99999999999999
endloop
endfacet
facet normal 0.707106781186548 -0.707106781186547 0.0
outer loop
vertex -25.4384393859654 -57.9253904067994 20.0
vertex -22.6453676002786 -55.1323186211126 12.1650635094611
vertex -18.0845288616253 -50.5714798824593 20.0
endloop
endfacet
facet normal 0.707106781186548 -0.707106781186547 0.0
outer loop
vertex -22.6453676002786 -55.1323186211126 12.1650635094611
vertex -25.4384393859654 -57.9253904067994 20.0
vertex -23.5292510767617 -56.0162020975958 9.99999999999999
endloop
endfacet
facet normal 0.707106781186548 -0.707106781186547 0.0
outer loop
vertex -18.0845288616253 -50.5714798824593 20.0
vertex -22.6453676002786 -55.1323186211126 12.1650635094611
vertex -21.7614841237954 -54.2484351446294 12.1650635094611
endloop
endfacet
facet normal 0.707106781186548 -0.707106781186547 0.0
outer loop
vertex -18.0845288616253 -50.5714798824593 20.0
vertex -21.7614841237954 -54.2484351446294 12.1650635094611
vertex -20.8776006473122 -53.3645516681462 12.1650635094611
endloop
endfacet
facet normal 0.707106781186548 -0.707106781186547 0.0
outer loop
vertex -18.0845288616253 -50.5714798824593 20.0
vertex -20.8776006473122 -53.3645516681462 12.1650635094611
vertex -19.993717170829 -52.480668191663 9.99999999999999
endloop
endfacet
facet normal 0.707106781186548 -0.707106781186547 0.0
outer loop
vertex -18.0845288616253 -50.5714798824593 20.0
vertex -19.993717170829 -52.480668191663 9.99999999999999
vertex -18.0845288616253 -50.5714798824593 0.0
endloop
endfacet
facet normal 0.577350269189618 -0.577350269189631 -0.577350269189628
outer loop
vertex -16.0845288616254 -61.9253904067996 22.0
vertex -16.0845288616254 -59.9253904067996 20.0
vertex -14.0845288616254 -59.9253904067996 21.9999999999999
endloop
endfacet
facet normal 0.57735026918964 -0.577350269189611 0.577350269189627
outer loop
vertex -14.0845288616254 -59.9253904067994 40.3847763108501
vertex -16.0845288616254 -59.9253904067995 42.3847763108501
vertex -16.0845288616254 -61.9253904067994 40.3847763108502
endloop
endfacet
facet normal -0.707106781186555 -0.70710678118654 0.0
outer loop
vertex -36.4693051724755 -50.5714798824593 20.0
vertex -29.1153946481355 -57.9253904067994 0.0
vertex -29.1153946481355 -57.9253904067994 20.0
endloop
endfacet
facet normal -0.707106781186555 -0.70710678118654 0.0
outer loop
vertex -29.1153946481355 -57.9253904067994 0.0
vertex -36.4693051724755 -50.5714798824593 20.0
vertex -36.4693051724755 -50.5714798824593 0.0
endloop
endfacet
facet normal -1.96440710688846e-15 -0.707106781186547 -0.707106781186548
outer loop
vertex -40.4693051724756 -59.9253904067995 20.0
vertex -16.0845288616254 -61.9253904067996 22.0
vertex -40.4693051724756 -61.9253904067995 22.0
endloop
endfacet
facet normal -1.96440710688846e-15 -0.707106781186547 -0.707106781186548
outer loop
vertex -16.0845288616254 -61.9253904067996 22.0
vertex -40.4693051724756 -59.9253904067995 20.0
vertex -16.0845288616254 -59.9253904067996 20.0
endloop
endfacet
facet normal -2.45380399108008e-30 1.0 9.20315733474669e-15
outer loop
vertex -60.4693051724756 -39.5406140959492 35.0308657865101
vertex -40.4693051724756 -39.5406140959492 31.3539105243401
vertex -60.4693051724756 -39.5406140959492 31.3539105243401
endloop
endfacet
facet normal -2.45380399108008e-30 1.0 9.20315733474669e-15
outer loop
vertex -40.4693051724756 -39.5406140959492 31.3539105243401
vertex -60.4693051724756 -39.5406140959492 35.0308657865101
vertex -40.4693051724756 -39.5406140959492 35.0308657865101
endloop
endfacet
facet normal -1.40998324127395e-16 7.66929777895538e-15 -1.0
outer loop
vertex -40.4693051724756 -46.8945246202893 24.0
vertex -60.4693051724756 -50.5714798824594 24.0
vertex -60.4693051724756 -46.8945246202893 24.0
endloop
endfacet
facet normal -1.40998324127395e-16 7.66929777895538e-15 -1.0
outer loop
vertex -60.4693051724756 -50.5714798824594 24.0
vertex -40.4693051724756 -46.8945246202893 24.0
vertex -40.4693051724756 -50.5714798824594 24.0
endloop
endfacet
facet normal -2.45326456015447e-16 -0.707106781186546 -0.707106781186549
outer loop
vertex -60.4693051724756 -50.5714798824594 24.0
vertex -40.4693051724756 -57.9253904067995 31.3539105243401
vertex -60.4693051724756 -57.9253904067995 31.3539105243401
endloop
endfacet
facet normal -2.45326456015447e-16 -0.707106781186546 -0.707106781186549
outer loop
vertex -40.4693051724756 -57.9253904067995 31.3539105243401
vertex -60.4693051724756 -50.5714798824594 24.0
vertex -40.4693051724756 -50.5714798824594 24.0
endloop
endfacet
facet normal -2.05757672787145e-16 -0.707106781186539 0.707106781186556
outer loop
vertex -60.4693051724756 -57.9253904067995 35.0308657865102
vertex -51.7193051724756 -55.7793662338689 37.1768899594407
vertex -60.4693051724756 -50.5714798824593 42.3847763108502
endloop
endfacet
facet normal -2.05757672787145e-16 -0.707106781186539 0.707106781186556
outer loop
vertex -51.7193051724756 -55.7793662338689 37.1768899594407
vertex -60.4693051724756 -57.9253904067995 35.0308657865102
vertex -40.4693051724756 -57.9253904067995 35.0308657865102
endloop
endfacet
facet normal -2.05757672787145e-16 -0.707106781186539 0.707106781186556
outer loop
vertex -60.4693051724756 -50.5714798824593 42.3847763108502
vertex -51.7193051724756 -55.7793662338689 37.1768899594407
vertex -52.9693051724756 -54.2484351446294 38.7078210486802
endloop
endfacet
facet normal -2.05757672787145e-16 -0.707106781186539 0.707106781186556
outer loop
vertex -51.7193051724756 -55.7793662338689 37.1768899594407
vertex -40.4693051724756 -57.9253904067995 35.0308657865102
vertex -49.2193051724756 -55.7793662338689 37.1768899594407
endloop
endfacet
facet normal -2.05757672787145e-16 -0.707106781186539 0.707106781186556
outer loop
vertex -49.2193051724756 -55.7793662338689 37.1768899594407
vertex -40.4693051724756 -57.9253904067995 35.0308657865102
vertex -47.9693051724756 -54.2484351446294 38.7078210486802
endloop
endfacet
facet normal -2.05757672787145e-16 -0.707106781186539 0.707106781186556
outer loop
vertex -60.4693051724756 -50.5714798824593 42.3847763108502
vertex -51.7193051724756 -52.7175040553899 40.2387521379196
vertex -40.4693051724756 -50.5714798824594 42.3847763108501
endloop
endfacet
facet normal -2.05757672787145e-16 -0.707106781186539 0.707106781186556
outer loop
vertex -51.7193051724756 -52.7175040553899 40.2387521379196
vertex -60.4693051724756 -50.5714798824593 42.3847763108502
vertex -52.9693051724756 -54.2484351446294 38.7078210486802
endloop
endfacet
facet normal -2.05757672787145e-16 -0.707106781186539 0.707106781186556
outer loop
vertex -40.4693051724756 -50.5714798824594 42.3847763108501
vertex -51.7193051724756 -52.7175040553899 40.2387521379196
vertex -49.2193051724756 -52.7175040553899 40.2387521379196
endloop
endfacet
facet normal -2.05757672787145e-16 -0.707106781186539 0.707106781186556
outer loop
vertex -40.4693051724756 -50.5714798824594 42.3847763108501
vertex -49.2193051724756 -52.7175040553899 40.2387521379196
vertex -47.9693051724756 -54.2484351446294 38.7078210486802
endloop
endfacet
facet normal -2.05757672787145e-16 -0.707106781186539 0.707106781186556
outer loop
vertex -40.4693051724756 -50.5714798824594 42.3847763108501
vertex -47.9693051724756 -54.2484351446294 38.7078210486802
vertex -40.4693051724756 -57.9253904067995 35.0308657865102
endloop
endfacet
facet normal -1.0 1.29788116259244e-15 -5.89945982996567e-16
outer loop
vertex -60.4693051724756 -50.5714798824593 42.3847763108502
vertex -60.4693051724756 -57.9253904067995 31.3539105243401
vertex -60.4693051724756 -57.9253904067995 35.0308657865102
endloop
endfacet
facet normal -1.0 1.29788116259244e-15 -5.89945982996567e-16
outer loop
vertex -60.4693051724756 -57.9253904067995 31.3539105243401
vertex -60.4693051724756 -50.5714798824593 42.3847763108502
vertex -60.4693051724756 -51.4907186980019 35.9501046020526
endloop
endfacet
facet normal -1.0 1.29788116259244e-15 -5.89945982996567e-16
outer loop
vertex -60.4693051724756 -51.4907186980019 35.9501046020526
vertex -60.4693051724756 -50.5714798824593 42.3847763108502
vertex -60.4693051724756 -45.9752858047468 35.9501046020527
endloop
endfacet
facet normal -1.0 1.29788116259244e-15 -5.89945982996567e-16
outer loop
vertex -60.4693051724756 -45.9752858047468 35.9501046020527
vertex -60.4693051724756 -50.5714798824593 42.3847763108502
vertex -60.4693051724756 -46.8945246202893 42.3847763108502
endloop
endfacet
facet normal -1.0 1.29788116259244e-15 -5.89945982996567e-16
outer loop
vertex -60.4693051724756 -45.9752858047468 35.9501046020527
vertex -60.4693051724756 -46.8945246202893 42.3847763108502
vertex -60.4693051724756 -39.5406140959492 35.0308657865101
endloop
endfacet
facet normal -1.0 1.29788116259244e-15 -5.89945982996567e-16
outer loop
vertex -60.4693051724756 -45.9752858047468 35.9501046020527
vertex -60.4693051724756 -39.5406140959492 35.0308657865101
vertex -60.4693051724756 -45.9752858047468 30.4346717087976
endloop
endfacet
facet normal -1.0 1.29788116259244e-15 -5.89945982996567e-16
outer loop
vertex -60.4693051724756 -57.9253904067995 31.3539105243401
vertex -60.4693051724756 -51.4907186980018 30.4346717087976
vertex -60.4693051724756 -50.5714798824594 24.0
endloop
endfacet
facet normal -1.0 1.29788116259244e-15 -5.89945982996567e-16
outer loop
vertex -60.4693051724756 -51.4907186980018 30.4346717087976
vertex -60.4693051724756 -57.9253904067995 31.3539105243401
vertex -60.4693051724756 -51.4907186980019 35.9501046020526
endloop
endfacet
facet normal -1.0 1.29788116259244e-15 -5.89945982996567e-16
outer loop
vertex -60.4693051724756 -50.5714798824594 24.0
vertex -60.4693051724756 -51.4907186980018 30.4346717087976
vertex -60.4693051724756 -45.9752858047468 30.4346717087976
endloop
endfacet
facet normal -1.0 1.29788116259244e-15 -5.89945982996567e-16
outer loop
vertex -60.4693051724756 -50.5714798824594 24.0
vertex -60.4693051724756 -45.9752858047468 30.4346717087976
vertex -60.4693051724756 -46.8945246202893 24.0
endloop
endfacet
facet normal -1.0 1.29788116259244e-15 -5.89945982996567e-16
outer loop
vertex -60.4693051724756 -46.8945246202893 24.0
vertex -60.4693051724756 -45.9752858047468 30.4346717087976
vertex -60.4693051724756 -39.5406140959492 31.3539105243401
endloop
endfacet
facet normal -1.0 1.29788116259244e-15 -5.89945982996567e-16
outer loop
vertex -60.4693051724756 -39.5406140959492 31.3539105243401
vertex -60.4693051724756 -45.9752858047468 30.4346717087976
vertex -60.4693051724756 -39.5406140959492 35.0308657865101
endloop
endfacet
facet normal 1.0 -3.62452203162994e-30 1.53385955579107e-15
outer loop
vertex -14.0845288616254 -35.5406140959492 22.0
vertex -14.0845288616254 -59.9253904067994 40.3847763108501
vertex -14.0845288616254 -59.9253904067996 21.9999999999999
endloop
endfacet
facet normal 1.0 -3.62452203162994e-30 1.53385955579107e-15
outer loop
vertex -14.0845288616254 -59.9253904067994 40.3847763108501
vertex -14.0845288616254 -35.5406140959492 22.0
vertex -14.0845288616254 -35.5406140959492 40.3847763108502
endloop
endfacet
facet normal 1.66777612654852e-15 1.0 1.29690372184881e-15
outer loop
vertex -40.4693051724756 -35.5406140959492 20.0
vertex -14.0845288616254 -35.5406140959492 22.0
vertex -16.0845288616254 -35.5406140959492 20.0
endloop
endfacet
facet normal 1.66777612654852e-15 1.0 1.29690372184881e-15
outer loop
vertex -14.0845288616254 -35.5406140959492 22.0
vertex -40.4693051724756 -35.5406140959492 20.0
vertex -29.1153946481355 -35.5406140959492 24.0
endloop
endfacet
facet normal 1.66777612654852e-15 1.0 1.29690372184881e-15
outer loop
vertex -29.1153946481355 -35.5406140959492 24.0
vertex -40.4693051724756 -35.5406140959492 20.0
vertex -36.4693051724757 -35.5406140959491 31.3539105243401
endloop
endfacet
facet normal 1.66777612654852e-15 1.0 1.29690372184881e-15
outer loop
vertex -36.4693051724757 -35.5406140959491 31.3539105243401
vertex -40.4693051724756 -35.5406140959492 20.0
vertex -40.4693051724756 -35.5406140959492 42.3847763108502
endloop
endfacet
facet normal 1.66777612654852e-15 1.0 1.29690372184881e-15
outer loop
vertex -36.4693051724757 -35.5406140959491 31.3539105243401
vertex -40.4693051724756 -35.5406140959492 42.3847763108502
vertex -36.4693051724757 -35.5406140959492 35.0308657865102
endloop
endfacet
facet normal 1.66777612654852e-15 1.0 1.29690372184881e-15
outer loop
vertex -36.4693051724757 -35.5406140959492 35.0308657865102
vertex -40.4693051724756 -35.5406140959492 42.3847763108502
vertex -29.1153946481355 -35.5406140959492 42.3847763108501
endloop
endfacet
facet normal 1.66777612654852e-15 1.0 1.29690372184881e-15
outer loop
vertex -14.0845288616254 -35.5406140959492 22.0
vertex -18.0845288616254 -35.5406140959492 31.3539105243402
vertex -14.0845288616254 -35.5406140959492 40.3847763108502
endloop
endfacet
facet normal 1.66777612654852e-15 1.0 1.29690372184881e-15
outer loop
vertex -18.0845288616254 -35.5406140959492 31.3539105243402
vertex -14.0845288616254 -35.5406140959492 22.0
vertex -25.4384393859655 -35.5406140959492 24.0
endloop
endfacet
facet normal 1.66777612654852e-15 1.0 1.29690372184881e-15
outer loop
vertex -25.4384393859655 -35.5406140959492 24.0
vertex -14.0845288616254 -35.5406140959492 22.0
vertex -29.1153946481355 -35.5406140959492 24.0
endloop
endfacet
facet normal 1.66777612654852e-15 1.0 1.29690372184881e-15
outer loop
vertex -14.0845288616254 -35.5406140959492 40.3847763108502
vertex -18.0845288616254 -35.5406140959492 31.3539105243402
vertex -18.0845288616254 -35.5406140959492 35.0308657865101
endloop
endfacet
facet normal 1.66777612654852e-15 1.0 1.29690372184881e-15
outer loop
vertex -14.0845288616254 -35.5406140959492 40.3847763108502
vertex -18.0845288616254 -35.5406140959492 35.0308657865101
vertex -25.4384393859655 -35.5406140959492 42.3847763108502
endloop
endfacet
facet normal 1.66777612654852e-15 1.0 1.29690372184881e-15
outer loop
vertex -14.0845288616254 -35.5406140959492 40.3847763108502
vertex -25.4384393859655 -35.5406140959492 42.3847763108502
vertex -16.0845288616254 -35.5406140959492 42.3847763108501
endloop
endfacet
facet normal -4.0475592488933e-16 4.04755924889329e-16 -1.0
outer loop
vertex -40.4693051724756 -35.5406140959492 20.0
vertex -29.1153946481354 -39.5406140959492 20.0
vertex -36.4693051724756 -46.8945246202893 20.0
endloop
endfacet
facet normal -4.0475592488933e-16 4.04755924889329e-16 -1.0
outer loop
vertex -29.1153946481354 -39.5406140959492 20.0
vertex -40.4693051724756 -35.5406140959492 20.0
vertex -16.0845288616254 -35.5406140959492 20.0
endloop
endfacet
facet normal -4.0475592488933e-16 4.04755924889329e-16 -1.0
outer loop
vertex -29.1153946481354 -39.5406140959492 20.0
vertex -16.0845288616254 -35.5406140959492 20.0
vertex -25.4384393859655 -39.5406140959492 20.0
endloop
endfacet
facet normal -4.0475592488933e-16 4.04755924889329e-16 -1.0
outer loop
vertex -25.4384393859655 -39.5406140959492 20.0
vertex -16.0845288616254 -35.5406140959492 20.0
vertex -18.0845288616254 -46.8945246202893 20.0
endloop
endfacet
facet normal -4.0475592488933e-16 4.04755924889329e-16 -1.0
outer loop
vertex -18.0845288616254 -46.8945246202893 20.0
vertex -16.0845288616254 -35.5406140959492 20.0
vertex -18.0845288616253 -50.5714798824593 20.0
endloop
endfacet
facet normal -4.0475592488933e-16 4.04755924889329e-16 -1.0
outer loop
vertex -40.4693051724756 -59.9253904067995 20.0
vertex -29.1153946481355 -57.9253904067994 20.0
vertex -16.0845288616254 -59.9253904067996 20.0
endloop
endfacet
facet normal -4.0475592488933e-16 4.04755924889329e-16 -1.0
outer loop
vertex -29.1153946481355 -57.9253904067994 20.0
vertex -40.4693051724756 -59.9253904067995 20.0
vertex -36.4693051724755 -50.5714798824593 20.0
endloop
endfacet
facet normal -4.0475592488933e-16 4.04755924889329e-16 -1.0
outer loop
vertex -36.4693051724755 -50.5714798824593 20.0
vertex -40.4693051724756 -59.9253904067995 20.0
vertex -40.4693051724756 -35.5406140959492 20.0
endloop
endfacet
facet normal -4.0475592488933e-16 4.04755924889329e-16 -1.0
outer loop
vertex -36.4693051724755 -50.5714798824593 20.0
vertex -40.4693051724756 -35.5406140959492 20.0
vertex -36.4693051724756 -46.8945246202893 20.0
endloop
endfacet
facet normal -4.0475592488933e-16 4.04755924889329e-16 -1.0
outer loop
vertex -16.0845288616254 -59.9253904067996 20.0
vertex -29.1153946481355 -57.9253904067994 20.0
vertex -25.4384393859654 -57.9253904067994 20.0
endloop
endfacet
facet normal -4.0475592488933e-16 4.04755924889329e-16 -1.0
outer loop
vertex -16.0845288616254 -59.9253904067996 20.0
vertex -25.4384393859654 -57.9253904067994 20.0
vertex -18.0845288616253 -50.5714798824593 20.0
endloop
endfacet
facet normal -4.0475592488933e-16 4.04755924889329e-16 -1.0
outer loop
vertex -16.0845288616254 -59.9253904067996 20.0
vertex -18.0845288616253 -50.5714798824593 20.0
vertex -16.0845288616254 -35.5406140959492 20.0
endloop
endfacet
facet normal -1.1564454996838e-15 -1.0 4.60157866737323e-15
outer loop
vertex -16.0845288616254 -61.9253904067994 40.3847763108502
vertex -40.4693051724756 -61.9253904067995 22.0
vertex -16.0845288616254 -61.9253904067996 22.0
endloop
endfacet
facet normal -1.1564454996838e-15 -1.0 4.60157866737323e-15
outer loop
vertex -40.4693051724756 -61.9253904067995 22.0
vertex -16.0845288616254 -61.9253904067994 40.3847763108502
vertex -40.4693051724756 -61.9253904067995 40.3847763108502
endloop
endfacet
facet normal -1.0 5.63993296509582e-16 -9.20315733474626e-15
outer loop
vertex -36.4693051724757 -15.5406140959492 35.0308657865102
vertex -36.4693051724757 -35.5406140959491 31.3539105243401
vertex -36.4693051724757 -35.5406140959492 35.0308657865102
endloop
endfacet
facet normal -1.0 5.63993296509582e-16 -9.20315733474626e-15
outer loop
vertex -36.4693051724757 -35.5406140959491 31.3539105243401
vertex -36.4693051724757 -15.5406140959492 35.0308657865102
vertex -36.4693051724756 -15.5406140959492 31.3539105243401
endloop
endfacet
facet normal 0.353553390593273 0.866025403784439 -0.353553390593274
outer loop
vertex -23.2924152130349 -26.7906140959492 40.2387521379196
vertex -24.5192005704229 -28.0406140959492 35.9501046020527
vertex -27.5810627489019 -26.7906140959492 35.9501046020527
endloop
endfacet
facet normal 0.353553390593273 0.866025403784439 -0.353553390593274
outer loop
vertex -24.5192005704229 -28.0406140959492 35.9501046020527
vertex -23.2924152130349 -26.7906140959492 40.2387521379196
vertex -21.7614841237954 -28.0406140959492 38.7078210486801
endloop
endfacet
facet normal 0.707106781186545 1.20289101014022e-15 -0.70710678118655
outer loop
vertex -23.2924152130349 -24.2906140959492 40.2387521379196
vertex -27.5810627489019 -26.7906140959492 35.9501046020527
vertex -27.5810627489019 -24.2906140959492 35.9501046020527
endloop
endfacet
facet normal 0.707106781186545 1.20289101014022e-15 -0.70710678118655
outer loop
vertex -27.5810627489019 -26.7906140959492 35.9501046020527
vertex -23.2924152130349 -24.2906140959492 40.2387521379196
vertex -23.2924152130349 -26.7906140959492 40.2387521379196
endloop
endfacet
facet normal 0.353553390593269 -0.86602540378444 -0.353553390593275
outer loop
vertex -30.034633463678 -23.0406140959492 30.4346717087976
vertex -34.3232809995451 -24.2906140959492 29.2078863514096
vertex -32.7923499103056 -23.0406140959492 27.6769552621701
endloop
endfacet
facet normal 0.353553390593269 -0.86602540378444 -0.353553390593275
outer loop
vertex -34.3232809995451 -24.2906140959492 29.2078863514096
vertex -30.034633463678 -23.0406140959492 30.4346717087976
vertex -30.034633463678 -24.2906140959492 33.4965338872766
endloop
endfacet
facet normal -7.04434166664736e-16 -1.07712537605121e-15 -1.0
outer loop
vertex -24.5192005704229 -51.4907186980018 12.1650635094611
vertex -22.6453676002786 -55.1323186211126 12.1650635094611
vertex -26.2869675233893 -51.4907186980018 12.1650635094611
endloop
endfacet
facet normal -7.04434166664736e-16 -1.07712537605121e-15 -1.0
outer loop
vertex -22.6453676002786 -55.1323186211126 12.1650635094611
vertex -24.5192005704229 -51.4907186980018 12.1650635094611
vertex -21.7614841237954 -54.2484351446294 12.1650635094611
endloop
endfacet
facet normal 1.0 -2.95542388071087e-16 -2.85354086399155e-18
outer loop
vertex -30.034633463678 -51.4907186980019 0.0
vertex -30.034633463678 -49.5108197106795 9.99999999999998
vertex -30.034633463678 -51.4907186980018 30.4346717087976
endloop
endfacet
facet normal 1.0 -2.95542388071087e-16 -2.85354086399155e-18
outer loop
vertex -30.034633463678 -49.5108197106795 9.99999999999998
vertex -30.034633463678 -51.4907186980019 0.0
vertex -30.034633463678 -45.9752858047468 0.0
endloop
endfacet
facet normal 1.0 -2.95542388071087e-16 -2.85354086399155e-18
outer loop
vertex -30.034633463678 -49.5108197106795 9.99999999999998
vertex -30.034633463678 -45.9752858047468 0.0
vertex -30.034633463678 -47.7430527577131 7.83493649053888
endloop
endfacet
facet normal 1.0 -2.95542388071087e-16 -2.85354086399155e-18
outer loop
vertex -30.034633463678 -47.7430527577131 7.83493649053888
vertex -30.034633463678 -45.9752858047468 0.0
vertex -30.034633463678 -45.9752858047468 7.83493649053888
endloop
endfacet
facet normal 1.0 -2.95542388071087e-16 -2.85354086399155e-18
outer loop
vertex -30.034633463678 -49.5108197106795 9.99999999999998
vertex -30.034633463678 -45.9752858047468 30.4346717087976
vertex -30.034633463678 -51.4907186980018 30.4346717087976
endloop
endfacet
facet normal 1.0 -2.95542388071087e-16 -2.85354086399155e-18
outer loop
vertex -30.034633463678 -45.9752858047468 30.4346717087976
vertex -30.034633463678 -49.5108197106795 9.99999999999998
vertex -30.034633463678 -47.7430527577131 12.1650635094611
endloop
endfacet
facet normal 1.0 -2.95542388071087e-16 -2.85354086399155e-18
outer loop
vertex -30.034633463678 -45.9752858047468 30.4346717087976
vertex -30.034633463678 -47.7430527577131 12.1650635094611
vertex -30.034633463678 -45.9752858047468 12.1650635094611
endloop
endfacet
facet normal -7.85440228265885e-16 -1.21667407454704e-17 1.0
outer loop
vertex -30.034633463678 -47.7430527577131 7.83493649053888
vertex -31.9084664338223 -42.3336858816361 7.83493649053888
vertex -33.6762333867887 -44.1014528346024 7.83493649053888
endloop
endfacet
facet normal -7.85440228265885e-16 -1.21667407454704e-17 1.0
outer loop
vertex -31.9084664338223 -42.3336858816361 7.83493649053888
vertex -30.034633463678 -47.7430527577131 7.83493649053888
vertex -30.034633463678 -45.9752858047468 7.83493649053888
endloop
endfacet
facet normal -7.85440228265885e-16 -1.21667407454704e-17 1.0
outer loop
vertex -31.9084664338223 -42.3336858816361 7.83493649053888
vertex -30.034633463678 -45.9752858047468 7.83493649053888
vertex -28.2668665107116 -45.9752858047468 7.83493649053888
endloop
endfacet
facet normal 0.612372435695795 0.612372435695794 0.5
outer loop
vertex -22.6453676002786 -55.1323186211126 7.83493649053889
vertex -28.0547344763557 -51.4907186980018 9.99999999999999
vertex -23.5292510767617 -56.0162020975958 9.99999999999999
endloop
endfacet
facet normal 0.612372435695795 0.612372435695794 0.5
outer loop
vertex -28.0547344763557 -51.4907186980018 9.99999999999999
vertex -22.6453676002786 -55.1323186211126 7.83493649053889
vertex -26.2869675233893 -51.4907186980018 7.83493649053888
endloop
endfacet
facet normal -1.0 5.11412916054467e-16 -2.13701286144372e-16
outer loop
vertex -24.5192005704229 -51.4907186980018 42.3847763108502
vertex -24.5192005704229 -49.7229517450355 12.1650635094611
vertex -24.5192005704229 -51.4907186980018 12.1650635094611
endloop
endfacet
facet normal -1.0 5.11412916054467e-16 -2.13701286144372e-16
outer loop
vertex -24.5192005704229 -49.7229517450355 12.1650635094611
vertex -24.5192005704229 -51.4907186980018 42.3847763108502
vertex -24.5192005704229 -45.9752858047468 42.3847763108502
endloop
endfacet
facet normal -1.0 5.11412916054467e-16 -2.13701286144372e-16
outer loop
vertex -24.5192005704229 -49.7229517450355 12.1650635094611
vertex -24.5192005704229 -45.9752858047468 42.3847763108502
vertex -24.5192005704229 -47.9551847920691 9.99999999999998
endloop
endfacet
facet normal -1.0 5.11412916054467e-16 -2.13701286144372e-16
outer loop
vertex -24.5192005704229 -28.0406140959492 35.9501046020527
vertex -24.5192005704229 -45.9752858047468 30.4346717087976
vertex -24.519200570423 -45.9752858047468 35.9501046020526
endloop
endfacet
facet normal -1.0 5.11412916054467e-16 -2.13701286144372e-16
outer loop
vertex -24.5192005704229 -45.9752858047468 30.4346717087976
vertex -24.5192005704229 -28.0406140959492 35.9501046020527
vertex -24.5192005704229 -26.7906140959492 32.8882424235737
endloop
endfacet
facet normal -1.0 5.11412916054467e-16 -2.13701286144372e-16
outer loop
vertex -24.5192005704229 -45.9752858047468 30.4346717087976
vertex -24.5192005704229 -26.7906140959492 32.8882424235737
vertex -24.5192005704229 -15.5406140959492 30.4346717087976
endloop
endfacet
facet normal -1.0 5.11412916054467e-16 -2.13701286144372e-16
outer loop
vertex -24.5192005704229 -15.5406140959492 30.4346717087976
vertex -24.5192005704229 -26.7906140959492 32.8882424235737
vertex -24.5192005704229 -24.2906140959492 32.8882424235737
endloop
endfacet
facet normal -1.0 5.11412916054467e-16 -2.13701286144372e-16
outer loop
vertex -24.5192005704229 -15.5406140959492 30.4346717087976
vertex -24.5192005704229 -24.2906140959492 32.8882424235737
vertex -24.5192005704229 -23.0406140959492 35.9501046020527
endloop
endfacet
facet normal -1.0 5.11412916054467e-16 -2.13701286144372e-16
outer loop
vertex -24.5192005704229 -15.5406140959492 30.4346717087976
vertex -24.5192005704229 -23.0406140959492 35.9501046020527
vertex -24.5192005704229 -15.5406140959492 35.9501046020527
endloop
endfacet
facet normal -1.0 5.11412916054467e-16 -2.13701286144372e-16
outer loop
vertex -24.5192005704229 -49.7229517450355 7.83493649053888
vertex -24.5192005704229 -51.4907186980018 0.0
vertex -24.5192005704229 -51.4907186980018 7.83493649053888
endloop
endfacet
facet normal -1.0 5.11412916054467e-16 -2.13701286144372e-16
outer loop
vertex -24.5192005704229 -51.4907186980018 0.0
vertex -24.5192005704229 -49.7229517450355 7.83493649053888
vertex -24.5192005704229 -45.9752858047468 0.0
endloop
endfacet
facet normal -1.0 5.11412916054467e-16 -2.13701286144372e-16
outer loop
vertex -24.5192005704229 -45.9752858047468 0.0
vertex -24.5192005704229 -49.7229517450355 7.83493649053888
vertex -24.5192005704229 -47.9551847920691 9.99999999999998
endloop
endfacet
facet normal -1.0 5.11412916054467e-16 -2.13701286144372e-16
outer loop
vertex -24.5192005704229 -45.9752858047468 0.0
vertex -24.5192005704229 -47.9551847920691 9.99999999999998
vertex -24.5192005704229 -45.9752858047468 42.3847763108502
endloop
endfacet
facet normal -1.0 5.11412916054467e-16 -2.13701286144372e-16
outer loop
vertex -24.5192005704229 -45.9752858047468 0.0
vertex -24.5192005704229 -45.9752858047468 42.3847763108502
vertex -24.519200570423 -45.9752858047468 35.9501046020526
endloop
endfacet
facet normal -1.0 5.11412916054467e-16 -2.13701286144372e-16
outer loop
vertex -24.5192005704229 -45.9752858047468 0.0
vertex -24.519200570423 -45.9752858047468 35.9501046020526
vertex -24.5192005704229 -45.9752858047468 30.4346717087976
endloop
endfacet
facet normal -0.612372435695794 -0.612372435695795 0.5
outer loop
vertex -20.8776006473122 -53.3645516681462 7.83493649053889
vertex -24.5192005704229 -47.9551847920691 9.99999999999998
vertex -24.5192005704229 -49.7229517450355 7.83493649053888
endloop
endfacet
facet normal -0.612372435695794 -0.612372435695795 0.5
outer loop
vertex -24.5192005704229 -47.9551847920691 9.99999999999998
vertex -20.8776006473122 -53.3645516681462 7.83493649053889
vertex -19.993717170829 -52.480668191663 9.99999999999999
endloop
endfacet
facet normal 2.61700894763334e-15 -1.0 4.98112964599043e-18
outer loop
vertex -24.5192005704229 -45.9752858047468 0.0
vertex -26.4990995577453 -45.9752858047468 9.99999999999998
vertex -30.034633463678 -45.9752858047468 0.0
endloop
endfacet
facet normal 2.61700894763334e-15 -1.0 4.98112964599043e-18
outer loop
vertex -26.4990995577453 -45.9752858047468 9.99999999999998
vertex -24.5192005704229 -45.9752858047468 0.0
vertex -24.5192005704229 -45.9752858047468 30.4346717087976
endloop
endfacet
facet normal 2.61700894763334e-15 -1.0 4.98112964599043e-18
outer loop
vertex -30.034633463678 -45.9752858047468 0.0
vertex -26.4990995577453 -45.9752858047468 9.99999999999998
vertex -28.2668665107116 -45.9752858047468 7.83493649053888
endloop
endfacet
facet normal 2.61700894763334e-15 -1.0 4.98112964599043e-18
outer loop
vertex -30.034633463678 -45.9752858047468 0.0
vertex -28.2668665107116 -45.9752858047468 7.83493649053888
vertex -30.034633463678 -45.9752858047468 7.83493649053888
endloop
endfacet
facet normal 2.61700894763334e-15 -1.0 4.98112964599043e-18
outer loop
vertex -26.4990995577453 -45.9752858047468 9.99999999999998
vertex -24.5192005704229 -45.9752858047468 30.4346717087976
vertex -28.2668665107116 -45.9752858047468 12.1650635094611
endloop
endfacet
facet normal 2.61700894763334e-15 -1.0 4.98112964599043e-18
outer loop
vertex -28.2668665107116 -45.9752858047468 12.1650635094611
vertex -24.5192005704229 -45.9752858047468 30.4346717087976
vertex -30.034633463678 -45.9752858047468 12.1650635094611
endloop
endfacet
facet normal 2.61700894763334e-15 -1.0 4.98112964599043e-18
outer loop
vertex -30.034633463678 -45.9752858047468 12.1650635094611
vertex -24.5192005704229 -45.9752858047468 30.4346717087976
vertex -30.034633463678 -45.9752858047468 30.4346717087976
endloop
endfacet
facet normal 6.48626047105314e-16 -2.16208682368444e-16 -1.0
outer loop
vertex -20.8776006473122 -53.3645516681462 12.1650635094611
vertex -24.5192005704229 -51.4907186980018 12.1650635094611
vertex -24.5192005704229 -49.7229517450355 12.1650635094611
endloop
endfacet
facet normal 6.48626047105314e-16 -2.16208682368444e-16 -1.0
outer loop
vertex -24.5192005704229 -51.4907186980018 12.1650635094611
vertex -20.8776006473122 -53.3645516681462 12.1650635094611
vertex -21.7614841237954 -54.2484351446294 12.1650635094611
endloop
endfacet
facet normal -0.612372435695794 -0.612372435695795 -0.5
outer loop
vertex -19.993717170829 -52.480668191663 9.99999999999999
vertex -24.5192005704229 -49.7229517450355 12.1650635094611
vertex -24.5192005704229 -47.9551847920691 9.99999999999998
endloop
endfacet
facet normal -0.612372435695794 -0.612372435695795 -0.5
outer loop
vertex -24.5192005704229 -49.7229517450355 12.1650635094611
vertex -19.993717170829 -52.480668191663 9.99999999999999
vertex -20.8776006473122 -53.3645516681462 12.1650635094611
endloop
endfacet
facet normal 0.612372435695796 0.612372435695794 -0.499999999999999
outer loop
vertex -34.5601168632719 -44.9853363110856 9.99999999999998
vertex -30.034633463678 -47.7430527577131 12.1650635094611
vertex -30.034633463678 -49.5108197106795 9.99999999999998
endloop
endfacet
facet normal 0.612372435695796 0.612372435695794 -0.499999999999999
outer loop
vertex -30.034633463678 -47.7430527577131 12.1650635094611
vertex -34.5601168632719 -44.9853363110856 9.99999999999998
vertex -33.6762333867887 -44.1014528346024 12.1650635094611
endloop
endfacet
facet normal -1.96424626265201e-15 1.0 6.34540314002154e-16
outer loop
vertex -30.034633463678 -51.4907186980019 0.0
vertex -28.0547344763557 -51.4907186980018 9.99999999999999
vertex -24.5192005704229 -51.4907186980018 0.0
endloop
endfacet
facet normal -1.96424626265201e-15 1.0 6.34540314002154e-16
outer loop
vertex -28.0547344763557 -51.4907186980018 9.99999999999999
vertex -30.034633463678 -51.4907186980019 0.0
vertex -30.034633463678 -51.4907186980018 30.4346717087976
endloop
endfacet
facet normal -1.96424626265201e-15 1.0 6.34540314002154e-16
outer loop
vertex -24.5192005704229 -51.4907186980018 0.0
vertex -28.0547344763557 -51.4907186980018 9.99999999999999
vertex -26.2869675233893 -51.4907186980018 7.83493649053888
endloop
endfacet
facet normal -1.96424626265201e-15 1.0 6.34540314002154e-16
outer loop
vertex -28.0547344763557 -51.4907186980018 9.99999999999999
vertex -30.034633463678 -51.4907186980018 30.4346717087976
vertex -26.2869675233893 -51.4907186980018 12.1650635094611
endloop
endfacet
facet normal -1.96424626265201e-15 1.0 6.34540314002154e-16
outer loop
vertex -60.4693051724756 -51.4907186980018 30.4346717087976
vertex -51.7193051724756 -51.4907186980019 32.8882424235735
vertex -30.034633463678 -51.4907186980018 30.4346717087976
endloop
endfacet
facet normal -1.96424626265201e-15 1.0 6.34540314002154e-16
outer loop
vertex -51.7193051724756 -51.4907186980019 32.8882424235735
vertex -60.4693051724756 -51.4907186980018 30.4346717087976
vertex -60.4693051724756 -51.4907186980019 35.9501046020526
endloop
endfacet
facet normal -1.96424626265201e-15 1.0 6.34540314002154e-16
outer loop
vertex -30.034633463678 -51.4907186980018 30.4346717087976
vertex -51.7193051724756 -51.4907186980019 32.8882424235735
vertex -49.2193051724756 -51.4907186980019 32.8882424235735
endloop
endfacet
facet normal -1.96424626265201e-15 1.0 6.34540314002154e-16
outer loop
vertex -51.7193051724756 -51.4907186980019 32.8882424235735
vertex -60.4693051724756 -51.4907186980019 35.9501046020526
vertex -52.9693051724756 -51.4907186980019 35.9501046020526
endloop
endfacet
facet normal -1.96424626265201e-15 1.0 6.34540314002154e-16
outer loop
vertex -26.2869675233893 -51.4907186980018 12.1650635094611
vertex -24.5192005704229 -51.4907186980018 42.3847763108502
vertex -24.5192005704229 -51.4907186980018 12.1650635094611
endloop
endfacet
facet normal -1.96424626265201e-15 1.0 6.34540314002154e-16
outer loop
vertex -24.5192005704229 -51.4907186980018 42.3847763108502
vertex -26.2869675233893 -51.4907186980018 12.1650635094611
vertex -30.034633463678 -51.4907186980018 30.4346717087976
endloop
endfacet
facet normal -1.96424626265201e-15 1.0 6.34540314002154e-16
outer loop
vertex -24.5192005704229 -51.4907186980018 42.3847763108502
vertex -30.034633463678 -51.4907186980018 30.4346717087976
vertex -30.034633463678 -51.4907186980018 35.9501046020526
endloop
endfacet
facet normal -1.96424626265201e-15 1.0 6.34540314002154e-16
outer loop
vertex -30.034633463678 -51.4907186980018 35.9501046020526
vertex -30.034633463678 -51.4907186980018 30.4346717087976
vertex -49.2193051724756 -51.4907186980019 32.8882424235735
endloop
endfacet
facet normal -1.96424626265201e-15 1.0 6.34540314002154e-16
outer loop
vertex -30.034633463678 -51.4907186980018 35.9501046020526
vertex -49.2193051724756 -51.4907186980019 32.8882424235735
vertex -47.9693051724756 -51.4907186980019 35.9501046020526
endloop
endfacet
facet normal -1.96424626265201e-15 1.0 6.34540314002154e-16
outer loop
vertex -24.5192005704229 -51.4907186980018 42.3847763108502
vertex -30.034633463678 -51.4907186980018 35.9501046020526
vertex -30.034633463678 -51.4907186980019 42.3847763108502
endloop
endfacet
facet normal -1.96424626265201e-15 1.0 6.34540314002154e-16
outer loop
vertex -24.5192005704229 -51.4907186980018 7.83493649053888
vertex -24.5192005704229 -51.4907186980018 0.0
vertex -26.2869675233893 -51.4907186980018 7.83493649053888
endloop
endfacet
facet normal 0.866025403784441 0.353553390593275 0.353553390593268
outer loop
vertex -51.7193051724756 -51.4907186980019 32.8882424235735
vertex -52.9693051724756 -54.2484351446294 38.7078210486802
vertex -51.7193051724756 -55.7793662338689 37.1768899594407
endloop
endfacet
facet normal 0.866025403784441 0.353553390593275 0.353553390593268
outer loop
vertex -52.9693051724756 -54.2484351446294 38.7078210486802
vertex -51.7193051724756 -51.4907186980019 32.8882424235735
vertex -52.9693051724756 -51.4907186980019 35.9501046020526
endloop
endfacet
facet normal -0.866025403784445 0.353553390593274 0.353553390593258
outer loop
vertex -47.9693051724756 -45.9752858047469 30.4346717087975
vertex -49.2193051724756 -44.748500447359 26.1460241729304
vertex -49.2193051724756 -49.037147983226 30.4346717087975
endloop
endfacet
facet normal -0.866025403784445 0.353553390593274 0.353553390593258
outer loop
vertex -49.2193051724756 -44.748500447359 26.1460241729304
vertex -47.9693051724756 -45.9752858047469 30.4346717087975
vertex -47.9693051724756 -43.2175693581195 27.6769552621699
endloop
endfacet
facet normal -0.866025403784432 -0.353553390593289 -0.353553390593275
outer loop
vertex -49.2193051724756 -45.9752858047468 33.4965338872763
vertex -47.9693051724756 -43.2175693581195 27.6769552621699
vertex -47.9693051724756 -45.9752858047469 30.4346717087975
endloop
endfacet
facet normal -0.866025403784432 -0.353553390593289 -0.353553390593275
outer loop
vertex -47.9693051724756 -43.2175693581195 27.6769552621699
vertex -49.2193051724756 -45.9752858047468 33.4965338872763
vertex -49.2193051724756 -41.6866382688799 29.2078863514094
endloop
endfacet
facet normal 6.33100531653192e-17 -0.707106781186557 -0.707106781186538
outer loop
vertex -49.2193051724756 -45.9752858047468 33.4965338872763
vertex -51.7193051724756 -41.6866382688799 29.2078863514094
vertex -49.2193051724756 -41.6866382688799 29.2078863514094
endloop
endfacet
facet normal 6.33100531653192e-17 -0.707106781186557 -0.707106781186538
outer loop
vertex -51.7193051724756 -41.6866382688799 29.2078863514094
vertex -49.2193051724756 -45.9752858047468 33.4965338872763
vertex -51.7193051724756 -45.9752858047468 33.4965338872763
endloop
endfacet
facet normal 8.23030691148527e-16 0.707106781186556 0.707106781186539
outer loop
vertex -51.7193051724756 -51.4907186980019 32.8882424235735
vertex -49.2193051724756 -55.7793662338689 37.1768899594407
vertex -49.2193051724756 -51.4907186980019 32.8882424235735
endloop
endfacet
facet normal 8.23030691148527e-16 0.707106781186556 0.707106781186539
outer loop
vertex -49.2193051724756 -55.7793662338689 37.1768899594407
vertex -51.7193051724756 -51.4907186980019 32.8882424235735
vertex -51.7193051724756 -55.7793662338689 37.1768899594407
endloop
endfacet
facet normal 0.866025403784438 -0.353553390593278 -0.353553390593271
outer loop
vertex -52.9693051724756 -51.4907186980019 35.9501046020526
vertex -51.7193051724756 -52.7175040553899 40.2387521379196
vertex -52.9693051724756 -54.2484351446294 38.7078210486802
endloop
endfacet
facet normal 0.866025403784438 -0.353553390593278 -0.353553390593271
outer loop
vertex -51.7193051724756 -52.7175040553899 40.2387521379196
vertex -52.9693051724756 -51.4907186980019 35.9501046020526
vertex -51.7193051724756 -48.428856519523 35.9501046020526
endloop
endfacet
facet normal -0.353553390593273 -0.866025403784439 0.353553390593273
outer loop
vertex -20.230553034556 -24.2906140959492 37.1768899594407
vertex -24.5192005704229 -23.0406140959492 35.9501046020527
vertex -24.5192005704229 -24.2906140959492 32.8882424235737
endloop
endfacet
facet normal -0.353553390593273 -0.866025403784439 0.353553390593273
outer loop
vertex -24.5192005704229 -23.0406140959492 35.9501046020527
vertex -20.230553034556 -24.2906140959492 37.1768899594407
vertex -21.7614841237954 -23.0406140959492 38.7078210486801
endloop
endfacet
facet normal 0.353553390593271 0.86602540378444 -0.353553390593274
outer loop
vertex -34.3232809995451 -26.7906140959492 29.2078863514096
vertex -30.034633463678 -28.0406140959492 30.4346717087976
vertex -32.7923499103056 -28.0406140959492 27.6769552621701
endloop
endfacet
facet normal 0.353553390593271 0.86602540378444 -0.353553390593274
outer loop
vertex -30.034633463678 -28.0406140959492 30.4346717087976
vertex -34.3232809995451 -26.7906140959492 29.2078863514096
vertex -30.034633463678 -26.7906140959492 33.4965338872766
endloop
endfacet
facet normal 0.707106781186545 -6.33100531652939e-17 -0.70710678118655
outer loop
vertex -30.034633463678 -24.2906140959492 33.4965338872766
vertex -34.3232809995451 -26.7906140959492 29.2078863514096
vertex -34.3232809995451 -24.2906140959492 29.2078863514096
endloop
endfacet
facet normal 0.707106781186545 -6.33100531652939e-17 -0.70710678118655
outer loop
vertex -34.3232809995451 -26.7906140959492 29.2078863514096
vertex -30.034633463678 -24.2906140959492 33.4965338872766
vertex -30.034633463678 -26.7906140959492 33.4965338872766
endloop
endfacet
facet normal -3.91686605947801e-15 -1.38925579851846e-16 1.0
outer loop
vertex -24.5192005704229 -45.9752858047468 30.4346717087976
vertex -30.034633463678 -28.0406140959492 30.4346717087976
vertex -30.034633463678 -45.9752858047468 30.4346717087976
endloop
endfacet
facet normal -3.91686605947801e-15 -1.38925579851846e-16 1.0
outer loop
vertex -30.034633463678 -28.0406140959492 30.4346717087976
vertex -24.5192005704229 -45.9752858047468 30.4346717087976
vertex -26.972771285199 -26.7906140959492 30.4346717087976
endloop
endfacet
facet normal -3.91686605947801e-15 -1.38925579851846e-16 1.0
outer loop
vertex -26.9727712851991 -24.2906140959492 30.4346717087976
vertex -30.034633463678 -15.5406140959492 30.4346717087976
vertex -30.034633463678 -23.0406140959492 30.4346717087976
endloop
endfacet
facet normal -3.91686605947801e-15 -1.38925579851846e-16 1.0
outer loop
vertex -30.034633463678 -15.5406140959492 30.4346717087976
vertex -26.9727712851991 -24.2906140959492 30.4346717087976
vertex -24.5192005704229 -15.5406140959492 30.4346717087976
endloop
endfacet
facet normal -3.91686605947801e-15 -1.38925579851846e-16 1.0
outer loop
vertex -24.5192005704229 -15.5406140959492 30.4346717087976
vertex -26.9727712851991 -24.2906140959492 30.4346717087976
vertex -26.972771285199 -26.7906140959492 30.4346717087976
endloop
endfacet
facet normal -3.91686605947801e-15 -1.38925579851846e-16 1.0
outer loop
vertex -24.5192005704229 -15.5406140959492 30.4346717087976
vertex -26.972771285199 -26.7906140959492 30.4346717087976
vertex -24.5192005704229 -45.9752858047468 30.4346717087976
endloop
endfacet
facet normal -0.353553390593272 0.866025403784439 0.353553390593275
outer loop
vertex -24.5192005704229 -28.0406140959492 35.9501046020527
vertex -20.230553034556 -26.7906140959492 37.1768899594407
vertex -24.5192005704229 -26.7906140959492 32.8882424235737
endloop
endfacet
facet normal -0.353553390593272 0.866025403784439 0.353553390593275
outer loop
vertex -20.230553034556 -26.7906140959492 37.1768899594407
vertex -24.5192005704229 -28.0406140959492 35.9501046020527
vertex -21.7614841237954 -28.0406140959492 38.7078210486801
endloop
endfacet
facet normal 0.866025403784445 0.353553390593273 0.353553390593258
outer loop
vertex -51.7193051724756 -44.748500447359 26.1460241729304
vertex -52.9693051724756 -45.9752858047469 30.4346717087975
vertex -51.7193051724756 -49.037147983226 30.4346717087975
endloop
endfacet
facet normal 0.866025403784445 0.353553390593273 0.353553390593258
outer loop
vertex -52.9693051724756 -45.9752858047469 30.4346717087975
vertex -51.7193051724756 -44.748500447359 26.1460241729304
vertex -52.9693051724756 -43.2175693581195 27.6769552621699
endloop
endfacet
facet normal 1.47000001224303e-15 4.85034273821777e-16 -1.0
outer loop
vertex -30.034633463678 -15.5406140959492 35.9501046020527
vertex -27.5810627489019 -24.2906140959492 35.9501046020527
vertex -30.034633463678 -45.9752858047468 35.9501046020526
endloop
endfacet
facet normal 1.47000001224303e-15 4.85034273821777e-16 -1.0
outer loop
vertex -27.5810627489019 -24.2906140959492 35.9501046020527
vertex -30.034633463678 -15.5406140959492 35.9501046020527
vertex -24.5192005704229 -15.5406140959492 35.9501046020527
endloop
endfacet
facet normal 1.47000001224303e-15 4.85034273821777e-16 -1.0
outer loop
vertex -27.5810627489019 -24.2906140959492 35.9501046020527
vertex -24.5192005704229 -15.5406140959492 35.9501046020527
vertex -24.5192005704229 -23.0406140959492 35.9501046020527
endloop
endfacet
facet normal 1.47000001224303e-15 4.85034273821777e-16 -1.0
outer loop
vertex -30.034633463678 -45.9752858047468 35.9501046020526
vertex -27.5810627489019 -26.7906140959492 35.9501046020527
vertex -24.519200570423 -45.9752858047468 35.9501046020526
endloop
endfacet
facet normal 1.47000001224303e-15 4.85034273821777e-16 -1.0
outer loop
vertex -27.5810627489019 -26.7906140959492 35.9501046020527
vertex -30.034633463678 -45.9752858047468 35.9501046020526
vertex -27.5810627489019 -24.2906140959492 35.9501046020527
endloop
endfacet
facet normal 1.47000001224303e-15 4.85034273821777e-16 -1.0
outer loop
vertex -24.519200570423 -45.9752858047468 35.9501046020526
vertex -27.5810627489019 -26.7906140959492 35.9501046020527
vertex -24.5192005704229 -28.0406140959492 35.9501046020527
endloop
endfacet
endsolid Tube Joint
