solid K02.2
facet normal 0.258819045102507 -0.965925826289072 -4.67392187492174e-14
outer loop
vertex 320.164224449547 315.320138093728 436.100346617569
vertex 319.633626348773 315.100357164218 433.600346617568
vertex 320.164224449547 315.320138093728 433.600346617568
endloop
endfacet
facet normal 0.500000000000015 -0.86602540378443 -4.19052371188449e-14
outer loop
vertex 319.633626348773 315.100357164218 433.600346617568
vertex 320.164224449547 315.320138093728 436.100346617569
vertex 319.633626348773 315.100357164218 436.100346617569
endloop
endfacet
facet normal 2.66999606799488e-15 1.0 4.25925545557282e-14
outer loop
vertex 320.733626348773 319.195101275893 431.100346617569
vertex 337.632326785683 319.195101275892 436.100346617569
vertex 337.632326785683 319.195101275893 431.100346617568
endloop
endfacet
facet normal 2.66999606799488e-15 1.0 4.25925545557282e-14
outer loop
vertex 337.632326785683 319.195101275892 436.100346617569
vertex 320.733626348773 319.195101275893 431.100346617569
vertex 320.733626348773 319.195101275892 436.100346617569
endloop
endfacet
facet normal 0.96592582628907 0.258819045102513 1.25237359187141e-14
outer loop
vertex 335.507289967847 312.625699376667 433.600346617568
vertex 335.432326785683 313.195101275892 436.100346617569
vertex 335.507289967847 312.625699376667 436.100346617569
endloop
endfacet
facet normal 1.0 3.38354842737777e-14 1.77592206080953e-27
outer loop
vertex 335.432326785683 313.195101275892 436.100346617569
vertex 335.507289967847 312.625699376667 433.600346617568
vertex 335.432326785683 313.195101275893 433.600346617568
endloop
endfacet
facet normal -1.0 7.49424342223906e-15 2.23383236970011e-28
outer loop
vertex 339.832326785684 313.195101275892 436.100346617569
vertex 339.757363603519 312.625699376667 433.600346617568
vertex 339.757363603519 312.625699376667 436.100346617569
endloop
endfacet
facet normal -0.965925826289073 0.258819045102501 1.25237359187133e-14
outer loop
vertex 339.757363603519 312.625699376667 433.600346617568
vertex 339.832326785684 313.195101275892 436.100346617569
vertex 339.832326785683 313.195101275893 433.600346617568
endloop
endfacet
facet normal 0.866025403784432 0.500000000000012 1.98856030953374e-14
outer loop
vertex 342.82847920839 316.195101275893 431.100346617569
vertex 341.874967472803 317.437741963012 436.100346617569
vertex 342.82847920839 316.195101275892 436.100346617569
endloop
endfacet
facet normal 0.707106781186545 0.70710678118655 2.8965673507577e-14
outer loop
vertex 341.874967472803 317.437741963012 436.100346617569
vertex 342.82847920839 316.195101275893 431.100346617569
vertex 341.874967472803 317.437741963012 431.100346617569
endloop
endfacet
facet normal 0.258819045102505 -0.965925826289073 -4.67392187492174e-14
outer loop
vertex 337.062924886458 315.320138093728 436.100346617568
vertex 336.532326785683 315.100357164218 433.600346617568
vertex 337.062924886458 315.320138093728 433.600346617568
endloop
endfacet
facet normal 0.500000000000016 -0.866025403784429 -4.19052371188449e-14
outer loop
vertex 336.532326785683 315.100357164218 433.600346617568
vertex 337.062924886458 315.320138093728 436.100346617568
vertex 336.532326785683 315.100357164218 436.100346617568
endloop
endfacet
facet normal 0.866025403784438 -0.500000000000002 3.90746017873139e-14
outer loop
vertex 316.733626348773 313.195101275893 431.100346617568
vertex 318.733626348773 316.65920289103 433.600346617568
vertex 316.733626348773 313.195101275892 433.600346617568
endloop
endfacet
facet normal 0.866025403784438 -0.500000000000002 3.90746017873139e-14
outer loop
vertex 318.733626348773 316.65920289103 433.600346617568
vertex 316.733626348773 313.195101275893 431.100346617568
vertex 318.733626348773 316.65920289103 431.100346617568
endloop
endfacet
facet normal 0.86602540378443 -0.500000000000014 -2.41939999310211e-14
outer loop
vertex 335.727070897358 314.295101275893 433.600346617568
vertex 336.076691867073 314.750736194503 436.100346617568
vertex 335.727070897358 314.295101275892 436.100346617568
endloop
endfacet
facet normal 0.707106781186531 -0.707106781186564 -3.42154828305036e-14
outer loop
vertex 336.076691867073 314.750736194503 436.100346617568
vertex 335.727070897358 314.295101275893 433.600346617568
vertex 336.076691867073 314.750736194503 433.600346617568
endloop
endfacet
facet normal -0.500000000000016 0.866025403784429 4.19052371188449e-14
outer loop
vertex 338.732326785683 311.289845387567 436.100346617568
vertex 339.187961704294 311.639466357282 433.600346617568
vertex 338.732326785683 311.289845387567 433.600346617568
endloop
endfacet
facet normal -0.707106781186531 0.707106781186564 3.42154828305036e-14
outer loop
vertex 339.187961704294 311.639466357282 433.600346617568
vertex 338.732326785683 311.289845387567 436.100346617568
vertex 339.187961704294 311.639466357282 436.100346617568
endloop
endfacet
facet normal -0.965925826289076 0.258819045102493 1.25237359187129e-14
outer loop
vertex 339.757363603519 312.625699376667 436.100346617569
vertex 339.537582674009 312.095101275892 433.600346617568
vertex 339.537582674009 312.095101275892 436.100346617568
endloop
endfacet
facet normal -0.866025403784421 0.500000000000031 2.41939999310219e-14
outer loop
vertex 339.537582674009 312.095101275892 433.600346617568
vertex 339.757363603519 312.625699376667 436.100346617569
vertex 339.757363603519 312.625699376667 433.600346617568
endloop
endfacet
facet normal -0.258819045102502 -0.965925826289073 -4.67392187492175e-14
outer loop
vertex 338.201728684909 315.320138093728 436.100346617568
vertex 337.632326785683 315.395101275893 433.600346617568
vertex 338.201728684909 315.320138093728 433.600346617568
endloop
endfacet
facet normal 5.99717695977039e-15 -1.0 -4.8387999862041e-14
outer loop
vertex 337.632326785683 315.395101275893 433.600346617568
vertex 338.201728684909 315.320138093728 436.100346617568
vertex 337.632326785683 315.395101275892 436.100346617568
endloop
endfacet
facet normal 0.965925826289069 -0.258819045102519 -1.25237359187141e-14
outer loop
vertex 335.507289967847 313.764503175118 433.600346617568
vertex 335.727070897358 314.295101275892 436.100346617568
vertex 335.507289967847 313.764503175118 436.100346617568
endloop
endfacet
facet normal 0.866025403784424 -0.500000000000025 -2.41939999310216e-14
outer loop
vertex 335.727070897358 314.295101275892 436.100346617568
vertex 335.507289967847 313.764503175118 433.600346617568
vertex 335.727070897358 314.295101275893 433.600346617568
endloop
endfacet
facet normal -2.64454093225209e-27 1.0 3.90746017873142e-14
outer loop
vertex 318.733626348773 309.730999660755 433.600346617568
vertex 322.733626348773 309.730999660755 431.100346617568
vertex 318.733626348773 309.730999660755 431.100346617568
endloop
endfacet
facet normal -2.64454093225209e-27 1.0 3.90746017873142e-14
outer loop
vertex 322.733626348773 309.730999660755 431.100346617568
vertex 318.733626348773 309.730999660755 433.600346617568
vertex 322.733626348773 309.730999660755 433.600346617568
endloop
endfacet
facet normal 0.707106781186571 0.707106781186524 3.42154828305019e-14
outer loop
vertex 336.076691867073 311.639466357282 433.600346617568
vertex 335.727070897358 312.095101275892 436.100346617568
vertex 336.076691867073 311.639466357282 436.100346617568
endloop
endfacet
facet normal 0.866025403784428 0.500000000000018 2.41939999310215e-14
outer loop
vertex 335.727070897358 312.095101275892 436.100346617568
vertex 336.076691867073 311.639466357282 433.600346617568
vertex 335.727070897358 312.095101275893 433.600346617568
endloop
endfacet
facet normal 0.965925826289067 -0.258819045102524 -1.57217178368501e-14
outer loop
vertex 343.427881743418 311.642187005277 431.100346617568
vertex 343.632326785684 313.195101275892 436.100346617568
vertex 343.427881743418 311.642187005277 436.100346617568
endloop
endfacet
facet normal 0.991444861373811 -0.130526192220045 -1.24812600182036e-14
outer loop
vertex 343.632326785684 313.195101275892 436.100346617568
vertex 343.427881743418 311.642187005277 431.100346617568
vertex 343.632326785683 313.195101275893 431.100346617568
endloop
endfacet
facet normal 9.02389274415329e-14 0.0 -1.0
outer loop
vertex 335.632326785683 316.65920289103 433.600346617568
vertex 335.432326785683 313.195101275893 433.600346617568
vertex 333.632326785683 313.195101275893 433.600346617568
endloop
endfacet
facet normal 9.02389274415329e-14 0.0 -1.0
outer loop
vertex 335.432326785683 313.195101275893 433.600346617568
vertex 335.632326785683 316.65920289103 433.600346617568
vertex 335.507289967847 313.764503175118 433.600346617568
endloop
endfacet
facet normal 9.02389274415329e-14 0.0 -1.0
outer loop
vertex 335.507289967847 313.764503175118 433.600346617568
vertex 335.632326785683 316.65920289103 433.600346617568
vertex 335.727070897358 314.295101275893 433.600346617568
endloop
endfacet
facet normal 9.02389274415329e-14 0.0 -1.0
outer loop
vertex 335.727070897358 314.295101275893 433.600346617568
vertex 335.632326785683 316.65920289103 433.600346617568
vertex 336.076691867073 314.750736194503 433.600346617568
endloop
endfacet
facet normal 9.02389274415329e-14 0.0 -1.0
outer loop
vertex 336.076691867073 314.750736194503 433.600346617568
vertex 335.632326785683 316.65920289103 433.600346617568
vertex 336.532326785683 315.100357164218 433.600346617568
endloop
endfacet
facet normal 9.02389274415329e-14 0.0 -1.0
outer loop
vertex 336.532326785683 315.100357164218 433.600346617568
vertex 335.632326785683 316.65920289103 433.600346617568
vertex 339.632326785683 316.65920289103 433.600346617568
endloop
endfacet
facet normal 9.02389274415329e-14 0.0 -1.0
outer loop
vertex 336.532326785683 315.100357164218 433.600346617568
vertex 339.632326785683 316.65920289103 433.600346617568
vertex 337.062924886458 315.320138093728 433.600346617568
endloop
endfacet
facet normal 9.02389274415329e-14 0.0 -1.0
outer loop
vertex 337.062924886458 315.320138093728 433.600346617568
vertex 339.632326785683 316.65920289103 433.600346617568
vertex 337.632326785683 315.395101275893 433.600346617568
endloop
endfacet
facet normal 9.02389274415329e-14 0.0 -1.0
outer loop
vertex 337.632326785683 315.395101275893 433.600346617568
vertex 339.632326785683 316.65920289103 433.600346617568
vertex 338.201728684909 315.320138093728 433.600346617568
endloop
endfacet
facet normal 9.02389274415329e-14 0.0 -1.0
outer loop
vertex 338.201728684909 315.320138093728 433.600346617568
vertex 339.632326785683 316.65920289103 433.600346617568
vertex 338.732326785683 315.100357164218 433.600346617568
endloop
endfacet
facet normal 9.02389274415329e-14 0.0 -1.0
outer loop
vertex 338.732326785683 315.100357164218 433.600346617568
vertex 339.632326785683 316.65920289103 433.600346617568
vertex 339.187961704294 314.750736194503 433.600346617568
endloop
endfacet
facet normal 9.02389274415329e-14 0.0 -1.0
outer loop
vertex 339.187961704294 314.750736194503 433.600346617568
vertex 339.632326785683 316.65920289103 433.600346617568
vertex 339.537582674009 314.295101275892 433.600346617568
endloop
endfacet
facet normal 9.02389274415329e-14 0.0 -1.0
outer loop
vertex 339.537582674009 314.295101275892 433.600346617568
vertex 339.632326785683 316.65920289103 433.600346617568
vertex 339.757363603519 313.764503175118 433.600346617568
endloop
endfacet
facet normal 9.02389274415329e-14 0.0 -1.0
outer loop
vertex 339.757363603519 313.764503175118 433.600346617568
vertex 339.632326785683 316.65920289103 433.600346617568
vertex 341.632326785683 313.195101275893 433.600346617568
endloop
endfacet
facet normal 9.02389274415329e-14 0.0 -1.0
outer loop
vertex 339.757363603519 313.764503175118 433.600346617568
vertex 341.632326785683 313.195101275893 433.600346617568
vertex 339.832326785683 313.195101275893 433.600346617568
endloop
endfacet
facet normal 9.02389274415329e-14 0.0 -1.0
outer loop
vertex 335.432326785683 313.195101275893 433.600346617568
vertex 335.632326785683 309.730999660755 433.600346617568
vertex 333.632326785683 313.195101275893 433.600346617568
endloop
endfacet
facet normal 9.02389274415329e-14 0.0 -1.0
outer loop
vertex 335.632326785683 309.730999660755 433.600346617568
vertex 335.432326785683 313.195101275893 433.600346617568
vertex 335.507289967847 312.625699376667 433.600346617568
endloop
endfacet
facet normal 9.02389274415329e-14 0.0 -1.0
outer loop
vertex 335.632326785683 309.730999660755 433.600346617568
vertex 335.507289967847 312.625699376667 433.600346617568
vertex 335.727070897358 312.095101275893 433.600346617568
endloop
endfacet
facet normal 9.02389274415329e-14 0.0 -1.0
outer loop
vertex 335.632326785683 309.730999660755 433.600346617568
vertex 335.727070897358 312.095101275893 433.600346617568
vertex 336.076691867073 311.639466357282 433.600346617568
endloop
endfacet
facet normal 9.02389274415329e-14 0.0 -1.0
outer loop
vertex 335.632326785683 309.730999660755 433.600346617568
vertex 336.076691867073 311.639466357282 433.600346617568
vertex 336.532326785683 311.289845387567 433.600346617568
endloop
endfacet
facet normal 9.02389274415329e-14 0.0 -1.0
outer loop
vertex 335.632326785683 309.730999660755 433.600346617568
vertex 336.532326785683 311.289845387567 433.600346617568
vertex 339.632326785683 309.730999660755 433.600346617568
endloop
endfacet
facet normal 9.02389274415329e-14 0.0 -1.0
outer loop
vertex 339.632326785683 309.730999660755 433.600346617568
vertex 336.532326785683 311.289845387567 433.600346617568
vertex 337.062924886458 311.070064458057 433.600346617568
endloop
endfacet
facet normal 9.02389274415329e-14 0.0 -1.0
outer loop
vertex 339.632326785683 309.730999660755 433.600346617568
vertex 337.062924886458 311.070064458057 433.600346617568
vertex 337.632326785683 310.995101275893 433.600346617568
endloop
endfacet
facet normal 9.02389274415329e-14 0.0 -1.0
outer loop
vertex 339.632326785683 309.730999660755 433.600346617568
vertex 337.632326785683 310.995101275893 433.600346617568
vertex 338.201728684909 311.070064458057 433.600346617568
endloop
endfacet
facet normal 9.02389274415329e-14 0.0 -1.0
outer loop
vertex 339.632326785683 309.730999660755 433.600346617568
vertex 338.201728684909 311.070064458057 433.600346617568
vertex 338.732326785683 311.289845387567 433.600346617568
endloop
endfacet
facet normal 9.02389274415329e-14 0.0 -1.0
outer loop
vertex 339.632326785683 309.730999660755 433.600346617568
vertex 338.732326785683 311.289845387567 433.600346617568
vertex 339.187961704294 311.639466357282 433.600346617568
endloop
endfacet
facet normal 9.02389274415329e-14 0.0 -1.0
outer loop
vertex 339.632326785683 309.730999660755 433.600346617568
vertex 339.187961704294 311.639466357282 433.600346617568
vertex 339.537582674009 312.095101275892 433.600346617568
endloop
endfacet
facet normal 9.02389274415329e-14 0.0 -1.0
outer loop
vertex 339.632326785683 309.730999660755 433.600346617568
vertex 339.537582674009 312.095101275892 433.600346617568
vertex 339.757363603519 312.625699376667 433.600346617568
endloop
endfacet
facet normal 9.02389274415329e-14 0.0 -1.0
outer loop
vertex 339.632326785683 309.730999660755 433.600346617568
vertex 339.757363603519 312.625699376667 433.600346617568
vertex 341.632326785683 313.195101275893 433.600346617568
endloop
endfacet
facet normal 9.02389274415329e-14 0.0 -1.0
outer loop
vertex 341.632326785683 313.195101275893 433.600346617568
vertex 339.757363603519 312.625699376667 433.600346617568
vertex 339.832326785683 313.195101275893 433.600346617568
endloop
endfacet
facet normal 3.1793162332159e-34 -1.0 0.0
outer loop
vertex 339.632326785683 316.65920289103 431.100346617568
vertex 335.632326785683 316.65920289103 433.600346617568
vertex 335.632326785683 316.65920289103 431.100346617568
endloop
endfacet
facet normal 3.1793162332159e-34 -1.0 0.0
outer loop
vertex 335.632326785683 316.65920289103 433.600346617568
vertex 339.632326785683 316.65920289103 431.100346617568
vertex 339.632326785683 316.65920289103 433.600346617568
endloop
endfacet
facet normal -3.1793162332159e-34 1.0 0.0
outer loop
vertex 335.632326785683 309.730999660755 433.600346617568
vertex 339.632326785683 309.730999660755 431.100346617568
vertex 335.632326785683 309.730999660755 431.100346617568
endloop
endfacet
facet normal -3.1793162332159e-34 1.0 0.0
outer loop
vertex 339.632326785683 309.730999660755 431.100346617568
vertex 335.632326785683 309.730999660755 433.600346617568
vertex 339.632326785683 309.730999660755 433.600346617568
endloop
endfacet
facet normal -0.866025403784438 -0.500000000000002 -7.81492035746281e-14
outer loop
vertex 339.632326785683 316.65920289103 433.600346617568
vertex 341.632326785683 313.195101275893 431.100346617569
vertex 341.632326785683 313.195101275893 433.600346617568
endloop
endfacet
facet normal -0.866025403784438 -0.500000000000002 -7.81492035746281e-14
outer loop
vertex 341.632326785683 313.195101275893 431.100346617569
vertex 339.632326785683 316.65920289103 433.600346617568
vertex 339.632326785683 316.65920289103 431.100346617568
endloop
endfacet
facet normal 0.707106781186558 -0.707106781186537 -2.55256107828007e-14
outer loop
vertex 341.874967472803 308.952460588773 436.100346617568
vertex 340.632326785683 307.998948853186 431.100346617568
vertex 341.874967472803 308.952460588773 431.100346617568
endloop
endfacet
facet normal 0.499999999999992 -0.866025403784443 -2.79534792800583e-14
outer loop
vertex 340.632326785683 307.998948853186 431.100346617568
vertex 341.874967472803 308.952460588773 436.100346617568
vertex 340.632326785684 307.998948853186 436.100346617568
endloop
endfacet
facet normal 0.499999999999992 -0.866025403784443 -2.79534792800583e-14
outer loop
vertex 340.632326785683 307.998948853186 431.100346617568
vertex 339.185241056299 307.399546318158 436.100346617568
vertex 339.185241056299 307.399546318158 431.100346617568
endloop
endfacet
facet normal 0.258819045102513 -0.96592582628907 -2.84818201392916e-14
outer loop
vertex 339.185241056299 307.399546318158 436.100346617568
vertex 340.632326785683 307.998948853186 431.100346617568
vertex 340.632326785684 307.998948853186 436.100346617568
endloop
endfacet
facet normal 0.866025403784438 0.500000000000002 7.81492035746281e-14
outer loop
vertex 333.632326785684 313.195101275893 431.100346617568
vertex 335.632326785683 309.730999660755 433.600346617568
vertex 335.632326785683 309.730999660755 431.100346617568
endloop
endfacet
facet normal 0.866025403784438 0.500000000000002 7.81492035746281e-14
outer loop
vertex 335.632326785683 309.730999660755 433.600346617568
vertex 333.632326785684 313.195101275893 431.100346617568
vertex 333.632326785683 313.195101275893 433.600346617568
endloop
endfacet
facet normal 0.707106781186554 -0.70710678118654 -2.55256107828007e-14
outer loop
vertex 341.874967472803 308.952460588773 431.100346617568
vertex 342.82847920839 310.195101275892 436.100346617568
vertex 341.874967472803 308.952460588773 436.100346617568
endloop
endfacet
facet normal 0.866025403784438 -0.500000000000001 -2.13516510790393e-14
outer loop
vertex 342.82847920839 310.195101275892 436.100346617568
vertex 341.874967472803 308.952460588773 431.100346617568
vertex 342.82847920839 310.195101275893 431.100346617568
endloop
endfacet
facet normal -1.44905723000354e-15 -6.36736412989974e-14 1.0
outer loop
vertex 314.938071391038 311.642187005277 436.100346617568
vertex 314.938071391038 314.748015546507 436.100346617569
vertex 314.733626348773 313.195101275892 436.100346617568
endloop
endfacet
facet normal -1.44905723000354e-15 -6.36736412989974e-14 1.0
outer loop
vertex 314.938071391038 314.748015546507 436.100346617569
vertex 314.938071391038 311.642187005277 436.100346617568
vertex 315.537473926066 310.195101275892 436.100346617568
endloop
endfacet
facet normal -1.44905723000354e-15 -6.36736412989974e-14 1.0
outer loop
vertex 314.938071391038 314.748015546507 436.100346617569
vertex 315.537473926066 310.195101275892 436.100346617568
vertex 315.537473926066 316.195101275892 436.100346617569
endloop
endfacet
facet normal -1.44905723000354e-15 -6.36736412989974e-14 1.0
outer loop
vertex 315.537473926066 316.195101275892 436.100346617569
vertex 315.537473926066 310.195101275892 436.100346617568
vertex 316.490985661654 308.952460588773 436.100346617568
endloop
endfacet
facet normal -1.44905723000354e-15 -6.36736412989974e-14 1.0
outer loop
vertex 315.537473926066 316.195101275892 436.100346617569
vertex 316.490985661654 308.952460588773 436.100346617568
vertex 316.490985661654 317.437741963012 436.100346617569
endloop
endfacet
facet normal -1.44905723000354e-15 -6.36736412989974e-14 1.0
outer loop
vertex 316.490985661654 317.437741963012 436.100346617569
vertex 316.490985661654 308.952460588773 436.100346617568
vertex 317.733626348773 307.998948853186 436.100346617568
endloop
endfacet
facet normal -1.44905723000354e-15 -6.36736412989974e-14 1.0
outer loop
vertex 316.490985661654 317.437741963012 436.100346617569
vertex 317.733626348773 307.998948853186 436.100346617568
vertex 317.733626348773 318.391253698599 436.100346617569
endloop
endfacet
facet normal -1.44905723000354e-15 -6.36736412989974e-14 1.0
outer loop
vertex 317.733626348773 318.391253698599 436.100346617569
vertex 317.733626348773 307.998948853186 436.100346617568
vertex 319.180712078158 307.399546318158 436.100346617568
endloop
endfacet
facet normal -1.44905723000354e-15 -6.36736412989974e-14 1.0
outer loop
vertex 317.733626348773 318.391253698599 436.100346617569
vertex 319.180712078158 307.399546318158 436.100346617568
vertex 318.533626348773 313.195101275892 436.100346617568
endloop
endfacet
facet normal -1.44905723000354e-15 -6.36736412989974e-14 1.0
outer loop
vertex 318.533626348773 313.195101275892 436.100346617568
vertex 319.180712078158 307.399546318158 436.100346617568
vertex 318.608589530937 312.625699376667 436.100346617569
endloop
endfacet
facet normal -1.44905723000354e-15 -6.36736412989974e-14 1.0
outer loop
vertex 318.608589530937 312.625699376667 436.100346617569
vertex 319.180712078158 307.399546318158 436.100346617568
vertex 318.828370460447 312.095101275892 436.100346617568
endloop
endfacet
facet normal -1.44905723000354e-15 -6.36736412989974e-14 1.0
outer loop
vertex 318.828370460447 312.095101275892 436.100346617568
vertex 319.180712078158 307.399546318158 436.100346617568
vertex 319.177991430163 311.639466357282 436.100346617568
endloop
endfacet
facet normal -1.44905723000354e-15 -6.36736412989974e-14 1.0
outer loop
vertex 319.177991430163 311.639466357282 436.100346617568
vertex 319.180712078158 307.399546318158 436.100346617568
vertex 319.633626348773 311.289845387567 436.100346617568
endloop
endfacet
facet normal -1.44905723000354e-15 -6.36736412989974e-14 1.0
outer loop
vertex 319.633626348773 311.289845387567 436.100346617568
vertex 319.180712078158 307.399546318158 436.100346617568
vertex 320.733626348773 307.195101275892 436.100346617568
endloop
endfacet
facet normal -1.44905723000354e-15 -6.36736412989974e-14 1.0
outer loop
vertex 319.633626348773 311.289845387567 436.100346617568
vertex 320.733626348773 307.195101275892 436.100346617568
vertex 320.164224449547 311.070064458056 436.100346617568
endloop
endfacet
facet normal -1.44905723000354e-15 -6.36736412989974e-14 1.0
outer loop
vertex 320.164224449547 311.070064458056 436.100346617568
vertex 320.733626348773 307.195101275892 436.100346617568
vertex 320.733626348773 310.995101275892 436.100346617568
endloop
endfacet
facet normal -1.44905723000354e-15 -6.36736412989974e-14 1.0
outer loop
vertex 320.733626348773 310.995101275892 436.100346617568
vertex 320.733626348773 307.195101275892 436.100346617568
vertex 337.632326785684 307.195101275892 436.100346617568
endloop
endfacet
facet normal -1.44905723000354e-15 -6.36736412989974e-14 1.0
outer loop
vertex 320.733626348773 310.995101275892 436.100346617568
vertex 337.632326785684 307.195101275892 436.100346617568
vertex 321.303028247999 311.070064458056 436.100346617568
endloop
endfacet
facet normal -1.44905723000354e-15 -6.36736412989974e-14 1.0
outer loop
vertex 321.303028247999 311.070064458056 436.100346617568
vertex 337.632326785684 307.195101275892 436.100346617568
vertex 321.833626348773 311.289845387567 436.100346617568
endloop
endfacet
facet normal -1.44905723000354e-15 -6.36736412989974e-14 1.0
outer loop
vertex 321.833626348773 311.289845387567 436.100346617568
vertex 337.632326785684 307.195101275892 436.100346617568
vertex 322.289261267383 311.639466357282 436.100346617568
endloop
endfacet
facet normal -1.44905723000354e-15 -6.36736412989974e-14 1.0
outer loop
vertex 322.289261267383 311.639466357282 436.100346617568
vertex 337.632326785684 307.195101275892 436.100346617568
vertex 322.638882237099 312.095101275892 436.100346617568
endloop
endfacet
facet normal -1.44905723000354e-15 -6.36736412989974e-14 1.0
outer loop
vertex 322.638882237099 312.095101275892 436.100346617568
vertex 337.632326785684 307.195101275892 436.100346617568
vertex 322.858663166609 312.625699376667 436.100346617569
endloop
endfacet
facet normal -1.44905723000354e-15 -6.36736412989974e-14 1.0
outer loop
vertex 322.858663166609 312.625699376667 436.100346617569
vertex 337.632326785684 307.195101275892 436.100346617568
vertex 322.933626348773 313.195101275892 436.100346617569
endloop
endfacet
facet normal -1.44905723000354e-15 -6.36736412989974e-14 1.0
outer loop
vertex 322.933626348773 313.195101275892 436.100346617569
vertex 337.632326785684 307.195101275892 436.100346617568
vertex 335.507289967847 312.625699376667 436.100346617569
endloop
endfacet
facet normal -1.44905723000354e-15 -6.36736412989974e-14 1.0
outer loop
vertex 322.933626348773 313.195101275892 436.100346617569
vertex 335.507289967847 312.625699376667 436.100346617569
vertex 335.432326785683 313.195101275892 436.100346617569
endloop
endfacet
facet normal -1.44905723000354e-15 -6.36736412989974e-14 1.0
outer loop
vertex 335.507289967847 312.625699376667 436.100346617569
vertex 337.632326785684 307.195101275892 436.100346617568
vertex 335.727070897358 312.095101275892 436.100346617568
endloop
endfacet
facet normal -1.44905723000354e-15 -6.36736412989974e-14 1.0
outer loop
vertex 335.727070897358 312.095101275892 436.100346617568
vertex 337.632326785684 307.195101275892 436.100346617568
vertex 336.076691867073 311.639466357282 436.100346617568
endloop
endfacet
facet normal -1.44905723000354e-15 -6.36736412989974e-14 1.0
outer loop
vertex 336.076691867073 311.639466357282 436.100346617568
vertex 337.632326785684 307.195101275892 436.100346617568
vertex 336.532326785683 311.289845387567 436.100346617568
endloop
endfacet
facet normal -1.44905723000354e-15 -6.36736412989974e-14 1.0
outer loop
vertex 336.532326785683 311.289845387567 436.100346617568
vertex 337.632326785684 307.195101275892 436.100346617568
vertex 337.062924886458 311.070064458056 436.100346617568
endloop
endfacet
facet normal -1.44905723000354e-15 -6.36736412989974e-14 1.0
outer loop
vertex 337.062924886458 311.070064458056 436.100346617568
vertex 337.632326785684 307.195101275892 436.100346617568
vertex 337.632326785683 310.995101275892 436.100346617568
endloop
endfacet
facet normal -1.44905723000354e-15 -6.36736412989974e-14 1.0
outer loop
vertex 337.632326785683 310.995101275892 436.100346617568
vertex 337.632326785684 307.195101275892 436.100346617568
vertex 338.201728684909 311.070064458056 436.100346617568
endloop
endfacet
facet normal -1.44905723000354e-15 -6.36736412989974e-14 1.0
outer loop
vertex 338.201728684909 311.070064458056 436.100346617568
vertex 337.632326785684 307.195101275892 436.100346617568
vertex 339.185241056299 307.399546318158 436.100346617568
endloop
endfacet
facet normal -1.44905723000354e-15 -6.36736412989974e-14 1.0
outer loop
vertex 338.201728684909 311.070064458056 436.100346617568
vertex 339.185241056299 307.399546318158 436.100346617568
vertex 338.732326785683 311.289845387567 436.100346617568
endloop
endfacet
facet normal -1.44905723000354e-15 -6.36736412989974e-14 1.0
outer loop
vertex 338.732326785683 311.289845387567 436.100346617568
vertex 339.185241056299 307.399546318158 436.100346617568
vertex 339.187961704294 311.639466357282 436.100346617568
endloop
endfacet
facet normal -1.44905723000354e-15 -6.36736412989974e-14 1.0
outer loop
vertex 339.187961704294 311.639466357282 436.100346617568
vertex 339.185241056299 307.399546318158 436.100346617568
vertex 340.632326785684 307.998948853186 436.100346617568
endloop
endfacet
facet normal -1.44905723000354e-15 -6.36736412989974e-14 1.0
outer loop
vertex 339.187961704294 311.639466357282 436.100346617568
vertex 340.632326785684 307.998948853186 436.100346617568
vertex 339.537582674009 312.095101275892 436.100346617568
endloop
endfacet
facet normal -1.44905723000354e-15 -6.36736412989974e-14 1.0
outer loop
vertex 339.537582674009 312.095101275892 436.100346617568
vertex 340.632326785684 307.998948853186 436.100346617568
vertex 339.757363603519 312.625699376667 436.100346617569
endloop
endfacet
facet normal -1.44905723000354e-15 -6.36736412989974e-14 1.0
outer loop
vertex 339.757363603519 312.625699376667 436.100346617569
vertex 340.632326785684 307.998948853186 436.100346617568
vertex 339.832326785684 313.195101275892 436.100346617569
endloop
endfacet
facet normal -1.44905723000354e-15 -6.36736412989974e-14 1.0
outer loop
vertex 339.832326785684 313.195101275892 436.100346617569
vertex 340.632326785684 307.998948853186 436.100346617568
vertex 340.632326785683 318.391253698599 436.100346617569
endloop
endfacet
facet normal -1.44905723000354e-15 -6.36736412989974e-14 1.0
outer loop
vertex 340.632326785683 318.391253698599 436.100346617569
vertex 340.632326785684 307.998948853186 436.100346617568
vertex 341.874967472803 317.437741963012 436.100346617569
endloop
endfacet
facet normal -1.44905723000354e-15 -6.36736412989974e-14 1.0
outer loop
vertex 341.874967472803 317.437741963012 436.100346617569
vertex 340.632326785684 307.998948853186 436.100346617568
vertex 341.874967472803 308.952460588773 436.100346617568
endloop
endfacet
facet normal -1.44905723000354e-15 -6.36736412989974e-14 1.0
outer loop
vertex 341.874967472803 317.437741963012 436.100346617569
vertex 341.874967472803 308.952460588773 436.100346617568
vertex 342.82847920839 316.195101275892 436.100346617569
endloop
endfacet
facet normal -1.44905723000354e-15 -6.36736412989974e-14 1.0
outer loop
vertex 342.82847920839 316.195101275892 436.100346617569
vertex 341.874967472803 308.952460588773 436.100346617568
vertex 342.82847920839 310.195101275892 436.100346617568
endloop
endfacet
facet normal -1.44905723000354e-15 -6.36736412989974e-14 1.0
outer loop
vertex 342.82847920839 316.195101275892 436.100346617569
vertex 342.82847920839 310.195101275892 436.100346617568
vertex 343.427881743418 314.748015546507 436.100346617569
endloop
endfacet
facet normal -1.44905723000354e-15 -6.36736412989974e-14 1.0
outer loop
vertex 343.427881743418 314.748015546507 436.100346617569
vertex 342.82847920839 310.195101275892 436.100346617568
vertex 343.427881743418 311.642187005277 436.100346617568
endloop
endfacet
facet normal -1.44905723000354e-15 -6.36736412989974e-14 1.0
outer loop
vertex 343.427881743418 314.748015546507 436.100346617569
vertex 343.427881743418 311.642187005277 436.100346617568
vertex 343.632326785684 313.195101275892 436.100346617568
endloop
endfacet
facet normal -1.44905723000354e-15 -6.36736412989974e-14 1.0
outer loop
vertex 318.533626348773 313.195101275892 436.100346617568
vertex 319.180712078158 318.990656233627 436.100346617569
vertex 317.733626348773 318.391253698599 436.100346617569
endloop
endfacet
facet normal -1.44905723000354e-15 -6.36736412989974e-14 1.0
outer loop
vertex 319.180712078158 318.990656233627 436.100346617569
vertex 318.533626348773 313.195101275892 436.100346617568
vertex 318.608589530937 313.764503175118 436.100346617568
endloop
endfacet
facet normal -1.44905723000354e-15 -6.36736412989974e-14 1.0
outer loop
vertex 319.180712078158 318.990656233627 436.100346617569
vertex 318.608589530937 313.764503175118 436.100346617568
vertex 318.828370460447 314.295101275892 436.100346617569
endloop
endfacet
facet normal -1.44905723000354e-15 -6.36736412989974e-14 1.0
outer loop
vertex 319.180712078158 318.990656233627 436.100346617569
vertex 318.828370460447 314.295101275892 436.100346617569
vertex 319.177991430163 314.750736194503 436.100346617569
endloop
endfacet
facet normal -1.44905723000354e-15 -6.36736412989974e-14 1.0
outer loop
vertex 319.180712078158 318.990656233627 436.100346617569
vertex 319.177991430163 314.750736194503 436.100346617569
vertex 319.633626348773 315.100357164218 436.100346617569
endloop
endfacet
facet normal -1.44905723000354e-15 -6.36736412989974e-14 1.0
outer loop
vertex 319.180712078158 318.990656233627 436.100346617569
vertex 319.633626348773 315.100357164218 436.100346617569
vertex 320.733626348773 319.195101275892 436.100346617569
endloop
endfacet
facet normal -1.44905723000354e-15 -6.36736412989974e-14 1.0
outer loop
vertex 320.733626348773 319.195101275892 436.100346617569
vertex 319.633626348773 315.100357164218 436.100346617569
vertex 320.164224449547 315.320138093728 436.100346617569
endloop
endfacet
facet normal -1.44905723000354e-15 -6.36736412989974e-14 1.0
outer loop
vertex 320.733626348773 319.195101275892 436.100346617569
vertex 320.164224449547 315.320138093728 436.100346617569
vertex 320.733626348773 315.395101275892 436.100346617569
endloop
endfacet
facet normal -1.44905723000354e-15 -6.36736412989974e-14 1.0
outer loop
vertex 320.733626348773 319.195101275892 436.100346617569
vertex 320.733626348773 315.395101275892 436.100346617569
vertex 321.303028247999 315.320138093728 436.100346617569
endloop
endfacet
facet normal -1.44905723000354e-15 -6.36736412989974e-14 1.0
outer loop
vertex 320.733626348773 319.195101275892 436.100346617569
vertex 321.303028247999 315.320138093728 436.100346617569
vertex 337.632326785683 319.195101275892 436.100346617569
endloop
endfacet
facet normal -1.44905723000354e-15 -6.36736412989974e-14 1.0
outer loop
vertex 337.632326785683 319.195101275892 436.100346617569
vertex 321.303028247999 315.320138093728 436.100346617569
vertex 321.833626348773 315.100357164218 436.100346617568
endloop
endfacet
facet normal -1.44905723000354e-15 -6.36736412989974e-14 1.0
outer loop
vertex 337.632326785683 319.195101275892 436.100346617569
vertex 321.833626348773 315.100357164218 436.100346617568
vertex 322.289261267383 314.750736194503 436.100346617568
endloop
endfacet
facet normal -1.44905723000354e-15 -6.36736412989974e-14 1.0
outer loop
vertex 337.632326785683 319.195101275892 436.100346617569
vertex 322.289261267383 314.750736194503 436.100346617568
vertex 322.638882237099 314.295101275892 436.100346617569
endloop
endfacet
facet normal -1.44905723000354e-15 -6.36736412989974e-14 1.0
outer loop
vertex 337.632326785683 319.195101275892 436.100346617569
vertex 322.638882237099 314.295101275892 436.100346617569
vertex 322.858663166609 313.764503175118 436.100346617569
endloop
endfacet
facet normal -1.44905723000354e-15 -6.36736412989974e-14 1.0
outer loop
vertex 337.632326785683 319.195101275892 436.100346617569
vertex 322.858663166609 313.764503175118 436.100346617569
vertex 322.933626348773 313.195101275892 436.100346617569
endloop
endfacet
facet normal -1.44905723000354e-15 -6.36736412989974e-14 1.0
outer loop
vertex 337.632326785683 319.195101275892 436.100346617569
vertex 322.933626348773 313.195101275892 436.100346617569
vertex 335.507289967847 313.764503175118 436.100346617568
endloop
endfacet
facet normal -1.44905723000354e-15 -6.36736412989974e-14 1.0
outer loop
vertex 335.507289967847 313.764503175118 436.100346617568
vertex 322.933626348773 313.195101275892 436.100346617569
vertex 335.432326785683 313.195101275892 436.100346617569
endloop
endfacet
facet normal -1.44905723000354e-15 -6.36736412989974e-14 1.0
outer loop
vertex 337.632326785683 319.195101275892 436.100346617569
vertex 335.507289967847 313.764503175118 436.100346617568
vertex 335.727070897358 314.295101275892 436.100346617568
endloop
endfacet
facet normal -1.44905723000354e-15 -6.36736412989974e-14 1.0
outer loop
vertex 337.632326785683 319.195101275892 436.100346617569
vertex 335.727070897358 314.295101275892 436.100346617568
vertex 336.076691867073 314.750736194503 436.100346617568
endloop
endfacet
facet normal -1.44905723000354e-15 -6.36736412989974e-14 1.0
outer loop
vertex 337.632326785683 319.195101275892 436.100346617569
vertex 336.076691867073 314.750736194503 436.100346617568
vertex 336.532326785683 315.100357164218 436.100346617568
endloop
endfacet
facet normal -1.44905723000354e-15 -6.36736412989974e-14 1.0
outer loop
vertex 337.632326785683 319.195101275892 436.100346617569
vertex 336.532326785683 315.100357164218 436.100346617568
vertex 337.062924886458 315.320138093728 436.100346617568
endloop
endfacet
facet normal -1.44905723000354e-15 -6.36736412989974e-14 1.0
outer loop
vertex 337.632326785683 319.195101275892 436.100346617569
vertex 337.062924886458 315.320138093728 436.100346617568
vertex 337.632326785683 315.395101275892 436.100346617568
endloop
endfacet
facet normal -1.44905723000354e-15 -6.36736412989974e-14 1.0
outer loop
vertex 337.632326785683 319.195101275892 436.100346617569
vertex 337.632326785683 315.395101275892 436.100346617568
vertex 339.185241056298 318.990656233627 436.100346617569
endloop
endfacet
facet normal -1.44905723000354e-15 -6.36736412989974e-14 1.0
outer loop
vertex 339.185241056298 318.990656233627 436.100346617569
vertex 337.632326785683 315.395101275892 436.100346617568
vertex 338.201728684909 315.320138093728 436.100346617568
endloop
endfacet
facet normal -1.44905723000354e-15 -6.36736412989974e-14 1.0
outer loop
vertex 339.185241056298 318.990656233627 436.100346617569
vertex 338.201728684909 315.320138093728 436.100346617568
vertex 338.732326785683 315.100357164218 436.100346617568
endloop
endfacet
facet normal -1.44905723000354e-15 -6.36736412989974e-14 1.0
outer loop
vertex 339.185241056298 318.990656233627 436.100346617569
vertex 338.732326785683 315.100357164218 436.100346617568
vertex 339.187961704294 314.750736194503 436.100346617569
endloop
endfacet
facet normal -1.44905723000354e-15 -6.36736412989974e-14 1.0
outer loop
vertex 339.185241056298 318.990656233627 436.100346617569
vertex 339.187961704294 314.750736194503 436.100346617569
vertex 340.632326785683 318.391253698599 436.100346617569
endloop
endfacet
facet normal -1.44905723000354e-15 -6.36736412989974e-14 1.0
outer loop
vertex 340.632326785683 318.391253698599 436.100346617569
vertex 339.187961704294 314.750736194503 436.100346617569
vertex 339.537582674009 314.295101275892 436.100346617569
endloop
endfacet
facet normal -1.44905723000354e-15 -6.36736412989974e-14 1.0
outer loop
vertex 340.632326785683 318.391253698599 436.100346617569
vertex 339.537582674009 314.295101275892 436.100346617569
vertex 339.757363603519 313.764503175118 436.100346617569
endloop
endfacet
facet normal -1.44905723000354e-15 -6.36736412989974e-14 1.0
outer loop
vertex 340.632326785683 318.391253698599 436.100346617569
vertex 339.757363603519 313.764503175118 436.100346617569
vertex 339.832326785684 313.195101275892 436.100346617569
endloop
endfacet
facet normal -5.99717695977039e-15 1.0 4.8387999862041e-14
outer loop
vertex 337.632326785683 310.995101275892 436.100346617568
vertex 338.201728684909 311.070064458057 433.600346617568
vertex 337.632326785683 310.995101275893 433.600346617568
endloop
endfacet
facet normal -0.258819045102505 0.965925826289073 4.67392187492174e-14
outer loop
vertex 338.201728684909 311.070064458057 433.600346617568
vertex 337.632326785683 310.995101275892 436.100346617568
vertex 338.201728684909 311.070064458056 436.100346617568
endloop
endfacet
facet normal -0.500000000000053 -0.866025403784408 -4.1905237118844e-14
outer loop
vertex 338.732326785683 315.100357164218 436.100346617568
vertex 338.201728684909 315.320138093728 433.600346617568
vertex 338.732326785683 315.100357164218 433.600346617568
endloop
endfacet
facet normal -0.258819045102487 -0.965925826289078 -4.67392187492177e-14
outer loop
vertex 338.201728684909 315.320138093728 433.600346617568
vertex 338.732326785683 315.100357164218 436.100346617568
vertex 338.201728684909 315.320138093728 436.100346617568
endloop
endfacet
facet normal -0.707106781186544 -0.707106781186551 -3.42154828305032e-14
outer loop
vertex 339.187961704294 314.750736194503 433.600346617568
vertex 338.732326785683 315.100357164218 436.100346617568
vertex 338.732326785683 315.100357164218 433.600346617568
endloop
endfacet
facet normal -0.500000000000053 -0.866025403784408 -4.1905237118844e-14
outer loop
vertex 338.732326785683 315.100357164218 436.100346617568
vertex 339.187961704294 314.750736194503 433.600346617568
vertex 339.187961704294 314.750736194503 436.100346617569
endloop
endfacet
facet normal -0.258819045102512 0.96592582628907 4.67392187492173e-14
outer loop
vertex 338.201728684909 311.070064458056 436.100346617568
vertex 338.732326785683 311.289845387567 433.600346617568
vertex 338.201728684909 311.070064458057 433.600346617568
endloop
endfacet
facet normal -0.500000000000014 0.866025403784431 4.19052371188449e-14
outer loop
vertex 338.732326785683 311.289845387567 433.600346617568
vertex 338.201728684909 311.070064458056 436.100346617568
vertex 338.732326785683 311.289845387567 436.100346617568
endloop
endfacet
facet normal -0.70710678118659 -0.707106781186505 -3.4215482830501e-14
outer loop
vertex 339.187961704294 314.750736194503 436.100346617569
vertex 339.537582674009 314.295101275892 433.600346617568
vertex 339.537582674009 314.295101275892 436.100346617569
endloop
endfacet
facet normal -0.866025403784425 -0.500000000000023 -2.41939999310217e-14
outer loop
vertex 339.537582674009 314.295101275892 433.600346617568
vertex 339.187961704294 314.750736194503 436.100346617569
vertex 339.187961704294 314.750736194503 433.600346617568
endloop
endfacet
facet normal 6.76791955811497e-14 3.90746017873142e-14 -1.0
outer loop
vertex 318.733626348773 316.65920289103 433.600346617568
vertex 318.533626348773 313.195101275892 433.600346617568
vertex 316.733626348773 313.195101275892 433.600346617568
endloop
endfacet
facet normal 6.76791955811497e-14 3.90746017873142e-14 -1.0
outer loop
vertex 318.533626348773 313.195101275892 433.600346617568
vertex 318.733626348773 316.65920289103 433.600346617568
vertex 318.608589530937 313.764503175118 433.600346617568
endloop
endfacet
facet normal 6.76791955811497e-14 3.90746017873142e-14 -1.0
outer loop
vertex 318.608589530937 313.764503175118 433.600346617568
vertex 318.733626348773 316.65920289103 433.600346617568
vertex 318.828370460447 314.295101275892 433.600346617568
endloop
endfacet
facet normal 6.76791955811497e-14 3.90746017873142e-14 -1.0
outer loop
vertex 318.828370460447 314.295101275892 433.600346617568
vertex 318.733626348773 316.65920289103 433.600346617568
vertex 319.177991430163 314.750736194503 433.600346617568
endloop
endfacet
facet normal 6.76791955811497e-14 3.90746017873142e-14 -1.0
outer loop
vertex 319.177991430163 314.750736194503 433.600346617568
vertex 318.733626348773 316.65920289103 433.600346617568
vertex 319.633626348773 315.100357164218 433.600346617568
endloop
endfacet
facet normal 6.76791955811497e-14 3.90746017873142e-14 -1.0
outer loop
vertex 319.633626348773 315.100357164218 433.600346617568
vertex 318.733626348773 316.65920289103 433.600346617568
vertex 322.733626348773 316.65920289103 433.600346617568
endloop
endfacet
facet normal 6.76791955811497e-14 3.90746017873142e-14 -1.0
outer loop
vertex 319.633626348773 315.100357164218 433.600346617568
vertex 322.733626348773 316.65920289103 433.600346617568
vertex 320.164224449547 315.320138093728 433.600346617568
endloop
endfacet
facet normal 6.76791955811497e-14 3.90746017873142e-14 -1.0
outer loop
vertex 320.164224449547 315.320138093728 433.600346617568
vertex 322.733626348773 316.65920289103 433.600346617568
vertex 320.733626348773 315.395101275892 433.600346617568
endloop
endfacet
facet normal 6.76791955811497e-14 3.90746017873142e-14 -1.0
outer loop
vertex 320.733626348773 315.395101275892 433.600346617568
vertex 322.733626348773 316.65920289103 433.600346617568
vertex 321.303028247998 315.320138093728 433.600346617568
endloop
endfacet
facet normal 6.76791955811497e-14 3.90746017873142e-14 -1.0
outer loop
vertex 321.303028247998 315.320138093728 433.600346617568
vertex 322.733626348773 316.65920289103 433.600346617568
vertex 321.833626348773 315.100357164218 433.600346617568
endloop
endfacet
facet normal 6.76791955811497e-14 3.90746017873142e-14 -1.0
outer loop
vertex 321.833626348773 315.100357164218 433.600346617568
vertex 322.733626348773 316.65920289103 433.600346617568
vertex 322.289261267383 314.750736194503 433.600346617568
endloop
endfacet
facet normal 6.76791955811497e-14 3.90746017873142e-14 -1.0
outer loop
vertex 322.289261267383 314.750736194503 433.600346617568
vertex 322.733626348773 316.65920289103 433.600346617568
vertex 322.638882237099 314.295101275892 433.600346617568
endloop
endfacet
facet normal 6.76791955811497e-14 3.90746017873142e-14 -1.0
outer loop
vertex 322.638882237099 314.295101275892 433.600346617568
vertex 322.733626348773 316.65920289103 433.600346617568
vertex 322.858663166609 313.764503175118 433.600346617568
endloop
endfacet
facet normal 6.76791955811497e-14 3.90746017873142e-14 -1.0
outer loop
vertex 322.858663166609 313.764503175118 433.600346617568
vertex 322.733626348773 316.65920289103 433.600346617568
vertex 324.733626348773 313.195101275892 433.600346617568
endloop
endfacet
facet normal 6.76791955811497e-14 3.90746017873142e-14 -1.0
outer loop
vertex 322.858663166609 313.764503175118 433.600346617568
vertex 324.733626348773 313.195101275892 433.600346617568
vertex 322.933626348773 313.195101275892 433.600346617568
endloop
endfacet
facet normal 6.76791955811497e-14 3.90746017873142e-14 -1.0
outer loop
vertex 318.533626348773 313.195101275892 433.600346617568
vertex 318.733626348773 309.730999660755 433.600346617568
vertex 316.733626348773 313.195101275892 433.600346617568
endloop
endfacet
facet normal 6.76791955811497e-14 3.90746017873142e-14 -1.0
outer loop
vertex 318.733626348773 309.730999660755 433.600346617568
vertex 318.533626348773 313.195101275892 433.600346617568
vertex 318.608589530937 312.625699376667 433.600346617568
endloop
endfacet
facet normal 6.76791955811497e-14 3.90746017873142e-14 -1.0
outer loop
vertex 318.733626348773 309.730999660755 433.600346617568
vertex 318.608589530937 312.625699376667 433.600346617568
vertex 318.828370460447 312.095101275892 433.600346617568
endloop
endfacet
facet normal 6.76791955811497e-14 3.90746017873142e-14 -1.0
outer loop
vertex 318.733626348773 309.730999660755 433.600346617568
vertex 318.828370460447 312.095101275892 433.600346617568
vertex 319.177991430163 311.639466357282 433.600346617568
endloop
endfacet
facet normal 6.76791955811497e-14 3.90746017873142e-14 -1.0
outer loop
vertex 318.733626348773 309.730999660755 433.600346617568
vertex 319.177991430163 311.639466357282 433.600346617568
vertex 319.633626348773 311.289845387567 433.600346617568
endloop
endfacet
facet normal 6.76791955811497e-14 3.90746017873142e-14 -1.0
outer loop
vertex 318.733626348773 309.730999660755 433.600346617568
vertex 319.633626348773 311.289845387567 433.600346617568
vertex 322.733626348773 309.730999660755 433.600346617568
endloop
endfacet
facet normal 6.76791955811497e-14 3.90746017873142e-14 -1.0
outer loop
vertex 322.733626348773 309.730999660755 433.600346617568
vertex 319.633626348773 311.289845387567 433.600346617568
vertex 320.164224449547 311.070064458056 433.600346617568
endloop
endfacet
facet normal 6.76791955811497e-14 3.90746017873142e-14 -1.0
outer loop
vertex 322.733626348773 309.730999660755 433.600346617568
vertex 320.164224449547 311.070064458056 433.600346617568
vertex 320.733626348773 310.995101275892 433.600346617568
endloop
endfacet
facet normal 6.76791955811497e-14 3.90746017873142e-14 -1.0
outer loop
vertex 322.733626348773 309.730999660755 433.600346617568
vertex 320.733626348773 310.995101275892 433.600346617568
vertex 321.303028247998 311.070064458056 433.600346617568
endloop
endfacet
facet normal 6.76791955811497e-14 3.90746017873142e-14 -1.0
outer loop
vertex 322.733626348773 309.730999660755 433.600346617568
vertex 321.303028247998 311.070064458056 433.600346617568
vertex 321.833626348773 311.289845387567 433.600346617568
endloop
endfacet
facet normal 6.76791955811497e-14 3.90746017873142e-14 -1.0
outer loop
vertex 322.733626348773 309.730999660755 433.600346617568
vertex 321.833626348773 311.289845387567 433.600346617568
vertex 322.289261267383 311.639466357282 433.600346617568
endloop
endfacet
facet normal 6.76791955811497e-14 3.90746017873142e-14 -1.0
outer loop
vertex 322.733626348773 309.730999660755 433.600346617568
vertex 322.289261267383 311.639466357282 433.600346617568
vertex 322.638882237099 312.095101275892 433.600346617568
endloop
endfacet
facet normal 6.76791955811497e-14 3.90746017873142e-14 -1.0
outer loop
vertex 322.733626348773 309.730999660755 433.600346617568
vertex 322.638882237099 312.095101275892 433.600346617568
vertex 322.858663166609 312.625699376667 433.600346617568
endloop
endfacet
facet normal 6.76791955811497e-14 3.90746017873142e-14 -1.0
outer loop
vertex 322.733626348773 309.730999660755 433.600346617568
vertex 322.858663166609 312.625699376667 433.600346617568
vertex 324.733626348773 313.195101275892 433.600346617568
endloop
endfacet
facet normal 6.76791955811497e-14 3.90746017873142e-14 -1.0
outer loop
vertex 324.733626348773 313.195101275892 433.600346617568
vertex 322.858663166609 312.625699376667 433.600346617568
vertex 322.933626348773 313.195101275892 433.600346617568
endloop
endfacet
facet normal 0.866025403784438 0.500000000000002 7.81492035746283e-14
outer loop
vertex 318.733626348773 309.730999660755 431.100346617568
vertex 316.733626348773 313.195101275892 433.600346617568
vertex 318.733626348773 309.730999660755 433.600346617568
endloop
endfacet
facet normal 0.866025403784438 0.500000000000002 7.81492035746283e-14
outer loop
vertex 316.733626348773 313.195101275892 433.600346617568
vertex 318.733626348773 309.730999660755 431.100346617568
vertex 316.733626348773 313.195101275893 431.100346617568
endloop
endfacet
facet normal -0.866025403784443 -0.499999999999992 -2.41939999310202e-14
outer loop
vertex 322.638882237099 314.295101275892 436.100346617569
vertex 322.858663166609 313.764503175118 433.600346617568
vertex 322.858663166609 313.764503175118 436.100346617569
endloop
endfacet
facet normal -0.965925826289072 -0.258819045102509 -1.25237359187139e-14
outer loop
vertex 322.858663166609 313.764503175118 433.600346617568
vertex 322.638882237099 314.295101275892 436.100346617569
vertex 322.638882237099 314.295101275892 433.600346617568
endloop
endfacet
facet normal 0.99144486137381 0.130526192220056 2.38203538115863e-16
outer loop
vertex 343.632326785683 313.195101275893 431.100346617568
vertex 343.427881743418 314.748015546507 436.100346617569
vertex 343.632326785684 313.195101275892 436.100346617568
endloop
endfacet
facet normal 0.965925826289062 0.258819045102544 7.58123621426822e-15
outer loop
vertex 343.427881743418 314.748015546507 436.100346617569
vertex 343.632326785683 313.195101275893 431.100346617568
vertex 343.427881743418 314.748015546508 431.100346617569
endloop
endfacet
facet normal -0.866025403784436 0.500000000000004 2.27069514603915e-14
outer loop
vertex 315.537473926066 316.195101275892 436.100346617569
vertex 314.938071391039 314.748015546508 431.100346617568
vertex 314.938071391038 314.748015546507 436.100346617569
endloop
endfacet
facet normal -0.965925826289069 0.258819045102517 9.39572717384593e-15
outer loop
vertex 314.938071391039 314.748015546508 431.100346617568
vertex 315.537473926066 316.195101275892 436.100346617569
vertex 315.537473926066 316.195101275893 431.100346617569
endloop
endfacet
facet normal 0.258819045102491 0.965925826289076 4.67392187492177e-14
outer loop
vertex 320.164224449547 311.070064458056 436.100346617568
vertex 320.733626348773 310.995101275892 433.600346617568
vertex 320.164224449547 311.070064458056 433.600346617568
endloop
endfacet
facet normal 2.99413292493735e-15 1.0 4.8387999862041e-14
outer loop
vertex 320.733626348773 310.995101275892 433.600346617568
vertex 320.164224449547 311.070064458056 436.100346617568
vertex 320.733626348773 310.995101275892 436.100346617568
endloop
endfacet
facet normal -0.965925826289067 0.258819045102524 9.39572717384638e-15
outer loop
vertex 314.938071391038 314.748015546507 436.100346617569
vertex 314.733626348773 313.195101275893 431.100346617568
vertex 314.733626348773 313.195101275892 436.100346617568
endloop
endfacet
facet normal -0.991444861373813 0.13052619222003 8.26312746468791e-16
outer loop
vertex 314.733626348773 313.195101275893 431.100346617568
vertex 314.938071391038 314.748015546507 436.100346617569
vertex 314.938071391039 314.748015546508 431.100346617568
endloop
endfacet
facet normal -0.500000000000017 0.866025403784429 4.19052371188449e-14
outer loop
vertex 321.833626348773 311.289845387567 436.100346617568
vertex 322.289261267383 311.639466357282 433.600346617568
vertex 321.833626348773 311.289845387567 433.600346617568
endloop
endfacet
facet normal -0.707106781186529 0.707106781186566 3.42154828305037e-14
outer loop
vertex 322.289261267383 311.639466357282 433.600346617568
vertex 321.833626348773 311.289845387567 436.100346617568
vertex 322.289261267383 311.639466357282 436.100346617568
endloop
endfacet
facet normal 0.965925826289083 -0.258819045102467 -1.25237359187116e-14
outer loop
vertex 318.608589530937 313.764503175118 433.600346617568
vertex 318.828370460447 314.295101275892 436.100346617569
vertex 318.608589530937 313.764503175118 436.100346617568
endloop
endfacet
facet normal 0.866025403784411 -0.500000000000048 -2.41939999310227e-14
outer loop
vertex 318.828370460447 314.295101275892 436.100346617569
vertex 318.608589530937 313.764503175118 433.600346617568
vertex 318.828370460447 314.295101275892 433.600346617568
endloop
endfacet
facet normal -3.00304403483298e-15 -1.0 -4.8387999862041e-14
outer loop
vertex 320.733626348773 315.395101275892 436.100346617569
vertex 320.164224449547 315.320138093728 433.600346617568
vertex 320.733626348773 315.395101275892 433.600346617568
endloop
endfacet
facet normal 0.25881904510251 -0.965925826289071 -4.67392187492174e-14
outer loop
vertex 320.164224449547 315.320138093728 433.600346617568
vertex 320.733626348773 315.395101275892 436.100346617569
vertex 320.164224449547 315.320138093728 436.100346617569
endloop
endfacet
facet normal -0.500000000000006 -0.866025403784435 -3.71518800849721e-14
outer loop
vertex 317.733626348773 307.998948853186 436.100346617568
vertex 316.490985661654 308.952460588773 431.100346617568
vertex 317.733626348773 307.998948853186 431.100346617568
endloop
endfacet
facet normal -0.707106781186552 -0.707106781186543 -3.19029018303404e-14
outer loop
vertex 316.490985661654 308.952460588773 431.100346617568
vertex 317.733626348773 307.998948853186 436.100346617568
vertex 316.490985661654 308.952460588773 436.100346617568
endloop
endfacet
facet normal 0.130526192220046 0.991444861373811 4.20155544183253e-14
outer loop
vertex 337.632326785683 319.195101275892 436.100346617569
vertex 339.185241056298 318.990656233627 431.100346617568
vertex 337.632326785683 319.195101275893 431.100346617568
endloop
endfacet
facet normal 0.258819045102502 0.965925826289073 4.07196564959127e-14
outer loop
vertex 339.185241056298 318.990656233627 431.100346617568
vertex 337.632326785683 319.195101275892 436.100346617569
vertex 339.185241056298 318.990656233627 436.100346617569
endloop
endfacet
facet normal 0.258819045102513 0.96592582628907 4.07196564959125e-14
outer loop
vertex 339.185241056298 318.990656233627 436.100346617569
vertex 340.632326785683 318.391253698599 431.100346617569
vertex 339.185241056298 318.990656233627 431.100346617568
endloop
endfacet
facet normal 0.499999999999974 0.866025403784454 3.6071781138315e-14
outer loop
vertex 340.632326785683 318.391253698599 431.100346617569
vertex 339.185241056298 318.990656233627 436.100346617569
vertex 340.632326785683 318.391253698599 436.100346617569
endloop
endfacet
facet normal -0.866025403784438 -0.500000000000001 -2.36077502042464e-14
outer loop
vertex 315.537473926066 310.195101275892 436.100346617568
vertex 316.490985661654 308.952460588773 431.100346617568
vertex 316.490985661654 308.952460588773 436.100346617568
endloop
endfacet
facet normal -0.707106781186552 -0.707106781186543 -3.19029018303404e-14
outer loop
vertex 316.490985661654 308.952460588773 431.100346617568
vertex 315.537473926066 310.195101275892 436.100346617568
vertex 315.537473926066 310.195101275893 431.100346617568
endloop
endfacet
facet normal -2.99413292493735e-15 1.0 4.8387999862041e-14
outer loop
vertex 320.733626348773 310.995101275892 436.100346617568
vertex 321.303028247998 311.070064458056 433.600346617568
vertex 320.733626348773 310.995101275892 433.600346617568
endloop
endfacet
facet normal -0.258819045102506 0.965925826289072 4.67392187492174e-14
outer loop
vertex 321.303028247998 311.070064458056 433.600346617568
vertex 320.733626348773 310.995101275892 436.100346617568
vertex 321.303028247999 311.070064458056 436.100346617568
endloop
endfacet
facet normal -2.47052217246342e-15 4.14295001732179e-14 -1.0
outer loop
vertex 314.938071391039 314.748015546508 431.100346617568
vertex 314.938071391039 311.642187005277 431.100346617568
vertex 314.733626348773 313.195101275893 431.100346617568
endloop
endfacet
facet normal -2.47052217246342e-15 4.14295001732179e-14 -1.0
outer loop
vertex 314.938071391039 311.642187005277 431.100346617568
vertex 314.938071391039 314.748015546508 431.100346617568
vertex 315.537473926066 316.195101275893 431.100346617569
endloop
endfacet
facet normal -2.47052217246342e-15 4.14295001732179e-14 -1.0
outer loop
vertex 314.938071391039 311.642187005277 431.100346617568
vertex 315.537473926066 316.195101275893 431.100346617569
vertex 315.537473926066 310.195101275893 431.100346617568
endloop
endfacet
facet normal -2.47052217246342e-15 4.14295001732179e-14 -1.0
outer loop
vertex 315.537473926066 310.195101275893 431.100346617568
vertex 315.537473926066 316.195101275893 431.100346617569
vertex 316.490985661654 317.437741963012 431.100346617569
endloop
endfacet
facet normal -2.47052217246342e-15 4.14295001732179e-14 -1.0
outer loop
vertex 315.537473926066 310.195101275893 431.100346617568
vertex 316.490985661654 317.437741963012 431.100346617569
vertex 316.490985661654 308.952460588773 431.100346617568
endloop
endfacet
facet normal -2.47052217246342e-15 4.14295001732179e-14 -1.0
outer loop
vertex 316.490985661654 308.952460588773 431.100346617568
vertex 316.490985661654 317.437741963012 431.100346617569
vertex 316.733626348773 313.195101275893 431.100346617568
endloop
endfacet
facet normal -2.47052217246342e-15 4.14295001732179e-14 -1.0
outer loop
vertex 316.733626348773 313.195101275893 431.100346617568
vertex 316.490985661654 317.437741963012 431.100346617569
vertex 317.733626348773 318.391253698599 431.100346617569
endloop
endfacet
facet normal -2.47052217246342e-15 4.14295001732179e-14 -1.0
outer loop
vertex 316.733626348773 313.195101275893 431.100346617568
vertex 317.733626348773 318.391253698599 431.100346617569
vertex 318.733626348773 316.65920289103 431.100346617568
endloop
endfacet
facet normal -2.47052217246342e-15 4.14295001732179e-14 -1.0
outer loop
vertex 318.733626348773 316.65920289103 431.100346617568
vertex 317.733626348773 318.391253698599 431.100346617569
vertex 319.180712078158 318.990656233627 431.100346617569
endloop
endfacet
facet normal -2.47052217246342e-15 4.14295001732179e-14 -1.0
outer loop
vertex 318.733626348773 316.65920289103 431.100346617568
vertex 319.180712078158 318.990656233627 431.100346617569
vertex 322.733626348773 316.65920289103 431.100346617569
endloop
endfacet
facet normal -2.47052217246342e-15 4.14295001732179e-14 -1.0
outer loop
vertex 322.733626348773 316.65920289103 431.100346617569
vertex 319.180712078158 318.990656233627 431.100346617569
vertex 320.733626348773 319.195101275893 431.100346617569
endloop
endfacet
facet normal -2.47052217246342e-15 4.14295001732179e-14 -1.0
outer loop
vertex 322.733626348773 316.65920289103 431.100346617569
vertex 320.733626348773 319.195101275893 431.100346617569
vertex 337.632326785683 319.195101275893 431.100346617568
endloop
endfacet
facet normal -2.47052217246342e-15 4.14295001732179e-14 -1.0
outer loop
vertex 322.733626348773 316.65920289103 431.100346617569
vertex 337.632326785683 319.195101275893 431.100346617568
vertex 324.733626348773 313.195101275893 431.100346617569
endloop
endfacet
facet normal -2.47052217246342e-15 4.14295001732179e-14 -1.0
outer loop
vertex 324.733626348773 313.195101275893 431.100346617569
vertex 337.632326785683 319.195101275893 431.100346617568
vertex 335.632326785683 316.65920289103 431.100346617568
endloop
endfacet
facet normal -2.47052217246342e-15 4.14295001732179e-14 -1.0
outer loop
vertex 324.733626348773 313.195101275893 431.100346617569
vertex 335.632326785683 316.65920289103 431.100346617568
vertex 333.632326785684 313.195101275893 431.100346617568
endloop
endfacet
facet normal -2.47052217246342e-15 4.14295001732179e-14 -1.0
outer loop
vertex 335.632326785683 316.65920289103 431.100346617568
vertex 337.632326785683 319.195101275893 431.100346617568
vertex 339.632326785683 316.65920289103 431.100346617568
endloop
endfacet
facet normal -2.47052217246342e-15 4.14295001732179e-14 -1.0
outer loop
vertex 339.632326785683 316.65920289103 431.100346617568
vertex 337.632326785683 319.195101275893 431.100346617568
vertex 339.185241056298 318.990656233627 431.100346617568
endloop
endfacet
facet normal -2.47052217246342e-15 4.14295001732179e-14 -1.0
outer loop
vertex 339.632326785683 316.65920289103 431.100346617568
vertex 339.185241056298 318.990656233627 431.100346617568
vertex 340.632326785683 318.391253698599 431.100346617569
endloop
endfacet
facet normal -2.47052217246342e-15 4.14295001732179e-14 -1.0
outer loop
vertex 339.632326785683 316.65920289103 431.100346617568
vertex 340.632326785683 318.391253698599 431.100346617569
vertex 341.632326785683 313.195101275893 431.100346617569
endloop
endfacet
facet normal -2.47052217246342e-15 4.14295001732179e-14 -1.0
outer loop
vertex 341.632326785683 313.195101275893 431.100346617569
vertex 340.632326785683 318.391253698599 431.100346617569
vertex 341.874967472803 317.437741963012 431.100346617569
endloop
endfacet
facet normal -2.47052217246342e-15 4.14295001732179e-14 -1.0
outer loop
vertex 316.733626348773 313.195101275893 431.100346617568
vertex 317.733626348773 307.998948853186 431.100346617568
vertex 316.490985661654 308.952460588773 431.100346617568
endloop
endfacet
facet normal -2.47052217246342e-15 4.14295001732179e-14 -1.0
outer loop
vertex 317.733626348773 307.998948853186 431.100346617568
vertex 316.733626348773 313.195101275893 431.100346617568
vertex 318.733626348773 309.730999660755 431.100346617568
endloop
endfacet
facet normal -2.47052217246342e-15 4.14295001732179e-14 -1.0
outer loop
vertex 317.733626348773 307.998948853186 431.100346617568
vertex 318.733626348773 309.730999660755 431.100346617568
vertex 319.180712078158 307.399546318158 431.100346617568
endloop
endfacet
facet normal -2.47052217246342e-15 4.14295001732179e-14 -1.0
outer loop
vertex 319.180712078158 307.399546318158 431.100346617568
vertex 318.733626348773 309.730999660755 431.100346617568
vertex 322.733626348773 309.730999660755 431.100346617568
endloop
endfacet
facet normal -2.47052217246342e-15 4.14295001732179e-14 -1.0
outer loop
vertex 319.180712078158 307.399546318158 431.100346617568
vertex 322.733626348773 309.730999660755 431.100346617568
vertex 320.733626348773 307.195101275893 431.100346617568
endloop
endfacet
facet normal -2.47052217246342e-15 4.14295001732179e-14 -1.0
outer loop
vertex 320.733626348773 307.195101275893 431.100346617568
vertex 322.733626348773 309.730999660755 431.100346617568
vertex 337.632326785683 307.195101275893 431.100346617568
endloop
endfacet
facet normal -2.47052217246342e-15 4.14295001732179e-14 -1.0
outer loop
vertex 337.632326785683 307.195101275893 431.100346617568
vertex 322.733626348773 309.730999660755 431.100346617568
vertex 324.733626348773 313.195101275893 431.100346617569
endloop
endfacet
facet normal -2.47052217246342e-15 4.14295001732179e-14 -1.0
outer loop
vertex 337.632326785683 307.195101275893 431.100346617568
vertex 324.733626348773 313.195101275893 431.100346617569
vertex 335.632326785683 309.730999660755 431.100346617568
endloop
endfacet
facet normal -2.47052217246342e-15 4.14295001732179e-14 -1.0
outer loop
vertex 335.632326785683 309.730999660755 431.100346617568
vertex 324.733626348773 313.195101275893 431.100346617569
vertex 333.632326785684 313.195101275893 431.100346617568
endloop
endfacet
facet normal -2.47052217246342e-15 4.14295001732179e-14 -1.0
outer loop
vertex 337.632326785683 307.195101275893 431.100346617568
vertex 335.632326785683 309.730999660755 431.100346617568
vertex 339.632326785683 309.730999660755 431.100346617568
endloop
endfacet
facet normal -2.47052217246342e-15 4.14295001732179e-14 -1.0
outer loop
vertex 337.632326785683 307.195101275893 431.100346617568
vertex 339.632326785683 309.730999660755 431.100346617568
vertex 339.185241056299 307.399546318158 431.100346617568
endloop
endfacet
facet normal -2.47052217246342e-15 4.14295001732179e-14 -1.0
outer loop
vertex 339.185241056299 307.399546318158 431.100346617568
vertex 339.632326785683 309.730999660755 431.100346617568
vertex 340.632326785683 307.998948853186 431.100346617568
endloop
endfacet
facet normal -2.47052217246342e-15 4.14295001732179e-14 -1.0
outer loop
vertex 340.632326785683 307.998948853186 431.100346617568
vertex 339.632326785683 309.730999660755 431.100346617568
vertex 341.632326785683 313.195101275893 431.100346617569
endloop
endfacet
facet normal -2.47052217246342e-15 4.14295001732179e-14 -1.0
outer loop
vertex 340.632326785683 307.998948853186 431.100346617568
vertex 341.632326785683 313.195101275893 431.100346617569
vertex 341.874967472803 308.952460588773 431.100346617568
endloop
endfacet
facet normal -2.47052217246342e-15 4.14295001732179e-14 -1.0
outer loop
vertex 341.874967472803 308.952460588773 431.100346617568
vertex 341.632326785683 313.195101275893 431.100346617569
vertex 341.874967472803 317.437741963012 431.100346617569
endloop
endfacet
facet normal -2.47052217246342e-15 4.14295001732179e-14 -1.0
outer loop
vertex 341.874967472803 308.952460588773 431.100346617568
vertex 341.874967472803 317.437741963012 431.100346617569
vertex 342.82847920839 316.195101275893 431.100346617569
endloop
endfacet
facet normal -2.47052217246342e-15 4.14295001732179e-14 -1.0
outer loop
vertex 341.874967472803 308.952460588773 431.100346617568
vertex 342.82847920839 316.195101275893 431.100346617569
vertex 342.82847920839 310.195101275893 431.100346617568
endloop
endfacet
facet normal -2.47052217246342e-15 4.14295001732179e-14 -1.0
outer loop
vertex 342.82847920839 310.195101275893 431.100346617568
vertex 342.82847920839 316.195101275893 431.100346617569
vertex 343.427881743418 314.748015546508 431.100346617569
endloop
endfacet
facet normal -2.47052217246342e-15 4.14295001732179e-14 -1.0
outer loop
vertex 342.82847920839 310.195101275893 431.100346617568
vertex 343.427881743418 314.748015546508 431.100346617569
vertex 343.427881743418 311.642187005277 431.100346617568
endloop
endfacet
facet normal -2.47052217246342e-15 4.14295001732179e-14 -1.0
outer loop
vertex 343.427881743418 311.642187005277 431.100346617568
vertex 343.427881743418 314.748015546508 431.100346617569
vertex 343.632326785683 313.195101275893 431.100346617568
endloop
endfacet
facet normal 0.866025403784428 0.500000000000018 2.41939999310215e-14
outer loop
vertex 335.727070897358 312.095101275893 433.600346617568
vertex 335.507289967847 312.625699376667 436.100346617569
vertex 335.727070897358 312.095101275892 436.100346617568
endloop
endfacet
facet normal 0.965925826289071 0.258819045102511 1.2523735918714e-14
outer loop
vertex 335.507289967847 312.625699376667 436.100346617569
vertex 335.727070897358 312.095101275893 433.600346617568
vertex 335.507289967847 312.625699376667 433.600346617568
endloop
endfacet
facet normal 0.500000000000014 -0.866025403784431 -4.19052371188449e-14
outer loop
vertex 336.532326785683 315.100357164218 436.100346617568
vertex 336.076691867073 314.750736194503 433.600346617568
vertex 336.532326785683 315.100357164218 433.600346617568
endloop
endfacet
facet normal 0.70710678118653 -0.707106781186565 -3.42154828305037e-14
outer loop
vertex 336.076691867073 314.750736194503 433.600346617568
vertex 336.532326785683 315.100357164218 436.100346617568
vertex 336.076691867073 314.750736194503 436.100346617568
endloop
endfacet
facet normal -0.866025403784438 -0.500000000000002 -7.81492035746283e-14
outer loop
vertex 322.733626348773 316.65920289103 433.600346617568
vertex 324.733626348773 313.195101275893 431.100346617569
vertex 324.733626348773 313.195101275892 433.600346617568
endloop
endfacet
facet normal -0.866025403784438 -0.500000000000002 -7.81492035746283e-14
outer loop
vertex 324.733626348773 313.195101275893 431.100346617569
vertex 322.733626348773 316.65920289103 433.600346617568
vertex 322.733626348773 316.65920289103 431.100346617569
endloop
endfacet
facet normal -0.500000000000005 -0.866025403784436 -4.19052371188453e-14
outer loop
vertex 321.833626348773 315.100357164218 436.100346617568
vertex 321.303028247998 315.320138093728 433.600346617568
vertex 321.833626348773 315.100357164218 433.600346617568
endloop
endfacet
facet normal -0.258819045102515 -0.96592582628907 -4.67392187492174e-14
outer loop
vertex 321.303028247998 315.320138093728 433.600346617568
vertex 321.833626348773 315.100357164218 436.100346617568
vertex 321.303028247999 315.320138093728 436.100346617569
endloop
endfacet
facet normal -0.707106781186556 0.707106781186539 3.12692948012495e-14
outer loop
vertex 316.490985661654 317.437741963012 436.100346617569
vertex 315.537473926066 316.195101275893 431.100346617569
vertex 315.537473926066 316.195101275892 436.100346617569
endloop
endfacet
facet normal -0.866025403784435 0.500000000000007 2.27069514603916e-14
outer loop
vertex 315.537473926066 316.195101275893 431.100346617569
vertex 316.490985661654 317.437741963012 436.100346617569
vertex 316.490985661654 317.437741963012 431.100346617569
endloop
endfacet
facet normal 0.500000000000016 -0.86602540378443 -4.19052371188449e-14
outer loop
vertex 319.633626348773 315.100357164218 436.100346617569
vertex 319.177991430163 314.750736194503 433.600346617568
vertex 319.633626348773 315.100357164218 433.600346617568
endloop
endfacet
facet normal 0.707106781186529 -0.707106781186566 -3.42154828305037e-14
outer loop
vertex 319.177991430163 314.750736194503 433.600346617568
vertex 319.633626348773 315.100357164218 436.100346617569
vertex 319.177991430163 314.750736194503 436.100346617569
endloop
endfacet
facet normal -0.50000000000001 0.866025403784433 3.7700687376356e-14
outer loop
vertex 317.733626348773 318.391253698599 436.100346617569
vertex 319.180712078158 318.990656233627 431.100346617569
vertex 317.733626348773 318.391253698599 431.100346617569
endloop
endfacet
facet normal -0.25881904510252 0.965925826289069 4.15628404100955e-14
outer loop
vertex 319.180712078158 318.990656233627 431.100346617569
vertex 317.733626348773 318.391253698599 436.100346617569
vertex 319.180712078158 318.990656233627 436.100346617569
endloop
endfacet
facet normal -0.258819045102479 -0.965925826289079 -4.67392187492178e-14
outer loop
vertex 321.303028247999 315.320138093728 436.100346617569
vertex 320.733626348773 315.395101275892 433.600346617568
vertex 321.303028247998 315.320138093728 433.600346617568
endloop
endfacet
facet normal 3.00304403483301e-15 -1.0 -4.8387999862041e-14
outer loop
vertex 320.733626348773 315.395101275892 433.600346617568
vertex 321.303028247999 315.320138093728 436.100346617569
vertex 320.733626348773 315.395101275892 436.100346617569
endloop
endfacet
facet normal -0.707106781186556 0.707106781186539 3.12692948012495e-14
outer loop
vertex 316.490985661654 317.437741963012 436.100346617569
vertex 317.733626348773 318.391253698599 431.100346617569
vertex 316.490985661654 317.437741963012 431.100346617569
endloop
endfacet
facet normal -0.500000000000007 0.866025403784435 3.7700687376356e-14
outer loop
vertex 317.733626348773 318.391253698599 431.100346617569
vertex 316.490985661654 317.437741963012 436.100346617569
vertex 317.733626348773 318.391253698599 436.100346617569
endloop
endfacet
facet normal -0.130526192220045 -0.991444861373811 -3.57874463087757e-14
outer loop
vertex 320.733626348773 307.195101275893 431.100346617568
vertex 319.180712078158 307.399546318158 436.100346617568
vertex 319.180712078158 307.399546318158 431.100346617568
endloop
endfacet
facet normal -0.258819045102523 -0.965925826289068 -3.66050082333428e-14
outer loop
vertex 319.180712078158 307.399546318158 436.100346617568
vertex 320.733626348773 307.195101275893 431.100346617568
vertex 320.733626348773 307.195101275892 436.100346617568
endloop
endfacet
facet normal -0.258819045102522 0.965925826289068 4.15628404100955e-14
outer loop
vertex 319.180712078158 318.990656233627 436.100346617569
vertex 320.733626348773 319.195101275893 431.100346617569
vertex 319.180712078158 318.990656233627 431.100346617569
endloop
endfacet
facet normal -0.130526192220046 0.991444861373811 4.24407842757955e-14
outer loop
vertex 320.733626348773 319.195101275893 431.100346617569
vertex 319.180712078158 318.990656233627 436.100346617569
vertex 320.733626348773 319.195101275892 436.100346617569
endloop
endfacet
facet normal -0.707106781186583 -0.707106781186512 -3.42154828305013e-14
outer loop
vertex 322.289261267383 314.750736194503 436.100346617568
vertex 322.638882237099 314.295101275892 433.600346617568
vertex 322.638882237099 314.295101275892 436.100346617569
endloop
endfacet
facet normal -0.866025403784417 -0.500000000000038 -2.41939999310225e-14
outer loop
vertex 322.638882237099 314.295101275892 433.600346617568
vertex 322.289261267383 314.750736194503 436.100346617568
vertex 322.289261267383 314.750736194503 433.600346617568
endloop
endfacet
facet normal -1.0 1.50597757236433e-15 -6.68630097053091e-29
outer loop
vertex 322.933626348773 313.195101275892 436.100346617569
vertex 322.858663166609 312.625699376667 433.600346617568
vertex 322.858663166609 312.625699376667 436.100346617569
endloop
endfacet
facet normal -0.965925826289073 0.258819045102501 1.25237359187133e-14
outer loop
vertex 322.858663166609 312.625699376667 433.600346617568
vertex 322.933626348773 313.195101275892 436.100346617569
vertex 322.933626348773 313.195101275892 433.600346617568
endloop
endfacet
facet normal -0.866025403784429 0.500000000000017 2.41939999310212e-14
outer loop
vertex 322.638882237099 312.095101275892 436.100346617568
vertex 322.289261267383 311.639466357282 433.600346617568
vertex 322.289261267383 311.639466357282 436.100346617568
endloop
endfacet
facet normal -0.707106781186529 0.707106781186566 3.42154828305037e-14
outer loop
vertex 322.289261267383 311.639466357282 433.600346617568
vertex 322.638882237099 312.095101275892 436.100346617568
vertex 322.638882237099 312.095101275892 433.600346617568
endloop
endfacet
facet normal 0.50000000000002 0.866025403784427 4.19052371188449e-14
outer loop
vertex 319.633626348773 311.289845387567 436.100346617568
vertex 320.164224449547 311.070064458056 433.600346617568
vertex 319.633626348773 311.289845387567 433.600346617568
endloop
endfacet
facet normal 0.258819045102497 0.965925826289075 4.67392187492176e-14
outer loop
vertex 320.164224449547 311.070064458056 433.600346617568
vertex 319.633626348773 311.289845387567 436.100346617568
vertex 320.164224449547 311.070064458056 436.100346617568
endloop
endfacet
facet normal -0.965925826289072 -0.258819045102509 -1.25237359187139e-14
outer loop
vertex 322.858663166609 313.764503175118 436.100346617569
vertex 322.933626348773 313.195101275892 433.600346617568
vertex 322.933626348773 313.195101275892 436.100346617569
endloop
endfacet
facet normal -1.0 -1.49706646246867e-15 -2.12239402019124e-28
outer loop
vertex 322.933626348773 313.195101275892 433.600346617568
vertex 322.858663166609 313.764503175118 436.100346617569
vertex 322.858663166609 313.764503175118 433.600346617568
endloop
endfacet
facet normal -0.965925826289066 -0.258819045102528 -1.71869529581297e-14
outer loop
vertex 314.938071391038 311.642187005277 436.100346617568
vertex 315.537473926066 310.195101275893 431.100346617568
vertex 315.537473926066 310.195101275892 436.100346617568
endloop
endfacet
facet normal -0.866025403784446 -0.499999999999988 -2.36077502042461e-14
outer loop
vertex 315.537473926066 310.195101275893 431.100346617568
vertex 314.938071391038 311.642187005277 436.100346617568
vertex 314.938071391039 311.642187005277 431.100346617568
endloop
endfacet
facet normal 0.707106781186563 0.707106781186532 3.42154828305023e-14
outer loop
vertex 319.177991430163 311.639466357282 436.100346617568
vertex 319.633626348773 311.289845387567 433.600346617568
vertex 319.177991430163 311.639466357282 433.600346617568
endloop
endfacet
facet normal 0.500000000000026 0.866025403784424 4.19052371188447e-14
outer loop
vertex 319.633626348773 311.289845387567 433.600346617568
vertex 319.177991430163 311.639466357282 436.100346617568
vertex 319.633626348773 311.289845387567 436.100346617568
endloop
endfacet
facet normal -0.258819045102523 -0.965925826289068 -3.66050082333428e-14
outer loop
vertex 319.180712078158 307.399546318158 436.100346617568
vertex 317.733626348773 307.998948853186 431.100346617568
vertex 319.180712078158 307.399546318158 431.100346617568
endloop
endfacet
facet normal -0.499999999999983 -0.866025403784448 -3.71518800849721e-14
outer loop
vertex 317.733626348773 307.998948853186 431.100346617568
vertex 319.180712078158 307.399546318158 436.100346617568
vertex 317.733626348773 307.998948853186 436.100346617568
endloop
endfacet
facet normal 0.866025403784427 0.50000000000002 2.41939999310216e-14
outer loop
vertex 318.828370460447 312.095101275892 433.600346617568
vertex 319.177991430163 311.639466357282 436.100346617568
vertex 319.177991430163 311.639466357282 433.600346617568
endloop
endfacet
facet normal 0.707106781186563 0.707106781186532 3.42154828305023e-14
outer loop
vertex 319.177991430163 311.639466357282 436.100346617568
vertex 318.828370460447 312.095101275892 433.600346617568
vertex 318.828370460447 312.095101275892 436.100346617568
endloop
endfacet
facet normal 0.86602540378444 -0.499999999999997 -2.41939999310203e-14
outer loop
vertex 318.828370460447 314.295101275892 433.600346617568
vertex 319.177991430163 314.750736194503 436.100346617569
vertex 318.828370460447 314.295101275892 436.100346617569
endloop
endfacet
facet normal 0.707106781186532 -0.707106781186563 -3.42154828305036e-14
outer loop
vertex 319.177991430163 314.750736194503 436.100346617569
vertex 318.828370460447 314.295101275892 433.600346617568
vertex 319.177991430163 314.750736194503 433.600346617568
endloop
endfacet
facet normal 1.0 -2.78383073140065e-14 -1.207079940362e-27
outer loop
vertex 318.533626348773 313.195101275892 433.600346617568
vertex 318.608589530937 313.764503175118 436.100346617568
vertex 318.533626348773 313.195101275892 436.100346617568
endloop
endfacet
facet normal 0.965925826289068 -0.258819045102521 -1.25237359187142e-14
outer loop
vertex 318.608589530937 313.764503175118 436.100346617568
vertex 318.533626348773 313.195101275892 433.600346617568
vertex 318.608589530937 313.764503175118 433.600346617568
endloop
endfacet
facet normal -0.707106781186583 -0.707106781186512 -3.42154828305013e-14
outer loop
vertex 322.289261267383 314.750736194503 436.100346617568
vertex 321.833626348773 315.100357164218 433.600346617568
vertex 322.289261267383 314.750736194503 433.600346617568
endloop
endfacet
facet normal -0.500000000000041 -0.866025403784415 -4.19052371188443e-14
outer loop
vertex 321.833626348773 315.100357164218 433.600346617568
vertex 322.289261267383 314.750736194503 436.100346617568
vertex 321.833626348773 315.100357164218 436.100346617568
endloop
endfacet
facet normal -0.258819045102512 0.965925826289071 4.67392187492174e-14
outer loop
vertex 321.303028247999 311.070064458056 436.100346617568
vertex 321.833626348773 311.289845387567 433.600346617568
vertex 321.303028247998 311.070064458056 433.600346617568
endloop
endfacet
facet normal -0.500000000000014 0.866025403784431 4.1905237118845e-14
outer loop
vertex 321.833626348773 311.289845387567 433.600346617568
vertex 321.303028247999 311.070064458056 436.100346617568
vertex 321.833626348773 311.289845387567 436.100346617568
endloop
endfacet
facet normal 0.965925826289068 0.258819045102521 7.58123621426688e-15
outer loop
vertex 343.427881743418 314.748015546508 431.100346617569
vertex 342.82847920839 316.195101275892 436.100346617569
vertex 343.427881743418 314.748015546507 436.100346617569
endloop
endfacet
facet normal 0.866025403784439 0.499999999999998 1.98856030953368e-14
outer loop
vertex 342.82847920839 316.195101275892 436.100346617569
vertex 343.427881743418 314.748015546508 431.100346617569
vertex 342.82847920839 316.195101275893 431.100346617569
endloop
endfacet
facet normal -0.965925826289077 0.258819045102487 1.25237359187126e-14
outer loop
vertex 322.858663166609 312.625699376667 436.100346617569
vertex 322.638882237099 312.095101275892 433.600346617568
vertex 322.638882237099 312.095101275892 436.100346617568
endloop
endfacet
facet normal -0.866025403784422 0.500000000000029 2.41939999310218e-14
outer loop
vertex 322.638882237099 312.095101275892 433.600346617568
vertex 322.858663166609 312.625699376667 436.100346617569
vertex 322.858663166609 312.625699376667 433.600346617568
endloop
endfacet
facet normal -0.866025403784438 0.500000000000002 -7.81492035746281e-14
outer loop
vertex 341.632326785683 313.195101275893 433.600346617568
vertex 339.632326785683 309.730999660755 431.100346617568
vertex 339.632326785683 309.730999660755 433.600346617568
endloop
endfacet
facet normal -0.866025403784438 0.500000000000002 -7.81492035746281e-14
outer loop
vertex 339.632326785683 309.730999660755 431.100346617568
vertex 341.632326785683 313.195101275893 433.600346617568
vertex 341.632326785683 313.195101275893 431.100346617569
endloop
endfacet
facet normal 2.64454093225209e-27 -1.0 -3.90746017873142e-14
outer loop
vertex 322.733626348773 316.65920289103 431.100346617569
vertex 318.733626348773 316.65920289103 433.600346617568
vertex 318.733626348773 316.65920289103 431.100346617568
endloop
endfacet
facet normal 2.64454093225209e-27 -1.0 -3.90746017873142e-14
outer loop
vertex 318.733626348773 316.65920289103 433.600346617568
vertex 322.733626348773 316.65920289103 431.100346617569
vertex 322.733626348773 316.65920289103 433.600346617568
endloop
endfacet
facet normal 0.707106781186558 0.707106781186537 3.42154828305025e-14
outer loop
vertex 336.076691867073 311.639466357282 436.100346617568
vertex 336.532326785683 311.289845387567 433.600346617568
vertex 336.076691867073 311.639466357282 433.600346617568
endloop
endfacet
facet normal 0.500000000000031 0.866025403784421 4.19052371188446e-14
outer loop
vertex 336.532326785683 311.289845387567 433.600346617568
vertex 336.076691867073 311.639466357282 436.100346617568
vertex 336.532326785683 311.289845387567 436.100346617568
endloop
endfacet
facet normal -0.866025403784427 0.50000000000002 2.41939999310214e-14
outer loop
vertex 339.537582674009 312.095101275892 436.100346617568
vertex 339.187961704294 311.639466357282 433.600346617568
vertex 339.187961704294 311.639466357282 436.100346617568
endloop
endfacet
facet normal -0.707106781186531 0.707106781186564 3.42154828305036e-14
outer loop
vertex 339.187961704294 311.639466357282 433.600346617568
vertex 339.537582674009 312.095101275892 436.100346617568
vertex 339.537582674009 312.095101275892 433.600346617568
endloop
endfacet
facet normal -0.866025403784431 -0.500000000000013 -2.41939999310212e-14
outer loop
vertex 339.537582674009 314.295101275892 436.100346617569
vertex 339.757363603519 313.764503175118 433.600346617568
vertex 339.757363603519 313.764503175118 436.100346617569
endloop
endfacet
facet normal -0.965925826289069 -0.258819045102517 -1.25237359187143e-14
outer loop
vertex 339.757363603519 313.764503175118 433.600346617568
vertex 339.537582674009 314.295101275892 436.100346617569
vertex 339.537582674009 314.295101275892 433.600346617568
endloop
endfacet
facet normal 0.258819045102513 -0.96592582628907 -2.84818201392916e-14
outer loop
vertex 339.185241056299 307.399546318158 436.100346617568
vertex 337.632326785683 307.195101275893 431.100346617568
vertex 339.185241056299 307.399546318158 431.100346617568
endloop
endfacet
facet normal 0.130526192220046 -0.991444861373811 -2.80173161640572e-14
outer loop
vertex 337.632326785683 307.195101275893 431.100346617568
vertex 339.185241056299 307.399546318158 436.100346617568
vertex 337.632326785684 307.195101275892 436.100346617568
endloop
endfacet
facet normal 1.0 -4.04207944866443e-14 -1.81695163494609e-27
outer loop
vertex 335.432326785683 313.195101275893 433.600346617568
vertex 335.507289967847 313.764503175118 436.100346617568
vertex 335.432326785683 313.195101275892 436.100346617569
endloop
endfacet
facet normal 0.965925826289082 -0.25881904510247 -1.25237359187117e-14
outer loop
vertex 335.507289967847 313.764503175118 436.100346617568
vertex 335.432326785683 313.195101275893 433.600346617568
vertex 335.507289967847 313.764503175118 433.600346617568
endloop
endfacet
facet normal 0.258819045102487 0.965925826289078 4.67392187492177e-14
outer loop
vertex 337.062924886458 311.070064458056 436.100346617568
vertex 337.632326785683 310.995101275893 433.600346617568
vertex 337.062924886458 311.070064458057 433.600346617568
endloop
endfacet
facet normal 5.9971769597703e-15 1.0 4.8387999862041e-14
outer loop
vertex 337.632326785683 310.995101275893 433.600346617568
vertex 337.062924886458 311.070064458056 436.100346617568
vertex 337.632326785683 310.995101275892 436.100346617568
endloop
endfacet
facet normal 1.33499803399712e-15 -1.0 -3.15836246045359e-14
outer loop
vertex 337.632326785684 307.195101275892 436.100346617568
vertex 320.733626348773 307.195101275893 431.100346617568
vertex 337.632326785683 307.195101275893 431.100346617568
endloop
endfacet
facet normal 1.33499803399712e-15 -1.0 -3.15836246045359e-14
outer loop
vertex 320.733626348773 307.195101275893 431.100346617568
vertex 337.632326785684 307.195101275892 436.100346617568
vertex 320.733626348773 307.195101275892 436.100346617568
endloop
endfacet
facet normal 0.965925826289077 0.258819045102489 1.25237359187129e-14
outer loop
vertex 318.608589530937 312.625699376667 433.600346617568
vertex 318.828370460447 312.095101275892 436.100346617568
vertex 318.828370460447 312.095101275892 433.600346617568
endloop
endfacet
facet normal 0.866025403784432 0.500000000000011 2.41939999310211e-14
outer loop
vertex 318.828370460447 312.095101275892 436.100346617568
vertex 318.608589530937 312.625699376667 433.600346617568
vertex 318.608589530937 312.625699376667 436.100346617569
endloop
endfacet
facet normal 0.499999999999985 0.866025403784447 3.60717811383147e-14
outer loop
vertex 340.632326785683 318.391253698599 436.100346617569
vertex 341.874967472803 317.437741963012 431.100346617569
vertex 340.632326785683 318.391253698599 431.100346617569
endloop
endfacet
facet normal 0.707106781186534 0.707106781186561 2.89656735075774e-14
outer loop
vertex 341.874967472803 317.437741963012 431.100346617569
vertex 340.632326785683 318.391253698599 436.100346617569
vertex 341.874967472803 317.437741963012 436.100346617569
endloop
endfacet
facet normal 0.866025403784438 -0.500000000000002 7.81492035746281e-14
outer loop
vertex 335.632326785683 316.65920289103 431.100346617568
vertex 333.632326785683 313.195101275893 433.600346617568
vertex 333.632326785684 313.195101275893 431.100346617568
endloop
endfacet
facet normal 0.866025403784438 -0.500000000000002 7.81492035746281e-14
outer loop
vertex 333.632326785683 313.195101275893 433.600346617568
vertex 335.632326785683 316.65920289103 431.100346617568
vertex 335.632326785683 316.65920289103 433.600346617568
endloop
endfacet
facet normal 1.0 -2.78383073140065e-14 -1.207079940362e-27
outer loop
vertex 318.533626348773 313.195101275892 433.600346617568
vertex 318.608589530937 312.625699376667 436.100346617569
vertex 318.608589530937 312.625699376667 433.600346617568
endloop
endfacet
facet normal 0.965925826289066 0.258819045102529 1.25237359187149e-14
outer loop
vertex 318.608589530937 312.625699376667 436.100346617569
vertex 318.533626348773 313.195101275892 433.600346617568
vertex 318.533626348773 313.195101275892 436.100346617568
endloop
endfacet
facet normal -0.991444861373811 -0.130526192220046 -1.36563704110055e-14
outer loop
vertex 314.733626348773 313.195101275892 436.100346617568
vertex 314.938071391039 311.642187005277 431.100346617568
vertex 314.938071391038 311.642187005277 436.100346617568
endloop
endfacet
facet normal -0.965925826289066 -0.258819045102529 -1.71869529581298e-14
outer loop
vertex 314.938071391039 311.642187005277 431.100346617568
vertex 314.733626348773 313.195101275892 436.100346617568
vertex 314.733626348773 313.195101275893 431.100346617568
endloop
endfacet
facet normal 0.866025403784445 -0.499999999999988 -2.1351651079039e-14
outer loop
vertex 342.82847920839 310.195101275893 431.100346617568
vertex 343.427881743418 311.642187005277 436.100346617568
vertex 342.82847920839 310.195101275892 436.100346617568
endloop
endfacet
facet normal 0.965925826289066 -0.258819045102528 -1.57217178368502e-14
outer loop
vertex 343.427881743418 311.642187005277 436.100346617568
vertex 342.82847920839 310.195101275893 431.100346617568
vertex 343.427881743418 311.642187005277 431.100346617568
endloop
endfacet
facet normal -5.9971769597703e-15 -1.0 -4.8387999862041e-14
outer loop
vertex 337.632326785683 315.395101275892 436.100346617568
vertex 337.062924886458 315.320138093728 433.600346617568
vertex 337.632326785683 315.395101275893 433.600346617568
endloop
endfacet
facet normal 0.258819045102512 -0.96592582628907 -4.67392187492173e-14
outer loop
vertex 337.062924886458 315.320138093728 433.600346617568
vertex 337.632326785683 315.395101275892 436.100346617568
vertex 337.062924886458 315.320138093728 436.100346617568
endloop
endfacet
facet normal 0.500000000000015 0.86602540378443 4.19052371188451e-14
outer loop
vertex 336.532326785683 311.289845387567 436.100346617568
vertex 337.062924886458 311.070064458057 433.600346617568
vertex 336.532326785683 311.289845387567 433.600346617568
endloop
endfacet
facet normal 0.258819045102502 0.965925826289073 4.67392187492175e-14
outer loop
vertex 337.062924886458 311.070064458057 433.600346617568
vertex 336.532326785683 311.289845387567 436.100346617568
vertex 337.062924886458 311.070064458056 436.100346617568
endloop
endfacet
facet normal -0.866025403784438 0.500000000000002 -3.90746017873139e-14
outer loop
vertex 324.733626348773 313.195101275892 433.600346617568
vertex 322.733626348773 309.730999660755 431.100346617568
vertex 322.733626348773 309.730999660755 433.600346617568
endloop
endfacet
facet normal -0.866025403784438 0.500000000000002 -3.90746017873139e-14
outer loop
vertex 322.733626348773 309.730999660755 431.100346617568
vertex 324.733626348773 313.195101275892 433.600346617568
vertex 324.733626348773 313.195101275893 431.100346617569
endloop
endfacet
facet normal -0.965925826289072 -0.258819045102507 -1.25237359187138e-14
outer loop
vertex 339.757363603519 313.764503175118 436.100346617569
vertex 339.832326785683 313.195101275893 433.600346617568
vertex 339.832326785684 313.195101275892 436.100346617569
endloop
endfacet
facet normal -1.0 -7.49424342223897e-15 -5.01472572789814e-28
outer loop
vertex 339.832326785683 313.195101275893 433.600346617568
vertex 339.757363603519 313.764503175118 436.100346617569
vertex 339.757363603519 313.764503175118 433.600346617568
endloop
endfacet
endsolid K02.2
