solid K02.2
facet normal 0.984807753012208 -2.40033380233344e-14 -0.173648177666929
outer loop
vertex 235.162785054271 343.19858971462 448.761411419677
vertex 235.239480779055 341.19858971462 449.047643761297
vertex 235.162785054271 341.19858971462 448.761411419677
endloop
endfacet
facet normal 0.939692620785902 -2.07201132021156e-14 -0.342020143325687
outer loop
vertex 235.239480779055 341.19858971462 449.047643761297
vertex 235.162785054271 343.19858971462 448.761411419677
vertex 235.239480779055 343.19858971462 449.047643761297
endloop
endfacet
facet normal 0.939692620785902 -2.07201132021156e-14 -0.342020143325687
outer loop
vertex 235.239480779055 343.19858971462 449.047643761297
vertex 235.364715047958 341.19858971462 449.316209517644
vertex 235.239480779055 341.19858971462 449.047643761297
endloop
endfacet
facet normal 0.866025403784451 -1.68073182261351e-14 -0.499999999999979
outer loop
vertex 235.364715047958 341.19858971462 449.316209517644
vertex 235.239480779055 343.19858971462 449.047643761297
vertex 235.364715047958 343.19858971462 449.316209517644
endloop
endfacet
facet normal 0.0 -1.0 0.0
outer loop
vertex 243.836958234391 335.19858971462 456.166209517644
vertex 232.134474394478 335.19858971462 455.166209517644
vertex 243.836958234391 335.19858971462 455.166209517644
endloop
endfacet
facet normal 0.0 -1.0 0.0
outer loop
vertex 232.134474394478 335.19858971462 455.166209517644
vertex 243.836958234391 335.19858971462 456.166209517644
vertex 233.622055194911 335.19858971462 456.166209517644
endloop
endfacet
facet normal -2.33587782949965e-14 -1.0 -1.29063420175124e-14
outer loop
vertex 239.608239526502 341.19858971462 450.066209517644
vertex 238.536958234392 341.19858971462 448.466209517644
vertex 239.608239526502 341.19858971462 448.466209517644
endloop
endfacet
facet normal -2.33587782949965e-14 -1.0 -1.29063420175124e-14
outer loop
vertex 238.536958234392 341.19858971462 448.466209517644
vertex 239.608239526502 341.19858971462 450.066209517644
vertex 238.511131414512 341.19858971462 448.761411419677
endloop
endfacet
facet normal -2.33587782949965e-14 -1.0 -1.29063420175124e-14
outer loop
vertex 238.511131414512 341.19858971462 448.761411419677
vertex 239.608239526502 341.19858971462 450.066209517644
vertex 238.434435689728 341.19858971462 449.047643761297
endloop
endfacet
facet normal -2.33587782949965e-14 -1.0 -1.29063420175124e-14
outer loop
vertex 238.434435689728 341.19858971462 449.047643761297
vertex 239.608239526502 341.19858971462 450.066209517644
vertex 238.309201420825 341.19858971462 449.316209517644
endloop
endfacet
facet normal -2.33587782949965e-14 -1.0 -1.29063420175124e-14
outer loop
vertex 238.309201420825 341.19858971462 449.316209517644
vertex 239.608239526502 341.19858971462 450.066209517644
vertex 238.139233787694 341.19858971462 449.558948454111
endloop
endfacet
facet normal -2.33587782949965e-14 -1.0 -1.29063420175124e-14
outer loop
vertex 238.139233787694 341.19858971462 449.558948454111
vertex 239.608239526502 341.19858971462 450.066209517644
vertex 237.929697170859 341.19858971462 449.768485070946
endloop
endfacet
facet normal -2.33587782949965e-14 -1.0 -1.29063420175124e-14
outer loop
vertex 237.929697170859 341.19858971462 449.768485070946
vertex 239.608239526502 341.19858971462 450.066209517644
vertex 237.686958234392 341.19858971462 449.938452704077
endloop
endfacet
facet normal -2.33587782949965e-14 -1.0 -1.29063420175124e-14
outer loop
vertex 237.686958234392 341.19858971462 449.938452704077
vertex 239.608239526502 341.19858971462 450.066209517644
vertex 237.418392478045 341.19858971462 450.06368697298
endloop
endfacet
facet normal -2.33587782949965e-14 -1.0 -1.29063420175124e-14
outer loop
vertex 237.418392478045 341.19858971462 450.06368697298
vertex 239.608239526502 341.19858971462 450.066209517644
vertex 237.132160136425 341.19858971462 450.140382697764
endloop
endfacet
facet normal -2.33587782949965e-14 -1.0 -1.29063420175124e-14
outer loop
vertex 237.132160136425 341.19858971462 450.140382697764
vertex 239.608239526502 341.19858971462 450.066209517644
vertex 236.836958234392 341.19858971462 451.666209517644
endloop
endfacet
facet normal -2.33587782949965e-14 -1.0 -1.29063420175124e-14
outer loop
vertex 237.132160136425 341.19858971462 450.140382697764
vertex 236.836958234392 341.19858971462 451.666209517644
vertex 236.836958234392 341.19858971462 450.166209517644
endloop
endfacet
facet normal -2.33587782949965e-14 -1.0 -1.29063420175124e-14
outer loop
vertex 235.162785054271 341.19858971462 448.761411419677
vertex 234.065676942281 341.19858971462 448.466209517644
vertex 235.136958234391 341.19858971462 448.466209517644
endloop
endfacet
facet normal -2.33587782949965e-14 -1.0 -1.29063420175124e-14
outer loop
vertex 234.065676942281 341.19858971462 448.466209517644
vertex 235.162785054271 341.19858971462 448.761411419677
vertex 234.065676942281 341.19858971462 450.066209517644
endloop
endfacet
facet normal -2.33587782949965e-14 -1.0 -1.29063420175124e-14
outer loop
vertex 234.065676942281 341.19858971462 450.066209517644
vertex 235.162785054271 341.19858971462 448.761411419677
vertex 235.239480779055 341.19858971462 449.047643761297
endloop
endfacet
facet normal -2.33587782949965e-14 -1.0 -1.29063420175124e-14
outer loop
vertex 234.065676942281 341.19858971462 450.066209517644
vertex 235.239480779055 341.19858971462 449.047643761297
vertex 235.364715047958 341.19858971462 449.316209517644
endloop
endfacet
facet normal -2.33587782949965e-14 -1.0 -1.29063420175124e-14
outer loop
vertex 234.065676942281 341.19858971462 450.066209517644
vertex 235.364715047958 341.19858971462 449.316209517644
vertex 235.534682681089 341.19858971462 449.558948454111
endloop
endfacet
facet normal -2.33587782949965e-14 -1.0 -1.29063420175124e-14
outer loop
vertex 234.065676942281 341.19858971462 450.066209517644
vertex 235.534682681089 341.19858971462 449.558948454111
vertex 235.744219297924 341.19858971462 449.768485070946
endloop
endfacet
facet normal -2.33587782949965e-14 -1.0 -1.29063420175124e-14
outer loop
vertex 234.065676942281 341.19858971462 450.066209517644
vertex 235.744219297924 341.19858971462 449.768485070946
vertex 235.986958234391 341.19858971462 449.938452704077
endloop
endfacet
facet normal -2.33587782949965e-14 -1.0 -1.29063420175124e-14
outer loop
vertex 234.065676942281 341.19858971462 450.066209517644
vertex 235.986958234391 341.19858971462 449.938452704077
vertex 236.255523990738 341.19858971462 450.06368697298
endloop
endfacet
facet normal -2.33587782949965e-14 -1.0 -1.29063420175124e-14
outer loop
vertex 234.065676942281 341.19858971462 450.066209517644
vertex 236.255523990738 341.19858971462 450.06368697298
vertex 236.541756332358 341.19858971462 450.140382697764
endloop
endfacet
facet normal -2.33587782949965e-14 -1.0 -1.29063420175124e-14
outer loop
vertex 234.065676942281 341.19858971462 450.066209517644
vertex 236.541756332358 341.19858971462 450.140382697764
vertex 236.836958234392 341.19858971462 451.666209517644
endloop
endfacet
facet normal -2.33587782949965e-14 -1.0 -1.29063420175124e-14
outer loop
vertex 236.836958234392 341.19858971462 451.666209517644
vertex 236.541756332358 341.19858971462 450.140382697764
vertex 236.836958234392 341.19858971462 450.166209517644
endloop
endfacet
facet normal 0.0 1.0 0.0
outer loop
vertex 241.836958234391 343.19858971462 461.688533439201
vertex 241.836958234391 343.19858971462 454.966209517644
vertex 231.836958234391 343.19858971462 454.966209517644
endloop
endfacet
facet normal 0.866025403784451 -1.68073182261351e-14 -0.499999999999979
outer loop
vertex 235.364715047958 341.19858971462 449.316209517644
vertex 235.534682681089 343.19858971462 449.558948454111
vertex 235.534682681089 341.19858971462 449.558948454111
endloop
endfacet
facet normal 0.766044443119017 -1.23838413907669e-14 -0.642787609686493
outer loop
vertex 235.534682681089 343.19858971462 449.558948454111
vertex 235.364715047958 341.19858971462 449.316209517644
vertex 235.364715047958 343.19858971462 449.316209517644
endloop
endfacet
facet normal -0.614860738007458 0.788635703513938 0.0
outer loop
vertex 231.836958234391 343.19858971462 440.966209517644
vertex 241.836958234391 350.995101275887 438.966209517644
vertex 231.836958234391 343.19858971462 438.966209517644
endloop
endfacet
facet normal -0.614860738007458 0.788635703513938 0.0
outer loop
vertex 241.836958234391 350.995101275887 438.966209517644
vertex 231.836958234391 343.19858971462 440.966209517644
vertex 241.836958234391 350.995101275887 440.966209517644
endloop
endfacet
facet normal 0.499999999999998 -8.14054203902395e-15 -0.86602540378444
outer loop
vertex 236.836958234392 341.19858971462 451.666209517644
vertex 234.065676942281 337.19858971462 450.066209517644
vertex 234.065676942281 341.19858971462 450.066209517644
endloop
endfacet
facet normal 0.499999999999998 -8.14054203902395e-15 -0.86602540378444
outer loop
vertex 234.065676942281 337.19858971462 450.066209517644
vertex 236.836958234392 341.19858971462 451.666209517644
vertex 236.836958234392 337.19858971462 451.666209517644
endloop
endfacet
facet normal 0.766044443119017 -1.23838413907669e-14 -0.642787609686493
outer loop
vertex 235.534682681089 343.19858971462 449.558948454111
vertex 235.744219297924 341.19858971462 449.768485070946
vertex 235.534682681089 341.19858971462 449.558948454111
endloop
endfacet
facet normal 0.64278760968656 -7.58408780126448e-15 -0.766044443118961
outer loop
vertex 235.744219297924 341.19858971462 449.768485070946
vertex 235.534682681089 343.19858971462 449.558948454111
vertex 235.744219297924 343.19858971462 449.768485070946
endloop
endfacet
facet normal 0.499999999999991 -2.55389554165411e-15 -0.866025403784444
outer loop
vertex 235.986958234391 343.19858971462 449.938452704077
vertex 235.744219297924 341.19858971462 449.768485070946
vertex 235.744219297924 343.19858971462 449.768485070946
endloop
endfacet
facet normal 0.64278760968656 -7.58408780126448e-15 -0.766044443118961
outer loop
vertex 235.744219297924 341.19858971462 449.768485070946
vertex 235.986958234391 343.19858971462 449.938452704077
vertex 235.986958234391 341.19858971462 449.938452704077
endloop
endfacet
facet normal 0.342020143325604 2.5538955416566e-15 -0.939692620785932
outer loop
vertex 236.255523990738 343.19858971462 450.06368697298
vertex 235.986958234391 341.19858971462 449.938452704077
vertex 235.986958234391 343.19858971462 449.938452704077
endloop
endfacet
facet normal 0.499999999999991 -2.55389554165411e-15 -0.866025403784444
outer loop
vertex 235.986958234391 341.19858971462 449.938452704077
vertex 236.255523990738 343.19858971462 450.06368697298
vertex 236.255523990738 341.19858971462 450.06368697298
endloop
endfacet
facet normal 0.173648177666835 7.58408780126664e-15 -0.984807753012225
outer loop
vertex 236.541756332358 343.19858971462 450.140382697764
vertex 236.255523990738 341.19858971462 450.06368697298
vertex 236.255523990738 343.19858971462 450.06368697298
endloop
endfacet
facet normal 0.342020143325604 2.5538955416566e-15 -0.939692620785932
outer loop
vertex 236.255523990738 341.19858971462 450.06368697298
vertex 236.541756332358 343.19858971462 450.140382697764
vertex 236.541756332358 341.19858971462 450.140382697764
endloop
endfacet
facet normal 0.0 0.0 1.0
outer loop
vertex 241.836958234391 350.995101275887 454.966209517644
vertex 231.836958234391 343.19858971462 454.966209517644
vertex 241.836958234391 343.19858971462 454.966209517644
endloop
endfacet
facet normal 1.0 0.0 0.0
outer loop
vertex 243.836958234391 332.198589714619 438.966209517644
vertex 243.836958234391 335.69858971462 441.966209517644
vertex 243.836958234391 332.198589714619 453.266209517644
endloop
endfacet
facet normal 1.0 0.0 0.0
outer loop
vertex 243.836958234391 335.69858971462 441.966209517644
vertex 243.836958234391 332.198589714619 438.966209517644
vertex 243.836958234391 350.995101275887 438.966209517644
endloop
endfacet
facet normal 1.0 0.0 0.0
outer loop
vertex 243.836958234391 335.69858971462 441.966209517644
vertex 243.836958234391 350.995101275887 438.966209517644
vertex 243.836958234391 337.19858971462 441.966209517644
endloop
endfacet
facet normal 1.0 0.0 0.0
outer loop
vertex 243.836958234391 337.19858971462 441.966209517644
vertex 243.836958234391 350.995101275887 438.966209517644
vertex 243.836958234391 337.19858971462 461.688533439201
endloop
endfacet
facet normal 1.0 0.0 0.0
outer loop
vertex 243.836958234391 337.19858971462 461.688533439201
vertex 243.836958234391 350.995101275887 438.966209517644
vertex 243.836958234391 350.995101275887 461.688533439201
endloop
endfacet
facet normal 1.0 0.0 0.0
outer loop
vertex 243.836958234391 337.19858971462 455.166209517644
vertex 243.836958234391 335.19858971462 456.166209517644
vertex 243.836958234391 335.19858971462 455.166209517644
endloop
endfacet
facet normal 1.0 0.0 0.0
outer loop
vertex 243.836958234391 335.19858971462 456.166209517644
vertex 243.836958234391 337.19858971462 455.166209517644
vertex 243.836958234391 337.19858971462 457.166209517644
endloop
endfacet
facet normal 1.0 0.0 0.0
outer loop
vertex 243.836958234391 337.19858971462 457.166209517644
vertex 243.836958234391 337.19858971462 455.166209517644
vertex 243.836958234391 337.19858971462 441.966209517644
endloop
endfacet
facet normal 1.0 0.0 0.0
outer loop
vertex 243.836958234391 337.19858971462 457.166209517644
vertex 243.836958234391 337.19858971462 441.966209517644
vertex 243.836958234391 337.19858971462 461.688533439201
endloop
endfacet
facet normal 1.0 0.0 0.0
outer loop
vertex 243.836958234391 335.69858971462 453.266209517644
vertex 243.836958234391 332.198589714619 453.266209517644
vertex 243.836958234391 335.69858971462 441.966209517644
endloop
endfacet
facet normal 1.6402012814195e-15 -1.0 -1.48665983118221e-15
outer loop
vertex 243.836958234391 337.19858971462 441.966209517644
vertex 239.608239526502 337.198589714619 446.866209517644
vertex 231.836958234391 337.19858971462 441.966209517644
endloop
endfacet
facet normal 1.6402012814195e-15 -1.0 -1.48665983118221e-15
outer loop
vertex 239.608239526502 337.198589714619 446.866209517644
vertex 243.836958234391 337.19858971462 441.966209517644
vertex 243.836958234391 337.19858971462 455.166209517644
endloop
endfacet
facet normal 1.6402012814195e-15 -1.0 -1.48665983118221e-15
outer loop
vertex 231.836958234391 337.19858971462 441.966209517644
vertex 239.608239526502 337.198589714619 446.866209517644
vertex 236.836958234391 337.19858971462 445.266209517644
endloop
endfacet
facet normal 1.6402012814195e-15 -1.0 -1.48665983118221e-15
outer loop
vertex 239.608239526502 337.198589714619 446.866209517644
vertex 243.836958234391 337.19858971462 455.166209517644
vertex 239.608239526502 337.198589714619 450.066209517644
endloop
endfacet
facet normal 1.6402012814195e-15 -1.0 -1.48665983118221e-15
outer loop
vertex 239.608239526502 337.198589714619 450.066209517644
vertex 243.836958234391 337.19858971462 455.166209517644
vertex 236.836958234392 337.19858971462 451.666209517644
endloop
endfacet
facet normal 1.6402012814195e-15 -1.0 -1.48665983118221e-15
outer loop
vertex 236.836958234392 337.19858971462 451.666209517644
vertex 243.836958234391 337.19858971462 455.166209517644
vertex 231.836958234391 337.19858971462 454.966209517644
endloop
endfacet
facet normal 1.6402012814195e-15 -1.0 -1.48665983118221e-15
outer loop
vertex 231.836958234391 337.19858971462 454.966209517644
vertex 243.836958234391 337.19858971462 455.166209517644
vertex 232.134474394478 337.19858971462 455.166209517644
endloop
endfacet
facet normal 1.6402012814195e-15 -1.0 -1.48665983118221e-15
outer loop
vertex 231.836958234391 337.19858971462 441.966209517644
vertex 234.065676942281 337.19858971462 446.866209517644
vertex 231.836958234391 337.19858971462 454.966209517644
endloop
endfacet
facet normal 1.6402012814195e-15 -1.0 -1.48665983118221e-15
outer loop
vertex 234.065676942281 337.19858971462 446.866209517644
vertex 231.836958234391 337.19858971462 441.966209517644
vertex 236.836958234391 337.19858971462 445.266209517644
endloop
endfacet
facet normal 1.6402012814195e-15 -1.0 -1.48665983118221e-15
outer loop
vertex 231.836958234391 337.19858971462 454.966209517644
vertex 234.065676942281 337.19858971462 446.866209517644
vertex 234.065676942281 337.19858971462 450.066209517644
endloop
endfacet
facet normal 1.6402012814195e-15 -1.0 -1.48665983118221e-15
outer loop
vertex 231.836958234391 337.19858971462 454.966209517644
vertex 234.065676942281 337.19858971462 450.066209517644
vertex 236.836958234392 337.19858971462 451.666209517644
endloop
endfacet
facet normal 0.0 -1.0 9.97705261794411e-15
outer loop
vertex 243.836958234391 337.19858971462 461.688533439201
vertex 235.109635995344 337.19858971462 457.166209517644
vertex 243.836958234391 337.19858971462 457.166209517644
endloop
endfacet
facet normal 0.0 -1.0 9.97705261794411e-15
outer loop
vertex 235.109635995344 337.19858971462 457.166209517644
vertex 243.836958234391 337.19858971462 461.688533439201
vertex 241.836958234391 337.19858971462 461.688533439201
endloop
endfacet
facet normal 0.0 0.0 -1.0
outer loop
vertex 241.836958234391 343.19858971462 452.966209517644
vertex 231.836958234391 343.19858971462 452.966209517644
vertex 241.836958234391 350.995101275887 452.966209517644
endloop
endfacet
facet normal -2.33587782949964e-14 -1.0 1.21800595392381e-15
outer loop
vertex 239.608239526502 341.19858971462 446.866209517644
vertex 236.836958234392 341.19858971462 446.766209517644
vertex 236.836958234391 341.19858971462 445.266209517644
endloop
endfacet
facet normal -2.33587782949964e-14 -1.0 1.21800595392381e-15
outer loop
vertex 236.836958234392 341.19858971462 446.766209517644
vertex 239.608239526502 341.19858971462 446.866209517644
vertex 237.132160136425 341.19858971462 446.792036337523
endloop
endfacet
facet normal -2.33587782949964e-14 -1.0 1.21800595392381e-15
outer loop
vertex 237.132160136425 341.19858971462 446.792036337523
vertex 239.608239526502 341.19858971462 446.866209517644
vertex 237.418392478045 341.19858971462 446.868732062308
endloop
endfacet
facet normal -2.33587782949964e-14 -1.0 1.21800595392381e-15
outer loop
vertex 237.418392478045 341.19858971462 446.868732062308
vertex 239.608239526502 341.19858971462 446.866209517644
vertex 237.686958234392 341.19858971462 446.99396633121
endloop
endfacet
facet normal -2.33587782949964e-14 -1.0 1.21800595392381e-15
outer loop
vertex 237.686958234392 341.19858971462 446.99396633121
vertex 239.608239526502 341.19858971462 446.866209517644
vertex 237.929697170859 341.19858971462 447.163933964341
endloop
endfacet
facet normal -2.33587782949964e-14 -1.0 1.21800595392381e-15
outer loop
vertex 237.929697170859 341.19858971462 447.163933964341
vertex 239.608239526502 341.19858971462 446.866209517644
vertex 239.608239526502 341.19858971462 448.466209517644
endloop
endfacet
facet normal -2.33587782949964e-14 -1.0 1.21800595392381e-15
outer loop
vertex 237.929697170859 341.19858971462 447.163933964341
vertex 239.608239526502 341.19858971462 448.466209517644
vertex 238.139233787694 341.19858971462 447.373470581176
endloop
endfacet
facet normal -2.33587782949964e-14 -1.0 1.21800595392381e-15
outer loop
vertex 238.139233787694 341.19858971462 447.373470581176
vertex 239.608239526502 341.19858971462 448.466209517644
vertex 238.309201420825 341.19858971462 447.616209517644
endloop
endfacet
facet normal -2.33587782949964e-14 -1.0 1.21800595392381e-15
outer loop
vertex 238.309201420825 341.19858971462 447.616209517644
vertex 239.608239526502 341.19858971462 448.466209517644
vertex 238.434435689728 341.19858971462 447.88477527399
endloop
endfacet
facet normal -2.33587782949964e-14 -1.0 1.21800595392381e-15
outer loop
vertex 238.434435689728 341.19858971462 447.88477527399
vertex 239.608239526502 341.19858971462 448.466209517644
vertex 238.511131414512 341.19858971462 448.17100761561
endloop
endfacet
facet normal -2.33587782949964e-14 -1.0 1.21800595392381e-15
outer loop
vertex 238.511131414512 341.19858971462 448.17100761561
vertex 239.608239526502 341.19858971462 448.466209517644
vertex 238.536958234392 341.19858971462 448.466209517644
endloop
endfacet
facet normal -2.33587782949964e-14 -1.0 1.21800595392381e-15
outer loop
vertex 236.836958234392 341.19858971462 446.766209517644
vertex 234.065676942281 341.19858971462 446.866209517644
vertex 236.836958234391 341.19858971462 445.266209517644
endloop
endfacet
facet normal -2.33587782949964e-14 -1.0 1.21800595392381e-15
outer loop
vertex 234.065676942281 341.19858971462 446.866209517644
vertex 236.836958234392 341.19858971462 446.766209517644
vertex 236.541756332358 341.19858971462 446.792036337523
endloop
endfacet
facet normal -2.33587782949964e-14 -1.0 1.21800595392381e-15
outer loop
vertex 234.065676942281 341.19858971462 446.866209517644
vertex 236.541756332358 341.19858971462 446.792036337523
vertex 236.255523990738 341.19858971462 446.868732062308
endloop
endfacet
facet normal -2.33587782949964e-14 -1.0 1.21800595392381e-15
outer loop
vertex 234.065676942281 341.19858971462 446.866209517644
vertex 236.255523990738 341.19858971462 446.868732062308
vertex 235.986958234391 341.19858971462 446.99396633121
endloop
endfacet
facet normal -2.33587782949964e-14 -1.0 1.21800595392381e-15
outer loop
vertex 234.065676942281 341.19858971462 446.866209517644
vertex 235.986958234391 341.19858971462 446.99396633121
vertex 235.744219297924 341.19858971462 447.163933964341
endloop
endfacet
facet normal -2.33587782949964e-14 -1.0 1.21800595392381e-15
outer loop
vertex 234.065676942281 341.19858971462 446.866209517644
vertex 235.744219297924 341.19858971462 447.163933964341
vertex 234.065676942281 341.19858971462 448.466209517644
endloop
endfacet
facet normal -2.33587782949964e-14 -1.0 1.21800595392381e-15
outer loop
vertex 234.065676942281 341.19858971462 448.466209517644
vertex 235.744219297924 341.19858971462 447.163933964341
vertex 235.534682681089 341.19858971462 447.373470581176
endloop
endfacet
facet normal -2.33587782949964e-14 -1.0 1.21800595392381e-15
outer loop
vertex 234.065676942281 341.19858971462 448.466209517644
vertex 235.534682681089 341.19858971462 447.373470581176
vertex 235.364715047958 341.19858971462 447.616209517644
endloop
endfacet
facet normal -2.33587782949964e-14 -1.0 1.21800595392381e-15
outer loop
vertex 234.065676942281 341.19858971462 448.466209517644
vertex 235.364715047958 341.19858971462 447.616209517644
vertex 235.239480779055 341.19858971462 447.88477527399
endloop
endfacet
facet normal -2.33587782949964e-14 -1.0 1.21800595392381e-15
outer loop
vertex 234.065676942281 341.19858971462 448.466209517644
vertex 235.239480779055 341.19858971462 447.88477527399
vertex 235.162785054271 341.19858971462 448.17100761561
endloop
endfacet
facet normal -2.33587782949964e-14 -1.0 1.21800595392381e-15
outer loop
vertex 234.065676942281 341.19858971462 448.466209517644
vertex 235.162785054271 341.19858971462 448.17100761561
vertex 235.136958234391 341.19858971462 448.466209517644
endloop
endfacet
facet normal -0.499999999999998 8.14054203902395e-15 0.86602540378444
outer loop
vertex 239.608239526502 337.198589714619 446.866209517644
vertex 236.836958234391 341.19858971462 445.266209517644
vertex 236.836958234391 337.19858971462 445.266209517644
endloop
endfacet
facet normal -0.499999999999998 8.14054203902395e-15 0.86602540378444
outer loop
vertex 236.836958234391 341.19858971462 445.266209517644
vertex 239.608239526502 337.198589714619 446.866209517644
vertex 239.608239526502 341.19858971462 446.866209517644
endloop
endfacet
facet normal -1.0 1.62810840780476e-14 1.40998324127395e-14
outer loop
vertex 239.608239526502 341.19858971462 450.066209517644
vertex 239.608239526502 337.198589714619 446.866209517644
vertex 239.608239526502 337.198589714619 450.066209517644
endloop
endfacet
facet normal -1.0 1.62810840780476e-14 1.40998324127395e-14
outer loop
vertex 239.608239526502 337.198589714619 446.866209517644
vertex 239.608239526502 341.19858971462 450.066209517644
vertex 239.608239526502 341.19858971462 446.866209517644
endloop
endfacet
facet normal -1.0 1.62810840780476e-14 1.40998324127395e-14
outer loop
vertex 239.608239526502 341.19858971462 446.866209517644
vertex 239.608239526502 341.19858971462 450.066209517644
vertex 239.608239526502 341.19858971462 448.466209517644
endloop
endfacet
facet normal 1.0 -1.62810840780476e-14 -1.40998324127395e-14
outer loop
vertex 234.065676942281 341.19858971462 446.866209517644
vertex 234.065676942281 337.19858971462 450.066209517644
vertex 234.065676942281 337.19858971462 446.866209517644
endloop
endfacet
facet normal 1.0 -1.62810840780476e-14 -1.40998324127395e-14
outer loop
vertex 234.065676942281 337.19858971462 450.066209517644
vertex 234.065676942281 341.19858971462 446.866209517644
vertex 234.065676942281 341.19858971462 450.066209517644
endloop
endfacet
facet normal 1.0 -1.62810840780476e-14 -1.40998324127395e-14
outer loop
vertex 234.065676942281 341.19858971462 450.066209517644
vertex 234.065676942281 341.19858971462 446.866209517644
vertex 234.065676942281 341.19858971462 448.466209517644
endloop
endfacet
facet normal -0.614860738007458 0.788635703513938 1.60547775668611e-27
outer loop
vertex 231.836958234391 343.19858971462 454.966209517644
vertex 241.836958234391 350.995101275887 452.966209517644
vertex 231.836958234391 343.19858971462 452.966209517644
endloop
endfacet
facet normal -0.614860738007458 0.788635703513938 1.60547775668611e-27
outer loop
vertex 241.836958234391 350.995101275887 452.966209517644
vertex 231.836958234391 343.19858971462 454.966209517644
vertex 241.836958234391 350.995101275887 454.966209517644
endloop
endfacet
facet normal -4.89749321553465e-15 9.42148164487145e-15 -1.0
outer loop
vertex 241.836958234391 350.995101275887 438.966209517644
vertex 231.836958234391 332.198589714619 438.966209517644
vertex 231.836958234391 343.19858971462 438.966209517644
endloop
endfacet
facet normal -4.89749321553465e-15 9.42148164487145e-15 -1.0
outer loop
vertex 231.836958234391 332.198589714619 438.966209517644
vertex 241.836958234391 350.995101275887 438.966209517644
vertex 243.836958234391 332.198589714619 438.966209517644
endloop
endfacet
facet normal -4.89749321553465e-15 9.42148164487145e-15 -1.0
outer loop
vertex 243.836958234391 332.198589714619 438.966209517644
vertex 241.836958234391 350.995101275887 438.966209517644
vertex 243.836958234391 350.995101275887 438.966209517644
endloop
endfacet
facet normal 0.500000000000004 -8.14054203902365e-15 0.866025403784436
outer loop
vertex 236.836958234391 337.19858971462 445.266209517644
vertex 234.065676942281 341.19858971462 446.866209517644
vertex 234.065676942281 337.19858971462 446.866209517644
endloop
endfacet
facet normal 0.500000000000004 -8.14054203902365e-15 0.866025403784436
outer loop
vertex 234.065676942281 341.19858971462 446.866209517644
vertex 236.836958234391 337.19858971462 445.266209517644
vertex 236.836958234391 341.19858971462 445.266209517644
endloop
endfacet
facet normal -0.500000000000004 8.14054203902365e-15 -0.866025403784436
outer loop
vertex 239.608239526502 341.19858971462 450.066209517644
vertex 236.836958234392 337.19858971462 451.666209517644
vertex 236.836958234392 341.19858971462 451.666209517644
endloop
endfacet
facet normal -0.500000000000004 8.14054203902365e-15 -0.866025403784436
outer loop
vertex 236.836958234392 337.19858971462 451.666209517644
vertex 239.608239526502 341.19858971462 450.066209517644
vertex 239.608239526502 337.198589714619 450.066209517644
endloop
endfacet
facet normal -1.0 0.0 0.0
outer loop
vertex 231.836958234391 343.19858971462 454.966209517644
vertex 231.836958234391 337.19858971462 441.966209517644
vertex 231.836958234391 337.19858971462 454.966209517644
endloop
endfacet
facet normal -1.0 0.0 0.0
outer loop
vertex 231.836958234391 335.69858971462 453.266209517644
vertex 231.836958234391 332.198589714619 438.966209517644
vertex 231.836958234391 332.198589714619 453.266209517644
endloop
endfacet
facet normal -1.0 0.0 0.0
outer loop
vertex 231.836958234391 332.198589714619 438.966209517644
vertex 231.836958234391 335.69858971462 453.266209517644
vertex 231.836958234391 335.69858971462 441.966209517644
endloop
endfacet
facet normal -1.0 0.0 0.0
outer loop
vertex 231.836958234391 332.198589714619 438.966209517644
vertex 231.836958234391 335.69858971462 441.966209517644
vertex 231.836958234391 343.19858971462 438.966209517644
endloop
endfacet
facet normal -1.0 0.0 0.0
outer loop
vertex 231.836958234391 343.19858971462 438.966209517644
vertex 231.836958234391 335.69858971462 441.966209517644
vertex 231.836958234391 337.19858971462 441.966209517644
endloop
endfacet
facet normal -1.0 0.0 0.0
outer loop
vertex 231.836958234391 343.19858971462 438.966209517644
vertex 231.836958234391 337.19858971462 441.966209517644
vertex 231.836958234391 343.19858971462 454.966209517644
endloop
endfacet
facet normal -1.0 0.0 0.0
outer loop
vertex 231.836958234391 343.19858971462 438.966209517644
vertex 231.836958234391 343.19858971462 454.966209517644
vertex 231.836958234391 343.19858971462 452.966209517644
endloop
endfacet
facet normal -1.0 0.0 0.0
outer loop
vertex 231.836958234391 343.19858971462 438.966209517644
vertex 231.836958234391 343.19858971462 452.966209517644
vertex 231.836958234391 343.19858971462 440.966209517644
endloop
endfacet
facet normal 0.0 1.0 0.0
outer loop
vertex 241.836958234391 350.995101275887 440.966209517644
vertex 243.836958234391 350.995101275887 438.966209517644
vertex 241.836958234391 350.995101275887 438.966209517644
endloop
endfacet
facet normal 0.0 1.0 0.0
outer loop
vertex 243.836958234391 350.995101275887 438.966209517644
vertex 241.836958234391 350.995101275887 440.966209517644
vertex 243.836958234391 350.995101275887 461.688533439201
endloop
endfacet
facet normal 0.0 1.0 0.0
outer loop
vertex 243.836958234391 350.995101275887 461.688533439201
vertex 241.836958234391 350.995101275887 440.966209517644
vertex 241.836958234391 350.995101275887 452.966209517644
endloop
endfacet
facet normal 0.0 1.0 0.0
outer loop
vertex 243.836958234391 350.995101275887 461.688533439201
vertex 241.836958234391 350.995101275887 452.966209517644
vertex 241.836958234391 350.995101275887 454.966209517644
endloop
endfacet
facet normal 0.0 1.0 0.0
outer loop
vertex 243.836958234391 350.995101275887 461.688533439201
vertex 241.836958234391 350.995101275887 454.966209517644
vertex 241.836958234391 350.995101275887 461.688533439201
endloop
endfacet
facet normal 8.47840253545652e-15 1.23838413907652e-14 -1.0
outer loop
vertex 236.836958234392 343.19858971462 450.166209517644
vertex 236.541756332358 341.19858971462 450.140382697764
vertex 236.541756332358 343.19858971462 450.140382697764
endloop
endfacet
facet normal 0.173648177666835 7.58408780126664e-15 -0.984807753012225
outer loop
vertex 236.541756332358 341.19858971462 450.140382697764
vertex 236.836958234392 343.19858971462 450.166209517644
vertex 236.836958234392 341.19858971462 450.166209517644
endloop
endfacet
facet normal -0.173648177666827 1.68073182261321e-14 -0.984807753012226
outer loop
vertex 237.132160136425 343.19858971462 450.140382697764
vertex 236.836958234392 341.19858971462 450.166209517644
vertex 236.836958234392 343.19858971462 450.166209517644
endloop
endfacet
facet normal -4.23920126772764e-15 1.23838413907655e-14 -1.0
outer loop
vertex 236.836958234392 341.19858971462 450.166209517644
vertex 237.132160136425 343.19858971462 450.140382697764
vertex 237.132160136425 341.19858971462 450.140382697764
endloop
endfacet
facet normal -0.342020143325634 2.07201132021154e-14 -0.939692620785921
outer loop
vertex 237.418392478045 343.19858971462 450.06368697298
vertex 237.132160136425 341.19858971462 450.140382697764
vertex 237.132160136425 343.19858971462 450.140382697764
endloop
endfacet
facet normal -0.173648177666839 1.68073182261324e-14 -0.984807753012224
outer loop
vertex 237.132160136425 341.19858971462 450.140382697764
vertex 237.418392478045 343.19858971462 450.06368697298
vertex 237.418392478045 341.19858971462 450.06368697298
endloop
endfacet
facet normal -0.499999999999981 2.40033380233342e-14 -0.86602540378445
outer loop
vertex 237.686958234392 343.19858971462 449.938452704077
vertex 237.418392478045 341.19858971462 450.06368697298
vertex 237.418392478045 343.19858971462 450.06368697298
endloop
endfacet
facet normal -0.342020143325634 2.07201132021154e-14 -0.939692620785921
outer loop
vertex 237.418392478045 341.19858971462 450.06368697298
vertex 237.686958234392 343.19858971462 449.938452704077
vertex 237.686958234392 341.19858971462 449.938452704077
endloop
endfacet
facet normal -0.0 -1.0 -0.0
outer loop
vertex 243.836958234391 332.198589714619 453.266209517644
vertex 231.836958234391 332.198589714619 438.966209517644
vertex 243.836958234391 332.198589714619 438.966209517644
endloop
endfacet
facet normal -0.0 -1.0 -0.0
outer loop
vertex 231.836958234391 332.198589714619 438.966209517644
vertex 243.836958234391 332.198589714619 453.266209517644
vertex 231.836958234391 332.198589714619 453.266209517644
endloop
endfacet
facet normal 0.0 1.0 0.0
outer loop
vertex 231.836958234391 335.69858971462 453.266209517644
vertex 232.565676942281 335.69858971462 441.966209517644
vertex 231.836958234391 335.69858971462 441.966209517644
endloop
endfacet
facet normal 0.0 1.0 0.0
outer loop
vertex 232.565676942281 335.69858971462 441.966209517644
vertex 231.836958234391 335.69858971462 453.266209517644
vertex 232.565676942281 335.69858971462 453.266209517644
endloop
endfacet
facet normal 0.0 0.0 1.0
outer loop
vertex 241.836958234391 350.995101275887 440.966209517644
vertex 231.836958234391 343.19858971462 440.966209517644
vertex 241.836958234391 343.19858971462 440.966209517644
endloop
endfacet
facet normal -1.0 0.0 0.0
outer loop
vertex 241.836958234391 350.995101275887 461.688533439201
vertex 241.836958234391 343.19858971462 454.966209517644
vertex 241.836958234391 343.19858971462 461.688533439201
endloop
endfacet
facet normal -1.0 0.0 0.0
outer loop
vertex 241.836958234391 343.19858971462 454.966209517644
vertex 241.836958234391 350.995101275887 461.688533439201
vertex 241.836958234391 350.995101275887 454.966209517644
endloop
endfacet
facet normal 0.0 -0.447213595499926 0.894427190999932
outer loop
vertex 243.836958234391 335.19858971462 456.166209517644
vertex 235.109635995344 337.19858971462 457.166209517644
vertex 233.622055194911 335.19858971462 456.166209517644
endloop
endfacet
facet normal 0.0 -0.447213595499926 0.894427190999932
outer loop
vertex 235.109635995344 337.19858971462 457.166209517644
vertex 243.836958234391 335.19858971462 456.166209517644
vertex 243.836958234391 337.19858971462 457.166209517644
endloop
endfacet
facet normal -0.642787609686526 2.65572335649888e-14 -0.766044443118989
outer loop
vertex 237.929697170859 343.19858971462 449.768485070946
vertex 237.686958234392 341.19858971462 449.938452704077
vertex 237.686958234392 343.19858971462 449.938452704077
endloop
endfacet
facet normal -0.499999999999981 2.40033380233342e-14 -0.86602540378445
outer loop
vertex 237.686958234392 341.19858971462 449.938452704077
vertex 237.929697170859 343.19858971462 449.768485070946
vertex 237.929697170859 341.19858971462 449.768485070946
endloop
endfacet
facet normal -0.642787609686526 2.65572335649888e-14 -0.766044443118989
outer loop
vertex 237.929697170859 343.19858971462 449.768485070946
vertex 238.139233787694 341.19858971462 449.558948454111
vertex 237.929697170859 341.19858971462 449.768485070946
endloop
endfacet
facet normal -0.766044443119017 2.83042010033804e-14 -0.642787609686493
outer loop
vertex 238.139233787694 341.19858971462 449.558948454111
vertex 237.929697170859 343.19858971462 449.768485070946
vertex 238.139233787694 343.19858971462 449.558948454111
endloop
endfacet
facet normal -0.766044443119017 2.83042010033804e-14 -0.642787609686493
outer loop
vertex 238.139233787694 343.19858971462 449.558948454111
vertex 238.309201420825 341.19858971462 449.316209517644
vertex 238.139233787694 341.19858971462 449.558948454111
endloop
endfacet
facet normal -0.866025403784453 2.91911596168999e-14 -0.499999999999975
outer loop
vertex 238.309201420825 341.19858971462 449.316209517644
vertex 238.139233787694 343.19858971462 449.558948454111
vertex 238.309201420825 343.19858971462 449.316209517644
endloop
endfacet
facet normal 0.0 0.0 -1.0
outer loop
vertex 243.836958234391 337.19858971462 455.166209517644
vertex 232.134474394478 335.19858971462 455.166209517644
vertex 232.134474394478 337.19858971462 455.166209517644
endloop
endfacet
facet normal 0.0 0.0 -1.0
outer loop
vertex 232.134474394478 335.19858971462 455.166209517644
vertex 243.836958234391 337.19858971462 455.166209517644
vertex 243.836958234391 335.19858971462 455.166209517644
endloop
endfacet
facet normal -0.866025403784453 2.91911596168999e-14 -0.499999999999975
outer loop
vertex 238.309201420825 343.19858971462 449.316209517644
vertex 238.434435689728 341.19858971462 449.047643761297
vertex 238.309201420825 341.19858971462 449.316209517644
endloop
endfacet
facet normal -0.939692620785902 2.91911596168999e-14 -0.342020143325687
outer loop
vertex 238.434435689728 341.19858971462 449.047643761297
vertex 238.309201420825 343.19858971462 449.316209517644
vertex 238.434435689728 343.19858971462 449.047643761297
endloop
endfacet
facet normal -0.939692620785902 2.91911596168999e-14 -0.342020143325687
outer loop
vertex 238.434435689728 343.19858971462 449.047643761297
vertex 238.511131414512 341.19858971462 448.761411419677
vertex 238.434435689728 341.19858971462 449.047643761297
endloop
endfacet
facet normal -0.984807753012208 2.83042010033798e-14 -0.173648177666929
outer loop
vertex 238.511131414512 341.19858971462 448.761411419677
vertex 238.434435689728 343.19858971462 449.047643761297
vertex 238.511131414512 343.19858971462 448.761411419677
endloop
endfacet
facet normal -0.984807753012208 2.83042010033798e-14 -0.173648177666929
outer loop
vertex 238.511131414512 343.19858971462 448.761411419677
vertex 238.536958234392 341.19858971462 448.466209517644
vertex 238.511131414512 341.19858971462 448.761411419677
endloop
endfacet
facet normal -0.996194698091744 2.75354981679077e-14 -0.0871557427476811
outer loop
vertex 238.536958234392 341.19858971462 448.466209517644
vertex 238.511131414512 343.19858971462 448.761411419677
vertex 238.536958234392 343.19858971462 448.466209517644
endloop
endfacet
facet normal -1.0 0.0 0.0
outer loop
vertex 241.836958234391 350.995101275887 452.966209517644
vertex 241.836958234391 343.19858971462 440.966209517644
vertex 241.836958234391 343.19858971462 452.966209517644
endloop
endfacet
facet normal -1.0 0.0 0.0
outer loop
vertex 241.836958234391 343.19858971462 440.966209517644
vertex 241.836958234391 350.995101275887 452.966209517644
vertex 241.836958234391 350.995101275887 440.966209517644
endloop
endfacet
facet normal -0.996194698091744 2.53768523789444e-14 0.0871557427476811
outer loop
vertex 238.536958234392 343.19858971462 448.466209517644
vertex 238.511131414512 341.19858971462 448.17100761561
vertex 238.536958234392 341.19858971462 448.466209517644
endloop
endfacet
facet normal -0.984807753012208 2.40033380233344e-14 0.173648177666929
outer loop
vertex 238.511131414512 341.19858971462 448.17100761561
vertex 238.536958234392 343.19858971462 448.466209517644
vertex 238.511131414512 343.19858971462 448.17100761561
endloop
endfacet
facet normal -0.984807753012208 2.40033380233344e-14 0.173648177666929
outer loop
vertex 238.511131414512 343.19858971462 448.17100761561
vertex 238.434435689728 341.19858971462 447.88477527399
vertex 238.511131414512 341.19858971462 448.17100761561
endloop
endfacet
facet normal -0.939692620785902 2.07201132021156e-14 0.342020143325687
outer loop
vertex 238.434435689728 341.19858971462 447.88477527399
vertex 238.511131414512 343.19858971462 448.17100761561
vertex 238.434435689728 343.19858971462 447.88477527399
endloop
endfacet
facet normal -0.939692620785902 2.07201132021156e-14 0.342020143325687
outer loop
vertex 238.434435689728 343.19858971462 447.88477527399
vertex 238.309201420825 341.19858971462 447.616209517644
vertex 238.434435689728 341.19858971462 447.88477527399
endloop
endfacet
facet normal -0.866025403784455 1.68073182261353e-14 0.499999999999972
outer loop
vertex 238.309201420825 341.19858971462 447.616209517644
vertex 238.434435689728 343.19858971462 447.88477527399
vertex 238.309201420825 343.19858971462 447.616209517644
endloop
endfacet
facet normal -0.866025403784449 1.6807318226135e-14 0.499999999999983
outer loop
vertex 238.309201420825 343.19858971462 447.616209517644
vertex 238.139233787694 341.19858971462 447.373470581176
vertex 238.309201420825 341.19858971462 447.616209517644
endloop
endfacet
facet normal -0.76604444311902 1.2383841390767e-14 0.64278760968649
outer loop
vertex 238.139233787694 341.19858971462 447.373470581176
vertex 238.309201420825 343.19858971462 447.616209517644
vertex 238.139233787694 343.19858971462 447.373470581176
endloop
endfacet
facet normal -0.766044443119012 1.23838413907666e-14 0.642787609686499
outer loop
vertex 238.139233787694 343.19858971462 447.373470581176
vertex 237.929697170859 341.19858971462 447.163933964341
vertex 238.139233787694 341.19858971462 447.373470581176
endloop
endfacet
facet normal -0.64278760968656 7.58408780126448e-15 0.766044443118961
outer loop
vertex 237.929697170859 341.19858971462 447.163933964341
vertex 238.139233787694 343.19858971462 447.373470581176
vertex 237.929697170859 343.19858971462 447.163933964341
endloop
endfacet
facet normal -0.64278760968656 7.58408780126448e-15 0.766044443118961
outer loop
vertex 237.929697170859 341.19858971462 447.163933964341
vertex 237.686958234392 343.19858971462 446.99396633121
vertex 237.686958234392 341.19858971462 446.99396633121
endloop
endfacet
facet normal -0.499999999999991 2.55389554165411e-15 0.866025403784444
outer loop
vertex 237.686958234392 343.19858971462 446.99396633121
vertex 237.929697170859 341.19858971462 447.163933964341
vertex 237.929697170859 343.19858971462 447.163933964341
endloop
endfacet
facet normal -0.499999999999991 2.55389554165411e-15 0.866025403784444
outer loop
vertex 237.686958234392 341.19858971462 446.99396633121
vertex 237.418392478045 343.19858971462 446.868732062308
vertex 237.418392478045 341.19858971462 446.868732062308
endloop
endfacet
facet normal -0.342020143325604 -2.5538955416566e-15 0.939692620785932
outer loop
vertex 237.418392478045 343.19858971462 446.868732062308
vertex 237.686958234392 341.19858971462 446.99396633121
vertex 237.686958234392 343.19858971462 446.99396633121
endloop
endfacet
facet normal -0.342020143325604 -2.5538955416566e-15 0.939692620785932
outer loop
vertex 237.418392478045 341.19858971462 446.868732062308
vertex 237.132160136425 343.19858971462 446.792036337523
vertex 237.132160136425 341.19858971462 446.792036337523
endloop
endfacet
facet normal -0.173648177666835 -7.58408780126664e-15 0.984807753012225
outer loop
vertex 237.132160136425 343.19858971462 446.792036337523
vertex 237.418392478045 341.19858971462 446.868732062308
vertex 237.418392478045 343.19858971462 446.868732062308
endloop
endfacet
facet normal -0.173648177666835 -7.58408780126664e-15 0.984807753012225
outer loop
vertex 237.132160136425 341.19858971462 446.792036337523
vertex 236.836958234392 343.19858971462 446.766209517644
vertex 236.836958234392 341.19858971462 446.766209517644
endloop
endfacet
facet normal 0.0 -1.23838413907654e-14 1.0
outer loop
vertex 236.836958234392 343.19858971462 446.766209517644
vertex 237.132160136425 341.19858971462 446.792036337523
vertex 237.132160136425 343.19858971462 446.792036337523
endloop
endfacet
facet normal -4.23920126772805e-15 -1.23838413907653e-14 1.0
outer loop
vertex 236.836958234392 341.19858971462 446.766209517644
vertex 236.541756332358 343.19858971462 446.792036337523
vertex 236.541756332358 341.19858971462 446.792036337523
endloop
endfacet
facet normal 0.173648177666835 -1.68073182261323e-14 0.984807753012225
outer loop
vertex 236.541756332358 343.19858971462 446.792036337523
vertex 236.836958234392 341.19858971462 446.766209517644
vertex 236.836958234392 343.19858971462 446.766209517644
endloop
endfacet
facet normal 0.173648177666831 -1.68073182261322e-14 0.984807753012226
outer loop
vertex 236.541756332358 341.19858971462 446.792036337523
vertex 236.255523990738 343.19858971462 446.868732062308
vertex 236.255523990738 341.19858971462 446.868732062308
endloop
endfacet
facet normal 0.342020143325604 -2.07201132021147e-14 0.939692620785932
outer loop
vertex 236.255523990738 343.19858971462 446.868732062308
vertex 236.541756332358 341.19858971462 446.792036337523
vertex 236.541756332358 343.19858971462 446.792036337523
endloop
endfacet
facet normal 0.0 0.0 1.0
outer loop
vertex 231.836958234391 332.198589714619 453.266209517644
vertex 234.065676942281 334.19858971462 453.266209517644
vertex 231.836958234391 335.69858971462 453.266209517644
endloop
endfacet
facet normal 0.0 0.0 1.0
outer loop
vertex 234.065676942281 334.19858971462 453.266209517644
vertex 231.836958234391 332.198589714619 453.266209517644
vertex 243.836958234391 332.198589714619 453.266209517644
endloop
endfacet
facet normal 0.0 0.0 1.0
outer loop
vertex 231.836958234391 335.69858971462 453.266209517644
vertex 234.065676942281 334.19858971462 453.266209517644
vertex 232.565676942281 335.69858971462 453.266209517644
endloop
endfacet
facet normal 0.0 0.0 1.0
outer loop
vertex 234.065676942281 334.19858971462 453.266209517644
vertex 243.836958234391 332.198589714619 453.266209517644
vertex 239.608239526502 334.19858971462 453.266209517644
endloop
endfacet
facet normal 0.0 0.0 1.0
outer loop
vertex 239.608239526502 334.19858971462 453.266209517644
vertex 243.836958234391 332.198589714619 453.266209517644
vertex 241.108239526502 335.69858971462 453.266209517644
endloop
endfacet
facet normal 0.0 0.0 1.0
outer loop
vertex 241.108239526502 335.69858971462 453.266209517644
vertex 243.836958234391 332.198589714619 453.266209517644
vertex 243.836958234391 335.69858971462 453.266209517644
endloop
endfacet
facet normal 0.0 1.0 0.0
outer loop
vertex 234.065676942281 334.19858971462 453.266209517644
vertex 239.608239526502 334.19858971462 441.966209517644
vertex 234.065676942281 334.19858971462 441.966209517644
endloop
endfacet
facet normal 0.0 1.0 0.0
outer loop
vertex 239.608239526502 334.19858971462 441.966209517644
vertex 234.065676942281 334.19858971462 453.266209517644
vertex 239.608239526502 334.19858971462 453.266209517644
endloop
endfacet
facet normal 5.73025066180345e-15 -1.69499047941893e-14 1.0
outer loop
vertex 232.565676942281 335.69858971462 441.966209517644
vertex 231.836958234391 337.19858971462 441.966209517644
vertex 231.836958234391 335.69858971462 441.966209517644
endloop
endfacet
facet normal 5.73025066180345e-15 -1.69499047941893e-14 1.0
outer loop
vertex 231.836958234391 337.19858971462 441.966209517644
vertex 232.565676942281 335.69858971462 441.966209517644
vertex 243.836958234391 337.19858971462 441.966209517644
endloop
endfacet
facet normal 5.73025066180345e-15 -1.69499047941893e-14 1.0
outer loop
vertex 243.836958234391 337.19858971462 441.966209517644
vertex 232.565676942281 335.69858971462 441.966209517644
vertex 234.065676942281 334.19858971462 441.966209517644
endloop
endfacet
facet normal 5.73025066180345e-15 -1.69499047941893e-14 1.0
outer loop
vertex 243.836958234391 337.19858971462 441.966209517644
vertex 234.065676942281 334.19858971462 441.966209517644
vertex 241.108239526502 335.69858971462 441.966209517644
endloop
endfacet
facet normal 5.73025066180345e-15 -1.69499047941893e-14 1.0
outer loop
vertex 241.108239526502 335.69858971462 441.966209517644
vertex 234.065676942281 334.19858971462 441.966209517644
vertex 239.608239526502 334.19858971462 441.966209517644
endloop
endfacet
facet normal 5.73025066180345e-15 -1.69499047941893e-14 1.0
outer loop
vertex 243.836958234391 337.19858971462 441.966209517644
vertex 241.108239526502 335.69858971462 441.966209517644
vertex 243.836958234391 335.69858971462 441.966209517644
endloop
endfacet
facet normal -0.707106781186548 0.707106781186548 0.0
outer loop
vertex 241.108239526502 335.69858971462 453.266209517644
vertex 239.608239526502 334.19858971462 441.966209517644
vertex 239.608239526502 334.19858971462 453.266209517644
endloop
endfacet
facet normal -0.707106781186548 0.707106781186548 0.0
outer loop
vertex 239.608239526502 334.19858971462 441.966209517644
vertex 241.108239526502 335.69858971462 453.266209517644
vertex 241.108239526502 335.69858971462 441.966209517644
endloop
endfacet
facet normal 0.0 0.0 1.0
outer loop
vertex 243.836958234391 337.19858971462 461.688533439201
vertex 241.836958234391 343.19858971462 461.688533439201
vertex 241.836958234391 337.19858971462 461.688533439201
endloop
endfacet
facet normal 0.0 0.0 1.0
outer loop
vertex 241.836958234391 343.19858971462 461.688533439201
vertex 243.836958234391 337.19858971462 461.688533439201
vertex 241.836958234391 350.995101275887 461.688533439201
endloop
endfacet
facet normal 0.0 0.0 1.0
outer loop
vertex 241.836958234391 350.995101275887 461.688533439201
vertex 243.836958234391 337.19858971462 461.688533439201
vertex 243.836958234391 350.995101275887 461.688533439201
endloop
endfacet
facet normal 0.0 1.0 0.0
outer loop
vertex 231.836958234391 343.19858971462 440.966209517644
vertex 235.534682681089 343.19858971462 447.373470581176
vertex 241.836958234391 343.19858971462 440.966209517644
endloop
endfacet
facet normal 0.0 1.0 0.0
outer loop
vertex 235.534682681089 343.19858971462 447.373470581176
vertex 231.836958234391 343.19858971462 440.966209517644
vertex 235.364715047958 343.19858971462 447.616209517644
endloop
endfacet
facet normal 0.0 1.0 0.0
outer loop
vertex 235.364715047958 343.19858971462 447.616209517644
vertex 231.836958234391 343.19858971462 440.966209517644
vertex 231.836958234391 343.19858971462 452.966209517644
endloop
endfacet
facet normal 0.0 1.0 0.0
outer loop
vertex 241.836958234391 343.19858971462 440.966209517644
vertex 235.534682681089 343.19858971462 447.373470581176
vertex 235.744219297924 343.19858971462 447.163933964341
endloop
endfacet
facet normal 0.0 1.0 0.0
outer loop
vertex 241.836958234391 343.19858971462 440.966209517644
vertex 235.744219297924 343.19858971462 447.163933964341
vertex 235.986958234391 343.19858971462 446.99396633121
endloop
endfacet
facet normal 0.0 1.0 0.0
outer loop
vertex 241.836958234391 343.19858971462 440.966209517644
vertex 235.986958234391 343.19858971462 446.99396633121
vertex 236.255523990738 343.19858971462 446.868732062308
endloop
endfacet
facet normal 0.0 1.0 0.0
outer loop
vertex 241.836958234391 343.19858971462 440.966209517644
vertex 236.255523990738 343.19858971462 446.868732062308
vertex 236.541756332358 343.19858971462 446.792036337523
endloop
endfacet
facet normal 0.0 1.0 0.0
outer loop
vertex 241.836958234391 343.19858971462 440.966209517644
vertex 236.541756332358 343.19858971462 446.792036337523
vertex 236.836958234392 343.19858971462 446.766209517644
endloop
endfacet
facet normal 0.0 1.0 0.0
outer loop
vertex 235.364715047958 343.19858971462 447.616209517644
vertex 231.836958234391 343.19858971462 452.966209517644
vertex 235.239480779055 343.19858971462 447.88477527399
endloop
endfacet
facet normal 0.0 1.0 0.0
outer loop
vertex 235.239480779055 343.19858971462 447.88477527399
vertex 231.836958234391 343.19858971462 452.966209517644
vertex 235.162785054271 343.19858971462 448.17100761561
endloop
endfacet
facet normal 0.0 1.0 0.0
outer loop
vertex 235.162785054271 343.19858971462 448.17100761561
vertex 231.836958234391 343.19858971462 452.966209517644
vertex 235.136958234391 343.19858971462 448.466209517644
endloop
endfacet
facet normal 0.0 1.0 0.0
outer loop
vertex 235.136958234391 343.19858971462 448.466209517644
vertex 231.836958234391 343.19858971462 452.966209517644
vertex 235.162785054271 343.19858971462 448.761411419677
endloop
endfacet
facet normal 0.0 1.0 0.0
outer loop
vertex 235.162785054271 343.19858971462 448.761411419677
vertex 231.836958234391 343.19858971462 452.966209517644
vertex 235.239480779055 343.19858971462 449.047643761297
endloop
endfacet
facet normal 0.0 1.0 0.0
outer loop
vertex 235.239480779055 343.19858971462 449.047643761297
vertex 231.836958234391 343.19858971462 452.966209517644
vertex 235.364715047958 343.19858971462 449.316209517644
endloop
endfacet
facet normal 0.0 1.0 0.0
outer loop
vertex 235.364715047958 343.19858971462 449.316209517644
vertex 231.836958234391 343.19858971462 452.966209517644
vertex 235.534682681089 343.19858971462 449.558948454111
endloop
endfacet
facet normal 0.0 1.0 0.0
outer loop
vertex 235.534682681089 343.19858971462 449.558948454111
vertex 231.836958234391 343.19858971462 452.966209517644
vertex 235.744219297924 343.19858971462 449.768485070946
endloop
endfacet
facet normal 0.0 1.0 0.0
outer loop
vertex 235.744219297924 343.19858971462 449.768485070946
vertex 231.836958234391 343.19858971462 452.966209517644
vertex 235.986958234391 343.19858971462 449.938452704077
endloop
endfacet
facet normal 0.0 1.0 0.0
outer loop
vertex 235.986958234391 343.19858971462 449.938452704077
vertex 231.836958234391 343.19858971462 452.966209517644
vertex 236.255523990738 343.19858971462 450.06368697298
endloop
endfacet
facet normal 0.0 1.0 0.0
outer loop
vertex 236.255523990738 343.19858971462 450.06368697298
vertex 231.836958234391 343.19858971462 452.966209517644
vertex 236.541756332358 343.19858971462 450.140382697764
endloop
endfacet
facet normal 0.0 1.0 0.0
outer loop
vertex 236.541756332358 343.19858971462 450.140382697764
vertex 231.836958234391 343.19858971462 452.966209517644
vertex 236.836958234392 343.19858971462 450.166209517644
endloop
endfacet
facet normal 0.0 1.0 0.0
outer loop
vertex 241.836958234391 343.19858971462 440.966209517644
vertex 238.309201420825 343.19858971462 447.616209517644
vertex 241.836958234391 343.19858971462 452.966209517644
endloop
endfacet
facet normal 0.0 1.0 0.0
outer loop
vertex 238.309201420825 343.19858971462 447.616209517644
vertex 241.836958234391 343.19858971462 440.966209517644
vertex 238.139233787694 343.19858971462 447.373470581176
endloop
endfacet
facet normal 0.0 1.0 0.0
outer loop
vertex 238.139233787694 343.19858971462 447.373470581176
vertex 241.836958234391 343.19858971462 440.966209517644
vertex 237.929697170859 343.19858971462 447.163933964341
endloop
endfacet
facet normal 0.0 1.0 0.0
outer loop
vertex 237.929697170859 343.19858971462 447.163933964341
vertex 241.836958234391 343.19858971462 440.966209517644
vertex 237.686958234392 343.19858971462 446.99396633121
endloop
endfacet
facet normal 0.0 1.0 0.0
outer loop
vertex 237.686958234392 343.19858971462 446.99396633121
vertex 241.836958234391 343.19858971462 440.966209517644
vertex 237.418392478045 343.19858971462 446.868732062308
endloop
endfacet
facet normal 0.0 1.0 0.0
outer loop
vertex 237.418392478045 343.19858971462 446.868732062308
vertex 241.836958234391 343.19858971462 440.966209517644
vertex 237.132160136425 343.19858971462 446.792036337523
endloop
endfacet
facet normal 0.0 1.0 0.0
outer loop
vertex 237.132160136425 343.19858971462 446.792036337523
vertex 241.836958234391 343.19858971462 440.966209517644
vertex 236.836958234392 343.19858971462 446.766209517644
endloop
endfacet
facet normal 0.0 1.0 0.0
outer loop
vertex 241.836958234391 343.19858971462 452.966209517644
vertex 238.309201420825 343.19858971462 447.616209517644
vertex 238.434435689728 343.19858971462 447.88477527399
endloop
endfacet
facet normal 0.0 1.0 0.0
outer loop
vertex 241.836958234391 343.19858971462 452.966209517644
vertex 238.434435689728 343.19858971462 447.88477527399
vertex 238.511131414512 343.19858971462 448.17100761561
endloop
endfacet
facet normal 0.0 1.0 0.0
outer loop
vertex 241.836958234391 343.19858971462 452.966209517644
vertex 238.511131414512 343.19858971462 448.17100761561
vertex 238.536958234392 343.19858971462 448.466209517644
endloop
endfacet
facet normal 0.0 1.0 0.0
outer loop
vertex 241.836958234391 343.19858971462 452.966209517644
vertex 238.536958234392 343.19858971462 448.466209517644
vertex 238.511131414512 343.19858971462 448.761411419677
endloop
endfacet
facet normal 0.0 1.0 0.0
outer loop
vertex 241.836958234391 343.19858971462 452.966209517644
vertex 238.511131414512 343.19858971462 448.761411419677
vertex 238.434435689728 343.19858971462 449.047643761297
endloop
endfacet
facet normal 0.0 1.0 0.0
outer loop
vertex 241.836958234391 343.19858971462 452.966209517644
vertex 238.434435689728 343.19858971462 449.047643761297
vertex 238.309201420825 343.19858971462 449.316209517644
endloop
endfacet
facet normal 0.0 1.0 0.0
outer loop
vertex 241.836958234391 343.19858971462 452.966209517644
vertex 238.309201420825 343.19858971462 449.316209517644
vertex 238.139233787694 343.19858971462 449.558948454111
endloop
endfacet
facet normal 0.0 1.0 0.0
outer loop
vertex 241.836958234391 343.19858971462 452.966209517644
vertex 238.139233787694 343.19858971462 449.558948454111
vertex 237.929697170859 343.19858971462 449.768485070946
endloop
endfacet
facet normal 0.0 1.0 0.0
outer loop
vertex 241.836958234391 343.19858971462 452.966209517644
vertex 237.929697170859 343.19858971462 449.768485070946
vertex 237.686958234392 343.19858971462 449.938452704077
endloop
endfacet
facet normal 0.0 1.0 0.0
outer loop
vertex 241.836958234391 343.19858971462 452.966209517644
vertex 237.686958234392 343.19858971462 449.938452704077
vertex 237.418392478045 343.19858971462 450.06368697298
endloop
endfacet
facet normal 0.0 1.0 0.0
outer loop
vertex 241.836958234391 343.19858971462 452.966209517644
vertex 237.418392478045 343.19858971462 450.06368697298
vertex 237.132160136425 343.19858971462 450.140382697764
endloop
endfacet
facet normal 0.0 1.0 0.0
outer loop
vertex 241.836958234391 343.19858971462 452.966209517644
vertex 237.132160136425 343.19858971462 450.140382697764
vertex 236.836958234392 343.19858971462 450.166209517644
endloop
endfacet
facet normal 0.0 1.0 0.0
outer loop
vertex 241.836958234391 343.19858971462 452.966209517644
vertex 236.836958234392 343.19858971462 450.166209517644
vertex 231.836958234391 343.19858971462 452.966209517644
endloop
endfacet
facet normal 0.0 1.0 0.0
outer loop
vertex 241.108239526502 335.69858971462 441.966209517644
vertex 243.836958234391 335.69858971462 453.266209517644
vertex 243.836958234391 335.69858971462 441.966209517644
endloop
endfacet
facet normal 0.0 1.0 0.0
outer loop
vertex 243.836958234391 335.69858971462 453.266209517644
vertex 241.108239526502 335.69858971462 441.966209517644
vertex 241.108239526502 335.69858971462 453.266209517644
endloop
endfacet
facet normal 0.707106781186548 0.707106781186548 0.0
outer loop
vertex 232.565676942281 335.69858971462 441.966209517644
vertex 234.065676942281 334.19858971462 453.266209517644
vertex 234.065676942281 334.19858971462 441.966209517644
endloop
endfacet
facet normal 0.707106781186548 0.707106781186548 0.0
outer loop
vertex 234.065676942281 334.19858971462 453.266209517644
vertex 232.565676942281 335.69858971462 441.966209517644
vertex 232.565676942281 335.69858971462 453.266209517644
endloop
endfacet
facet normal 0.342020143325604 -2.07201132021147e-14 0.939692620785932
outer loop
vertex 236.255523990738 341.19858971462 446.868732062308
vertex 235.986958234391 343.19858971462 446.99396633121
vertex 235.986958234391 341.19858971462 446.99396633121
endloop
endfacet
facet normal 0.499999999999991 -2.40033380233343e-14 0.866025403784444
outer loop
vertex 235.986958234391 343.19858971462 446.99396633121
vertex 236.255523990738 341.19858971462 446.868732062308
vertex 236.255523990738 343.19858971462 446.868732062308
endloop
endfacet
facet normal 0.499999999999991 -2.40033380233343e-14 0.866025403784444
outer loop
vertex 235.986958234391 341.19858971462 446.99396633121
vertex 235.744219297924 343.19858971462 447.163933964341
vertex 235.744219297924 341.19858971462 447.163933964341
endloop
endfacet
facet normal 0.64278760968656 -2.65572335649893e-14 0.766044443118961
outer loop
vertex 235.744219297924 343.19858971462 447.163933964341
vertex 235.986958234391 341.19858971462 446.99396633121
vertex 235.986958234391 343.19858971462 446.99396633121
endloop
endfacet
facet normal 0.64278760968656 -2.65572335649893e-14 0.766044443118961
outer loop
vertex 235.744219297924 343.19858971462 447.163933964341
vertex 235.534682681089 341.19858971462 447.373470581176
vertex 235.744219297924 341.19858971462 447.163933964341
endloop
endfacet
facet normal 0.766044443119017 -2.83042010033804e-14 0.642787609686493
outer loop
vertex 235.534682681089 341.19858971462 447.373470581176
vertex 235.744219297924 343.19858971462 447.163933964341
vertex 235.534682681089 343.19858971462 447.373470581176
endloop
endfacet
facet normal 0.766044443119017 -2.83042010033804e-14 0.642787609686493
outer loop
vertex 235.534682681089 343.19858971462 447.373470581176
vertex 235.364715047958 341.19858971462 447.616209517644
vertex 235.534682681089 341.19858971462 447.373470581176
endloop
endfacet
facet normal 0.866025403784453 -2.91911596168999e-14 0.499999999999975
outer loop
vertex 235.364715047958 341.19858971462 447.616209517644
vertex 235.534682681089 343.19858971462 447.373470581176
vertex 235.364715047958 343.19858971462 447.616209517644
endloop
endfacet
facet normal 0.866025403784453 -2.91911596168999e-14 0.499999999999975
outer loop
vertex 235.364715047958 343.19858971462 447.616209517644
vertex 235.239480779055 341.19858971462 447.88477527399
vertex 235.364715047958 341.19858971462 447.616209517644
endloop
endfacet
facet normal 0.939692620785902 -2.91911596168999e-14 0.342020143325687
outer loop
vertex 235.239480779055 341.19858971462 447.88477527399
vertex 235.364715047958 343.19858971462 447.616209517644
vertex 235.239480779055 343.19858971462 447.88477527399
endloop
endfacet
facet normal 0.939692620785902 -2.91911596168999e-14 0.342020143325687
outer loop
vertex 235.239480779055 343.19858971462 447.88477527399
vertex 235.162785054271 341.19858971462 448.17100761561
vertex 235.239480779055 341.19858971462 447.88477527399
endloop
endfacet
facet normal 0.984807753012208 -2.83042010033798e-14 0.173648177666929
outer loop
vertex 235.162785054271 341.19858971462 448.17100761561
vertex 235.239480779055 343.19858971462 447.88477527399
vertex 235.162785054271 343.19858971462 448.17100761561
endloop
endfacet
facet normal 0.996194698091744 -2.53768523789444e-14 -0.0871557427476811
outer loop
vertex 235.136958234391 343.19858971462 448.466209517644
vertex 235.162785054271 341.19858971462 448.761411419677
vertex 235.136958234391 341.19858971462 448.466209517644
endloop
endfacet
facet normal 0.984807753012208 -2.40033380233344e-14 -0.173648177666929
outer loop
vertex 235.162785054271 341.19858971462 448.761411419677
vertex 235.136958234391 343.19858971462 448.466209517644
vertex 235.162785054271 343.19858971462 448.761411419677
endloop
endfacet
facet normal 0.984807753012208 -2.83042010033798e-14 0.173648177666929
outer loop
vertex 235.162785054271 343.19858971462 448.17100761561
vertex 235.136958234391 341.19858971462 448.466209517644
vertex 235.162785054271 341.19858971462 448.17100761561
endloop
endfacet
facet normal 0.996194698091744 -2.75354981679077e-14 0.0871557427476811
outer loop
vertex 235.136958234391 341.19858971462 448.466209517644
vertex 235.162785054271 343.19858971462 448.17100761561
vertex 235.136958234391 343.19858971462 448.466209517644
endloop
endfacet
facet normal -0.557893912963928 1.43177581534018e-15 0.82991227360354
outer loop
vertex 233.622055194911 335.19858971462 456.166209517644
vertex 232.134474394478 337.19858971462 455.166209517644
vertex 232.134474394478 335.19858971462 455.166209517644
endloop
endfacet
facet normal -0.557893912963928 1.43177581534018e-15 0.82991227360354
outer loop
vertex 232.134474394478 337.19858971462 455.166209517644
vertex 231.836958234391 343.19858971462 454.966209517644
vertex 231.836958234391 337.19858971462 454.966209517644
endloop
endfacet
facet normal -0.557893912963928 1.43177581534018e-15 0.82991227360354
outer loop
vertex 231.836958234391 343.19858971462 454.966209517644
vertex 232.134474394478 337.19858971462 455.166209517644
vertex 241.836958234391 343.19858971462 461.688533439201
endloop
endfacet
facet normal -0.557893912963928 1.43177581534018e-15 0.82991227360354
outer loop
vertex 241.836958234391 343.19858971462 461.688533439201
vertex 232.134474394478 337.19858971462 455.166209517644
vertex 235.109635995344 337.19858971462 457.166209517644
endloop
endfacet
facet normal -0.557893912963928 1.43177581534018e-15 0.82991227360354
outer loop
vertex 235.109635995344 337.19858971462 457.166209517644
vertex 232.134474394478 337.19858971462 455.166209517644
vertex 233.622055194911 335.19858971462 456.166209517644
endloop
endfacet
facet normal -0.557893912963928 1.43177581534018e-15 0.82991227360354
outer loop
vertex 241.836958234391 343.19858971462 461.688533439201
vertex 235.109635995344 337.19858971462 457.166209517644
vertex 241.836958234391 337.19858971462 461.688533439201
endloop
endfacet
endsolid K02.2
