solid OpenSCAD_Model
  facet normal -1 2.22045e-16 2.22045e-16
    outer loop
      vertex -1.4 5.16777 9.40194
      vertex -1.4 -2.5 9.6
      vertex -1.4 20 9.6
    endloop
  endfacet
  facet normal -1 2.22045e-16 2.22045e-16
    outer loop
      vertex -1.4 4.3 5.6
      vertex -1.4 20 9.6
      vertex -1.4 20 5.6
    endloop
  endfacet
  facet normal -1 2.22045e-16 2.22045e-16
    outer loop
      vertex -1.4 2.35014 8.04504
      vertex -1.4 -2.5 9.6
      vertex -1.4 3.43223 9.40194
    endloop
  endfacet
  facet normal -1 2.22045e-16 2.22045e-16
    outer loop
      vertex -1.4 2.73634 6.35302
      vertex -1.4 -2.5 9.6
      vertex -1.4 2.35014 8.04504
    endloop
  endfacet
  facet normal -1 2.22045e-16 2.22045e-16
    outer loop
      vertex -1.4 5.86366 6.35302
      vertex -1.4 6.24986 8.04504
      vertex -1.4 20 9.6
    endloop
  endfacet
  facet normal -1 2.22045e-16 2.22045e-16
    outer loop
      vertex -1.4 3.43223 9.40194
      vertex -1.4 -2.5 9.6
      vertex -1.4 5.16777 9.40194
    endloop
  endfacet
  facet normal -1 2.22045e-16 2.22045e-16
    outer loop
      vertex -1.4 6.24986 8.04504
      vertex -1.4 5.16777 9.40194
      vertex -1.4 20 9.6
    endloop
  endfacet
  facet normal -1 2.22045e-16 2.22045e-16
    outer loop
      vertex -1.4 -2.5 5.6
      vertex -1.4 -2.5 9.6
      vertex -1.4 2.73634 6.35302
    endloop
  endfacet
  facet normal -1 2.22045e-16 2.22045e-16
    outer loop
      vertex -1.4 -2.5 5.6
      vertex -1.4 2.73634 6.35302
      vertex -1.4 4.3 5.6
    endloop
  endfacet
  facet normal -1 2.22045e-16 2.22045e-16
    outer loop
      vertex -1.4 5.86366 6.35302
      vertex -1.4 20 9.6
      vertex -1.4 4.3 5.6
    endloop
  endfacet
  facet normal -2.22045e-16 -1 4.93038e-32
    outer loop
      vertex -1.4 -2.5 9.6
      vertex -1.4 -2.5 5.6
      vertex -1.2 -2.5 3.7
    endloop
  endfacet
  facet normal -2.22045e-16 -1 4.93038e-32
    outer loop
      vertex -0.6 -2.5 6.66134e-16
      vertex -1.4 -2.5 9.6
      vertex -0.9 -2.5 1.7
    endloop
  endfacet
  facet normal -2.22045e-16 -1 4.93038e-32
    outer loop
      vertex -0.9 -2.5 1.7
      vertex -1.4 -2.5 9.6
      vertex -1.2 -2.5 3.7
    endloop
  endfacet
  facet normal -2.22045e-16 -1 4.93038e-32
    outer loop
      vertex 24.7 -2.5 -4.95159e-15
      vertex -1.4 -2.5 9.6
      vertex -0.6 -2.5 6.66134e-16
    endloop
  endfacet
  facet normal -2.22045e-16 -1 4.93038e-32
    outer loop
      vertex 25.1 -2.5 1.7
      vertex -1.4 -2.5 9.6
      vertex 24.7 -2.5 -4.95159e-15
    endloop
  endfacet
  facet normal -2.22045e-16 -1 4.93038e-32
    outer loop
      vertex 25.4 -2.5 3.7
      vertex -1.4 -2.5 9.6
      vertex 25.1 -2.5 1.7
    endloop
  endfacet
  facet normal -2.22045e-16 -1 4.93038e-32
    outer loop
      vertex 25.5 -2.5 5.6
      vertex -1.4 -2.5 9.6
      vertex 25.4 -2.5 3.7
    endloop
  endfacet
  facet normal -2.22045e-16 -1 4.93038e-32
    outer loop
      vertex 25.6 -2.5 7.6
      vertex -1.4 -2.5 9.6
      vertex 25.5 -2.5 5.6
    endloop
  endfacet
  facet normal -2.22045e-16 -1 4.93038e-32
    outer loop
      vertex 25.5 -2.5 9.6
      vertex -1.4 -2.5 9.6
      vertex 25.6 -2.5 7.6
    endloop
  endfacet
  facet normal -2.22045e-16 -1 4.93038e-32
    outer loop
      vertex 25.4 -2.5 11.5
      vertex -1.4 -2.5 9.6
      vertex 25.5 -2.5 9.6
    endloop
  endfacet
  facet normal -2.22045e-16 -1 4.93038e-32
    outer loop
      vertex 25.1 -2.5 13.5
      vertex -1.4 -2.5 9.6
      vertex 25.4 -2.5 11.5
    endloop
  endfacet
  facet normal -2.22045e-16 -1 4.93038e-32
    outer loop
      vertex 24.7 -2.5 15.4
      vertex -1.4 -2.5 9.6
      vertex 25.1 -2.5 13.5
    endloop
  endfacet
  facet normal -2.22045e-16 -1 4.93038e-32
    outer loop
      vertex 24.2 -2.5 17.3
      vertex -1.4 -2.5 9.6
      vertex 24.7 -2.5 15.4
    endloop
  endfacet
  facet normal -2.22045e-16 -1 4.93038e-32
    outer loop
      vertex 23.6 -2.5 19.2
      vertex -1.4 -2.5 9.6
      vertex 24.2 -2.5 17.3
    endloop
  endfacet
  facet normal -2.22045e-16 -1 4.93038e-32
    outer loop
      vertex 21.7 -2.5 19.8
      vertex -1.4 -2.5 9.6
      vertex 23.6 -2.5 19.2
    endloop
  endfacet
  facet normal -2.22045e-16 -1 4.93038e-32
    outer loop
      vertex 19.9 -2.5 20.3
      vertex -1.4 -2.5 9.6
      vertex 21.7 -2.5 19.8
    endloop
  endfacet
  facet normal -2.22045e-16 -1 4.93038e-32
    outer loop
      vertex 17.9 -2.5 20.7
      vertex -1.4 -2.5 9.6
      vertex 19.9 -2.5 20.3
    endloop
  endfacet
  facet normal -2.22045e-16 -1 4.93038e-32
    outer loop
      vertex 16 -2.5 21
      vertex -1.4 -2.5 9.6
      vertex 17.9 -2.5 20.7
    endloop
  endfacet
  facet normal -2.22045e-16 -1 4.93038e-32
    outer loop
      vertex 14.1 -2.5 21.1
      vertex -1.4 -2.5 9.6
      vertex 16 -2.5 21
    endloop
  endfacet
  facet normal -2.22045e-16 -1 4.93038e-32
    outer loop
      vertex 12 -2.5 21.2
      vertex -1.4 -2.5 9.6
      vertex 14.1 -2.5 21.1
    endloop
  endfacet
  facet normal -2.22045e-16 -1 4.93038e-32
    outer loop
      vertex 10.1 -2.5 21.1
      vertex -1.4 -2.5 9.6
      vertex 12 -2.5 21.2
    endloop
  endfacet
  facet normal -2.22045e-16 -1 4.93038e-32
    outer loop
      vertex 8.2 -2.5 21
      vertex -1.4 -2.5 9.6
      vertex 10.1 -2.5 21.1
    endloop
  endfacet
  facet normal -2.22045e-16 -1 4.93038e-32
    outer loop
      vertex 5.9 -2.5 20.7
      vertex -1.4 -2.5 9.6
      vertex 8.2 -2.5 21
    endloop
  endfacet
  facet normal -2.22045e-16 -1 4.93038e-32
    outer loop
      vertex 4.3 -2.5 20.3
      vertex -1.4 -2.5 9.6
      vertex 5.9 -2.5 20.7
    endloop
  endfacet
  facet normal -2.22045e-16 -1 4.93038e-32
    outer loop
      vertex 2.41 -2.5 19.8
      vertex -1.4 -2.5 9.6
      vertex 4.3 -2.5 20.3
    endloop
  endfacet
  facet normal -2.22045e-16 -1 4.93038e-32
    outer loop
      vertex 0.6 -2.5 19.2
      vertex -1.4 -2.5 9.6
      vertex 2.41 -2.5 19.8
    endloop
  endfacet
  facet normal -2.22045e-16 -1 4.93038e-32
    outer loop
      vertex -1.15463e-15 -2.5 17.3
      vertex -1.4 -2.5 9.6
      vertex 0.6 -2.5 19.2
    endloop
  endfacet
  facet normal -2.22045e-16 -1 4.93038e-32
    outer loop
      vertex -0.5 -2.5 15.4
      vertex -1.4 -2.5 9.6
      vertex -1.15463e-15 -2.5 17.3
    endloop
  endfacet
  facet normal -2.22045e-16 -1 4.93038e-32
    outer loop
      vertex -0.9 -2.5 13.5
      vertex -1.4 -2.5 9.6
      vertex -0.5 -2.5 15.4
    endloop
  endfacet
  facet normal -2.22045e-16 -1 4.93038e-32
    outer loop
      vertex -1.2 -2.5 11.5
      vertex -1.4 -2.5 9.6
      vertex -0.9 -2.5 13.5
    endloop
  endfacet
  facet normal -0.994505 2.20825e-16 -0.104685
    outer loop
      vertex -1.4 -2.5 5.6
      vertex -1.4 4.3 5.6
      vertex -1.2 -2.5 3.7
    endloop
  endfacet
  facet normal -0.994505 2.20825e-16 -0.104685
    outer loop
      vertex -1.4 4.3 5.6
      vertex -1.4 20 5.6
      vertex -1.2 -2.5 3.7
    endloop
  endfacet
  facet normal -0.994505 2.20825e-16 -0.104685
    outer loop
      vertex -1.2 -2.5 3.7
      vertex -1.4 20 5.6
      vertex -1.2 20 3.7
    endloop
  endfacet
  facet normal -2.00055e-16 0.433884 0.900969
    outer loop
      vertex 2.5 2.73634 6.35302
      vertex 2.5 4.3 5.6
      vertex -1.4 4.3 5.6
    endloop
  endfacet
  facet normal -2.00055e-16 0.433884 0.900969
    outer loop
      vertex -1.4 2.73634 6.35302
      vertex 2.5 2.73634 6.35302
      vertex -1.4 4.3 5.6
    endloop
  endfacet
  facet normal -4.94096e-17 0.974928 0.222521
    outer loop
      vertex 2.5 2.35014 8.04504
      vertex 2.5 2.73634 6.35302
      vertex -1.4 2.35014 8.04504
    endloop
  endfacet
  facet normal -4.94096e-17 0.974928 0.222521
    outer loop
      vertex -1.4 2.35014 8.04504
      vertex 2.5 2.73634 6.35302
      vertex -1.4 2.73634 6.35302
    endloop
  endfacet
  facet normal 1.38443e-16 0.781831 -0.62349
    outer loop
      vertex 2.5 3.43223 9.40194
      vertex 2.5 2.35014 8.04504
      vertex -1.4 3.43223 9.40194
    endloop
  endfacet
  facet normal 1.38443e-16 0.781831 -0.62349
    outer loop
      vertex -1.4 3.43223 9.40194
      vertex 2.5 2.35014 8.04504
      vertex -1.4 2.35014 8.04504
    endloop
  endfacet
  facet normal 2.22045e-16 0 -1
    outer loop
      vertex 2.5 5.16777 9.40194
      vertex 2.5 3.43223 9.40194
      vertex -1.4 5.16777 9.40194
    endloop
  endfacet
  facet normal 2.22045e-16 0 -1
    outer loop
      vertex -1.4 5.16777 9.40194
      vertex 2.5 3.43223 9.40194
      vertex -1.4 3.43223 9.40194
    endloop
  endfacet
  facet normal 1.38443e-16 -0.781831 -0.62349
    outer loop
      vertex 2.5 6.24986 8.04504
      vertex 2.5 5.16777 9.40194
      vertex -1.4 5.16777 9.40194
    endloop
  endfacet
  facet normal 1.38443e-16 -0.781831 -0.62349
    outer loop
      vertex -1.4 6.24986 8.04504
      vertex 2.5 6.24986 8.04504
      vertex -1.4 5.16777 9.40194
    endloop
  endfacet
  facet normal -4.94096e-17 -0.974928 0.222521
    outer loop
      vertex 2.5 5.86366 6.35302
      vertex 2.5 6.24986 8.04504
      vertex -1.4 6.24986 8.04504
    endloop
  endfacet
  facet normal -4.94096e-17 -0.974928 0.222521
    outer loop
      vertex -1.4 5.86366 6.35302
      vertex 2.5 5.86366 6.35302
      vertex -1.4 6.24986 8.04504
    endloop
  endfacet
  facet normal -2.00055e-16 -0.433884 0.900969
    outer loop
      vertex -1.4 4.3 5.6
      vertex 2.5 4.3 5.6
      vertex 2.5 5.86366 6.35302
    endloop
  endfacet
  facet normal -2.00055e-16 -0.433884 0.900969
    outer loop
      vertex -1.4 5.86366 6.35302
      vertex -1.4 4.3 5.6
      vertex 2.5 5.86366 6.35302
    endloop
  endfacet
  facet normal 2.22045e-16 1 -4.93038e-32
    outer loop
      vertex -1.4 20 5.6
      vertex -1.4 20 9.6
      vertex -1.2 20 3.7
    endloop
  endfacet
  facet normal 2.22045e-16 1 -4.93038e-32
    outer loop
      vertex -1.2 20 3.7
      vertex -1.4 20 9.6
      vertex -1.2 20 11.5
    endloop
  endfacet
  facet normal 2.22045e-16 1 -4.93038e-32
    outer loop
      vertex -1.2 20 3.7
      vertex -1.2 20 11.5
      vertex -0.9 20 13.5
    endloop
  endfacet
  facet normal 2.22045e-16 1 -4.93038e-32
    outer loop
      vertex -1.2 20 3.7
      vertex -0.9 20 13.5
      vertex -0.5 20 15.4
    endloop
  endfacet
  facet normal 2.22045e-16 1 -4.93038e-32
    outer loop
      vertex -1.2 20 3.7
      vertex -0.5 20 15.4
      vertex 3.84137e-15 20 17.3
    endloop
  endfacet
  facet normal 2.22045e-16 1 -4.93038e-32
    outer loop
      vertex -1.2 20 3.7
      vertex 3.84137e-15 20 17.3
      vertex 0.6 20 19.2
    endloop
  endfacet
  facet normal 2.22045e-16 1 -4.93038e-32
    outer loop
      vertex -1.2 20 3.7
      vertex 0.6 20 19.2
      vertex 2.41 20 19.8
    endloop
  endfacet
  facet normal 2.22045e-16 1 -4.93038e-32
    outer loop
      vertex 2.5 20 16.6
      vertex 2.41 20 19.8
      vertex 4.3 20 20.3
    endloop
  endfacet
  facet normal 2.22045e-16 1 -4.93038e-32
    outer loop
      vertex 21.6 20 16.6
      vertex 23.6 20 19.2
      vertex 24.2 20 17.3
    endloop
  endfacet
  facet normal 2.22045e-16 1 -4.93038e-32
    outer loop
      vertex 2.5 20 16.6
      vertex 5.9 20 20.7
      vertex 8.2 20 21
    endloop
  endfacet
  facet normal 2.22045e-16 1 -4.93038e-32
    outer loop
      vertex 2.5 20 16.6
      vertex 8.2 20 21
      vertex 10.1 20 21.1
    endloop
  endfacet
  facet normal 2.22045e-16 1 -4.93038e-32
    outer loop
      vertex 2.5 20 16.6
      vertex 10.1 20 21.1
      vertex 12 20 21.2
    endloop
  endfacet
  facet normal 2.22045e-16 1 -4.93038e-32
    outer loop
      vertex 2.5 20 16.6
      vertex 12 20 21.2
      vertex 14.1 20 21.1
    endloop
  endfacet
  facet normal 2.22045e-16 1 -4.93038e-32
    outer loop
      vertex 2.5 20 16.6
      vertex 14.1 20 21.1
      vertex 16 20 21
    endloop
  endfacet
  facet normal 2.22045e-16 1 -4.93038e-32
    outer loop
      vertex 2.5 20 16.6
      vertex 16 20 21
      vertex 17.9 20 20.7
    endloop
  endfacet
  facet normal 2.22045e-16 1 -4.93038e-32
    outer loop
      vertex 2.5 20 16.6
      vertex 17.9 20 20.7
      vertex 19.9 20 20.3
    endloop
  endfacet
  facet normal 2.22045e-16 1 -4.93038e-32
    outer loop
      vertex 2.5 20 16.6
      vertex 19.9 20 20.3
      vertex 21.7 20 19.8
    endloop
  endfacet
  facet normal 2.22045e-16 1 -4.93038e-32
    outer loop
      vertex 2.5 20 16.6
      vertex 21.7 20 19.8
      vertex 23.6 20 19.2
    endloop
  endfacet
  facet normal 2.22045e-16 1 -4.93038e-32
    outer loop
      vertex 2.5 20 16.6
      vertex 23.6 20 19.2
      vertex 21.6 20 16.6
    endloop
  endfacet
  facet normal 2.22045e-16 1 -4.93038e-32
    outer loop
      vertex 2.5 20 16.6
      vertex 4.3 20 20.3
      vertex 5.9 20 20.7
    endloop
  endfacet
  facet normal 2.22045e-16 1 -4.93038e-32
    outer loop
      vertex -1.2 20 3.7
      vertex 2.41 20 19.8
      vertex 2.5 20 16.6
    endloop
  endfacet
  facet normal 2.22045e-16 1 -4.93038e-32
    outer loop
      vertex 2.5 20 -2.22045e-17
      vertex -1.2 20 3.7
      vertex 2.5 20 16.6
    endloop
  endfacet
  facet normal 2.22045e-16 1 -4.93038e-32
    outer loop
      vertex -1.2 20 3.7
      vertex 2.5 20 -2.22045e-17
      vertex -0.6 20 6.66134e-16
    endloop
  endfacet
  facet normal 2.22045e-16 1 -4.93038e-32
    outer loop
      vertex -1.2 20 3.7
      vertex -0.6 20 6.66134e-16
      vertex -0.9 20 1.7
    endloop
  endfacet
  facet normal 2.22045e-16 1 -4.93038e-32
    outer loop
      vertex 21.6 20 16.6
      vertex 24.2 20 17.3
      vertex 24.7 20 15.4
    endloop
  endfacet
  facet normal 2.22045e-16 1 -4.93038e-32
    outer loop
      vertex 21.6 20 16.6
      vertex 24.7 20 15.4
      vertex 25.1 20 13.5
    endloop
  endfacet
  facet normal 2.22045e-16 1 -4.93038e-32
    outer loop
      vertex 21.6 20 16.6
      vertex 25.1 20 13.5
      vertex 25.4 20 11.5
    endloop
  endfacet
  facet normal 2.22045e-16 1 -4.93038e-32
    outer loop
      vertex 21.6 20 16.6
      vertex 25.4 20 11.5
      vertex 25.5 20 9.6
    endloop
  endfacet
  facet normal 2.22045e-16 1 -4.93038e-32
    outer loop
      vertex 21.6 20 16.6
      vertex 25.5 20 9.6
      vertex 25.6 20 7.6
    endloop
  endfacet
  facet normal 2.22045e-16 1 -4.93038e-32
    outer loop
      vertex 21.6 20 16.6
      vertex 25.6 20 7.6
      vertex 25.5 20 5.6
    endloop
  endfacet
  facet normal 2.22045e-16 1 -4.93038e-32
    outer loop
      vertex 21.6 20 16.6
      vertex 25.5 20 5.6
      vertex 25.4 20 3.7
    endloop
  endfacet
  facet normal 2.22045e-16 1 -4.93038e-32
    outer loop
      vertex 21.6 20 16.6
      vertex 25.4 20 3.7
      vertex 25.1 20 1.7
    endloop
  endfacet
  facet normal 2.22045e-16 1 -4.93038e-32
    outer loop
      vertex 21.6 20 16.6
      vertex 25.1 20 1.7
      vertex 24.7 20 -4.95159e-15
    endloop
  endfacet
  facet normal 2.22045e-16 1 -4.93038e-32
    outer loop
      vertex 21.6 20 16.6
      vertex 24.7 20 -4.95159e-15
      vertex 21.6 20 -4.26326e-15
    endloop
  endfacet
  facet normal -0.994505 2.20825e-16 0.104685
    outer loop
      vertex -1.4 -2.5 9.6
      vertex -1.2 -2.5 11.5
      vertex -1.4 20 9.6
    endloop
  endfacet
  facet normal -0.994505 2.20825e-16 0.104685
    outer loop
      vertex -1.4 20 9.6
      vertex -1.2 -2.5 11.5
      vertex -1.2 20 11.5
    endloop
  endfacet
  facet normal -0.988936 2.19588e-16 0.14834
    outer loop
      vertex -1.2 -2.5 11.5
      vertex -0.9 -2.5 13.5
      vertex -1.2 20 11.5
    endloop
  endfacet
  facet normal -0.988936 2.19588e-16 0.14834
    outer loop
      vertex -1.2 20 11.5
      vertex -0.9 -2.5 13.5
      vertex -0.9 20 13.5
    endloop
  endfacet
  facet normal -0.97855 2.17282e-16 0.20601
    outer loop
      vertex -0.9 -2.5 13.5
      vertex -0.5 -2.5 15.4
      vertex -0.9 20 13.5
    endloop
  endfacet
  facet normal -0.97855 2.17282e-16 0.20601
    outer loop
      vertex -0.9 20 13.5
      vertex -0.5 -2.5 15.4
      vertex -0.5 20 15.4
    endloop
  endfacet
  facet normal -0.967075 2.14734e-16 0.254493
    outer loop
      vertex -0.5 -2.5 15.4
      vertex -1.15463e-15 -2.5 17.3
      vertex -0.5 20 15.4
    endloop
  endfacet
  facet normal -0.967075 2.14734e-16 0.254493
    outer loop
      vertex -0.5 20 15.4
      vertex -1.15463e-15 -2.5 17.3
      vertex 3.84137e-15 20 17.3
    endloop
  endfacet
  facet normal -0.953583 2.11738e-16 0.301131
    outer loop
      vertex -1.15463e-15 -2.5 17.3
      vertex 0.6 -2.5 19.2
      vertex 3.84137e-15 20 17.3
    endloop
  endfacet
  facet normal -0.953583 2.11738e-16 0.301131
    outer loop
      vertex 3.84137e-15 20 17.3
      vertex 0.6 -2.5 19.2
      vertex 0.6 20 19.2
    endloop
  endfacet
  facet normal -0.314654 6.98672e-17 0.949206
    outer loop
      vertex 0.6 20 19.2
      vertex 0.6 -2.5 19.2
      vertex 2.41 -2.5 19.8
    endloop
  endfacet
  facet normal -0.314654 6.98672e-17 0.949206
    outer loop
      vertex 2.41 20 19.8
      vertex 0.6 20 19.2
      vertex 2.41 -2.5 19.8
    endloop
  endfacet
  facet normal -0.255752 5.67883e-17 0.966742
    outer loop
      vertex 2.41 20 19.8
      vertex 2.41 -2.5 19.8
      vertex 4.3 -2.5 20.3
    endloop
  endfacet
  facet normal -0.255752 5.67883e-17 0.966742
    outer loop
      vertex 4.3 20 20.3
      vertex 2.41 20 19.8
      vertex 4.3 -2.5 20.3
    endloop
  endfacet
  facet normal -0.242536 5.38537e-17 0.970143
    outer loop
      vertex 4.3 20 20.3
      vertex 4.3 -2.5 20.3
      vertex 5.9 -2.5 20.7
    endloop
  endfacet
  facet normal -0.242536 5.38537e-17 0.970143
    outer loop
      vertex 5.9 20 20.7
      vertex 4.3 20 20.3
      vertex 5.9 -2.5 20.7
    endloop
  endfacet
  facet normal -0.129339 2.87191e-17 0.9916
    outer loop
      vertex 5.9 20 20.7
      vertex 5.9 -2.5 20.7
      vertex 8.2 -2.5 21
    endloop
  endfacet
  facet normal -0.129339 2.87191e-17 0.9916
    outer loop
      vertex 8.2 20 21
      vertex 5.9 20 20.7
      vertex 8.2 -2.5 21
    endloop
  endfacet
  facet normal -0.0525588 1.16704e-17 0.998618
    outer loop
      vertex 8.2 20 21
      vertex 8.2 -2.5 21
      vertex 10.1 -2.5 21.1
    endloop
  endfacet
  facet normal -0.0525588 1.16704e-17 0.998618
    outer loop
      vertex 10.1 20 21.1
      vertex 8.2 20 21
      vertex 10.1 -2.5 21.1
    endloop
  endfacet
  facet normal -0.0525588 1.16704e-17 0.998618
    outer loop
      vertex 10.1 20 21.1
      vertex 10.1 -2.5 21.1
      vertex 12 -2.5 21.2
    endloop
  endfacet
  facet normal -0.0525588 1.16704e-17 0.998618
    outer loop
      vertex 12 20 21.2
      vertex 10.1 20 21.1
      vertex 12 -2.5 21.2
    endloop
  endfacet
  facet normal 0.0475651 -1.05616e-17 0.998868
    outer loop
      vertex 12 20 21.2
      vertex 12 -2.5 21.2
      vertex 14.1 -2.5 21.1
    endloop
  endfacet
  facet normal 0.0475651 -1.05616e-17 0.998868
    outer loop
      vertex 14.1 20 21.1
      vertex 12 20 21.2
      vertex 14.1 -2.5 21.1
    endloop
  endfacet
  facet normal 0.0525588 -1.16704e-17 0.998618
    outer loop
      vertex 14.1 20 21.1
      vertex 14.1 -2.5 21.1
      vertex 16 -2.5 21
    endloop
  endfacet
  facet normal 0.0525588 -1.16704e-17 0.998618
    outer loop
      vertex 16 20 21
      vertex 14.1 20 21.1
      vertex 16 -2.5 21
    endloop
  endfacet
  facet normal 0.155963 -3.46306e-17 0.987763
    outer loop
      vertex 16 20 21
      vertex 16 -2.5 21
      vertex 17.9 -2.5 20.7
    endloop
  endfacet
  facet normal 0.155963 -3.46306e-17 0.987763
    outer loop
      vertex 17.9 20 20.7
      vertex 16 20 21
      vertex 17.9 -2.5 20.7
    endloop
  endfacet
  facet normal 0.196116 -4.35465e-17 0.980581
    outer loop
      vertex 17.9 20 20.7
      vertex 17.9 -2.5 20.7
      vertex 19.9 -2.5 20.3
    endloop
  endfacet
  facet normal 0.196116 -4.35465e-17 0.980581
    outer loop
      vertex 19.9 20 20.3
      vertex 17.9 20 20.7
      vertex 19.9 -2.5 20.3
    endloop
  endfacet
  facet normal 0.267644 -5.94289e-17 0.963518
    outer loop
      vertex 19.9 20 20.3
      vertex 19.9 -2.5 20.3
      vertex 21.7 -2.5 19.8
    endloop
  endfacet
  facet normal 0.267644 -5.94289e-17 0.963518
    outer loop
      vertex 21.7 20 19.8
      vertex 19.9 20 20.3
      vertex 21.7 -2.5 19.8
    endloop
  endfacet
  facet normal 0.301131 -6.68646e-17 0.953583
    outer loop
      vertex 21.7 20 19.8
      vertex 21.7 -2.5 19.8
      vertex 23.6 -2.5 19.2
    endloop
  endfacet
  facet normal 0.301131 -6.68646e-17 0.953583
    outer loop
      vertex 23.6 20 19.2
      vertex 21.7 20 19.8
      vertex 23.6 -2.5 19.2
    endloop
  endfacet
  facet normal 0.953583 -2.11738e-16 0.301131
    outer loop
      vertex 23.6 20 19.2
      vertex 23.6 -2.5 19.2
      vertex 24.2 -2.5 17.3
    endloop
  endfacet
  facet normal 0.953583 -2.11738e-16 0.301131
    outer loop
      vertex 24.2 20 17.3
      vertex 23.6 20 19.2
      vertex 24.2 -2.5 17.3
    endloop
  endfacet
  facet normal 0.967075 -2.14734e-16 0.254493
    outer loop
      vertex 24.2 20 17.3
      vertex 24.2 -2.5 17.3
      vertex 24.7 -2.5 15.4
    endloop
  endfacet
  facet normal 0.967075 -2.14734e-16 0.254493
    outer loop
      vertex 24.7 20 15.4
      vertex 24.2 20 17.3
      vertex 24.7 -2.5 15.4
    endloop
  endfacet
  facet normal 0.97855 -2.17282e-16 0.20601
    outer loop
      vertex 24.7 20 15.4
      vertex 24.7 -2.5 15.4
      vertex 25.1 -2.5 13.5
    endloop
  endfacet
  facet normal 0.97855 -2.17282e-16 0.20601
    outer loop
      vertex 25.1 20 13.5
      vertex 24.7 20 15.4
      vertex 25.1 -2.5 13.5
    endloop
  endfacet
  facet normal 0.988936 -2.19588e-16 0.14834
    outer loop
      vertex 25.1 20 13.5
      vertex 25.1 -2.5 13.5
      vertex 25.4 -2.5 11.5
    endloop
  endfacet
  facet normal 0.988936 -2.19588e-16 0.14834
    outer loop
      vertex 25.4 20 11.5
      vertex 25.1 20 13.5
      vertex 25.4 -2.5 11.5
    endloop
  endfacet
  facet normal 0.998618 -2.21738e-16 0.0525588
    outer loop
      vertex 25.4 20 11.5
      vertex 25.4 -2.5 11.5
      vertex 25.5 -2.5 9.6
    endloop
  endfacet
  facet normal 0.998618 -2.21738e-16 0.0525588
    outer loop
      vertex 25.5 20 9.6
      vertex 25.4 20 11.5
      vertex 25.5 -2.5 9.6
    endloop
  endfacet
  facet normal 0.998752 -2.21768e-16 0.0499376
    outer loop
      vertex 25.5777 2.35014 8.04504
      vertex 25.5 -2.5 9.6
      vertex 25.6 -2.5 7.6
    endloop
  endfacet
  facet normal 0.998752 -2.21768e-16 0.0499376
    outer loop
      vertex 25.5099 5.16777 9.40194
      vertex 25.5777 6.24986 8.04504
      vertex 25.5 20 9.6
    endloop
  endfacet
  facet normal 0.998752 -2.21768e-16 0.0499376
    outer loop
      vertex 25.5099 3.43223 9.40194
      vertex 25.5 -2.5 9.6
      vertex 25.5777 2.35014 8.04504
    endloop
  endfacet
  facet normal 0.998752 -2.21768e-16 0.0499376
    outer loop
      vertex 25.5 20 9.6
      vertex 25.5 -2.5 9.6
      vertex 25.5099 3.43223 9.40194
    endloop
  endfacet
  facet normal 0.998752 -2.21768e-16 0.0499376
    outer loop
      vertex 25.5777 6.24986 8.04504
      vertex 25.6 6.14828 7.6
      vertex 25.5 20 9.6
    endloop
  endfacet
  facet normal 0.998752 -2.21768e-16 0.0499376
    outer loop
      vertex 25.5 20 9.6
      vertex 25.5099 3.43223 9.40194
      vertex 25.5099 5.16777 9.40194
    endloop
  endfacet
  facet normal 0.998752 -2.21768e-16 0.0499376
    outer loop
      vertex 25.6 20 7.6
      vertex 25.5 20 9.6
      vertex 25.6 6.14828 7.6
    endloop
  endfacet
  facet normal 0.998752 -2.21768e-16 0.0499376
    outer loop
      vertex 25.6 2.45172 7.6
      vertex 25.5777 2.35014 8.04504
      vertex 25.6 -2.5 7.6
    endloop
  endfacet
  facet normal 0.998752 -2.21768e-16 -0.0499376
    outer loop
      vertex 25.5 4.3 5.6
      vertex 25.5 -2.5 5.6
      vertex 25.5 20 5.6
    endloop
  endfacet
  facet normal 0.998752 -2.21768e-16 -0.0499376
    outer loop
      vertex 25.5 4.3 5.6
      vertex 25.5377 2.73634 6.35302
      vertex 25.5 -2.5 5.6
    endloop
  endfacet
  facet normal 0.998752 -2.21768e-16 -0.0499376
    outer loop
      vertex 25.6 20 7.6
      vertex 25.6 6.14828 7.6
      vertex 25.5 20 5.6
    endloop
  endfacet
  facet normal 0.998752 -2.21768e-16 -0.0499376
    outer loop
      vertex 25.5377 5.86366 6.35302
      vertex 25.5 4.3 5.6
      vertex 25.5 20 5.6
    endloop
  endfacet
  facet normal 0.998752 -2.21768e-16 -0.0499376
    outer loop
      vertex 25.5377 2.73634 6.35302
      vertex 25.6 2.45172 7.6
      vertex 25.6 -2.5 7.6
    endloop
  endfacet
  facet normal 0.998752 -2.21768e-16 -0.0499376
    outer loop
      vertex 25.6 -2.5 7.6
      vertex 25.5 -2.5 5.6
      vertex 25.5377 2.73634 6.35302
    endloop
  endfacet
  facet normal 0.998752 -2.21768e-16 -0.0499376
    outer loop
      vertex 25.6 6.14828 7.6
      vertex 25.5377 5.86366 6.35302
      vertex 25.5 20 5.6
    endloop
  endfacet
  facet normal 0.998618 -2.21738e-16 -0.0525588
    outer loop
      vertex 25.5 -2.5 5.6
      vertex 25.4 -2.5 3.7
      vertex 25.4 20 3.7
    endloop
  endfacet
  facet normal 0.998618 -2.21738e-16 -0.0525588
    outer loop
      vertex 25.5 20 5.6
      vertex 25.5 -2.5 5.6
      vertex 25.4 20 3.7
    endloop
  endfacet
  facet normal 0.988936 -2.19588e-16 -0.14834
    outer loop
      vertex 25.4 -2.5 3.7
      vertex 25.1 -2.5 1.7
      vertex 25.1 20 1.7
    endloop
  endfacet
  facet normal 0.988936 -2.19588e-16 -0.14834
    outer loop
      vertex 25.4 20 3.7
      vertex 25.4 -2.5 3.7
      vertex 25.1 20 1.7
    endloop
  endfacet
  facet normal 0.973417 -2.16142e-16 -0.229039
    outer loop
      vertex 25.1 -2.5 1.7
      vertex 24.7 -2.5 -4.95159e-15
      vertex 24.7 20 -4.95159e-15
    endloop
  endfacet
  facet normal 0.973417 -2.16142e-16 -0.229039
    outer loop
      vertex 25.1 20 1.7
      vertex 25.1 -2.5 1.7
      vertex 24.7 20 -4.95159e-15
    endloop
  endfacet
  facet normal -2.22045e-16 4.93038e-32 -1
    outer loop
      vertex -0.6 -2.5 6.66134e-16
      vertex -0.6 20 6.66134e-16
      vertex 2.5 0 -2.22045e-17
    endloop
  endfacet
  facet normal -2.22045e-16 4.93038e-32 -1
    outer loop
      vertex -0.6 -2.5 6.66134e-16
      vertex 2.5 0 -2.22045e-17
      vertex 24.7 -2.5 -4.95159e-15
    endloop
  endfacet
  facet normal -2.22045e-16 4.93038e-32 -1
    outer loop
      vertex 21.6 20 -4.26326e-15
      vertex 24.7 -2.5 -4.95159e-15
      vertex 21.6 0 -4.26326e-15
    endloop
  endfacet
  facet normal -2.22045e-16 4.93038e-32 -1
    outer loop
      vertex 2.5 0 -2.22045e-17
      vertex 21.6 0 -4.26326e-15
      vertex 24.7 -2.5 -4.95159e-15
    endloop
  endfacet
  facet normal -2.22045e-16 4.93038e-32 -1
    outer loop
      vertex 24.7 -2.5 -4.95159e-15
      vertex 21.6 20 -4.26326e-15
      vertex 24.7 20 -4.95159e-15
    endloop
  endfacet
  facet normal -2.22045e-16 4.93038e-32 -1
    outer loop
      vertex 2.5 0 -2.22045e-17
      vertex -0.6 20 6.66134e-16
      vertex 2.5 20 -2.22045e-17
    endloop
  endfacet
  facet normal -0.984784 2.18666e-16 -0.173785
    outer loop
      vertex -0.9 -2.5 1.7
      vertex -0.9 20 1.7
      vertex -0.6 -2.5 6.66134e-16
    endloop
  endfacet
  facet normal -0.984784 2.18666e-16 -0.173785
    outer loop
      vertex -0.6 -2.5 6.66134e-16
      vertex -0.9 20 1.7
      vertex -0.6 20 6.66134e-16
    endloop
  endfacet
  facet normal -0.988936 2.19588e-16 -0.14834
    outer loop
      vertex -1.2 -2.5 3.7
      vertex -1.2 20 3.7
      vertex -0.9 -2.5 1.7
    endloop
  endfacet
  facet normal -0.988936 2.19588e-16 -0.14834
    outer loop
      vertex -0.9 -2.5 1.7
      vertex -1.2 20 3.7
      vertex -0.9 20 1.7
    endloop
  endfacet
  facet normal 1 0 0
    outer loop
      vertex 2.5 20 -2.22045e-17
      vertex 2.5 20 16.6
      vertex 2.5 0 16.6
    endloop
  endfacet
  facet normal 1 0 0
    outer loop
      vertex 2.5 5.16777 9.40194
      vertex 2.5 20 -2.22045e-17
      vertex 2.5 0 16.6
    endloop
  endfacet
  facet normal 1 0 0
    outer loop
      vertex 2.5 0 -2.22045e-17
      vertex 2.5 2.35014 8.04504
      vertex 2.5 0 16.6
    endloop
  endfacet
  facet normal 1 0 0
    outer loop
      vertex 2.5 2.35014 8.04504
      vertex 2.5 3.43223 9.40194
      vertex 2.5 0 16.6
    endloop
  endfacet
  facet normal 1 0 0
    outer loop
      vertex 2.5 3.43223 9.40194
      vertex 2.5 5.16777 9.40194
      vertex 2.5 0 16.6
    endloop
  endfacet
  facet normal 1 0 0
    outer loop
      vertex 2.5 6.24986 8.04504
      vertex 2.5 20 -2.22045e-17
      vertex 2.5 5.16777 9.40194
    endloop
  endfacet
  facet normal 1 0 0
    outer loop
      vertex 2.5 0 -2.22045e-17
      vertex 2.5 20 -2.22045e-17
      vertex 2.5 5.86366 6.35302
    endloop
  endfacet
  facet normal 1 0 0
    outer loop
      vertex 2.5 0 -2.22045e-17
      vertex 2.5 5.86366 6.35302
      vertex 2.5 4.3 5.6
    endloop
  endfacet
  facet normal 1 0 0
    outer loop
      vertex 2.5 0 -2.22045e-17
      vertex 2.5 2.73634 6.35302
      vertex 2.5 2.35014 8.04504
    endloop
  endfacet
  facet normal 1 0 0
    outer loop
      vertex 2.5 0 -2.22045e-17
      vertex 2.5 4.3 5.6
      vertex 2.5 2.73634 6.35302
    endloop
  endfacet
  facet normal 1 0 0
    outer loop
      vertex 2.5 6.24986 8.04504
      vertex 2.5 5.86366 6.35302
      vertex 2.5 20 -2.22045e-17
    endloop
  endfacet
  facet normal 0 0 -1
    outer loop
      vertex 21.6 20 16.6
      vertex 21.6 0 16.6
      vertex 2.5 20 16.6
    endloop
  endfacet
  facet normal 0 0 -1
    outer loop
      vertex 2.5 20 16.6
      vertex 21.6 0 16.6
      vertex 2.5 0 16.6
    endloop
  endfacet
  facet normal -1 0 0
    outer loop
      vertex 21.6 20 16.6
      vertex 21.6 20 -4.26326e-15
      vertex 21.6 0 16.6
    endloop
  endfacet
  facet normal -1 0 0
    outer loop
      vertex 21.6 4.3 5.6
      vertex 21.6 20 -4.26326e-15
      vertex 21.6 0 -4.26326e-15
    endloop
  endfacet
  facet normal -1 0 0
    outer loop
      vertex 21.6 3.43223 9.40194
      vertex 21.6 0 16.6
      vertex 21.6 5.16777 9.40194
    endloop
  endfacet
  facet normal -1 0 0
    outer loop
      vertex 21.6 0 16.6
      vertex 21.6 2.73634 6.35302
      vertex 21.6 0 -4.26326e-15
    endloop
  endfacet
  facet normal -1 0 0
    outer loop
      vertex 21.6 2.73634 6.35302
      vertex 21.6 4.3 5.6
      vertex 21.6 0 -4.26326e-15
    endloop
  endfacet
  facet normal -1 0 0
    outer loop
      vertex 21.6 6.24986 8.04504
      vertex 21.6 20 -4.26326e-15
      vertex 21.6 5.86366 6.35302
    endloop
  endfacet
  facet normal -1 0 0
    outer loop
      vertex 21.6 0 16.6
      vertex 21.6 20 -4.26326e-15
      vertex 21.6 6.24986 8.04504
    endloop
  endfacet
  facet normal -1 0 0
    outer loop
      vertex 21.6 0 16.6
      vertex 21.6 6.24986 8.04504
      vertex 21.6 5.16777 9.40194
    endloop
  endfacet
  facet normal -1 0 0
    outer loop
      vertex 21.6 0 16.6
      vertex 21.6 3.43223 9.40194
      vertex 21.6 2.35014 8.04504
    endloop
  endfacet
  facet normal -1 0 0
    outer loop
      vertex 21.6 0 16.6
      vertex 21.6 2.35014 8.04504
      vertex 21.6 2.73634 6.35302
    endloop
  endfacet
  facet normal -1 0 0
    outer loop
      vertex 21.6 5.86366 6.35302
      vertex 21.6 20 -4.26326e-15
      vertex 21.6 4.3 5.6
    endloop
  endfacet
  facet normal -4.94096e-17 -0.974928 0.222521
    outer loop
      vertex 25.5377 5.86366 6.35302
      vertex 25.6 6.14828 7.6
      vertex 25.5777 6.24986 8.04504
    endloop
  endfacet
  facet normal -4.94096e-17 -0.974928 0.222521
    outer loop
      vertex 21.6 5.86366 6.35302
      vertex 25.5377 5.86366 6.35302
      vertex 21.6 6.24986 8.04504
    endloop
  endfacet
  facet normal -4.94096e-17 -0.974928 0.222521
    outer loop
      vertex 21.6 6.24986 8.04504
      vertex 25.5377 5.86366 6.35302
      vertex 25.5777 6.24986 8.04504
    endloop
  endfacet
  facet normal 1.38443e-16 -0.781831 -0.62349
    outer loop
      vertex 21.6 6.24986 8.04504
      vertex 25.5777 6.24986 8.04504
      vertex 25.5099 5.16777 9.40194
    endloop
  endfacet
  facet normal 1.38443e-16 -0.781831 -0.62349
    outer loop
      vertex 21.6 5.16777 9.40194
      vertex 21.6 6.24986 8.04504
      vertex 25.5099 5.16777 9.40194
    endloop
  endfacet
  facet normal 2.22045e-16 0 -1
    outer loop
      vertex 25.5099 5.16777 9.40194
      vertex 25.5099 3.43223 9.40194
      vertex 21.6 5.16777 9.40194
    endloop
  endfacet
  facet normal 2.22045e-16 0 -1
    outer loop
      vertex 21.6 5.16777 9.40194
      vertex 25.5099 3.43223 9.40194
      vertex 21.6 3.43223 9.40194
    endloop
  endfacet
  facet normal 1.38443e-16 0.781831 -0.62349
    outer loop
      vertex 25.5099 3.43223 9.40194
      vertex 25.5777 2.35014 8.04504
      vertex 21.6 3.43223 9.40194
    endloop
  endfacet
  facet normal 1.38443e-16 0.781831 -0.62349
    outer loop
      vertex 21.6 3.43223 9.40194
      vertex 25.5777 2.35014 8.04504
      vertex 21.6 2.35014 8.04504
    endloop
  endfacet
  facet normal -4.94096e-17 0.974928 0.222521
    outer loop
      vertex 25.6 2.45172 7.6
      vertex 25.5377 2.73634 6.35302
      vertex 25.5777 2.35014 8.04504
    endloop
  endfacet
  facet normal -4.94096e-17 0.974928 0.222521
    outer loop
      vertex 25.5777 2.35014 8.04504
      vertex 25.5377 2.73634 6.35302
      vertex 21.6 2.73634 6.35302
    endloop
  endfacet
  facet normal -4.94096e-17 0.974928 0.222521
    outer loop
      vertex 25.5777 2.35014 8.04504
      vertex 21.6 2.73634 6.35302
      vertex 21.6 2.35014 8.04504
    endloop
  endfacet
  facet normal -2.00055e-16 0.433884 0.900969
    outer loop
      vertex 25.5377 2.73634 6.35302
      vertex 25.5 4.3 5.6
      vertex 21.6 4.3 5.6
    endloop
  endfacet
  facet normal -2.00055e-16 0.433884 0.900969
    outer loop
      vertex 21.6 2.73634 6.35302
      vertex 25.5377 2.73634 6.35302
      vertex 21.6 4.3 5.6
    endloop
  endfacet
  facet normal -2.00055e-16 -0.433884 0.900969
    outer loop
      vertex 25.5 4.3 5.6
      vertex 25.5377 5.86366 6.35302
      vertex 21.6 5.86366 6.35302
    endloop
  endfacet
  facet normal -2.00055e-16 -0.433884 0.900969
    outer loop
      vertex 21.6 4.3 5.6
      vertex 25.5 4.3 5.6
      vertex 21.6 5.86366 6.35302
    endloop
  endfacet
  facet normal 0 1 0
    outer loop
      vertex 4.3 0 0
      vertex 21.6 0 -4.26326e-15
      vertex 2.5 0 -2.22045e-17
    endloop
  endfacet
  facet normal 0 1 0
    outer loop
      vertex 19.8 0 0
      vertex 21.6 0 -4.26326e-15
      vertex 4.3 0 0
    endloop
  endfacet
  facet normal 0 1 0
    outer loop
      vertex 2.5 0 16.6
      vertex 4.3 0 0
      vertex 2.5 0 -2.22045e-17
    endloop
  endfacet
  facet normal 0 1 0
    outer loop
      vertex 19.8 0 15.5
      vertex 21.6 0 -4.26326e-15
      vertex 19.8 0 0
    endloop
  endfacet
  facet normal 0 1 0
    outer loop
      vertex 21.6 0 16.6
      vertex 21.6 0 -4.26326e-15
      vertex 19.8 0 15.5
    endloop
  endfacet
  facet normal 0 1 0
    outer loop
      vertex 21.6 0 16.6
      vertex 19.8 0 15.5
      vertex 2.5 0 16.6
    endloop
  endfacet
  facet normal 0 1 0
    outer loop
      vertex 19.8 0 15.5
      vertex 4.3 0 15.5
      vertex 2.5 0 16.6
    endloop
  endfacet
  facet normal 0 1 0
    outer loop
      vertex 4.3 0 0
      vertex 2.5 0 16.6
      vertex 4.3 0 15.5
    endloop
  endfacet
  facet normal 0 0 -1
    outer loop
      vertex 4.3 0 0
      vertex 4.3 20 0
      vertex 19.8 0 0
    endloop
  endfacet
  facet normal 0 0 -1
    outer loop
      vertex 19.8 0 0
      vertex 4.3 20 0
      vertex 19.8 20 0
    endloop
  endfacet
  facet normal -1 0 0
    outer loop
      vertex 4.3 5.16777 9.40194
      vertex 4.3 0 15.5
      vertex 4.3 20 0
    endloop
  endfacet
  facet normal -1 0 0
    outer loop
      vertex 4.3 20 0
      vertex 4.3 0 15.5
      vertex 4.3 20 15.5
    endloop
  endfacet
  facet normal -1 0 0
    outer loop
      vertex 4.3 0 0
      vertex 4.3 0 15.5
      vertex 4.3 2.35014 8.04504
    endloop
  endfacet
  facet normal -1 0 0
    outer loop
      vertex 4.3 0 0
      vertex 4.3 2.35014 8.04504
      vertex 4.3 2.73634 6.35302
    endloop
  endfacet
  facet normal -1 0 0
    outer loop
      vertex 4.3 0 0
      vertex 4.3 2.73634 6.35302
      vertex 4.3 4.3 5.6
    endloop
  endfacet
  facet normal -1 0 0
    outer loop
      vertex 4.3 0 0
      vertex 4.3 4.3 5.6
      vertex 4.3 20 0
    endloop
  endfacet
  facet normal -1 0 0
    outer loop
      vertex 4.3 6.24986 8.04504
      vertex 4.3 20 0
      vertex 4.3 5.86366 6.35302
    endloop
  endfacet
  facet normal -1 0 0
    outer loop
      vertex 4.3 3.43223 9.40194
      vertex 4.3 0 15.5
      vertex 4.3 5.16777 9.40194
    endloop
  endfacet
  facet normal -1 0 0
    outer loop
      vertex 4.3 6.24986 8.04504
      vertex 4.3 5.16777 9.40194
      vertex 4.3 20 0
    endloop
  endfacet
  facet normal -1 0 0
    outer loop
      vertex 4.3 2.35014 8.04504
      vertex 4.3 0 15.5
      vertex 4.3 3.43223 9.40194
    endloop
  endfacet
  facet normal -1 0 0
    outer loop
      vertex 4.3 5.86366 6.35302
      vertex 4.3 20 0
      vertex 4.3 4.3 5.6
    endloop
  endfacet
  facet normal 0 0 1
    outer loop
      vertex 4.3 20 15.5
      vertex 4.3 0 15.5
      vertex 19.8 0 15.5
    endloop
  endfacet
  facet normal 0 0 1
    outer loop
      vertex 19.8 20 15.5
      vertex 4.3 20 15.5
      vertex 19.8 0 15.5
    endloop
  endfacet
  facet normal 1 0 0
    outer loop
      vertex 19.8 4.3 5.6
      vertex 19.8 0 0
      vertex 19.8 20 0
    endloop
  endfacet
  facet normal 1 0 0
    outer loop
      vertex 19.8 20 15.5
      vertex 19.8 0 15.5
      vertex 19.8 20 0
    endloop
  endfacet
  facet normal 1 0 0
    outer loop
      vertex 19.8 0 15.5
      vertex 19.8 0 0
      vertex 19.8 2.73634 6.35302
    endloop
  endfacet
  facet normal 1 0 0
    outer loop
      vertex 19.8 5.86366 6.35302
      vertex 19.8 4.3 5.6
      vertex 19.8 20 0
    endloop
  endfacet
  facet normal 1 0 0
    outer loop
      vertex 19.8 0 15.5
      vertex 19.8 2.73634 6.35302
      vertex 19.8 2.35014 8.04504
    endloop
  endfacet
  facet normal 1 0 0
    outer loop
      vertex 19.8 0 15.5
      vertex 19.8 2.35014 8.04504
      vertex 19.8 3.43223 9.40194
    endloop
  endfacet
  facet normal 1 0 0
    outer loop
      vertex 19.8 0 15.5
      vertex 19.8 5.16777 9.40194
      vertex 19.8 20 0
    endloop
  endfacet
  facet normal 1 0 0
    outer loop
      vertex 19.8 0 15.5
      vertex 19.8 3.43223 9.40194
      vertex 19.8 5.16777 9.40194
    endloop
  endfacet
  facet normal 1 0 0
    outer loop
      vertex 19.8 5.16777 9.40194
      vertex 19.8 6.24986 8.04504
      vertex 19.8 20 0
    endloop
  endfacet
  facet normal 1 0 0
    outer loop
      vertex 19.8 2.73634 6.35302
      vertex 19.8 0 0
      vertex 19.8 4.3 5.6
    endloop
  endfacet
  facet normal 1 0 0
    outer loop
      vertex 19.8 6.24986 8.04504
      vertex 19.8 5.86366 6.35302
      vertex 19.8 20 0
    endloop
  endfacet
  facet normal 0 1 0
    outer loop
      vertex 4.3 20 0
      vertex 4.3 20 15.5
      vertex 19.8 20 0
    endloop
  endfacet
  facet normal 0 1 0
    outer loop
      vertex 19.8 20 0
      vertex 4.3 20 15.5
      vertex 19.8 20 15.5
    endloop
  endfacet
  facet normal 1.38443e-16 0.781831 -0.62349
    outer loop
      vertex 19.8 3.43223 9.40194
      vertex 19.8 2.35014 8.04504
      vertex 4.3 3.43223 9.40194
    endloop
  endfacet
  facet normal 1.38443e-16 0.781831 -0.62349
    outer loop
      vertex 4.3 3.43223 9.40194
      vertex 19.8 2.35014 8.04504
      vertex 4.3 2.35014 8.04504
    endloop
  endfacet
  facet normal -4.94096e-17 0.974928 0.222521
    outer loop
      vertex 19.8 2.73634 6.35302
      vertex 4.3 2.73634 6.35302
      vertex 19.8 2.35014 8.04504
    endloop
  endfacet
  facet normal -4.94096e-17 0.974928 0.222521
    outer loop
      vertex 19.8 2.35014 8.04504
      vertex 4.3 2.73634 6.35302
      vertex 4.3 2.35014 8.04504
    endloop
  endfacet
  facet normal 2.22045e-16 0 -1
    outer loop
      vertex 19.8 5.16777 9.40194
      vertex 19.8 3.43223 9.40194
      vertex 4.3 5.16777 9.40194
    endloop
  endfacet
  facet normal 2.22045e-16 0 -1
    outer loop
      vertex 4.3 5.16777 9.40194
      vertex 19.8 3.43223 9.40194
      vertex 4.3 3.43223 9.40194
    endloop
  endfacet
  facet normal 1.38443e-16 -0.781831 -0.62349
    outer loop
      vertex 4.3 6.24986 8.04504
      vertex 19.8 6.24986 8.04504
      vertex 19.8 5.16777 9.40194
    endloop
  endfacet
  facet normal 1.38443e-16 -0.781831 -0.62349
    outer loop
      vertex 4.3 5.16777 9.40194
      vertex 4.3 6.24986 8.04504
      vertex 19.8 5.16777 9.40194
    endloop
  endfacet
  facet normal -4.94096e-17 -0.974928 0.222521
    outer loop
      vertex 19.8 5.86366 6.35302
      vertex 19.8 6.24986 8.04504
      vertex 4.3 6.24986 8.04504
    endloop
  endfacet
  facet normal -4.94096e-17 -0.974928 0.222521
    outer loop
      vertex 4.3 5.86366 6.35302
      vertex 19.8 5.86366 6.35302
      vertex 4.3 6.24986 8.04504
    endloop
  endfacet
  facet normal -2.00055e-16 -0.433884 0.900969
    outer loop
      vertex 19.8 4.3 5.6
      vertex 19.8 5.86366 6.35302
      vertex 4.3 5.86366 6.35302
    endloop
  endfacet
  facet normal -2.00055e-16 -0.433884 0.900969
    outer loop
      vertex 4.3 4.3 5.6
      vertex 19.8 4.3 5.6
      vertex 4.3 5.86366 6.35302
    endloop
  endfacet
  facet normal -2.00055e-16 0.433884 0.900969
    outer loop
      vertex 19.8 2.73634 6.35302
      vertex 19.8 4.3 5.6
      vertex 4.3 4.3 5.6
    endloop
  endfacet
  facet normal -2.00055e-16 0.433884 0.900969
    outer loop
      vertex 4.3 2.73634 6.35302
      vertex 19.8 2.73634 6.35302
      vertex 4.3 4.3 5.6
    endloop
  endfacet
endsolid OpenSCAD_Model
