solid OpenSCAD_Model
  facet normal -1 2.22045e-16 2.22045e-16
    outer loop
      vertex -1.4 -2.5 5.6
      vertex -1.4 -2.5 9.6
      vertex -1.4 -1.55 7.6
    endloop
  endfacet
  facet normal -1 2.22045e-16 2.22045e-16
    outer loop
      vertex -1.4 -2.5 5.6
      vertex -1.4 -1.55 7.6
      vertex -1.4 -0.3953 5.6
    endloop
  endfacet
  facet normal -1 2.22045e-16 2.22045e-16
    outer loop
      vertex -1.4 -1.55 7.6
      vertex -1.4 -2.5 9.6
      vertex -1.4 -0.3953 9.6
    endloop
  endfacet
  facet normal -2.22045e-16 -1 4.93038e-32
    outer loop
      vertex -1.4 -2.5 9.6
      vertex -1.4 -2.5 5.6
      vertex -1.2 -2.5 3.7
    endloop
  endfacet
  facet normal -2.22045e-16 -1 4.93038e-32
    outer loop
      vertex -0.6 -2.5 6.66134e-16
      vertex -1.4 -2.5 9.6
      vertex -0.9 -2.5 1.7
    endloop
  endfacet
  facet normal -2.22045e-16 -1 4.93038e-32
    outer loop
      vertex -0.9 -2.5 1.7
      vertex -1.4 -2.5 9.6
      vertex -1.2 -2.5 3.7
    endloop
  endfacet
  facet normal -2.22045e-16 -1 4.93038e-32
    outer loop
      vertex 24.7 -2.5 -4.95159e-15
      vertex -1.4 -2.5 9.6
      vertex -0.6 -2.5 6.66134e-16
    endloop
  endfacet
  facet normal -2.22045e-16 -1 4.93038e-32
    outer loop
      vertex 25.1 -2.5 1.7
      vertex -1.4 -2.5 9.6
      vertex 24.7 -2.5 -4.95159e-15
    endloop
  endfacet
  facet normal -2.22045e-16 -1 4.93038e-32
    outer loop
      vertex 25.4 -2.5 3.7
      vertex -1.4 -2.5 9.6
      vertex 25.1 -2.5 1.7
    endloop
  endfacet
  facet normal -2.22045e-16 -1 4.93038e-32
    outer loop
      vertex 25.5 -2.5 5.6
      vertex -1.4 -2.5 9.6
      vertex 25.4 -2.5 3.7
    endloop
  endfacet
  facet normal -2.22045e-16 -1 4.93038e-32
    outer loop
      vertex 25.6 -2.5 7.6
      vertex -1.4 -2.5 9.6
      vertex 25.5 -2.5 5.6
    endloop
  endfacet
  facet normal -2.22045e-16 -1 4.93038e-32
    outer loop
      vertex 25.5 -2.5 9.6
      vertex -1.4 -2.5 9.6
      vertex 25.6 -2.5 7.6
    endloop
  endfacet
  facet normal -2.22045e-16 -1 4.93038e-32
    outer loop
      vertex 25.4 -2.5 11.5
      vertex -1.4 -2.5 9.6
      vertex 25.5 -2.5 9.6
    endloop
  endfacet
  facet normal -2.22045e-16 -1 4.93038e-32
    outer loop
      vertex 25.1 -2.5 13.5
      vertex -1.4 -2.5 9.6
      vertex 25.4 -2.5 11.5
    endloop
  endfacet
  facet normal -2.22045e-16 -1 4.93038e-32
    outer loop
      vertex 24.7 -2.5 15.4
      vertex -1.4 -2.5 9.6
      vertex 25.1 -2.5 13.5
    endloop
  endfacet
  facet normal -2.22045e-16 -1 4.93038e-32
    outer loop
      vertex 24.2 -2.5 17.3
      vertex -1.4 -2.5 9.6
      vertex 24.7 -2.5 15.4
    endloop
  endfacet
  facet normal -2.22045e-16 -1 4.93038e-32
    outer loop
      vertex 23.6 -2.5 19.2
      vertex -1.4 -2.5 9.6
      vertex 24.2 -2.5 17.3
    endloop
  endfacet
  facet normal -2.22045e-16 -1 4.93038e-32
    outer loop
      vertex 21.7 -2.5 19.8
      vertex -1.4 -2.5 9.6
      vertex 23.6 -2.5 19.2
    endloop
  endfacet
  facet normal -2.22045e-16 -1 4.93038e-32
    outer loop
      vertex 19.9 -2.5 20.3
      vertex -1.4 -2.5 9.6
      vertex 21.7 -2.5 19.8
    endloop
  endfacet
  facet normal -2.22045e-16 -1 4.93038e-32
    outer loop
      vertex 17.9 -2.5 20.7
      vertex -1.4 -2.5 9.6
      vertex 19.9 -2.5 20.3
    endloop
  endfacet
  facet normal -2.22045e-16 -1 4.93038e-32
    outer loop
      vertex 16 -2.5 21
      vertex -1.4 -2.5 9.6
      vertex 17.9 -2.5 20.7
    endloop
  endfacet
  facet normal -2.22045e-16 -1 4.93038e-32
    outer loop
      vertex 14.1 -2.5 21.1
      vertex -1.4 -2.5 9.6
      vertex 16 -2.5 21
    endloop
  endfacet
  facet normal -2.22045e-16 -1 4.93038e-32
    outer loop
      vertex 12 -2.5 21.2
      vertex -1.4 -2.5 9.6
      vertex 14.1 -2.5 21.1
    endloop
  endfacet
  facet normal -2.22045e-16 -1 4.93038e-32
    outer loop
      vertex 10.1 -2.5 21.1
      vertex -1.4 -2.5 9.6
      vertex 12 -2.5 21.2
    endloop
  endfacet
  facet normal -2.22045e-16 -1 4.93038e-32
    outer loop
      vertex 8.2 -2.5 21
      vertex -1.4 -2.5 9.6
      vertex 10.1 -2.5 21.1
    endloop
  endfacet
  facet normal -2.22045e-16 -1 4.93038e-32
    outer loop
      vertex 5.9 -2.5 20.7
      vertex -1.4 -2.5 9.6
      vertex 8.2 -2.5 21
    endloop
  endfacet
  facet normal -2.22045e-16 -1 4.93038e-32
    outer loop
      vertex 4.3 -2.5 20.3
      vertex -1.4 -2.5 9.6
      vertex 5.9 -2.5 20.7
    endloop
  endfacet
  facet normal -2.22045e-16 -1 4.93038e-32
    outer loop
      vertex 2.41 -2.5 19.8
      vertex -1.4 -2.5 9.6
      vertex 4.3 -2.5 20.3
    endloop
  endfacet
  facet normal -2.22045e-16 -1 4.93038e-32
    outer loop
      vertex 0.6 -2.5 19.2
      vertex -1.4 -2.5 9.6
      vertex 2.41 -2.5 19.8
    endloop
  endfacet
  facet normal -2.22045e-16 -1 4.93038e-32
    outer loop
      vertex -2.26485e-15 -2.5 17.3
      vertex -1.4 -2.5 9.6
      vertex 0.6 -2.5 19.2
    endloop
  endfacet
  facet normal -2.22045e-16 -1 4.93038e-32
    outer loop
      vertex -0.5 -2.5 15.4
      vertex -1.4 -2.5 9.6
      vertex -2.26485e-15 -2.5 17.3
    endloop
  endfacet
  facet normal -2.22045e-16 -1 4.93038e-32
    outer loop
      vertex -0.9 -2.5 13.5
      vertex -1.4 -2.5 9.6
      vertex -0.5 -2.5 15.4
    endloop
  endfacet
  facet normal -2.22045e-16 -1 4.93038e-32
    outer loop
      vertex -1.2 -2.5 11.5
      vertex -1.4 -2.5 9.6
      vertex -0.9 -2.5 13.5
    endloop
  endfacet
  facet normal -0.994505 2.20825e-16 -0.104685
    outer loop
      vertex -1.4 -2.5 5.6
      vertex -1.4 -0.3953 5.6
      vertex -1.2 -2.5 3.7
    endloop
  endfacet
  facet normal -0.994505 2.20825e-16 -0.104685
    outer loop
      vertex -1.2 -2.5 3.7
      vertex -1.4 -0.3953 5.6
      vertex -1.2 0.701666 3.7
    endloop
  endfacet
  facet normal 8.1274e-17 0.866025 0.5
    outer loop
      vertex 0.55 -1.55 7.6
      vertex 0.55 1.375 2.53375
      vertex -1.4 -1.55 7.6
    endloop
  endfacet
  facet normal 8.1274e-17 0.866025 0.5
    outer loop
      vertex -1.4 -1.55 7.6
      vertex 0.55 1.375 2.53375
      vertex -1.02506 1.375 2.53375
    endloop
  endfacet
  facet normal 8.1274e-17 0.866025 0.5
    outer loop
      vertex -1.4 -1.55 7.6
      vertex -1.02506 1.375 2.53375
      vertex -1.2 0.701666 3.7
    endloop
  endfacet
  facet normal 8.1274e-17 0.866025 0.5
    outer loop
      vertex -1.4 -1.55 7.6
      vertex -1.2 0.701666 3.7
      vertex -1.4 -0.3953 5.6
    endloop
  endfacet
  facet normal 3.03319e-16 0.866025 -0.5
    outer loop
      vertex -1.2 0.701666 11.5
      vertex -1.02506 1.375 12.6662
      vertex -1.4 -0.3953 9.6
    endloop
  endfacet
  facet normal 3.03319e-16 0.866025 -0.5
    outer loop
      vertex -1.4 -0.3953 9.6
      vertex -1.02506 1.375 12.6662
      vertex 0.55 1.375 12.6662
    endloop
  endfacet
  facet normal 3.03319e-16 0.866025 -0.5
    outer loop
      vertex -1.4 -0.3953 9.6
      vertex 0.55 1.375 12.6662
      vertex 0.55 -1.55 7.6
    endloop
  endfacet
  facet normal 3.03319e-16 0.866025 -0.5
    outer loop
      vertex -1.4 -0.3953 9.6
      vertex 0.55 -1.55 7.6
      vertex -1.4 -1.55 7.6
    endloop
  endfacet
  facet normal -0.994505 2.20825e-16 0.104685
    outer loop
      vertex -1.4 -2.5 9.6
      vertex -1.2 -2.5 11.5
      vertex -1.4 -0.3953 9.6
    endloop
  endfacet
  facet normal -0.994505 2.20825e-16 0.104685
    outer loop
      vertex -1.4 -0.3953 9.6
      vertex -1.2 -2.5 11.5
      vertex -1.2 0.701666 11.5
    endloop
  endfacet
  facet normal -0.988936 2.19588e-16 0.14834
    outer loop
      vertex -1.2 -2.5 11.5
      vertex -0.9 -2.5 13.5
      vertex -1.2 0.701666 11.5
    endloop
  endfacet
  facet normal -0.988936 2.19588e-16 0.14834
    outer loop
      vertex -1.02506 7.225 12.6662
      vertex -0.9 -2.5 13.5
      vertex -0.9 25 13.5
    endloop
  endfacet
  facet normal -0.988936 2.19588e-16 0.14834
    outer loop
      vertex -1.2 7.89833 11.5
      vertex -0.9 25 13.5
      vertex -1.2 25 11.5
    endloop
  endfacet
  facet normal -0.988936 2.19588e-16 0.14834
    outer loop
      vertex -1.02506 1.375 12.6662
      vertex -0.9 -2.5 13.5
      vertex -1.02506 7.225 12.6662
    endloop
  endfacet
  facet normal -0.988936 2.19588e-16 0.14834
    outer loop
      vertex -1.2 0.701666 11.5
      vertex -0.9 -2.5 13.5
      vertex -1.02506 1.375 12.6662
    endloop
  endfacet
  facet normal -0.988936 2.19588e-16 0.14834
    outer loop
      vertex -1.02506 7.225 12.6662
      vertex -0.9 25 13.5
      vertex -1.2 7.89833 11.5
    endloop
  endfacet
  facet normal -0.97855 2.17282e-16 0.20601
    outer loop
      vertex -0.9 -2.5 13.5
      vertex -0.5 -2.5 15.4
      vertex -0.9 25 13.5
    endloop
  endfacet
  facet normal -0.97855 2.17282e-16 0.20601
    outer loop
      vertex -0.9 25 13.5
      vertex -0.5 -2.5 15.4
      vertex -0.5 25 15.4
    endloop
  endfacet
  facet normal -0.967075 2.14734e-16 0.254493
    outer loop
      vertex -0.5 -2.5 15.4
      vertex -2.26485e-15 -2.5 17.3
      vertex -0.5 25 15.4
    endloop
  endfacet
  facet normal -0.967075 2.14734e-16 0.254493
    outer loop
      vertex -0.5 25 15.4
      vertex -2.26485e-15 -2.5 17.3
      vertex 3.84137e-15 25 17.3
    endloop
  endfacet
  facet normal -0.953583 2.11738e-16 0.301131
    outer loop
      vertex -2.26485e-15 -2.5 17.3
      vertex 0.6 -2.5 19.2
      vertex 3.84137e-15 25 17.3
    endloop
  endfacet
  facet normal -0.953583 2.11738e-16 0.301131
    outer loop
      vertex 3.84137e-15 25 17.3
      vertex 0.6 -2.5 19.2
      vertex 0.6 25 19.2
    endloop
  endfacet
  facet normal -0.314654 6.98672e-17 0.949206
    outer loop
      vertex 0.6 25 19.2
      vertex 0.6 -2.5 19.2
      vertex 2.41 -2.5 19.8
    endloop
  endfacet
  facet normal -0.314654 6.98672e-17 0.949206
    outer loop
      vertex 2.41 25 19.8
      vertex 0.6 25 19.2
      vertex 2.41 -2.5 19.8
    endloop
  endfacet
  facet normal -0.255752 5.67883e-17 0.966742
    outer loop
      vertex 2.5 0 19.8238
      vertex 2.41 -2.5 19.8
      vertex 4.3 -2.5 20.3
    endloop
  endfacet
  facet normal -0.255752 5.67883e-17 0.966742
    outer loop
      vertex 2.41 25 19.8
      vertex 2.41 -2.5 19.8
      vertex 2.5 0 19.8238
    endloop
  endfacet
  facet normal -0.255752 5.67883e-17 0.966742
    outer loop
      vertex 2.5 15 19.8238
      vertex 4.3 15 20.3
      vertex 2.41 25 19.8
    endloop
  endfacet
  facet normal -0.255752 5.67883e-17 0.966742
    outer loop
      vertex 2.41 25 19.8
      vertex 2.5 0 19.8238
      vertex 2.5 15 19.8238
    endloop
  endfacet
  facet normal -0.255752 5.67883e-17 0.966742
    outer loop
      vertex 4.3 25 20.3
      vertex 2.41 25 19.8
      vertex 4.3 15 20.3
    endloop
  endfacet
  facet normal -0.255752 5.67883e-17 0.966742
    outer loop
      vertex 4.3 0 20.3
      vertex 2.5 0 19.8238
      vertex 4.3 -2.5 20.3
    endloop
  endfacet
  facet normal -0.242536 5.38537e-17 0.970143
    outer loop
      vertex 4.3 0 20.3
      vertex 4.3 -2.5 20.3
      vertex 5.9 -2.5 20.7
    endloop
  endfacet
  facet normal -0.242536 5.38537e-17 0.970143
    outer loop
      vertex 5.9 0 20.7
      vertex 4.3 0 20.3
      vertex 5.9 -2.5 20.7
    endloop
  endfacet
  facet normal -0.129339 2.87191e-17 0.9916
    outer loop
      vertex 5.9 0 20.7
      vertex 5.9 -2.5 20.7
      vertex 8.2 -2.5 21
    endloop
  endfacet
  facet normal -0.129339 2.87191e-17 0.9916
    outer loop
      vertex 8.2 0 21
      vertex 5.9 0 20.7
      vertex 8.2 -2.5 21
    endloop
  endfacet
  facet normal -0.0525588 1.16704e-17 0.998618
    outer loop
      vertex 8.2 0 21
      vertex 8.2 -2.5 21
      vertex 10.1 -2.5 21.1
    endloop
  endfacet
  facet normal -0.0525588 1.16704e-17 0.998618
    outer loop
      vertex 10.1 0 21.1
      vertex 8.2 0 21
      vertex 10.1 -2.5 21.1
    endloop
  endfacet
  facet normal -0.0525588 1.16704e-17 0.998618
    outer loop
      vertex 10.1 0 21.1
      vertex 10.1 -2.5 21.1
      vertex 12 -2.5 21.2
    endloop
  endfacet
  facet normal -0.0525588 1.16704e-17 0.998618
    outer loop
      vertex 12 0 21.2
      vertex 10.1 0 21.1
      vertex 12 -2.5 21.2
    endloop
  endfacet
  facet normal 0.0475651 -1.05616e-17 0.998868
    outer loop
      vertex 12 0 21.2
      vertex 12 -2.5 21.2
      vertex 14.1 -2.5 21.1
    endloop
  endfacet
  facet normal 0.0475651 -1.05616e-17 0.998868
    outer loop
      vertex 14.1 0 21.1
      vertex 12 0 21.2
      vertex 14.1 -2.5 21.1
    endloop
  endfacet
  facet normal 0.0525588 -1.16704e-17 0.998618
    outer loop
      vertex 14.1 0 21.1
      vertex 14.1 -2.5 21.1
      vertex 16 -2.5 21
    endloop
  endfacet
  facet normal 0.0525588 -1.16704e-17 0.998618
    outer loop
      vertex 16 0 21
      vertex 14.1 0 21.1
      vertex 16 -2.5 21
    endloop
  endfacet
  facet normal 0.155963 -3.46306e-17 0.987763
    outer loop
      vertex 16 0 21
      vertex 16 -2.5 21
      vertex 17.9 -2.5 20.7
    endloop
  endfacet
  facet normal 0.155963 -3.46306e-17 0.987763
    outer loop
      vertex 17.9 0 20.7
      vertex 16 0 21
      vertex 17.9 -2.5 20.7
    endloop
  endfacet
  facet normal 0.196116 -4.35465e-17 0.980581
    outer loop
      vertex 17.9 0 20.7
      vertex 17.9 -2.5 20.7
      vertex 19.9 -2.5 20.3
    endloop
  endfacet
  facet normal 0.196116 -4.35465e-17 0.980581
    outer loop
      vertex 19.9 0 20.3
      vertex 17.9 0 20.7
      vertex 19.9 -2.5 20.3
    endloop
  endfacet
  facet normal 0.267644 -5.94289e-17 0.963518
    outer loop
      vertex 19.9 0 20.3
      vertex 19.9 -2.5 20.3
      vertex 21.7 -2.5 19.8
    endloop
  endfacet
  facet normal 0.267644 -5.94289e-17 0.963518
    outer loop
      vertex 21.6 0 19.8278
      vertex 19.9 0 20.3
      vertex 21.7 -2.5 19.8
    endloop
  endfacet
  facet normal 0.267644 -5.94289e-17 0.963518
    outer loop
      vertex 19.9 25 20.3
      vertex 19.9 15 20.3
      vertex 21.7 25 19.8
    endloop
  endfacet
  facet normal 0.267644 -5.94289e-17 0.963518
    outer loop
      vertex 21.7 25 19.8
      vertex 21.6 15 19.8278
      vertex 21.7 -2.5 19.8
    endloop
  endfacet
  facet normal 0.267644 -5.94289e-17 0.963518
    outer loop
      vertex 21.6 15 19.8278
      vertex 21.6 0 19.8278
      vertex 21.7 -2.5 19.8
    endloop
  endfacet
  facet normal 0.267644 -5.94289e-17 0.963518
    outer loop
      vertex 19.9 15 20.3
      vertex 21.6 15 19.8278
      vertex 21.7 25 19.8
    endloop
  endfacet
  facet normal 0.301131 -6.68646e-17 0.953583
    outer loop
      vertex 21.7 25 19.8
      vertex 21.7 -2.5 19.8
      vertex 23.6 -2.5 19.2
    endloop
  endfacet
  facet normal 0.301131 -6.68646e-17 0.953583
    outer loop
      vertex 23.6 25 19.2
      vertex 21.7 25 19.8
      vertex 23.6 -2.5 19.2
    endloop
  endfacet
  facet normal 0.953583 -2.11738e-16 0.301131
    outer loop
      vertex 23.6 25 19.2
      vertex 23.6 -2.5 19.2
      vertex 24.2 -2.5 17.3
    endloop
  endfacet
  facet normal 0.953583 -2.11738e-16 0.301131
    outer loop
      vertex 24.2 25 17.3
      vertex 23.6 25 19.2
      vertex 24.2 -2.5 17.3
    endloop
  endfacet
  facet normal 0.967075 -2.14734e-16 0.254493
    outer loop
      vertex 24.2 25 17.3
      vertex 24.2 -2.5 17.3
      vertex 24.7 -2.5 15.4
    endloop
  endfacet
  facet normal 0.967075 -2.14734e-16 0.254493
    outer loop
      vertex 24.7 25 15.4
      vertex 24.2 25 17.3
      vertex 24.7 -2.5 15.4
    endloop
  endfacet
  facet normal 0.97855 -2.17282e-16 0.20601
    outer loop
      vertex 24.7 25 15.4
      vertex 24.7 -2.5 15.4
      vertex 25.1 -2.5 13.5
    endloop
  endfacet
  facet normal 0.97855 -2.17282e-16 0.20601
    outer loop
      vertex 25.1 25 13.5
      vertex 24.7 25 15.4
      vertex 25.1 -2.5 13.5
    endloop
  endfacet
  facet normal 0.988936 -2.19588e-16 0.14834
    outer loop
      vertex 25.3645 0.163425 11.7366
      vertex 25.1 -2.5 13.5
      vertex 25.4 -2.5 11.5
    endloop
  endfacet
  facet normal 0.988936 -2.19588e-16 0.14834
    outer loop
      vertex 25.1075 4.3 13.45
      vertex 25.1743 6.5387 13.0047
      vertex 25.1 25 13.5
    endloop
  endfacet
  facet normal 0.988936 -2.19588e-16 0.14834
    outer loop
      vertex 25.1743 2.0613 13.0047
      vertex 25.1 -2.5 13.5
      vertex 25.3645 0.163425 11.7366
    endloop
  endfacet
  facet normal 0.988936 -2.19588e-16 0.14834
    outer loop
      vertex 25.1075 4.3 13.45
      vertex 25.1 -2.5 13.5
      vertex 25.1743 2.0613 13.0047
    endloop
  endfacet
  facet normal 0.988936 -2.19588e-16 0.14834
    outer loop
      vertex 25.1 25 13.5
      vertex 25.1 -2.5 13.5
      vertex 25.1075 4.3 13.45
    endloop
  endfacet
  facet normal 0.988936 -2.19588e-16 0.14834
    outer loop
      vertex 25.4 8.59465 11.5
      vertex 25.1 25 13.5
      vertex 25.3645 8.43657 11.7366
    endloop
  endfacet
  facet normal 0.988936 -2.19588e-16 0.14834
    outer loop
      vertex 25.4 25 11.5
      vertex 25.1 25 13.5
      vertex 25.4 8.59465 11.5
    endloop
  endfacet
  facet normal 0.988936 -2.19588e-16 0.14834
    outer loop
      vertex 25.4 0.00535075 11.5
      vertex 25.3645 0.163425 11.7366
      vertex 25.4 -2.5 11.5
    endloop
  endfacet
  facet normal 0.988936 -2.19588e-16 0.14834
    outer loop
      vertex 25.1743 6.5387 13.0047
      vertex 25.3645 8.43657 11.7366
      vertex 25.1 25 13.5
    endloop
  endfacet
  facet normal 0.998618 -2.21738e-16 0.0525588
    outer loop
      vertex 25.4 0.00535075 11.5
      vertex 25.4 -2.5 11.5
      vertex 25.5 -2.5 9.6
    endloop
  endfacet
  facet normal 0.998618 -2.21738e-16 0.0525588
    outer loop
      vertex 25.4874 -1.10469 9.8387
      vertex 25.4 0.00535075 11.5
      vertex 25.5 -2.5 9.6
    endloop
  endfacet
  facet normal 0.998618 -2.21738e-16 0.0525588
    outer loop
      vertex 25.5 -1.15218 9.6
      vertex 25.4874 -1.10469 9.8387
      vertex 25.5 -2.5 9.6
    endloop
  endfacet
  facet normal 0.998752 -2.21768e-16 0.0499376
    outer loop
      vertex 25.5 -1.15218 9.6
      vertex 25.5 -2.5 9.6
      vertex 25.6 -2.5 7.6
    endloop
  endfacet
  facet normal 0.998752 -2.21768e-16 0.0499376
    outer loop
      vertex 25.6 -1.55 7.6
      vertex 25.5 -1.15218 9.6
      vertex 25.6 -2.5 7.6
    endloop
  endfacet
  facet normal 0.998752 -2.21768e-16 -0.0499376
    outer loop
      vertex 25.6 -2.5 7.6
      vertex 25.5 -2.5 5.6
      vertex 25.5 -1.15218 5.6
    endloop
  endfacet
  facet normal 0.998752 -2.21768e-16 -0.0499376
    outer loop
      vertex 25.6 -1.55 7.6
      vertex 25.6 -2.5 7.6
      vertex 25.5 -1.15218 5.6
    endloop
  endfacet
  facet normal 0.998618 -2.21738e-16 -0.0525588
    outer loop
      vertex 25.5 -2.5 5.6
      vertex 25.4 -2.5 3.7
      vertex 25.4 0.00535075 3.7
    endloop
  endfacet
  facet normal 0.998618 -2.21738e-16 -0.0525588
    outer loop
      vertex 25.5 -1.15218 5.6
      vertex 25.5 -2.5 5.6
      vertex 25.4874 -1.10469 5.3613
    endloop
  endfacet
  facet normal 0.998618 -2.21738e-16 -0.0525588
    outer loop
      vertex 25.4874 -1.10469 5.3613
      vertex 25.5 -2.5 5.6
      vertex 25.4 0.00535075 3.7
    endloop
  endfacet
  facet normal 0.988936 -2.19588e-16 -0.14834
    outer loop
      vertex 25.1075 4.3 1.75
      vertex 25.1 -2.5 1.7
      vertex 25.1 25 1.7
    endloop
  endfacet
  facet normal 0.988936 -2.19588e-16 -0.14834
    outer loop
      vertex 25.4 25 3.7
      vertex 25.4 8.59465 3.7
      vertex 25.1 25 1.7
    endloop
  endfacet
  facet normal 0.988936 -2.19588e-16 -0.14834
    outer loop
      vertex 25.4 8.59465 3.7
      vertex 25.3645 8.43657 3.46342
      vertex 25.1 25 1.7
    endloop
  endfacet
  facet normal 0.988936 -2.19588e-16 -0.14834
    outer loop
      vertex 25.1743 6.5387 2.1953
      vertex 25.1075 4.3 1.75
      vertex 25.1 25 1.7
    endloop
  endfacet
  facet normal 0.988936 -2.19588e-16 -0.14834
    outer loop
      vertex 25.1743 2.0613 2.1953
      vertex 25.3645 0.163425 3.46342
      vertex 25.4 -2.5 3.7
    endloop
  endfacet
  facet normal 0.988936 -2.19588e-16 -0.14834
    outer loop
      vertex 25.3645 0.163425 3.46342
      vertex 25.4 0.00535075 3.7
      vertex 25.4 -2.5 3.7
    endloop
  endfacet
  facet normal 0.988936 -2.19588e-16 -0.14834
    outer loop
      vertex 25.4 -2.5 3.7
      vertex 25.1 -2.5 1.7
      vertex 25.1743 2.0613 2.1953
    endloop
  endfacet
  facet normal 0.988936 -2.19588e-16 -0.14834
    outer loop
      vertex 25.1075 4.3 1.75
      vertex 25.1743 2.0613 2.1953
      vertex 25.1 -2.5 1.7
    endloop
  endfacet
  facet normal 0.988936 -2.19588e-16 -0.14834
    outer loop
      vertex 25.3645 8.43657 3.46342
      vertex 25.1743 6.5387 2.1953
      vertex 25.1 25 1.7
    endloop
  endfacet
  facet normal 0.973417 -2.16142e-16 -0.229039
    outer loop
      vertex 25.1 -2.5 1.7
      vertex 24.7 -2.5 -4.95159e-15
      vertex 24.7 25 -4.95159e-15
    endloop
  endfacet
  facet normal 0.973417 -2.16142e-16 -0.229039
    outer loop
      vertex 25.1 25 1.7
      vertex 25.1 -2.5 1.7
      vertex 24.7 25 -4.95159e-15
    endloop
  endfacet
  facet normal -2.22045e-16 4.93038e-32 -1
    outer loop
      vertex -0.6 -2.5 6.66134e-16
      vertex -0.6 25 6.66134e-16
      vertex 2.5 0 -2.22045e-17
    endloop
  endfacet
  facet normal -2.22045e-16 4.93038e-32 -1
    outer loop
      vertex -0.6 -2.5 6.66134e-16
      vertex 2.5 0 -2.22045e-17
      vertex 24.7 -2.5 -4.95159e-15
    endloop
  endfacet
  facet normal -2.22045e-16 4.93038e-32 -1
    outer loop
      vertex 21.6 25 -4.26326e-15
      vertex 24.7 -2.5 -4.95159e-15
      vertex 21.6 0 -4.26326e-15
    endloop
  endfacet
  facet normal -2.22045e-16 4.93038e-32 -1
    outer loop
      vertex 2.5 0 -2.22045e-17
      vertex 21.6 0 -4.26326e-15
      vertex 24.7 -2.5 -4.95159e-15
    endloop
  endfacet
  facet normal -2.22045e-16 4.93038e-32 -1
    outer loop
      vertex 24.7 -2.5 -4.95159e-15
      vertex 21.6 25 -4.26326e-15
      vertex 24.7 25 -4.95159e-15
    endloop
  endfacet
  facet normal -2.22045e-16 4.93038e-32 -1
    outer loop
      vertex 2.5 0 -2.22045e-17
      vertex -0.6 25 6.66134e-16
      vertex 2.5 25 -2.22045e-17
    endloop
  endfacet
  facet normal -0.984784 2.18666e-16 -0.173785
    outer loop
      vertex -0.9 -2.5 1.7
      vertex -0.9 25 1.7
      vertex -0.6 -2.5 6.66134e-16
    endloop
  endfacet
  facet normal -0.984784 2.18666e-16 -0.173785
    outer loop
      vertex -0.6 -2.5 6.66134e-16
      vertex -0.9 25 1.7
      vertex -0.6 25 6.66134e-16
    endloop
  endfacet
  facet normal -0.988936 2.19588e-16 -0.14834
    outer loop
      vertex -1.2 -2.5 3.7
      vertex -1.2 0.701666 3.7
      vertex -0.9 -2.5 1.7
    endloop
  endfacet
  facet normal -0.988936 2.19588e-16 -0.14834
    outer loop
      vertex -0.9 -2.5 1.7
      vertex -1.2 0.701666 3.7
      vertex -1.02506 1.375 2.53375
    endloop
  endfacet
  facet normal -0.988936 2.19588e-16 -0.14834
    outer loop
      vertex -0.9 -2.5 1.7
      vertex -1.02506 1.375 2.53375
      vertex -1.02506 7.225 2.53375
    endloop
  endfacet
  facet normal -0.988936 2.19588e-16 -0.14834
    outer loop
      vertex -1.02506 7.225 2.53375
      vertex -1.2 7.89833 3.7
      vertex -1.2 25 3.7
    endloop
  endfacet
  facet normal -0.988936 2.19588e-16 -0.14834
    outer loop
      vertex -1.02506 7.225 2.53375
      vertex -1.2 25 3.7
      vertex -0.9 -2.5 1.7
    endloop
  endfacet
  facet normal -0.988936 2.19588e-16 -0.14834
    outer loop
      vertex -0.9 -2.5 1.7
      vertex -1.2 25 3.7
      vertex -0.9 25 1.7
    endloop
  endfacet
  facet normal -2.22045e-16 4.93038e-32 1
    outer loop
      vertex 0.55 1.375 2.53375
      vertex 0.55 7.225 2.53375
      vertex -1.02506 7.225 2.53375
    endloop
  endfacet
  facet normal -2.22045e-16 4.93038e-32 1
    outer loop
      vertex -1.02506 1.375 2.53375
      vertex 0.55 1.375 2.53375
      vertex -1.02506 7.225 2.53375
    endloop
  endfacet
  facet normal -1 2.22045e-16 -2.22045e-16
    outer loop
      vertex 0.55 10.15 7.6
      vertex 0.55 7.225 2.53375
      vertex 0.55 7.225 12.6662
    endloop
  endfacet
  facet normal -1 2.22045e-16 -2.22045e-16
    outer loop
      vertex 0.55 5.425 5.65144
      vertex 0.55 7.225 2.53375
      vertex 0.55 1.375 2.53375
    endloop
  endfacet
  facet normal -1 2.22045e-16 -2.22045e-16
    outer loop
      vertex 0.55 2.05 7.6
      vertex 0.55 1.375 2.53375
      vertex 0.55 -1.55 7.6
    endloop
  endfacet
  facet normal -1 2.22045e-16 -2.22045e-16
    outer loop
      vertex 0.55 7.225 12.6662
      vertex 0.55 -1.55 7.6
      vertex 0.55 1.375 12.6662
    endloop
  endfacet
  facet normal -1 2.22045e-16 -2.22045e-16
    outer loop
      vertex 0.55 3.175 5.65144
      vertex 0.55 1.375 2.53375
      vertex 0.55 2.05 7.6
    endloop
  endfacet
  facet normal -1 2.22045e-16 -2.22045e-16
    outer loop
      vertex 0.55 3.175 9.54856
      vertex 0.55 2.05 7.6
      vertex 0.55 -1.55 7.6
    endloop
  endfacet
  facet normal -1 2.22045e-16 -2.22045e-16
    outer loop
      vertex 0.55 6.55 7.6
      vertex 0.55 7.225 2.53375
      vertex 0.55 5.425 5.65144
    endloop
  endfacet
  facet normal -1 2.22045e-16 -2.22045e-16
    outer loop
      vertex 0.55 5.425 9.54856
      vertex 0.55 7.225 12.6662
      vertex 0.55 6.55 7.6
    endloop
  endfacet
  facet normal -1 2.22045e-16 -2.22045e-16
    outer loop
      vertex 0.55 7.225 12.6662
      vertex 0.55 7.225 2.53375
      vertex 0.55 6.55 7.6
    endloop
  endfacet
  facet normal -1 2.22045e-16 -2.22045e-16
    outer loop
      vertex 0.55 3.175 9.54856
      vertex 0.55 7.225 12.6662
      vertex 0.55 5.425 9.54856
    endloop
  endfacet
  facet normal -1 2.22045e-16 -2.22045e-16
    outer loop
      vertex 0.55 7.225 12.6662
      vertex 0.55 3.175 9.54856
      vertex 0.55 -1.55 7.6
    endloop
  endfacet
  facet normal -1 2.22045e-16 -2.22045e-16
    outer loop
      vertex 0.55 5.425 5.65144
      vertex 0.55 1.375 2.53375
      vertex 0.55 3.175 5.65144
    endloop
  endfacet
  facet normal 2.22045e-16 -4.93038e-32 -1
    outer loop
      vertex 0.55 7.225 12.6662
      vertex 0.55 1.375 12.6662
      vertex -1.02506 7.225 12.6662
    endloop
  endfacet
  facet normal 2.22045e-16 -4.93038e-32 -1
    outer loop
      vertex -1.02506 7.225 12.6662
      vertex 0.55 1.375 12.6662
      vertex -1.02506 1.375 12.6662
    endloop
  endfacet
  facet normal -8.1274e-17 -0.866025 -0.5
    outer loop
      vertex 0.55 10.15 7.6
      vertex 0.55 7.225 12.6662
      vertex -1.02506 7.225 12.6662
    endloop
  endfacet
  facet normal -8.1274e-17 -0.866025 -0.5
    outer loop
      vertex -1.4 8.9953 9.6
      vertex 0.55 10.15 7.6
      vertex -1.2 7.89833 11.5
    endloop
  endfacet
  facet normal -8.1274e-17 -0.866025 -0.5
    outer loop
      vertex -1.2 7.89833 11.5
      vertex 0.55 10.15 7.6
      vertex -1.02506 7.225 12.6662
    endloop
  endfacet
  facet normal -8.1274e-17 -0.866025 -0.5
    outer loop
      vertex -1.4 10.15 7.6
      vertex 0.55 10.15 7.6
      vertex -1.4 8.9953 9.6
    endloop
  endfacet
  facet normal -0.994505 2.20825e-16 0.104685
    outer loop
      vertex -1.4 8.9953 9.6
      vertex -1.2 7.89833 11.5
      vertex -1.4 25 9.6
    endloop
  endfacet
  facet normal -0.994505 2.20825e-16 0.104685
    outer loop
      vertex -1.4 25 9.6
      vertex -1.2 7.89833 11.5
      vertex -1.2 25 11.5
    endloop
  endfacet
  facet normal 2.22045e-16 1 -4.93038e-32
    outer loop
      vertex -1.4 25 5.6
      vertex -1.4 25 9.6
      vertex -1.2 25 3.7
    endloop
  endfacet
  facet normal 2.22045e-16 1 -4.93038e-32
    outer loop
      vertex -1.2 25 3.7
      vertex -1.4 25 9.6
      vertex -1.2 25 11.5
    endloop
  endfacet
  facet normal 2.22045e-16 1 -4.93038e-32
    outer loop
      vertex -1.2 25 3.7
      vertex -1.2 25 11.5
      vertex -0.9 25 13.5
    endloop
  endfacet
  facet normal 2.22045e-16 1 -4.93038e-32
    outer loop
      vertex -1.2 25 3.7
      vertex -0.9 25 13.5
      vertex -0.5 25 15.4
    endloop
  endfacet
  facet normal 2.22045e-16 1 -4.93038e-32
    outer loop
      vertex -1.2 25 3.7
      vertex -0.5 25 15.4
      vertex 3.84137e-15 25 17.3
    endloop
  endfacet
  facet normal 2.22045e-16 1 -4.93038e-32
    outer loop
      vertex -1.2 25 3.7
      vertex 3.84137e-15 25 17.3
      vertex 0.6 25 19.2
    endloop
  endfacet
  facet normal 2.22045e-16 1 -4.93038e-32
    outer loop
      vertex -1.2 25 3.7
      vertex 0.6 25 19.2
      vertex 2.41 25 19.8
    endloop
  endfacet
  facet normal 2.22045e-16 1 -4.93038e-32
    outer loop
      vertex 2.5 25 16.6
      vertex 2.41 25 19.8
      vertex 4.3 25 20.3
    endloop
  endfacet
  facet normal 2.22045e-16 1 -4.93038e-32
    outer loop
      vertex 21.6 25 16.6
      vertex 23.6 25 19.2
      vertex 24.2 25 17.3
    endloop
  endfacet
  facet normal 2.22045e-16 1 -4.93038e-32
    outer loop
      vertex 2.5 25 16.6
      vertex 5.9 25 20.7
      vertex 8.2 25 21
    endloop
  endfacet
  facet normal 2.22045e-16 1 -4.93038e-32
    outer loop
      vertex 2.5 25 16.6
      vertex 8.2 25 21
      vertex 10.1 25 21.1
    endloop
  endfacet
  facet normal 2.22045e-16 1 -4.93038e-32
    outer loop
      vertex 2.5 25 16.6
      vertex 10.1 25 21.1
      vertex 12 25 21.2
    endloop
  endfacet
  facet normal 2.22045e-16 1 -4.93038e-32
    outer loop
      vertex 2.5 25 16.6
      vertex 12 25 21.2
      vertex 14.1 25 21.1
    endloop
  endfacet
  facet normal 2.22045e-16 1 -4.93038e-32
    outer loop
      vertex 2.5 25 16.6
      vertex 14.1 25 21.1
      vertex 16 25 21
    endloop
  endfacet
  facet normal 2.22045e-16 1 -4.93038e-32
    outer loop
      vertex 2.5 25 16.6
      vertex 16 25 21
      vertex 17.9 25 20.7
    endloop
  endfacet
  facet normal 2.22045e-16 1 -4.93038e-32
    outer loop
      vertex 2.5 25 16.6
      vertex 17.9 25 20.7
      vertex 19.9 25 20.3
    endloop
  endfacet
  facet normal 2.22045e-16 1 -4.93038e-32
    outer loop
      vertex 2.5 25 16.6
      vertex 19.9 25 20.3
      vertex 21.7 25 19.8
    endloop
  endfacet
  facet normal 2.22045e-16 1 -4.93038e-32
    outer loop
      vertex 2.5 25 16.6
      vertex 21.7 25 19.8
      vertex 23.6 25 19.2
    endloop
  endfacet
  facet normal 2.22045e-16 1 -4.93038e-32
    outer loop
      vertex 2.5 25 16.6
      vertex 23.6 25 19.2
      vertex 21.6 25 16.6
    endloop
  endfacet
  facet normal 2.22045e-16 1 -4.93038e-32
    outer loop
      vertex 2.5 25 16.6
      vertex 4.3 25 20.3
      vertex 5.9 25 20.7
    endloop
  endfacet
  facet normal 2.22045e-16 1 -4.93038e-32
    outer loop
      vertex -1.2 25 3.7
      vertex 2.41 25 19.8
      vertex 2.5 25 16.6
    endloop
  endfacet
  facet normal 2.22045e-16 1 -4.93038e-32
    outer loop
      vertex 2.5 25 -2.22045e-17
      vertex -1.2 25 3.7
      vertex 2.5 25 16.6
    endloop
  endfacet
  facet normal 2.22045e-16 1 -4.93038e-32
    outer loop
      vertex -1.2 25 3.7
      vertex 2.5 25 -2.22045e-17
      vertex -0.6 25 6.66134e-16
    endloop
  endfacet
  facet normal 2.22045e-16 1 -4.93038e-32
    outer loop
      vertex -1.2 25 3.7
      vertex -0.6 25 6.66134e-16
      vertex -0.9 25 1.7
    endloop
  endfacet
  facet normal 2.22045e-16 1 -4.93038e-32
    outer loop
      vertex 21.6 25 16.6
      vertex 24.2 25 17.3
      vertex 24.7 25 15.4
    endloop
  endfacet
  facet normal 2.22045e-16 1 -4.93038e-32
    outer loop
      vertex 21.6 25 16.6
      vertex 24.7 25 15.4
      vertex 25.1 25 13.5
    endloop
  endfacet
  facet normal 2.22045e-16 1 -4.93038e-32
    outer loop
      vertex 21.6 25 16.6
      vertex 25.1 25 13.5
      vertex 25.4 25 11.5
    endloop
  endfacet
  facet normal 2.22045e-16 1 -4.93038e-32
    outer loop
      vertex 21.6 25 16.6
      vertex 25.4 25 11.5
      vertex 25.5 25 9.6
    endloop
  endfacet
  facet normal 2.22045e-16 1 -4.93038e-32
    outer loop
      vertex 21.6 25 16.6
      vertex 25.5 25 9.6
      vertex 25.6 25 7.6
    endloop
  endfacet
  facet normal 2.22045e-16 1 -4.93038e-32
    outer loop
      vertex 21.6 25 16.6
      vertex 25.6 25 7.6
      vertex 25.5 25 5.6
    endloop
  endfacet
  facet normal 2.22045e-16 1 -4.93038e-32
    outer loop
      vertex 21.6 25 16.6
      vertex 25.5 25 5.6
      vertex 25.4 25 3.7
    endloop
  endfacet
  facet normal 2.22045e-16 1 -4.93038e-32
    outer loop
      vertex 21.6 25 16.6
      vertex 25.4 25 3.7
      vertex 25.1 25 1.7
    endloop
  endfacet
  facet normal 2.22045e-16 1 -4.93038e-32
    outer loop
      vertex 21.6 25 16.6
      vertex 25.1 25 1.7
      vertex 24.7 25 -4.95159e-15
    endloop
  endfacet
  facet normal 2.22045e-16 1 -4.93038e-32
    outer loop
      vertex 21.6 25 16.6
      vertex 24.7 25 -4.95159e-15
      vertex 21.6 25 -4.26326e-15
    endloop
  endfacet
  facet normal -0.242536 5.38537e-17 0.970143
    outer loop
      vertex 4.3 25 20.3
      vertex 4.3 15 20.3
      vertex 5.9 15 20.7
    endloop
  endfacet
  facet normal -0.242536 5.38537e-17 0.970143
    outer loop
      vertex 5.9 25 20.7
      vertex 4.3 25 20.3
      vertex 5.9 15 20.7
    endloop
  endfacet
  facet normal 0 -1 0
    outer loop
      vertex 21.6 15 16.6
      vertex 21.6 15 19.8278
      vertex 19.9 15 20.3
    endloop
  endfacet
  facet normal 0 -1 0
    outer loop
      vertex 16 15 21
      vertex 21.6 15 16.6
      vertex 17.9 15 20.7
    endloop
  endfacet
  facet normal 0 -1 0
    outer loop
      vertex 17.9 15 20.7
      vertex 21.6 15 16.6
      vertex 19.9 15 20.3
    endloop
  endfacet
  facet normal 0 -1 0
    outer loop
      vertex 14.1 15 21.1
      vertex 21.6 15 16.6
      vertex 16 15 21
    endloop
  endfacet
  facet normal 0 -1 0
    outer loop
      vertex 12 15 21.2
      vertex 21.6 15 16.6
      vertex 14.1 15 21.1
    endloop
  endfacet
  facet normal 0 -1 0
    outer loop
      vertex 10.1 15 21.1
      vertex 21.6 15 16.6
      vertex 12 15 21.2
    endloop
  endfacet
  facet normal 0 -1 0
    outer loop
      vertex 8.2 15 21
      vertex 21.6 15 16.6
      vertex 10.1 15 21.1
    endloop
  endfacet
  facet normal 0 -1 0
    outer loop
      vertex 5.9 15 20.7
      vertex 21.6 15 16.6
      vertex 8.2 15 21
    endloop
  endfacet
  facet normal 0 -1 0
    outer loop
      vertex 4.3 15 20.3
      vertex 21.6 15 16.6
      vertex 5.9 15 20.7
    endloop
  endfacet
  facet normal 0 -1 0
    outer loop
      vertex 2.5 15 19.8238
      vertex 21.6 15 16.6
      vertex 4.3 15 20.3
    endloop
  endfacet
  facet normal 0 -1 0
    outer loop
      vertex 2.5 15 16.6
      vertex 21.6 15 16.6
      vertex 2.5 15 19.8238
    endloop
  endfacet
  facet normal 1 0 0
    outer loop
      vertex 2.5 25 -2.22045e-17
      vertex 2.5 25 16.6
      vertex 2.5 15 16.6
    endloop
  endfacet
  facet normal 1 0 0
    outer loop
      vertex 2.5 0 19.8238
      vertex 2.5 25 -2.22045e-17
      vertex 2.5 15 16.6
    endloop
  endfacet
  facet normal 1 0 0
    outer loop
      vertex 2.5 15 19.8238
      vertex 2.5 0 19.8238
      vertex 2.5 15 16.6
    endloop
  endfacet
  facet normal 1 0 0
    outer loop
      vertex 2.5 5.425 5.65144
      vertex 2.5 0 -2.22045e-17
      vertex 2.5 25 -2.22045e-17
    endloop
  endfacet
  facet normal 1 0 0
    outer loop
      vertex 2.5 5.425 5.65144
      vertex 2.5 3.175 5.65144
      vertex 2.5 0 -2.22045e-17
    endloop
  endfacet
  facet normal 1 0 0
    outer loop
      vertex 2.5 0 19.8238
      vertex 2.5 5.425 9.54856
      vertex 2.5 25 -2.22045e-17
    endloop
  endfacet
  facet normal 1 0 0
    outer loop
      vertex 2.5 0 19.8238
      vertex 2.5 3.175 9.54856
      vertex 2.5 5.425 9.54856
    endloop
  endfacet
  facet normal 1 0 0
    outer loop
      vertex 2.5 6.55 7.6
      vertex 2.5 5.425 5.65144
      vertex 2.5 25 -2.22045e-17
    endloop
  endfacet
  facet normal 1 0 0
    outer loop
      vertex 2.5 3.175 5.65144
      vertex 2.5 2.05 7.6
      vertex 2.5 0 -2.22045e-17
    endloop
  endfacet
  facet normal 1 0 0
    outer loop
      vertex 2.5 0 19.8238
      vertex 2.5 2.05 7.6
      vertex 2.5 3.175 9.54856
    endloop
  endfacet
  facet normal 1 0 0
    outer loop
      vertex 2.5 0 19.8238
      vertex 2.5 0 -2.22045e-17
      vertex 2.5 2.05 7.6
    endloop
  endfacet
  facet normal 1 0 0
    outer loop
      vertex 2.5 5.425 9.54856
      vertex 2.5 6.55 7.6
      vertex 2.5 25 -2.22045e-17
    endloop
  endfacet
  facet normal 0 1 0
    outer loop
      vertex 4.3 0 20.3
      vertex 5.9 0 20.7
      vertex 2.5 0 19.8238
    endloop
  endfacet
  facet normal 0 1 0
    outer loop
      vertex 2.5 0 19.8238
      vertex 5.9 0 20.7
      vertex 8.2 0 21
    endloop
  endfacet
  facet normal 0 1 0
    outer loop
      vertex 2.5 0 19.8238
      vertex 8.2 0 21
      vertex 10.1 0 21.1
    endloop
  endfacet
  facet normal 0 1 0
    outer loop
      vertex 2.5 0 19.8238
      vertex 10.1 0 21.1
      vertex 12 0 21.2
    endloop
  endfacet
  facet normal 0 1 0
    outer loop
      vertex 2.5 0 19.8238
      vertex 12 0 21.2
      vertex 14.1 0 21.1
    endloop
  endfacet
  facet normal 0 1 0
    outer loop
      vertex 2.5 0 19.8238
      vertex 14.1 0 21.1
      vertex 16 0 21
    endloop
  endfacet
  facet normal 0 1 0
    outer loop
      vertex 2.5 0 19.8238
      vertex 16 0 21
      vertex 17.9 0 20.7
    endloop
  endfacet
  facet normal 0 1 0
    outer loop
      vertex 2.5 0 19.8238
      vertex 17.9 0 20.7
      vertex 19.9 0 20.3
    endloop
  endfacet
  facet normal 0 1 0
    outer loop
      vertex 2.5 0 19.8238
      vertex 19.9 0 20.3
      vertex 21.6 0 19.8278
    endloop
  endfacet
  facet normal 0 1 0
    outer loop
      vertex 19.8 0 15.5
      vertex 21.6 0 19.8278
      vertex 21.6 0 -4.26326e-15
    endloop
  endfacet
  facet normal 0 1 0
    outer loop
      vertex 4.3 0 0
      vertex 21.6 0 -4.26326e-15
      vertex 2.5 0 -2.22045e-17
    endloop
  endfacet
  facet normal 0 1 0
    outer loop
      vertex 19.8 0 0
      vertex 21.6 0 -4.26326e-15
      vertex 4.3 0 0
    endloop
  endfacet
  facet normal 0 1 0
    outer loop
      vertex 2.5 0 19.8238
      vertex 4.3 0 0
      vertex 2.5 0 -2.22045e-17
    endloop
  endfacet
  facet normal 0 1 0
    outer loop
      vertex 2.5 0 19.8238
      vertex 21.6 0 19.8278
      vertex 19.8 0 15.5
    endloop
  endfacet
  facet normal 0 1 0
    outer loop
      vertex 4.3 0 15.5
      vertex 2.5 0 19.8238
      vertex 19.8 0 15.5
    endloop
  endfacet
  facet normal 0 1 0
    outer loop
      vertex 2.5 0 19.8238
      vertex 4.3 0 15.5
      vertex 4.3 0 0
    endloop
  endfacet
  facet normal 0 1 0
    outer loop
      vertex 19.8 0 15.5
      vertex 21.6 0 -4.26326e-15
      vertex 19.8 0 0
    endloop
  endfacet
  facet normal -1 0 0
    outer loop
      vertex 21.6 15 19.8278
      vertex 21.6 15 16.6
      vertex 21.6 0 19.8278
    endloop
  endfacet
  facet normal -1 0 0
    outer loop
      vertex 21.6 25 -4.26326e-15
      vertex 21.6 15 16.6
      vertex 21.6 25 16.6
    endloop
  endfacet
  facet normal -1 0 0
    outer loop
      vertex 21.6 0 19.8278
      vertex 21.6 15 16.6
      vertex 21.6 25 -4.26326e-15
    endloop
  endfacet
  facet normal -1 0 0
    outer loop
      vertex 21.6 3.175 5.65144
      vertex 21.6 25 -4.26326e-15
      vertex 21.6 0 -4.26326e-15
    endloop
  endfacet
  facet normal -1 0 0
    outer loop
      vertex 21.6 0 19.8278
      vertex 21.6 2.05 7.6
      vertex 21.6 0 -4.26326e-15
    endloop
  endfacet
  facet normal -1 0 0
    outer loop
      vertex 21.6 5.425 5.65144
      vertex 21.6 25 -4.26326e-15
      vertex 21.6 3.175 5.65144
    endloop
  endfacet
  facet normal -1 0 0
    outer loop
      vertex 21.6 2.05 7.6
      vertex 21.6 3.175 5.65144
      vertex 21.6 0 -4.26326e-15
    endloop
  endfacet
  facet normal -1 0 0
    outer loop
      vertex 21.6 0 19.8278
      vertex 21.6 25 -4.26326e-15
      vertex 21.6 6.55 7.6
    endloop
  endfacet
  facet normal -1 0 0
    outer loop
      vertex 21.6 0 19.8278
      vertex 21.6 6.55 7.6
      vertex 21.6 5.425 9.54856
    endloop
  endfacet
  facet normal -1 0 0
    outer loop
      vertex 21.6 0 19.8278
      vertex 21.6 5.425 9.54856
      vertex 21.6 3.175 9.54856
    endloop
  endfacet
  facet normal -1 0 0
    outer loop
      vertex 21.6 0 19.8278
      vertex 21.6 3.175 9.54856
      vertex 21.6 2.05 7.6
    endloop
  endfacet
  facet normal -1 0 0
    outer loop
      vertex 21.6 6.55 7.6
      vertex 21.6 25 -4.26326e-15
      vertex 21.6 5.425 5.65144
    endloop
  endfacet
  facet normal 0.196116 -4.35465e-17 0.980581
    outer loop
      vertex 17.9 25 20.7
      vertex 17.9 15 20.7
      vertex 19.9 15 20.3
    endloop
  endfacet
  facet normal 0.196116 -4.35465e-17 0.980581
    outer loop
      vertex 19.9 25 20.3
      vertex 17.9 25 20.7
      vertex 19.9 15 20.3
    endloop
  endfacet
  facet normal 0.998618 -2.21738e-16 0.0525588
    outer loop
      vertex 25.4 25 11.5
      vertex 25.4 8.59465 11.5
      vertex 25.4874 9.70469 9.8387
    endloop
  endfacet
  facet normal 0.998618 -2.21738e-16 0.0525588
    outer loop
      vertex 25.5 9.75218 9.6
      vertex 25.4 25 11.5
      vertex 25.4874 9.70469 9.8387
    endloop
  endfacet
  facet normal 0.998618 -2.21738e-16 0.0525588
    outer loop
      vertex 25.5 9.75218 9.6
      vertex 25.5 25 9.6
      vertex 25.4 25 11.5
    endloop
  endfacet
  facet normal 1.23361e-16 -0.83147 -0.55557
    outer loop
      vertex 23.5 9.70469 9.8387
      vertex 25.4874 9.70469 9.8387
      vertex 25.4 8.59465 11.5
    endloop
  endfacet
  facet normal 1.23361e-16 -0.83147 -0.55557
    outer loop
      vertex 23.5 8.43657 11.7366
      vertex 23.5 9.70469 9.8387
      vertex 25.3645 8.43657 11.7366
    endloop
  endfacet
  facet normal 1.23361e-16 -0.83147 -0.55557
    outer loop
      vertex 25.3645 8.43657 11.7366
      vertex 23.5 9.70469 9.8387
      vertex 25.4 8.59465 11.5
    endloop
  endfacet
  facet normal 1.84623e-16 -0.55557 -0.83147
    outer loop
      vertex 25.3645 8.43657 11.7366
      vertex 25.1743 6.5387 13.0047
      vertex 23.5 8.43657 11.7366
    endloop
  endfacet
  facet normal 1.84623e-16 -0.55557 -0.83147
    outer loop
      vertex 23.5 8.43657 11.7366
      vertex 25.1743 6.5387 13.0047
      vertex 23.5 6.5387 13.0047
    endloop
  endfacet
  facet normal 2.17778e-16 -0.19509 -0.980785
    outer loop
      vertex 25.1743 6.5387 13.0047
      vertex 25.1075 4.3 13.45
      vertex 23.5 6.5387 13.0047
    endloop
  endfacet
  facet normal 2.17778e-16 -0.19509 -0.980785
    outer loop
      vertex 23.5 6.5387 13.0047
      vertex 25.1075 4.3 13.45
      vertex 23.5 4.3 13.45
    endloop
  endfacet
  facet normal 2.17778e-16 0.19509 -0.980785
    outer loop
      vertex 25.1743 2.0613 13.0047
      vertex 23.5 2.0613 13.0047
      vertex 25.1075 4.3 13.45
    endloop
  endfacet
  facet normal 2.17778e-16 0.19509 -0.980785
    outer loop
      vertex 25.1075 4.3 13.45
      vertex 23.5 2.0613 13.0047
      vertex 23.5 4.3 13.45
    endloop
  endfacet
  facet normal 1.84623e-16 0.55557 -0.83147
    outer loop
      vertex 25.3645 0.163425 11.7366
      vertex 23.5 0.163425 11.7366
      vertex 25.1743 2.0613 13.0047
    endloop
  endfacet
  facet normal 1.84623e-16 0.55557 -0.83147
    outer loop
      vertex 25.1743 2.0613 13.0047
      vertex 23.5 0.163425 11.7366
      vertex 23.5 2.0613 13.0047
    endloop
  endfacet
  facet normal 1.23361e-16 0.83147 -0.55557
    outer loop
      vertex 25.4 0.00535075 11.5
      vertex 25.4874 -1.10469 9.8387
      vertex 25.3645 0.163425 11.7366
    endloop
  endfacet
  facet normal 1.23361e-16 0.83147 -0.55557
    outer loop
      vertex 25.3645 0.163425 11.7366
      vertex 25.4874 -1.10469 9.8387
      vertex 23.5 -1.10469 9.8387
    endloop
  endfacet
  facet normal 1.23361e-16 0.83147 -0.55557
    outer loop
      vertex 25.3645 0.163425 11.7366
      vertex 23.5 -1.10469 9.8387
      vertex 23.5 0.163425 11.7366
    endloop
  endfacet
  facet normal 4.33188e-17 0.980785 -0.19509
    outer loop
      vertex 25.5 -1.15218 9.6
      vertex 25.6 -1.55 7.6
      vertex 25.4874 -1.10469 9.8387
    endloop
  endfacet
  facet normal 4.33188e-17 0.980785 -0.19509
    outer loop
      vertex 25.4874 -1.10469 9.8387
      vertex 25.6 -1.55 7.6
      vertex 23.5 -1.55 7.6
    endloop
  endfacet
  facet normal 4.33188e-17 0.980785 -0.19509
    outer loop
      vertex 25.4874 -1.10469 9.8387
      vertex 23.5 -1.55 7.6
      vertex 23.5 -1.10469 9.8387
    endloop
  endfacet
  facet normal -4.33188e-17 0.980785 0.19509
    outer loop
      vertex 25.6 -1.55 7.6
      vertex 25.5 -1.15218 5.6
      vertex 25.4874 -1.10469 5.3613
    endloop
  endfacet
  facet normal -4.33188e-17 0.980785 0.19509
    outer loop
      vertex 25.6 -1.55 7.6
      vertex 25.4874 -1.10469 5.3613
      vertex 23.5 -1.10469 5.3613
    endloop
  endfacet
  facet normal -4.33188e-17 0.980785 0.19509
    outer loop
      vertex 25.6 -1.55 7.6
      vertex 23.5 -1.10469 5.3613
      vertex 23.5 -1.55 7.6
    endloop
  endfacet
  facet normal -1.23361e-16 0.83147 0.55557
    outer loop
      vertex 25.4 0.00535075 3.7
      vertex 25.3645 0.163425 3.46342
      vertex 25.4874 -1.10469 5.3613
    endloop
  endfacet
  facet normal -1.23361e-16 0.83147 0.55557
    outer loop
      vertex 25.4874 -1.10469 5.3613
      vertex 25.3645 0.163425 3.46342
      vertex 23.5 0.163425 3.46342
    endloop
  endfacet
  facet normal -1.23361e-16 0.83147 0.55557
    outer loop
      vertex 25.4874 -1.10469 5.3613
      vertex 23.5 0.163425 3.46342
      vertex 23.5 -1.10469 5.3613
    endloop
  endfacet
  facet normal -1.84623e-16 0.55557 0.83147
    outer loop
      vertex 25.3645 0.163425 3.46342
      vertex 25.1743 2.0613 2.1953
      vertex 23.5 2.0613 2.1953
    endloop
  endfacet
  facet normal -1.84623e-16 0.55557 0.83147
    outer loop
      vertex 23.5 0.163425 3.46342
      vertex 25.3645 0.163425 3.46342
      vertex 23.5 2.0613 2.1953
    endloop
  endfacet
  facet normal -2.17778e-16 0.19509 0.980785
    outer loop
      vertex 25.1743 2.0613 2.1953
      vertex 25.1075 4.3 1.75
      vertex 23.5 4.3 1.75
    endloop
  endfacet
  facet normal -2.17778e-16 0.19509 0.980785
    outer loop
      vertex 23.5 2.0613 2.1953
      vertex 25.1743 2.0613 2.1953
      vertex 23.5 4.3 1.75
    endloop
  endfacet
  facet normal -2.17778e-16 -0.19509 0.980785
    outer loop
      vertex 23.5 4.3 1.75
      vertex 25.1075 4.3 1.75
      vertex 25.1743 6.5387 2.1953
    endloop
  endfacet
  facet normal -2.17778e-16 -0.19509 0.980785
    outer loop
      vertex 23.5 6.5387 2.1953
      vertex 23.5 4.3 1.75
      vertex 25.1743 6.5387 2.1953
    endloop
  endfacet
  facet normal -1.84623e-16 -0.55557 0.83147
    outer loop
      vertex 23.5 6.5387 2.1953
      vertex 25.1743 6.5387 2.1953
      vertex 25.3645 8.43657 3.46342
    endloop
  endfacet
  facet normal -1.84623e-16 -0.55557 0.83147
    outer loop
      vertex 23.5 8.43657 3.46342
      vertex 23.5 6.5387 2.1953
      vertex 25.3645 8.43657 3.46342
    endloop
  endfacet
  facet normal -1.23361e-16 -0.83147 0.55557
    outer loop
      vertex 23.5 8.43657 3.46342
      vertex 25.3645 8.43657 3.46342
      vertex 25.4 8.59465 3.7
    endloop
  endfacet
  facet normal -1.23361e-16 -0.83147 0.55557
    outer loop
      vertex 23.5 9.70469 5.3613
      vertex 23.5 8.43657 3.46342
      vertex 25.4874 9.70469 5.3613
    endloop
  endfacet
  facet normal -1.23361e-16 -0.83147 0.55557
    outer loop
      vertex 25.4874 9.70469 5.3613
      vertex 23.5 8.43657 3.46342
      vertex 25.4 8.59465 3.7
    endloop
  endfacet
  facet normal 0.998618 -2.21738e-16 -0.0525588
    outer loop
      vertex 25.4874 9.70469 5.3613
      vertex 25.4 8.59465 3.7
      vertex 25.4 25 3.7
    endloop
  endfacet
  facet normal 0.998618 -2.21738e-16 -0.0525588
    outer loop
      vertex 25.5 9.75218 5.6
      vertex 25.4874 9.70469 5.3613
      vertex 25.5 25 5.6
    endloop
  endfacet
  facet normal 0.998618 -2.21738e-16 -0.0525588
    outer loop
      vertex 25.5 25 5.6
      vertex 25.4874 9.70469 5.3613
      vertex 25.4 25 3.7
    endloop
  endfacet
  facet normal -0.994505 2.20825e-16 -0.104685
    outer loop
      vertex -1.4 8.9953 5.6
      vertex -1.4 25 5.6
      vertex -1.2 7.89833 3.7
    endloop
  endfacet
  facet normal -0.994505 2.20825e-16 -0.104685
    outer loop
      vertex -1.2 7.89833 3.7
      vertex -1.4 25 5.6
      vertex -1.2 25 3.7
    endloop
  endfacet
  facet normal -3.03319e-16 -0.866025 0.5
    outer loop
      vertex -1.2 7.89833 3.7
      vertex -1.02506 7.225 2.53375
      vertex 0.55 7.225 2.53375
    endloop
  endfacet
  facet normal -3.03319e-16 -0.866025 0.5
    outer loop
      vertex -1.4 10.15 7.6
      vertex -1.2 7.89833 3.7
      vertex 0.55 10.15 7.6
    endloop
  endfacet
  facet normal -3.03319e-16 -0.866025 0.5
    outer loop
      vertex 0.55 10.15 7.6
      vertex -1.2 7.89833 3.7
      vertex 0.55 7.225 2.53375
    endloop
  endfacet
  facet normal -3.03319e-16 -0.866025 0.5
    outer loop
      vertex -1.4 8.9953 5.6
      vertex -1.2 7.89833 3.7
      vertex -1.4 10.15 7.6
    endloop
  endfacet
  facet normal 3.03319e-16 0.866025 -0.5
    outer loop
      vertex 2.5 2.05 7.6
      vertex 0.55 2.05 7.6
      vertex 2.5 3.175 9.54856
    endloop
  endfacet
  facet normal 3.03319e-16 0.866025 -0.5
    outer loop
      vertex 2.5 3.175 9.54856
      vertex 0.55 2.05 7.6
      vertex 0.55 3.175 9.54856
    endloop
  endfacet
  facet normal 8.1274e-17 0.866025 0.5
    outer loop
      vertex 2.5 3.175 5.65144
      vertex 0.55 3.175 5.65144
      vertex 2.5 2.05 7.6
    endloop
  endfacet
  facet normal 8.1274e-17 0.866025 0.5
    outer loop
      vertex 2.5 2.05 7.6
      vertex 0.55 3.175 5.65144
      vertex 0.55 2.05 7.6
    endloop
  endfacet
  facet normal 2.22045e-16 -4.93038e-32 -1
    outer loop
      vertex 2.5 5.425 9.54856
      vertex 2.5 3.175 9.54856
      vertex 0.55 5.425 9.54856
    endloop
  endfacet
  facet normal 2.22045e-16 -4.93038e-32 -1
    outer loop
      vertex 0.55 5.425 9.54856
      vertex 2.5 3.175 9.54856
      vertex 0.55 3.175 9.54856
    endloop
  endfacet
  facet normal -8.1274e-17 -0.866025 -0.5
    outer loop
      vertex 0.55 6.55 7.6
      vertex 2.5 6.55 7.6
      vertex 2.5 5.425 9.54856
    endloop
  endfacet
  facet normal -8.1274e-17 -0.866025 -0.5
    outer loop
      vertex 0.55 5.425 9.54856
      vertex 0.55 6.55 7.6
      vertex 2.5 5.425 9.54856
    endloop
  endfacet
  facet normal -3.03319e-16 -0.866025 0.5
    outer loop
      vertex 0.55 5.425 5.65144
      vertex 2.5 5.425 5.65144
      vertex 2.5 6.55 7.6
    endloop
  endfacet
  facet normal -3.03319e-16 -0.866025 0.5
    outer loop
      vertex 0.55 6.55 7.6
      vertex 0.55 5.425 5.65144
      vertex 2.5 6.55 7.6
    endloop
  endfacet
  facet normal -2.22045e-16 4.93038e-32 1
    outer loop
      vertex 2.5 3.175 5.65144
      vertex 2.5 5.425 5.65144
      vertex 0.55 5.425 5.65144
    endloop
  endfacet
  facet normal -2.22045e-16 4.93038e-32 1
    outer loop
      vertex 0.55 3.175 5.65144
      vertex 2.5 3.175 5.65144
      vertex 0.55 5.425 5.65144
    endloop
  endfacet
  facet normal -1 2.22045e-16 2.22045e-16
    outer loop
      vertex -1.4 8.9953 5.6
      vertex -1.4 10.15 7.6
      vertex -1.4 25 5.6
    endloop
  endfacet
  facet normal -1 2.22045e-16 2.22045e-16
    outer loop
      vertex -1.4 25 5.6
      vertex -1.4 10.15 7.6
      vertex -1.4 8.9953 9.6
    endloop
  endfacet
  facet normal -1 2.22045e-16 2.22045e-16
    outer loop
      vertex -1.4 25 5.6
      vertex -1.4 8.9953 9.6
      vertex -1.4 25 9.6
    endloop
  endfacet
  facet normal 0 0 -1
    outer loop
      vertex 21.6 25 16.6
      vertex 21.6 15 16.6
      vertex 2.5 25 16.6
    endloop
  endfacet
  facet normal 0 0 -1
    outer loop
      vertex 2.5 25 16.6
      vertex 21.6 15 16.6
      vertex 2.5 15 16.6
    endloop
  endfacet
  facet normal 0.998752 -2.21768e-16 -0.0499376
    outer loop
      vertex 25.6 10.15 7.6
      vertex 25.5 9.75218 5.6
      vertex 25.5 25 5.6
    endloop
  endfacet
  facet normal 0.998752 -2.21768e-16 -0.0499376
    outer loop
      vertex 25.6 25 7.6
      vertex 25.6 10.15 7.6
      vertex 25.5 25 5.6
    endloop
  endfacet
  facet normal 0.998752 -2.21768e-16 0.0499376
    outer loop
      vertex 25.5 25 9.6
      vertex 25.5 9.75218 9.6
      vertex 25.6 10.15 7.6
    endloop
  endfacet
  facet normal 0.998752 -2.21768e-16 0.0499376
    outer loop
      vertex 25.6 10.15 7.6
      vertex 25.6 25 7.6
      vertex 25.5 25 9.6
    endloop
  endfacet
  facet normal 0.155963 -3.46306e-17 0.987763
    outer loop
      vertex 16 25 21
      vertex 16 15 21
      vertex 17.9 15 20.7
    endloop
  endfacet
  facet normal 0.155963 -3.46306e-17 0.987763
    outer loop
      vertex 17.9 25 20.7
      vertex 16 25 21
      vertex 17.9 15 20.7
    endloop
  endfacet
  facet normal 0.0525588 -1.16704e-17 0.998618
    outer loop
      vertex 14.1 25 21.1
      vertex 14.1 15 21.1
      vertex 16 15 21
    endloop
  endfacet
  facet normal 0.0525588 -1.16704e-17 0.998618
    outer loop
      vertex 16 25 21
      vertex 14.1 25 21.1
      vertex 16 15 21
    endloop
  endfacet
  facet normal 0.0475651 -1.05616e-17 0.998868
    outer loop
      vertex 12 25 21.2
      vertex 12 15 21.2
      vertex 14.1 15 21.1
    endloop
  endfacet
  facet normal 0.0475651 -1.05616e-17 0.998868
    outer loop
      vertex 14.1 25 21.1
      vertex 12 25 21.2
      vertex 14.1 15 21.1
    endloop
  endfacet
  facet normal -0.0525588 1.16704e-17 0.998618
    outer loop
      vertex 10.1 25 21.1
      vertex 10.1 15 21.1
      vertex 12 15 21.2
    endloop
  endfacet
  facet normal -0.0525588 1.16704e-17 0.998618
    outer loop
      vertex 12 25 21.2
      vertex 10.1 25 21.1
      vertex 12 15 21.2
    endloop
  endfacet
  facet normal -0.0525588 1.16704e-17 0.998618
    outer loop
      vertex 8.2 25 21
      vertex 8.2 15 21
      vertex 10.1 15 21.1
    endloop
  endfacet
  facet normal -0.0525588 1.16704e-17 0.998618
    outer loop
      vertex 10.1 25 21.1
      vertex 8.2 25 21
      vertex 10.1 15 21.1
    endloop
  endfacet
  facet normal -0.129339 2.87191e-17 0.9916
    outer loop
      vertex 5.9 25 20.7
      vertex 5.9 15 20.7
      vertex 8.2 15 21
    endloop
  endfacet
  facet normal -0.129339 2.87191e-17 0.9916
    outer loop
      vertex 8.2 25 21
      vertex 5.9 25 20.7
      vertex 8.2 15 21
    endloop
  endfacet
  facet normal 0 0 -1
    outer loop
      vertex 4.3 0 0
      vertex 4.3 10 0
      vertex 19.8 0 0
    endloop
  endfacet
  facet normal 0 0 -1
    outer loop
      vertex 19.8 0 0
      vertex 4.3 10 0
      vertex 19.8 10 0
    endloop
  endfacet
  facet normal -1 0 0
    outer loop
      vertex 4.3 3.175 5.65144
      vertex 4.3 0 0
      vertex 4.3 2.05 7.6
    endloop
  endfacet
  facet normal -1 0 0
    outer loop
      vertex 4.3 5.425 9.54856
      vertex 4.3 0 15.5
      vertex 4.3 10 15.5
    endloop
  endfacet
  facet normal -1 0 0
    outer loop
      vertex 4.3 2.05 7.6
      vertex 4.3 0 15.5
      vertex 4.3 3.175 9.54856
    endloop
  endfacet
  facet normal -1 0 0
    outer loop
      vertex 4.3 0 0
      vertex 4.3 0 15.5
      vertex 4.3 2.05 7.6
    endloop
  endfacet
  facet normal -1 0 0
    outer loop
      vertex 4.3 6.55 7.6
      vertex 4.3 10 0
      vertex 4.3 5.425 5.65144
    endloop
  endfacet
  facet normal -1 0 0
    outer loop
      vertex 4.3 0 0
      vertex 4.3 3.175 5.65144
      vertex 4.3 10 0
    endloop
  endfacet
  facet normal -1 0 0
    outer loop
      vertex 4.3 3.175 5.65144
      vertex 4.3 5.425 5.65144
      vertex 4.3 10 0
    endloop
  endfacet
  facet normal -1 0 0
    outer loop
      vertex 4.3 10 0
      vertex 4.3 6.55 7.6
      vertex 4.3 10 15.5
    endloop
  endfacet
  facet normal -1 0 0
    outer loop
      vertex 4.3 6.55 7.6
      vertex 4.3 5.425 9.54856
      vertex 4.3 10 15.5
    endloop
  endfacet
  facet normal -1 0 0
    outer loop
      vertex 4.3 3.175 9.54856
      vertex 4.3 0 15.5
      vertex 4.3 5.425 9.54856
    endloop
  endfacet
  facet normal 0 0 1
    outer loop
      vertex 4.3 10 15.5
      vertex 4.3 0 15.5
      vertex 19.8 0 15.5
    endloop
  endfacet
  facet normal 0 0 1
    outer loop
      vertex 19.8 10 15.5
      vertex 4.3 10 15.5
      vertex 19.8 0 15.5
    endloop
  endfacet
  facet normal 1 0 0
    outer loop
      vertex 19.8 3.175 5.65144
      vertex 19.8 0 0
      vertex 19.8 10 0
    endloop
  endfacet
  facet normal 1 0 0
    outer loop
      vertex 19.8 0 15.5
      vertex 19.8 0 0
      vertex 19.8 2.05 7.6
    endloop
  endfacet
  facet normal 1 0 0
    outer loop
      vertex 19.8 0 15.5
      vertex 19.8 2.05 7.6
      vertex 19.8 3.175 9.54856
    endloop
  endfacet
  facet normal 1 0 0
    outer loop
      vertex 19.8 10 15.5
      vertex 19.8 0 15.5
      vertex 19.8 5.425 9.54856
    endloop
  endfacet
  facet normal 1 0 0
    outer loop
      vertex 19.8 10 15.5
      vertex 19.8 6.55 7.6
      vertex 19.8 10 0
    endloop
  endfacet
  facet normal 1 0 0
    outer loop
      vertex 19.8 10 15.5
      vertex 19.8 5.425 9.54856
      vertex 19.8 6.55 7.6
    endloop
  endfacet
  facet normal 1 0 0
    outer loop
      vertex 19.8 2.05 7.6
      vertex 19.8 0 0
      vertex 19.8 3.175 5.65144
    endloop
  endfacet
  facet normal 1 0 0
    outer loop
      vertex 19.8 5.425 5.65144
      vertex 19.8 3.175 5.65144
      vertex 19.8 10 0
    endloop
  endfacet
  facet normal 1 0 0
    outer loop
      vertex 19.8 3.175 9.54856
      vertex 19.8 5.425 9.54856
      vertex 19.8 0 15.5
    endloop
  endfacet
  facet normal 1 0 0
    outer loop
      vertex 19.8 6.55 7.6
      vertex 19.8 5.425 5.65144
      vertex 19.8 10 0
    endloop
  endfacet
  facet normal 3.03319e-16 0.866025 -0.5
    outer loop
      vertex 23.5 3.175 9.54856
      vertex 23.5 2.05 7.6
      vertex 21.6 3.175 9.54856
    endloop
  endfacet
  facet normal 3.03319e-16 0.866025 -0.5
    outer loop
      vertex 21.6 3.175 9.54856
      vertex 23.5 2.05 7.6
      vertex 21.6 2.05 7.6
    endloop
  endfacet
  facet normal 8.1274e-17 0.866025 0.5
    outer loop
      vertex 23.5 3.175 5.65144
      vertex 21.6 3.175 5.65144
      vertex 23.5 2.05 7.6
    endloop
  endfacet
  facet normal 8.1274e-17 0.866025 0.5
    outer loop
      vertex 23.5 2.05 7.6
      vertex 21.6 3.175 5.65144
      vertex 21.6 2.05 7.6
    endloop
  endfacet
  facet normal 2.22045e-16 -4.93038e-32 -1
    outer loop
      vertex 23.5 5.425 9.54856
      vertex 23.5 3.175 9.54856
      vertex 21.6 5.425 9.54856
    endloop
  endfacet
  facet normal 2.22045e-16 -4.93038e-32 -1
    outer loop
      vertex 21.6 5.425 9.54856
      vertex 23.5 3.175 9.54856
      vertex 21.6 3.175 9.54856
    endloop
  endfacet
  facet normal -8.1274e-17 -0.866025 -0.5
    outer loop
      vertex 21.6 6.55 7.6
      vertex 23.5 6.55 7.6
      vertex 23.5 5.425 9.54856
    endloop
  endfacet
  facet normal -8.1274e-17 -0.866025 -0.5
    outer loop
      vertex 21.6 5.425 9.54856
      vertex 21.6 6.55 7.6
      vertex 23.5 5.425 9.54856
    endloop
  endfacet
  facet normal -3.03319e-16 -0.866025 0.5
    outer loop
      vertex 23.5 5.425 5.65144
      vertex 23.5 6.55 7.6
      vertex 21.6 6.55 7.6
    endloop
  endfacet
  facet normal -3.03319e-16 -0.866025 0.5
    outer loop
      vertex 21.6 5.425 5.65144
      vertex 23.5 5.425 5.65144
      vertex 21.6 6.55 7.6
    endloop
  endfacet
  facet normal -2.22045e-16 4.93038e-32 1
    outer loop
      vertex 23.5 3.175 5.65144
      vertex 23.5 5.425 5.65144
      vertex 21.6 5.425 5.65144
    endloop
  endfacet
  facet normal -2.22045e-16 4.93038e-32 1
    outer loop
      vertex 21.6 3.175 5.65144
      vertex 23.5 3.175 5.65144
      vertex 21.6 5.425 5.65144
    endloop
  endfacet
  facet normal 4.33188e-17 -0.980785 -0.19509
    outer loop
      vertex 23.5 10.15 7.6
      vertex 25.6 10.15 7.6
      vertex 25.5 9.75218 9.6
    endloop
  endfacet
  facet normal 4.33188e-17 -0.980785 -0.19509
    outer loop
      vertex 23.5 9.70469 9.8387
      vertex 23.5 10.15 7.6
      vertex 25.4874 9.70469 9.8387
    endloop
  endfacet
  facet normal 4.33188e-17 -0.980785 -0.19509
    outer loop
      vertex 25.4874 9.70469 9.8387
      vertex 23.5 10.15 7.6
      vertex 25.5 9.75218 9.6
    endloop
  endfacet
  facet normal 1 0 2.22045e-16
    outer loop
      vertex 23.5 2.0613 13.0047
      vertex 23.5 0.163425 11.7366
      vertex 23.5 -1.10469 9.8387
    endloop
  endfacet
  facet normal 1 0 2.22045e-16
    outer loop
      vertex 23.5 -1.10469 5.3613
      vertex 23.5 2.0613 13.0047
      vertex 23.5 -1.55 7.6
    endloop
  endfacet
  facet normal 1 0 2.22045e-16
    outer loop
      vertex 23.5 -1.55 7.6
      vertex 23.5 2.0613 13.0047
      vertex 23.5 -1.10469 9.8387
    endloop
  endfacet
  facet normal 1 0 2.22045e-16
    outer loop
      vertex 23.5 0.163425 3.46342
      vertex 23.5 2.0613 13.0047
      vertex 23.5 -1.10469 5.3613
    endloop
  endfacet
  facet normal 1 0 2.22045e-16
    outer loop
      vertex 23.5 2.05 7.6
      vertex 23.5 2.0613 13.0047
      vertex 23.5 0.163425 3.46342
    endloop
  endfacet
  facet normal 1 0 2.22045e-16
    outer loop
      vertex 23.5 2.05 7.6
      vertex 23.5 3.175 9.54856
      vertex 23.5 2.0613 13.0047
    endloop
  endfacet
  facet normal 1 0 2.22045e-16
    outer loop
      vertex 23.5 3.175 5.65144
      vertex 23.5 2.05 7.6
      vertex 23.5 2.0613 2.1953
    endloop
  endfacet
  facet normal 1 0 2.22045e-16
    outer loop
      vertex 23.5 5.425 5.65144
      vertex 23.5 4.3 1.75
      vertex 23.5 6.5387 2.1953
    endloop
  endfacet
  facet normal 1 0 2.22045e-16
    outer loop
      vertex 23.5 10.15 7.6
      vertex 23.5 2.0613 13.0047
      vertex 23.5 9.70469 5.3613
    endloop
  endfacet
  facet normal 1 0 2.22045e-16
    outer loop
      vertex 23.5 9.70469 9.8387
      vertex 23.5 2.0613 13.0047
      vertex 23.5 10.15 7.6
    endloop
  endfacet
  facet normal 1 0 2.22045e-16
    outer loop
      vertex 23.5 8.43657 11.7366
      vertex 23.5 2.0613 13.0047
      vertex 23.5 9.70469 9.8387
    endloop
  endfacet
  facet normal 1 0 2.22045e-16
    outer loop
      vertex 23.5 6.5387 13.0047
      vertex 23.5 2.0613 13.0047
      vertex 23.5 8.43657 11.7366
    endloop
  endfacet
  facet normal 1 0 2.22045e-16
    outer loop
      vertex 23.5 4.3 13.45
      vertex 23.5 2.0613 13.0047
      vertex 23.5 6.5387 13.0047
    endloop
  endfacet
  facet normal 1 0 2.22045e-16
    outer loop
      vertex 23.5 9.70469 5.3613
      vertex 23.5 2.0613 13.0047
      vertex 23.5 5.425 9.54856
    endloop
  endfacet
  facet normal 1 0 2.22045e-16
    outer loop
      vertex 23.5 9.70469 5.3613
      vertex 23.5 6.55 7.6
      vertex 23.5 8.43657 3.46342
    endloop
  endfacet
  facet normal 1 0 2.22045e-16
    outer loop
      vertex 23.5 9.70469 5.3613
      vertex 23.5 5.425 9.54856
      vertex 23.5 6.55 7.6
    endloop
  endfacet
  facet normal 1 0 2.22045e-16
    outer loop
      vertex 23.5 8.43657 3.46342
      vertex 23.5 5.425 5.65144
      vertex 23.5 6.5387 2.1953
    endloop
  endfacet
  facet normal 1 0 2.22045e-16
    outer loop
      vertex 23.5 6.55 7.6
      vertex 23.5 5.425 5.65144
      vertex 23.5 8.43657 3.46342
    endloop
  endfacet
  facet normal 1 0 2.22045e-16
    outer loop
      vertex 23.5 4.3 1.75
      vertex 23.5 3.175 5.65144
      vertex 23.5 2.0613 2.1953
    endloop
  endfacet
  facet normal 1 0 2.22045e-16
    outer loop
      vertex 23.5 2.0613 2.1953
      vertex 23.5 2.05 7.6
      vertex 23.5 0.163425 3.46342
    endloop
  endfacet
  facet normal 1 0 2.22045e-16
    outer loop
      vertex 23.5 5.425 5.65144
      vertex 23.5 3.175 5.65144
      vertex 23.5 4.3 1.75
    endloop
  endfacet
  facet normal 1 0 2.22045e-16
    outer loop
      vertex 23.5 3.175 9.54856
      vertex 23.5 5.425 9.54856
      vertex 23.5 2.0613 13.0047
    endloop
  endfacet
  facet normal -4.33188e-17 -0.980785 0.19509
    outer loop
      vertex 23.5 9.70469 5.3613
      vertex 25.4874 9.70469 5.3613
      vertex 25.5 9.75218 5.6
    endloop
  endfacet
  facet normal -4.33188e-17 -0.980785 0.19509
    outer loop
      vertex 25.6 10.15 7.6
      vertex 23.5 9.70469 5.3613
      vertex 25.5 9.75218 5.6
    endloop
  endfacet
  facet normal -4.33188e-17 -0.980785 0.19509
    outer loop
      vertex 23.5 10.15 7.6
      vertex 23.5 9.70469 5.3613
      vertex 25.6 10.15 7.6
    endloop
  endfacet
  facet normal 0 1 0
    outer loop
      vertex 4.3 10 0
      vertex 4.3 10 15.5
      vertex 19.8 10 0
    endloop
  endfacet
  facet normal 0 1 0
    outer loop
      vertex 19.8 10 0
      vertex 4.3 10 15.5
      vertex 19.8 10 15.5
    endloop
  endfacet
  facet normal 2.22045e-16 -4.93038e-32 -1
    outer loop
      vertex 19.8 5.425 9.54856
      vertex 19.8 3.175 9.54856
      vertex 4.3 5.425 9.54856
    endloop
  endfacet
  facet normal 2.22045e-16 -4.93038e-32 -1
    outer loop
      vertex 4.3 5.425 9.54856
      vertex 19.8 3.175 9.54856
      vertex 4.3 3.175 9.54856
    endloop
  endfacet
  facet normal 3.03319e-16 0.866025 -0.5
    outer loop
      vertex 19.8 3.175 9.54856
      vertex 19.8 2.05 7.6
      vertex 4.3 3.175 9.54856
    endloop
  endfacet
  facet normal 3.03319e-16 0.866025 -0.5
    outer loop
      vertex 4.3 3.175 9.54856
      vertex 19.8 2.05 7.6
      vertex 4.3 2.05 7.6
    endloop
  endfacet
  facet normal -8.1274e-17 -0.866025 -0.5
    outer loop
      vertex 4.3 6.55 7.6
      vertex 19.8 6.55 7.6
      vertex 19.8 5.425 9.54856
    endloop
  endfacet
  facet normal -8.1274e-17 -0.866025 -0.5
    outer loop
      vertex 4.3 5.425 9.54856
      vertex 4.3 6.55 7.6
      vertex 19.8 5.425 9.54856
    endloop
  endfacet
  facet normal -3.03319e-16 -0.866025 0.5
    outer loop
      vertex 19.8 5.425 5.65144
      vertex 19.8 6.55 7.6
      vertex 4.3 6.55 7.6
    endloop
  endfacet
  facet normal -3.03319e-16 -0.866025 0.5
    outer loop
      vertex 4.3 5.425 5.65144
      vertex 19.8 5.425 5.65144
      vertex 4.3 6.55 7.6
    endloop
  endfacet
  facet normal -2.22045e-16 4.93038e-32 1
    outer loop
      vertex 19.8 3.175 5.65144
      vertex 19.8 5.425 5.65144
      vertex 4.3 5.425 5.65144
    endloop
  endfacet
  facet normal -2.22045e-16 4.93038e-32 1
    outer loop
      vertex 4.3 3.175 5.65144
      vertex 19.8 3.175 5.65144
      vertex 4.3 5.425 5.65144
    endloop
  endfacet
  facet normal 8.1274e-17 0.866025 0.5
    outer loop
      vertex 19.8 3.175 5.65144
      vertex 4.3 3.175 5.65144
      vertex 19.8 2.05 7.6
    endloop
  endfacet
  facet normal 8.1274e-17 0.866025 0.5
    outer loop
      vertex 19.8 2.05 7.6
      vertex 4.3 3.175 5.65144
      vertex 4.3 2.05 7.6
    endloop
  endfacet
endsolid OpenSCAD_Model
