solid OpenSCAD_Model
  facet normal -1 0 0
    outer loop
      vertex 4.3 5.16777 9.40194
      vertex 4.3 0 15.5
      vertex 4.3 20 0
    endloop
  endfacet
  facet normal -1 0 0
    outer loop
      vertex 4.3 20 0
      vertex 4.3 0 15.5
      vertex 4.3 20 15.5
    endloop
  endfacet
  facet normal -1 0 0
    outer loop
      vertex 4.3 0 0
      vertex 4.3 0 15.5
      vertex 4.3 2.35014 8.04504
    endloop
  endfacet
  facet normal -1 0 0
    outer loop
      vertex 4.3 0 0
      vertex 4.3 2.35014 8.04504
      vertex 4.3 2.73634 6.35302
    endloop
  endfacet
  facet normal -1 0 0
    outer loop
      vertex 4.3 0 0
      vertex 4.3 2.73634 6.35302
      vertex 4.3 4.3 5.6
    endloop
  endfacet
  facet normal -1 0 0
    outer loop
      vertex 4.3 0 0
      vertex 4.3 4.3 5.6
      vertex 4.3 20 0
    endloop
  endfacet
  facet normal -1 0 0
    outer loop
      vertex 4.3 6.24986 8.04504
      vertex 4.3 20 0
      vertex 4.3 5.86366 6.35302
    endloop
  endfacet
  facet normal -1 0 0
    outer loop
      vertex 4.3 3.43223 9.40194
      vertex 4.3 0 15.5
      vertex 4.3 5.16777 9.40194
    endloop
  endfacet
  facet normal -1 0 0
    outer loop
      vertex 4.3 6.24986 8.04504
      vertex 4.3 5.16777 9.40194
      vertex 4.3 20 0
    endloop
  endfacet
  facet normal -1 0 0
    outer loop
      vertex 4.3 2.35014 8.04504
      vertex 4.3 0 15.5
      vertex 4.3 3.43223 9.40194
    endloop
  endfacet
  facet normal -1 0 0
    outer loop
      vertex 4.3 5.86366 6.35302
      vertex 4.3 20 0
      vertex 4.3 4.3 5.6
    endloop
  endfacet
  facet normal 0 -1 0
    outer loop
      vertex 4.3 0 15.5
      vertex 4.3 0 0
      vertex 19.8 0 0
    endloop
  endfacet
  facet normal 0 -1 0
    outer loop
      vertex 19.8 0 15.5
      vertex 4.3 0 15.5
      vertex 19.8 0 0
    endloop
  endfacet
  facet normal 0 0 -1
    outer loop
      vertex 4.3 0 0
      vertex 4.3 20 0
      vertex 19.8 0 0
    endloop
  endfacet
  facet normal 0 0 -1
    outer loop
      vertex 19.8 0 0
      vertex 4.3 20 0
      vertex 19.8 20 0
    endloop
  endfacet
  facet normal 0 1 0
    outer loop
      vertex 4.3 20 0
      vertex 4.3 20 15.5
      vertex 19.8 20 0
    endloop
  endfacet
  facet normal 0 1 0
    outer loop
      vertex 19.8 20 0
      vertex 4.3 20 15.5
      vertex 19.8 20 15.5
    endloop
  endfacet
  facet normal 0 0 1
    outer loop
      vertex 4.3 20 15.5
      vertex 4.3 0 15.5
      vertex 19.8 0 15.5
    endloop
  endfacet
  facet normal 0 0 1
    outer loop
      vertex 19.8 20 15.5
      vertex 4.3 20 15.5
      vertex 19.8 0 15.5
    endloop
  endfacet
  facet normal 1.38443e-16 0.781831 -0.62349
    outer loop
      vertex 19.8 3.43223 9.40194
      vertex 19.8 2.35014 8.04504
      vertex 4.3 3.43223 9.40194
    endloop
  endfacet
  facet normal 1.38443e-16 0.781831 -0.62349
    outer loop
      vertex 4.3 3.43223 9.40194
      vertex 19.8 2.35014 8.04504
      vertex 4.3 2.35014 8.04504
    endloop
  endfacet
  facet normal -4.94096e-17 0.974928 0.222521
    outer loop
      vertex 19.8 2.73634 6.35302
      vertex 4.3 2.73634 6.35302
      vertex 19.8 2.35014 8.04504
    endloop
  endfacet
  facet normal -4.94096e-17 0.974928 0.222521
    outer loop
      vertex 19.8 2.35014 8.04504
      vertex 4.3 2.73634 6.35302
      vertex 4.3 2.35014 8.04504
    endloop
  endfacet
  facet normal 2.22045e-16 0 -1
    outer loop
      vertex 19.8 5.16777 9.40194
      vertex 19.8 3.43223 9.40194
      vertex 4.3 5.16777 9.40194
    endloop
  endfacet
  facet normal 2.22045e-16 0 -1
    outer loop
      vertex 4.3 5.16777 9.40194
      vertex 19.8 3.43223 9.40194
      vertex 4.3 3.43223 9.40194
    endloop
  endfacet
  facet normal 1.38443e-16 -0.781831 -0.62349
    outer loop
      vertex 4.3 6.24986 8.04504
      vertex 19.8 6.24986 8.04504
      vertex 19.8 5.16777 9.40194
    endloop
  endfacet
  facet normal 1.38443e-16 -0.781831 -0.62349
    outer loop
      vertex 4.3 5.16777 9.40194
      vertex 4.3 6.24986 8.04504
      vertex 19.8 5.16777 9.40194
    endloop
  endfacet
  facet normal -4.94096e-17 -0.974928 0.222521
    outer loop
      vertex 19.8 5.86366 6.35302
      vertex 19.8 6.24986 8.04504
      vertex 4.3 6.24986 8.04504
    endloop
  endfacet
  facet normal -4.94096e-17 -0.974928 0.222521
    outer loop
      vertex 4.3 5.86366 6.35302
      vertex 19.8 5.86366 6.35302
      vertex 4.3 6.24986 8.04504
    endloop
  endfacet
  facet normal -2.00055e-16 -0.433884 0.900969
    outer loop
      vertex 19.8 4.3 5.6
      vertex 19.8 5.86366 6.35302
      vertex 4.3 5.86366 6.35302
    endloop
  endfacet
  facet normal -2.00055e-16 -0.433884 0.900969
    outer loop
      vertex 4.3 4.3 5.6
      vertex 19.8 4.3 5.6
      vertex 4.3 5.86366 6.35302
    endloop
  endfacet
  facet normal -2.00055e-16 0.433884 0.900969
    outer loop
      vertex 19.8 2.73634 6.35302
      vertex 19.8 4.3 5.6
      vertex 4.3 4.3 5.6
    endloop
  endfacet
  facet normal -2.00055e-16 0.433884 0.900969
    outer loop
      vertex 4.3 2.73634 6.35302
      vertex 19.8 2.73634 6.35302
      vertex 4.3 4.3 5.6
    endloop
  endfacet
  facet normal 1 0 0
    outer loop
      vertex 19.8 4.3 5.6
      vertex 19.8 0 0
      vertex 19.8 20 0
    endloop
  endfacet
  facet normal 1 0 0
    outer loop
      vertex 19.8 20 15.5
      vertex 19.8 0 15.5
      vertex 19.8 20 0
    endloop
  endfacet
  facet normal 1 0 0
    outer loop
      vertex 19.8 0 15.5
      vertex 19.8 0 0
      vertex 19.8 2.73634 6.35302
    endloop
  endfacet
  facet normal 1 0 0
    outer loop
      vertex 19.8 5.86366 6.35302
      vertex 19.8 4.3 5.6
      vertex 19.8 20 0
    endloop
  endfacet
  facet normal 1 0 0
    outer loop
      vertex 19.8 0 15.5
      vertex 19.8 2.73634 6.35302
      vertex 19.8 2.35014 8.04504
    endloop
  endfacet
  facet normal 1 0 0
    outer loop
      vertex 19.8 0 15.5
      vertex 19.8 2.35014 8.04504
      vertex 19.8 3.43223 9.40194
    endloop
  endfacet
  facet normal 1 0 0
    outer loop
      vertex 19.8 0 15.5
      vertex 19.8 5.16777 9.40194
      vertex 19.8 20 0
    endloop
  endfacet
  facet normal 1 0 0
    outer loop
      vertex 19.8 0 15.5
      vertex 19.8 3.43223 9.40194
      vertex 19.8 5.16777 9.40194
    endloop
  endfacet
  facet normal 1 0 0
    outer loop
      vertex 19.8 5.16777 9.40194
      vertex 19.8 6.24986 8.04504
      vertex 19.8 20 0
    endloop
  endfacet
  facet normal 1 0 0
    outer loop
      vertex 19.8 2.73634 6.35302
      vertex 19.8 0 0
      vertex 19.8 4.3 5.6
    endloop
  endfacet
  facet normal 1 0 0
    outer loop
      vertex 19.8 6.24986 8.04504
      vertex 19.8 5.86366 6.35302
      vertex 19.8 20 0
    endloop
  endfacet
  facet normal -1 0 0
    outer loop
      vertex 0 6.24986 8.04504
      vertex 0 0 19.1
      vertex 0 20 0
    endloop
  endfacet
  facet normal -1 0 0
    outer loop
      vertex 0 20 0
      vertex 0 0 19.1
      vertex 0 20 19.1
    endloop
  endfacet
  facet normal -1 0 0
    outer loop
      vertex 0 0 0
      vertex 0 0 19.1
      vertex 0 2.35014 8.04504
    endloop
  endfacet
  facet normal -1 0 0
    outer loop
      vertex 0 0 0
      vertex 0 2.35014 8.04504
      vertex 0 2.73634 6.35302
    endloop
  endfacet
  facet normal -1 0 0
    outer loop
      vertex 0 0 0
      vertex 0 2.73634 6.35302
      vertex 0 4.3 5.6
    endloop
  endfacet
  facet normal -1 0 0
    outer loop
      vertex 0 0 0
      vertex 0 4.3 5.6
      vertex 0 20 0
    endloop
  endfacet
  facet normal -1 0 0
    outer loop
      vertex 0 6.24986 8.04504
      vertex 0 20 0
      vertex 0 5.86366 6.35302
    endloop
  endfacet
  facet normal -1 0 0
    outer loop
      vertex 0 5.16777 9.40194
      vertex 0 0 19.1
      vertex 0 6.24986 8.04504
    endloop
  endfacet
  facet normal -1 0 0
    outer loop
      vertex 0 3.43223 9.40194
      vertex 0 0 19.1
      vertex 0 5.16777 9.40194
    endloop
  endfacet
  facet normal -1 0 0
    outer loop
      vertex 0 2.35014 8.04504
      vertex 0 0 19.1
      vertex 0 3.43223 9.40194
    endloop
  endfacet
  facet normal -1 0 0
    outer loop
      vertex 0 5.86366 6.35302
      vertex 0 20 0
      vertex 0 4.3 5.6
    endloop
  endfacet
  facet normal 0 -1 0
    outer loop
      vertex 0 0 19.1
      vertex 0 0 0
      vertex 2.5 0 0
    endloop
  endfacet
  facet normal 0 -1 0
    outer loop
      vertex 21.6 0 16.6
      vertex 0 0 19.1
      vertex 2.5 0 16.6
    endloop
  endfacet
  facet normal 0 -1 0
    outer loop
      vertex 2.5 0 16.6
      vertex 0 0 19.1
      vertex 2.5 0 0
    endloop
  endfacet
  facet normal 0 -1 0
    outer loop
      vertex 23.4 0 19.1
      vertex 0 0 19.1
      vertex 21.6 0 16.6
    endloop
  endfacet
  facet normal 0 -1 0
    outer loop
      vertex 23.4 0 0
      vertex 21.6 0 16.6
      vertex 21.6 0 0
    endloop
  endfacet
  facet normal 0 -1 0
    outer loop
      vertex 23.4 0 19.1
      vertex 21.6 0 16.6
      vertex 23.4 0 0
    endloop
  endfacet
  facet normal 0 0 -1
    outer loop
      vertex 0 0 0
      vertex 0 20 0
      vertex 2.5 0 0
    endloop
  endfacet
  facet normal 0 0 -1
    outer loop
      vertex 2.5 0 0
      vertex 0 20 0
      vertex 2.5 20 0
    endloop
  endfacet
  facet normal 0 1 0
    outer loop
      vertex 0 20 0
      vertex 0 20 19.1
      vertex 2.5 20 0
    endloop
  endfacet
  facet normal 0 1 0
    outer loop
      vertex 2.5 20 16.6
      vertex 0 20 19.1
      vertex 23.4 20 19.1
    endloop
  endfacet
  facet normal 0 1 0
    outer loop
      vertex 21.6 20 0
      vertex 23.4 20 19.1
      vertex 23.4 20 0
    endloop
  endfacet
  facet normal 0 1 0
    outer loop
      vertex 21.6 20 16.6
      vertex 23.4 20 19.1
      vertex 21.6 20 0
    endloop
  endfacet
  facet normal 0 1 0
    outer loop
      vertex 2.5 20 0
      vertex 0 20 19.1
      vertex 2.5 20 16.6
    endloop
  endfacet
  facet normal 0 1 0
    outer loop
      vertex 2.5 20 16.6
      vertex 23.4 20 19.1
      vertex 21.6 20 16.6
    endloop
  endfacet
  facet normal 0 0 1
    outer loop
      vertex 0 20 19.1
      vertex 0 0 19.1
      vertex 23.4 0 19.1
    endloop
  endfacet
  facet normal 0 0 1
    outer loop
      vertex 23.4 20 19.1
      vertex 0 20 19.1
      vertex 23.4 0 19.1
    endloop
  endfacet
  facet normal 1.38443e-16 0.781831 -0.62349
    outer loop
      vertex 2.5 3.43223 9.40194
      vertex 2.5 2.35014 8.04504
      vertex 0 3.43223 9.40194
    endloop
  endfacet
  facet normal 1.38443e-16 0.781831 -0.62349
    outer loop
      vertex 0 3.43223 9.40194
      vertex 2.5 2.35014 8.04504
      vertex 0 2.35014 8.04504
    endloop
  endfacet
  facet normal -4.94096e-17 0.974928 0.222521
    outer loop
      vertex 2.5 2.73634 6.35302
      vertex 0 2.73634 6.35302
      vertex 2.5 2.35014 8.04504
    endloop
  endfacet
  facet normal -4.94096e-17 0.974928 0.222521
    outer loop
      vertex 2.5 2.35014 8.04504
      vertex 0 2.73634 6.35302
      vertex 0 2.35014 8.04504
    endloop
  endfacet
  facet normal 2.22045e-16 0 -1
    outer loop
      vertex 2.5 5.16777 9.40194
      vertex 2.5 3.43223 9.40194
      vertex 0 5.16777 9.40194
    endloop
  endfacet
  facet normal 2.22045e-16 0 -1
    outer loop
      vertex 0 5.16777 9.40194
      vertex 2.5 3.43223 9.40194
      vertex 0 3.43223 9.40194
    endloop
  endfacet
  facet normal 1.38443e-16 -0.781831 -0.62349
    outer loop
      vertex 0 6.24986 8.04504
      vertex 2.5 6.24986 8.04504
      vertex 2.5 5.16777 9.40194
    endloop
  endfacet
  facet normal 1.38443e-16 -0.781831 -0.62349
    outer loop
      vertex 0 5.16777 9.40194
      vertex 0 6.24986 8.04504
      vertex 2.5 5.16777 9.40194
    endloop
  endfacet
  facet normal -4.94096e-17 -0.974928 0.222521
    outer loop
      vertex 2.5 5.86366 6.35302
      vertex 2.5 6.24986 8.04504
      vertex 0 6.24986 8.04504
    endloop
  endfacet
  facet normal -4.94096e-17 -0.974928 0.222521
    outer loop
      vertex 0 5.86366 6.35302
      vertex 2.5 5.86366 6.35302
      vertex 0 6.24986 8.04504
    endloop
  endfacet
  facet normal -2.00055e-16 -0.433884 0.900969
    outer loop
      vertex 2.5 4.3 5.6
      vertex 2.5 5.86366 6.35302
      vertex 0 5.86366 6.35302
    endloop
  endfacet
  facet normal -2.00055e-16 -0.433884 0.900969
    outer loop
      vertex 0 4.3 5.6
      vertex 2.5 4.3 5.6
      vertex 0 5.86366 6.35302
    endloop
  endfacet
  facet normal -2.00055e-16 0.433884 0.900969
    outer loop
      vertex 2.5 2.73634 6.35302
      vertex 2.5 4.3 5.6
      vertex 0 4.3 5.6
    endloop
  endfacet
  facet normal -2.00055e-16 0.433884 0.900969
    outer loop
      vertex 0 2.73634 6.35302
      vertex 2.5 2.73634 6.35302
      vertex 0 4.3 5.6
    endloop
  endfacet
  facet normal 1 0 0
    outer loop
      vertex 23.4 4.3 5.6
      vertex 23.4 0 0
      vertex 23.4 20 0
    endloop
  endfacet
  facet normal 1 0 0
    outer loop
      vertex 23.4 20 19.1
      vertex 23.4 0 19.1
      vertex 23.4 20 0
    endloop
  endfacet
  facet normal 1 0 0
    outer loop
      vertex 23.4 2.45172 7.6
      vertex 23.4 0 0
      vertex 23.4 2.73634 6.35302
    endloop
  endfacet
  facet normal 1 0 0
    outer loop
      vertex 23.4 5.86366 6.35302
      vertex 23.4 4.3 5.6
      vertex 23.4 20 0
    endloop
  endfacet
  facet normal 1 0 0
    outer loop
      vertex 23.4 0 19.1
      vertex 23.4 0 0
      vertex 23.4 2.45172 7.6
    endloop
  endfacet
  facet normal 1 0 0
    outer loop
      vertex 23.4 0 19.1
      vertex 23.4 6.14828 7.6
      vertex 23.4 20 0
    endloop
  endfacet
  facet normal 1 0 0
    outer loop
      vertex 23.4 6.14828 7.6
      vertex 23.4 5.86366 6.35302
      vertex 23.4 20 0
    endloop
  endfacet
  facet normal 1 0 0
    outer loop
      vertex 23.4 2.73634 6.35302
      vertex 23.4 0 0
      vertex 23.4 4.3 5.6
    endloop
  endfacet
  facet normal 1 0 0
    outer loop
      vertex 23.4 2.45172 7.6
      vertex 23.4 6.14828 7.6
      vertex 23.4 0 19.1
    endloop
  endfacet
  facet normal 0 0 -1
    outer loop
      vertex 21.6 0 0
      vertex 21.6 20 0
      vertex 23.4 0 0
    endloop
  endfacet
  facet normal 0 0 -1
    outer loop
      vertex 23.4 0 0
      vertex 21.6 20 0
      vertex 23.4 20 0
    endloop
  endfacet
  facet normal -1 0 0
    outer loop
      vertex 21.6 20 16.6
      vertex 21.6 20 0
      vertex 21.6 0 16.6
    endloop
  endfacet
  facet normal -1 0 0
    outer loop
      vertex 21.6 4.3 5.6
      vertex 21.6 20 0
      vertex 21.6 0 0
    endloop
  endfacet
  facet normal -1 0 0
    outer loop
      vertex 21.6 3.43223 9.40194
      vertex 21.6 0 16.6
      vertex 21.6 5.16777 9.40194
    endloop
  endfacet
  facet normal -1 0 0
    outer loop
      vertex 21.6 0 16.6
      vertex 21.6 2.73634 6.35302
      vertex 21.6 0 0
    endloop
  endfacet
  facet normal -1 0 0
    outer loop
      vertex 21.6 2.73634 6.35302
      vertex 21.6 4.3 5.6
      vertex 21.6 0 0
    endloop
  endfacet
  facet normal -1 0 0
    outer loop
      vertex 21.6 6.24986 8.04504
      vertex 21.6 20 0
      vertex 21.6 5.86366 6.35302
    endloop
  endfacet
  facet normal -1 0 0
    outer loop
      vertex 21.6 0 16.6
      vertex 21.6 20 0
      vertex 21.6 6.24986 8.04504
    endloop
  endfacet
  facet normal -1 0 0
    outer loop
      vertex 21.6 0 16.6
      vertex 21.6 6.24986 8.04504
      vertex 21.6 5.16777 9.40194
    endloop
  endfacet
  facet normal -1 0 0
    outer loop
      vertex 21.6 0 16.6
      vertex 21.6 3.43223 9.40194
      vertex 21.6 2.35014 8.04504
    endloop
  endfacet
  facet normal -1 0 0
    outer loop
      vertex 21.6 0 16.6
      vertex 21.6 2.35014 8.04504
      vertex 21.6 2.73634 6.35302
    endloop
  endfacet
  facet normal -1 0 0
    outer loop
      vertex 21.6 5.86366 6.35302
      vertex 21.6 20 0
      vertex 21.6 4.3 5.6
    endloop
  endfacet
  facet normal 0 0 -1
    outer loop
      vertex 21.6 20 16.6
      vertex 21.6 0 16.6
      vertex 2.5 20 16.6
    endloop
  endfacet
  facet normal 0 0 -1
    outer loop
      vertex 2.5 20 16.6
      vertex 21.6 0 16.6
      vertex 2.5 0 16.6
    endloop
  endfacet
  facet normal 1 0 0
    outer loop
      vertex 2.5 20 0
      vertex 2.5 20 16.6
      vertex 2.5 0 16.6
    endloop
  endfacet
  facet normal 1 0 0
    outer loop
      vertex 2.5 5.16777 9.40194
      vertex 2.5 20 0
      vertex 2.5 0 16.6
    endloop
  endfacet
  facet normal 1 0 0
    outer loop
      vertex 2.5 0 0
      vertex 2.5 2.35014 8.04504
      vertex 2.5 0 16.6
    endloop
  endfacet
  facet normal 1 0 0
    outer loop
      vertex 2.5 2.35014 8.04504
      vertex 2.5 3.43223 9.40194
      vertex 2.5 0 16.6
    endloop
  endfacet
  facet normal 1 0 0
    outer loop
      vertex 2.5 3.43223 9.40194
      vertex 2.5 5.16777 9.40194
      vertex 2.5 0 16.6
    endloop
  endfacet
  facet normal 1 0 0
    outer loop
      vertex 2.5 6.24986 8.04504
      vertex 2.5 20 0
      vertex 2.5 5.16777 9.40194
    endloop
  endfacet
  facet normal 1 0 0
    outer loop
      vertex 2.5 0 0
      vertex 2.5 20 0
      vertex 2.5 5.86366 6.35302
    endloop
  endfacet
  facet normal 1 0 0
    outer loop
      vertex 2.5 0 0
      vertex 2.5 5.86366 6.35302
      vertex 2.5 4.3 5.6
    endloop
  endfacet
  facet normal 1 0 0
    outer loop
      vertex 2.5 0 0
      vertex 2.5 2.73634 6.35302
      vertex 2.5 2.35014 8.04504
    endloop
  endfacet
  facet normal 1 0 0
    outer loop
      vertex 2.5 0 0
      vertex 2.5 4.3 5.6
      vertex 2.5 2.73634 6.35302
    endloop
  endfacet
  facet normal 1 0 0
    outer loop
      vertex 2.5 6.24986 8.04504
      vertex 2.5 5.86366 6.35302
      vertex 2.5 20 0
    endloop
  endfacet
  facet normal -4.94096e-17 0.974928 0.222521
    outer loop
      vertex 23.4 2.45172 7.6
      vertex 23.4 2.73634 6.35302
      vertex 23.4 2.35014 8.04504
    endloop
  endfacet
  facet normal -4.94096e-17 0.974928 0.222521
    outer loop
      vertex 23.4 2.35014 8.04504
      vertex 23.4 2.73634 6.35302
      vertex 21.6 2.73634 6.35302
    endloop
  endfacet
  facet normal -4.94096e-17 0.974928 0.222521
    outer loop
      vertex 23.4 2.35014 8.04504
      vertex 21.6 2.73634 6.35302
      vertex 21.6 2.35014 8.04504
    endloop
  endfacet
  facet normal -2.00055e-16 0.433884 0.900969
    outer loop
      vertex 23.4 2.73634 6.35302
      vertex 23.4 4.3 5.6
      vertex 21.6 4.3 5.6
    endloop
  endfacet
  facet normal -2.00055e-16 0.433884 0.900969
    outer loop
      vertex 21.6 2.73634 6.35302
      vertex 23.4 2.73634 6.35302
      vertex 21.6 4.3 5.6
    endloop
  endfacet
  facet normal -2.00055e-16 -0.433884 0.900969
    outer loop
      vertex 23.4 4.3 5.6
      vertex 23.4 5.86366 6.35302
      vertex 21.6 5.86366 6.35302
    endloop
  endfacet
  facet normal -2.00055e-16 -0.433884 0.900969
    outer loop
      vertex 21.6 4.3 5.6
      vertex 23.4 4.3 5.6
      vertex 21.6 5.86366 6.35302
    endloop
  endfacet
  facet normal -4.94096e-17 -0.974928 0.222521
    outer loop
      vertex 23.4 5.86366 6.35302
      vertex 23.4 6.14828 7.6
      vertex 23.4 6.24986 8.04504
    endloop
  endfacet
  facet normal -4.94096e-17 -0.974928 0.222521
    outer loop
      vertex 21.6 5.86366 6.35302
      vertex 23.4 5.86366 6.35302
      vertex 21.6 6.24986 8.04504
    endloop
  endfacet
  facet normal -4.94096e-17 -0.974928 0.222521
    outer loop
      vertex 21.6 6.24986 8.04504
      vertex 23.4 5.86366 6.35302
      vertex 23.4 6.24986 8.04504
    endloop
  endfacet
  facet normal -1 0 -2.22045e-16
    outer loop
      vertex 23.4 6.24986 8.04504
      vertex 23.4 6.14828 7.6
      vertex 23.4 5.16777 9.40194
    endloop
  endfacet
  facet normal -1 0 -2.22045e-16
    outer loop
      vertex 23.4 5.16777 9.40194
      vertex 23.4 6.14828 7.6
      vertex 23.4 2.45172 7.6
    endloop
  endfacet
  facet normal -1 0 -2.22045e-16
    outer loop
      vertex 23.4 5.16777 9.40194
      vertex 23.4 2.45172 7.6
      vertex 23.4 2.35014 8.04504
    endloop
  endfacet
  facet normal -1 0 -2.22045e-16
    outer loop
      vertex 23.4 5.16777 9.40194
      vertex 23.4 2.35014 8.04504
      vertex 23.4 3.43223 9.40194
    endloop
  endfacet
  facet normal 1.38443e-16 0.781831 -0.62349
    outer loop
      vertex 23.4 3.43223 9.40194
      vertex 23.4 2.35014 8.04504
      vertex 21.6 3.43223 9.40194
    endloop
  endfacet
  facet normal 1.38443e-16 0.781831 -0.62349
    outer loop
      vertex 21.6 3.43223 9.40194
      vertex 23.4 2.35014 8.04504
      vertex 21.6 2.35014 8.04504
    endloop
  endfacet
  facet normal 2.22045e-16 0 -1
    outer loop
      vertex 23.4 5.16777 9.40194
      vertex 23.4 3.43223 9.40194
      vertex 21.6 5.16777 9.40194
    endloop
  endfacet
  facet normal 2.22045e-16 0 -1
    outer loop
      vertex 21.6 5.16777 9.40194
      vertex 23.4 3.43223 9.40194
      vertex 21.6 3.43223 9.40194
    endloop
  endfacet
  facet normal 1.38443e-16 -0.781831 -0.62349
    outer loop
      vertex 21.6 6.24986 8.04504
      vertex 23.4 6.24986 8.04504
      vertex 23.4 5.16777 9.40194
    endloop
  endfacet
  facet normal 1.38443e-16 -0.781831 -0.62349
    outer loop
      vertex 21.6 5.16777 9.40194
      vertex 21.6 6.24986 8.04504
      vertex 23.4 5.16777 9.40194
    endloop
  endfacet
endsolid OpenSCAD_Model
